<svg width="180" height="120" viewBox="0 0 180 120" fill="none" xmlns="http://www.w3.org/2000/svg">
<rect width="180" height="120" rx="9" fill="url(#paint0_linear)"/>
<g filter="url(#filter0_d)">
<path d="M170.826 105.988C170.826 109.693 167.814 112.699 164.097 112.699C160.379 112.699 157.368 109.693 157.368 105.988C157.368 102.284 160.379 99.2783 164.097 99.2783C167.814 99.2783 170.826 102.284 170.826 105.988Z" fill="white" stroke="#62268B"/>
<path d="M166.688 106.269L163.374 109.477C163.215 109.632 162.956 109.632 162.796 109.477L162.409 109.103C162.25 108.949 162.25 108.698 162.409 108.543L165.035 105.988L162.409 103.433C162.25 103.279 162.25 103.028 162.409 102.874L162.796 102.499C162.956 102.345 163.215 102.345 163.374 102.499L166.688 105.708C166.848 105.863 166.848 106.114 166.688 106.269Z" fill="#35164A"/>
</g>
<text fill="#FBF7FD" xml:space="preserve" style="white-space: pre" font-family="Roboto" font-size="10" font-weight="bold" letter-spacing="0.4px"><tspan x="60" y="109.918">&#x417;&#x410;&#x41f;&#x418;&#x428;&#x418;&#x421;&#x42c;</tspan></text>
<path d="M27.4834 106.822C27.4874 107.409 27.4298 107.994 27.3115 108.569C27.2875 108.677 27.2634 108.783 27.2393 108.886C26.5984 111.448 24.7905 113.322 22.6338 113.442C22.5616 113.442 22.4894 113.442 22.4138 113.442C20.1334 113.442 18.2053 111.48 17.5677 108.778C17.5505 108.706 17.535 108.634 17.5179 108.562C17.3967 107.988 17.3362 107.402 17.3374 106.816C17.3374 103.155 19.611 100.189 22.4138 100.189C25.2167 100.189 27.4834 103.162 27.4834 106.822Z" fill="#35164A"/>
<path d="M38.3131 94.4769C38.3138 92.8695 37.9353 91.2845 37.2081 89.85L31.2364 91.7024L36.4778 88.6281C35.5992 87.3613 34.4464 86.3076 33.1046 85.5447C31.7629 84.7818 30.2664 84.3293 28.7257 84.2205C28.4796 83.8446 28.2092 83.4851 27.9163 83.1443L19.3341 85.8056L26.3696 81.6894C25.0252 80.6596 23.4469 79.9762 21.7745 79.6999C20.102 79.4235 18.387 79.5626 16.7814 80.1048C15.1757 80.6471 13.7289 81.5758 12.569 82.8087C11.4091 84.0416 10.5719 85.5407 10.1316 87.1732L17.4782 95.6045L9.50096 89.8602C7.47464 91.2844 6.03016 93.3884 5.43169 95.7874C4.83323 98.1864 5.12079 100.72 6.24178 102.925C7.36278 105.13 9.24227 106.859 11.5365 107.795C13.8308 108.732 16.3864 108.814 18.7361 108.025C20.8588 108.801 23.1776 108.862 25.3385 108.2C26.8461 108.531 28.4088 108.52 29.9116 108.169C31.4145 107.817 32.8193 107.135 34.0228 106.171C35.2262 105.207 36.1977 103.986 36.8659 102.599C37.534 101.211 37.8817 99.692 37.8835 98.1528C37.8835 97.9231 37.8749 97.6969 37.8594 97.4673C38.1578 96.4983 38.3107 95.4906 38.3131 94.4769V94.4769Z" fill="#2EC32E"/>
<path opacity="0.1" d="M38.1342 96.386C34.9813 95.7905 31.7483 95.7493 28.5812 96.2643C24.9964 96.8572 21.3326 98.1579 17.8269 97.2068C15.7647 96.6482 13.9878 95.3578 11.984 94.6363C10.0429 93.9624 7.95204 93.8402 5.94524 94.2833C5.17978 96.1073 4.95731 98.1126 5.30445 100.059C5.65159 102.006 6.55364 103.812 7.90275 105.261C9.25186 106.71 10.9909 107.741 12.9121 108.231C14.8332 108.72 16.8551 108.648 18.7359 108.022C20.8583 108.798 23.1771 108.861 25.3384 108.2C26.846 108.531 28.4086 108.52 29.9115 108.169C31.4143 107.817 32.8191 107.135 34.0226 106.171C35.2261 105.207 36.1976 103.986 36.8657 102.599C37.5338 101.211 37.8816 99.692 37.8833 98.1528C37.8833 97.9232 37.8747 97.6969 37.8593 97.4673C37.9714 97.1124 38.0632 96.7513 38.1342 96.386Z" fill="black"/>
<path d="M133.002 26.6255C126.968 26.3755 121.471 23.9468 118.984 20.184C118.868 20.0079 118.758 19.8293 118.655 19.6482C117.747 18.045 117.463 16.2019 118.456 14.6219C119.449 13.0419 121.931 11.8421 124.419 12.0915C126.907 12.3409 128.854 14.322 127.823 15.89C127.595 12.7209 127.404 9.39109 129.966 6.63279C131.376 5.19119 133.216 4.24297 135.211 3.9296C140.372 3.02399 143.799 5.93513 144.486 8.8724C144.992 11.0421 144.293 13.2471 143.596 15.394C145.743 12.8619 150.848 11.7352 154.76 12.9312C158.673 14.1271 160.84 17.4763 159.504 20.2601C157.93 23.5349 152.684 25.2273 147.81 26.1222C143.784 26.8613 137.75 26.8221 133.002 26.6255Z" fill="#F2F2F2"/>
<path d="M52.0483 36.4199H135.853V82.6628C135.853 86.5288 132.719 89.6628 128.853 89.6628H59.0483C55.1823 89.6628 52.0483 86.5288 52.0483 82.6628V36.4199Z" fill="#E2DFE4"/>
<path d="M135.853 26.108V36.4201H135.604V36.3101H52.2974V36.4201H52.0483V26.108C52.0494 24.9208 52.4827 23.7826 53.2531 22.9431C54.0235 22.1037 55.0681 21.6315 56.1577 21.6304H131.744C132.834 21.6315 133.878 22.1037 134.649 22.9431C135.419 23.7826 135.852 24.9208 135.853 26.108Z" fill="#9A15F5"/>
<path d="M69.0795 31.6873C70.4233 31.6873 71.5126 30.4954 71.5126 29.0252C71.5126 27.5549 70.4233 26.363 69.0795 26.363C67.7358 26.363 66.6465 27.5549 66.6465 29.0252C66.6465 30.4954 67.7358 31.6873 69.0795 31.6873Z" fill="#C78BF1"/>
<path d="M118.822 31.6873C120.166 31.6873 121.255 30.4954 121.255 29.0252C121.255 27.5549 120.166 26.363 118.822 26.363C117.478 26.363 116.389 27.5549 116.389 29.0252C116.389 30.4954 117.478 31.6873 118.822 31.6873Z" fill="#C78BF1"/>
<path d="M101.531 59.492H86.3707C85.7285 59.4912 85.1127 59.2143 84.6586 58.7222C84.2044 58.2301 83.949 57.5628 83.9482 56.8668V49.1022C83.949 48.4062 84.2044 47.7389 84.6586 47.2468C85.1127 46.7547 85.7285 46.4778 86.3707 46.4771H101.531C102.173 46.4778 102.789 46.7547 103.243 47.2468C103.697 47.7389 103.953 48.4062 103.953 49.1022V56.8668C103.953 57.5628 103.697 58.2301 103.243 58.7222C102.789 59.2143 102.173 59.4912 101.531 59.492V59.492Z" fill="#9A15F5"/>
<path d="M101.476 79.606H86.4259C85.769 79.6052 85.1393 79.3234 84.6748 78.8225C84.2103 78.3216 83.949 77.6424 83.9482 76.934V69.2631C83.949 68.5546 84.2103 67.8755 84.6748 67.3746C85.1393 66.8736 85.769 66.5919 86.4259 66.5911H101.476C102.133 66.5919 102.762 66.8736 103.227 67.3746C103.691 67.8755 103.953 68.5546 103.953 69.2631V76.934C103.953 77.6424 103.691 78.3216 103.227 78.8225C102.762 79.3234 102.133 79.6052 101.476 79.606V79.606Z" fill="#F7F0FB"/>
<path d="M76.1308 79.606H61.4879C60.8487 79.6052 60.236 79.3234 59.784 78.8225C59.3321 78.3216 59.0779 77.6424 59.0771 76.934V69.2631C59.0779 68.5546 59.3321 67.8755 59.784 67.3746C60.236 66.8736 60.8487 66.5919 61.4879 66.5911H76.1308C76.77 66.5919 77.3827 66.8736 77.8347 67.3746C78.2866 67.8755 78.5408 68.5546 78.5416 69.2631V76.934C78.5408 77.6424 78.2866 78.3216 77.8347 78.8225C77.3827 79.3234 76.77 79.6052 76.1308 79.606V79.606Z" fill="#F7F0FB"/>
<path d="M76.1308 59.492H61.4879C60.8487 59.4912 60.236 59.2094 59.784 58.7085C59.3321 58.2075 59.0779 57.5284 59.0771 56.82V49.149C59.0779 48.4406 59.3321 47.7615 59.784 47.2605C60.236 46.7596 60.8487 46.4778 61.4879 46.4771H76.1308C76.77 46.4778 77.3827 46.7596 77.8347 47.2605C78.2866 47.7615 78.5408 48.4406 78.5416 49.149V56.82C78.5408 57.5284 78.2866 58.2075 77.8347 58.7085C77.3827 59.2094 76.77 59.4912 76.1308 59.492V59.492Z" fill="#F7F0FB"/>
<path d="M126.414 79.606H111.771C111.132 79.6052 110.519 79.3234 110.067 78.8225C109.615 78.3216 109.361 77.6424 109.36 76.934V69.2631C109.361 68.5546 109.615 67.8755 110.067 67.3746C110.519 66.8736 111.132 66.5919 111.771 66.5911H126.414C127.053 66.5919 127.666 66.8736 128.118 67.3746C128.57 67.8755 128.824 68.5546 128.825 69.2631V76.934C128.824 77.6424 128.57 78.3216 128.118 78.8225C127.666 79.3234 127.053 79.6052 126.414 79.606V79.606Z" fill="#F7F0FB"/>
<path d="M126.414 59.492H111.771C111.132 59.4912 110.519 59.2094 110.067 58.7085C109.615 58.2076 109.361 57.5284 109.36 56.82V49.149C109.361 48.4406 109.615 47.7615 110.067 47.2605C110.519 46.7596 111.132 46.4778 111.771 46.4771H126.414C127.053 46.4778 127.666 46.7596 128.118 47.2605C128.57 47.7615 128.824 48.4406 128.825 49.149V56.82C128.824 57.5284 128.57 58.2076 128.118 58.7085C127.666 59.2094 127.053 59.4912 126.414 59.492Z" fill="#F7F0FB"/>
<path d="M93.8244 56.6798C95.9939 56.6798 97.7527 54.9256 97.7527 52.7616C97.7527 50.5977 95.9939 48.8435 93.8244 48.8435C91.6548 48.8435 89.896 50.5977 89.896 52.7616C89.896 54.9256 91.6548 56.6798 93.8244 56.6798Z" fill="white"/>
<path d="M93.4684 54.5659C93.3702 54.5661 93.2746 54.5321 93.196 54.4691L93.1911 54.4652L92.1654 53.6255C92.0694 53.5469 92.0066 53.4307 91.9908 53.3026C91.9749 53.1745 92.0073 53.0449 92.0808 52.9423C92.1543 52.8397 92.2629 52.7726 92.3827 52.7556C92.5026 52.7386 92.6238 52.7733 92.7197 52.8519L93.3841 53.3966L94.9542 51.2071C94.9906 51.1564 95.036 51.1137 95.0878 51.0817C95.1396 51.0497 95.1969 51.0289 95.2562 51.0205C95.3155 51.0122 95.3758 51.0164 95.4336 51.0329C95.4914 51.0495 95.5456 51.078 95.5931 51.117C95.6889 51.1957 95.7518 51.312 95.7677 51.4401C95.7835 51.5682 95.7511 51.6978 95.6777 51.8004L93.8309 54.3757C93.7882 54.4351 93.7333 54.4831 93.6704 54.5161C93.6075 54.549 93.5384 54.5661 93.4684 54.5659Z" fill="#2EC32E"/>
<defs>
<filter id="filter0_d" x="151.868" y="93.7783" width="24.4578" height="24.4202" filterUnits="userSpaceOnUse" color-interpolation-filters="sRGB">
<feFlood flood-opacity="0" result="BackgroundImageFix"/>
<feColorMatrix in="SourceAlpha" type="matrix" values="0 0 0 0 0 0 0 0 0 0 0 0 0 0 0 0 0 0 127 0"/>
<feOffset/>
<feGaussianBlur stdDeviation="2.5"/>
<feColorMatrix type="matrix" values="0 0 0 0 0 0 0 0 0 0 0 0 0 0 0 0 0 0 0.25 0"/>
<feBlend mode="normal" in2="BackgroundImageFix" result="effect1_dropShadow"/>
<feBlend mode="normal" in="SourceGraphic" in2="effect1_dropShadow" result="shape"/>
</filter>
<linearGradient id="paint0_linear" x1="21.5122" y1="14.4526" x2="170.129" y2="110.256" gradientUnits="userSpaceOnUse">
<stop stop-color="#9A15F5"/>
<stop offset="1"/>
</linearGradient>
</defs>
</svg>
