<svg width="180" height="120" viewBox="0 0 180 120" fill="none" xmlns="http://www.w3.org/2000/svg">
<rect width="180" height="120" rx="9" fill="#F7F0FB"/>
<g filter="url(#filter0_d)">
<path d="M170.825 106.71C170.825 110.414 167.814 113.42 164.097 113.42C160.379 113.42 157.368 110.414 157.368 106.71C157.368 103.005 160.379 99.9995 164.097 99.9995C167.814 99.9995 170.825 103.005 170.825 106.71Z" fill="white" stroke="#62268B"/>
<path d="M166.688 106.99L163.374 110.199C163.215 110.353 162.956 110.353 162.796 110.199L162.409 109.824C162.25 109.67 162.25 109.419 162.409 109.265L165.035 106.71L162.409 104.155C162.25 104 162.25 103.749 162.409 103.595L162.796 103.221C162.956 103.066 163.215 103.066 163.374 103.221L166.688 106.429C166.848 106.584 166.848 106.835 166.688 106.99Z" fill="#35164A"/>
</g>
<text fill="#3E3644" xml:space="preserve" style="white-space: pre" font-family="Roboto" font-size="10" font-weight="bold" letter-spacing="0.4px"><tspan x="69" y="110.801">&#x423;&#x421;&#x41b;&#x423;&#x413;&#x418;</tspan></text>
<path d="M42.6403 25.7478C36.6063 25.4979 31.1089 23.0691 28.6219 19.3063C28.5057 19.1302 28.3961 18.9516 28.2933 18.7705C27.3853 17.1673 27.1016 15.3242 28.0945 13.7443C29.0873 12.1643 31.5692 10.9644 34.0573 11.2138C36.5454 11.4632 38.4918 13.4443 37.4613 15.0123C37.2335 11.8433 37.0426 8.51341 39.6042 5.7551C41.0143 4.31351 42.854 3.36529 44.8487 3.05191C50.0106 2.1463 53.4374 5.05744 54.1238 7.99471C54.6302 10.1644 53.9307 12.3694 53.2341 14.5164C55.381 11.9842 60.4865 10.8575 64.3986 12.0535C68.3108 13.2494 70.4782 16.5986 69.1424 19.3824C67.5686 22.6572 62.3218 24.3497 57.4481 25.2445C53.4226 25.9836 47.3881 25.9444 42.6403 25.7478Z" fill="#C78BF1"/>
<path d="M164.458 23.0725C169.049 23.0725 172.771 19.3602 172.771 14.7809C172.771 10.2015 169.049 6.48926 164.458 6.48926C159.866 6.48926 156.145 10.2015 156.145 14.7809C156.145 19.3602 159.866 23.0725 164.458 23.0725Z" fill="#FFBA11"/>
<path d="M87.6143 94.4022C132.01 94.4022 168 93.1221 168 91.5431C168 89.9641 132.01 88.6841 87.6143 88.6841C43.2187 88.6841 7.229 89.9641 7.229 91.5431C7.229 93.1221 43.2187 94.4022 87.6143 94.4022Z" fill="#E6CCF8"/>
<path d="M168.584 62.3488C168.584 74.875 161.106 79.2487 151.882 79.2487C142.658 79.2487 135.181 74.875 135.181 62.3488C135.181 49.8225 151.882 33.8872 151.882 33.8872C151.882 33.8872 168.584 49.8225 168.584 62.3488Z" fill="#2EC32E"/>
<path d="M151.274 77.3326L151.445 66.8492L158.563 53.8799L151.472 65.2047L151.548 60.491L156.455 51.1078L151.569 59.2436L151.707 50.7657L156.961 43.2955L151.729 49.4326L151.815 33.8872L151.272 54.4665L151.317 53.6175L145.976 45.4755L151.231 55.2472L150.733 64.7155L150.719 64.4642L144.561 55.8959L150.7 65.352L150.638 66.5361L150.627 66.5539L150.632 66.6512L149.369 90.673H151.056L151.259 78.2652L157.382 68.8323L151.274 77.3326Z" fill="#3E3644"/>
<path d="M55.8694 76.1155C56.2006 76.5558 56.5579 77.0596 56.9106 77.6087L56.9609 75.0759L56.9887 75.0936C56.6126 74.8194 56.1995 74.5993 55.7617 74.4399L55.7895 74.4553L55.8694 76.1155Z" fill="#E6E6E6"/>
<path d="M55.7343 74.43C55.2801 74.2756 54.8394 74.2244 54.4366 74.296C54.4157 74.2997 54.3951 74.304 54.3745 74.3083C54.4769 74.4178 55.0733 75.0641 55.8117 76.0382L55.7343 74.43Z" fill="#E6E6E6"/>
<path d="M58.3916 80.3767C58.4459 80.506 58.4975 80.6343 58.5465 80.7618L59.4786 78.0187L59.5055 78.0442C59.3954 77.8379 59.2787 77.6373 59.1554 77.4424L58.4043 80.3879L58.3916 80.3767Z" fill="#E6E6E6"/>
<path d="M57.8473 79.22L58.3344 76.3442L58.362 76.3662C57.9649 75.8973 57.5135 75.4769 57.0172 75.1138L56.9658 77.6948C57.294 78.211 57.5878 78.7194 57.8473 79.22Z" fill="#E6E6E6"/>
<path d="M52.8971 77.185L52.8857 77.1499C52.9279 77.5849 53.0141 78.0146 53.143 78.4324L57.622 78.8928C57.3882 78.4631 57.1468 78.0599 56.9125 77.6924L52.8971 77.185Z" fill="#E6E6E6"/>
<path d="M53.1656 78.5029L53.1538 78.4678C53.1991 78.615 53.2499 78.7639 53.3062 78.9145L53.2941 78.8794L57.8273 79.281C57.7726 79.1743 57.7172 79.0689 57.6612 78.965L53.1656 78.5029Z" fill="#E6E6E6"/>
<path d="M58.3595 80.3021L59.1043 77.3811L59.1316 77.405C58.9068 77.0527 58.6585 76.7159 58.3882 76.397L57.8945 79.3117C58.0656 79.6466 58.2206 79.9767 58.3595 80.3021Z" fill="#E6E6E6"/>
<path d="M58.5491 80.9087L54.1377 80.4854C54.3776 80.8074 54.6388 81.113 54.9197 81.4002L54.9087 81.3613L58.9411 82.1881C58.8362 81.7542 58.7053 81.327 58.5491 80.9087V80.9087Z" fill="#E6E6E6"/>
<path d="M54.3379 74.3362L54.3483 74.314C53.7419 74.4512 53.3137 74.8624 53.0781 75.4576L55.7767 76.0653C54.9775 75.0117 54.347 74.3457 54.3379 74.3362Z" fill="#E6E6E6"/>
<path d="M58.6284 80.9795C58.7669 81.3576 58.8846 81.743 58.9811 82.1339L60.0316 79.508L60.0572 79.5336C59.9907 79.1683 59.878 78.8127 59.7218 78.4756C59.6599 78.3434 59.595 78.2132 59.5272 78.085L58.584 80.8607C58.5989 80.9003 58.614 80.9401 58.6284 80.9795Z" fill="#E6E6E6"/>
<path d="M56.8657 77.6192C56.5167 77.0766 56.1634 76.5788 55.836 76.1437L53.0755 75.522L53.0662 75.4873C52.8939 75.9396 52.8308 76.4953 52.883 77.1159L56.8657 77.6192Z" fill="#E6E6E6"/>
<path d="M54.0842 80.4121L58.5208 80.8379L58.5217 80.8352C58.3292 80.3295 58.1096 79.8345 57.8637 79.3523L53.3193 78.9497C53.3965 79.1533 53.4837 79.3591 53.5809 79.5671C53.7226 79.8634 53.891 80.1463 54.0842 80.4121V80.4121Z" fill="#E6E6E6"/>
<path d="M64.8066 81.2697L64.8167 81.301C64.7025 80.8507 64.5252 80.4186 64.29 80.0176L64.3016 80.0471L63.3007 81.3766C63.274 81.9262 63.2268 82.5414 63.147 83.1884L64.8066 81.2697Z" fill="#E6E6E6"/>
<path d="M64.2747 79.9922C64.0237 79.5846 63.7171 79.2651 63.361 79.0641C63.3425 79.0537 63.3239 79.0439 63.3053 79.0342C63.3141 79.1835 63.3598 80.0605 63.3052 81.28L64.2747 79.9922Z" fill="#E6E6E6"/>
<path d="M62.5157 86.2618C62.4749 86.3958 62.4325 86.5275 62.3887 86.6568L64.862 85.1367L64.8663 85.1734C64.9136 84.9445 64.9521 84.7158 64.9819 84.4873L62.5184 86.2785L62.5157 86.2618Z" fill="#E6E6E6"/>
<path d="M62.8369 85.0247L65.0525 83.1194L65.0597 83.154C65.0539 82.5404 64.9753 81.9296 64.8254 81.3345L63.1341 83.2897C63.0565 83.8959 62.9575 84.4742 62.8369 85.0247Z" fill="#E6E6E6"/>
<path d="M65.0598 83.1943L62.8143 85.1254C62.7318 85.4921 62.6399 85.8448 62.5386 86.1837L64.9816 84.4075L64.9872 84.4433C65.0396 84.0291 65.0638 83.6118 65.0598 83.1943V83.1943Z" fill="#E6E6E6"/>
<path d="M60.7259 89.7158C60.7279 89.6857 60.7298 89.6547 60.7316 89.623C61.1318 89.1478 61.4731 88.6263 61.7481 88.0697L60.3919 86.3853C60.3741 86.3278 60.3555 86.2705 60.3361 86.2133L61.7796 88.0062C61.9765 87.6054 62.1491 87.1931 62.2964 86.7716L59.4413 83.9132C59.4503 83.8908 59.4593 83.8678 59.4684 83.8444L62.3198 86.6991L62.3222 86.6977C62.4976 86.1858 62.6452 85.6649 62.7644 85.1373L59.9329 82.3437C59.9388 82.3178 59.9447 82.2917 59.9505 82.2655L62.7821 85.0591C62.8082 84.9421 62.833 84.8258 62.8564 84.7101L60.0332 81.845C60.0379 81.8176 60.0425 81.7902 60.0469 81.7626L62.8724 84.63C62.9673 84.1504 63.0394 83.6864 63.0941 83.2545L60.3263 80.3111L60.34 80.2769C60.2744 80.3721 60.2107 80.4719 60.1485 80.5753C60.1502 80.2483 60.1235 79.9216 60.0689 79.5991L59.0083 82.2501C59.094 82.6157 59.1554 82.9864 59.1921 83.36C59.1857 83.4232 59.1799 83.4867 59.1753 83.5509L59.2101 83.5858C59.2124 83.6199 59.2144 83.6539 59.2161 83.6877L59.1698 83.6413C59.1676 83.6785 59.1659 83.716 59.1643 83.7535C59.1426 83.2493 59.0733 82.7482 58.9573 82.257L54.9544 81.4362C55.156 81.6425 55.3673 81.843 55.5833 82.0363C55.1641 81.9054 54.7291 81.8313 54.29 81.8161L54.3212 81.8221L54.9121 83.3764C55.3636 83.6931 55.8597 84.0622 56.3654 84.4757L55.638 82.085C55.6649 82.1089 55.6919 82.1327 55.719 82.1564L56.4445 84.541C56.9167 84.9308 57.3538 85.3237 57.7558 85.72L57.4224 83.4757C57.4458 83.492 57.469 83.5081 57.4922 83.5241L57.8292 85.7925C58.0958 86.0583 58.3455 86.3245 58.5785 86.5911L58.4169 84.1307C58.4398 84.145 58.4624 84.159 58.4845 84.1727L58.6478 86.6591L58.6322 86.6524C58.7239 86.7586 58.8129 86.8647 58.899 86.9708L58.9302 84.441C58.9543 84.4551 58.9765 84.468 58.9969 84.4798L58.9651 87.0534C58.9916 87.0865 59.0183 87.1196 59.0442 87.1527C59.2932 87.4696 59.5246 87.7998 59.7376 88.1419L59.7527 87.9117C59.7712 87.9799 59.7898 88.047 59.8084 88.1129L59.7999 88.2438C59.8309 88.2953 59.861 88.3467 59.8907 88.3981C59.9139 88.4765 59.9368 88.5527 59.9595 88.6268C59.8938 88.5053 59.8251 88.3851 59.7534 88.266L55.692 88.7186C57.8275 89.8382 60.4775 90.3689 60.6464 90.402C60.6063 90.2255 60.5576 90.0504 60.5015 89.877C60.5161 89.8618 60.5305 89.8464 60.5449 89.8311C60.5518 89.8518 60.559 89.8725 60.5656 89.8932C60.5581 89.9012 60.5507 89.9095 60.5431 89.9174C60.5515 89.9135 60.5602 89.9094 60.5694 89.905C60.6084 90.0269 60.6433 90.1484 60.6743 90.2695C60.6866 90.1712 60.7032 90.0218 60.7176 89.8328C61.4491 89.4679 63.3434 88.4013 64.3051 86.7293L61.7918 88.0969C61.5053 88.6786 61.1473 89.2224 60.7259 89.7158V89.7158ZM59.8931 85.7659L59.8994 85.6709L59.9631 85.7501L59.9569 85.8451L59.8931 85.7659Z" fill="#E6E6E6"/>
<path d="M63.2592 79.0326L63.2814 79.0221C62.7266 78.7423 62.1336 78.7869 61.5713 79.0955L63.2608 81.279C63.3196 79.9595 63.2601 79.0457 63.2592 79.0326Z" fill="#E6E6E6"/>
<path d="M62.3123 86.8767C62.177 87.256 62.0211 87.6276 61.8452 87.99L64.3347 86.6354L64.3381 86.6714C64.5207 86.3477 64.6614 86.0023 64.7569 85.6433C64.7938 85.5021 64.8271 85.3606 64.857 85.2188L62.3542 86.757C62.3403 86.797 62.3265 86.8372 62.3123 86.8767Z" fill="#E6E6E6"/>
<path d="M63.2564 81.3771L61.5281 79.1435L61.5431 79.1108C61.121 79.3497 60.7168 79.7376 60.3599 80.2487L63.1052 83.1681C63.1836 82.5283 63.2301 81.9204 63.2564 81.3771Z" fill="#E6E6E6"/>
<path d="M54.2606 81.8153C53.7808 81.8084 53.3458 81.8955 52.9849 82.0877C52.9662 82.0977 52.9479 82.1081 52.9297 82.1185C53.061 82.1911 53.8287 82.622 54.833 83.3209L54.2606 81.8153Z" fill="#E6E6E6"/>
<path d="M56.3933 84.5552L52.4172 85.3096L52.3955 85.2797C52.5706 85.6804 52.7858 86.0625 53.0379 86.4201L57.4404 85.4782C57.0848 85.1415 56.7302 84.8325 56.3933 84.5552Z" fill="#E6E6E6"/>
<path d="M57.756 85.7836C57.6708 85.6989 57.5854 85.6158 57.5 85.5342L53.0812 86.4796L53.0591 86.4499C53.1478 86.576 53.2423 86.7019 53.3425 86.8278L53.3202 86.7982L57.756 85.7836Z" fill="#E6E6E6"/>
<path d="M59.7169 88.2053C59.4826 87.825 59.2256 87.459 58.9473 87.1094L54.6206 88.0657C54.9486 88.2981 55.2918 88.5083 55.648 88.6949L55.6255 88.6612L59.7169 88.2053Z" fill="#E6E6E6"/>
<path d="M52.9035 82.1561L52.9065 82.1318C52.3724 82.4491 52.0927 82.9721 52.0532 83.6107L54.8081 83.3574C53.7213 82.6015 52.9151 82.1624 52.9035 82.1561Z" fill="#E6E6E6"/>
<path d="M54.8892 83.4141L52.0711 83.6732L52.0514 83.6431C52.0278 84.1263 52.1402 84.6742 52.3823 85.2483L56.3261 84.5001C55.8258 84.0915 55.3355 83.727 54.8892 83.4141Z" fill="#E6E6E6"/>
<path d="M58.8981 87.0484C58.5582 86.6268 58.1958 86.2236 57.8124 85.8408L53.3657 86.8579C53.5022 87.0278 53.649 87.1966 53.806 87.3645C54.0326 87.6027 54.2805 87.8197 54.5467 88.013L58.8981 87.0512L58.8981 87.0484Z" fill="#E6E6E6"/>
<path d="M55.8694 76.1155C56.2006 76.5558 56.5579 77.0596 56.9106 77.6087L56.9609 75.0759L56.9887 75.0936C56.6126 74.8194 56.1995 74.5993 55.7617 74.4399L55.7895 74.4553L55.8694 76.1155Z" fill="#2EC32E"/>
<path d="M55.7343 74.43C55.2801 74.2756 54.8394 74.2244 54.4366 74.296C54.4157 74.2997 54.3951 74.304 54.3745 74.3083C54.4769 74.4178 55.0733 75.0641 55.8117 76.0382L55.7343 74.43Z" fill="#2EC32E"/>
<path d="M58.3916 80.3767C58.4459 80.506 58.4975 80.6343 58.5465 80.7618L59.4786 78.0187L59.5055 78.0442C59.3954 77.8379 59.2787 77.6373 59.1554 77.4424L58.4043 80.3879L58.3916 80.3767Z" fill="#2EC32E"/>
<path d="M57.8473 79.22L58.3344 76.3442L58.362 76.3662C57.9649 75.8973 57.5135 75.4769 57.0172 75.1138L56.9658 77.6948C57.294 78.211 57.5878 78.7194 57.8473 79.22Z" fill="#2EC32E"/>
<path d="M52.8971 77.185L52.8857 77.1499C52.9279 77.5849 53.0141 78.0146 53.143 78.4324L57.622 78.8928C57.3882 78.4631 57.1468 78.0599 56.9125 77.6924L52.8971 77.185Z" fill="#2EC32E"/>
<path d="M53.1656 78.5029L53.1538 78.4678C53.1991 78.615 53.2499 78.7639 53.3062 78.9145L53.2941 78.8794L57.8273 79.281C57.7726 79.1743 57.7172 79.0689 57.6612 78.965L53.1656 78.5029Z" fill="#2EC32E"/>
<path d="M58.3595 80.3021L59.1043 77.3811L59.1316 77.405C58.9068 77.0527 58.6585 76.7159 58.3882 76.397L57.8945 79.3117C58.0656 79.6466 58.2206 79.9767 58.3595 80.3021Z" fill="#2EC32E"/>
<path d="M58.5491 80.9087L54.1377 80.4854C54.3776 80.8074 54.6388 81.113 54.9197 81.4002L54.9087 81.3613L58.9411 82.1881C58.8362 81.7542 58.7053 81.327 58.5491 80.9087V80.9087Z" fill="#2EC32E"/>
<path d="M54.3379 74.3362L54.3483 74.314C53.7419 74.4512 53.3137 74.8624 53.0781 75.4576L55.7767 76.0653C54.9775 75.0117 54.347 74.3457 54.3379 74.3362Z" fill="#2EC32E"/>
<path d="M58.6284 80.9795C58.7669 81.3576 58.8846 81.743 58.9811 82.1339L60.0316 79.508L60.0572 79.5336C59.9907 79.1683 59.878 78.8127 59.7218 78.4756C59.6599 78.3434 59.595 78.2132 59.5272 78.085L58.584 80.8607C58.5989 80.9003 58.614 80.9401 58.6284 80.9795Z" fill="#2EC32E"/>
<path d="M56.8657 77.6192C56.5167 77.0766 56.1634 76.5788 55.836 76.1437L53.0755 75.522L53.0662 75.4873C52.8939 75.9396 52.8308 76.4953 52.883 77.1159L56.8657 77.6192Z" fill="#2EC32E"/>
<path d="M54.0842 80.4121L58.5208 80.8379L58.5217 80.8352C58.3292 80.3295 58.1096 79.8345 57.8637 79.3523L53.3193 78.9497C53.3965 79.1533 53.4837 79.3591 53.5809 79.5671C53.7226 79.8634 53.891 80.1463 54.0842 80.4121V80.4121Z" fill="#2EC32E"/>
<path d="M64.8066 81.2697L64.8167 81.301C64.7025 80.8507 64.5252 80.4186 64.29 80.0176L64.3016 80.0471L63.3007 81.3766C63.274 81.9262 63.2268 82.5414 63.147 83.1884L64.8066 81.2697Z" fill="#2EC32E"/>
<path d="M64.2747 79.9922C64.0237 79.5846 63.7171 79.2651 63.361 79.0641C63.3425 79.0537 63.3239 79.0439 63.3053 79.0342C63.3141 79.1835 63.3598 80.0605 63.3052 81.28L64.2747 79.9922Z" fill="#2EC32E"/>
<path d="M62.5157 86.2618C62.4749 86.3958 62.4325 86.5275 62.3887 86.6568L64.862 85.1367L64.8663 85.1734C64.9136 84.9445 64.9521 84.7158 64.9819 84.4873L62.5184 86.2785L62.5157 86.2618Z" fill="#2EC32E"/>
<path d="M62.8369 85.0247L65.0525 83.1194L65.0597 83.154C65.0539 82.5404 64.9753 81.9296 64.8254 81.3345L63.1341 83.2897C63.0565 83.8959 62.9575 84.4742 62.8369 85.0247Z" fill="#2EC32E"/>
<path d="M65.0598 83.1943L62.8143 85.1254C62.7318 85.4921 62.6399 85.8448 62.5386 86.1837L64.9816 84.4075L64.9872 84.4433C65.0396 84.0291 65.0638 83.6118 65.0598 83.1943V83.1943Z" fill="#2EC32E"/>
<path d="M60.7259 89.7158C60.7279 89.6857 60.7298 89.6547 60.7316 89.623C61.1318 89.1478 61.4731 88.6263 61.7481 88.0697L60.3919 86.3853C60.3741 86.3278 60.3555 86.2705 60.3361 86.2133L61.7796 88.0062C61.9765 87.6054 62.1491 87.1931 62.2964 86.7716L59.4413 83.9132C59.4503 83.8908 59.4593 83.8678 59.4684 83.8444L62.3198 86.6991L62.3222 86.6977C62.4976 86.1858 62.6452 85.6649 62.7644 85.1373L59.9329 82.3437C59.9388 82.3178 59.9447 82.2917 59.9505 82.2655L62.7821 85.0591C62.8082 84.9421 62.833 84.8258 62.8564 84.7101L60.0332 81.845C60.0379 81.8176 60.0425 81.7902 60.0469 81.7626L62.8724 84.63C62.9673 84.1504 63.0394 83.6864 63.0941 83.2545L60.3263 80.3111L60.34 80.2769C60.2744 80.3721 60.2107 80.4719 60.1485 80.5753C60.1502 80.2483 60.1235 79.9216 60.0689 79.5991L59.0083 82.2501C59.094 82.6157 59.1554 82.9864 59.1921 83.36C59.1857 83.4232 59.1799 83.4867 59.1753 83.5509L59.2101 83.5858C59.2124 83.6199 59.2144 83.6539 59.2161 83.6877L59.1698 83.6413C59.1676 83.6785 59.1659 83.716 59.1643 83.7535C59.1426 83.2493 59.0733 82.7482 58.9573 82.257L54.9544 81.4362C55.156 81.6425 55.3673 81.843 55.5833 82.0363C55.1641 81.9054 54.7291 81.8313 54.29 81.8161L54.3212 81.8221L54.9121 83.3764C55.3636 83.6931 55.8597 84.0622 56.3654 84.4757L55.638 82.085C55.6649 82.1089 55.6919 82.1327 55.719 82.1564L56.4445 84.541C56.9167 84.9308 57.3538 85.3237 57.7558 85.72L57.4224 83.4757C57.4458 83.492 57.469 83.5081 57.4922 83.5241L57.8292 85.7925C58.0958 86.0583 58.3455 86.3245 58.5785 86.5911L58.4169 84.1307C58.4398 84.145 58.4624 84.159 58.4845 84.1727L58.6478 86.6591L58.6322 86.6524C58.7239 86.7586 58.8129 86.8647 58.899 86.9708L58.9302 84.441C58.9543 84.4551 58.9765 84.468 58.9969 84.4798L58.9651 87.0534C58.9916 87.0865 59.0183 87.1196 59.0442 87.1527C59.2932 87.4696 59.5246 87.7998 59.7376 88.1419L59.7527 87.9117C59.7712 87.9799 59.7898 88.047 59.8084 88.1129L59.7999 88.2438C59.8309 88.2953 59.861 88.3467 59.8907 88.3981C59.9139 88.4765 59.9368 88.5527 59.9595 88.6268C59.8938 88.5053 59.8251 88.3851 59.7534 88.266L55.692 88.7186C57.8275 89.8382 60.4775 90.3689 60.6464 90.402C60.6063 90.2255 60.5576 90.0504 60.5015 89.877C60.5161 89.8618 60.5305 89.8464 60.5449 89.8311C60.5518 89.8518 60.559 89.8725 60.5656 89.8932C60.5581 89.9012 60.5507 89.9095 60.5431 89.9174C60.5515 89.9135 60.5602 89.9094 60.5694 89.905C60.6084 90.0269 60.6433 90.1484 60.6743 90.2695C60.6866 90.1712 60.7032 90.0218 60.7176 89.8328C61.4491 89.4679 63.3434 88.4013 64.3051 86.7293L61.7918 88.0969C61.5053 88.6786 61.1473 89.2224 60.7259 89.7158V89.7158ZM59.8931 85.7659L59.8994 85.6709L59.9631 85.7501L59.9569 85.8451L59.8931 85.7659Z" fill="#2EC32E"/>
<path d="M63.2592 79.0326L63.2814 79.0221C62.7266 78.7423 62.1336 78.7869 61.5713 79.0955L63.2608 81.279C63.3196 79.9595 63.2601 79.0457 63.2592 79.0326Z" fill="#2EC32E"/>
<path d="M62.3123 86.8767C62.177 87.256 62.0211 87.6276 61.8452 87.99L64.3347 86.6354L64.3381 86.6714C64.5207 86.3477 64.6614 86.0023 64.7569 85.6433C64.7938 85.5021 64.8271 85.3606 64.857 85.2188L62.3542 86.757C62.3403 86.797 62.3265 86.8372 62.3123 86.8767Z" fill="#2EC32E"/>
<path d="M63.2564 81.3771L61.5281 79.1435L61.5431 79.1108C61.121 79.3497 60.7168 79.7376 60.3599 80.2487L63.1052 83.1681C63.1836 82.5283 63.2301 81.9204 63.2564 81.3771Z" fill="#2EC32E"/>
<path d="M54.2606 81.8153C53.7808 81.8084 53.3458 81.8955 52.9849 82.0877C52.9662 82.0977 52.9479 82.1081 52.9297 82.1185C53.061 82.1911 53.8287 82.622 54.833 83.3209L54.2606 81.8153Z" fill="#2EC32E"/>
<path d="M56.3933 84.5552L52.4172 85.3096L52.3955 85.2797C52.5706 85.6804 52.7858 86.0625 53.0379 86.4201L57.4404 85.4782C57.0848 85.1415 56.7302 84.8325 56.3933 84.5552Z" fill="#2EC32E"/>
<path d="M57.756 85.7836C57.6708 85.6989 57.5854 85.6158 57.5 85.5342L53.0812 86.4796L53.0591 86.4499C53.1478 86.576 53.2423 86.7019 53.3425 86.8278L53.3202 86.7982L57.756 85.7836Z" fill="#2EC32E"/>
<path d="M59.7169 88.2053C59.4826 87.825 59.2256 87.459 58.9473 87.1094L54.6206 88.0657C54.9486 88.2981 55.2918 88.5083 55.648 88.6949L55.6255 88.6612L59.7169 88.2053Z" fill="#2EC32E"/>
<path d="M52.9035 82.1561L52.9065 82.1318C52.3724 82.4491 52.0927 82.9721 52.0532 83.6107L54.8081 83.3574C53.7213 82.6015 52.9151 82.1624 52.9035 82.1561Z" fill="#2EC32E"/>
<path d="M54.8892 83.4141L52.0711 83.6732L52.0514 83.6431C52.0278 84.1263 52.1402 84.6742 52.3823 85.2483L56.3261 84.5001C55.8258 84.0915 55.3355 83.727 54.8892 83.4141Z" fill="#2EC32E"/>
<path d="M58.8981 87.0484C58.5582 86.6268 58.1958 86.2236 57.8124 85.8408L53.3657 86.8579C53.5022 87.0278 53.649 87.1966 53.806 87.3645C54.0326 87.6027 54.2805 87.8197 54.5467 88.013L58.8981 87.0512L58.8981 87.0484Z" fill="#2EC32E"/>
<path d="M42.5307 71.7676C43.3918 69.5234 43.5166 67.4858 42.8093 67.2165C42.102 66.9472 40.8305 68.5482 39.9694 70.7924C39.1082 73.0367 38.9835 75.0743 39.6908 75.3435C40.3981 75.6128 41.6696 74.0118 42.5307 71.7676Z" fill="#2F2E41"/>
<path d="M41.7983 79.2436C42.571 74.5005 39.3374 70.0315 34.5757 69.2618C29.8141 68.4921 25.3276 71.7132 24.5549 76.4563C23.7822 81.1994 27.0158 85.6684 31.7775 86.4381C36.5391 87.2078 41.0256 83.9867 41.7983 79.2436Z" fill="#2F2E41"/>
<path d="M31.8071 84.3584H28.9155V89.4055H31.8071V84.3584Z" fill="#2F2E41"/>
<path d="M36.8674 84.3584H34.6987V89.4055H36.8674V84.3584Z" fill="#2F2E41"/>
<path d="M31.0842 90.1266C32.2819 90.1266 33.2529 89.8038 33.2529 89.4056C33.2529 89.0074 32.2819 88.6846 31.0842 88.6846C29.8865 88.6846 28.9155 89.0074 28.9155 89.4056C28.9155 89.8038 29.8865 90.1266 31.0842 90.1266Z" fill="#2F2E41"/>
<path d="M36.8674 90.1266C38.0651 90.1266 39.0361 89.8038 39.0361 89.4056C39.0361 89.0074 38.0651 88.6846 36.8674 88.6846C35.6697 88.6846 34.6987 89.0074 34.6987 89.4056C34.6987 89.8038 35.6697 90.1266 36.8674 90.1266Z" fill="#2F2E41"/>
<path d="M24.7091 70.068C23.9966 66.8926 26.274 63.6841 29.7958 62.9015C33.3176 62.1189 36.7501 64.0586 37.4626 67.2339C38.175 70.4092 35.841 71.5804 32.3192 72.363C28.7974 73.1456 25.4215 73.2433 24.7091 70.068Z" fill="#A29CFF"/>
<path d="M27.2846 75.6771C27.609 74.9956 26.1054 73.6086 23.9262 72.579C21.7469 71.5494 19.7172 71.2672 19.3927 71.9487C19.0682 72.6302 20.5718 74.0172 22.7511 75.0468C24.9304 76.0764 26.9601 76.3586 27.2846 75.6771Z" fill="#2F2E41"/>
<path d="M116.767 90.7873H63.2331C61.4177 90.7852 59.6772 90.0651 58.3936 88.7847C57.1099 87.5044 56.3878 85.7684 56.3857 83.9577V21.25C56.3878 19.4393 57.1099 17.7034 58.3936 16.423C59.6772 15.1427 61.4177 14.4225 63.2331 14.4204H113.038L123.615 22.8288V83.9577C123.613 85.7684 122.891 87.5044 121.607 88.7847C120.323 90.0651 118.583 90.7853 116.767 90.7873V90.7873Z" fill="#E2DFE4"/>
<path d="M63.2331 16.3867C61.9403 16.3882 60.7009 16.901 59.7867 17.8128C58.8726 18.7246 58.3584 19.9608 58.3569 21.2502V83.958C58.3584 85.2474 58.8726 86.4836 59.7867 87.3954C60.7009 88.3071 61.9403 88.82 63.2331 88.8214H116.767C118.06 88.82 119.299 88.3071 120.214 87.3954C121.128 86.4836 121.642 85.2474 121.643 83.958V23.7762L112.348 16.3867H63.2331Z" fill="white"/>
<path d="M105.597 34.6203H69.6992C69.5493 34.6205 69.4009 34.5912 69.2624 34.5341C69.1239 34.477 68.9981 34.3933 68.892 34.2877C68.786 34.182 68.7019 34.0566 68.6445 33.9185C68.5872 33.7805 68.5576 33.6325 68.5576 33.483C68.5576 33.3335 68.5872 33.1856 68.6445 33.0475C68.7019 32.9094 68.786 32.784 68.892 32.6784C68.9981 32.5727 69.1239 32.489 69.2624 32.4319C69.4009 32.3748 69.5493 32.3455 69.6992 32.3457H105.597C105.9 32.3457 106.19 32.4655 106.404 32.6788C106.618 32.8921 106.738 33.1814 106.738 33.483C106.738 33.7846 106.618 34.0739 106.404 34.2872C106.19 34.5005 105.9 34.6203 105.597 34.6203Z" fill="#E2DFE4"/>
<path d="M110.301 38.4587H69.6994C69.5496 38.4587 69.4013 38.4293 69.263 38.3721C69.1246 38.315 68.9989 38.2312 68.8931 38.1256C68.7872 38.02 68.7032 37.8946 68.6459 37.7566C68.5886 37.6186 68.5591 37.4707 68.5591 37.3214C68.5591 37.172 68.5886 37.0241 68.6459 36.8862C68.7032 36.7482 68.7872 36.6228 68.8931 36.5172C68.9989 36.4116 69.1246 36.3278 69.263 36.2707C69.4013 36.2135 69.5496 36.1841 69.6994 36.1841H110.301C110.451 36.1841 110.599 36.2135 110.738 36.2707C110.876 36.3278 111.002 36.4116 111.108 36.5172C111.213 36.6228 111.297 36.7482 111.355 36.8862C111.412 37.0241 111.442 37.172 111.442 37.3214C111.442 37.4707 111.412 37.6186 111.355 37.7566C111.297 37.8946 111.213 38.02 111.108 38.1256C111.002 38.2312 110.876 38.315 110.738 38.3721C110.599 38.4293 110.451 38.4587 110.301 38.4587Z" fill="#E2DFE4"/>
<path d="M105.597 51.822H69.6992C69.5493 51.8221 69.4009 51.7929 69.2624 51.7358C69.1239 51.6787 68.9981 51.5949 68.892 51.4893C68.786 51.3837 68.7019 51.2583 68.6445 51.1202C68.5872 50.9821 68.5576 50.8341 68.5576 50.6847C68.5576 50.5352 68.5872 50.3872 68.6445 50.2492C68.7019 50.1111 68.786 49.9857 68.892 49.88C68.9981 49.7744 69.1239 49.6907 69.2624 49.6336C69.4009 49.5765 69.5493 49.5472 69.6992 49.5474H105.597C105.9 49.5474 106.19 49.6672 106.404 49.8805C106.618 50.0938 106.738 50.383 106.738 50.6847C106.738 50.9863 106.618 51.2756 106.404 51.4889C106.19 51.7022 105.9 51.822 105.597 51.822Z" fill="#7C3BA8"/>
<path d="M45.0083 78.0921L35.7171 43.5073C35.6782 43.363 35.6681 43.2125 35.6876 43.0643C35.707 42.9161 35.7555 42.7731 35.8304 42.6437C35.9052 42.5142 36.0049 42.4007 36.1238 42.3097C36.2427 42.2186 36.3783 42.1519 36.5231 42.1132C36.6678 42.0745 36.8188 42.0647 36.9674 42.0842C37.1159 42.1038 37.2592 42.1523 37.3889 42.2271C37.5186 42.3019 37.6323 42.4015 37.7234 42.5202C37.8146 42.6388 37.8813 42.7742 37.92 42.9186L47.2111 77.5034C47.2894 77.7948 47.2484 78.1052 47.0972 78.3664C46.946 78.6276 46.6969 78.8183 46.4048 78.8963C46.1127 78.9744 45.8015 78.9335 45.5396 78.7827C45.2777 78.6319 45.0866 78.3835 45.0083 78.0921Z" fill="#7C3BA8"/>
<path d="M110.301 55.6603H69.6994C69.5496 55.6603 69.4013 55.6309 69.263 55.5738C69.1246 55.5166 68.9989 55.4328 68.8931 55.3272C68.7872 55.2216 68.7032 55.0963 68.6459 54.9583C68.5886 54.8203 68.5591 54.6724 68.5591 54.523C68.5591 54.3737 68.5886 54.2258 68.6459 54.0878C68.7032 53.9498 68.7872 53.8245 68.8931 53.7189C68.9989 53.6132 69.1246 53.5295 69.263 53.4723C69.4013 53.4152 69.5496 53.3857 69.6994 53.3857H110.301C110.451 53.3857 110.599 53.4152 110.738 53.4723C110.876 53.5295 111.002 53.6132 111.108 53.7189C111.213 53.8245 111.297 53.9498 111.355 54.0878C111.412 54.2258 111.442 54.3737 111.442 54.523C111.442 54.6724 111.412 54.8203 111.355 54.9583C111.297 55.0963 111.213 55.2216 111.108 55.3272C111.002 55.4328 110.876 55.5166 110.738 55.5738C110.599 55.6309 110.451 55.6603 110.301 55.6603Z" fill="#E2DFE4"/>
<path d="M105.598 69.0236H69.6994C69.3969 69.0236 69.1069 68.9038 68.8931 68.6905C68.6792 68.4772 68.5591 68.188 68.5591 67.8863C68.5591 67.5847 68.6792 67.2954 68.8931 67.0821C69.1069 66.8688 69.3969 66.749 69.6994 66.749H105.598C105.9 66.749 106.19 66.8688 106.404 67.0821C106.618 67.2954 106.738 67.5847 106.738 67.8863C106.738 68.188 106.618 68.4772 106.404 68.6905C106.19 68.9038 105.9 69.0236 105.598 69.0236Z" fill="#E2DFE4"/>
<path d="M110.301 72.862H69.6992C69.5493 72.8622 69.4009 72.8329 69.2624 72.7758C69.1239 72.7187 68.9981 72.635 68.892 72.5294C68.786 72.4237 68.7019 72.2983 68.6445 72.1602C68.5872 72.0222 68.5576 71.8742 68.5576 71.7247C68.5576 71.5753 68.5872 71.4273 68.6445 71.2892C68.7019 71.1511 68.786 71.0257 68.892 70.9201C68.9981 70.8144 69.1239 70.7307 69.2624 70.6736C69.4009 70.6165 69.5493 70.5872 69.6992 70.5874H110.301C110.604 70.5874 110.894 70.7072 111.107 70.9205C111.321 71.1338 111.441 71.4231 111.441 71.7247C111.441 72.0264 111.321 72.3156 111.107 72.5289C110.894 72.7422 110.604 72.862 110.301 72.862Z" fill="#E2DFE4"/>
<path d="M123.409 23.0992H115.124C114.824 23.0992 114.528 23.0404 114.251 22.9261C113.974 22.8118 113.723 22.6442 113.511 22.433C113.299 22.2218 113.131 21.971 113.017 21.6951C112.902 21.4191 112.843 21.1233 112.843 20.8246V14.7213C112.843 14.6945 112.851 14.6684 112.865 14.6457C112.879 14.6231 112.9 14.6049 112.924 14.5933C112.948 14.5816 112.975 14.577 113.001 14.58C113.028 14.5829 113.053 14.5932 113.074 14.6098L123.497 22.8456C123.521 22.864 123.538 22.889 123.546 22.9174C123.554 22.9457 123.553 22.9759 123.544 23.0038C123.534 23.0317 123.516 23.0558 123.492 23.0729C123.467 23.09 123.439 23.0992 123.409 23.0992V23.0992Z" fill="#E2DFE4"/>
<defs>
<filter id="filter0_d" x="151.868" y="94.4995" width="24.4578" height="24.4202" filterUnits="userSpaceOnUse" color-interpolation-filters="sRGB">
<feFlood flood-opacity="0" result="BackgroundImageFix"/>
<feColorMatrix in="SourceAlpha" type="matrix" values="0 0 0 0 0 0 0 0 0 0 0 0 0 0 0 0 0 0 127 0"/>
<feOffset/>
<feGaussianBlur stdDeviation="2.5"/>
<feColorMatrix type="matrix" values="0 0 0 0 0 0 0 0 0 0 0 0 0 0 0 0 0 0 0.25 0"/>
<feBlend mode="normal" in2="BackgroundImageFix" result="effect1_dropShadow"/>
<feBlend mode="normal" in="SourceGraphic" in2="effect1_dropShadow" result="shape"/>
</filter>
</defs>
</svg>
