<svg width="180" height="120" viewBox="0 0 180 120" fill="none" xmlns="http://www.w3.org/2000/svg">
<g id="works-card">
<g id="Book Card">
<rect id="gradient" width="180" height="120" rx="9" fill="#3F3D56"/>
<g id="Go Button" filter="url(#filter0_d)">
<path id="Ellipse 2" d="M170.825 105.462C170.825 109.166 167.814 112.172 164.096 112.172C160.379 112.172 157.367 109.166 157.367 105.462C157.367 101.757 160.379 98.7517 164.096 98.7517C167.814 98.7517 170.825 101.757 170.825 105.462Z" fill="white" stroke="#62268B"/>
<g id="Arrow Right">
<path id="Arrow Right_2" d="M166.687 105.742L163.374 108.951C163.214 109.105 162.955 109.105 162.795 108.951L162.409 108.576C162.249 108.422 162.249 108.172 162.408 108.017L165.034 105.462L162.408 102.907C162.249 102.752 162.249 102.502 162.409 102.347L162.795 101.973C162.955 101.818 163.214 101.818 163.374 101.973L166.687 105.182C166.847 105.336 166.847 105.587 166.687 105.742Z" fill="#35164A"/>
</g>
</g>
<path id="&#208;&#160;&#208;&#144;&#208;&#145;&#208;&#158;&#208;&#162;&#208;&#171;" d="M71.0996 106.295V108.8H69.6348V101.691H72.4082C72.9421 101.691 73.4108 101.789 73.8145 101.984C74.2214 102.179 74.5339 102.458 74.752 102.819C74.9701 103.177 75.0791 103.585 75.0791 104.044C75.0791 104.741 74.8398 105.291 74.3613 105.695C73.8861 106.095 73.2269 106.295 72.3838 106.295H71.0996ZM71.0996 105.109H72.4082C72.7956 105.109 73.0902 105.018 73.292 104.835C73.4971 104.653 73.5996 104.393 73.5996 104.054C73.5996 103.706 73.4971 103.424 73.292 103.209C73.0869 102.995 72.8037 102.884 72.4424 102.877H71.0996V105.109ZM79.6344 107.335H77.066L76.5777 108.8H75.0201L77.6666 101.691H79.024L81.6852 108.8H80.1275L79.6344 107.335ZM77.4615 106.149H79.2389L78.3453 103.488L77.4615 106.149ZM87.3879 102.877H84.2141V104.254H85.3566C86.1932 104.254 86.8557 104.458 87.3439 104.865C87.8355 105.268 88.0813 105.814 88.0813 106.5C88.0813 107.191 87.8371 107.746 87.3488 108.166C86.8638 108.582 86.2176 108.794 85.4104 108.8H82.7346V101.691H87.3879V102.877ZM84.2141 105.436V107.624H85.3811C85.7554 107.624 86.0533 107.521 86.2746 107.316C86.4992 107.111 86.6115 106.836 86.6115 106.491C86.6115 106.168 86.5041 105.915 86.2893 105.729C86.0777 105.54 85.7863 105.443 85.4152 105.436H84.2141ZM95.2586 105.407C95.2586 106.107 95.1349 106.72 94.8875 107.248C94.6401 107.775 94.2853 108.182 93.823 108.468C93.3641 108.755 92.8367 108.898 92.241 108.898C91.6518 108.898 91.1261 108.756 90.6639 108.473C90.2016 108.19 89.8436 107.786 89.5896 107.262C89.3357 106.735 89.2072 106.129 89.2039 105.446V105.094C89.2039 104.394 89.3292 103.779 89.5799 103.249C89.8338 102.715 90.1902 102.306 90.6492 102.023C91.1115 101.736 91.6388 101.593 92.2313 101.593C92.8237 101.593 93.3494 101.736 93.8084 102.023C94.2706 102.306 94.6271 102.715 94.8777 103.249C95.1316 103.779 95.2586 104.393 95.2586 105.089V105.407ZM93.7742 105.084C93.7742 104.339 93.6408 103.773 93.3738 103.385C93.1069 102.998 92.726 102.804 92.2313 102.804C91.7397 102.804 91.3605 102.996 91.0936 103.38C90.8266 103.761 90.6915 104.321 90.6883 105.06V105.407C90.6883 106.133 90.8217 106.696 91.0887 107.096C91.3556 107.497 91.7397 107.697 92.241 107.697C92.7326 107.697 93.1102 107.505 93.3738 107.121C93.6375 106.733 93.771 106.17 93.7742 105.431V105.084ZM101.655 102.877H99.477V108.8H98.0121V102.877H95.8637V101.691H101.655V102.877ZM104.384 104.254H105.526C106.363 104.254 107.025 104.458 107.514 104.865C108.005 105.268 108.251 105.814 108.251 106.5C108.251 107.191 108.007 107.746 107.519 108.166C107.034 108.582 106.387 108.794 105.58 108.8H102.909V101.691H104.384V104.254ZM110.326 108.8H108.861V101.691H110.326V108.8ZM104.384 105.436V107.624H105.551C105.925 107.624 106.223 107.521 106.444 107.316C106.669 107.111 106.781 106.836 106.781 106.491C106.781 106.168 106.674 105.915 106.459 105.729C106.247 105.54 105.956 105.443 105.585 105.436H104.384Z" fill="#F7F0FB"/>
<g id="Group 25">
<path id="Vector" d="M161.978 21.2541C166.677 21.2541 170.486 17.4646 170.486 12.79C170.486 8.11542 166.677 4.32593 161.978 4.32593C157.279 4.32593 153.47 8.11542 153.47 12.79C153.47 17.4646 157.279 21.2541 161.978 21.2541Z" fill="#E6E6E6"/>
<path id="Vector_2" d="M161.141 7.93354C161.681 7.93354 162.118 7.49868 162.118 6.96225C162.118 6.42583 161.681 5.99097 161.141 5.99097C160.602 5.99097 160.165 6.42583 160.165 6.96225C160.165 7.49868 160.602 7.93354 161.141 7.93354Z" fill="#CBCBCB"/>
<path id="Vector_3" d="M162.815 17.6464C163.354 17.6464 163.791 17.2116 163.791 16.6751C163.791 16.1387 163.354 15.7039 162.815 15.7039C162.276 15.7039 161.838 16.1387 161.838 16.6751C161.838 17.2116 162.276 17.6464 162.815 17.6464Z" fill="#CBCBCB"/>
<path id="Vector_4" d="M166.581 11.9576C166.966 11.9576 167.278 11.647 167.278 11.2638C167.278 10.8807 166.966 10.5701 166.581 10.5701C166.196 10.5701 165.883 10.8807 165.883 11.2638C165.883 11.647 166.196 11.9576 166.581 11.9576Z" fill="#CBCBCB"/>
<path id="Vector_5" d="M158.631 15.7038C159.863 15.7038 160.862 14.7099 160.862 13.4838C160.862 12.2576 159.863 11.2637 158.631 11.2637C157.398 11.2637 156.399 12.2576 156.399 13.4838C156.399 14.7099 157.398 15.7038 158.631 15.7038Z" fill="#CBCBCB"/>
<path id="Vector_6" d="M132.687 27.2207C133.458 27.2207 134.082 26.5994 134.082 25.8331C134.082 25.0668 133.458 24.4456 132.687 24.4456C131.917 24.4456 131.292 25.0668 131.292 25.8331C131.292 26.5994 131.917 27.2207 132.687 27.2207Z" fill="#6C63FF"/>
<path id="Vector_7" d="M153.925 68.3867C154.695 68.3867 155.32 67.7654 155.32 66.9991C155.32 66.2328 154.695 65.6116 153.925 65.6116C153.155 65.6116 152.53 66.2328 152.53 66.9991C152.53 67.7654 153.155 68.3867 153.925 68.3867Z" fill="#6C63FF"/>
<path id="Vector_8" d="M28.1419 28.0102C28.9122 28.0102 29.5367 27.389 29.5367 26.6227C29.5367 25.8563 28.9122 25.2351 28.1419 25.2351C27.3716 25.2351 26.7471 25.8563 26.7471 26.6227C26.7471 27.389 27.3716 28.0102 28.1419 28.0102Z" fill="#6C63FF"/>
<path id="Vector_9" d="M13.6839 7.82198C14.4542 7.82198 15.0787 7.20075 15.0787 6.43443C15.0787 5.6681 14.4542 5.04688 13.6839 5.04688C12.9135 5.04688 12.2891 5.6681 12.2891 6.43443C12.2891 7.20075 12.9135 7.82198 13.6839 7.82198Z" fill="#FBF7FD"/>
<path id="Vector_10" d="M8.62382 48.9196C9.39415 48.9196 10.0186 48.2984 10.0186 47.5321C10.0186 46.7658 9.39415 46.1445 8.62382 46.1445C7.85348 46.1445 7.229 46.7658 7.229 47.5321C7.229 48.2984 7.85348 48.9196 8.62382 48.9196Z" fill="#FBF7FD"/>
<path id="Vector_11" d="M37.5393 24.4052C38.3097 24.4052 38.9342 23.784 38.9342 23.0177C38.9342 22.2514 38.3097 21.6301 37.5393 21.6301C36.769 21.6301 36.1445 22.2514 36.1445 23.0177C36.1445 23.784 36.769 24.4052 37.5393 24.4052Z" fill="#FBF7FD"/>
<path id="Vector_12" d="M167.66 54.6877C168.43 54.6877 169.055 54.0665 169.055 53.3001C169.055 52.5338 168.43 51.9126 167.66 51.9126C166.89 51.9126 166.265 52.5338 166.265 53.3001C166.265 54.0665 166.89 54.6877 167.66 54.6877Z" fill="#FBF7FD"/>
<path id="Vector_13" d="M34.6477 54.6877C35.4181 54.6877 36.0426 54.0665 36.0426 53.3001C36.0426 52.5338 35.4181 51.9126 34.6477 51.9126C33.8774 51.9126 33.2529 52.5338 33.2529 53.3001C33.2529 54.0665 33.8774 54.6877 34.6477 54.6877Z" fill="#6C63FF"/>
<path id="Vector_14" d="M9.34647 75.5969C10.1168 75.5969 10.7413 74.9757 10.7413 74.2093C10.7413 73.443 10.1168 72.8218 9.34647 72.8218C8.57614 72.8218 7.95166 73.443 7.95166 74.2093C7.95166 74.9757 8.57614 75.5969 9.34647 75.5969Z" fill="#6C63FF"/>
<path id="Vector_15" d="M170.068 30.8281C170.838 30.8281 171.462 30.2068 171.462 29.4405C171.462 28.6742 170.838 28.053 170.068 28.053C169.297 28.053 168.673 28.6742 168.673 29.4405C168.673 30.2068 169.297 30.8281 170.068 30.8281Z" fill="#6C63FF"/>
<path id="Vector_16" d="M159.873 81.6971C160.335 81.6971 160.71 81.3243 160.71 80.8645C160.71 80.4047 160.335 80.032 159.873 80.032C159.411 80.032 159.036 80.4047 159.036 80.8645C159.036 81.3243 159.411 81.6971 159.873 81.6971Z" fill="#6C63FF"/>
<path id="Vector_17" d="M141.078 11.7591C141.54 11.7591 141.915 11.3863 141.915 10.9265C141.915 10.4667 141.54 10.094 141.078 10.094C140.616 10.094 140.241 10.4667 140.241 10.9265C140.241 11.3863 140.616 11.7591 141.078 11.7591Z" fill="#E6E6E6"/>
<path id="Vector_18" d="M89.0298 59.1343C89.492 59.1343 89.8666 58.7616 89.8666 58.3018C89.8666 57.842 89.492 57.4692 89.0298 57.4692C88.5676 57.4692 88.1929 57.842 88.1929 58.3018C88.1929 58.7616 88.5676 59.1343 89.0298 59.1343Z" fill="#E6E6E6"/>
<path id="Vector_19" d="M138.545 81.4739C139.008 81.4739 139.382 81.1012 139.382 80.6414C139.382 80.1816 139.008 79.8088 138.545 79.8088C138.083 79.8088 137.708 80.1816 137.708 80.6414C137.708 81.1012 138.083 81.4739 138.545 81.4739Z" fill="#E6E6E6"/>
<path id="Vector_20" d="M26.1381 61.5086C26.6003 61.5086 26.975 61.1358 26.975 60.676C26.975 60.2162 26.6003 59.8435 26.1381 59.8435C25.676 59.8435 25.3013 60.2162 25.3013 60.676C25.3013 61.1358 25.676 61.5086 26.1381 61.5086Z" fill="#E6E6E6"/>
<path id="Vector_21" d="M11.6801 31.2263C12.1423 31.2263 12.517 30.8536 12.517 30.3938C12.517 29.934 12.1423 29.5613 11.6801 29.5613C11.2179 29.5613 10.8433 29.934 10.8433 30.3938C10.8433 30.8536 11.2179 31.2263 11.6801 31.2263Z" fill="#E6E6E6"/>
<path id="Vector_22" d="M109.994 8.87502C110.456 8.87502 110.83 8.50229 110.83 8.04249C110.83 7.5827 110.456 7.20996 109.994 7.20996C109.531 7.20996 109.157 7.5827 109.157 8.04249C109.157 8.50229 109.531 8.87502 109.994 8.87502Z" fill="#E6E6E6"/>
<path id="Vector_23" d="M80.355 9.59597C80.8171 9.59597 81.1918 9.22323 81.1918 8.76344C81.1918 8.30364 80.8171 7.93091 80.355 7.93091C79.8928 7.93091 79.5181 8.30364 79.5181 8.76344C79.5181 9.22323 79.8928 9.59597 80.355 9.59597Z" fill="#E6E6E6"/>
<path id="Vector_24" d="M151.656 56.7804L151.239 57.1932L150.824 56.7776L150.545 57.0528L150.96 57.4683L150.542 57.881L150.819 58.1581L151.237 57.7453L151.652 58.1609L151.93 57.8857L151.515 57.4701L151.933 57.0575L151.656 56.7804Z" fill="#6C63FF"/>
<path id="Vector_25" d="M134.849 51.1942L134.431 51.607L134.016 51.1914L133.738 51.4666L134.153 51.8822L133.735 52.2948L134.011 52.5719L134.429 52.1591L134.844 52.5747L135.123 52.2995L134.708 51.884L135.125 51.4713L134.849 51.1942Z" fill="#6C63FF"/>
<path id="Vector_26" d="M151.475 8.65467L151.058 9.06743L150.643 8.65186L150.364 8.92703L150.779 9.34261L150.361 9.75524L150.638 10.0323L151.056 9.61957L151.471 10.0351L151.749 9.75997L151.334 9.3444L151.752 8.93176L151.475 8.65467Z" fill="#6C63FF"/>
<path id="Vector_27" d="M28.5841 12.2599L28.1665 12.6727L27.7516 12.2571L27.4732 12.5323L27.888 12.9478L27.4702 13.3605L27.7468 13.6376L28.1646 13.2248L28.5795 13.6404L28.8579 13.3652L28.443 12.9496L28.8607 12.537L28.5841 12.2599Z" fill="#6C63FF"/>
<path id="Vector_28" d="M20.632 51.1942L20.2144 51.607L19.7994 51.1914L19.521 51.4666L19.9358 51.8822L19.5181 52.2948L19.7947 52.5719L20.2124 52.1591L20.6274 52.5747L20.9058 52.2995L20.4908 51.884L20.9086 51.4713L20.632 51.1942Z" fill="#6C63FF"/>
<path id="Vector_29" d="M36.5358 41.8212L36.1182 42.2339L35.7032 41.8184L35.4248 42.0935L35.8396 42.5091L35.4219 42.9217L35.6985 43.1988L36.1162 42.7861L36.5312 43.2017L36.8096 42.9265L36.3947 42.5109L36.8124 42.0983L36.5358 41.8212Z" fill="#6C63FF"/>
<path id="Vector_30" d="M17.7404 61.2885L17.3228 61.7012L16.9078 61.2856L16.6294 61.5608L17.0442 61.9764L16.6265 62.389L16.9031 62.6661L17.3208 62.2534L17.7357 62.6689L18.0142 62.3938L17.5992 61.9782L18.017 61.5656L17.7404 61.2885Z" fill="#6C63FF"/>
<path id="Vector_31" d="M30.7526 74.2665L30.335 74.6792L29.92 74.2637L29.6416 74.5388L30.0564 74.9544L29.6387 75.3671L29.9153 75.6442L30.333 75.2314L30.748 75.647L31.0264 75.3718L30.6114 74.9562L31.0292 74.5436L30.7526 74.2665Z" fill="#6C63FF"/>
<path id="Vector_32" d="M63.2829 6.49183L62.8652 6.90459L62.4503 6.48901L62.1719 6.76419L62.5867 7.17976L62.1689 7.5924L62.4456 7.86949L62.8633 7.45673L63.2782 7.8723L63.5566 7.59713L63.1417 7.18156L63.5595 6.76892L63.2829 6.49183Z" fill="#6C63FF"/>
<path id="Vector_33" d="M98.7043 7.93372L98.2866 8.34648L97.8717 7.93091L97.5933 8.20608L98.0081 8.62166L97.5903 9.03429L97.867 9.31139L98.2847 8.89862L98.6996 9.3142L98.9781 9.03902L98.5631 8.62345L98.9809 8.21081L98.7043 7.93372Z" fill="#6C63FF"/>
<path id="Vector_34" d="M96.2828 70.3784L95.8651 70.7911L95.4503 70.3755L95.1718 70.6507L95.5867 71.0662L95.1689 71.4789L95.4456 71.756L95.8632 71.3432L96.2781 71.7588L96.5566 71.4836L96.1417 71.0682L96.5595 70.6554L96.2828 70.3784Z" fill="#E6E6E6"/>
<path id="Vector_35" d="M99.6305 46.235L99.2128 46.6476L98.798 46.2322L98.5194 46.5072L98.9343 46.9228L98.5166 47.3356L98.7932 47.6125L99.2108 47.1999L99.6258 47.6154L99.9043 47.3403L99.4894 46.9247L99.9071 46.512L99.6305 46.235Z" fill="#E6E6E6"/>
<path id="Vector_36" d="M172.579 20.5653L172.161 20.978L171.746 20.5625L171.468 20.8375L171.883 21.2531L171.465 21.6659L171.741 21.9429L172.159 21.5302L172.574 21.9457L172.853 21.6706L172.438 21.255L172.855 20.8423L172.579 20.5653Z" fill="#E6E6E6"/>
<path id="Vector_37" d="M162.319 44.7052L161.901 45.118L161.486 44.7024L161.208 44.9776L161.623 45.393L161.205 45.8058L161.482 46.0829L161.899 45.6701L162.314 46.0857L162.593 45.8105L162.178 45.3949L162.595 44.9823L162.319 44.7052Z" fill="#E6E6E6"/>
<path id="Vector_38" d="M142.078 34.6112L141.66 35.024L141.245 34.6084L140.967 34.8836L141.381 35.299L140.964 35.7118L141.24 35.9889L141.658 35.5761L142.073 35.9917L142.351 35.7165L141.937 35.3009L142.354 34.8883L142.078 34.6112Z" fill="#E6E6E6"/>
<path id="Vector_39" d="M43.7648 10.0968L43.347 10.5096L42.9321 10.094L42.6537 10.3692L43.0685 10.7846L42.6509 11.1974L42.9274 11.4745L43.3451 11.0617L43.76 11.4773L44.0384 11.2021L43.6237 10.7865L44.0413 10.3739L43.7648 10.0968Z" fill="#E6E6E6"/>
<path id="Vector_40" d="M45.2101 48.3102L44.7924 48.723L44.3774 48.3074L44.099 48.5826L44.5138 48.998L44.0962 49.4108L44.3727 49.6879L44.7904 49.2751L45.2054 49.6907L45.4838 49.4155L45.069 48.9999L45.4866 48.5873L45.2101 48.3102Z" fill="#E6E6E6"/>
<path id="Vector_41" d="M19.1862 41.8212L18.7684 42.2339L18.3535 41.8184L18.0751 42.0935L18.4899 42.509L18.0723 42.9218L18.3488 43.1988L18.7665 42.7861L19.1814 43.2017L19.4598 42.9265L19.045 42.5109L19.4627 42.0983L19.1862 41.8212Z" fill="#E6E6E6"/>
<path id="Vector_42" d="M6.89711 61.2885L6.47936 61.7012L6.06444 61.2856L5.78603 61.5608L6.20082 61.9763L5.7832 62.389L6.05969 62.6661L6.47744 62.2534L6.89236 62.669L7.17077 62.3938L6.75598 61.9782L7.1736 61.5656L6.89711 61.2885Z" fill="#E6E6E6"/>
<path id="Vector_43" d="M42.319 72.8246L41.9012 73.2374L41.4863 72.8218L41.2079 73.097L41.6227 73.5124L41.2051 73.9252L41.4816 74.2023L41.8993 73.7895L42.3142 74.2051L42.5926 73.9299L42.1779 73.5143L42.5955 73.1017L42.319 72.8246Z" fill="#E6E6E6"/>
<path id="Vector_44" d="M24.9694 76.4296L24.5516 76.8423L24.1367 76.4268L23.8583 76.7019L24.2731 77.1174L23.8555 77.5302L24.132 77.8073L24.5497 77.3945L24.9646 77.8101L25.243 77.5349L24.8282 77.1193L25.2459 76.7067L24.9694 76.4296Z" fill="#E6E6E6"/>
<path id="Vector_45" d="M21.3551 68.4984L20.9374 68.9112L20.5225 68.4956L20.244 68.7708L20.6588 69.1862L20.2412 69.599L20.5177 69.8761L20.9354 69.4633L21.3504 69.8789L21.6288 69.6037L21.214 69.1882L21.6316 68.7755L21.3551 68.4984Z" fill="#E6E6E6"/>
<path id="Vector_46" d="M167.379 69.9406L166.961 70.3533L166.546 69.9377L166.268 70.2129L166.683 70.6284L166.265 71.0411L166.542 71.3182L166.959 70.9055L167.374 71.321L167.653 71.0459L167.238 70.6303L167.656 70.2176L167.379 69.9406Z" fill="#E6E6E6"/>
<path id="Vector_47" d="M64.0055 15.1439L63.5878 15.5567L63.1728 15.1411L62.8944 15.4163L63.3092 15.8317L62.8916 16.2445L63.1681 16.5216L63.5858 16.1088L64.0008 16.5244L64.2792 16.2492L63.8644 15.8337L64.282 15.421L64.0055 15.1439Z" fill="#E6E6E6"/>
<path id="Vector_48" d="M80.632 13.7018L80.2142 14.1146L79.7993 13.699L79.5209 13.9742L79.9357 14.3896L79.5181 14.8024L79.7946 15.0795L80.2123 14.6667L80.6272 15.0823L80.9056 14.8071L80.4908 14.3915L80.9085 13.9789L80.632 13.7018Z" fill="#E6E6E6"/>
<path id="Vector_49" opacity="0.8" d="M142.558 52.6561L146.796 47.7205L151.034 42.7848L153.427 39.9986C153.559 39.8444 153.355 39.6039 153.222 39.7581L148.984 44.6937L144.746 49.6293L142.354 52.4156C142.222 52.5697 142.426 52.8102 142.558 52.6561Z" fill="url(#paint0_linear)"/>
<path id="Vector_50" opacity="0.8" d="M52.2955 32.4146L56.5335 27.479L60.7715 22.5434L63.1639 19.7571C63.2963 19.603 63.092 19.3625 62.9596 19.5166L58.7216 24.4523L54.4836 29.3879L52.0912 32.1741C51.9589 32.3283 52.1631 32.5688 52.2955 32.4146Z" fill="url(#paint1_linear)"/>
<path id="Vector_51" opacity="0.8" d="M135.026 70.4168L139.264 65.4812L143.502 60.5456L145.895 57.7593C146.027 57.6052 145.823 57.3647 145.691 57.5188L141.453 62.4545L137.215 67.3901L134.822 70.1763C134.69 70.3305 134.894 70.571 135.026 70.4168Z" fill="url(#paint2_linear)"/>
<path id="Vector_52" d="M126.62 49.2131L126.656 49.2853L126.62 49.3519V49.2131Z" fill="black"/>
</g>
<g id="Group 18">
<g id="Group 16">
<path id="Vector_53" d="M96.678 15.1197L53.4941 26.6804L61.6433 57.0664L104.827 45.5057L96.678 15.1197Z" fill="#8985C2"/>
<g id="Group 17">
<path id="Vector_54" d="M71.0331 37.7242C73.2984 41.6259 77.8841 43.1929 77.8841 43.1929C77.8841 43.1929 78.7971 38.4338 76.5318 34.5321C74.2665 30.6303 69.6807 29.0634 69.6807 29.0634C69.6807 29.0634 68.7677 33.8224 71.0331 37.7242Z" fill="white"/>
<path id="Vector_55" d="M72.45 36.4452C76.3608 38.6334 77.9865 43.1677 77.9865 43.1677C77.9865 43.1677 73.2715 44.1542 69.3607 41.966C65.4499 39.7777 63.8242 35.2434 63.8242 35.2434C63.8242 35.2434 68.5392 34.2569 72.45 36.4452Z" fill="#6C63FF"/>
<path id="Vector_56" d="M81.5715 34.9098C81.5682 39.4171 78.3833 43.058 78.3833 43.058C78.3833 43.058 75.2039 39.3913 75.2072 34.884C75.2105 30.3768 78.3954 26.7358 78.3954 26.7358C78.3954 26.7358 81.5748 30.4025 81.5715 34.9098Z" fill="white"/>
<path id="Vector_57" d="M79.5015 34.5589C77.1337 38.4227 77.9925 43.1618 77.9925 43.1618C77.9925 43.1618 82.6903 41.6364 85.058 37.7726C87.4258 33.9088 86.567 29.1697 86.567 29.1697C86.567 29.1697 81.8693 30.6951 79.5015 34.5589Z" fill="#6C63FF"/>
</g>
</g>
<g id="Group 13">
<path id="Vector_58" d="M79.6701 28.2925C79.5697 28.2929 79.4736 28.3329 79.4028 28.4039C79.332 28.4749 79.2923 28.571 79.2925 28.6711V59.3416C79.2923 59.4417 79.332 59.5378 79.4028 59.6088C79.4736 59.6798 79.5697 59.7198 79.6701 59.7202H123.571C123.672 59.7198 123.768 59.6798 123.838 59.6088C123.909 59.5378 123.949 59.4417 123.949 59.3416V28.6711C123.949 28.571 123.909 28.4749 123.838 28.4039C123.768 28.3329 123.672 28.2929 123.571 28.2925H79.6701Z" fill="#373549"/>
<path id="Vector_59" d="M79.5117 46.3176C80.8509 46.3138 82.1152 46.7885 83.2179 47.5266C84.3753 48.3014 85.3535 49.3279 86.2128 50.4151C87.1623 51.6165 87.976 52.9164 88.8494 54.172C89.656 55.3316 90.5203 56.459 91.5599 57.4225C92.5434 58.3341 93.6825 59.1006 94.9671 59.5162C95.1236 59.5669 95.2819 59.6116 95.4415 59.6515C95.6213 59.6966 95.698 59.4195 95.518 59.3745C94.1988 59.0443 93.0193 58.329 92.0053 57.4376C90.9472 56.5074 90.0674 55.4036 89.2587 54.2564C88.3782 53.0073 87.5679 51.7086 86.6369 50.4952C85.7755 49.3725 84.8067 48.3169 83.6561 47.4827C82.5883 46.7085 81.3515 46.1572 80.0255 46.0496C79.8546 46.0357 79.6832 46.0298 79.5117 46.0303C79.4744 46.0316 79.439 46.0473 79.413 46.0741C79.3871 46.1009 79.3726 46.1367 79.3726 46.174C79.3726 46.2112 79.3871 46.247 79.413 46.2738C79.439 46.3006 79.4744 46.3163 79.5117 46.3176L79.5117 46.3176Z" fill="#6C63FF"/>
<path id="Vector_60" d="M79.6612 59.5829C82.0169 57.2063 85.2374 56.0829 88.4354 55.3541C91.7803 54.5919 95.2312 54.1827 98.4092 52.8228C99.9268 52.191 101.32 51.2954 102.523 50.1777C103.647 49.107 104.579 47.8527 105.28 46.4691C106.709 43.664 107.154 40.4616 106.542 37.3747C105.896 34.2363 104.292 31.3742 101.95 29.1804C101.665 28.9129 101.37 28.6568 101.064 28.4121C100.921 28.2972 100.716 28.4993 100.861 28.6153C103.349 30.6165 105.151 33.3409 106.016 36.4101C106.861 39.4377 106.643 42.6628 105.396 45.5493C104.791 46.9514 103.954 48.2421 102.92 49.3673C101.823 50.5408 100.518 51.5026 99.0709 52.2042C95.9882 53.7222 92.5376 54.1922 89.2092 54.8912C86.0709 55.5503 82.8697 56.4905 80.3536 58.5615C80.0412 58.819 79.7422 59.0921 79.4575 59.3797C79.327 59.5114 79.5306 59.7147 79.6612 59.5829Z" fill="#6C63FF"/>
<path id="Vector_61" d="M79.4848 41.5914C83.1002 40.6161 86.926 40.7468 90.466 41.9665C91.4944 42.3183 92.5492 42.7271 93.4096 43.4073C94.1497 43.9924 94.7996 44.8781 94.6147 45.8726C94.4443 46.7894 93.5988 47.5135 92.6889 47.646C91.7504 47.7827 90.8953 47.2131 90.4648 46.4059C90.2451 46.0056 90.1447 45.5509 90.1755 45.0956C90.2063 44.6402 90.3671 44.2031 90.6388 43.8359C91.1828 43.1051 92.0873 42.6877 92.9762 42.572C93.9923 42.4397 94.9916 42.7384 95.8705 43.2379C97.8568 44.3668 99.1253 46.3349 100.793 47.8352C101.593 48.5769 102.532 49.1535 103.555 49.5317C104.546 49.8731 105.59 50.0307 106.638 49.9966C108.833 49.9409 110.938 49.15 112.731 47.9094C114.53 46.6649 116.016 45.0309 117.317 43.2871C118.012 42.3547 118.617 41.3528 119.345 40.4449C120.061 39.5513 120.948 38.7569 122.082 38.4577C122.598 38.3154 123.142 38.3124 123.66 38.449C123.696 38.4577 123.735 38.4519 123.767 38.433C123.799 38.414 123.822 38.3833 123.832 38.3474C123.842 38.3115 123.838 38.2731 123.82 38.2404C123.802 38.2076 123.772 38.1831 123.736 38.172C122.634 37.8722 121.475 38.2231 120.561 38.863C119.584 39.5474 118.883 40.5394 118.219 41.511C116.891 43.452 115.461 45.3331 113.647 46.8516C111.835 48.3676 109.654 49.454 107.277 49.6717C106.14 49.786 104.991 49.6744 103.898 49.3433C102.755 48.9851 101.763 48.3381 100.887 47.5317C99.1653 45.9473 97.8261 43.8675 95.6713 42.8069C94.7631 42.3599 93.7692 42.1454 92.7627 42.3156C91.8765 42.4655 91.0048 42.9013 90.4461 43.6173C90.1631 43.9773 89.9784 44.4043 89.9102 44.8566C89.8419 45.309 89.8923 45.7712 90.0566 46.1984C90.3749 47.0319 91.0851 47.7518 91.9871 47.916C92.8975 48.0817 93.8487 47.6629 94.4171 46.9502C94.7017 46.5926 94.8746 46.1593 94.9141 45.7045C94.9537 45.2496 94.8582 44.7931 94.6396 44.392C94.172 43.4904 93.2597 42.8671 92.3711 42.4272C91.2547 41.8927 90.0829 41.4819 88.8767 41.2023C86.4015 40.6002 83.8303 40.4993 81.3153 40.9053C80.6731 41.0098 80.0366 41.1463 79.4082 41.3143C79.3725 41.3255 79.3426 41.35 79.3247 41.3827C79.3068 41.4154 79.3024 41.4538 79.3123 41.4897C79.3222 41.5257 79.3458 41.5564 79.3779 41.5753C79.4101 41.5943 79.4484 41.6 79.4848 41.5914H79.4848Z" fill="#6C63FF"/>
<path id="Vector_62" d="M109.541 59.7091C110.56 58.344 111.602 56.896 112.042 55.2258C112.261 54.4286 112.294 53.5918 112.136 52.7802C111.984 52.0725 111.688 51.4037 111.265 50.8152C110.399 49.588 109.122 48.6759 107.763 48.0603C106.08 47.2978 104.265 46.9068 102.508 46.357C100.889 45.8502 99.2291 45.1889 98.0196 43.9571C96.8768 42.7934 96.2293 41.0416 96.8667 39.466C97.445 38.0364 98.8544 37.0883 100.261 36.5878C101.986 35.9741 103.834 35.8637 105.592 35.3773C107.061 34.9707 108.565 34.2774 109.475 33.0044C110.246 31.9256 110.494 30.3699 109.877 29.1641C109.727 28.8718 109.525 28.6092 109.28 28.389C109.143 28.2651 108.939 28.4677 109.077 28.5922C110.116 29.5317 110.128 31.1391 109.543 32.329C108.855 33.7262 107.371 34.522 105.942 34.9741C104.241 35.5121 102.441 35.6269 100.732 36.1332C99.271 36.5658 97.8421 37.3416 96.9825 38.6381C96.5651 39.259 96.3362 39.9869 96.3232 40.7343C96.3277 41.5342 96.5417 42.319 96.944 43.011C97.7566 44.45 99.205 45.3809 100.696 46.0091C103.83 47.3297 107.547 47.5314 110.129 49.9527C111.238 50.9926 111.991 52.3736 111.948 53.9207C111.9 55.627 110.985 57.1795 110.034 58.543C109.793 58.888 109.544 59.2269 109.292 59.5641C109.181 59.7125 109.431 59.8559 109.541 59.7091V59.7091Z" fill="#6C63FF"/>
<path id="Vector_63" d="M86.013 28.6764C86.4095 28.9647 86.7304 29.3441 86.9485 29.7824C87.1665 30.2208 87.2752 30.7052 87.2655 31.1944C87.2498 31.6898 87.1116 32.1736 86.8631 32.6028C86.6146 33.0319 86.2636 33.3931 85.8412 33.6542C85.0412 34.1252 83.9167 34.1844 83.2797 33.4148C83.0161 33.1026 82.8848 32.7003 82.9134 32.2932C82.9361 32.0968 83.0058 31.9086 83.1168 31.7447C83.2278 31.5808 83.3768 31.446 83.5511 31.3517C84.3592 30.8918 85.3278 31.1626 86.0746 31.6033C86.5369 31.876 86.9599 32.2078 87.4019 32.5109C87.8241 32.8029 88.2751 33.0513 88.7477 33.2523C90.6294 34.0451 92.8372 34.0545 94.6921 33.1782C95.5325 32.7769 96.2852 32.214 96.9069 31.5218C97.5287 30.8296 98.0073 30.0217 98.3153 29.1446C98.3896 28.9277 98.4522 28.7071 98.5029 28.4835C98.5439 28.3035 98.2662 28.2266 98.2251 28.4072C97.7922 30.307 96.4698 31.9498 94.737 32.8365C92.8482 33.8031 90.5162 33.776 88.6072 32.8773C88.1178 32.6368 87.6513 32.3525 87.2134 32.0279C86.7631 31.706 86.314 31.3736 85.8106 31.1373C85.0193 30.7659 83.9836 30.6614 83.2415 31.2107C83.0674 31.337 82.9224 31.4989 82.8162 31.6856C82.7099 31.8723 82.6448 32.0794 82.6253 32.2932C82.5973 32.731 82.7282 33.1641 82.994 33.5135C83.6113 34.344 84.7224 34.4616 85.6337 34.0781C86.5923 33.6749 87.2829 32.7619 87.4878 31.7528C87.6106 31.1299 87.5505 30.4848 87.3147 29.8951C87.0789 29.3053 86.6774 28.796 86.1584 28.4283C86.0077 28.3202 85.8637 28.5693 86.013 28.6764H86.013Z" fill="#6C63FF"/>
<path id="Vector_64" d="M116.564 59.6539C116.87 58.269 117.479 56.969 118.349 55.8472C119.215 54.7221 120.31 53.7923 121.561 53.1189C122.264 52.7418 123.013 52.4564 123.789 52.2697C123.969 52.2264 123.893 51.9493 123.712 51.9926C122.296 52.3414 120.974 52.9983 119.842 53.9163C118.705 54.8285 117.775 55.9705 117.112 57.2671C116.739 57.9988 116.461 58.7753 116.286 59.5775C116.248 59.7578 116.525 59.8349 116.564 59.6539H116.564Z" fill="#6C63FF"/>
<path id="Vector_65" d="M115.035 28.4316C114.42 28.4378 113.902 28.8618 113.651 29.4025C113.365 30.016 113.444 30.6912 113.75 31.2823C114.463 32.6614 116.022 33.1501 117.144 34.1036C117.665 34.546 118.119 35.1089 118.239 35.7977C118.355 36.4691 118.115 37.161 117.721 37.7013C117.291 38.2913 116.642 38.6969 115.966 38.9527C115.272 39.2162 114.538 39.363 113.795 39.3869C113.077 39.4072 112.318 39.2821 111.724 38.8551C111.477 38.6792 111.27 38.4541 111.115 38.1941C110.96 37.9341 110.861 37.6449 110.824 37.3447C110.793 37.0732 110.839 36.7987 110.957 36.552C111.074 36.3053 111.259 36.0962 111.489 35.9482C111.953 35.6744 112.504 35.5853 113.031 35.6986C114.345 35.9575 115.025 37.2576 115.316 38.4494C115.686 39.967 115.539 41.5803 116.108 43.055C116.593 44.3028 117.476 45.357 118.62 46.055C119.933 46.8511 121.346 47.1088 122.835 46.7199C123.214 46.6189 123.582 46.4821 123.936 46.3113C124.103 46.2315 123.957 45.9837 123.79 46.0632C122.31 46.7699 120.796 46.7925 119.306 46.0961C118.072 45.512 117.082 44.5137 116.511 43.2757C115.837 41.8126 115.971 40.1698 115.65 38.6243C115.392 37.3804 114.765 35.9938 113.483 35.5261C112.452 35.1497 111.07 35.4419 110.641 36.5494C110.416 37.1284 110.546 37.7904 110.854 38.313C111.202 38.8856 111.751 39.3083 112.395 39.4987C113.118 39.7278 113.897 39.7086 114.639 39.592C115.385 39.4881 116.106 39.2517 116.768 38.8942C117.403 38.5505 117.919 38.0242 118.249 37.3838C118.557 36.7578 118.656 36.0293 118.422 35.3623C117.905 33.8884 116.341 33.2799 115.173 32.4277C114.598 32.0078 114.058 31.4563 113.844 30.7614C113.743 30.4637 113.729 30.1437 113.804 29.8386C113.879 29.5335 114.039 29.2557 114.265 29.0376C114.472 28.8388 114.747 28.725 115.035 28.719C115.072 28.7177 115.107 28.702 115.133 28.6752C115.159 28.6484 115.174 28.6126 115.174 28.5753C115.174 28.538 115.159 28.5022 115.133 28.4754C115.107 28.4486 115.072 28.4329 115.035 28.4316L115.035 28.4316Z" fill="#6C63FF"/>
<path id="Vector_66" d="M109.265 54.6775C112.341 54.6775 114.834 52.1904 114.834 49.1224C114.834 46.0545 112.341 43.5674 109.265 43.5674C106.189 43.5674 103.695 46.0545 103.695 49.1224C103.695 52.1904 106.189 54.6775 109.265 54.6775Z" fill="#6C63FF"/>
<path id="Vector_67" d="M110.705 36.6714C111.925 36.6714 112.914 35.6851 112.914 34.4685C112.914 33.2519 111.925 32.2656 110.705 32.2656C109.485 32.2656 108.497 33.2519 108.497 34.4685C108.497 35.6851 109.485 36.6714 110.705 36.6714Z" fill="#6C63FF"/>
<path id="Vector_68" d="M83.7218 38.2998C84.9416 38.2998 85.9304 37.3135 85.9304 36.0969C85.9304 34.8803 84.9416 33.894 83.7218 33.894C82.502 33.894 81.5132 34.8803 81.5132 36.0969C81.5132 37.3135 82.502 38.2998 83.7218 38.2998Z" fill="#6C63FF"/>
</g>
<g id="F">
<g id="Group 10">
<g id="Group 9">
<path id="Rectangle 6" d="M53.7495 45.415C53.7495 43.7582 55.0927 42.415 56.7495 42.415H64.8907C66.0042 42.415 66.9242 43.2842 66.9873 44.396L67.4995 53.415H53.7495V45.415Z" fill="#E6E6E6"/>
<path id="Vector 1" d="M66.25 52.3951V43.6626L78.75 52.3951H66.25Z" fill="#E6E6E6" stroke="#C4C4C4"/>
<path id="Rectangle 5" d="M53.7495 52.395H122.25C124.459 52.395 126.25 54.1859 126.25 56.395V83.3252C126.25 85.5343 124.459 87.3252 122.25 87.3252H58.7495C55.9881 87.3252 53.7495 85.0866 53.7495 82.3252V52.395Z" fill="#E6E6E6"/>
</g>
</g>
<path id="Vector_69" d="M119.935 84.6283H58.7671C58.2361 84.6277 57.727 84.4174 57.3515 84.0436C56.976 83.6697 56.7648 83.1629 56.7642 82.6341V46.503C56.7648 45.9743 56.976 45.4674 57.3515 45.0935C57.727 44.7197 58.2361 44.5094 58.7671 44.5088C59.2368 44.5093 59.6871 44.6953 60.0192 45.026C60.3513 45.3567 60.5382 45.805 60.5387 46.2726V80.2541C60.5392 80.7495 60.7372 81.2246 61.0891 81.575C61.441 81.9253 61.9181 82.1224 62.4158 82.123H119.728C120.013 82.1198 120.29 82.2117 120.516 82.384C120.742 82.5563 120.904 82.799 120.975 83.0734C121.055 83.3337 121.045 83.6131 120.947 83.867C120.849 84.121 120.668 84.3348 120.434 84.4745C120.285 84.5709 120.112 84.6242 119.935 84.6283Z" fill="#CBCBCB"/>
</g>
</g>
<g id="Group 26">
<path id="Vector_70" d="M14.7598 22.2755C16.9469 22.2755 18.7198 20.5061 18.7198 18.3234C18.7198 16.1408 16.9469 14.3713 14.7598 14.3713C12.5728 14.3713 10.7998 16.1408 10.7998 18.3234C10.7998 20.5061 12.5728 22.2755 14.7598 22.2755Z" fill="#6C63FF"/>
<path id="Vector_71" d="M18.2078 20.8046C17.4475 20.8046 15.7685 20.0253 14.2753 19.1125C12.4224 17.9798 10.6228 16.4994 10.9374 15.9867C11.0263 15.8419 11.2467 15.804 11.6113 15.8708L11.5852 16.0128C11.3028 15.961 11.1118 15.9791 11.0608 16.0621C10.9864 16.1833 11.1504 16.5351 11.8336 17.159C12.4562 17.7277 13.3502 18.3777 14.3509 18.9894C15.3516 19.601 16.338 20.1005 17.1284 20.3957C17.9958 20.7197 18.3843 20.7055 18.4586 20.5844C18.5097 20.5012 18.4387 20.3229 18.264 20.0952L18.3788 20.0074C18.6045 20.3015 18.671 20.5149 18.582 20.6598C18.5209 20.7594 18.391 20.8046 18.2078 20.8046Z" fill="#FBF7FD"/>
<path id="Vector_72" d="M14.2709 17.1004C14.7183 17.1004 15.0809 16.7385 15.0809 16.292C15.0809 15.8456 14.7183 15.4836 14.2709 15.4836C13.8236 15.4836 13.4609 15.8456 13.4609 16.292C13.4609 16.7385 13.8236 17.1004 14.2709 17.1004Z" fill="white"/>
<path id="Vector_73" d="M14.5058 21.2624C14.8041 21.2624 15.0458 21.0211 15.0458 20.7235C15.0458 20.4259 14.8041 20.1846 14.5058 20.1846C14.2076 20.1846 13.9658 20.4259 13.9658 20.7235C13.9658 21.0211 14.2076 21.2624 14.5058 21.2624Z" fill="white"/>
<path id="Vector_74" d="M16.3652 19.4148C16.6634 19.4148 16.9052 19.1735 16.9052 18.8758C16.9052 18.5782 16.6634 18.3369 16.3652 18.3369C16.067 18.3369 15.8252 18.5782 15.8252 18.8758C15.8252 19.1735 16.067 19.4148 16.3652 19.4148Z" fill="white"/>
</g>
</g>
</g>
<defs>
<filter id="filter0_d" x="151.867" y="93.2517" width="24.4578" height="24.4202" filterUnits="userSpaceOnUse" color-interpolation-filters="sRGB">
<feFlood flood-opacity="0" result="BackgroundImageFix"/>
<feColorMatrix in="SourceAlpha" type="matrix" values="0 0 0 0 0 0 0 0 0 0 0 0 0 0 0 0 0 0 127 0" result="hardAlpha"/>
<feOffset/>
<feGaussianBlur stdDeviation="2.5"/>
<feColorMatrix type="matrix" values="0 0 0 0 0 0 0 0 0 0 0 0 0 0 0 0 0 0 0.25 0"/>
<feBlend mode="normal" in2="BackgroundImageFix" result="effect1_dropShadow"/>
<feBlend mode="normal" in="SourceGraphic" in2="effect1_dropShadow" result="shape"/>
</filter>
<linearGradient id="paint0_linear" x1="142.311" y1="46.2071" x2="153.469" y2="46.2071" gradientUnits="userSpaceOnUse">
<stop stop-color="white"/>
<stop offset="1" stop-color="white" stop-opacity="0.3"/>
</linearGradient>
<linearGradient id="paint1_linear" x1="52.0483" y1="25.9656" x2="63.2068" y2="25.9656" gradientUnits="userSpaceOnUse">
<stop stop-color="white"/>
<stop offset="1" stop-color="white" stop-opacity="0.3"/>
</linearGradient>
<linearGradient id="paint2_linear" x1="7178.8" y1="7016.85" x2="8147.46" y2="7016.85" gradientUnits="userSpaceOnUse">
<stop stop-color="white"/>
<stop offset="1" stop-color="white" stop-opacity="0.3"/>
</linearGradient>
</defs>
</svg>
