<?xml version="1.0" standalone="no"?>
<!DOCTYPE svg PUBLIC "-//W3C//DTD SVG 20010904//EN"
 "http://www.w3.org/TR/2001/REC-SVG-20010904/DTD/svg10.dtd">
<svg version="1.0" xmlns="http://www.w3.org/2000/svg"
 width="700.000000pt" height="700.000000pt" viewBox="0 0 700.000000 700.000000"
 preserveAspectRatio="xMidYMid meet">
<metadata>
Created by potrace 1.14, written by Peter Selinger 2001-2017
</metadata>
<g transform="translate(0.000000,700.000000) scale(0.100000,-0.100000)"
fill="#000000" stroke="none">
<path d="M685 6981 c-351 -80 -593 -327 -671 -685 -10 -50 -12 -559 -11 -2821
3 -2504 4 -2765 19 -2815 90 -306 269 -505 552 -610 136 -51 9 -49 2961 -47
l2750 2 73 22 c336 98 577 365 631 698 6 38 9 1057 8 2810 l-2 2750 -28 90
c-27 85 -96 229 -134 277 -139 174 -302 278 -528 335 -16 4 -1270 8 -2785 10
-2622 1 -2759 1 -2835 -16z"/>
</g>
</svg>
