<svg width="499" height="403" viewBox="0 0 499 403" fill="none" xmlns="http://www.w3.org/2000/svg">
<path d="M256.686 402.507C381.227 402.507 482.187 312.402 482.187 201.253C482.187 90.1042 381.227 0 256.686 0C132.145 0 31.1846 90.1042 31.1846 201.253C31.1846 312.402 132.145 402.507 256.686 402.507Z" fill="#F3E1FF"/>
<path opacity="0.1" d="M83.1465 317.088C129.067 317.088 166.293 311.318 166.293 304.2C166.293 297.083 129.067 291.313 83.1465 291.313C37.226 291.313 0 297.083 0 304.2C0 311.318 37.226 317.088 83.1465 317.088Z" fill="#6C63FF"/>
<path opacity="0.1" d="M123.11 378.486C140.971 378.486 155.45 375.495 155.45 371.805C155.45 368.116 140.971 365.125 123.11 365.125C105.249 365.125 90.7695 368.116 90.7695 371.805C90.7695 375.495 105.249 378.486 123.11 378.486Z" fill="#6C63FF"/>
<path opacity="0.1" d="M344.091 352.783C361.952 352.783 376.431 349.792 376.431 346.102C376.431 342.413 361.952 339.422 344.091 339.422C326.23 339.422 311.751 342.413 311.751 346.102C311.751 349.792 326.23 352.783 344.091 352.783Z" fill="#6C63FF"/>
<path opacity="0.1" d="M234.352 347.176C263.397 347.176 286.942 343.187 286.942 338.266C286.942 333.346 263.397 329.357 234.352 329.357C205.307 329.357 181.762 333.346 181.762 338.266C181.762 343.187 205.307 347.176 234.352 347.176Z" fill="#6C63FF"/>
<path opacity="0.1" d="M389.31 311.345C449.89 311.345 499 303.653 499 294.165C499 284.676 449.89 276.984 389.31 276.984C328.729 276.984 279.619 284.676 279.619 294.165C279.619 303.653 328.729 311.345 389.31 311.345Z" fill="#6C63FF"/>
<path d="M22.7349 264.179C20.2709 268.972 19.1201 274.333 19.3994 279.715C19.6788 285.097 21.3783 290.31 24.3253 294.822C25.2921 296.272 26.1816 297.317 26.8922 297.592C30.3002 298.931 37.126 302.223 37.126 302.223L53.5619 295.765C53.5619 295.765 56.2304 281.649 58.7538 269.53C60.4747 261.264 62.1376 253.931 62.8192 252.645C64.5208 249.478 62.8192 215.006 62.8192 215.006C62.8192 215.006 46.3833 213.904 41.8634 226.574L39.8863 230.442L22.7349 264.179Z" fill="#A8A8A8"/>
<path opacity="0.1" d="M44.5561 267.988C54.5482 279.44 58.7636 269.535 58.7636 269.535C60.4845 261.269 62.1474 253.935 62.829 252.649C64.5306 249.483 62.829 215.011 62.829 215.011C62.829 215.011 46.3931 213.909 41.8732 226.579L39.8961 230.446C38.6295 240.584 37.3775 259.746 44.5561 267.988Z" fill="white"/>
<path d="M46.751 299.908L104.76 293.208L115.11 225.105L107.284 207.417C103.977 199.884 99.3984 192.977 93.7481 186.998C89.8083 182.845 85.0467 178.852 80.0386 176.846C79.3542 176.57 78.6555 176.331 77.9454 176.131C77.1292 175.883 76.2659 175.831 75.4259 175.98C74.5859 176.128 73.7929 176.473 73.1113 176.986C65.9569 182.057 63.3996 203.617 62.573 213.996C62.2329 218.261 61.6568 222.504 60.8472 226.705L46.751 299.908Z" fill="#A8A8A8"/>
<path opacity="0.1" d="M85.3703 224.37L73.2851 254.1C79.6177 249.469 89.0007 224.249 89.0007 224.249L97.4072 253.002L90.7072 222.697C91.688 216.116 91.9732 209.45 91.558 202.81C91.0262 195.201 83.8862 182.99 80.0093 176.841C79.3249 176.565 78.6262 176.326 77.9161 176.126C77.0999 175.878 76.2366 175.826 75.3966 175.975C74.5566 176.123 73.7636 176.468 73.082 176.981C76.1275 183.096 83.7412 198.387 86.0616 202.931C89.0056 208.654 85.3703 224.37 85.3703 224.37Z" fill="white"/>
<path d="M95.2363 302.223H126.711C128.006 302.224 129.287 301.961 130.477 301.45C131.667 300.94 132.741 300.193 133.633 299.255C134.525 298.316 135.217 297.206 135.667 295.992C136.116 294.778 136.314 293.485 136.249 292.192C135.553 278.696 133.788 254.631 129.592 239.356C127.325 231.114 124.691 226.787 122.273 224.655C121.14 223.561 119.677 222.873 118.111 222.697C116.924 222.595 115.736 222.883 114.727 223.519C108.883 229.122 102.057 258.605 102.057 258.605L95.2363 302.223Z" fill="#A8A8A8"/>
<path opacity="0.1" d="M124.294 276.075C125.59 279.667 126.102 283.81 124.294 287.846L117.28 291.313C117.28 291.313 98.4272 283.322 100.719 266.944C100.719 266.944 101.337 263.56 107.829 263.821C111.481 263.997 114.997 265.257 117.929 267.44C120.861 269.622 123.077 272.629 124.294 276.075V276.075Z" fill="white"/>
<path opacity="0.1" d="M116.802 233.023C116.584 227.28 119.702 225.288 122.279 224.655C121.146 223.561 119.682 222.873 118.117 222.697C116.323 224.198 115.052 226.229 114.486 228.498L107.912 260.544C107.912 260.544 117.169 242.648 116.802 233.023Z" fill="white"/>
<path d="M86.9561 258.363L102.541 279.682L105.243 297.278L95.2272 302.223L80.7878 305.414C79.3971 305.723 77.9672 305.816 76.5483 305.689L37.1455 302.223L42.5065 289.795L61.0211 263.802L86.9561 258.363Z" fill="#A8A8A8"/>
<path opacity="0.1" d="M80.9223 251.045C80.9223 251.045 91.5573 251.775 87.5643 270.047C83.5713 288.32 42.4863 289.785 42.4863 289.785C42.4863 289.785 51.2167 274.316 64.6458 263.231C66.1541 261.989 67.6092 260.693 68.9965 259.311C72.0855 256.222 77.9928 250.793 80.9223 251.045Z" fill="white"/>
<path opacity="0.1" d="M90.4902 264.822C90.4902 264.822 104.901 277.937 103.542 298.119Z" fill="black"/>
<path opacity="0.1" d="M114.733 223.519C114.733 223.519 99.6118 243.629 97.915 274.572Z" fill="black"/>
<path opacity="0.1" d="M62.834 214.997C62.834 214.997 70.1528 248.231 51.8799 273.281Z" fill="black"/>
<path d="M196.135 338.083H274.998C275.76 338.078 276.509 337.877 277.17 337.498C277.832 337.119 278.384 336.576 278.773 335.92C279.163 335.265 279.376 334.52 279.392 333.758C279.408 332.996 279.227 332.242 278.865 331.571L239.453 258.344C239.075 257.642 238.514 257.055 237.83 256.647C237.146 256.238 236.364 256.022 235.566 256.022C234.769 256.022 233.987 256.238 233.303 256.647C232.618 257.055 232.057 257.642 231.68 258.344L192.248 331.571C191.886 332.244 191.705 332.999 191.722 333.763C191.739 334.526 191.954 335.273 192.345 335.929C192.737 336.585 193.292 337.128 193.956 337.505C194.62 337.883 195.371 338.082 196.135 338.083V338.083ZM240.584 324.702H230.549V314.671H240.584V324.702ZM240.584 307.981H230.549V287.914H240.584V307.981Z" fill="#464353"/>
<path opacity="0.1" d="M196.135 338.083H274.998C275.76 338.078 276.509 337.877 277.17 337.498C277.832 337.119 278.384 336.576 278.773 335.92C279.163 335.265 279.376 334.52 279.392 333.758C279.408 332.996 279.227 332.242 278.865 331.571L239.453 258.344C239.075 257.642 238.514 257.055 237.83 256.647C237.146 256.238 236.364 256.022 235.566 256.022C234.769 256.022 233.987 256.238 233.303 256.647C232.618 257.055 232.057 257.642 231.68 258.344L192.248 331.571C191.886 332.244 191.705 332.999 191.722 333.763C191.739 334.526 191.954 335.273 192.345 335.929C192.737 336.585 193.292 337.128 193.956 337.505C194.62 337.883 195.371 338.082 196.135 338.083V338.083ZM240.584 324.702H230.549V314.671H240.584V324.702ZM240.584 307.981H230.549V287.914H240.584V307.981Z" fill="#E2DFE4"/>
<path d="M196.135 340.5H274.998C275.76 340.496 276.509 340.294 277.17 339.915C277.832 339.537 278.384 338.993 278.773 338.338C279.163 337.682 279.376 336.937 279.392 336.175C279.408 335.413 279.227 334.66 278.865 333.988L239.453 260.761C239.075 260.059 238.514 259.473 237.83 259.064C237.146 258.655 236.364 258.439 235.566 258.439C234.769 258.439 233.987 258.655 233.303 259.064C232.618 259.473 232.057 260.059 231.68 260.761L192.248 333.988C191.886 334.661 191.705 335.416 191.722 336.18C191.739 336.944 191.954 337.69 192.345 338.346C192.737 339.002 193.292 339.545 193.956 339.923C194.62 340.3 195.371 340.499 196.135 340.5V340.5ZM240.584 327.119H230.549V317.088H240.584V327.119ZM240.584 310.398H230.549V290.331H240.584V310.398Z" fill="#7C3BA8"/>
<path d="M113.027 114.433C112.973 115.443 113.476 116.366 113.771 117.333C114.259 119.201 114.21 121.168 113.631 123.009C113.089 124.942 112.181 126.987 112.872 128.877C113.031 129.322 113.273 129.728 113.418 130.173C114.018 132.01 112.906 133.943 111.688 135.447L116.468 138.797C117.166 139.375 117.997 139.772 118.885 139.952C119.78 140.058 120.819 139.58 121.003 138.7C121.066 138.4 121.003 138.086 121.061 137.782C121.12 137.388 121.272 137.014 121.505 136.691C121.738 136.368 122.045 136.105 122.4 135.925C123.118 135.573 123.919 135.424 124.715 135.495C127.65 135.655 130.144 137.583 132.813 138.821C134.572 139.583 136.395 140.188 138.261 140.629C139.319 140.904 140.494 141.156 141.451 140.629C142.408 140.102 142.848 138.879 142.776 137.772C142.627 136.671 142.283 135.605 141.76 134.625C141.233 133.646 140.915 132.567 140.827 131.459C140.827 129.834 141.717 128.355 142.017 126.76C142.437 124.493 141.582 122.187 140.537 120.127C139.493 118.068 138.227 116.086 137.719 113.843C137.618 113.163 137.442 112.497 137.192 111.856C136.95 111.37 136.623 110.931 136.225 110.561C134.432 108.787 131.875 107.945 129.371 107.762C126.867 107.578 124.338 107.989 121.854 108.419C120.906 108.555 119.972 108.776 119.064 109.081C117.767 109.597 116.536 110.264 115.395 111.068C114.264 111.851 113.099 112.997 113.027 114.433Z" fill="#464353"/>
<g opacity="0.1">
<path opacity="0.1" d="M140.812 130.468C140.812 130.613 140.812 130.758 140.841 130.898C140.991 129.481 141.735 128.152 142.001 126.736C142.104 126.168 142.135 125.59 142.093 125.015C142.093 125.266 142.045 125.498 142.001 125.769C141.696 127.364 140.792 128.843 140.812 130.468Z" fill="black"/>
<path opacity="0.1" d="M114.094 119.267C114.151 118.289 114.041 117.308 113.77 116.366C113.484 115.633 113.25 114.88 113.069 114.114C113.069 114.215 113.03 114.312 113.025 114.413C112.972 115.424 113.475 116.347 113.77 117.314C113.957 117.949 114.065 118.605 114.094 119.267V119.267Z" fill="black"/>
<path opacity="0.1" d="M142.731 137.506C142.697 137.938 142.562 138.356 142.337 138.726C142.112 139.097 141.803 139.409 141.435 139.638C140.469 140.165 139.304 139.913 138.245 139.638C136.378 139.197 134.555 138.591 132.797 137.825C130.128 136.592 127.634 134.664 124.7 134.504C123.903 134.433 123.102 134.582 122.384 134.934C122.029 135.114 121.722 135.377 121.489 135.7C121.256 136.023 121.104 136.397 121.045 136.791C121.011 137.095 121.045 137.409 120.987 137.709C120.799 138.589 119.764 139.067 118.87 138.961C117.981 138.781 117.151 138.384 116.453 137.806L112.155 134.789C111.996 135.007 111.836 135.22 111.672 135.418L116.453 138.773C117.151 139.351 117.981 139.748 118.87 139.928C119.764 140.034 120.803 139.556 120.987 138.676C121.05 138.376 120.987 138.062 121.045 137.757C121.104 137.364 121.256 136.99 121.489 136.667C121.722 136.344 122.029 136.081 122.384 135.901C123.102 135.549 123.903 135.4 124.7 135.471C127.634 135.63 130.128 137.559 132.797 138.792C134.555 139.557 136.378 140.164 138.245 140.605C139.304 140.88 140.478 141.132 141.435 140.605C142.393 140.078 142.832 138.855 142.76 137.748C142.755 137.666 142.741 137.588 142.731 137.506Z" fill="black"/>
<path opacity="0.1" d="M113.417 130.149C113.476 130.343 113.52 130.542 113.547 130.743C113.622 130.219 113.578 129.686 113.417 129.182C113.272 128.737 113.03 128.331 112.87 127.886C112.754 127.563 112.679 127.227 112.648 126.885C112.577 127.55 112.653 128.221 112.87 128.853C113.03 129.298 113.272 129.709 113.417 130.149Z" fill="black"/>
</g>
<path d="M119.093 313.579C119.06 313.716 118.982 313.839 118.871 313.927C118.753 313.988 118.621 314.016 118.489 314.009C116.768 314.047 115.047 314.009 113.331 314.13C111.707 314.27 110.077 314.613 108.458 314.429C107.94 314.448 107.429 314.304 106.996 314.019C106.563 313.735 106.229 313.322 106.041 312.839C105.939 312.628 105.848 312.412 105.77 312.191C105.324 311.052 105.099 309.838 105.108 308.614C105.108 308.29 105.108 307.976 105.108 307.647C105.087 307.293 105.04 306.941 104.968 306.593C104.821 306.195 104.839 305.755 105.016 305.37C105.703 304.118 107.361 303.867 108.637 303.77C111.593 303.547 114.567 303.766 117.459 304.418C117.686 305.53 117.943 306.632 118.213 307.734C118.413 308.543 118.626 309.349 118.851 310.151C119.003 310.648 119.125 311.153 119.219 311.664C119.338 312.303 119.295 312.961 119.093 313.579Z" fill="#464353"/>
<path opacity="0.06" d="M119.093 313.579C119.06 313.716 118.982 313.839 118.871 313.927C118.753 313.988 118.621 314.016 118.489 314.009C116.768 314.047 115.047 314.009 113.331 314.13C111.707 314.27 110.078 314.613 108.458 314.429C107.94 314.448 107.429 314.304 106.996 314.019C106.563 313.735 106.229 313.322 106.041 312.839C105.939 312.628 105.849 312.412 105.771 312.191H106.389C108.424 312.191 110.464 312.119 112.5 312.119C113.114 312.119 113.732 312.09 114.341 312.017C114.95 311.945 115.448 311.843 116.004 311.775C116.837 311.696 117.672 311.662 118.508 311.674H119.195C119.321 312.307 119.286 312.962 119.093 313.579Z" fill="black"/>
<path d="M154.696 304.601C154.157 305.231 153.469 305.714 152.694 306.008C149.253 307.458 145.274 306.806 141.721 305.626C140.926 305.331 140.11 305.097 139.28 304.925C138.522 304.819 137.758 304.766 136.993 304.766C136.447 304.766 135.901 304.722 135.355 304.688C133.972 304.601 132.594 304.466 131.221 304.331C130.264 304.261 129.314 304.117 128.379 303.901C128.113 303.832 127.858 303.728 127.62 303.591V303.591C127.417 303.502 127.244 303.357 127.121 303.173C126.997 302.989 126.929 302.773 126.924 302.552C126.963 301.938 127.601 301.585 128.161 301.319C133.136 299.168 138.54 298.235 143.906 297.486C144.452 297.395 144.983 297.232 145.487 297.002C146.091 296.761 146.154 297.157 146.454 297.602C146.595 297.808 146.757 297.999 146.937 298.172C147.52 298.698 148.204 299.1 148.948 299.352C150.253 299.835 151.65 299.966 152.955 300.425C153.35 300.562 153.728 300.743 154.082 300.966C154.394 301.136 154.663 301.375 154.869 301.665C155.074 301.955 155.21 302.289 155.267 302.639C155.324 302.99 155.3 303.349 155.197 303.689C155.094 304.03 154.914 304.342 154.672 304.601H154.696Z" fill="#464353"/>
<path opacity="0.06" d="M154.696 304.602C154.157 305.231 153.469 305.714 152.694 306.008C149.253 307.459 145.274 306.806 141.721 305.626C140.926 305.331 140.11 305.097 139.28 304.925C138.522 304.819 137.758 304.766 136.993 304.766C136.447 304.766 135.901 304.722 135.354 304.689C135.799 304.268 136.254 303.857 136.718 303.461C137.054 303.146 137.441 302.891 137.863 302.707C138.389 302.534 138.949 302.496 139.492 302.595C142.258 302.977 144.742 304.916 147.532 304.747C148.831 304.597 150.088 304.191 151.23 303.553C152.158 303.174 152.986 302.585 153.647 301.832C153.846 301.572 153.998 301.279 154.096 300.966C154.408 301.136 154.678 301.375 154.883 301.665C155.089 301.955 155.225 302.289 155.282 302.639C155.339 302.99 155.315 303.349 155.211 303.69C155.108 304.03 154.928 304.342 154.686 304.602H154.696Z" fill="black"/>
<path d="M153.724 220.59C153.241 221.557 152.622 222.606 151.578 222.905C150.06 223.34 148.6 221.977 147.938 220.546C147.035 218.446 146.865 216.103 147.455 213.894C147.73 212.778 148.151 211.705 148.388 210.583C148.558 209.639 148.662 208.685 148.697 207.726C148.84 206.297 148.806 204.855 148.595 203.433C147.817 199.281 144.245 196.182 143.055 192.102C142.456 190.067 142.485 187.902 142.519 185.779C142.508 185.243 142.563 184.707 142.683 184.184C142.719 184.042 142.768 183.902 142.828 183.768C143.626 181.999 145.99 181.757 147.633 180.728C148.542 180.162 150.606 178.34 151.37 180.003C151.535 180.373 151.658 180.76 151.738 181.158C152.052 182.637 151.926 184.373 152.003 185.77C152.298 191.049 153.613 196.318 153.004 201.568C152.859 202.462 152.788 203.368 152.791 204.275C152.922 206.547 154.343 208.514 154.996 210.689C156.001 213.962 155.194 217.525 153.724 220.59Z" fill="#FBBEBE"/>
<path opacity="0.1" d="M151.761 181.168C151.402 181.037 151.009 181.037 150.649 181.168L147.377 182.134C146.23 182.44 145.112 182.846 144.036 183.348C143.567 183.578 143.121 183.855 142.707 184.174C142.743 184.032 142.792 183.893 142.852 183.759C143.65 181.989 146.014 181.748 147.657 180.718C148.566 180.152 150.63 178.33 151.394 179.993C151.56 180.369 151.683 180.764 151.761 181.168V181.168Z" fill="black"/>
<path d="M151.974 180.8C151.777 180.68 151.554 180.608 151.325 180.59C151.095 180.571 150.863 180.607 150.65 180.694L147.377 181.661C146.23 181.967 145.112 182.373 144.037 182.874C143.466 183.152 142.931 183.499 142.446 183.909C140.919 181.255 140.513 178.108 140.232 175.062C140.077 173.288 139.961 171.509 139.894 169.745C139.818 168.475 139.844 167.201 139.971 165.935C140.155 164.485 140.575 163.069 140.836 161.628C140.992 160.785 141.092 159.932 141.136 159.076C141.261 157.205 141.176 155.325 140.88 153.473C140.599 151.505 140.149 149.564 139.536 147.672C139.227 146.807 138.854 145.971 138.516 145.12L138.4 144.82C137.789 143.261 137.29 141.66 136.906 140.029C136.752 139.362 136.742 138.661 136.229 138.207C136.711 138.149 137.196 138.13 137.68 138.149C137.776 138.149 137.873 138.149 137.97 138.149C139.956 138.274 141.869 138.943 143.5 140.083C145.601 141.598 147.197 143.71 148.083 146.145C149.103 148.866 149.272 151.825 149.402 154.73C149.663 160.441 149.825 166.155 149.886 171.872C149.886 172.969 149.934 174.139 150.563 175.043C150.739 175.266 150.9 175.5 151.046 175.744C151.273 176.227 151.239 176.764 151.423 177.252C151.558 177.545 151.711 177.829 151.882 178.103C152.099 178.517 152.219 178.974 152.235 179.441C152.251 179.908 152.162 180.372 151.974 180.8Z" fill="#464353"/>
<path d="M119.799 124.058C119.315 123.898 118.832 123.729 118.349 123.574L119.354 123.651C119.522 123.764 119.672 123.901 119.799 124.058Z" fill="#FBBEBE"/>
<path d="M139.594 141.504C139.497 141.832 139.401 142.161 139.294 142.471C139.049 143.265 138.75 144.042 138.4 144.796C137.852 146.035 137.077 147.159 136.114 148.112C135.796 148.447 135.405 148.705 134.973 148.866C134.607 148.96 134.228 148.996 133.851 148.972C132.562 148.972 131.273 148.953 129.984 148.914C128.98 148.926 127.979 148.827 126.997 148.62C125.916 148.325 124.888 147.861 123.951 147.247C120.34 145.013 117.372 141.61 116.1 137.578C115.941 137.066 115.83 136.452 116.183 136.051C116.53 135.768 116.967 135.618 117.415 135.63H117.473C118.513 135.495 119.514 135.151 120.417 134.62C121.002 134.32 121.474 133.839 121.761 133.247C121.957 132.546 121.942 131.803 121.718 131.11L120.645 126.238C120.533 125.457 120.24 124.714 119.789 124.067C120.103 124.178 120.417 124.28 120.756 124.367C123.743 125.174 127.011 124.686 129.94 125.745C131.062 126.155 132.183 126.895 132.522 128.046C133.087 129.979 131.197 131.985 131.739 133.919C132.101 135.234 133.44 135.993 134.639 136.607L135.447 137.018L137.685 138.154L137.994 138.308L138.042 138.333C138.748 138.69 139.493 139.135 139.739 139.894C139.844 140.433 139.794 140.992 139.594 141.504V141.504Z" fill="#FBBEBE"/>
<path opacity="0.1" d="M145.492 152.854C145.41 154.09 145.109 155.301 144.602 156.432C143.632 158.386 143.112 160.534 143.08 162.716C142.707 169.242 140.227 177.01 143.781 182.492C143.868 182.628 143.955 182.763 144.037 182.903C143.466 183.181 142.932 183.528 142.446 183.938C140.919 181.284 140.513 178.137 140.232 175.091C140.078 173.317 139.962 171.538 139.894 169.774C139.818 168.504 139.844 167.23 139.971 165.964C140.155 164.514 140.575 163.098 140.837 161.657C140.992 160.814 141.092 159.961 141.136 159.105C141.262 157.234 141.176 155.354 140.88 153.502C140.599 151.534 140.149 149.593 139.536 147.701C139.227 146.836 138.855 146 138.516 145.149L138.4 144.849C137.852 146.088 137.077 147.213 136.114 148.165C135.796 148.5 135.405 148.758 134.973 148.919C134.607 149.013 134.228 149.049 133.851 149.026C132.562 149.026 131.273 149.006 129.984 148.968C128.98 148.979 127.979 148.88 126.997 148.673C125.916 148.378 124.888 147.915 123.951 147.3C120.34 145.067 117.372 141.663 116.1 137.632C115.941 137.119 115.83 136.505 116.183 136.104C116.53 135.821 116.967 135.672 117.415 135.684H117.473L121.824 141.064C122.323 141.633 122.746 142.266 123.081 142.944C123.146 143.172 123.281 143.374 123.468 143.52C123.619 143.589 123.785 143.619 123.951 143.607C128.036 143.607 133.479 143.607 137.564 143.607C137.577 142.883 137.368 142.173 136.964 141.572C136.839 141.601 136.67 141.61 136.931 141.533C136.694 139.964 136.187 138.447 135.432 137.052C135.387 136.956 135.337 136.862 135.282 136.771C134.958 136.293 134.716 135.764 134.567 135.205C135.082 135.041 135.637 135.041 136.152 135.205C136.747 135.461 137.056 136.104 137.317 136.699C137.54 137.182 137.762 137.699 137.96 138.207C137.96 138.26 138.009 138.318 138.028 138.371C138.45 139.372 138.72 140.429 138.83 141.509C138.859 141.905 138.956 142.408 139.285 142.538C139.336 142.562 139.392 142.575 139.449 142.577C139.789 142.453 140.159 142.432 140.511 142.518C140.863 142.604 141.182 142.793 141.426 143.061C141.902 143.605 142.234 144.26 142.393 144.965C142.55 145.67 142.78 146.357 143.08 147.015C143.703 148.204 142.751 148.736 143.877 149.466C144.404 149.755 144.857 150.162 145.202 150.655C145.52 151.341 145.622 152.109 145.492 152.854V152.854Z" fill="black"/>
<path opacity="0.1" d="M117.415 304.437C117.642 305.549 117.899 306.651 118.169 307.754L118.14 307.821C115.931 306.854 113.669 305.844 111.257 305.631C109.018 305.438 106.587 306.042 105.064 307.666C105.043 307.312 104.996 306.96 104.924 306.613C104.777 306.215 104.795 305.775 104.972 305.39C105.659 304.138 107.317 303.886 108.593 303.79C111.55 303.567 114.523 303.785 117.415 304.437Z" fill="black"/>
<path opacity="0.1" d="M136.457 142.456C136.684 142.456 136.602 142.456 136.49 142.495C136.379 142.533 136.196 142.533 136.457 142.456Z" fill="black"/>
<path opacity="0.1" d="M146.961 298.172C144.805 299.546 142.78 301.114 140.909 302.856C140.366 303.438 139.718 303.912 138.999 304.253C138.257 304.492 137.474 304.573 136.698 304.49C133.657 304.367 130.626 304.067 127.62 303.591V303.591C127.417 303.502 127.244 303.357 127.121 303.173C126.997 302.989 126.929 302.773 126.924 302.552C126.963 301.938 127.601 301.585 128.161 301.319C133.136 299.168 138.54 298.235 143.906 297.486C144.452 297.395 144.983 297.232 145.487 297.002C146.091 296.761 146.154 297.157 146.454 297.602C146.603 297.809 146.773 298 146.961 298.172V298.172Z" fill="black"/>
<path d="M111.494 136.849C112.204 137.482 113.017 137.994 113.737 138.608C115.671 140.247 116.889 142.538 118.088 144.772C117.377 145.029 116.608 145.081 115.869 144.922C115.489 147.066 115.553 149.266 116.057 151.385C115.09 152.048 114.339 152.981 113.896 154.068C113.553 155.17 113.316 156.303 113.191 157.452C112.494 162.482 111.795 167.513 111.093 172.544C111.078 173.036 110.909 173.511 110.609 173.902C110.475 174.01 110.352 174.132 110.242 174.265C110.094 174.59 110.035 174.949 110.073 175.304C110.044 175.657 109.812 176.077 109.459 176.029C109.287 175.988 109.135 175.889 109.028 175.749C108.675 175.375 108.352 174.974 108.062 174.55C105.21 180.022 103.837 185.92 102.328 191.904C101.25 196.168 100.172 200.48 100.119 204.879C100.134 206.96 100.264 209.039 100.511 211.105L100.936 215.35C101.279 218.762 101.623 222.18 101.995 225.593C102.237 227.759 102.478 229.944 103.257 231.984C104.417 235.082 103.131 238.577 103.624 241.855C104.011 244.422 104.779 247.076 104.006 249.551C103.696 250.542 103.155 251.446 102.749 252.403C101.753 254.781 101.652 257.426 101.565 260.002C101.408 262.261 101.492 264.529 101.816 266.77C102.232 269.085 103.165 271.353 102.981 273.692C102.725 277.023 100.269 279.87 99.9693 283.196C99.7325 285.85 100.897 288.412 102.15 290.766C103.073 292.502 101.787 294.745 101.299 296.654C100.332 300.396 101.942 304.312 103.914 307.633C103.964 307.747 104.053 307.839 104.165 307.894C104.393 307.976 104.596 307.753 104.745 307.565C106.23 305.66 108.859 304.94 111.271 305.148C113.684 305.356 115.941 306.352 118.155 307.338L121.293 300.352C121.824 299.168 122.366 297.887 122.1 296.616C121.911 295.707 121.326 294.938 120.911 294.107C119.944 292.144 119.896 289.858 119.886 287.658L119.828 275.234C122.274 272.16 123.768 268.505 124.71 264.686C126.156 270.058 126.256 275.703 125 281.122C124.768 281.942 124.606 282.779 124.517 283.626C124.328 287.073 127.031 289.988 127.751 293.362C127.821 293.62 127.84 293.89 127.809 294.155C127.728 294.482 127.592 294.792 127.408 295.074C126.112 297.423 126.252 300.27 126.441 302.948C129.831 303.538 133.256 303.905 136.694 304.046C137.469 304.123 138.252 304.042 138.995 303.809C139.714 303.465 140.362 302.99 140.905 302.407C143.099 300.342 145.509 298.519 148.093 296.969C146.65 294.575 144.631 292.58 142.219 291.168C142.998 290.022 144.772 290.114 145.806 289.195C146.326 288.681 146.665 288.013 146.773 287.291C147.16 285.396 146.681 283.423 146.203 281.562C145.275 277.898 144.342 274.219 142.819 270.758C142.13 269.336 141.523 267.875 141.001 266.383C139.735 262.216 140.619 257.682 139.662 253.423C139.353 252.06 138.855 250.653 139.203 249.295C139.735 247.201 142.103 245.959 142.625 243.861C144.496 236.392 144.83 228.653 145.893 221.03C146.131 219.573 146.259 218.101 146.275 216.626C146.275 215.084 146 213.556 145.888 212.019C145.453 205.865 147.421 199.726 146.918 193.577C146.596 189.787 145.348 186.135 143.283 182.942C139.73 177.455 142.21 169.691 142.582 163.165C142.61 160.983 143.129 158.835 144.1 156.881C144.61 155.752 144.913 154.54 144.994 153.304C145.143 152.542 145.049 151.752 144.723 151.046C144.383 150.552 143.931 150.144 143.404 149.857C142.277 149.122 143.23 148.591 142.606 147.401C142.306 146.744 142.076 146.057 141.92 145.352C141.761 144.648 141.429 143.994 140.953 143.452C140.708 143.184 140.39 142.996 140.038 142.909C139.686 142.823 139.316 142.844 138.976 142.969C138.516 142.969 138.391 142.359 138.352 141.9C138.222 140.218 137.525 138.637 136.844 137.09C136.583 136.496 136.273 135.853 135.679 135.597C135.161 135.435 134.606 135.435 134.088 135.597C134.238 136.157 134.482 136.688 134.809 137.168C135.647 138.638 136.204 140.251 136.452 141.924C135.969 142.069 136.936 141.924 136.452 141.924C136.885 142.527 137.108 143.256 137.086 143.998C133.006 143.998 127.562 143.998 123.478 143.998C123.312 144.011 123.145 143.981 122.994 143.911C122.808 143.764 122.671 143.563 122.603 143.336C122.27 142.657 121.847 142.026 121.346 141.46L116.56 135.558C116.454 135.404 116.313 135.276 116.149 135.186C115.952 135.13 115.742 135.13 115.545 135.186C113.993 135.413 112.847 136.061 111.494 136.849Z" fill="#B952FF"/>
<path opacity="0.1" d="M128.67 216.824C129.495 216.813 130.308 217.023 131.024 217.433C131.379 217.642 131.674 217.94 131.879 218.298C132.085 218.656 132.193 219.061 132.194 219.473C132.141 220.387 131.44 221.112 130.932 221.89C130.618 222.364 130.368 222.878 130.188 223.418C130.132 223.54 130.119 223.678 130.149 223.809C130.207 223.993 130.405 224.085 130.575 224.167C131.19 224.445 131.715 224.889 132.091 225.449C132.468 226.01 132.681 226.664 132.706 227.338C132.663 229.223 130.821 230.751 130.923 232.656C130.969 233.052 131.036 233.446 131.126 233.835C131.347 235.458 131.121 237.111 130.473 238.616C129.888 240.134 129.09 241.56 128.462 243.063C126.765 247.148 126.398 251.673 126.528 256.115C126.63 259.132 125.562 262.003 124.595 264.875C125.141 259.091 125.286 253.276 125.03 247.472C124.962 245.896 124.764 244.407 124.836 242.827C124.952 240.318 126.354 238.036 126.712 235.575C126.915 234.169 126.78 232.738 126.814 231.317C126.881 228.416 127.669 225.554 127.722 222.644C127.79 220.59 127.602 218.472 128.67 216.824Z" fill="black"/>
<path d="M108.496 137.883C107.535 138.362 106.636 138.956 105.818 139.652C104.964 140.501 104.249 141.48 103.701 142.553C103.033 143.769 102.435 145.021 101.907 146.304C101.226 147.967 100.66 149.809 101.129 151.544C101.555 153.115 102.758 154.338 103.59 155.735C104.421 157.132 104.909 158.771 105.548 160.304C106.398 162.348 107.563 164.253 108.405 166.303C109.246 168.352 109.753 170.653 109.221 172.785C109.067 173.414 108.047 173.902 108.047 174.545C108.047 175.608 109.584 176.764 110.604 177.073C111.779 177.436 113.06 176.894 114.022 176.106C115.786 174.709 116.859 172.616 117.652 170.508C118.928 167.125 119.61 163.533 120.224 159.965C120.669 157.345 121.084 154.72 121.321 152.081C121.539 149.702 121.606 147.247 120.978 144.965C120.392 142.871 119.251 140.974 117.676 139.473C116.419 138.265 114.36 136.641 112.533 136.597C111.087 136.592 109.734 137.201 108.496 137.883Z" fill="#464353"/>
<path d="M122.24 196.158C122.187 196.488 122.064 196.804 121.878 197.081C121.692 197.359 121.447 197.594 121.162 197.768C120.591 198.115 119.97 198.369 119.32 198.522C118.024 198.899 116.652 199.247 115.342 198.914C114.312 198.578 113.361 198.037 112.547 197.323L97.9098 186.118C96.7339 185.284 95.6527 184.325 94.6854 183.256C94.1301 182.566 93.6199 181.841 93.1579 181.085C92.5461 180.22 92.0671 179.269 91.7366 178.262C91.6186 177.819 91.5601 177.362 91.5626 176.904C91.5587 176.47 91.6652 176.043 91.872 175.662C92.2249 175.072 92.979 174.951 93.5978 174.787C95.6745 174.25 97.8302 174.086 99.9643 174.303C100.152 174.294 100.337 174.346 100.492 174.452C100.647 174.557 100.764 174.71 100.825 174.888C101.149 175.483 101.429 176.101 101.719 176.72C102.164 177.775 102.744 178.768 103.445 179.674C104.12 180.408 104.838 181.1 105.596 181.748C107.143 183.198 108.409 184.938 110.058 186.272C111.967 187.814 114.288 188.738 116.463 189.874C118.638 191.01 120.785 192.484 121.877 194.684C122.131 195.133 122.256 195.643 122.24 196.158Z" fill="#FBBEBE"/>
<path opacity="0.1" d="M139.184 117.981C139.184 121.033 138.019 123.97 135.926 126.191C133.833 128.413 130.97 129.751 127.924 129.932C124.877 130.112 121.876 129.123 119.535 127.164C117.194 125.206 115.69 122.428 115.329 119.397C114.968 116.367 115.779 113.313 117.596 110.86C119.412 108.407 122.097 106.741 125.101 106.202C128.105 105.663 131.201 106.292 133.757 107.96C136.313 109.629 138.135 112.21 138.85 115.177C139.072 116.095 139.184 117.037 139.184 117.981V117.981Z" fill="black"/>
<path d="M139.184 117.498C139.184 120.55 138.019 123.487 135.926 125.708C133.833 127.929 130.97 129.267 127.924 129.448C124.877 129.629 121.876 128.639 119.535 126.681C117.194 124.723 115.69 121.945 115.329 118.914C114.968 115.883 115.779 112.829 117.596 110.377C119.412 107.924 122.097 106.258 125.101 105.719C128.105 105.18 131.201 105.809 133.757 107.477C136.313 109.145 138.135 111.727 138.85 114.694C139.072 115.612 139.184 116.553 139.184 117.498V117.498Z" fill="#FBBEBE"/>
<path opacity="0.1" d="M101.719 176.701C101.168 177.054 100.351 176.938 99.6694 176.783C96.9816 176.184 94.0135 175.753 91.5626 176.904C91.5587 176.47 91.6652 176.043 91.872 175.662C92.2249 175.072 92.979 174.951 93.5978 174.787C95.6745 174.25 97.8302 174.086 99.9643 174.303C100.152 174.294 100.337 174.346 100.492 174.452C100.647 174.557 100.764 174.71 100.825 174.888C101.149 175.463 101.429 176.082 101.719 176.701Z" fill="black"/>
<path d="M96.6674 160.425C96.0728 162.358 95.5845 164.345 94.4195 165.984C94.0344 166.415 93.7444 166.922 93.5687 167.473C93.5555 167.879 93.4888 168.282 93.3705 168.672C93.2062 169 92.8581 169.218 92.7179 169.556C92.51 170.04 92.7807 170.663 92.5052 171.118C92.3762 171.3 92.2215 171.463 92.046 171.601C91.3885 172.21 91.2242 173.182 91.2097 174.081C91.1952 174.98 91.2822 175.899 90.9873 176.744C93.5397 175.222 96.7882 175.676 99.6887 176.324C100.496 176.503 101.497 176.638 102.019 175.99C102.541 175.343 102.241 174.492 102.314 173.713C102.41 172.698 103.106 171.857 103.537 170.934C104.02 169.895 104.184 168.734 104.557 167.652C105.325 165.375 106.974 163.518 108.032 161.367C108.424 160.627 108.658 159.814 108.719 158.979C108.682 157.897 108.4 156.837 107.892 155.881C106.886 153.653 105.689 151.516 104.315 149.495C103.701 148.591 102.642 146.918 101.69 148.363C100.917 149.528 100.433 151.013 99.8627 152.289C98.6335 154.933 97.5664 157.65 96.6674 160.425Z" fill="#464353"/>
<path d="M140.285 141.659C138.834 141.759 137.378 141.533 136.025 140.999C134.672 140.464 133.455 139.634 132.464 138.57C132.297 138.418 132.176 138.222 132.116 138.004C132.088 137.721 132.167 137.438 132.338 137.211C132.918 136.317 133.919 135.727 134.383 134.765C134.847 133.803 134.687 132.696 134.731 131.642C134.808 129.752 135.553 127.881 135.616 126.02C135.638 125.544 135.602 125.067 135.509 124.599C135.287 123.904 135.15 123.185 135.103 122.458C135.166 121.041 136.442 119.939 136.655 118.542C136.931 116.763 135.456 115.216 133.972 114.191C132.84 113.406 131.612 112.771 130.317 112.301C129.522 112.016 128.699 111.817 127.862 111.706C126.301 111.496 124.712 111.673 123.236 112.224C122.625 112.454 122.046 112.763 121.515 113.142C121.198 113.342 120.934 113.616 120.746 113.94C120.591 114.304 120.522 114.7 120.543 115.095C120.514 117.072 120.736 119.175 119.794 120.896C119.31 121.819 118.488 122.569 118.087 123.545C117.923 123.951 117.82 124.38 117.783 124.817C117.734 125.269 117.71 125.724 117.71 126.18C117.681 128.727 117.71 131.415 119.006 133.624C119.463 134.292 119.878 134.988 120.248 135.708C120.428 136.072 120.511 136.476 120.49 136.881C120.468 137.287 120.344 137.68 120.127 138.023C119.865 138.337 119.534 138.585 119.16 138.748C118.201 139.209 117.156 139.466 116.092 139.505C115.028 139.543 113.968 139.361 112.978 138.971C114.136 137.873 114.931 136.448 115.258 134.887C115.584 133.325 115.426 131.7 114.805 130.231C114.456 129.637 114.229 128.98 114.138 128.297C114.186 127.682 114.35 127.082 114.621 126.528C115.284 124.711 115.386 122.738 114.916 120.862C114.621 119.712 114.109 118.6 114.017 117.416C113.94 116.522 113.979 115.621 114.133 114.737C114.398 113.156 115.095 111.678 116.146 110.468C117.198 109.257 118.564 108.361 120.093 107.878C120.34 107.796 120.577 107.718 120.847 107.651C122.02 107.39 123.219 107.262 124.42 107.269C127.103 107.182 129.824 107.104 132.411 107.805C133.929 108.203 135.342 108.929 136.549 109.932C137.405 110.653 138.089 111.556 138.55 112.577C138.802 113.164 138.991 113.777 139.116 114.404C139.227 114.921 139.309 115.443 139.391 115.965C139.976 119.683 140.561 123.473 139.937 127.185C139.691 128.635 139.261 130.086 139.067 131.565C138.598 134.973 139.444 138.362 140.285 141.659Z" fill="#464353"/>
<path d="M123.11 146.435C123.607 146.435 124.009 146.032 124.009 145.535C124.009 145.039 123.607 144.636 123.11 144.636C122.613 144.636 122.211 145.039 122.211 145.535C122.211 146.032 122.613 146.435 123.11 146.435Z" fill="white"/>
<path d="M138.284 146.009C138.78 146.009 139.183 145.607 139.183 145.11C139.183 144.613 138.78 144.211 138.284 144.211C137.787 144.211 137.385 144.613 137.385 145.11C137.385 145.607 137.787 146.009 138.284 146.009Z" fill="white"/>
<path opacity="0.1" d="M123.11 100.095L121.177 96.4452C121.299 96.2992 121.434 96.1634 121.578 96.0391C121.857 95.8671 122.184 95.7891 122.511 95.8167L123.11 100.095Z" fill="black"/>
<path opacity="0.1" d="M128.442 95.6476L126.252 98.8865L125.005 95.3334C125.537 95.1048 126.113 94.9958 126.692 95.0143C127.306 95.1265 127.898 95.3405 128.442 95.6476V95.6476Z" fill="black"/>
<g opacity="0.1">
<path opacity="0.1" d="M120.127 137.066C119.865 137.379 119.534 137.628 119.16 137.791C117.446 138.611 115.491 138.775 113.664 138.25C113.452 138.509 113.222 138.753 112.978 138.98C113.968 139.371 115.028 139.553 116.092 139.514C117.156 139.476 118.201 139.219 119.16 138.758C119.534 138.595 119.865 138.346 120.127 138.033C120.293 137.792 120.407 137.518 120.46 137.23C120.514 136.941 120.506 136.645 120.437 136.36C120.388 136.616 120.282 136.857 120.127 137.066Z" fill="black"/>
<path opacity="0.1" d="M114.882 120.877C115.039 121.51 115.132 122.158 115.157 122.81C115.213 121.835 115.12 120.857 114.882 119.91C114.587 118.759 114.074 117.648 113.982 116.463C113.982 116.313 113.982 116.163 113.958 116.009C113.935 116.483 113.943 116.957 113.982 117.43C114.074 118.614 114.587 119.726 114.882 120.877Z" fill="black"/>
<path opacity="0.1" d="M139.903 127.2C140.108 125.921 140.196 124.627 140.164 123.332C140.147 124.304 140.06 125.274 139.903 126.233C139.657 127.683 139.226 129.133 139.033 130.613C138.933 131.406 138.896 132.206 138.922 133.005C138.935 132.529 138.972 132.053 139.033 131.579C139.226 130.1 139.657 128.664 139.903 127.2Z" fill="black"/>
<path opacity="0.1" d="M114.785 129.274C114.532 128.798 114.328 128.297 114.176 127.78C114.135 127.954 114.116 128.133 114.118 128.312C114.209 128.994 114.436 129.652 114.785 130.245C115.14 131.056 115.345 131.924 115.39 132.807C115.477 131.598 115.27 130.385 114.785 129.274V129.274Z" fill="black"/>
<path opacity="0.1" d="M135.509 124.58C135.552 124.8 135.583 125.023 135.601 125.247C135.601 125.174 135.601 125.107 135.601 125.034C135.624 124.558 135.588 124.081 135.495 123.613C135.389 123.105 135.215 122.603 135.132 122.09C135.108 122.205 135.094 122.321 135.089 122.438C135.141 123.167 135.282 123.886 135.509 124.58V124.58Z" fill="black"/>
<path opacity="0.1" d="M132.464 137.583C132.39 137.506 132.32 137.423 132.256 137.337C132.137 137.531 132.088 137.759 132.116 137.985C132.177 138.202 132.297 138.398 132.464 138.55C133.456 139.615 134.672 140.445 136.026 140.979C137.379 141.514 138.834 141.739 140.286 141.639C140.204 141.32 140.121 141.006 140.044 140.672C138.632 140.737 137.223 140.495 135.914 139.961C134.606 139.428 133.428 138.617 132.464 137.583V137.583Z" fill="black"/>
<path opacity="0.1" d="M136.645 117.623C136.643 117.606 136.643 117.588 136.645 117.57C136.921 115.791 135.446 114.244 133.962 113.219C132.831 112.435 131.602 111.799 130.308 111.329C129.512 111.045 128.689 110.845 127.852 110.735C126.291 110.524 124.702 110.701 123.226 111.252C122.615 111.483 122.036 111.791 121.505 112.17C121.188 112.371 120.924 112.644 120.736 112.968C120.581 113.333 120.512 113.728 120.533 114.123C120.533 114.457 120.533 114.791 120.533 115.129V115.09C120.512 114.695 120.581 114.299 120.736 113.935C120.924 113.611 121.188 113.338 121.505 113.137C122.036 112.758 122.615 112.449 123.226 112.219C124.702 111.668 126.291 111.491 127.852 111.702C128.689 111.812 129.512 112.011 130.308 112.296C131.602 112.766 132.831 113.401 133.962 114.186C135.195 115.018 136.408 116.217 136.645 117.623Z" fill="black"/>
<path opacity="0.1" d="M119.793 119.939C119.31 120.862 118.488 121.612 118.087 122.588C117.923 122.994 117.82 123.423 117.782 123.859C117.734 124.312 117.71 124.767 117.71 125.223C117.71 125.633 117.71 126.049 117.71 126.465C117.71 126.373 117.71 126.281 117.71 126.189C117.71 125.734 117.734 125.279 117.782 124.826C117.82 124.39 117.923 123.961 118.087 123.555C118.488 122.588 119.291 121.829 119.793 120.906C120.572 119.456 120.557 117.788 120.543 116.13C120.607 117.441 120.35 118.749 119.793 119.939V119.939Z" fill="black"/>
</g>
<path opacity="0.1" d="M139.082 114.438C139.016 114.532 138.938 114.618 138.85 114.694C138.68 114.834 138.489 114.948 138.285 115.032C136.878 115.641 136.936 113.655 136.201 112.973C135.73 112.625 135.152 112.454 134.567 112.49C133.152 112.419 131.736 112.356 130.318 112.301C127.954 112.214 125.595 112.17 123.236 112.224C122.105 112.243 120.977 112.29 119.852 112.364C118.547 112.451 117.145 112.62 116.033 113.239C115.653 113.448 115.308 113.718 115.013 114.036C114.747 114.326 114.467 114.694 114.1 114.762C114.365 113.18 115.061 111.702 116.113 110.492C117.165 109.281 118.531 108.385 120.06 107.902C122.536 106.058 125.628 105.242 128.691 105.625C131.754 106.008 134.55 107.56 136.496 109.956C137.353 110.677 138.037 111.58 138.497 112.601C138.756 113.191 138.952 113.807 139.082 114.438V114.438Z" fill="black"/>
<path d="M138.284 114.065C136.877 114.675 136.935 112.688 136.201 112.006C135.729 111.659 135.151 111.487 134.567 111.523C129.668 111.201 124.755 111.159 119.852 111.397C118.107 111.513 116.192 111.774 115.018 113.07C114.718 113.398 114.404 113.824 113.954 113.809C113.804 112.842 113.698 111.837 113.625 110.846C113.581 110.475 113.601 110.099 113.683 109.734C113.804 109.318 114.08 108.965 114.22 108.559C114.358 108.043 114.407 107.507 114.365 106.974C114.386 105.002 114.916 103.068 115.904 101.361C116.891 99.6536 118.303 98.2301 120.001 97.2283C120.428 97.0197 120.823 96.7529 121.176 96.4355C121.299 96.2895 121.433 96.1537 121.577 96.0294C121.857 95.8574 122.184 95.7794 122.51 95.807C122.742 95.807 122.994 95.807 123.197 95.807C123.822 95.7382 124.433 95.5752 125.01 95.3236C125.542 95.095 126.118 94.9861 126.697 95.0046C127.311 95.1167 127.903 95.3308 128.447 95.6378C128.708 95.7639 128.982 95.8627 129.264 95.9327C129.704 96.0342 130.158 96.0294 130.598 96.1164C131.31 96.2978 131.987 96.5985 132.599 97.0059C133.33 97.3998 134.006 97.8874 134.61 98.4561C135.267 99.2072 135.794 100.064 136.167 100.989C136.807 102.268 137.294 103.618 137.617 105.011C138.008 107.012 137.815 109.178 138.743 110.996C139.309 112.137 139.826 113.403 138.284 114.065Z" fill="#C78BF1"/>
<path opacity="0.1" d="M113.78 112.548C113.78 112.548 123.801 103.43 138.724 110.991C138.724 110.991 121.877 107.158 113.78 112.548Z" fill="black"/>
<path d="M4.58799 159.134C3.22478 156.9 1.17512 154.856 1.49417 152.323C5.24543 152.753 8.80333 151.839 12.2404 150.249C15.6774 148.658 18.8679 146.594 22.0874 144.569C23.354 143.771 24.6157 142.988 25.8725 142.263C27.8642 141.122 29.8413 139.846 31.8668 138.729C34.7673 137.134 37.7258 135.829 40.9839 135.577C41.5741 135.531 42.1663 135.517 42.7581 135.534C46.7704 135.611 50.9277 136.689 54.4566 134.891L54.6741 134.775C56.6754 133.677 58.1305 131.811 59.8466 130.298C61.0804 129.231 62.4237 128.298 63.8541 127.514C66.4597 126.064 69.2828 124.904 71.9464 123.535C72.6282 123.184 73.2755 122.77 73.88 122.298L74.3344 121.935L74.4359 121.848C74.5471 121.757 74.6583 121.665 74.7646 121.568L74.9725 121.384L75.1852 121.191L75.3496 121.036L75.6154 120.785L75.6444 120.751L76.065 120.335L76.2342 120.166L76.5291 119.862L76.7031 119.688C76.998 119.383 77.2929 119.074 77.5926 118.774C77.8923 118.474 78.2984 118.068 78.6609 117.735L79.009 117.425L79.1105 117.338L79.3909 117.106L79.5214 116.995L79.7969 116.782L79.9323 116.676C80.0676 116.574 80.2078 116.478 80.348 116.381C80.477 116.292 80.6128 116.212 80.7541 116.144L79.8501 113.954L82.4509 112.881L118.32 199.919L115.714 200.992L95.1984 151.201L95.0534 151.346C90.3008 156.036 84.4794 159.5 78.0905 161.44H78.0518C74.4794 162.518 70.4816 163.281 67.4748 165.283C66.4086 165.976 65.4821 166.863 64.7435 167.898C64.0378 168.904 63.5447 170.049 62.8099 171.016C62.6697 171.195 62.515 171.369 62.3603 171.533C61.4812 172.405 60.5085 173.176 59.4599 173.834L59.0006 174.149C55.8861 176.34 52.6413 178.34 49.2841 180.138C47.3468 181.146 45.3268 181.987 43.2463 182.652C41.7332 183.135 40.1718 183.488 38.6587 183.967C37.6409 184.275 36.6525 184.673 35.7051 185.156C33.143 186.495 31.1756 188.593 29.3144 190.831C27.6853 192.794 26.1384 194.872 24.3498 196.661C23.2283 197.773 21.5218 198.827 20.1683 198.174L19.8928 198.014C19.9363 197.942 19.9701 197.869 20.0088 197.792C21.0771 195.554 19.7622 192.789 17.993 190.995C17.8093 190.807 17.6207 190.623 17.4274 190.449C17.234 190.275 16.8859 189.966 16.6104 189.724C15.0973 188.424 13.4876 187.215 12.4386 185.538C11.6379 184.129 11.0945 182.588 10.8337 180.989C10.3502 178.712 10.0264 176.367 8.78882 174.429C7.9767 173.148 6.76817 172.055 5.88836 170.827C5.33222 170.101 4.96663 169.247 4.82486 168.343C4.62667 166.772 5.35661 165.234 5.63216 163.668C5.71413 163.241 5.74818 162.807 5.73367 162.373C5.63269 161.213 5.23844 160.099 4.58799 159.134V159.134Z" fill="url(#paint0_linear_1536_8216)"/>
<path d="M114.802 200.245L117.363 199.19L82.092 113.615L79.531 114.671L114.802 200.245Z" fill="#D6D8E1"/>
<path d="M9.65405 174.124C10.8674 176.034 11.1913 178.335 11.6602 180.573C11.9203 182.146 12.4554 183.662 13.241 185.049C14.2755 186.698 15.8562 187.887 17.3403 189.163C17.611 189.4 17.8817 189.647 18.1427 189.879C18.3313 190.048 18.5198 190.232 18.6987 190.41C20.4389 192.175 21.7296 194.896 20.6806 197.096C20.6484 197.171 20.6113 197.244 20.5695 197.314C20.6544 197.371 20.7432 197.423 20.8353 197.468C22.1695 198.116 23.847 197.081 24.9492 195.984C26.7088 194.225 28.2315 192.185 29.8316 190.256C31.6589 188.051 33.5974 185.987 36.1159 184.672C37.0457 184.196 38.0164 183.805 39.0164 183.503C40.5005 183.019 42.0377 182.676 43.5266 182.212C45.5717 181.558 47.5575 180.731 49.4629 179.742C52.7692 177.972 55.9655 176.004 59.0344 173.849L59.4888 173.539C60.5193 172.894 61.4758 172.137 62.3409 171.282C62.4956 171.118 62.6455 170.948 62.7857 170.769C63.5301 169.803 64.0184 168.696 64.7193 167.705C65.4463 166.687 66.358 165.814 67.4071 165.133C70.3655 163.165 74.2908 162.411 77.8052 161.353H77.8439C84.124 159.442 89.8469 156.037 94.5215 151.428C94.909 151.105 95.1986 150.679 95.3578 150.2C95.5077 149.519 95.1403 148.842 94.7874 148.243C94.3765 147.537 93.9753 146.831 93.5789 146.116C91.7961 142.871 90.2046 139.525 88.8125 136.094C88.5079 135.34 88.213 134.591 87.9278 133.832C87.1963 131.898 86.5292 129.937 85.9265 127.949C85.7283 127.292 85.5349 126.629 85.3512 125.967C85.3174 125.841 85.2787 125.706 85.2449 125.561C84.4424 122.337 83.3693 114.791 80.0627 117.048C79.0794 117.751 78.1649 118.546 77.3315 119.422C76.6885 120.074 76.0601 120.746 75.3978 121.394C74.8584 121.924 74.2886 122.423 73.6914 122.888C73.0853 123.352 72.4381 123.76 71.7578 124.106C69.1328 125.45 66.3581 126.576 63.8008 128.017C62.3926 128.786 61.0703 129.703 59.8562 130.753C58.1691 132.242 56.7382 134.079 54.7707 135.157L54.558 135.273C51.0871 137.037 47.0023 135.978 43.0529 135.901C42.4724 135.886 41.8916 135.901 41.3126 135.945C38.1076 136.186 35.1781 137.472 32.3453 139.043C30.3537 140.145 28.4104 141.393 26.4526 142.519C25.215 143.23 23.9775 143.998 22.7303 144.786C19.5688 146.778 16.3638 148.866 13.0621 150.374C9.67822 151.912 6.18317 152.83 2.49475 152.41C2.18053 154.899 4.19152 156.91 5.5354 159.105C6.18086 160.048 6.57213 161.142 6.67141 162.281C6.68918 162.707 6.65836 163.133 6.57956 163.552C6.30885 165.094 5.61274 166.602 5.78677 168.154C5.92395 169.039 6.28134 169.875 6.8261 170.586C7.66724 171.789 8.85159 172.867 9.65405 174.124Z" fill="#7C3BA8"/>
<path d="M107.936 184.194C107.936 184.194 112.171 187.887 116.463 189.854C120.756 191.822 117.914 198.88 117.914 198.88C117.914 198.88 113.365 199.924 110.179 195.496C106.993 191.068 107.936 184.194 107.936 184.194Z" fill="#FBBEBE"/>
<path d="M336.124 247.061C336.124 247.061 324.909 261.82 315.603 261.941C306.298 262.061 300.835 268.157 305.254 271.967C309.672 275.776 357.82 269.791 357.82 269.791C357.82 269.791 358.274 251.654 354.102 249.005C349.93 246.355 336.124 247.061 336.124 247.061Z" fill="#444176"/>
<path d="M456.711 264.778C456.711 264.778 458.428 276.467 453.125 284.439C447.822 292.41 462.706 295.484 462.706 295.484C462.706 295.484 473.52 298.496 474.308 287.813C475.096 277.129 474.839 268.96 473.824 268.09C472.809 267.219 471.963 261.211 471.963 261.211L456.711 264.778Z" fill="#444176"/>
<path d="M286.938 286.856C286.938 286.856 286.546 249.048 323.957 233.68L332.644 217.153L336.811 207.001C338.32 203.324 340.694 200.066 343.731 197.502C346.768 194.939 350.379 193.146 354.257 192.276L360.996 190.763L363.08 181.985C364.19 177.292 366.649 173.027 370.155 169.717C373.661 166.406 378.059 164.194 382.808 163.354C386.905 162.593 391.063 162.205 395.231 162.194C397.075 162.222 398.881 162.726 400.472 163.658C402.064 164.589 403.388 165.917 404.314 167.511V167.511C404.314 167.511 439.758 167.12 441.329 186.417C441.329 186.417 444.877 204.134 449.997 207.286C449.997 207.286 458.659 205.319 467.322 217.921L476.773 250.213C476.773 250.213 501.581 273.446 494.098 294.687C494.098 294.687 483.86 309.257 431.879 299.41C431.879 299.41 376.354 316.329 346.798 293.125C346.794 293.154 297.573 302.605 286.938 286.856Z" fill="#A8A8A8"/>
<path opacity="0.1" d="M311.746 280.948C311.746 280.948 319.626 269.922 319.229 262.042C318.833 254.163 321.086 234.971 321.086 234.971" stroke="black" stroke-miterlimit="10"/>
<path opacity="0.1" d="M340.495 251.412C340.495 251.412 348.37 236.842 347.582 228.967C347.582 228.967 355.853 213.981 362.152 215.18" stroke="black" stroke-miterlimit="10"/>
<path opacity="0.1" d="M383.813 210.061C383.813 210.061 405.47 202.186 406.655 195.887" stroke="black" stroke-miterlimit="10"/>
<path opacity="0.1" d="M391.688 228.179C391.688 228.179 414.529 217.941 414.529 215.18H425.942C425.942 215.18 442.484 236.842 440.517 246.293" stroke="black" stroke-miterlimit="10"/>
<path opacity="0.1" d="M418.469 243.929C418.469 243.929 396.416 242.353 388.536 248.657C380.657 254.96 366.483 258.107 366.483 258.107C366.483 258.107 358.212 275.829 355.06 278.976C351.908 282.123 346.789 293.154 346.789 293.154" stroke="black" stroke-miterlimit="10"/>
<path opacity="0.1" d="M418.469 264.802C418.469 264.802 420.828 273.069 423.98 277.797C427.131 282.524 431.854 299.453 431.854 299.453" stroke="black" stroke-miterlimit="10"/>
<path opacity="0.1" d="M455.483 288.823C455.483 288.823 460.482 302.731 464.876 302.866" stroke="black" stroke-miterlimit="10"/>
<path opacity="0.1" d="M422.742 229.127C422.742 229.127 435.727 232.636 441.155 241.139C446.584 249.643 463.165 257.353 463.165 257.353" stroke="black" stroke-miterlimit="10"/>
<path opacity="0.1" d="M428.311 187.234C428.311 187.234 428.311 205.348 433.43 205.348C438.549 205.348 449.972 207.315 449.972 207.315" stroke="black" stroke-miterlimit="10"/>
<path opacity="0.1" d="M403.222 165.723C403.222 165.723 401.912 197.014 395.217 205.116" stroke="black" stroke-miterlimit="10"/>
<g opacity="0.05">
<path opacity="0.05" d="M475.96 249.836L466.509 217.544C457.846 204.942 449.184 206.909 449.184 206.909C444.064 203.757 440.521 186.035 440.521 186.035C438.945 166.738 403.501 167.134 403.501 167.134C402.573 165.537 401.246 164.208 399.651 163.276C398.056 162.344 396.246 161.841 394.399 161.817C392.726 161.817 391.015 161.87 389.304 162.01C390.271 162.107 391.197 162.244 392.083 162.421L394.839 167.149C394.839 167.149 430.278 166.752 431.853 186.05C431.853 186.05 435.402 203.772 440.521 206.924C440.521 206.924 449.184 204.951 457.846 217.559L467.297 249.85C467.297 249.85 492.106 273.083 484.623 294.324C484.623 294.324 479.571 301.513 458.557 302.383C486.89 303.422 493.285 294.324 493.285 294.324C500.768 273.069 475.96 249.836 475.96 249.836Z" fill="black"/>
<path opacity="0.05" d="M337.342 292.758C329.006 294.258 320.577 295.18 312.113 295.518C321.98 295.895 332.242 294.827 338.856 293.918C338.343 293.527 337.84 293.149 337.342 292.758Z" fill="black"/>
<path opacity="0.05" d="M422.404 299.062C410.28 302.462 397.801 304.435 385.22 304.94C403.372 305.597 420.567 301.812 427.653 299.995C425.942 299.709 424.207 299.386 422.404 299.062Z" fill="black"/>
</g>
<path d="M107.728 360.484C107.728 360.484 118.561 360.15 121.824 357.825C125.087 355.5 138.482 352.725 139.294 356.452C140.106 360.179 155.571 374.991 143.34 375.092C131.11 375.194 114.93 373.188 111.672 371.201C108.414 369.214 107.728 360.484 107.728 360.484Z" fill="#A8A8A8"/>
<path opacity="0.2" d="M143.563 373.792C131.332 373.893 115.148 371.887 111.89 369.925C109.41 368.412 108.419 362.988 108.09 360.489H107.728C107.728 360.489 108.414 369.224 111.672 371.206C114.93 373.188 131.115 375.194 143.34 375.097C146.874 375.068 148.092 373.811 148.025 371.95C147.536 373.072 146.188 373.773 143.563 373.792Z" fill="black"/>
<path d="M371.835 333.316C371.835 333.316 359.077 330.764 355.679 327.36C352.281 323.957 336.971 318.011 335.27 322.261C333.568 326.51 312.312 340.968 326.766 343.531C341.22 346.093 360.779 346.914 365.033 345.232C369.287 343.55 371.835 333.316 371.835 333.316Z" fill="#A8A8A8"/>
<path opacity="0.2" d="M326.766 341.926C341.225 344.473 360.779 345.309 365.033 343.622C368.267 342.327 370.52 336.105 371.409 333.21L371.834 333.302C371.834 333.302 369.282 343.502 365.033 345.203C360.784 346.905 341.225 346.054 326.766 343.502C322.594 342.767 321.4 341.036 321.85 338.851C322.208 340.292 323.663 341.389 326.766 341.926Z" fill="black"/>
<path opacity="0.2" d="M249.681 55.5196H246.645C247.209 55.5196 247.75 55.2955 248.149 54.8967C248.548 54.4978 248.772 53.9568 248.772 53.3926C248.772 52.8285 248.548 52.2875 248.149 51.8886C247.75 51.4897 247.209 51.2656 246.645 51.2656H222.049C221.485 51.2656 220.944 51.4897 220.545 51.8886C220.146 52.2875 219.922 52.8285 219.922 53.3926C219.922 53.9568 220.146 54.4978 220.545 54.8967C220.944 55.2955 221.485 55.5196 222.049 55.5196H225.085C224.539 55.5457 224.024 55.7809 223.647 56.1765C223.27 56.5721 223.06 57.0977 223.06 57.6442C223.06 58.1908 223.27 58.7164 223.647 59.112C224.024 59.5076 224.539 59.7428 225.085 59.7688H220.836C220.272 59.7688 219.731 59.9929 219.332 60.3918C218.933 60.7907 218.709 61.3317 218.709 61.8958C218.709 62.4599 218.933 63.0009 219.332 63.3998C219.731 63.7987 220.272 64.0228 220.836 64.0228H245.432C245.996 64.0228 246.537 63.7987 246.936 63.3998C247.335 63.0009 247.559 62.4599 247.559 61.8958C247.559 61.3317 247.335 60.7907 246.936 60.3918C246.537 59.9929 245.996 59.7688 245.432 59.7688H249.681C249.969 59.7825 250.256 59.7377 250.526 59.6372C250.795 59.5366 251.042 59.3823 251.25 59.1837C251.459 58.985 251.624 58.7462 251.738 58.4816C251.851 58.2169 251.909 57.9321 251.909 57.6442C251.909 57.3564 251.851 57.0715 251.738 56.8069C251.624 56.5423 251.459 56.3034 251.25 56.1048C251.042 55.9061 250.795 55.7519 250.526 55.6513C250.256 55.5507 249.969 55.5059 249.681 55.5196V55.5196Z" fill="#646067"/>
<path opacity="0.2" d="M345.213 130.356H342.177C342.723 130.33 343.238 130.095 343.615 129.699C343.992 129.304 344.203 128.778 344.203 128.232C344.203 127.685 343.992 127.16 343.615 126.764C343.238 126.368 342.723 126.133 342.177 126.107H317.557C317.27 126.093 316.982 126.138 316.713 126.239C316.443 126.339 316.196 126.494 315.988 126.692C315.78 126.891 315.614 127.13 315.501 127.394C315.387 127.659 315.329 127.944 315.329 128.232C315.329 128.52 315.387 128.804 315.501 129.069C315.614 129.334 315.78 129.573 315.988 129.771C316.196 129.97 316.443 130.124 316.713 130.225C316.982 130.325 317.27 130.37 317.557 130.356H320.593C320.047 130.382 319.532 130.618 319.155 131.013C318.778 131.409 318.567 131.934 318.567 132.481C318.567 133.027 318.778 133.553 319.155 133.949C319.532 134.344 320.047 134.579 320.593 134.606H316.344C315.78 134.606 315.239 134.83 314.84 135.228C314.441 135.627 314.217 136.168 314.217 136.733C314.217 137.297 314.441 137.838 314.84 138.237C315.239 138.635 315.78 138.86 316.344 138.86H340.935C341.499 138.86 342.04 138.635 342.439 138.237C342.838 137.838 343.062 137.297 343.062 136.733C343.062 136.168 342.838 135.627 342.439 135.228C342.04 134.83 341.499 134.606 340.935 134.606H345.213C345.501 134.619 345.788 134.574 346.058 134.474C346.327 134.373 346.574 134.219 346.782 134.02C346.99 133.822 347.156 133.583 347.27 133.318C347.383 133.054 347.441 132.769 347.441 132.481C347.441 132.193 347.383 131.908 347.27 131.644C347.156 131.379 346.99 131.14 346.782 130.941C346.574 130.743 346.327 130.589 346.058 130.488C345.788 130.387 345.501 130.343 345.213 130.356V130.356Z" fill="#646067"/>
<path opacity="0.2" d="M203.656 116.512H200.62C200.907 116.525 201.195 116.481 201.464 116.38C201.734 116.279 201.981 116.125 202.189 115.926C202.397 115.728 202.563 115.489 202.676 115.224C202.79 114.96 202.848 114.675 202.848 114.387C202.848 114.099 202.79 113.814 202.676 113.55C202.563 113.285 202.397 113.046 202.189 112.848C201.981 112.649 201.734 112.495 201.464 112.394C201.195 112.293 200.907 112.249 200.62 112.262H176.019C175.732 112.249 175.444 112.293 175.174 112.394C174.905 112.495 174.658 112.649 174.45 112.848C174.242 113.046 174.076 113.285 173.962 113.55C173.849 113.814 173.791 114.099 173.791 114.387C173.791 114.675 173.849 114.96 173.962 115.224C174.076 115.489 174.242 115.728 174.45 115.926C174.658 116.125 174.905 116.279 175.174 116.38C175.444 116.481 175.732 116.525 176.019 116.512H179.055C178.767 116.498 178.48 116.543 178.21 116.643C177.941 116.744 177.694 116.898 177.486 117.097C177.277 117.295 177.112 117.534 176.998 117.799C176.885 118.063 176.826 118.348 176.826 118.636C176.826 118.924 176.885 119.209 176.998 119.474C177.112 119.738 177.277 119.977 177.486 120.176C177.694 120.374 177.941 120.529 178.21 120.629C178.48 120.73 178.767 120.774 179.055 120.761H174.801C174.237 120.761 173.696 120.985 173.297 121.384C172.898 121.783 172.674 122.324 172.674 122.888C172.674 123.452 172.898 123.993 173.297 124.392C173.696 124.791 174.237 125.015 174.801 125.015H199.397C199.961 125.015 200.502 124.791 200.901 124.392C201.3 123.993 201.524 123.452 201.524 122.888C201.524 122.324 201.3 121.783 200.901 121.384C200.502 120.985 199.961 120.761 199.397 120.761H203.646C203.933 120.774 204.221 120.73 204.49 120.629C204.76 120.529 205.007 120.374 205.215 120.176C205.423 119.977 205.589 119.738 205.703 119.474C205.816 119.209 205.874 118.924 205.874 118.636C205.874 118.348 205.816 118.063 205.703 117.799C205.589 117.534 205.423 117.295 205.215 117.097C205.007 116.898 204.76 116.744 204.49 116.643C204.221 116.543 203.933 116.498 203.646 116.512H203.656Z" fill="#646067"/>
<defs>
<linearGradient id="paint0_linear_1536_8216" x1="118.354" y1="156.915" x2="1.46033" y2="156.915" gradientUnits="userSpaceOnUse">
<stop stop-color="#808080" stop-opacity="0.25"/>
<stop offset="0.54" stop-color="#808080" stop-opacity="0.12"/>
<stop offset="1" stop-color="#808080" stop-opacity="0.1"/>
</linearGradient>
</defs>
</svg>
