<svg width="301" height="270" viewBox="0 0 301 270" fill="none" xmlns="http://www.w3.org/2000/svg">
<path d="M154.066 0.582007L144.277 3.10638L23.6747 34.2073L13.8858 36.7316C9.13433 37.9626 5.0652 41.0281 2.57112 45.2556C0.0770411 49.483 -0.638306 54.5272 0.582017 59.2814L43.0292 223.882C44.2602 228.633 47.3256 232.702 51.5531 235.196C55.7805 237.691 60.8247 238.406 65.5789 237.186L65.6041 237.179L205.734 201.042L205.759 201.036C210.51 199.805 214.579 196.739 217.074 192.512C219.568 188.285 220.283 183.24 219.063 178.486L176.616 13.8858C175.385 9.13439 172.319 5.06524 168.092 2.57115C163.864 0.0770553 158.82 -0.638307 154.066 0.582007Z" fill="#F2F2F2"/>
<path d="M155.397 5.74271L143.802 8.73266L26.8107 38.9025L15.2166 41.8924C11.8329 42.769 8.9352 44.952 7.15909 47.9624C5.38299 50.9729 4.87357 54.565 5.74259 57.9505L48.1897 222.551C49.0664 225.935 51.2494 228.832 54.2598 230.608C57.2703 232.384 60.8623 232.894 64.2479 232.025L64.2732 232.018L204.403 195.882L204.428 195.875C207.812 194.999 210.709 192.816 212.485 189.805C214.261 186.795 214.771 183.203 213.902 179.817L171.455 15.2167C170.578 11.8331 168.395 8.93539 165.385 7.15928C162.374 5.38318 158.782 4.87373 155.397 5.74271Z" fill="white"/>
<path d="M146.642 59.0446L75.7542 77.3252C74.9624 77.5294 74.122 77.4107 73.4178 76.9952C72.7135 76.5798 72.2032 75.9015 71.999 75.1098C71.7949 74.318 71.9136 73.4776 72.329 72.7734C72.7445 72.0692 73.4227 71.5588 74.2145 71.3547L145.103 53.074C145.894 52.8707 146.734 52.9899 147.437 53.4054C148.141 53.821 148.651 54.4989 148.855 55.2902C149.059 56.0815 148.941 56.9214 148.526 57.6254C148.111 58.3294 147.433 58.8399 146.642 59.0446Z" fill="#F2F2F2"/>
<path d="M161.554 65.9443L78.3518 87.4006C77.5601 87.6048 76.7196 87.486 76.0154 87.0706C75.3112 86.6551 74.8009 85.9769 74.5967 85.1851C74.3925 84.3934 74.5112 83.553 74.9267 82.8487C75.3422 82.1445 76.0204 81.6342 76.8121 81.43L160.015 59.9738C160.806 59.7696 161.647 59.8883 162.351 60.3038C163.055 60.7193 163.566 61.3975 163.77 62.1892C163.974 62.981 163.855 63.8214 163.44 64.5256C163.024 65.2298 162.346 65.7402 161.554 65.9443Z" fill="#F2F2F2"/>
<path d="M158.287 104.197L87.3987 122.478C87.0067 122.579 86.5986 122.602 86.1977 122.545C85.7968 122.488 85.411 122.353 85.0623 122.148C84.7136 121.942 84.4088 121.67 84.1654 121.346C83.922 121.023 83.7447 120.654 83.6436 120.262C83.5425 119.87 83.5196 119.462 83.5762 119.061C83.6328 118.66 83.7678 118.275 83.9736 117.926C84.1793 117.577 84.4517 117.272 84.7752 117.029C85.0987 116.786 85.467 116.608 85.859 116.507L156.747 98.2265C157.139 98.1254 157.547 98.1025 157.948 98.1591C158.349 98.2158 158.735 98.3508 159.084 98.5565C159.432 98.7622 159.737 99.0346 159.98 99.3581C160.224 99.6816 160.401 100.05 160.502 100.442C160.603 100.834 160.626 101.242 160.57 101.643C160.513 102.044 160.378 102.43 160.172 102.778C159.967 103.127 159.694 103.432 159.371 103.675C159.047 103.919 158.679 104.096 158.287 104.197Z" fill="#F2F2F2"/>
<path d="M173.198 111.097L89.9954 132.553C89.6033 132.654 89.1952 132.677 88.7943 132.62C88.3935 132.564 88.0077 132.429 87.659 132.223C87.3103 132.017 87.0055 131.745 86.7621 131.421C86.5187 131.098 86.3413 130.73 86.2402 130.338C86.1391 129.946 86.1163 129.537 86.1729 129.137C86.2295 128.736 86.3645 128.35 86.5702 128.001C86.776 127.653 87.0484 127.348 87.3719 127.104C87.6954 126.861 88.0636 126.684 88.4557 126.583L171.658 105.126C172.45 104.922 173.29 105.041 173.994 105.456C174.699 105.872 175.209 106.55 175.413 107.342C175.617 108.133 175.499 108.974 175.083 109.678C174.668 110.382 173.99 110.893 173.198 111.097Z" fill="#F2F2F2"/>
<path d="M169.929 149.35L99.0412 167.63C98.2496 167.834 97.4097 167.715 96.7059 167.299C96.0022 166.884 95.4922 166.206 95.2881 165.414C95.084 164.623 95.2025 163.783 95.6176 163.079C96.0326 162.375 96.7102 161.864 97.5015 161.66L168.39 143.379C169.181 143.175 170.022 143.294 170.726 143.709C171.43 144.124 171.941 144.803 172.145 145.594C172.349 146.386 172.23 147.227 171.815 147.931C171.399 148.635 170.721 149.145 169.929 149.35Z" fill="#F2F2F2"/>
<path d="M184.843 156.249L101.641 177.706C101.248 177.807 100.84 177.83 100.439 177.774C100.038 177.717 99.6517 177.583 99.3027 177.377C98.9538 177.171 98.6487 176.899 98.4051 176.575C98.1615 176.252 97.984 175.883 97.8828 175.491C97.7817 175.098 97.7588 174.69 97.8155 174.289C97.8723 173.888 98.0075 173.502 98.2135 173.153C98.4195 172.804 98.6922 172.5 99.0161 172.256C99.3399 172.013 99.7086 171.836 100.101 171.735L183.303 150.279C184.095 150.075 184.936 150.193 185.64 150.609C186.344 151.024 186.854 151.702 187.058 152.494C187.263 153.286 187.144 154.126 186.728 154.831C186.313 155.535 185.635 156.045 184.843 156.249Z" fill="#F2F2F2"/>
<path d="M63.6523 96.0694L38.5656 102.539C38.186 102.636 37.7832 102.579 37.4457 102.38C37.1081 102.181 36.8633 101.856 36.765 101.476L31.0064 79.1458C30.909 78.7662 30.9661 78.3634 31.1653 78.0259C31.3644 77.6883 31.6893 77.4435 32.0687 77.3452L57.1554 70.8759C57.535 70.7784 57.9378 70.8356 58.2753 71.0347C58.6129 71.2339 58.8577 71.5588 58.9559 71.9382L64.7146 94.2688C64.812 94.6484 64.7549 95.0512 64.5558 95.3888C64.3566 95.7263 64.0317 95.9711 63.6523 96.0694Z" fill="#E6E6E6"/>
<path d="M75.2968 141.222L50.2102 147.691C49.8305 147.789 49.4278 147.731 49.0902 147.532C48.7526 147.333 48.5079 147.008 48.4096 146.629L42.651 124.298C42.5535 123.919 42.6106 123.516 42.8098 123.178C43.0089 122.841 43.3339 122.596 43.7133 122.498L68.7999 116.028C69.1795 115.931 69.5823 115.988 69.9198 116.187C70.2574 116.386 70.5022 116.711 70.6005 117.091L76.3591 139.421C76.4565 139.801 76.3994 140.204 76.2003 140.541C76.0011 140.879 75.6762 141.123 75.2968 141.222Z" fill="#E6E6E6"/>
<path d="M86.9394 186.374L61.8528 192.844C61.4731 192.941 61.0704 192.884 60.7328 192.685C60.3952 192.486 60.1504 192.161 60.0522 191.781L54.2936 169.451C54.1961 169.071 54.2532 168.668 54.4524 168.331C54.6515 167.993 54.9764 167.748 55.3559 167.65L80.4425 161.181C80.8221 161.083 81.2249 161.14 81.5624 161.34C81.9 161.539 82.1448 161.864 82.2431 162.243L88.0017 184.574C88.0991 184.953 88.042 185.356 87.8429 185.694C87.6437 186.031 87.3188 186.276 86.9394 186.374Z" fill="#E6E6E6"/>
<path d="M251.833 42.3061H107.067C102.159 42.3116 97.4529 44.2639 93.9822 47.7346C90.5115 51.2054 88.5592 55.9111 88.5537 60.8194V230.805C88.5592 235.713 90.5115 240.419 93.9822 243.89C97.4529 247.36 102.159 249.313 107.067 249.318H251.833C256.741 249.313 261.447 247.36 264.918 243.89C268.389 240.419 270.341 235.713 270.346 230.805V60.8194C270.341 55.9111 268.389 51.2054 264.918 47.7346C261.447 44.2639 256.741 42.3116 251.833 42.3061Z" fill="#E6E6E6"/>
<path d="M251.834 47.6357H107.068C103.572 47.6396 100.221 49.0299 97.7495 51.5015C95.278 53.973 93.8877 57.3241 93.8838 60.8194V230.805C93.8877 234.3 95.278 237.651 97.7495 240.123C100.221 242.594 103.572 243.985 107.068 243.989H251.834C255.329 243.985 258.68 242.594 261.152 240.123C263.623 237.651 265.013 234.3 265.017 230.805V60.8194C265.013 57.3241 263.623 53.9731 261.152 51.5015C258.68 49.0299 255.329 47.6397 251.834 47.6357Z" fill="white"/>
<path d="M267.042 270C285.707 270 300.837 254.869 300.837 236.205C300.837 217.54 285.707 202.41 267.042 202.41C248.378 202.41 233.247 217.54 233.247 236.205C233.247 254.869 248.378 270 267.042 270Z" fill="#E2DFE4"/>
<path d="M277.321 234.821H270.179V227.679C270.179 226.968 269.896 226.287 269.394 225.785C268.892 225.282 268.21 225 267.5 225C266.79 225 266.108 225.282 265.606 225.785C265.104 226.287 264.821 226.968 264.821 227.679V234.821H257.679C256.968 234.821 256.287 235.104 255.785 235.606C255.282 236.108 255 236.79 255 237.5C255 238.21 255.282 238.892 255.785 239.394C256.287 239.896 256.968 240.179 257.679 240.179H264.821V247.321C264.821 248.032 265.104 248.713 265.606 249.215C266.108 249.718 266.79 250 267.5 250C268.21 250 268.892 249.718 269.394 249.215C269.896 248.713 270.179 248.032 270.179 247.321V240.179H277.321C278.032 240.179 278.713 239.896 279.215 239.394C279.718 238.892 280 238.21 280 237.5C280 236.79 279.718 236.108 279.215 235.606C278.713 235.104 278.032 234.821 277.321 234.821Z" fill="white"/>
<path d="M230.047 141.042H156.839C156.434 141.043 156.033 140.963 155.658 140.809C155.284 140.654 154.944 140.427 154.657 140.141C154.37 139.854 154.143 139.514 153.988 139.14C153.833 138.766 153.753 138.365 153.753 137.959C153.753 137.554 153.833 137.153 153.988 136.779C154.143 136.404 154.37 136.064 154.657 135.778C154.944 135.492 155.284 135.265 155.658 135.11C156.033 134.955 156.434 134.876 156.839 134.876H230.047C230.864 134.877 231.647 135.203 232.224 135.781C232.802 136.359 233.126 137.142 233.126 137.959C233.126 138.776 232.802 139.56 232.224 140.138C231.647 140.716 230.864 141.041 230.047 141.042Z" fill="#E6E6E6"/>
<path d="M242.764 151.447H156.839C156.434 151.448 156.033 151.368 155.658 151.214C155.284 151.059 154.944 150.832 154.657 150.546C154.37 150.259 154.143 149.919 153.988 149.545C153.833 149.171 153.753 148.769 153.753 148.364C153.753 147.959 153.833 147.558 153.988 147.184C154.143 146.809 154.37 146.469 154.657 146.183C154.944 145.897 155.284 145.67 155.658 145.515C156.033 145.36 156.434 145.281 156.839 145.281H242.764C243.581 145.281 244.366 145.606 244.944 146.184C245.522 146.763 245.847 147.547 245.847 148.364C245.847 149.182 245.522 149.966 244.944 150.544C244.366 151.122 243.581 151.447 242.764 151.447Z" fill="#E6E6E6"/>
<path d="M230.047 187.672H156.839C156.434 187.672 156.033 187.593 155.658 187.438C155.284 187.284 154.944 187.057 154.657 186.77C154.37 186.484 154.143 186.144 153.988 185.77C153.833 185.395 153.753 184.994 153.753 184.589C153.753 184.184 153.833 183.783 153.988 183.408C154.143 183.034 154.37 182.694 154.657 182.408C154.944 182.122 155.284 181.895 155.658 181.74C156.033 181.585 156.434 181.506 156.839 181.506H230.047C230.864 181.506 231.648 181.831 232.227 182.409C232.805 182.987 233.13 183.771 233.13 184.589C233.13 185.407 232.805 186.191 232.227 186.769C231.648 187.347 230.864 187.672 230.047 187.672Z" fill="#E6E6E6"/>
<path d="M242.764 198.077H156.839C156.434 198.077 156.033 197.998 155.658 197.843C155.284 197.689 154.944 197.461 154.657 197.175C154.37 196.889 154.143 196.549 153.988 196.175C153.833 195.8 153.753 195.399 153.753 194.994C153.753 194.589 153.833 194.188 153.988 193.813C154.143 193.439 154.37 193.099 154.657 192.813C154.944 192.526 155.284 192.299 155.658 192.145C156.033 191.99 156.434 191.911 156.839 191.911H242.764C243.169 191.911 243.57 191.99 243.945 192.145C244.319 192.299 244.659 192.526 244.946 192.813C245.233 193.099 245.46 193.439 245.615 193.813C245.77 194.188 245.85 194.589 245.85 194.994C245.85 195.399 245.77 195.8 245.615 196.175C245.46 196.549 245.233 196.889 244.946 197.175C244.659 197.461 244.319 197.689 243.945 197.843C243.57 197.998 243.169 198.077 242.764 198.077Z" fill="#E6E6E6"/>
<path d="M140.44 156.171H114.533C114.141 156.17 113.765 156.014 113.488 155.737C113.211 155.46 113.055 155.084 113.055 154.692V131.631C113.055 131.239 113.211 130.864 113.488 130.586C113.765 130.309 114.141 130.153 114.533 130.153H140.44C140.832 130.153 141.208 130.309 141.485 130.586C141.762 130.864 141.918 131.239 141.919 131.631V154.692C141.918 155.084 141.762 155.46 141.485 155.737C141.208 156.014 140.832 156.17 140.44 156.171Z" fill="#E6E6E6"/>
<path d="M140.44 202.8H114.533C114.141 202.8 113.765 202.644 113.488 202.367C113.211 202.09 113.055 201.714 113.055 201.322V178.261C113.055 177.869 113.211 177.493 113.488 177.216C113.765 176.939 114.141 176.783 114.533 176.783H140.44C140.832 176.783 141.208 176.939 141.485 177.216C141.762 177.493 141.918 177.869 141.919 178.261V201.322C141.918 201.714 141.762 202.09 141.485 202.367C141.208 202.644 140.832 202.8 140.44 202.8Z" fill="#E6E6E6"/>
<path d="M230.129 89.1342H176.156C175.339 89.1342 174.554 88.8094 173.976 88.2313C173.398 87.6531 173.073 86.8689 173.073 86.0513C173.073 85.2336 173.398 84.4495 173.976 83.8713C174.554 83.2931 175.339 82.9683 176.156 82.9683H230.129C230.947 82.9683 231.731 83.2931 232.309 83.8713C232.887 84.4495 233.212 85.2336 233.212 86.0513C233.212 86.8689 232.887 87.6531 232.309 88.2313C231.731 88.8094 230.947 89.1342 230.129 89.1342Z" fill="#7C3BA8"/>
<path d="M242.846 99.5392H176.156C175.751 99.5392 175.35 99.4595 174.976 99.3046C174.602 99.1496 174.263 98.9226 173.976 98.6363C173.69 98.35 173.463 98.0101 173.308 97.6361C173.153 97.2621 173.073 96.8612 173.073 96.4563C173.073 96.0514 173.153 95.6505 173.308 95.2765C173.463 94.9025 173.69 94.5626 173.976 94.2763C174.263 93.99 174.602 93.763 174.976 93.608C175.35 93.4531 175.751 93.3734 176.156 93.3734H242.846C243.664 93.3734 244.448 93.6982 245.026 94.2763C245.604 94.8545 245.929 95.6387 245.929 96.4563C245.929 97.2739 245.604 98.0581 245.026 98.6363C244.448 99.2144 243.664 99.5392 242.846 99.5392Z" fill="#7C3BA8"/>
<path d="M164.21 112.149H114.452C114.06 112.148 113.684 111.992 113.407 111.715C113.13 111.438 112.974 111.062 112.974 110.671V71.837C112.974 71.4451 113.13 71.0693 113.407 70.7922C113.684 70.5151 114.06 70.3592 114.452 70.3588H164.21C164.602 70.3592 164.978 70.5151 165.255 70.7922C165.532 71.0693 165.688 71.4451 165.688 71.837V110.671C165.688 111.062 165.532 111.438 165.255 111.715C164.978 111.992 164.602 112.148 164.21 112.149Z" fill="#7C3BA8"/>
</svg>
