<svg width="330" height="326" viewBox="0 0 330 326" fill="none" xmlns="http://www.w3.org/2000/svg">
<path d="M308.487 236.273C308.386 236.273 308.323 236.271 308.3 236.27L130.213 236.271C128.498 236.272 126.809 235.929 125.294 235.269C123.778 234.609 122.482 233.654 121.52 232.488C120.557 231.321 119.956 229.978 119.771 228.576C119.585 227.174 119.82 225.756 120.455 224.446C126.917 211.169 135.617 179.313 121.287 115.145C104.366 39.3739 119.515 11.99 126.813 3.73355C127.79 2.63273 129.068 1.73683 130.545 1.1186C132.021 0.500372 133.654 0.177233 135.311 0.175419H316.187C317.814 0.174131 319.419 0.484059 320.875 1.08071C322.332 1.67737 323.6 2.54441 324.579 3.61332C325.558 4.68224 326.221 5.92376 326.516 7.23977C326.812 8.55579 326.731 9.91026 326.28 11.1962C318.734 32.6539 303.195 89.5106 321.825 153.865C335.949 202.654 329.159 222.554 320.976 230.658C315.579 236.002 309.632 236.273 308.487 236.273ZM135.311 1.64413C133.936 1.64564 132.581 1.91381 131.355 2.42686C130.13 2.93992 129.068 3.68341 128.258 4.59699C121.094 12.7004 106.247 39.6679 123.043 114.88C136.733 176.179 130.093 208.594 122.113 224.992C121.575 226.074 121.373 227.249 121.526 228.411C121.678 229.573 122.18 230.686 122.985 231.648C123.784 232.62 124.861 233.416 126.121 233.966C127.381 234.516 128.786 234.803 130.213 234.802H308.344C308.625 234.813 314.367 234.944 319.658 229.664C327.542 221.796 334.016 202.317 320.088 154.205C301.359 89.5109 316.98 32.3577 324.565 10.7881C324.938 9.72096 325.005 8.59697 324.76 7.50493C324.514 6.41288 323.964 5.38272 323.151 4.49583C322.339 3.60893 321.286 2.8896 320.078 2.39468C318.869 1.89976 317.537 1.64281 316.187 1.64413H135.311Z" fill="#646067"/>
<path d="M285.697 80.6633H143.502C141.604 80.6633 139.784 79.9095 138.443 78.5678C137.101 77.2261 136.347 75.4063 136.347 73.5088C136.347 71.6114 137.101 69.7916 138.443 68.4499C139.784 67.1081 141.604 66.3544 143.502 66.3544H285.697C287.594 66.3544 289.414 67.1081 290.756 68.4499C292.097 69.7916 292.851 71.6114 292.851 73.5088C292.851 75.4063 292.097 77.2261 290.756 78.5678C289.414 79.9095 287.594 80.6633 285.697 80.6633Z" fill="#E2DFE4"/>
<path d="M296.429 171.883H154.233C152.336 171.883 150.516 171.129 149.174 169.787C147.833 168.446 147.079 166.626 147.079 164.728C147.079 162.831 147.833 161.011 149.174 159.669C150.516 158.328 152.336 157.574 154.233 157.574H296.429C298.326 157.574 300.146 158.328 301.487 159.669C302.829 161.011 303.583 162.831 303.583 164.728C303.583 166.626 302.829 168.446 301.487 169.787C300.146 171.129 298.326 171.883 296.429 171.883Z" fill="#E2DFE4"/>
<path d="M210.575 50.2567H143.502C141.604 50.2567 139.784 49.5029 138.443 48.1612C137.101 46.8195 136.347 44.9997 136.347 43.1022C136.347 41.2047 137.101 39.385 138.443 38.0432C139.784 36.7015 141.604 35.9478 143.502 35.9478H210.575C212.472 35.9478 214.292 36.7015 215.634 38.0432C216.976 39.385 217.729 41.2047 217.729 43.1022C217.729 44.9997 216.976 46.8195 215.634 48.1612C214.292 49.5029 212.472 50.2567 210.575 50.2567Z" fill="#E2DFE4"/>
<path d="M285.285 111.07H218.211C216.314 111.07 214.494 110.316 213.152 108.974C211.811 107.633 211.057 105.813 211.057 103.915C211.057 102.018 211.811 100.198 213.152 98.8564C214.494 97.5146 216.314 96.7609 218.211 96.7609H285.285C287.182 96.7609 289.002 97.5146 290.344 98.8564C291.685 100.198 292.439 102.018 292.439 103.915C292.439 105.813 291.685 107.633 290.344 108.974C289.002 110.316 287.182 111.07 285.285 111.07Z" fill="#7C3BA8"/>
<path d="M248.618 141.476H181.545C179.647 141.476 177.827 140.722 176.486 139.381C175.144 138.039 174.39 136.219 174.39 134.322C174.39 132.424 175.144 130.604 176.486 129.263C177.827 127.921 179.647 127.167 181.545 127.167H248.618C250.515 127.167 252.335 127.921 253.677 129.263C255.019 130.604 255.772 132.424 255.772 134.322C255.772 136.219 255.019 138.039 253.677 139.381C252.335 140.722 250.515 141.476 248.618 141.476Z" fill="#E2DFE4"/>
<path d="M220.894 202.289H153.821C151.924 202.289 150.104 201.536 148.762 200.194C147.42 198.852 146.667 197.032 146.667 195.135C146.667 193.237 147.42 191.418 148.762 190.076C150.104 188.734 151.924 187.98 153.821 187.98H220.894C222.792 187.98 224.612 188.734 225.953 190.076C227.295 191.418 228.049 193.237 228.049 195.135C228.049 197.032 227.295 198.852 225.953 200.194C224.612 201.536 222.792 202.289 220.894 202.289Z" fill="#E2DFE4"/>
<path d="M44.7099 261.515C60.9689 261.515 74.1494 248.334 74.1494 232.075C74.1494 215.816 60.9689 202.636 44.7099 202.636C28.4509 202.636 15.2704 215.816 15.2704 232.075C15.2704 248.334 28.4509 261.515 44.7099 261.515Z" fill="#35164A"/>
<path d="M40.238 255.179H31.2944V271.203H40.238V255.179Z" fill="#35164A"/>
<path d="M58.1254 255.179H49.1818V271.203H58.1254V255.179Z" fill="#35164A"/>
<path d="M38.7474 274.185C42.8636 274.185 46.2004 272.933 46.2004 271.39C46.2004 269.846 42.8636 268.595 38.7474 268.595C34.6312 268.595 31.2944 269.846 31.2944 271.39C31.2944 272.933 34.6312 274.185 38.7474 274.185Z" fill="#35164A"/>
<path d="M56.6348 273.812C60.751 273.812 64.0878 272.561 64.0878 271.017C64.0878 269.473 60.751 268.222 56.6348 268.222C52.5186 268.222 49.1818 269.473 49.1818 271.017C49.1818 272.561 52.5186 273.812 56.6348 273.812Z" fill="#35164A"/>
<path d="M16.1526 204.697C13.7755 194.051 21.3742 183.294 33.1247 180.67C44.8752 178.047 56.3279 184.55 58.705 195.196C61.0821 205.841 53.2946 209.768 41.5441 212.391C29.7936 215.015 18.5297 215.343 16.1526 204.697Z" fill="#E6CCF8"/>
<path d="M72.3213 226.203C79.795 223.005 85.0396 218.509 84.0354 216.163C83.0312 213.817 76.1585 214.508 68.6848 217.707C61.2111 220.906 55.9665 225.401 56.9707 227.747C57.9749 230.093 64.8476 229.402 72.3213 226.203Z" fill="#35164A"/>
<path d="M17.1689 245.954C24.6426 242.755 29.8872 238.26 28.883 235.914C27.8788 233.568 21.0061 234.259 13.5324 237.457C6.05864 240.656 0.814062 245.151 1.81826 247.498C2.82246 249.844 9.69516 249.153 17.1689 245.954Z" fill="#35164A"/>
<path d="M90.332 324.014H88.0938V319.831H75.8477V324.026H73.5977L73.5859 317.991H74.9805C75.7148 317.163 76.2969 316.053 76.7266 314.663C77.1641 313.264 77.4375 311.733 77.5469 310.069L77.9219 302.768H88.1289V317.991H90.3555L90.332 324.014ZM77.5469 317.991H85.8672V304.62H80.0898L79.8438 309.635C79.7422 311.596 79.4805 313.268 79.0586 314.651C78.6445 316.034 78.1406 317.147 77.5469 317.991ZM92.1133 313.374C92.1133 312.131 92.3555 311.014 92.8398 310.022C93.332 309.03 94.0117 308.264 94.8789 307.725C95.7539 307.186 96.75 306.917 97.8672 306.917C99.5938 306.917 100.988 307.514 102.051 308.709C103.121 309.905 103.656 311.495 103.656 313.479V313.631C103.656 314.866 103.418 315.975 102.941 316.959C102.473 317.936 101.797 318.698 100.914 319.245C100.039 319.792 99.0312 320.065 97.8906 320.065C96.1719 320.065 94.7773 319.467 93.707 318.272C92.6445 317.077 92.1133 315.495 92.1133 313.526V313.374ZM94.293 313.631C94.293 315.038 94.6172 316.167 95.2656 317.018C95.9219 317.87 96.7969 318.295 97.8906 318.295C98.9922 318.295 99.8672 317.866 100.516 317.006C101.164 316.139 101.488 314.928 101.488 313.374C101.488 311.983 101.156 310.858 100.492 309.999C99.8359 309.131 98.9609 308.698 97.8672 308.698C96.7969 308.698 95.9336 309.124 95.2773 309.975C94.6211 310.827 94.293 312.045 94.293 313.631ZM111.941 307.877C113.535 307.877 114.809 308.413 115.762 309.483C116.723 310.545 117.203 311.948 117.203 313.69V313.889C117.203 315.084 116.973 316.155 116.512 317.1C116.051 318.038 115.387 318.768 114.52 319.292C113.66 319.807 112.668 320.065 111.543 320.065C109.84 320.065 108.469 319.499 107.43 318.366C106.391 317.225 105.871 315.698 105.871 313.784V312.729C105.871 310.065 106.363 307.948 107.348 306.377C108.34 304.807 109.801 303.85 111.73 303.506C112.824 303.311 113.562 303.073 113.945 302.792C114.328 302.51 114.52 302.124 114.52 301.631H116.301C116.301 302.608 116.078 303.37 115.633 303.917C115.195 304.463 114.492 304.85 113.523 305.077L111.906 305.44C110.617 305.745 109.648 306.26 109 306.987C108.359 307.706 107.941 308.667 107.746 309.87C108.895 308.542 110.293 307.877 111.941 307.877ZM111.52 309.659C110.457 309.659 109.613 310.018 108.988 310.737C108.363 311.448 108.051 312.436 108.051 313.702V313.889C108.051 315.249 108.363 316.327 108.988 317.124C109.621 317.913 110.473 318.307 111.543 318.307C112.621 318.307 113.473 317.909 114.098 317.112C114.723 316.315 115.035 315.151 115.035 313.62C115.035 312.424 114.719 311.467 114.086 310.749C113.461 310.022 112.605 309.659 111.52 309.659ZM127.469 319.831C127.344 319.581 127.242 319.135 127.164 318.495C126.156 319.542 124.953 320.065 123.555 320.065C122.305 320.065 121.277 319.713 120.473 319.01C119.676 318.299 119.277 317.401 119.277 316.315C119.277 314.995 119.777 313.971 120.777 313.245C121.785 312.51 123.199 312.143 125.02 312.143H127.129V311.147C127.129 310.389 126.902 309.788 126.449 309.342C125.996 308.889 125.328 308.663 124.445 308.663C123.672 308.663 123.023 308.858 122.5 309.249C121.977 309.639 121.715 310.112 121.715 310.667H119.535C119.535 310.034 119.758 309.424 120.203 308.838C120.656 308.245 121.266 307.776 122.031 307.432C122.805 307.088 123.652 306.917 124.574 306.917C126.035 306.917 127.18 307.284 128.008 308.018C128.836 308.745 129.266 309.749 129.297 311.03V316.866C129.297 318.03 129.445 318.956 129.742 319.643V319.831H127.469ZM123.871 318.178C124.551 318.178 125.195 318.002 125.805 317.651C126.414 317.299 126.855 316.842 127.129 316.28V313.678H125.43C122.773 313.678 121.445 314.456 121.445 316.01C121.445 316.69 121.672 317.221 122.125 317.604C122.578 317.987 123.16 318.178 123.871 318.178ZM132.895 319.831V307.151H137.84C139.527 307.151 140.82 307.448 141.719 308.042C142.625 308.627 143.078 309.491 143.078 310.631C143.078 311.217 142.902 311.749 142.551 312.225C142.199 312.694 141.68 313.053 140.992 313.303C141.758 313.483 142.371 313.834 142.832 314.358C143.301 314.881 143.535 315.506 143.535 316.233C143.535 317.397 143.105 318.288 142.246 318.905C141.395 319.522 140.188 319.831 138.625 319.831H132.895ZM135.062 314.264V318.084H138.648C139.555 318.084 140.23 317.917 140.676 317.581C141.129 317.245 141.355 316.772 141.355 316.163C141.355 314.897 140.426 314.264 138.566 314.264H135.062ZM135.062 312.53H137.863C139.895 312.53 140.91 311.936 140.91 310.749C140.91 309.561 139.949 308.948 138.027 308.909H135.062V312.53ZM148.773 311.522H152.066C153.504 311.538 154.641 311.913 155.477 312.647C156.312 313.381 156.73 314.377 156.73 315.635C156.73 316.901 156.301 317.917 155.441 318.682C154.582 319.448 153.426 319.831 151.973 319.831H146.605V307.151H148.773V311.522ZM148.773 313.292V318.061H151.996C152.809 318.061 153.438 317.854 153.883 317.44C154.328 317.018 154.551 316.444 154.551 315.717C154.551 315.014 154.332 314.44 153.895 313.995C153.465 313.542 152.859 313.307 152.078 313.292H148.773ZM168.039 308.909H163.785V319.831H161.617V308.909H157.445V307.151H168.039V308.909ZM174.473 320.065C172.754 320.065 171.355 319.502 170.277 318.377C169.199 317.245 168.66 315.733 168.66 313.842V313.444C168.66 312.186 168.898 311.065 169.375 310.081C169.859 309.088 170.531 308.315 171.391 307.76C172.258 307.198 173.195 306.917 174.203 306.917C175.852 306.917 177.133 307.459 178.047 308.545C178.961 309.631 179.418 311.186 179.418 313.209V314.112H170.828C170.859 315.362 171.223 316.374 171.918 317.147C172.621 317.913 173.512 318.295 174.59 318.295C175.355 318.295 176.004 318.139 176.535 317.827C177.066 317.514 177.531 317.1 177.93 316.584L179.254 317.616C178.191 319.249 176.598 320.065 174.473 320.065ZM174.203 308.698C173.328 308.698 172.594 309.018 172 309.659C171.406 310.292 171.039 311.182 170.898 312.331H177.25V312.167C177.188 311.065 176.891 310.213 176.359 309.612C175.828 309.002 175.109 308.698 174.203 308.698ZM192.039 316.655L194.992 307.151H197.312L192.215 321.788C191.426 323.897 190.172 324.952 188.453 324.952L188.043 324.917L187.234 324.764V323.006L187.82 323.053C188.555 323.053 189.125 322.905 189.531 322.608C189.945 322.311 190.285 321.768 190.551 320.979L191.031 319.69L186.508 307.151H188.875L192.039 316.655ZM204.18 318.295C204.953 318.295 205.629 318.061 206.207 317.592C206.785 317.124 207.105 316.538 207.168 315.834H209.219C209.18 316.561 208.93 317.252 208.469 317.909C208.008 318.565 207.391 319.088 206.617 319.479C205.852 319.87 205.039 320.065 204.18 320.065C202.453 320.065 201.078 319.491 200.055 318.342C199.039 317.186 198.531 315.608 198.531 313.608V313.245C198.531 312.01 198.758 310.913 199.211 309.952C199.664 308.991 200.312 308.245 201.156 307.713C202.008 307.182 203.012 306.917 204.168 306.917C205.59 306.917 206.77 307.342 207.707 308.194C208.652 309.045 209.156 310.151 209.219 311.51H207.168C207.105 310.69 206.793 310.018 206.23 309.495C205.676 308.963 204.988 308.698 204.168 308.698C203.066 308.698 202.211 309.096 201.602 309.893C201 310.682 200.699 311.827 200.699 313.327V313.737C200.699 315.198 201 316.323 201.602 317.112C202.203 317.901 203.062 318.295 204.18 318.295ZM222.051 307.151V319.831H219.871V308.944H215.559L215.301 313.69C215.16 315.87 214.793 317.428 214.199 318.366C213.613 319.303 212.68 319.792 211.398 319.831H210.531V317.92L211.152 317.874C211.855 317.795 212.359 317.389 212.664 316.655C212.969 315.92 213.164 314.561 213.25 312.577L213.484 307.151H222.051ZM229.68 316.655L232.633 307.151H234.953L229.855 321.788C229.066 323.897 227.812 324.952 226.094 324.952L225.684 324.917L224.875 324.764V323.006L225.461 323.053C226.195 323.053 226.766 322.905 227.172 322.608C227.586 322.311 227.926 321.768 228.191 320.979L228.672 319.69L224.148 307.151H226.516L229.68 316.655ZM245.09 308.944H239.242V319.831H237.062V307.151H245.09V308.944ZM251.125 316.655L254.078 307.151H256.398L251.301 321.788C250.512 323.897 249.258 324.952 247.539 324.952L247.129 324.917L246.32 324.764V323.006L246.906 323.053C247.641 323.053 248.211 322.905 248.617 322.608C249.031 322.311 249.371 321.768 249.637 320.979L250.117 319.69L245.594 307.151H247.961L251.125 316.655Z" fill="#14081D"/>
</svg>
