<svg width="340" height="228" viewBox="0 0 340 228" fill="none" xmlns="http://www.w3.org/2000/svg">
<g clip-path="url(#clip0)">
<path d="M306.828 40.2796H298.759C299.131 41.1919 299.272 42.1817 299.172 43.1619C299.072 44.142 298.733 45.0824 298.185 45.9002C297.637 46.718 296.897 47.3881 296.029 47.8514C295.162 48.3147 294.195 48.5571 293.213 48.5572H257.802C256.82 48.5571 255.853 48.3147 254.986 47.8514C254.119 47.3881 253.378 46.718 252.83 45.9002C252.282 45.0824 251.943 44.142 251.843 43.1619C251.743 42.1817 251.885 41.1919 252.256 40.2795H244.72C241.375 40.2795 238.168 41.612 235.803 43.9837C233.438 46.3554 232.11 49.5721 232.11 52.9263V213.212C232.11 216.566 233.438 219.783 235.803 222.155C238.168 224.527 241.375 225.859 244.72 225.859H306.828C310.172 225.859 313.38 224.527 315.744 222.155C318.109 219.783 319.438 216.566 319.438 213.212V213.212V52.9262C319.438 49.5721 318.109 46.3554 315.744 43.9837C313.38 41.612 310.172 40.2796 306.828 40.2796Z" fill="#FBF7FD"/>
<path d="M306.9 101.664C305.324 97.1234 302.78 92.9823 299.444 89.5294C296.109 86.0765 292.062 83.3949 287.587 81.6716C283.112 79.9483 278.316 79.2248 273.533 79.5515C268.75 79.8782 264.096 81.2473 259.896 83.5632C255.695 85.8792 252.048 89.0863 249.21 92.9609C246.372 96.8355 244.411 101.284 243.464 105.997C242.516 110.71 242.605 115.573 243.724 120.248C244.843 124.923 246.966 129.297 249.944 133.064C250.24 133.438 250.547 133.812 250.861 134.174C250.885 134.198 250.902 134.221 250.926 134.245C251.697 135.136 252.517 135.984 253.381 136.785C253.606 136.992 253.843 137.206 254.079 137.408C254.529 137.811 254.991 138.197 255.47 138.565C255.659 138.713 255.842 138.862 256.038 139.004C256.795 139.58 257.582 140.114 258.392 140.624L258.428 140.642C258.658 140.784 258.895 140.926 259.132 141.063C259.558 141.318 259.996 141.561 260.433 141.793L260.712 141.935C261.351 142.267 262.001 142.582 262.67 142.873C262.806 142.932 262.954 142.991 263.09 143.051C263.102 143.057 263.108 143.057 263.119 143.063C263.433 143.193 263.747 143.318 264.066 143.436C265.116 143.838 266.186 144.183 267.273 144.469C270.046 145.21 272.904 145.585 275.774 145.584C276.822 145.584 277.857 145.537 278.881 145.436C281.219 145.219 283.528 144.752 285.767 144.042C285.773 144.042 285.779 144.036 285.785 144.036C287.199 143.584 288.581 143.035 289.92 142.392C289.926 142.386 289.938 142.386 289.944 142.38C290.246 142.238 290.536 142.084 290.832 141.935C290.879 141.911 290.926 141.888 290.973 141.864C291.21 141.739 291.447 141.615 291.684 141.484C292.275 141.158 292.855 140.814 293.429 140.446C293.588 140.351 293.742 140.25 293.902 140.143C294.127 139.995 294.352 139.841 294.571 139.68C294.86 139.479 295.15 139.271 295.434 139.057C295.523 138.992 295.618 138.927 295.706 138.856C301.249 134.636 305.318 128.765 307.329 122.084C309.339 115.403 309.189 108.254 306.9 101.664L306.9 101.664Z" fill="white"/>
<path d="M292.855 137.479C290.052 135.997 287.126 134.762 284.111 133.788L283.726 129.522L268.131 127.837L266.149 133.29L260.552 135.396C260.352 135.472 260.161 135.572 259.984 135.693H259.978C259.666 135.904 259.4 136.178 259.196 136.496C258.993 136.814 258.856 137.171 258.795 137.544C258.735 137.915 258.749 138.294 258.836 138.66L259.132 139.876C259.558 140.131 259.996 140.374 260.433 140.606L260.712 140.748C261.351 141.08 262.001 141.395 262.67 141.686C262.806 141.745 262.954 141.804 263.09 141.864C263.102 141.87 263.108 141.87 263.119 141.876C263.433 142.006 263.747 142.131 264.066 142.249C265.116 142.651 266.186 142.996 267.273 143.282C270.046 144.023 272.904 144.398 275.775 144.397C276.822 144.397 277.857 144.35 278.881 144.249C281.219 144.032 283.528 143.565 285.767 142.855C285.773 142.855 285.779 142.849 285.785 142.849C287.199 142.397 288.581 141.848 289.921 141.205C289.926 141.199 289.938 141.199 289.944 141.193C290.246 141.051 290.536 140.897 290.832 140.748C290.879 140.724 290.926 140.701 290.974 140.677C291.21 140.552 291.447 140.428 291.684 140.297C292.275 139.971 292.855 139.627 293.429 139.259C293.589 139.164 293.742 139.063 293.902 138.956C294.127 138.808 294.352 138.654 294.571 138.493C294.02 138.137 293.447 137.799 292.855 137.479Z" fill="#E2DFE4"/>
<path d="M263.587 140.108L262.611 135.687H260.061C260.035 135.687 260.009 135.689 259.984 135.693H259.978C259.061 135.771 258.179 136.077 257.41 136.583C256.889 136.917 256.425 137.334 256.038 137.817C256.795 138.393 257.582 138.927 258.392 139.437L258.428 139.455C258.658 139.597 258.895 139.74 259.132 139.876C259.558 140.131 259.996 140.375 260.433 140.606L260.711 140.748C261.35 141.081 262.001 141.395 262.67 141.686C262.806 141.745 262.954 141.805 263.09 141.864C263.102 141.87 263.107 141.87 263.119 141.876C263.433 142.006 263.746 142.131 264.066 142.25L263.587 140.108Z" fill="#E2DFE4"/>
<path d="M275.316 125.139C281.519 125.139 286.548 120.096 286.548 113.875C286.548 107.653 281.519 102.61 275.316 102.61C269.113 102.61 264.084 107.653 264.084 113.875C264.084 120.096 269.113 125.139 275.316 125.139Z" fill="#A0616A"/>
<path d="M267.775 108.388C268.938 109.768 270.906 110.157 272.721 110.317C276.407 110.641 281.767 110.115 285.37 109.281C285.627 111.78 284.926 114.475 286.394 116.531C287.082 114.042 287.482 111.482 287.586 108.901C287.696 107.794 287.552 106.676 287.165 105.633C286.958 105.111 286.609 104.657 286.158 104.323C285.706 103.989 285.171 103.789 284.612 103.746C285.449 103.109 286.429 102.689 287.466 102.522L283.899 100.725L284.815 99.7816L278.359 99.3853L280.229 98.1938C277.414 97.8059 274.567 97.7157 271.733 97.9248C270.417 98.022 269.042 98.2078 267.976 98.9723C266.91 99.7369 266.294 101.256 266.955 102.379C266.127 102.515 265.347 102.862 264.689 103.385C264.031 103.909 263.518 104.592 263.197 105.37C262.791 106.607 262.693 107.925 262.911 109.208C263.155 111.268 263.632 113.293 264.334 115.243L267.775 108.388Z" fill="#14081D"/>
<path d="M306.9 101.664C305.324 97.1234 302.78 92.9823 299.444 89.5294C296.109 86.0765 292.062 83.3949 287.587 81.6716C283.112 79.9483 278.316 79.2248 273.533 79.5515C268.75 79.8782 264.096 81.2473 259.896 83.5632C255.695 85.8792 252.048 89.0863 249.21 92.9609C246.372 96.8355 244.411 101.284 243.464 105.997C242.516 110.71 242.605 115.573 243.724 120.248C244.843 124.923 246.966 129.297 249.944 133.064C250.24 133.438 250.547 133.812 250.861 134.174C250.885 134.198 250.902 134.221 250.926 134.245C251.697 135.136 252.517 135.984 253.381 136.785C253.606 136.992 253.843 137.206 254.079 137.408C254.529 137.811 254.991 138.197 255.47 138.565C255.659 138.713 255.842 138.862 256.038 139.004C256.795 139.58 257.582 140.114 258.392 140.624L258.428 140.642C258.658 140.784 258.895 140.926 259.132 141.063C259.558 141.318 259.996 141.561 260.433 141.793L260.712 141.935C261.351 142.267 262.001 142.582 262.67 142.873C262.806 142.932 262.954 142.991 263.09 143.051C263.102 143.057 263.108 143.057 263.119 143.063C263.433 143.193 263.747 143.318 264.066 143.436C265.116 143.838 266.186 144.183 267.273 144.469C270.046 145.21 272.904 145.585 275.774 145.584C276.822 145.584 277.857 145.537 278.881 145.436C281.219 145.219 283.528 144.752 285.767 144.042C285.773 144.042 285.779 144.036 285.785 144.036C287.199 143.584 288.581 143.035 289.92 142.392C289.926 142.386 289.938 142.386 289.944 142.38C290.246 142.238 290.536 142.084 290.832 141.935C290.879 141.911 290.926 141.888 290.973 141.864C291.21 141.739 291.447 141.615 291.684 141.484C292.275 141.158 292.855 140.814 293.429 140.446C293.588 140.351 293.742 140.25 293.902 140.143C294.127 139.995 294.352 139.841 294.571 139.68C294.86 139.479 295.15 139.271 295.434 139.057C295.523 138.992 295.618 138.927 295.706 138.856C301.249 134.636 305.318 128.765 307.329 122.084C309.339 115.403 309.189 108.254 306.9 101.664L306.9 101.664ZM294.618 137.414C294.423 137.568 294.222 137.716 294.02 137.853C293.825 138.001 293.63 138.144 293.429 138.274C293.257 138.399 293.085 138.517 292.908 138.63L292.855 138.666C292.725 138.755 292.595 138.838 292.464 138.921C291.973 139.229 291.476 139.526 290.973 139.811C290.92 139.841 290.867 139.87 290.814 139.9C290.589 140.025 290.364 140.143 290.139 140.262C290.11 140.28 290.074 140.292 290.045 140.309L290.009 140.327C289.725 140.475 289.435 140.618 289.145 140.754C288.027 141.295 286.875 141.762 285.696 142.155C285.542 142.208 285.389 142.261 285.235 142.309C283.115 142.985 280.93 143.431 278.715 143.638C277.745 143.727 276.762 143.775 275.775 143.775C273.06 143.78 270.356 143.425 267.734 142.718C266.389 142.366 265.07 141.918 263.788 141.377C263.723 141.348 263.652 141.324 263.587 141.294C263.516 141.265 263.451 141.241 263.386 141.211C263.315 141.182 263.25 141.152 263.179 141.116C262.623 140.873 262.072 140.606 261.534 140.327L261.274 140.191C260.617 139.847 259.972 139.479 259.345 139.087C259.161 138.974 258.972 138.856 258.795 138.731C258.748 138.701 258.706 138.672 258.659 138.642C258.238 138.363 257.818 138.072 257.41 137.77C257.132 137.562 256.854 137.354 256.582 137.141C256.126 136.797 255.689 136.429 255.263 136.049C255.038 135.859 254.819 135.651 254.606 135.456C253.767 134.679 252.973 133.855 252.228 132.987C251.979 132.702 251.737 132.418 251.506 132.121C251.453 132.062 251.404 132.001 251.358 131.937C247.514 127.072 245.202 121.169 244.716 114.981C244.231 108.793 245.594 102.6 248.633 97.1923C251.671 91.7844 256.246 87.4067 261.775 84.6174C267.304 81.828 273.536 80.7535 279.677 81.5309C285.817 82.3083 291.588 84.9023 296.252 88.9821C300.917 93.0619 304.264 98.4427 305.867 104.438C307.47 110.434 307.256 116.772 305.253 122.645C303.249 128.518 299.547 133.66 294.618 137.414H294.618Z" fill="#E2DFE4"/>
<path d="M298.579 171.498H253.065C251.618 171.497 250.23 170.919 249.207 169.892C248.184 168.865 247.609 167.473 247.609 166.021C247.609 164.569 248.184 163.176 249.207 162.149C250.23 161.122 251.618 160.545 253.065 160.543H298.579C300.028 160.543 301.417 161.12 302.441 162.148C303.465 163.175 304.041 164.568 304.041 166.021C304.041 167.474 303.465 168.867 302.441 169.894C301.417 170.921 300.028 171.498 298.579 171.498V171.498Z" fill="white"/>
<path d="M298.579 188.388H253.065C251.618 188.386 250.23 187.809 249.207 186.782C248.184 185.755 247.609 184.362 247.609 182.91C247.609 181.458 248.184 180.066 249.207 179.039C250.23 178.012 251.618 177.434 253.065 177.433H298.579C300.028 177.433 301.417 178.01 302.441 179.037C303.465 180.064 304.041 181.457 304.041 182.91C304.041 184.363 303.465 185.756 302.441 186.783C301.417 187.811 300.028 188.388 298.579 188.388V188.388Z" fill="white"/>
<path d="M104.507 41.2163H96.4386C96.8096 42.1286 96.9513 43.1185 96.851 44.0986C96.7508 45.0788 96.4117 46.0192 95.8637 46.837C95.3157 47.6548 94.5756 48.3248 93.7086 48.7882C92.8416 49.2515 91.8742 49.4939 90.8918 49.494H55.4814C54.499 49.4939 53.5317 49.2515 52.6646 48.7882C51.7976 48.3248 51.0575 47.6548 50.5095 46.837C49.9615 46.0192 49.6225 45.0788 49.5222 44.0986C49.422 43.1185 49.5636 42.1286 49.9346 41.2163H42.3988C39.0545 41.2163 35.8471 42.5487 33.4823 44.9204C31.1175 47.2922 29.7889 50.5089 29.7889 53.863V214.149C29.7889 217.503 31.1175 220.72 33.4823 223.092C35.8471 225.463 39.0545 226.796 42.3988 226.796H104.507C107.851 226.796 111.059 225.463 113.423 223.092C115.788 220.72 117.117 217.503 117.117 214.149V214.149V53.863C117.117 50.5089 115.788 47.2922 113.423 44.9204C111.059 42.5487 107.851 41.2163 104.507 41.2163V41.2163Z" fill="#FBF7FD"/>
<path d="M104.579 102.601C103.004 98.0601 100.459 93.9191 97.1234 90.4662C93.7878 87.0133 89.7413 84.3317 85.2662 82.6084C80.791 80.8851 75.9949 80.1616 71.2123 80.4883C66.4297 80.815 61.7757 82.1841 57.5749 84.5C53.374 86.816 49.7275 90.0231 46.8895 93.8977C44.0515 97.7723 42.0904 102.221 41.1429 106.934C40.1954 111.647 40.2844 116.51 41.4036 121.185C42.5228 125.86 44.6453 130.234 47.623 134.001C47.9189 134.375 48.2265 134.749 48.5402 135.111C48.5639 135.135 48.5816 135.158 48.6052 135.182C49.3764 136.073 50.1961 136.921 51.0604 137.722C51.2855 137.929 51.5221 138.143 51.7586 138.345C52.2082 138.748 52.6698 139.134 53.149 139.502C53.3383 139.65 53.5217 139.798 53.717 139.941C54.4741 140.516 55.2611 141.05 56.0717 141.561L56.1072 141.578C56.3377 141.721 56.5746 141.863 56.8112 142C57.237 142.255 57.675 142.498 58.1126 142.73L58.3908 142.872C59.0298 143.204 59.6807 143.519 60.3492 143.809C60.4852 143.869 60.6331 143.928 60.7692 143.987C60.781 143.993 60.7868 143.993 60.7987 143.999C61.1124 144.13 61.4258 144.254 61.7453 144.373C62.7948 144.775 63.8653 145.12 64.9519 145.406C67.7254 146.147 70.5835 146.522 73.4538 146.521C74.501 146.521 75.5363 146.474 76.5598 146.373C78.8985 146.156 81.2073 145.689 83.4465 144.978C83.4523 144.978 83.4584 144.972 83.4641 144.972C84.8787 144.52 86.2605 143.971 87.5998 143.329C87.6055 143.323 87.6174 143.323 87.6235 143.317C87.925 143.175 88.2151 143.02 88.5109 142.872C88.5583 142.848 88.6054 142.825 88.6528 142.801C88.8894 142.676 89.1262 142.552 89.3628 142.421C89.9545 142.095 90.5343 141.751 91.108 141.383C91.2677 141.288 91.4217 141.187 91.5814 141.08C91.8062 140.932 92.0309 140.777 92.2499 140.617C92.5397 140.415 92.8297 140.208 93.1137 139.994C93.2024 139.929 93.2971 139.864 93.3858 139.792C98.9286 135.573 102.997 129.702 105.008 123.021C107.019 116.339 106.869 109.191 104.579 102.601L104.579 102.601Z" fill="white"/>
<path d="M96.2582 172.435H50.7445C49.296 172.435 47.9068 171.858 46.8825 170.831C45.8583 169.804 45.2828 168.41 45.2828 166.958C45.2828 165.505 45.8583 164.112 46.8825 163.084C47.9068 162.057 49.296 161.48 50.7445 161.48H96.2582C97.7058 161.481 99.0937 162.059 100.117 163.086C101.14 164.113 101.715 165.506 101.715 166.958C101.715 168.409 101.14 169.802 100.117 170.829C99.0937 171.856 97.7058 172.434 96.2582 172.435V172.435Z" fill="white"/>
<path d="M96.2581 189.325H50.7444C50.0268 189.325 49.316 189.184 48.6528 188.909C47.9896 188.634 47.3869 188.231 46.8792 187.722C46.3715 187.213 45.9687 186.609 45.6939 185.944C45.4192 185.279 45.2777 184.567 45.2777 183.847C45.2777 183.127 45.4192 182.415 45.6939 181.75C45.9687 181.085 46.3715 180.481 46.8792 179.972C47.3869 179.463 47.9896 179.06 48.6528 178.785C49.316 178.51 50.0268 178.369 50.7444 178.369H96.2581C97.7066 178.369 99.0958 178.946 100.12 179.974C101.144 181.001 101.72 182.394 101.72 183.847C101.72 185.3 101.144 186.693 100.12 187.72C99.0958 188.747 97.7066 189.325 96.2581 189.325V189.325Z" fill="white"/>
<path d="M61.84 121.2L63.7543 127.85L88.2173 127.418L88.0029 115.232C87.8333 105.587 81.0365 97.268 71.4195 97.4381C61.8025 97.6083 55.6875 105.762 55.8572 115.408L57.2543 127.965L61.2428 127.895L61.84 121.2Z" fill="#14081D"/>
<path d="M72.5126 125.85C78.5744 125.85 83.4885 120.922 83.4885 114.842C83.4885 108.763 78.5744 103.834 72.5126 103.834C66.4507 103.834 61.5366 108.763 61.5366 114.842C61.5366 120.922 66.4507 125.85 72.5126 125.85Z" fill="#FFB6B6"/>
<path d="M94.3598 132.009L94.1111 136.639C88.8434 142.134 81.6577 145.369 74.0626 145.664C66.4675 145.959 59.0539 143.292 53.3781 138.221C53.1244 137.998 52.8757 137.764 52.6322 137.524C54.1542 136.008 58.355 132.263 63.0173 131.917L84.0409 130.589C84.0409 130.589 92.0058 129.653 94.3598 132.009Z" fill="#E2DFE4"/>
<path d="M84.5278 107.113C84.5132 106.27 84.2502 105.45 83.7718 104.757C83.7212 104.686 83.6705 104.62 83.6197 104.554C83.213 104.033 82.6918 103.614 82.0969 103.329C81.5019 103.044 80.8493 102.9 80.19 102.91L72.3012 103.053L64.4173 103.19C63.2879 103.213 62.2134 103.683 61.429 104.498C60.6446 105.314 60.2141 106.407 60.2318 107.54L62.1091 111.331L63.1896 113.509L63.3672 113.407C70.1906 109.56 72.9809 109.509 82.0115 113.086L82.1941 113.158L82.9095 111.321L84.5328 107.154L84.5278 107.113Z" fill="#14081D"/>
<path d="M96.8503 135.124C96.2162 135.938 95.6437 135.923 94.9283 136.666C93.1224 138.553 90.2404 140.17 87.9879 141.518L87.496 132.675L94.36 132.009C95.5025 132.751 96.3758 133.844 96.8503 135.124V135.124Z" fill="#E2DFE4"/>
<path d="M104.579 102.601C103.004 98.0601 100.459 93.9191 97.1234 90.4662C93.7878 87.0133 89.7413 84.3317 85.2662 82.6084C80.791 80.8851 75.9949 80.1616 71.2123 80.4883C66.4297 80.815 61.7757 82.1841 57.5749 84.5C53.374 86.816 49.7275 90.0231 46.8895 93.8977C44.0515 97.7723 42.0904 102.221 41.1429 106.934C40.1954 111.647 40.2844 116.51 41.4036 121.185C42.5228 125.86 44.6453 130.234 47.623 134.001C47.9189 134.375 48.2265 134.749 48.5402 135.111C48.5639 135.135 48.5816 135.158 48.6052 135.182C49.3764 136.073 50.1961 136.921 51.0604 137.722C51.2855 137.929 51.5221 138.143 51.7586 138.345C52.2082 138.748 52.6698 139.134 53.149 139.502C53.3383 139.65 53.5217 139.798 53.717 139.941C54.4741 140.516 55.2611 141.05 56.0717 141.561L56.1072 141.578C56.3377 141.721 56.5746 141.863 56.8112 142C57.237 142.255 57.675 142.498 58.1126 142.73L58.3908 142.872C59.0298 143.204 59.6807 143.519 60.3492 143.809C60.4852 143.869 60.6331 143.928 60.7692 143.987C60.781 143.993 60.7868 143.993 60.7987 143.999C61.1124 144.13 61.4258 144.254 61.7453 144.373C62.7948 144.775 63.8653 145.12 64.9519 145.406C67.7254 146.147 70.5835 146.522 73.4538 146.521C74.501 146.521 75.5363 146.474 76.5598 146.373C78.8985 146.156 81.2073 145.689 83.4465 144.978C83.4523 144.978 83.4584 144.972 83.4641 144.972C84.8787 144.52 86.2605 143.971 87.5998 143.329C87.6055 143.323 87.6174 143.323 87.6235 143.317C87.925 143.175 88.2151 143.02 88.5109 142.872C88.5583 142.848 88.6054 142.825 88.6528 142.801C88.8894 142.676 89.1262 142.552 89.3628 142.421C89.9545 142.095 90.5343 141.751 91.108 141.383C91.2677 141.288 91.4217 141.187 91.5814 141.08C91.8062 140.932 92.0309 140.777 92.2499 140.617C92.5397 140.415 92.8297 140.208 93.1137 139.994C93.2024 139.929 93.2971 139.864 93.3858 139.792C98.9286 135.573 102.997 129.702 105.008 123.021C107.019 116.339 106.869 109.191 104.579 102.601L104.579 102.601ZM92.2973 138.351C92.102 138.505 91.901 138.653 91.6996 138.79C91.5043 138.938 91.3093 139.08 91.108 139.211C90.9364 139.336 90.7648 139.454 90.5874 139.567L90.5343 139.603C90.404 139.692 90.274 139.775 90.1437 139.858C89.6526 140.166 89.1556 140.463 88.6528 140.748C88.5996 140.777 88.5462 140.807 88.493 140.837C88.2683 140.961 88.0435 141.08 87.8188 141.199C87.789 141.216 87.7535 141.228 87.724 141.246L87.6885 141.264C87.4045 141.412 87.1145 141.555 86.8247 141.691C85.706 142.231 84.5539 142.699 83.3755 143.091C83.2215 143.145 83.0678 143.198 82.9141 143.246C80.7946 143.922 78.6088 144.367 76.3943 144.575C75.424 144.664 74.4418 144.711 73.4538 144.711C70.739 144.717 68.0354 144.362 65.4136 143.655C64.0681 143.303 62.7494 142.855 61.4675 142.314C61.4022 142.284 61.3311 142.261 61.2661 142.231C61.1953 142.201 61.1301 142.178 61.0651 142.148C60.994 142.118 60.929 142.089 60.8579 142.053C60.3018 141.81 59.7515 141.543 59.2133 141.264L58.953 141.127C58.2961 140.783 57.6513 140.415 57.0242 140.024C56.8407 139.911 56.6515 139.792 56.4738 139.668C56.4268 139.638 56.3852 139.608 56.3378 139.579C55.9177 139.3 55.4977 139.009 55.0895 138.707C54.8116 138.499 54.5334 138.291 54.2613 138.078C53.8057 137.733 53.3678 137.366 52.942 136.986C52.7172 136.796 52.4982 136.588 52.2853 136.392C51.4464 135.616 50.6524 134.792 49.907 133.924C49.6585 133.639 49.4158 133.354 49.185 133.058C49.1326 132.999 49.0832 132.938 49.0371 132.874C45.1931 128.009 42.881 122.106 42.3956 115.918C41.9102 109.73 43.2735 103.537 46.3118 98.1291C49.35 92.7212 53.9254 88.3434 59.4545 85.5541C64.9835 82.7648 71.2157 81.6903 77.3561 82.4677C83.4966 83.245 89.267 85.839 93.9315 89.9189C98.596 93.9987 101.943 99.3794 103.546 105.375C105.149 111.37 104.935 117.709 102.932 123.582C100.928 129.455 97.2262 134.596 92.2973 138.351V138.351Z" fill="#E2DFE4"/>
<path d="M202.148 129.913C202.611 130.007 203.088 129.997 203.547 129.885C204.006 129.773 204.435 129.562 204.803 129.266C205.172 128.97 205.471 128.597 205.68 128.172C205.89 127.747 206.003 127.282 206.014 126.808L230.418 103.771L224.927 99.3782L202.623 123.463C201.829 123.498 201.075 123.824 200.505 124.38C199.935 124.935 199.587 125.681 199.529 126.476C199.47 127.271 199.704 128.06 200.187 128.694C200.67 129.327 201.367 129.761 202.148 129.913H202.148Z" fill="#FFB7B7"/>
<path d="M226.96 107.495L222.212 101.915C222.077 101.756 221.978 101.57 221.921 101.369C221.864 101.168 221.851 100.958 221.882 100.751C221.914 100.545 221.989 100.348 222.104 100.174C222.218 99.9992 222.369 99.8516 222.545 99.7409L228.726 95.8601C229.54 95.1712 230.593 94.8342 231.655 94.9229C232.716 95.0116 233.699 95.5189 234.388 96.3334C235.077 97.148 235.415 98.2033 235.329 99.2679C235.244 100.333 234.74 101.32 233.93 102.013L229.153 107.507C229.016 107.664 228.847 107.79 228.657 107.876C228.468 107.962 228.262 108.006 228.054 108.005C227.845 108.004 227.64 107.958 227.451 107.87C227.263 107.782 227.095 107.654 226.96 107.495V107.495Z" fill="#7C3BA8"/>
<path d="M214.193 221.171L208.226 221.171L205.387 198.089L214.193 198.089L214.193 221.171Z" fill="#FFB7B7"/>
<path d="M215.714 226.972L196.474 226.971V226.727C196.475 224.735 197.264 222.825 198.668 221.417C200.072 220.008 201.977 219.217 203.963 219.217H203.964L215.714 219.217L215.714 226.972Z" fill="#14081D"/>
<path d="M261.889 221.171L255.922 221.171L253.084 198.089L261.89 198.089L261.889 221.171Z" fill="#FFB7B7"/>
<path d="M263.411 226.972L244.171 226.971V226.727C244.171 224.735 244.96 222.825 246.365 221.417C247.769 220.008 249.674 219.217 251.66 219.217H251.66L263.411 219.217L263.411 226.972Z" fill="#14081D"/>
<path d="M245.839 119.73L251.853 97.4438L244.051 93.0452H233.16L228.924 97.5904C228.924 97.5904 221.846 102.529 223.559 108.001L226.323 120.463L222.096 140.257L200.801 169.875L195.761 198.968L215.604 204.185L237.061 161.811L247.464 208.73L266.819 207.754L260.15 150.864C260.15 150.864 258.248 133.534 248.283 122.713L245.839 119.73Z" fill="#14081D"/>
<path d="M258.26 139.449C258.596 139.116 258.854 138.713 259.017 138.269C259.181 137.824 259.245 137.35 259.206 136.878C259.166 136.406 259.024 135.948 258.789 135.537C258.554 135.126 258.232 134.772 257.846 134.5L253.18 102.924L246.482 105.046L253.187 135.456C252.773 136.137 252.623 136.946 252.764 137.731C252.906 138.515 253.329 139.221 253.955 139.713C254.58 140.205 255.364 140.45 256.157 140.402C256.951 140.353 257.699 140.014 258.26 139.449V139.449Z" fill="#FFB7B7"/>
<path d="M254.333 107.88L247.067 108.72C246.86 108.744 246.65 108.723 246.453 108.658C246.255 108.594 246.073 108.487 245.92 108.346C245.767 108.204 245.646 108.031 245.565 107.839C245.485 107.647 245.447 107.439 245.453 107.23L245.689 99.9205C245.572 98.8588 245.881 97.7942 246.546 96.9601C247.211 96.1261 248.179 95.5908 249.238 95.4715C250.296 95.3523 251.358 95.6589 252.192 96.3241C253.025 96.9893 253.561 97.9588 253.682 99.0199L255.566 106.061C255.62 106.263 255.63 106.473 255.595 106.679C255.56 106.885 255.482 107.081 255.365 107.253C255.248 107.426 255.095 107.571 254.917 107.679C254.739 107.788 254.54 107.856 254.333 107.88V107.88Z" fill="#7C3BA8"/>
<path d="M226.426 86.7074V77.3172C226.428 73.9813 227.75 70.7828 230.103 68.4247C232.456 66.0666 235.646 64.7419 238.972 64.7419C242.298 64.7419 245.488 66.0666 247.841 68.4247C250.193 70.7828 251.516 73.9813 251.518 77.3172V86.7074C251.518 87.1555 251.34 87.5852 251.024 87.902C250.708 88.2189 250.28 88.3972 249.833 88.3977H228.111C227.664 88.3972 227.236 88.2189 226.92 87.902C226.604 87.5852 226.426 87.1555 226.426 86.7074Z" fill="#14081D"/>
<path d="M236.394 88.179C241.474 88.179 245.592 84.0486 245.592 78.9536C245.592 73.8586 241.474 69.7283 236.394 69.7283C231.314 69.7283 227.195 73.8586 227.195 78.9536C227.195 84.0486 231.314 88.179 236.394 88.179Z" fill="#FFB7B7"/>
<path d="M223.458 78.0684C223.46 75.4294 224.507 72.8994 226.368 71.0334C228.228 69.1674 230.751 68.1177 233.382 68.1147H235.255C237.886 68.1177 240.409 69.1674 242.269 71.0334C244.13 72.8994 245.177 75.4294 245.18 78.0684V78.2562H241.222L239.872 74.4656L239.602 78.2562H237.557L236.876 76.3437L236.74 78.2562H223.458L223.458 78.0684Z" fill="#14081D"/>
<path d="M235.489 89.4537C235.303 89.2013 235.192 88.9015 235.169 88.5887C235.145 88.2759 235.21 87.9629 235.357 87.6857C237.341 83.9002 240.12 76.9056 236.432 72.5919L236.167 72.282H246.873V88.4031L237.147 90.1242C237.049 90.1417 236.949 90.1505 236.849 90.1506C236.583 90.1506 236.322 90.0874 236.085 89.9663C235.849 89.8451 235.644 89.6694 235.489 89.4537V89.4537Z" fill="#14081D"/>
<path d="M192.26 226.873H116.802C112.555 226.869 108.482 225.174 105.479 222.162C102.476 219.15 100.786 215.066 100.781 210.806V16.0677C100.786 11.8078 102.476 7.72374 105.479 4.71149C108.482 1.69925 112.555 0.00483997 116.802 0H127L126.607 0.967898C126.199 1.96963 126.044 3.05648 126.154 4.13272C126.264 5.20896 126.636 6.24154 127.238 7.13951C127.839 8.03747 128.652 8.77324 129.604 9.28202C130.556 9.79079 131.618 10.0569 132.697 10.057H175.718C176.797 10.0569 177.859 9.79078 178.811 9.28201C179.763 8.77324 180.576 8.03748 181.177 7.13953C181.779 6.24159 182.151 5.20902 182.261 4.13278C182.372 3.05654 182.216 1.96967 181.809 0.967898L181.415 0H192.26C196.507 0.0048312 200.58 1.69923 203.583 4.71147C206.587 7.72371 208.276 11.8078 208.281 16.0677V210.806C208.276 215.066 206.587 219.15 203.583 222.162C200.58 225.174 196.507 226.869 192.26 226.873Z" fill="white"/>
<path d="M192.26 226.873H116.802C112.555 226.869 108.482 225.174 105.479 222.162C102.476 219.15 100.786 215.066 100.781 210.806V16.0677C100.786 11.8078 102.476 7.72374 105.479 4.71149C108.482 1.69925 112.555 0.00483997 116.802 0H127L126.607 0.967898C126.199 1.96963 126.044 3.05648 126.154 4.13272C126.264 5.20896 126.636 6.24154 127.238 7.13951C127.839 8.03747 128.652 8.77324 129.604 9.28202C130.556 9.79079 131.618 10.0569 132.697 10.057H175.718C176.797 10.0569 177.859 9.79078 178.811 9.28201C179.763 8.77324 180.576 8.03748 181.177 7.13953C181.779 6.24159 182.151 5.20902 182.261 4.13278C182.372 3.05654 182.216 1.96967 181.809 0.967898L181.415 0H192.26C196.507 0.0048312 200.58 1.69923 203.583 4.71147C206.587 7.72371 208.276 11.8078 208.281 16.0677V210.806C208.276 215.066 206.587 219.15 203.583 222.162C200.58 225.174 196.507 226.869 192.26 226.873ZM116.802 1.40519C112.926 1.40963 109.21 2.95586 106.469 5.70467C103.728 8.45348 102.187 12.1804 102.182 16.0677V210.806C102.187 214.693 103.728 218.42 106.469 221.169C109.21 223.918 112.926 225.464 116.802 225.468H192.26C196.136 225.464 199.852 223.918 202.593 221.169C205.334 218.42 206.875 214.693 206.88 210.806V16.0677C206.875 12.1804 205.334 8.45344 202.593 5.70464C199.852 2.95584 196.136 1.40961 192.26 1.40519H183.431C183.745 2.5902 183.782 3.83162 183.542 5.03366C183.301 6.23571 182.789 7.36625 182.043 8.33807C181.298 9.30989 180.34 10.097 179.243 10.6387C178.147 11.1803 176.941 11.4621 175.718 11.4622H132.697C131.474 11.4618 130.269 11.1798 129.172 10.638C128.076 10.0962 127.118 9.30908 126.373 8.33733C125.628 7.36557 125.115 6.23515 124.874 5.03325C124.634 3.83135 124.672 2.59008 124.985 1.40518L116.802 1.40519Z" fill="#35164A"/>
<path d="M194.461 68.888C192.547 63.3716 189.455 58.3404 185.403 54.1454C181.35 49.9503 176.434 46.6923 170.997 44.5986C165.56 42.5049 159.733 41.6258 153.922 42.0228C148.112 42.4197 142.457 44.083 137.354 46.8968C132.25 49.7105 127.819 53.607 124.371 58.3144C120.923 63.0218 118.541 68.4269 117.39 74.1528C116.239 79.8786 116.347 85.7874 117.706 91.467C119.066 97.1466 121.645 102.46 125.263 107.038C125.622 107.492 125.996 107.946 126.377 108.386C126.405 108.415 126.427 108.444 126.456 108.472C127.393 109.555 128.389 110.585 129.439 111.558C129.712 111.81 129.999 112.07 130.287 112.315C130.833 112.805 131.394 113.274 131.976 113.721C133.113 114.619 134.298 115.454 135.527 116.222L135.57 116.244C136.368 116.741 137.18 117.202 138.007 117.642L138.345 117.815C139.121 118.219 139.912 118.601 140.724 118.954C140.889 119.026 141.069 119.098 141.234 119.171C141.249 119.178 141.256 119.178 141.27 119.185C142.911 119.869 144.597 120.44 146.316 120.893C149.686 121.794 153.158 122.25 156.645 122.249C157.918 122.249 159.175 122.191 160.419 122.069C163.26 121.806 166.065 121.238 168.786 120.374C168.793 120.374 168.8 120.367 168.807 120.367C170.526 119.818 172.205 119.151 173.832 118.37C173.839 118.363 173.854 118.363 173.861 118.356C174.227 118.183 174.579 117.995 174.939 117.815C174.996 117.786 175.054 117.758 175.111 117.729C175.399 117.577 175.686 117.426 175.974 117.267C176.693 116.871 177.397 116.453 178.094 116.006C178.288 115.89 178.475 115.768 178.669 115.638C179.302 115.22 179.927 114.773 180.531 114.319C180.639 114.24 180.754 114.16 180.862 114.074C187.596 108.947 192.539 101.814 194.982 93.6969C197.425 85.5796 197.243 76.8951 194.461 68.888H194.461Z" fill="white"/>
<path d="M169.86 98.6425C173.174 98.6425 175.861 95.9478 175.861 92.6237C175.861 89.2997 173.174 86.605 169.86 86.605C166.545 86.605 163.858 89.2997 163.858 92.6237C163.858 95.9478 166.545 98.6425 169.86 98.6425Z" fill="#14081D"/>
<path d="M171.531 86.7707C172.57 86.7707 173.591 87.0411 174.494 87.5553C175.398 88.0696 176.152 88.8102 176.685 89.7047C177.217 90.5991 177.509 91.6169 177.532 92.6583C177.555 93.6998 177.307 94.7294 176.815 95.6464C177.335 94.9935 177.714 94.2391 177.927 93.4312C178.14 92.6234 178.184 91.7798 178.054 90.9543C177.925 90.1288 177.625 89.3393 177.174 88.6364C176.724 87.9334 176.132 87.3322 175.437 86.8712C174.742 86.4102 173.959 86.0994 173.138 85.9587C172.316 85.818 171.475 85.8504 170.666 86.0539C169.858 86.2574 169.101 86.6275 168.443 87.1407C167.786 87.6538 167.242 88.2987 166.846 89.0343C167.407 88.3278 168.12 87.7574 168.931 87.3655C169.743 86.9736 170.632 86.7703 171.532 86.7707H171.531Z" fill="#14081D"/>
<path d="M158.645 92.611C168.381 92.611 176.274 84.695 176.274 74.9302C176.274 65.1654 168.381 57.2495 158.645 57.2495C148.909 57.2495 141.016 65.1654 141.016 74.9302C141.016 84.695 148.909 92.611 158.645 92.611Z" fill="#14081D"/>
<path d="M144.809 63.9599C147.846 60.5337 152.092 58.4251 156.651 58.0792C161.209 57.7332 165.723 59.177 169.241 62.1058C169.097 61.9681 168.953 61.8297 168.804 61.6963C165.321 58.5711 160.743 56.9609 156.077 57.2196C151.411 57.4783 147.038 59.5847 143.919 63.0758C140.801 66.567 139.192 71.1571 139.447 75.8373C139.702 80.5175 141.799 84.9047 145.278 88.0346C145.311 88.0646 145.345 88.0946 145.379 88.1244C145.528 88.2577 145.682 88.3839 145.835 88.5115C142.523 85.3514 140.565 81.0244 140.373 76.4437C140.182 71.8629 141.772 67.3868 144.809 63.9599L144.809 63.9599Z" fill="#14081D"/>
<path d="M158.495 92.4606C164.766 92.4606 169.849 87.3624 169.849 81.0733C169.849 74.7843 164.766 69.686 158.495 69.686C152.225 69.686 147.141 74.7843 147.141 81.0733C147.141 87.3624 152.225 92.4606 158.495 92.4606Z" fill="#A0616A"/>
<path d="M178.813 110.743V114.564C178.116 115.011 177.411 115.429 176.693 115.825C176.405 115.984 176.118 116.135 175.83 116.287C175.773 116.315 175.715 116.344 175.658 116.373C175.298 116.553 174.946 116.741 174.579 116.914C174.572 116.921 174.558 116.921 174.551 116.928C172.923 117.709 171.245 118.376 169.526 118.925C169.519 118.925 169.512 118.932 169.505 118.932C166.784 119.795 163.979 120.363 161.138 120.626C159.894 120.749 158.636 120.807 157.364 120.807C153.877 120.808 150.405 120.352 147.035 119.451C145.316 118.998 143.63 118.427 141.989 117.743C141.975 117.736 141.967 117.736 141.953 117.728C141.788 117.656 141.608 117.584 141.443 117.512C140.63 117.159 139.84 116.777 139.063 116.373L138.726 116.2C137.899 115.76 137.087 115.299 136.289 114.802L136.246 114.78C135.017 114.012 133.832 113.177 132.695 112.278C132.113 111.832 131.552 111.363 131.006 110.873C130.718 110.628 130.431 110.368 130.158 110.116C129.108 109.143 128.112 108.113 127.174 107.03C127.299 106.279 127.481 105.539 127.721 104.817L127.728 104.81C127.771 104.687 127.821 104.566 127.879 104.449C127.918 104.346 127.964 104.245 128.015 104.147C129.302 101.732 131.631 101.133 134.521 101.004C136.152 100.931 137.956 101.011 139.861 100.989C140.868 100.982 141.91 100.946 142.952 100.852C149.529 100.254 148.336 96.361 148.631 94.2632C148.925 92.2303 150.751 93.9893 150.873 94.1046L150.88 94.1118C154.602 95.8587 158.72 96.5827 162.812 96.2096C163.517 96.1231 164.221 96.0727 164.926 96.051C166.78 96.0294 166.378 96.5629 165.738 97.0026C165.428 97.2075 165.103 97.3906 164.768 97.5505C164.768 97.5505 164.473 99.3528 164.171 102.049C163.884 104.63 172.948 105.524 174.723 106.086H174.73C175.744 106.46 176.648 107.081 177.361 107.895C178.074 108.708 178.573 109.687 178.813 110.743V110.743Z" fill="#35164A"/>
<path d="M148.784 66.8394V78.2295H151.414L154.76 74.6337L154.312 78.2295H165.935L165.216 74.6337L166.654 78.2295H168.507V66.8394H148.784Z" fill="#14081D"/>
<path d="M146.992 80.3245C147.487 80.3245 147.888 79.5867 147.888 78.6765C147.888 77.7664 147.487 77.0286 146.992 77.0286C146.497 77.0286 146.095 77.7664 146.095 78.6765C146.095 79.5867 146.497 80.3245 146.992 80.3245Z" fill="#A0616A"/>
<path d="M170 80.3245C170.495 80.3245 170.896 79.5867 170.896 78.6765C170.896 77.7664 170.495 77.0286 170 77.0286C169.505 77.0286 169.103 77.7664 169.103 78.6765C169.103 79.5867 169.505 80.3245 170 80.3245Z" fill="#A0616A"/>
<path d="M194.461 68.888C192.547 63.3716 189.455 58.3404 185.403 54.1454C181.35 49.9503 176.434 46.6923 170.997 44.5986C165.56 42.5049 159.733 41.6258 153.922 42.0228C148.112 42.4197 142.457 44.083 137.354 46.8968C132.25 49.7105 127.819 53.607 124.371 58.3144C120.923 63.0218 118.541 68.4269 117.39 74.1528C116.239 79.8786 116.347 85.7874 117.706 91.467C119.066 97.1466 121.645 102.46 125.263 107.038C125.622 107.492 125.996 107.946 126.377 108.386C126.405 108.415 126.427 108.444 126.456 108.472C127.393 109.555 128.389 110.585 129.439 111.558C129.712 111.81 129.999 112.07 130.287 112.315C130.833 112.805 131.394 113.274 131.976 113.721C133.113 114.619 134.298 115.454 135.527 116.222L135.57 116.244C136.368 116.741 137.18 117.202 138.007 117.642L138.345 117.815C139.121 118.219 139.912 118.601 140.724 118.954C140.889 119.026 141.069 119.098 141.234 119.171C141.249 119.178 141.256 119.178 141.27 119.185C142.911 119.869 144.597 120.44 146.316 120.893C149.686 121.794 153.158 122.25 156.645 122.249C157.918 122.249 159.175 122.191 160.419 122.069C163.26 121.806 166.065 121.238 168.786 120.374C168.793 120.374 168.8 120.367 168.807 120.367C170.526 119.818 172.205 119.151 173.832 118.37C173.839 118.363 173.854 118.363 173.861 118.356C174.227 118.183 174.579 117.995 174.939 117.815C174.996 117.786 175.054 117.758 175.111 117.729C175.399 117.577 175.686 117.426 175.974 117.267C176.693 116.871 177.397 116.453 178.094 116.006C178.288 115.89 178.475 115.768 178.669 115.638C179.302 115.22 179.927 114.773 180.531 114.319C180.639 114.24 180.754 114.16 180.862 114.074C187.596 108.947 192.539 101.814 194.982 93.6969C197.425 85.5796 197.243 76.8951 194.461 68.888H194.461ZM179.539 112.322C179.302 112.509 179.057 112.69 178.813 112.855C178.576 113.036 178.339 113.209 178.094 113.367C177.886 113.519 177.677 113.663 177.462 113.8C177.282 113.922 177.102 114.038 176.922 114.153C176.326 114.528 175.722 114.888 175.111 115.234C175.047 115.27 174.982 115.307 174.917 115.343C174.644 115.494 174.371 115.638 174.098 115.782C174.062 115.804 174.018 115.818 173.983 115.84L173.94 115.862C173.595 116.042 173.242 116.215 172.89 116.381C171.531 117.037 170.131 117.605 168.699 118.082C168.513 118.147 168.326 118.212 168.139 118.269C165.564 119.091 162.908 119.632 160.218 119.884C159.039 119.992 157.846 120.05 156.645 120.05C153.347 120.057 150.062 119.625 146.877 118.767C145.242 118.339 143.64 117.794 142.083 117.138C141.917 117.073 141.752 117.001 141.594 116.936C141.508 116.9 141.428 116.864 141.342 116.82C140.666 116.525 139.998 116.2 139.344 115.862L139.028 115.696C138.23 115.278 137.446 114.831 136.684 114.355C136.404 114.182 136.124 114.002 135.851 113.814C134.988 113.245 134.147 112.632 133.327 111.99C132.774 111.572 132.242 111.125 131.725 110.664C131.451 110.433 131.185 110.181 130.927 109.943C129.908 108.999 128.943 107.998 128.037 106.944C127.735 106.598 127.441 106.252 127.16 105.892C127.096 105.82 127.036 105.746 126.98 105.668C122.31 99.7576 119.501 92.5859 118.911 85.0677C118.322 77.5495 119.978 70.0255 123.669 63.4553C127.361 56.8851 132.919 51.5664 139.637 48.1776C146.354 44.7887 153.926 43.4832 161.386 44.4277C168.847 45.3722 175.857 48.5238 181.524 53.4805C187.192 58.4373 191.258 64.9745 193.206 72.2586C195.153 79.5427 194.893 87.2435 192.459 94.3789C190.025 101.514 185.527 107.761 179.539 112.322V112.322Z" fill="#35164A"/>
<path d="M184.28 153.674H128.984C127.225 153.673 125.538 152.971 124.295 151.723C123.052 150.475 122.354 148.783 122.354 147.019C122.354 145.255 123.052 143.564 124.295 142.316C125.538 141.068 127.225 140.366 128.984 140.365H184.28C185.152 140.364 186.015 140.535 186.821 140.869C187.627 141.204 188.359 141.694 188.976 142.312C189.592 142.93 190.082 143.664 190.415 144.471C190.749 145.279 190.921 146.145 190.921 147.019C190.921 147.894 190.749 148.76 190.415 149.567C190.082 150.375 189.592 151.109 188.976 151.727C188.359 152.345 187.627 152.835 186.821 153.169C186.015 153.504 185.152 153.675 184.28 153.674V153.674Z" fill="#7C3BA8"/>
<path d="M184.28 174.194H128.984C127.225 174.192 125.538 173.49 124.295 172.243C123.052 170.995 122.354 169.303 122.354 167.539C122.354 165.775 123.052 164.083 124.295 162.835C125.538 161.587 127.225 160.885 128.984 160.884H184.28C185.152 160.883 186.015 161.055 186.821 161.389C187.627 161.723 188.359 162.213 188.976 162.831C189.592 163.449 190.082 164.183 190.415 164.991C190.749 165.799 190.921 166.664 190.921 167.539C190.921 168.413 190.749 169.279 190.415 170.087C190.082 170.895 189.592 171.628 188.976 172.247C188.359 172.865 187.627 173.355 186.821 173.689C186.015 174.023 185.152 174.194 184.28 174.194V174.194Z" fill="#7C3BA8"/>
<path d="M154.696 203.309C158.361 203.309 161.332 200.33 161.332 196.654C161.332 192.979 158.361 189.999 154.696 189.999C151.032 189.999 148.061 192.979 148.061 196.654C148.061 200.33 151.032 203.309 154.696 203.309Z" fill="#35164A"/>
<path d="M187.212 196.654C184.072 195.486 180.175 193.492 177.76 191.38L179.462 196.099H167.414V197.208H179.462L177.76 201.929C180.175 199.817 184.072 197.823 187.212 196.654Z" fill="#35164A"/>
<path d="M122.18 196.654C125.321 195.486 129.218 193.492 131.633 191.38L129.931 196.099H141.978V197.208H129.931L131.633 201.929C129.218 199.817 125.321 197.823 122.18 196.654Z" fill="#35164A"/>
<path d="M339.533 227.404L0.467033 227.872C0.343168 227.872 0.224376 227.823 0.13679 227.735C0.0492048 227.647 0 227.528 0 227.404C0 227.28 0.0492048 227.16 0.13679 227.073C0.224376 226.985 0.343168 226.935 0.467033 226.935L339.533 226.467C339.657 226.467 339.776 226.516 339.863 226.604C339.951 226.692 340 226.811 340 226.935C340 227.06 339.951 227.179 339.863 227.267C339.776 227.355 339.657 227.404 339.533 227.404Z" fill="#35164A"/>
</g>
<defs>
<clipPath id="clip0">
<rect width="340" height="227.872" fill="white"/>
</clipPath>
</defs>
</svg>
