<svg width="191" height="114" viewBox="0 0 191 114" fill="none" xmlns="http://www.w3.org/2000/svg">
<path d="M190.625 0H0V113.934H190.625V0Z" fill="#3F3D56"/>
<path d="M47.1766 0C46.9817 11.9892 42.0945 23.4213 33.5688 31.8311C25.043 40.2409 13.5618 44.9547 1.60106 44.9559C1.06532 44.9559 0.532689 44.9465 6.10352e-05 44.9278V0H47.1766Z" fill="#6C63FF"/>
<path d="M104.637 113.934H86.507C87.1891 112.074 88.4241 110.469 90.0452 109.335C91.6663 108.201 93.5954 107.593 95.572 107.593C97.5487 107.593 99.4778 108.201 101.099 109.335C102.72 110.469 103.955 112.074 104.637 113.934Z" fill="#6C63FF"/>
<path d="M190.625 55.0013V93.3779C185.71 93.1371 181.076 91.0103 177.683 87.4382C174.29 83.8661 172.397 79.1224 172.397 74.1896C172.397 69.2568 174.29 64.5131 177.683 60.9409C181.076 57.3688 185.71 55.2421 190.625 55.0013Z" fill="#6C63FF"/>
<path d="M155.605 41.4007H35.3498C32.248 41.4007 29.7335 43.9215 29.7335 47.0311V47.0311C29.7335 50.1406 32.248 52.6615 35.3498 52.6615H155.605C158.707 52.6615 161.222 50.1406 161.222 47.0311C161.222 43.9215 158.707 41.4007 155.605 41.4007Z" fill="white"/>
<path d="M155.605 63.591H35.3498C32.248 63.591 29.7335 66.1119 29.7335 69.2214V69.2215C29.7335 72.331 32.248 74.8519 35.3498 74.8519H155.605C158.707 74.8519 161.222 72.331 161.222 69.2214C161.222 66.1119 158.707 63.591 155.605 63.591Z" fill="white"/>
<path d="M155.605 85.7815H120.738C117.636 85.7815 115.122 88.3023 115.122 91.4119C115.122 94.5214 117.636 97.0423 120.738 97.0423H155.605C158.707 97.0423 161.222 94.5214 161.222 91.4119C161.222 88.3023 158.707 85.7815 155.605 85.7815Z" fill="white"/>
</svg>
