<svg width="290" height="226" viewBox="0 0 290 226" fill="none" xmlns="http://www.w3.org/2000/svg">
<path d="M84.7287 0L38.5421 25.0173C39.3318 26.377 39.8407 27.8814 40.0384 29.4413C40.2361 31.0013 40.1187 32.585 39.6931 34.0988C39.2675 35.6125 38.5424 37.0254 37.5608 38.2538C36.5791 39.4821 35.3609 40.5009 33.9782 41.2498C32.5956 41.9988 31.0767 42.4625 29.5116 42.6136C27.9464 42.7648 26.3669 42.6002 24.8665 42.1297C23.3661 41.6592 21.9755 40.8923 20.7769 39.8744C19.5784 38.8566 18.5963 37.6085 17.889 36.2042L2.14062 44.7344L42.9336 120.046L125.522 75.3116L84.7287 0Z" fill="#F2F2F2"/>
<path d="M27.6803 40.4525C32.9463 40.4525 37.2152 36.1836 37.2152 30.9176C37.2152 25.6517 32.9463 21.3828 27.6803 21.3828C22.4144 21.3828 18.1455 25.6517 18.1455 30.9176C18.1455 36.1836 22.4144 40.4525 27.6803 40.4525Z" fill="#B952FF"/>
<path d="M200.705 201.615L250.643 185.326C250.111 183.846 249.881 182.275 249.968 180.705C250.054 179.135 250.455 177.598 251.146 176.186C251.837 174.773 252.805 173.514 253.992 172.483C255.179 171.451 256.561 170.669 258.056 170.181C259.55 169.693 261.128 169.511 262.695 169.644C264.262 169.777 265.786 170.224 267.177 170.957C268.568 171.69 269.798 172.695 270.793 173.912C271.789 175.129 272.53 176.533 272.973 178.042L290 172.488L263.439 91.0605L174.145 120.187L200.705 201.615Z" fill="#F2F2F2"/>
<path d="M262.389 191.013C267.655 191.013 271.924 186.745 271.924 181.479C271.924 176.213 267.655 171.944 262.389 171.944C257.123 171.944 252.854 176.213 252.854 181.479C252.854 186.745 257.123 191.013 262.389 191.013Z" fill="#B952FF"/>
<path d="M264.357 44.6724H33.7939V149.42H264.357V44.6724Z" fill="#3F3D56"/>
<path d="M260.554 48.476H37.5986V143.569H260.554V48.476Z" fill="white"/>
<path d="M237.877 139.033H216.226V146.348H237.877V139.033Z" fill="#3F3D56"/>
<path d="M215.056 144.593H199.256V146.641H215.056V144.593Z" fill="#B952FF"/>
<path d="M55.7383 84.465H140.883L154.083 90.8959L175.116 101.143L188.868 75.3946H227.783" stroke="#3F3D56" stroke-width="2" stroke-miterlimit="10"/>
<path d="M89.2188 84.465L95.5314 99.3872H111.039" stroke="#3F3D56" stroke-width="2" stroke-miterlimit="10"/>
<path d="M112.884 84.465L134.446 72.7613H149.661" stroke="#3F3D56" stroke-width="2" stroke-miterlimit="10"/>
<path d="M89.0943 87.0982C90.5486 87.0982 91.7276 85.9193 91.7276 84.4649C91.7276 83.0106 90.5486 81.8316 89.0943 81.8316C87.6399 81.8316 86.4609 83.0106 86.4609 84.4649C86.4609 85.9193 87.6399 87.0982 89.0943 87.0982Z" fill="#B952FF"/>
<path d="M113.672 87.0982C115.127 87.0982 116.306 85.9193 116.306 84.4649C116.306 83.0106 115.127 81.8316 113.672 81.8316C112.218 81.8316 111.039 83.0106 111.039 84.4649C111.039 85.9193 112.218 87.0982 113.672 87.0982Z" fill="#B952FF"/>
<path d="M154.05 90.902L155.805 116.943H171.02" stroke="#3F3D56" stroke-width="2" stroke-miterlimit="10"/>
<path d="M183.353 85.7211L166.632 72.7613H182.432" stroke="#3F3D56" stroke-width="2" stroke-miterlimit="10"/>
<path d="M210.974 75.3946L227.198 88.2687H242.412" stroke="#3F3D56" stroke-width="2" stroke-miterlimit="10"/>
<path d="M154.05 93.5353C155.505 93.5353 156.684 92.3563 156.684 90.9019C156.684 89.4476 155.505 88.2686 154.05 88.2686C152.596 88.2686 151.417 89.4476 151.417 90.9019C151.417 92.3563 152.596 93.5353 154.05 93.5353Z" fill="#B952FF"/>
<path d="M210.813 78.0279C212.267 78.0279 213.446 76.8489 213.446 75.3945C213.446 73.9402 212.267 72.7612 210.813 72.7612C209.359 72.7612 208.18 73.9402 208.18 75.3945C208.18 76.8489 209.359 78.0279 210.813 78.0279Z" fill="#B952FF"/>
<path d="M183.309 88.2686C184.763 88.2686 185.942 87.0896 185.942 85.6353C185.942 84.1809 184.763 83.002 183.309 83.002C181.855 83.002 180.676 84.1809 180.676 85.6353C180.676 87.0896 181.855 88.2686 183.309 88.2686Z" fill="#B952FF"/>
<path d="M95.8242 101.728H111.039" stroke="#3F3D56" stroke-width="2" stroke-miterlimit="10"/>
<path d="M236.866 26.4168C239.251 26.4168 241.184 24.4839 241.184 22.0994C241.184 19.715 239.251 17.7821 236.866 17.7821C234.482 17.7821 232.549 19.715 232.549 22.0994C232.549 24.4839 234.482 26.4168 236.866 26.4168Z" stroke="#3F3D56" stroke-width="2" stroke-miterlimit="10"/>
<path d="M44.474 225.348C69.0364 225.348 88.9481 221.68 88.9481 217.156C88.9481 212.631 69.0364 208.963 44.474 208.963C19.9117 208.963 0 212.631 0 217.156C0 221.68 19.9117 225.348 44.474 225.348Z" fill="#F2F2F2"/>
<path d="M75.0172 144.441L67.083 148.444L67.5965 149.466L75.5304 145.463L75.0172 144.441Z" fill="#B952FF"/>
<path d="M73.7277 136.995L73.3712 139.134C73.3712 139.134 73.9059 153.926 69.985 149.293C66.0641 144.659 68.7375 138.421 68.7375 138.421L69.8068 136.639L73.7277 136.995Z" fill="#FBBEBE"/>
<path d="M50.9145 68.5574C50.9145 68.5574 50.2016 76.0428 49.8451 76.3992C49.4887 76.7557 55.1918 83.5282 55.1918 83.5282L60.1821 78.8944C60.1821 78.8944 59.8256 72.1219 60.895 70.6961C61.9643 69.2703 50.9145 68.5574 50.9145 68.5574Z" fill="#FBBEBE"/>
<path opacity="0.1" d="M50.9145 68.5574C50.9145 68.5574 50.2016 76.0428 49.8451 76.3992C49.4887 76.7557 55.1918 83.5282 55.1918 83.5282L60.1821 78.8944C60.1821 78.8944 59.8256 72.1219 60.895 70.6961C61.9643 69.2703 50.9145 68.5574 50.9145 68.5574Z" fill="black"/>
<path d="M37.7266 205.076V211.492L35.2314 211.849L31.667 210.779L32.7361 204.007L37.7266 205.076Z" fill="#3F3D56"/>
<path d="M34.5184 208.284C34.5184 208.284 33.449 205.433 31.6668 205.789C29.8846 206.146 29.5281 208.284 29.5281 208.284C29.5281 208.284 28.1023 213.631 25.9637 215.413C23.825 217.195 21.6863 221.829 25.9637 222.542C30.241 223.255 33.8055 221.473 33.8055 221.116C33.8055 220.76 34.8748 218.621 36.6571 218.265C38.4393 217.908 39.8651 217.552 39.8651 216.126C39.8651 214.7 38.7957 213.275 38.7957 213.275C38.7957 213.275 38.4393 206.513 37.7264 207.399C37.2334 208.098 36.8711 208.881 36.6571 209.71L34.5184 208.284Z" fill="#2F2E41"/>
<path d="M53.0537 201.868L51.6279 207.215L55.1923 207.928L56.9745 206.146L57.3308 201.512L53.0537 201.868Z" fill="#3F3D56"/>
<path d="M52.6973 206.502C52.6973 206.502 54.1231 205.433 54.8359 205.433H55.9053C55.9053 205.433 55.9053 202.938 57.6875 202.938C59.4697 202.938 59.1133 204.72 59.1133 204.72C59.1133 204.72 63.0342 210.779 64.1035 211.849C65.1729 212.918 70.876 216.126 66.2422 217.552C61.6084 218.978 58.4004 218.978 56.2617 216.483C56.2617 216.483 54.1231 215.413 52.6973 215.413C51.2715 215.413 49.4893 214.7 49.4893 213.631C49.4893 212.562 50.5586 210.423 50.5586 210.423C50.5586 210.423 51.2715 204.007 51.6279 204.72C51.9844 205.433 52.6973 206.502 52.6973 206.502Z" fill="#2F2E41"/>
<path d="M37.3704 119.886V131.648C37.3704 131.648 33.4495 154.461 33.4495 161.946C33.4495 169.432 27.3899 205.076 30.2415 205.789C33.0931 206.502 39.8656 207.571 40.222 206.502C40.5785 205.433 43.0736 171.57 43.43 171.214C43.7865 170.857 51.2718 142.698 51.2718 142.698L52.6976 143.055L53.4105 175.135C53.4105 175.135 49.846 204.007 51.6283 204.007C53.4105 204.007 60.8959 203.65 60.8959 201.512C60.8959 199.373 64.8168 159.808 64.8168 159.808C64.8168 159.808 69.4506 128.44 67.6684 125.232C65.8861 122.024 65.8861 120.242 65.8861 120.242L37.3704 119.886Z" fill="#2F2E41"/>
<path d="M56.7959 74.0823C60.7331 74.0823 63.9248 70.8906 63.9248 66.9534C63.9248 63.0162 60.7331 59.8245 56.7959 59.8245C52.8587 59.8245 49.667 63.0162 49.667 66.9534C49.667 70.8906 52.8587 74.0823 56.7959 74.0823Z" fill="#FBBEBE"/>
<path d="M55.1924 79.2508C55.1924 79.2508 50.7369 75.5081 50.3804 74.0823C50.3804 74.0823 48.0635 76.3992 48.0635 76.7557C48.0635 77.1121 38.083 78.1815 35.5879 81.033C33.0928 83.8846 30.9541 89.9442 30.9541 89.9442L37.0137 101.35C37.0137 101.35 37.3701 107.766 37.3701 108.479C37.3701 109.192 35.5879 120.599 36.3008 120.955C37.0137 121.311 44.1426 124.876 50.2022 124.163C56.2618 123.45 62.3214 122.381 64.1036 122.381C65.8858 122.381 67.3116 123.094 67.3116 122.381C67.3116 121.668 66.2423 120.242 66.2423 119.529C66.2423 118.816 65.8858 117.034 65.8858 115.965C65.8858 114.895 65.1729 113.113 65.1729 111.687C65.1729 110.262 73.0147 91.0135 73.0147 91.0135C73.0147 91.0135 72.6583 84.9539 66.9552 82.1024C61.252 79.2508 60.5391 78.1815 60.5391 78.1815C60.5391 78.1815 60.428 76.0428 60.1271 76.0428C59.8262 76.0428 58.7569 79.2508 55.9053 79.6072L55.1924 79.2508Z" fill="#D0CDE1"/>
<path d="M35.9443 126.658L38.4396 130.579L44.8555 129.153L40.2217 123.807L35.9443 126.658Z" fill="#FBBEBE"/>
<path d="M70.876 88.162L73.0147 91.0135C73.0147 91.0135 77.292 111.687 76.5791 119.173C75.8662 126.658 75.1533 132.361 75.1533 132.361C75.1533 132.361 76.5791 137.708 75.5098 137.708C74.4404 137.708 68.0244 138.064 68.0244 136.995C68.0244 135.926 68.7373 129.153 68.7373 129.153L66.9551 113.47L63.0342 108.123L70.876 88.162Z" fill="#D0CDE1"/>
<path d="M51.9542 63.4924C52.3912 63.3072 52.8964 63.4575 53.3644 63.3785C53.914 63.2857 54.4057 62.8785 54.9606 62.9299C55.2236 62.9787 55.4791 63.0616 55.7206 63.1767C55.8417 63.2336 55.9732 63.2654 56.107 63.2702C56.2408 63.275 56.3742 63.2527 56.4991 63.2045C56.5586 63.1769 56.6113 63.1363 56.6532 63.0858C56.6951 63.0353 56.7253 62.9761 56.7415 62.9125C56.7577 62.8489 56.7596 62.7824 56.7469 62.718C56.7343 62.6536 56.7074 62.5928 56.6684 62.54C57.1379 62.4987 57.5818 62.3076 57.9345 61.995C58.0049 61.922 58.0864 61.8608 58.1762 61.8137C58.2808 61.7864 58.3899 61.7809 58.4967 61.7976C58.6036 61.8142 58.7058 61.8526 58.7972 61.9105L59.6128 62.2864C59.7966 62.3513 59.9582 62.4669 60.0789 62.6198C60.1759 62.7711 60.1949 62.9745 60.3323 63.0904C60.5077 63.2381 60.7698 63.1658 60.9986 63.1803C61.2064 63.2005 61.3995 63.2963 61.5413 63.4495C61.6832 63.6026 61.7638 63.8025 61.7681 64.0112C61.7648 64.2506 61.6778 64.5442 61.8671 64.6907C61.9769 64.7757 62.1328 64.7621 62.2614 64.8143C62.5948 64.9497 62.5961 65.4138 62.5469 65.7702C62.4976 66.1266 62.522 66.5969 62.8646 66.7066C63.1059 66.7839 63.3525 66.6192 63.6032 66.5824C63.9814 66.527 64.3313 66.7635 64.668 66.9445C65.0046 67.1255 65.4519 67.2476 65.7437 67.0007C66.0152 66.771 65.9978 66.3507 65.9231 66.003C65.8159 65.5044 65.6399 65.0231 65.4001 64.5731C65.3114 64.4406 65.2591 64.2872 65.2485 64.1281C65.2688 64.0161 65.3127 63.9097 65.3771 63.8159C65.4416 63.7221 65.5252 63.643 65.6224 63.5839C66.0349 63.2578 66.5094 62.9294 66.6429 62.4209C66.7409 62.0476 66.6307 61.6539 66.6392 61.2681C66.6496 60.7986 66.8362 60.3312 66.7487 59.8698C66.59 59.0335 65.6593 58.6311 65.0585 58.0281C64.2329 57.1995 63.9649 55.8743 62.9906 55.2272C62.2112 54.7095 61.1917 54.7713 60.3041 54.475C59.329 54.1496 58.5442 53.4021 57.5824 53.0394C57.0574 52.8458 56.4961 52.7708 55.9387 52.8197C55.3813 52.8685 54.8416 53.0402 54.3583 53.3222C54.0714 53.535 53.7511 53.6986 53.4105 53.8065C53.1237 53.8397 52.8338 53.8363 52.5478 53.7965C51.9793 53.7671 51.4128 53.884 50.9024 54.136C50.707 54.214 50.5443 54.3567 50.4414 54.5402C50.2692 54.9227 50.5194 55.5205 50.1419 55.7034C49.966 55.7887 49.7582 55.707 49.5627 55.7113C49.1825 55.7196 48.89 56.0504 48.7091 56.3849C48.5681 56.7385 48.3656 57.0644 48.1111 57.3475C47.6464 57.7545 46.8021 57.8217 46.6806 58.4274C46.6785 58.6838 46.693 58.9401 46.7242 59.1947C46.6891 59.7314 46.1147 60.1394 46.1447 60.6764C46.1793 61.2959 46.9663 61.5986 47.1767 62.1823C47.3369 62.6267 47.1261 63.1073 46.9811 63.5569C46.836 64.0065 46.7922 64.5828 47.1669 64.8706C47.3138 64.9835 47.5026 65.0297 47.6525 65.1387C48.0401 65.4206 48.0352 65.9896 47.9922 66.4671C47.9674 66.5662 47.9672 66.6698 47.9918 66.769C48.0163 66.8682 48.0648 66.9598 48.133 67.0359C48.197 67.0746 48.2686 67.0993 48.3428 67.1082C48.4171 67.1171 48.4925 67.1101 48.5638 67.0876C48.7966 67.0311 49.0154 66.9277 49.2068 66.7837C49.3981 66.6397 49.5581 66.4581 49.6768 66.2501C49.8016 66.0437 49.8267 65.8617 50.0535 65.7522C50.2074 65.6779 50.3943 65.7442 50.5509 65.6478C51.2961 65.189 51.0396 63.8801 51.9542 63.4924Z" fill="#2F2E41"/>
<path d="M32.0234 88.8748L30.954 89.9442C30.954 89.9442 24.538 109.192 26.6767 113.47C28.8154 117.747 33.0927 128.44 34.5185 128.084C35.9443 127.727 40.9345 124.519 40.9345 124.163C40.9345 123.807 34.8749 113.826 34.8749 113.826C34.8749 113.826 34.1621 111.687 34.5185 111.331C34.8749 110.975 34.8749 111.331 34.5185 110.618C34.1621 109.905 34.1621 110.618 34.8749 109.905C35.5878 109.192 35.5878 109.192 35.5878 108.836C35.5878 108.479 37.7265 99.5682 37.7265 99.5682L32.0234 88.8748Z" fill="#D0CDE1"/>
<path d="M37.5479 130.757L45.3899 128.262L46.459 130.757L37.9045 132.539L37.5479 130.757Z" fill="#2F2E41"/>
<path opacity="0.1" d="M37.5479 130.757L45.3899 128.262L46.459 130.757L37.9045 132.539L37.5479 130.757Z" fill="black"/>
<path opacity="0.1" d="M48.2412 76.934L54.3008 81.9241L55.0138 80.8547L48.2412 76.934Z" fill="black"/>
<path opacity="0.1" d="M60.3611 78.3598L56.084 80.8547L56.4404 81.9241L60.3611 78.3598Z" fill="black"/>
</svg>
