<svg width="270" height="187" viewBox="0 0 270 187" fill="none" xmlns="http://www.w3.org/2000/svg">
<rect width="270" height="187" fill="#E5E5E5"/>
<g id="Desktop - 1">
<rect width="1440" height="1446" transform="translate(-500 -324)" fill="#FBF7FD"/>
<g id="Main" filter="url(#filter0_d)">
<rect x="-9" y="-253" width="814" height="1013" rx="5" fill="white"/>
<g id="Book Card" filter="url(#filter1_d)">
<rect id="gradient" x="10" y="9" width="250" height="167" rx="9" fill="url(#paint0_linear)"/>
<g id="tree">
<path id="Vector" d="M48.1713 157.661C48.1769 158.477 48.0969 159.292 47.9327 160.091C47.8992 160.242 47.8658 160.389 47.8324 160.532C46.9421 164.098 44.4312 166.707 41.4358 166.874C41.3356 166.874 41.2353 166.874 41.1303 166.874C37.963 166.874 35.2851 164.143 34.3996 160.382C34.3757 160.282 34.3542 160.182 34.3303 160.082C34.1621 159.283 34.0781 158.468 34.0797 157.652C34.0797 152.557 37.2375 148.429 41.1303 148.429C45.0232 148.429 48.1713 152.567 48.1713 157.661Z" fill="#35164A"/>
<path id="Vector_2" d="M63.2129 140.48C63.2139 138.243 62.6881 136.038 61.6782 134.041L53.3841 136.619L60.6638 132.341C59.4435 130.578 57.8425 129.111 55.9789 128.05C54.1153 126.988 52.0368 126.358 49.897 126.207C49.5552 125.684 49.1797 125.183 48.7728 124.709L36.8532 128.413L46.6247 122.684C44.7574 121.251 42.5653 120.3 40.2425 119.916C37.9197 119.531 35.5377 119.725 33.3076 120.479C31.0775 121.234 29.0681 122.526 27.4571 124.242C25.8462 125.958 24.6835 128.044 24.0719 130.316L34.2755 142.05L23.196 134.056C20.3817 136.037 18.3754 138.966 17.5442 142.304C16.713 145.643 17.1124 149.169 18.6694 152.237C20.2263 155.306 22.8367 157.712 26.0232 159.015C29.2096 160.319 32.7592 160.432 36.0226 159.335C38.9708 160.414 42.1913 160.5 45.1926 159.579C47.2865 160.038 49.4569 160.023 51.5442 159.535C53.6315 159.046 55.5826 158.096 57.2541 156.755C58.9255 155.413 60.2749 153.715 61.2028 151.783C62.1307 149.852 62.6137 147.738 62.6162 145.596C62.6162 145.276 62.6042 144.962 62.5828 144.642C62.9972 143.293 63.2095 141.891 63.2129 140.48Z" fill="#2EC32E"/>
<path id="Vector_3" opacity="0.1" d="M62.9645 143.137C58.5855 142.308 54.0952 142.251 49.6964 142.968C44.7175 143.793 39.6289 145.603 34.7599 144.28C31.8957 143.502 29.4278 141.706 26.6448 140.702C23.9488 139.764 21.0448 139.594 18.2576 140.211C17.1945 142.749 16.8855 145.54 17.3676 148.249C17.8497 150.959 19.1026 153.472 20.9764 155.488C22.8501 157.505 25.2655 158.94 27.9337 159.621C30.602 160.303 33.4101 160.202 36.0225 159.33C38.9701 160.411 42.1907 160.498 45.1925 159.579C47.2864 160.038 49.4567 160.023 51.544 159.535C53.6313 159.046 55.5825 158.096 57.2539 156.755C58.9254 155.413 60.2747 153.715 61.2027 151.783C62.1306 149.852 62.6136 147.738 62.6161 145.596C62.6161 145.276 62.6041 144.962 62.5826 144.642C62.7384 144.148 62.8659 143.646 62.9645 143.137Z" fill="black"/>
</g>
<path id="coud" d="M194.725 46.0536C186.344 45.7057 178.709 42.3256 175.255 37.0891C175.093 36.844 174.941 36.5955 174.798 36.3435C173.537 34.1123 173.143 31.5474 174.522 29.3486C175.901 27.1498 179.348 25.4799 182.804 25.827C186.26 26.1741 188.963 28.9311 187.532 31.1133C187.215 26.7031 186.95 22.069 190.508 18.2304C192.467 16.2241 195.022 14.9045 197.792 14.4684C204.961 13.2081 209.721 17.2595 210.674 21.3472C211.377 24.3667 210.406 27.4352 209.438 30.4231C212.42 26.8992 219.511 25.3313 224.945 26.9956C230.378 28.6599 233.389 33.3209 231.533 37.1951C229.347 41.7524 222.06 44.1078 215.291 45.3531C209.7 46.3817 201.319 46.3272 194.725 46.0536Z" fill="#F2F2F2"/>
<g id="caendar">
<path id="Rectangle 4" d="M82.2892 59.6844H198.685V126.781C198.685 130.647 195.551 133.781 191.685 133.781H89.2892C85.4232 133.781 82.2892 130.647 82.2892 126.781V59.6844Z" fill="#E2DFE4"/>
<path id="Vector_4" d="M198.685 45.3335V59.6844H198.339V59.5315H82.6351V59.6844H82.2892V45.3335C82.2907 43.6813 82.8925 42.0973 83.9625 40.929C85.0325 39.7608 86.4833 39.1037 87.9966 39.1021H192.978C194.491 39.1037 195.942 39.7608 197.012 40.929C198.082 42.0973 198.684 43.6813 198.685 45.3335Z" fill="#9A15F5"/>
<path id="Vector_5" d="M105.944 53.0981C107.81 53.0981 109.323 51.4394 109.323 49.3933C109.323 47.3472 107.81 45.6885 105.944 45.6885C104.078 45.6885 102.565 47.3472 102.565 49.3933C102.565 51.4394 104.078 53.0981 105.944 53.0981Z" fill="#C78BF1"/>
<path id="Vector_6" d="M175.03 53.0981C176.897 53.0981 178.41 51.4394 178.41 49.3933C178.41 47.3472 176.897 45.6885 175.03 45.6885C173.164 45.6885 171.651 47.3472 171.651 49.3933C171.651 51.4394 173.164 53.0981 175.03 53.0981Z" fill="#C78BF1"/>
<path id="Vector_7" d="M151.015 91.7928H129.959C129.067 91.7917 128.212 91.4065 127.581 90.7216C126.951 90.0367 126.596 89.1081 126.595 88.1395V77.3337C126.596 76.3651 126.951 75.4365 127.581 74.7516C128.212 74.0667 129.067 73.6815 129.959 73.6804H151.015C151.907 73.6815 152.762 74.0667 153.393 74.7516C154.024 75.4365 154.379 76.3651 154.38 77.3337V88.1395C154.379 89.1081 154.024 90.0367 153.393 90.7216C152.762 91.4065 151.907 91.7917 151.015 91.7928Z" fill="#9A15F5"/>
<path id="Vector_8" d="M150.938 119.785H130.036C129.124 119.784 128.249 119.392 127.604 118.694C126.959 117.997 126.596 117.052 126.595 116.066V105.391C126.596 104.405 126.959 103.46 127.604 102.763C128.249 102.066 129.124 101.673 130.036 101.672H150.938C151.851 101.673 152.725 102.066 153.371 102.763C154.016 103.46 154.379 104.405 154.38 105.391V116.066C154.379 117.052 154.016 117.997 153.371 118.694C152.725 119.392 151.851 119.784 150.938 119.785Z" fill="#FBF7FD"/>
<path id="Vector_9" d="M115.737 119.785H95.3996C94.5119 119.784 93.6609 119.392 93.0332 118.694C92.4055 117.997 92.0524 117.052 92.0514 116.066V105.391C92.0524 104.405 92.4055 103.46 93.0332 102.763C93.6609 102.066 94.5119 101.673 95.3996 101.672H115.737C116.625 101.673 117.476 102.066 118.104 102.763C118.731 103.46 119.084 104.405 119.085 105.391V116.066C119.084 117.052 118.731 117.997 118.104 118.694C117.476 119.392 116.625 119.784 115.737 119.785Z" fill="#FBF7FD"/>
<path id="Vector_10" d="M115.737 91.7928H95.3996C94.5119 91.7917 93.6609 91.3996 93.0332 90.7025C92.4055 90.0053 92.0524 89.0602 92.0514 88.0743V77.3989C92.0524 76.413 92.4055 75.4679 93.0332 74.7707C93.6609 74.0736 94.5119 73.6815 95.3996 73.6804H115.737C116.625 73.6815 117.476 74.0736 118.104 74.7707C118.731 75.4679 119.084 76.413 119.085 77.3989V88.0743C119.084 89.0602 118.731 90.0053 118.104 90.7025C117.476 91.3996 116.625 91.7917 115.737 91.7928Z" fill="#FBF7FD"/>
<path id="Vector_11" d="M185.575 119.785H165.237C164.349 119.784 163.498 119.392 162.871 118.694C162.243 117.997 161.89 117.052 161.889 116.066V105.391C161.89 104.405 162.243 103.46 162.871 102.763C163.498 102.066 164.349 101.673 165.237 101.672H185.575C186.462 101.673 187.313 102.066 187.941 102.763C188.569 103.46 188.922 104.405 188.923 105.391V116.066C188.922 117.052 188.569 117.997 187.941 118.694C187.313 119.392 186.462 119.784 185.575 119.785Z" fill="#FBF7FD"/>
<path id="Vector_12" d="M185.575 91.7928H165.237C164.349 91.7917 163.498 91.3996 162.871 90.7025C162.243 90.0053 161.89 89.0602 161.889 88.0743V77.3989C161.89 76.413 162.243 75.4679 162.871 74.7707C163.498 74.0736 164.349 73.6815 165.237 73.6804H185.575C186.462 73.6815 187.313 74.0736 187.941 74.7707C188.569 75.4679 188.922 76.413 188.923 77.3989V88.0743C188.922 89.0602 188.569 90.0053 187.941 90.7025C187.313 91.3996 186.462 91.7917 185.575 91.7928Z" fill="#FBF7FD"/>
<path id="Vector_13" d="M140.311 87.879C143.325 87.879 145.767 85.4378 145.767 82.4263C145.767 79.4148 143.325 76.9736 140.311 76.9736C137.298 76.9736 134.855 79.4148 134.855 82.4263C134.855 85.4378 137.298 87.879 140.311 87.879Z" fill="white"/>
<path id="Vector_14" d="M139.817 84.9374C139.68 84.9377 139.548 84.8904 139.438 84.8028L139.432 84.7973L138.007 83.6287C137.874 83.5193 137.787 83.3577 137.765 83.1794C137.742 83.0011 137.787 82.8207 137.89 82.6779C137.992 82.5352 138.143 82.4417 138.309 82.4181C138.475 82.3945 138.644 82.4427 138.777 82.5521L139.7 83.3102L141.88 80.2632C141.931 80.1925 141.994 80.1332 142.066 80.0886C142.138 80.0441 142.217 80.0151 142.3 80.0035C142.382 79.9918 142.466 79.9977 142.546 80.0207C142.627 80.0437 142.702 80.0835 142.768 80.1376C142.901 80.2472 142.988 80.4091 143.01 80.5874C143.032 80.7656 142.987 80.9459 142.885 81.0887L140.32 84.6728C140.261 84.7553 140.185 84.8222 140.097 84.8681C140.01 84.914 139.914 84.9377 139.817 84.9374Z" fill="#2EC32E"/>
</g>
</g>
<g id="Services Card v2" filter="url(#filter2_d)">
</g>
</g>
</g>
<defs>
<filter id="filter0_d" x="-29" y="-273" width="854" height="1053" filterUnits="userSpaceOnUse" color-interpolation-filters="sRGB">
<feFlood flood-opacity="0" result="BackgroundImageFix"/>
<feColorMatrix in="SourceAlpha" type="matrix" values="0 0 0 0 0 0 0 0 0 0 0 0 0 0 0 0 0 0 127 0"/>
<feOffset/>
<feGaussianBlur stdDeviation="10"/>
<feColorMatrix type="matrix" values="0 0 0 0 0 0 0 0 0 0 0 0 0 0 0 0 0 0 0.25 0"/>
<feBlend mode="normal" in2="BackgroundImageFix" result="effect1_dropShadow"/>
<feBlend mode="normal" in="SourceGraphic" in2="effect1_dropShadow" result="shape"/>
</filter>
<filter id="filter1_d" x="0" y="0" width="270" height="187" filterUnits="userSpaceOnUse" color-interpolation-filters="sRGB">
<feFlood flood-opacity="0" result="BackgroundImageFix"/>
<feColorMatrix in="SourceAlpha" type="matrix" values="0 0 0 0 0 0 0 0 0 0 0 0 0 0 0 0 0 0 127 0"/>
<feOffset dy="1"/>
<feGaussianBlur stdDeviation="5"/>
<feColorMatrix type="matrix" values="0 0 0 0 0 0 0 0 0 0 0 0 0 0 0 0 0 0 0.25 0"/>
<feBlend mode="normal" in2="BackgroundImageFix" result="effect1_dropShadow"/>
<feBlend mode="normal" in="SourceGraphic" in2="effect1_dropShadow" result="shape"/>
</filter>
<filter id="filter2_d" x="267" y="0" width="269" height="187" filterUnits="userSpaceOnUse" color-interpolation-filters="sRGB">
<feFlood flood-opacity="0" result="BackgroundImageFix"/>
<feColorMatrix in="SourceAlpha" type="matrix" values="0 0 0 0 0 0 0 0 0 0 0 0 0 0 0 0 0 0 127 0"/>
<feOffset dy="1"/>
<feGaussianBlur stdDeviation="5"/>
<feColorMatrix type="matrix" values="0 0 0 0 0 0 0 0 0 0 0 0 0 0 0 0 0 0 0.25 0"/>
<feBlend mode="normal" in2="BackgroundImageFix" result="effect1_dropShadow"/>
<feBlend mode="normal" in="SourceGraphic" in2="effect1_dropShadow" result="shape"/>
</filter>
<linearGradient id="paint0_linear" x1="39.878" y1="29.1131" x2="246.532" y2="162.064" gradientUnits="userSpaceOnUse">
<stop stop-color="#9A15F5"/>
<stop offset="1"/>
</linearGradient>
</defs>
</svg>
