<svg width="270" height="187" viewBox="0 0 270 187" fill="none" xmlns="http://www.w3.org/2000/svg">
<g id="Book Card" filter="url(#filter0_d)">
<rect id="gradient" x="10" y="9" width="250" height="167" rx="9" fill="url(#paint0_linear)"/>
<g id="Go Button" filter="url(#filter1_d)">
<path id="Ellipse 2" d="M247.452 156.5C247.452 161.766 243.181 166.034 237.912 166.034C232.642 166.034 228.371 161.766 228.371 156.5C228.371 151.235 232.642 146.966 237.912 146.966C243.181 146.966 247.452 151.235 247.452 156.5Z" fill="white" stroke="#62268B"/>
<g id="Arrow Right">
<path id="Arrow Right_2" d="M241.51 156.89L236.908 161.356C236.687 161.571 236.327 161.571 236.105 161.356L235.568 160.835C235.346 160.62 235.346 160.272 235.567 160.056L239.214 156.5L235.567 152.945C235.346 152.729 235.346 152.381 235.568 152.166L236.105 151.645C236.327 151.43 236.687 151.43 236.908 151.645L241.51 156.11C241.732 156.326 241.732 156.675 241.51 156.89Z" fill="#35164A"/>
</g>
</g>
<path id="&#208;&#151;&#208;&#144;&#208;&#159;&#208;&#152;&#208;&#168;&#208;&#152;&#208;&#161;&#208;&#172;" d="M108.342 154.298C108.342 153.974 108.215 153.72 107.961 153.537C107.707 153.349 107.372 153.255 106.954 153.255C106.579 153.255 106.266 153.349 106.016 153.537C105.77 153.72 105.647 153.96 105.647 154.257H103.889C103.889 153.796 104.018 153.382 104.276 153.015C104.538 152.644 104.907 152.355 105.383 152.148C105.864 151.941 106.387 151.837 106.954 151.837C107.938 151.837 108.709 152.048 109.268 152.47C109.827 152.892 110.106 153.49 110.106 154.263C110.106 154.642 109.991 154.994 109.76 155.318C109.534 155.642 109.209 155.902 108.788 156.097C109.256 156.261 109.616 156.511 109.866 156.847C110.116 157.179 110.241 157.593 110.241 158.089C110.241 158.855 109.94 159.464 109.338 159.917C108.741 160.367 107.946 160.591 106.954 160.591C106.332 160.591 105.774 160.486 105.278 160.275C104.782 160.06 104.405 159.769 104.147 159.402C103.893 159.031 103.766 158.601 103.766 158.113H105.536C105.536 158.417 105.668 158.673 105.934 158.88C106.2 159.083 106.539 159.185 106.954 159.185C107.422 159.185 107.791 159.08 108.061 158.869C108.334 158.658 108.471 158.39 108.471 158.066C108.471 157.621 108.35 157.302 108.108 157.111C107.866 156.916 107.512 156.818 107.047 156.818H105.998V155.441H107.082C107.922 155.429 108.342 155.048 108.342 154.298ZM117.158 158.722H114.076L113.49 160.48H111.621L114.797 151.949H116.425L119.619 160.48H117.75L117.158 158.722ZM114.55 157.298H116.683L115.611 154.105L114.55 157.298ZM128.165 160.48H126.401V153.373H122.985V160.48H121.227V151.949H128.165V160.48ZM135.627 151.949H137.391V160.48H135.627V154.814L132.211 160.48H130.453V151.949H132.211V157.626L135.627 151.949ZM141.466 151.949V159.068H143.833V151.949H145.597V159.068H147.941V151.949H149.698V160.48H139.702V151.949H141.466ZM157.137 151.949H158.901V160.48H157.137V154.814L153.721 160.48H151.963V151.949H153.721V157.626L157.137 151.949ZM167.922 157.638C167.855 158.556 167.515 159.279 166.902 159.806C166.293 160.333 165.488 160.597 164.488 160.597C163.394 160.597 162.533 160.23 161.904 159.496C161.279 158.757 160.966 157.746 160.966 156.46V155.939C160.966 155.119 161.111 154.396 161.4 153.771C161.689 153.146 162.101 152.667 162.636 152.335C163.175 152 163.8 151.832 164.511 151.832C165.496 151.832 166.289 152.095 166.89 152.623C167.492 153.15 167.839 153.89 167.933 154.843H166.175C166.132 154.292 165.978 153.894 165.713 153.648C165.451 153.398 165.05 153.273 164.511 153.273C163.925 153.273 163.486 153.484 163.193 153.906C162.904 154.324 162.756 154.974 162.748 155.857V156.501C162.748 157.423 162.886 158.097 163.164 158.523C163.445 158.949 163.886 159.162 164.488 159.162C165.031 159.162 165.435 159.039 165.701 158.792C165.97 158.542 166.125 158.158 166.164 157.638H167.922ZM171.634 155.025H173.005C174.009 155.025 174.804 155.269 175.389 155.757C175.979 156.242 176.274 156.896 176.274 157.72C176.274 158.548 175.981 159.214 175.395 159.718C174.813 160.218 174.038 160.472 173.069 160.48H169.864V151.949H171.634V155.025ZM171.634 156.443V159.068H173.034C173.483 159.068 173.841 158.945 174.106 158.699C174.376 158.453 174.511 158.123 174.511 157.708C174.511 157.322 174.382 157.017 174.124 156.794C173.87 156.568 173.52 156.451 173.075 156.443H171.634Z" fill="#FBF7FD"/>
<g id="tree">
<path id="Vector" d="M48.1713 157.661C48.1769 158.477 48.0969 159.292 47.9327 160.091C47.8992 160.242 47.8658 160.389 47.8324 160.532C46.9421 164.098 44.4312 166.707 41.4358 166.874C41.3356 166.874 41.2353 166.874 41.1303 166.874C37.963 166.874 35.2851 164.143 34.3996 160.382C34.3757 160.282 34.3542 160.182 34.3303 160.082C34.1621 159.283 34.0781 158.468 34.0797 157.652C34.0797 152.557 37.2375 148.429 41.1303 148.429C45.0232 148.429 48.1713 152.567 48.1713 157.661Z" fill="#35164A"/>
<path id="Vector_2" d="M63.2129 140.48C63.2139 138.243 62.6881 136.038 61.6782 134.041L53.3841 136.619L60.6638 132.341C59.4435 130.578 57.8425 129.111 55.9789 128.05C54.1153 126.988 52.0368 126.358 49.897 126.207C49.5552 125.684 49.1797 125.183 48.7728 124.709L36.8532 128.413L46.6247 122.684C44.7574 121.251 42.5653 120.3 40.2425 119.916C37.9197 119.531 35.5377 119.725 33.3076 120.479C31.0775 121.234 29.0681 122.526 27.4571 124.242C25.8462 125.958 24.6835 128.044 24.0719 130.316L34.2755 142.05L23.196 134.056C20.3817 136.037 18.3754 138.966 17.5442 142.304C16.713 145.643 17.1124 149.169 18.6694 152.237C20.2263 155.306 22.8367 157.712 26.0232 159.015C29.2096 160.319 32.7592 160.432 36.0226 159.335C38.9708 160.414 42.1913 160.5 45.1926 159.579C47.2865 160.038 49.4569 160.023 51.5442 159.535C53.6315 159.046 55.5826 158.096 57.2541 156.755C58.9255 155.413 60.2749 153.715 61.2028 151.783C62.1307 149.852 62.6137 147.738 62.6162 145.596C62.6162 145.276 62.6042 144.962 62.5828 144.642C62.9972 143.293 63.2095 141.891 63.2129 140.48Z" fill="#2EC32E"/>
<path id="Vector_3" opacity="0.1" d="M62.9645 143.137C58.5855 142.308 54.0952 142.251 49.6964 142.968C44.7175 143.793 39.6289 145.603 34.7599 144.279C31.8957 143.502 29.4278 141.706 26.6448 140.702C23.9488 139.764 21.0448 139.594 18.2576 140.211C17.1945 142.749 16.8855 145.54 17.3676 148.249C17.8497 150.959 19.1026 153.472 20.9764 155.488C22.8501 157.505 25.2655 158.94 27.9337 159.621C30.602 160.303 33.4101 160.202 36.0225 159.33C38.9701 160.411 42.1907 160.498 45.1925 159.579C47.2864 160.038 49.4567 160.023 51.544 159.535C53.6313 159.046 55.5825 158.096 57.2539 156.755C58.9254 155.413 60.2747 153.714 61.2027 151.783C62.1306 149.852 62.6136 147.738 62.6161 145.596C62.6161 145.276 62.6041 144.962 62.5826 144.642C62.7384 144.148 62.8659 143.646 62.9645 143.137Z" fill="black"/>
</g>
<path id="coud" d="M194.725 46.0536C186.344 45.7057 178.709 42.3256 175.255 37.0891C175.093 36.844 174.941 36.5955 174.798 36.3435C173.537 34.1123 173.143 31.5474 174.522 29.3486C175.901 27.1498 179.348 25.4799 182.804 25.827C186.26 26.1741 188.963 28.9311 187.532 31.1133C187.215 26.703 186.95 22.069 190.508 18.2304C192.467 16.2241 195.022 14.9045 197.792 14.4684C204.961 13.2081 209.721 17.2594 210.674 21.3471C211.377 24.3667 210.406 27.4352 209.438 30.4231C212.42 26.8991 219.511 25.3312 224.945 26.9956C230.378 28.6599 233.389 33.3209 231.533 37.1951C229.347 41.7524 222.06 44.1078 215.291 45.3531C209.7 46.3817 201.319 46.3272 194.725 46.0536Z" fill="#F2F2F2"/>
<g id="caendar">
<path id="Rectangle 4" d="M82.2892 59.6844H198.685V126.781C198.685 130.647 195.551 133.781 191.685 133.781H89.2892C85.4232 133.781 82.2892 130.647 82.2892 126.781V59.6844Z" fill="#E2DFE4"/>
<path id="Vector_4" d="M198.685 45.3335V59.6844H198.339V59.5315H82.6351V59.6844H82.2892V45.3335C82.2907 43.6813 82.8925 42.0973 83.9625 40.929C85.0325 39.7608 86.4833 39.1037 87.9966 39.1021H192.978C194.491 39.1037 195.942 39.7608 197.012 40.929C198.082 42.0973 198.684 43.6813 198.685 45.3335Z" fill="#9A15F5"/>
<path id="Vector_5" d="M192.978 39.1021H87.9966C86.4833 39.1037 85.0325 39.7626 83.9625 40.9341C82.8925 42.1057 82.2907 43.6941 82.2892 45.3509V127.532C82.2907 129.189 82.8925 130.777 83.9625 131.949C85.0325 133.12 86.4833 133.779 87.9966 133.781H192.978C194.491 133.779 195.942 133.12 197.012 131.949C198.082 130.777 198.684 129.189 198.685 127.532V45.3509C198.684 43.6941 198.082 42.1057 197.012 40.9341C195.942 39.7626 194.491 39.1037 192.978 39.1021ZM198.339 127.532C198.337 129.088 197.772 130.58 196.767 131.68C195.762 132.781 194.399 133.4 192.978 133.402H87.9966C86.5752 133.4 85.2125 132.781 84.2074 131.68C83.2023 130.58 82.6369 129.088 82.6351 127.532V45.3509C82.6369 43.7947 83.2023 42.3027 84.2074 41.2023C85.2125 40.1019 86.5752 39.4828 87.9966 39.4808H192.978C194.399 39.4828 195.762 40.1019 196.767 41.2023C197.772 42.3027 198.337 43.7947 198.339 45.3509V127.532Z" fill="#3F3D56"/>
<path id="Vector_6" d="M105.944 53.0981C107.81 53.0981 109.323 51.4394 109.323 49.3933C109.323 47.3472 107.81 45.6885 105.944 45.6885C104.078 45.6885 102.565 47.3472 102.565 49.3933C102.565 51.4394 104.078 53.0981 105.944 53.0981Z" fill="#C78BF1"/>
<path id="Vector_7" d="M175.03 53.0981C176.897 53.0981 178.41 51.4394 178.41 49.3933C178.41 47.3472 176.897 45.6885 175.03 45.6885C173.164 45.6885 171.651 47.3472 171.651 49.3933C171.651 51.4394 173.164 53.0981 175.03 53.0981Z" fill="#C78BF1"/>
<path id="Vector_8" d="M151.015 91.7928H129.959C129.067 91.7917 128.212 91.4064 127.581 90.7215C126.951 90.0367 126.596 89.1081 126.595 88.1395V77.3337C126.596 76.3651 126.951 75.4365 127.581 74.7516C128.212 74.0667 129.067 73.6815 129.959 73.6804H151.015C151.907 73.6815 152.762 74.0667 153.393 74.7516C154.024 75.4365 154.379 76.3651 154.38 77.3337V88.1395C154.379 89.1081 154.024 90.0367 153.393 90.7215C152.762 91.4064 151.907 91.7917 151.015 91.7928Z" fill="#9A15F5"/>
<path id="Vector_9" d="M150.938 119.785H130.036C129.124 119.784 128.249 119.391 127.604 118.694C126.959 117.997 126.596 117.052 126.595 116.066V105.391C126.596 104.405 126.959 103.46 127.604 102.763C128.249 102.066 129.124 101.673 130.036 101.672H150.938C151.851 101.673 152.725 102.066 153.371 102.763C154.016 103.46 154.379 104.405 154.38 105.391V116.066C154.379 117.052 154.016 117.997 153.371 118.694C152.725 119.391 151.851 119.784 150.938 119.785Z" fill="#F7F0FB"/>
<path id="Vector_10" d="M115.737 119.785H95.3996C94.5119 119.784 93.6609 119.391 93.0332 118.694C92.4055 117.997 92.0524 117.052 92.0514 116.066V105.391C92.0524 104.405 92.4055 103.46 93.0332 102.763C93.6609 102.066 94.5119 101.673 95.3996 101.672H115.737C116.625 101.673 117.476 102.066 118.104 102.763C118.731 103.46 119.084 104.405 119.085 105.391V116.066C119.084 117.052 118.731 117.997 118.104 118.694C117.476 119.391 116.625 119.784 115.737 119.785Z" fill="#F7F0FB"/>
<path id="Vector_11" d="M115.737 91.7928H95.3996C94.5119 91.7917 93.6609 91.3995 93.0332 90.7024C92.4055 90.0053 92.0524 89.0601 92.0514 88.0743V77.3989C92.0524 76.413 92.4055 75.4678 93.0332 74.7707C93.6609 74.0736 94.5119 73.6815 95.3996 73.6804H115.737C116.625 73.6815 117.476 74.0736 118.104 74.7707C118.731 75.4678 119.084 76.413 119.085 77.3989V88.0743C119.084 89.0601 118.731 90.0053 118.104 90.7024C117.476 91.3995 116.625 91.7917 115.737 91.7928Z" fill="#F7F0FB"/>
<path id="Vector_12" d="M185.575 119.785H165.237C164.349 119.784 163.498 119.391 162.871 118.694C162.243 117.997 161.89 117.052 161.889 116.066V105.391C161.89 104.405 162.243 103.46 162.871 102.763C163.498 102.066 164.349 101.673 165.237 101.672H185.575C186.462 101.673 187.313 102.066 187.941 102.763C188.569 103.46 188.922 104.405 188.923 105.391V116.066C188.922 117.052 188.569 117.997 187.941 118.694C187.313 119.391 186.462 119.784 185.575 119.785Z" fill="#F7F0FB"/>
<path id="Vector_13" d="M185.575 91.7928H165.237C164.349 91.7917 163.498 91.3995 162.871 90.7024C162.243 90.0053 161.89 89.0601 161.889 88.0743V77.3989C161.89 76.413 162.243 75.4678 162.871 74.7707C163.498 74.0736 164.349 73.6815 165.237 73.6804H185.575C186.462 73.6815 187.313 74.0736 187.941 74.7707C188.569 75.4678 188.922 76.413 188.923 77.3989V88.0743C188.922 89.0601 188.569 90.0053 187.941 90.7024C187.313 91.3996 186.462 91.7917 185.575 91.7928Z" fill="#F7F0FB"/>
<path id="Vector_14" d="M140.311 87.879C143.325 87.879 145.767 85.4378 145.767 82.4263C145.767 79.4148 143.325 76.9736 140.311 76.9736C137.298 76.9736 134.855 79.4148 134.855 82.4263C134.855 85.4378 137.298 87.879 140.311 87.879Z" fill="white"/>
<path id="Vector_15" d="M139.817 84.9374C139.68 84.9376 139.548 84.8904 139.438 84.8027L139.432 84.7973L138.007 83.6286C137.874 83.5193 137.787 83.3576 137.765 83.1793C137.742 83.001 137.787 82.8207 137.89 82.6779C137.992 82.5351 138.143 82.4417 138.309 82.4181C138.475 82.3945 138.644 82.4427 138.777 82.552L139.7 83.3102L141.88 80.2631C141.931 80.1925 141.994 80.1331 142.066 80.0886C142.138 80.044 142.217 80.0151 142.3 80.0035C142.382 79.9918 142.466 79.9976 142.546 80.0207C142.627 80.0437 142.702 80.0834 142.768 80.1376C142.901 80.2472 142.988 80.4091 143.01 80.5874C143.032 80.7656 142.987 80.9459 142.885 81.0887L140.32 84.6727C140.261 84.7553 140.185 84.8222 140.097 84.8681C140.01 84.9139 139.914 84.9377 139.817 84.9374Z" fill="#2EC32E"/>
</g>
</g>
<defs>
<filter id="filter0_d" x="0" y="0" width="270" height="187" filterUnits="userSpaceOnUse" color-interpolation-filters="sRGB">
<feFlood flood-opacity="0" result="BackgroundImageFix"/>
<feColorMatrix in="SourceAlpha" type="matrix" values="0 0 0 0 0 0 0 0 0 0 0 0 0 0 0 0 0 0 127 0"/>
<feOffset dy="1"/>
<feGaussianBlur stdDeviation="5"/>
<feColorMatrix type="matrix" values="0 0 0 0 0 0 0 0 0 0 0 0 0 0 0 0 0 0 0.25 0"/>
<feBlend mode="normal" in2="BackgroundImageFix" result="effect1_dropShadow"/>
<feBlend mode="normal" in="SourceGraphic" in2="effect1_dropShadow" result="shape"/>
</filter>
<filter id="filter1_d" x="222.871" y="141.466" width="30.0803" height="30.0681" filterUnits="userSpaceOnUse" color-interpolation-filters="sRGB">
<feFlood flood-opacity="0" result="BackgroundImageFix"/>
<feColorMatrix in="SourceAlpha" type="matrix" values="0 0 0 0 0 0 0 0 0 0 0 0 0 0 0 0 0 0 127 0"/>
<feOffset/>
<feGaussianBlur stdDeviation="2.5"/>
<feColorMatrix type="matrix" values="0 0 0 0 0 0 0 0 0 0 0 0 0 0 0 0 0 0 0.25 0"/>
<feBlend mode="normal" in2="BackgroundImageFix" result="effect1_dropShadow"/>
<feBlend mode="normal" in="SourceGraphic" in2="effect1_dropShadow" result="shape"/>
</filter>
<linearGradient id="paint0_linear" x1="39.878" y1="29.1131" x2="246.532" y2="162.064" gradientUnits="userSpaceOnUse">
<stop stop-color="#9A15F5"/>
<stop offset="1"/>
</linearGradient>
</defs>
</svg>
