<svg width="250" height="167" viewBox="0 0 250 167" fill="none" xmlns="http://www.w3.org/2000/svg">
<g id="book-card">
<rect id="gradient" width="250" height="167" rx="9" fill="url(#paint0_linear)"/>
<g id="Go Button" filter="url(#filter0_d)">
<path id="Ellipse 2" d="M237.452 147.5C237.452 152.766 233.181 157.034 227.912 157.034C222.642 157.034 218.371 152.766 218.371 147.5C218.371 142.235 222.642 137.966 227.912 137.966C233.181 137.966 237.452 142.235 237.452 147.5Z" fill="white" stroke="#62268B"/>
<g id="Arrow Right">
<path id="Arrow Right_2" d="M231.51 147.89L226.908 152.356C226.687 152.571 226.327 152.571 226.105 152.356L225.568 151.835C225.346 151.62 225.346 151.272 225.567 151.056L229.214 147.5L225.567 143.945C225.346 143.729 225.346 143.381 225.568 143.166L226.105 142.645C226.327 142.43 226.687 142.43 226.908 142.645L231.51 147.11C231.732 147.326 231.732 147.675 231.51 147.89Z" fill="#35164A"/>
</g>
</g>
<path id="&#208;&#151;&#208;&#144;&#208;&#159;&#208;&#152;&#208;&#168;&#208;&#152;&#208;&#161;&#208;&#172;" d="M98.3422 145.298C98.3422 144.974 98.2153 144.72 97.9614 144.537C97.7075 144.349 97.3715 144.255 96.9536 144.255C96.5786 144.255 96.2661 144.349 96.0161 144.537C95.77 144.72 95.6469 144.96 95.6469 145.257H93.8891C93.8891 144.796 94.018 144.382 94.2758 144.015C94.5375 143.644 94.9067 143.355 95.3832 143.148C95.8637 142.941 96.3871 142.837 96.9536 142.837C97.9379 142.837 98.7094 143.048 99.268 143.47C99.8266 143.892 100.106 144.49 100.106 145.263C100.106 145.642 99.9907 145.994 99.7602 146.318C99.5336 146.642 99.2094 146.902 98.7875 147.097C99.2563 147.261 99.6157 147.511 99.8657 147.847C100.116 148.179 100.241 148.593 100.241 149.089C100.241 149.855 99.9399 150.464 99.3383 150.917C98.7407 151.367 97.9457 151.591 96.9536 151.591C96.3325 151.591 95.7739 151.486 95.2778 151.275C94.7817 151.06 94.4047 150.769 94.1469 150.402C93.893 150.031 93.7661 149.601 93.7661 149.113H95.5356C95.5356 149.417 95.6684 149.673 95.934 149.88C96.1996 150.083 96.5395 150.185 96.9536 150.185C97.4223 150.185 97.7914 150.08 98.061 149.869C98.3344 149.658 98.4711 149.39 98.4711 149.066C98.4711 148.621 98.35 148.302 98.1078 148.111C97.8657 147.916 97.5121 147.818 97.0473 147.818H95.9985V146.441H97.0825C97.9223 146.429 98.3422 146.048 98.3422 145.298ZM107.158 149.722H104.076L103.49 151.48H101.621L104.797 142.949H106.425L109.619 151.48H107.75L107.158 149.722ZM104.55 148.298H106.683L105.611 145.105L104.55 148.298ZM118.165 151.48H116.401V144.373H112.985V151.48H111.227V142.949H118.165V151.48ZM125.627 142.949H127.391V151.48H125.627V145.814L122.211 151.48H120.453V142.949H122.211V148.626L125.627 142.949ZM131.466 142.949V150.068H133.833V142.949H135.597V150.068H137.941V142.949H139.698V151.48H129.702V142.949H131.466ZM147.137 142.949H148.901V151.48H147.137V145.814L143.721 151.48H141.963V142.949H143.721V148.626L147.137 142.949ZM157.922 148.638C157.855 149.556 157.515 150.279 156.902 150.806C156.293 151.333 155.488 151.597 154.488 151.597C153.394 151.597 152.533 151.23 151.904 150.496C151.279 149.757 150.966 148.746 150.966 147.46V146.939C150.966 146.119 151.111 145.396 151.4 144.771C151.689 144.146 152.101 143.667 152.636 143.335C153.175 143 153.8 142.832 154.511 142.832C155.496 142.832 156.289 143.095 156.89 143.623C157.492 144.15 157.839 144.89 157.933 145.843H156.175C156.132 145.292 155.978 144.894 155.713 144.648C155.451 144.398 155.05 144.273 154.511 144.273C153.925 144.273 153.486 144.484 153.193 144.906C152.904 145.324 152.756 145.974 152.748 146.857V147.501C152.748 148.423 152.886 149.097 153.164 149.523C153.445 149.949 153.886 150.162 154.488 150.162C155.031 150.162 155.435 150.039 155.701 149.792C155.97 149.542 156.125 149.158 156.164 148.638H157.922ZM161.634 146.025H163.005C164.009 146.025 164.804 146.269 165.389 146.757C165.979 147.242 166.274 147.896 166.274 148.72C166.274 149.548 165.981 150.214 165.395 150.718C164.813 151.218 164.038 151.472 163.069 151.48H159.864V142.949H161.634V146.025ZM161.634 147.443V150.068H163.034C163.483 150.068 163.841 149.945 164.106 149.699C164.376 149.453 164.511 149.123 164.511 148.708C164.511 148.322 164.382 148.017 164.124 147.794C163.87 147.568 163.52 147.451 163.075 147.443H161.634Z" fill="#FBF7FD"/>
<g id="tree">
<path id="Vector" d="M38.1713 148.661C38.1769 149.477 38.0969 150.292 37.9327 151.091C37.8992 151.242 37.8658 151.389 37.8324 151.532C36.9421 155.098 34.4312 157.707 31.4358 157.874C31.3356 157.874 31.2353 157.874 31.1303 157.874C27.963 157.874 25.2851 155.143 24.3996 151.382C24.3757 151.282 24.3542 151.182 24.3303 151.082C24.1621 150.283 24.0781 149.468 24.0797 148.652C24.0797 143.557 27.2375 139.429 31.1303 139.429C35.0232 139.429 38.1713 143.567 38.1713 148.661Z" fill="#35164A"/>
<path id="Vector_2" d="M53.2129 131.48C53.2139 129.243 52.6881 127.038 51.6782 125.041L43.3841 127.619L50.6638 123.341C49.4435 121.578 47.8425 120.111 45.9789 119.05C44.1153 117.988 42.0368 117.358 39.897 117.207C39.5552 116.684 39.1797 116.183 38.7728 115.709L26.8532 119.413L36.6247 113.684C34.7574 112.251 32.5653 111.3 30.2425 110.916C27.9197 110.531 25.5377 110.725 23.3076 111.479C21.0775 112.234 19.0681 113.526 17.4571 115.242C15.8462 116.958 14.6835 119.044 14.0719 121.316L24.2755 133.05L13.196 125.056C10.3817 127.037 8.37543 129.966 7.54423 133.304C6.71303 136.643 7.11242 140.169 8.66936 143.237C10.2263 146.306 12.8367 148.712 16.0232 150.015C19.2096 151.319 22.7592 151.432 26.0226 150.335C28.9708 151.414 32.1913 151.5 35.1926 150.579C37.2865 151.038 39.4569 151.023 41.5442 150.535C43.6315 150.046 45.5826 149.096 47.2541 147.755C48.9255 146.413 50.2749 144.715 51.2028 142.783C52.1307 140.852 52.6137 138.738 52.6162 136.596C52.6162 136.276 52.6042 135.962 52.5828 135.642C52.9972 134.293 53.2095 132.891 53.2129 131.48Z" fill="#2EC32E"/>
<path id="Vector_3" opacity="0.1" d="M52.9645 134.137C48.5855 133.308 44.0952 133.251 39.6964 133.968C34.7175 134.793 29.6289 136.603 24.7599 135.279C21.8957 134.502 19.4278 132.706 16.6448 131.702C13.9488 130.764 11.0448 130.594 8.2576 131.211C7.19445 133.749 6.88547 136.54 7.36761 139.249C7.84974 141.959 9.10259 144.472 10.9764 146.488C12.8501 148.505 15.2655 149.94 17.9337 150.621C20.602 151.303 23.4101 151.202 26.0225 150.33C28.9701 151.411 32.1907 151.498 35.1925 150.579C37.2864 151.038 39.4567 151.023 41.544 150.535C43.6313 150.046 45.5825 149.096 47.2539 147.755C48.9254 146.413 50.2747 144.714 51.2027 142.783C52.1306 140.852 52.6136 138.738 52.6161 136.596C52.6161 136.276 52.6041 135.962 52.5826 135.642C52.7384 135.148 52.8659 134.646 52.9645 134.137Z" fill="black"/>
</g>
<path id="coud" d="M184.725 37.0536C176.344 36.7057 168.709 33.3256 165.255 28.0891C165.093 27.844 164.941 27.5955 164.798 27.3435C163.537 25.1123 163.143 22.5474 164.522 20.3486C165.901 18.1498 169.348 16.4799 172.804 16.827C176.26 17.1741 178.963 19.9311 177.532 22.1133C177.215 17.703 176.95 13.069 180.508 9.23035C182.467 7.22413 185.022 5.90452 187.792 5.46841C194.961 4.2081 199.721 8.25944 200.674 12.3471C201.377 15.3667 200.406 18.4352 199.438 21.4231C202.42 17.8991 209.511 16.3312 214.945 17.9956C220.378 19.6599 223.389 24.3209 221.533 28.1951C219.347 32.7524 212.06 35.1078 205.291 36.3531C199.7 37.3817 191.319 37.3272 184.725 37.0536Z" fill="#F2F2F2"/>
<g id="caendar">
<path id="Rectangle 4" d="M72.2892 50.6844H188.685V117.781C188.685 121.647 185.551 124.781 181.685 124.781H79.2892C75.4232 124.781 72.2892 121.647 72.2892 117.781V50.6844Z" fill="#E2DFE4"/>
<path id="Vector_4" d="M188.685 36.3335V50.6844H188.339V50.5315H72.6351V50.6844H72.2892V36.3335C72.2907 34.6813 72.8925 33.0973 73.9625 31.929C75.0325 30.7608 76.4833 30.1037 77.9966 30.1021H182.978C184.491 30.1037 185.942 30.7608 187.012 31.929C188.082 33.0973 188.684 34.6813 188.685 36.3335Z" fill="#9A15F5"/>
<path id="Vector_5" d="M182.978 30.1021H77.9966C76.4833 30.1037 75.0325 30.7626 73.9625 31.9341C72.8925 33.1057 72.2907 34.6941 72.2892 36.3509V118.532C72.2907 120.189 72.8925 121.777 73.9625 122.949C75.0325 124.12 76.4833 124.779 77.9966 124.781H182.978C184.491 124.779 185.942 124.12 187.012 122.949C188.082 121.777 188.684 120.189 188.685 118.532V36.3509C188.684 34.6941 188.082 33.1057 187.012 31.9341C185.942 30.7626 184.491 30.1037 182.978 30.1021ZM188.339 118.532C188.337 120.088 187.772 121.58 186.767 122.68C185.762 123.781 184.399 124.4 182.978 124.402H77.9966C76.5752 124.4 75.2125 123.781 74.2074 122.68C73.2023 121.58 72.6369 120.088 72.6351 118.532V36.3509C72.6369 34.7947 73.2023 33.3027 74.2074 32.2023C75.2125 31.1019 76.5752 30.4828 77.9966 30.4808H182.978C184.399 30.4828 185.762 31.1019 186.767 32.2023C187.772 33.3027 188.337 34.7947 188.339 36.3509V118.532Z" fill="#3F3D56"/>
<path id="Vector_6" d="M95.9438 44.0981C97.8101 44.0981 99.3231 42.4394 99.3231 40.3933C99.3231 38.3472 97.8101 36.6885 95.9438 36.6885C94.0775 36.6885 92.5646 38.3472 92.5646 40.3933C92.5646 42.4394 94.0775 44.0981 95.9438 44.0981Z" fill="#C78BF1"/>
<path id="Vector_7" d="M165.03 44.0981C166.897 44.0981 168.41 42.4394 168.41 40.3933C168.41 38.3472 166.897 36.6885 165.03 36.6885C163.164 36.6885 161.651 38.3472 161.651 40.3933C161.651 42.4394 163.164 44.0981 165.03 44.0981Z" fill="#C78BF1"/>
<path id="Vector_8" d="M141.015 82.7928H119.959C119.067 82.7917 118.212 82.4064 117.581 81.7215C116.951 81.0367 116.596 80.1081 116.595 79.1395V68.3337C116.596 67.3651 116.951 66.4365 117.581 65.7516C118.212 65.0667 119.067 64.6815 119.959 64.6804H141.015C141.907 64.6815 142.762 65.0667 143.393 65.7516C144.024 66.4365 144.379 67.3651 144.38 68.3337V79.1395C144.379 80.1081 144.024 81.0367 143.393 81.7215C142.762 82.4064 141.907 82.7917 141.015 82.7928Z" fill="#9A15F5"/>
<path id="Vector_9" d="M140.938 110.785H120.036C119.124 110.784 118.249 110.391 117.604 109.694C116.959 108.997 116.596 108.052 116.595 107.066V96.3908C116.596 95.4049 116.959 94.4598 117.604 93.7627C118.249 93.0655 119.124 92.6734 120.036 92.6723H140.938C141.851 92.6734 142.725 93.0655 143.371 93.7627C144.016 94.4598 144.379 95.4049 144.38 96.3908V107.066C144.379 108.052 144.016 108.997 143.371 109.694C142.725 110.391 141.851 110.784 140.938 110.785Z" fill="#F7F0FB"/>
<path id="Vector_10" d="M105.737 110.785H85.3996C84.5119 110.784 83.6609 110.391 83.0332 109.694C82.4055 108.997 82.0524 108.052 82.0514 107.066V96.3908C82.0524 95.405 82.4055 94.4598 83.0332 93.7627C83.6609 93.0655 84.5119 92.6734 85.3996 92.6723H105.737C106.625 92.6734 107.476 93.0655 108.104 93.7627C108.731 94.4598 109.084 95.4049 109.085 96.3908V107.066C109.084 108.052 108.731 108.997 108.104 109.694C107.476 110.391 106.625 110.784 105.737 110.785Z" fill="#F7F0FB"/>
<path id="Vector_11" d="M105.737 82.7928H85.3996C84.5119 82.7917 83.6609 82.3995 83.0332 81.7024C82.4055 81.0053 82.0524 80.0601 82.0514 79.0743V68.3989C82.0524 67.413 82.4055 66.4678 83.0332 65.7707C83.6609 65.0736 84.5119 64.6815 85.3996 64.6804H105.737C106.625 64.6815 107.476 65.0736 108.104 65.7707C108.731 66.4678 109.084 67.413 109.085 68.3989V79.0743C109.084 80.0601 108.731 81.0053 108.104 81.7024C107.476 82.3995 106.625 82.7917 105.737 82.7928Z" fill="#F7F0FB"/>
<path id="Vector_12" d="M175.575 110.785H155.237C154.349 110.784 153.498 110.391 152.871 109.694C152.243 108.997 151.89 108.052 151.889 107.066V96.3908C151.89 95.4049 152.243 94.4598 152.871 93.7627C153.498 93.0655 154.349 92.6734 155.237 92.6723H175.575C176.462 92.6734 177.313 93.0655 177.941 93.7627C178.569 94.4598 178.922 95.4049 178.923 96.3908V107.066C178.922 108.052 178.569 108.997 177.941 109.694C177.313 110.391 176.462 110.784 175.575 110.785Z" fill="#F7F0FB"/>
<path id="Vector_13" d="M175.575 82.7928H155.237C154.349 82.7917 153.498 82.3995 152.871 81.7024C152.243 81.0053 151.89 80.0601 151.889 79.0743V68.3989C151.89 67.413 152.243 66.4678 152.871 65.7707C153.498 65.0736 154.349 64.6815 155.237 64.6804H175.575C176.462 64.6815 177.313 65.0736 177.941 65.7707C178.569 66.4678 178.922 67.413 178.923 68.3989V79.0743C178.922 80.0601 178.569 81.0053 177.941 81.7024C177.313 82.3996 176.462 82.7917 175.575 82.7928Z" fill="#F7F0FB"/>
<path id="Vector_14" d="M130.311 78.879C133.325 78.879 135.767 76.4378 135.767 73.4263C135.767 70.4148 133.325 67.9736 130.311 67.9736C127.298 67.9736 124.855 70.4148 124.855 73.4263C124.855 76.4378 127.298 78.879 130.311 78.879Z" fill="white"/>
<path id="Vector_15" d="M129.817 75.9374C129.68 75.9376 129.548 75.8904 129.438 75.8027L129.432 75.7973L128.007 74.6286C127.874 74.5193 127.787 74.3576 127.765 74.1793C127.742 74.001 127.787 73.8207 127.89 73.6779C127.992 73.5351 128.143 73.4417 128.309 73.4181C128.475 73.3945 128.644 73.4427 128.777 73.552L129.7 74.3102L131.88 71.2631C131.931 71.1925 131.994 71.1331 132.066 71.0886C132.138 71.044 132.217 71.0151 132.3 71.0035C132.382 70.9918 132.466 70.9976 132.546 71.0207C132.627 71.0437 132.702 71.0834 132.768 71.1376C132.901 71.2472 132.988 71.4091 133.01 71.5874C133.032 71.7656 132.987 71.9459 132.885 72.0887L130.32 75.6727C130.261 75.7553 130.185 75.8222 130.097 75.8681C130.01 75.9139 129.914 75.9377 129.817 75.9374Z" fill="#2EC32E"/>
</g>
</g>
<defs>
<filter id="filter0_d" x="212.871" y="132.466" width="30.0803" height="30.0681" filterUnits="userSpaceOnUse" color-interpolation-filters="sRGB">
<feFlood flood-opacity="0" result="BackgroundImageFix"/>
<feColorMatrix in="SourceAlpha" type="matrix" values="0 0 0 0 0 0 0 0 0 0 0 0 0 0 0 0 0 0 127 0"/>
<feOffset/>
<feGaussianBlur stdDeviation="2.5"/>
<feColorMatrix type="matrix" values="0 0 0 0 0 0 0 0 0 0 0 0 0 0 0 0 0 0 0.25 0"/>
<feBlend mode="normal" in2="BackgroundImageFix" result="effect1_dropShadow"/>
<feBlend mode="normal" in="SourceGraphic" in2="effect1_dropShadow" result="shape"/>
</filter>
<linearGradient id="paint0_linear" x1="29.878" y1="20.1131" x2="236.532" y2="153.064" gradientUnits="userSpaceOnUse">
<stop stop-color="#9A15F5"/>
<stop offset="1"/>
</linearGradient>
</defs>
</svg>
