<svg width="140" height="140" viewBox="0 0 140 140" fill="none" xmlns="http://www.w3.org/2000/svg">
<rect x="1.5" y="1.5" width="137" height="137" rx="68.5" fill="white" stroke="#62268B" stroke-width="3"/>
<path d="M79.5296 71.2244L78.7143 71.7859L79.6501 72.1088C83.8215 73.5483 87.6456 75.9263 90.8597 79.1403C96.3141 84.5949 99.3689 91.8065 99.4959 99.5H95.8077C95.5404 85.4963 84.0665 74.1875 70 74.1875C55.9335 74.1875 44.4596 85.4963 44.1923 99.5H40.5041C40.6311 91.8065 43.6859 84.5949 49.1404 79.1403C52.3545 75.9263 56.1786 73.5483 60.35 72.1088L61.2859 71.7859L60.4706 71.2244C56.0548 68.1831 53.1562 63.0953 53.1562 57.3438C53.1562 48.0566 60.7128 40.5 70 40.5C79.2872 40.5 86.8438 48.0566 86.8438 57.3438C86.8438 63.0953 83.9452 68.1831 79.5296 71.2244ZM56.8438 57.3438C56.8438 64.5986 62.7452 70.5 70 70.5C77.2548 70.5 83.1562 64.5986 83.1562 57.3438C83.1562 50.0889 77.2548 44.1875 70 44.1875C62.7452 44.1875 56.8438 50.0889 56.8438 57.3438Z" fill="#62268B" stroke="#62268B"/>
</svg>
