<svg width="300" height="225" viewBox="0 0 300 225" fill="none" xmlns="http://www.w3.org/2000/svg">
<path d="M219.059 213.027H213.09L210.249 190.006H219.059V213.027Z" fill="#9E616A"/>
<path d="M222.209 223.369H217.929L217.164 219.328L215.208 223.369H203.854C203.31 223.369 202.78 223.195 202.342 222.872C201.903 222.55 201.579 222.096 201.417 221.576C201.255 221.057 201.264 220.499 201.441 219.985C201.619 219.47 201.956 219.026 202.404 218.717L211.47 212.456V208.371L221.007 208.94L222.209 223.369Z" fill="#2F2E41"/>
<path d="M254.522 205.495L249.732 209.057L233.714 192.279L240.783 187.022L254.522 205.495Z" fill="#9E616A"/>
<path d="M263.221 211.914L259.786 214.468L256.762 211.681L257.603 216.091L248.492 222.865C248.055 223.19 247.526 223.367 246.982 223.37C246.438 223.372 245.907 223.201 245.467 222.881C245.027 222.561 244.701 222.108 244.536 221.589C244.372 221.071 244.377 220.513 244.552 219.998L248.091 209.564L245.653 206.286L253.645 201.053L263.221 211.914Z" fill="#2F2E41"/>
<path d="M226.008 94.2511C226.008 94.2511 237.334 104.035 232.109 131.925L225.729 159.254L246.534 193.765L239.901 201.835L212.853 164.48L203.052 141.492L200.302 100.578L226.008 94.2511Z" fill="#2F2E41"/>
<path d="M208.455 148.043L207.773 158.591L209.858 203.543L219.668 201.834L221.542 169.83L208.455 148.043Z" fill="#2F2E41"/>
<path d="M82.57 218.44L87.9083 218.44L90.4475 197.853L82.5693 197.853L82.57 218.44Z" fill="#FFB6B6"/>
<path d="M81.209 216.698L82.7115 216.698L88.5775 214.312L91.7216 216.697H91.722C93.4987 216.697 95.2027 217.403 96.4591 218.659C97.7154 219.915 98.4213 221.619 98.4214 223.396V223.613L81.2093 223.614L81.209 216.698Z" fill="#2F2E41"/>
<path d="M103.256 215.077L108.463 216.252L115.475 196.73L107.79 194.995L103.256 215.077Z" fill="#FFB6B6"/>
<path d="M102.312 213.077L103.778 213.408L110.026 212.373L112.567 215.392L112.567 215.392C114.3 215.784 115.807 216.847 116.756 218.349C117.705 219.851 118.018 221.669 117.627 223.402L117.579 223.614L100.789 219.824L102.312 213.077Z" fill="#2F2E41"/>
<path d="M75.8095 92.5808C73.3068 100.128 73.5714 108.321 76.4111 117.113L77.625 166.619C77.625 166.619 75.8164 199.083 81.6526 210.507H90.1167L94.3074 163.654L94.8336 132.206L112.98 158.737L101.422 209.741L111.839 210.672L130.594 155.321L107.454 101.621L75.8095 92.5808Z" fill="#2F2E41"/>
<path d="M173.42 71.083C179.894 65.2497 189.523 62.3167 197.601 65.5875C189.315 70.1872 182.923 77.569 179.557 86.427C178.271 89.8479 177.197 93.7866 174.034 95.618C172.066 96.7576 169.618 96.8133 167.411 96.2632C165.204 95.713 163.182 94.6102 161.187 93.5183L160.619 93.5055C163.167 85.1725 166.945 76.9162 173.42 71.083Z" fill="#2EC32E"/>
<path d="M197.556 65.7647C190.402 66.6891 183.721 69.8438 178.462 74.7808C177.311 75.8235 176.332 77.0411 175.56 78.3888C174.851 79.7259 174.513 81.2285 174.58 82.7405C174.615 84.1516 174.815 85.591 174.506 86.986C174.337 87.6977 174.02 88.3658 173.575 88.9463C173.13 89.5269 172.567 90.0069 171.924 90.3547C170.343 91.2633 168.53 91.5497 166.748 91.7682C164.768 92.0108 162.708 92.2314 160.995 93.3415C160.787 93.476 160.591 93.146 160.798 93.0117C163.779 91.0804 167.551 91.7831 170.757 90.4941C172.252 89.8927 173.576 88.8369 174.044 87.2406C174.454 85.8448 174.25 84.3603 174.202 82.9319C174.114 81.4578 174.388 79.9847 175.001 78.6411C175.702 77.2585 176.633 76.0052 177.754 74.9349C180.24 72.4849 183.095 70.441 186.216 68.878C189.767 67.0744 193.601 65.8915 197.552 65.3806C197.797 65.3491 197.799 65.7334 197.556 65.7647H197.556Z" fill="white"/>
<path d="M180.062 73.0914C179.353 72.0968 179.021 70.8827 179.125 69.6659C179.229 68.4491 179.762 67.3089 180.629 66.4489C180.805 66.2755 181.083 66.5409 180.907 66.7146C180.098 67.5139 179.601 68.5761 179.507 69.7093C179.412 70.8426 179.726 71.9723 180.392 72.8945C180.536 73.0951 180.205 73.2909 180.062 73.0914V73.0914Z" fill="white"/>
<path d="M174.467 82.0274C176.926 82.4629 179.458 81.956 181.559 80.6076C181.767 80.4738 181.964 80.8038 181.756 80.9374C179.567 82.3364 176.931 82.8586 174.373 82.3998C174.13 82.3559 174.225 81.9838 174.467 82.0274V82.0274Z" fill="white"/>
<path d="M189.798 67.5826C189.992 68.0246 190.293 68.4114 190.673 68.7085C191.054 69.0055 191.502 69.2034 191.978 69.2844C192.222 69.3252 192.127 69.6973 191.884 69.6568C191.359 69.5649 190.864 69.3457 190.443 69.0185C190.022 68.6912 189.687 68.2658 189.468 67.7795C189.444 67.7354 189.437 67.6836 189.449 67.6347C189.462 67.5858 189.492 67.5434 189.535 67.5162C189.578 67.4903 189.631 67.4828 189.68 67.4952C189.729 67.5077 189.772 67.5391 189.798 67.5826V67.5826Z" fill="white"/>
<path d="M206.495 93.7183C206.341 93.6972 206.188 93.6761 206.033 93.6573C203.972 93.3838 201.892 93.2782 199.814 93.3414C199.654 93.3438 199.491 93.3486 199.331 93.3555C194.326 93.5613 189.403 94.6943 184.812 96.697C182.986 97.4956 181.223 98.4319 179.539 99.4979C177.214 100.97 174.809 102.752 172.21 103.352C171.939 103.418 171.665 103.467 171.388 103.498L160.647 94.1989C160.633 94.1655 160.617 94.1345 160.603 94.101L160.157 93.7493C160.24 93.6882 160.328 93.6267 160.411 93.5657C160.459 93.5301 160.509 93.4965 160.557 93.4609C160.59 93.4378 160.623 93.4148 160.651 93.3921C160.662 93.3844 160.673 93.3768 160.682 93.3715C160.71 93.3488 160.738 93.3307 160.765 93.3105C161.252 92.9652 161.743 92.6228 162.237 92.2831C162.239 92.2807 162.239 92.2807 162.244 92.2803C165.985 89.6565 170.024 87.4856 174.276 85.8132C174.404 85.7651 174.533 85.7143 174.666 85.6704C176.581 84.9584 178.551 84.4041 180.556 84.013C181.655 83.8024 182.764 83.6476 183.878 83.5491C186.758 83.3001 189.66 83.5056 192.476 84.1581C198.089 85.4597 203.224 88.5419 206.266 93.3488C206.344 93.4718 206.419 93.5929 206.495 93.7183Z" fill="#2EC32E"/>
<path d="M206.353 93.8337C200.084 90.2651 192.85 88.7622 185.679 89.5384C184.132 89.6781 182.617 90.0607 181.189 90.6722C179.818 91.3127 178.643 92.3088 177.787 93.557C176.965 94.7047 176.257 95.9738 175.171 96.9019C174.608 97.3686 173.952 97.7111 173.247 97.9068C172.542 98.1025 171.804 98.147 171.081 98.0374C169.272 97.8112 167.652 96.9484 166.097 96.0497C164.37 95.0518 162.593 93.988 160.556 93.8429C160.309 93.8253 160.351 93.4435 160.598 93.461C164.141 93.7135 166.729 96.5454 170.065 97.4458C171.621 97.866 173.314 97.8197 174.649 96.8272C175.816 95.9593 176.547 94.6511 177.369 93.4818C178.187 92.252 179.293 91.241 180.591 90.5372C181.983 89.855 183.481 89.4147 185.021 89.235C188.48 88.7752 191.991 88.8622 195.424 89.4929C199.346 90.1909 203.119 91.5545 206.581 93.5249C206.795 93.6469 206.566 93.9549 206.353 93.8337L206.353 93.8337Z" fill="white"/>
<path d="M187.973 89.1525C188.006 87.9317 188.472 86.7625 189.288 85.8536C190.103 84.9446 191.215 84.3552 192.426 84.1906C192.671 84.1581 192.733 84.5372 192.487 84.5697C191.36 84.721 190.324 85.2701 189.566 86.1181C188.808 86.966 188.379 88.0569 188.355 89.1938C188.349 89.4409 187.967 89.3981 187.973 89.1525Z" fill="white"/>
<path d="M178.127 92.92C179.828 94.7477 182.155 95.8673 184.644 96.0556C184.891 96.0741 184.85 96.4559 184.603 96.4375C182.013 96.2367 179.593 95.0666 177.828 93.1608C177.66 92.979 177.96 92.7393 178.127 92.92Z" fill="white"/>
<path d="M199.065 90.6155C198.953 91.0851 198.961 91.5751 199.085 92.0413C199.21 92.5075 199.449 92.9354 199.78 93.2865C199.951 93.4661 199.65 93.7057 199.481 93.5273C199.117 93.1376 198.854 92.6648 198.715 92.15C198.576 91.6352 198.565 91.0941 198.683 90.5741C198.69 90.5242 198.716 90.4788 198.755 90.4472C198.794 90.4155 198.844 90.4001 198.894 90.4039C198.945 90.4096 198.991 90.4351 199.023 90.4747C199.055 90.5143 199.07 90.5649 199.065 90.6155V90.6155Z" fill="white"/>
<path d="M17.83 218.066C17.3257 219.958 16.0008 221.533 14.4012 222.68C14.1404 222.868 13.8726 223.042 13.6014 223.206C13.5179 223.254 13.4345 223.306 13.3475 223.352C13.2536 223.407 13.1598 223.459 13.0659 223.508H5.54416C5.40854 223.233 5.2764 222.955 5.14425 222.68C1.92067 215.907 -0.343148 208.599 0.0428477 201.154C0.195986 198.267 0.802688 195.421 1.84068 192.722C3.90628 187.343 7.67583 182.688 12.8607 180.344C12.9894 180.285 13.125 180.226 13.2571 180.17C13.2154 180.32 13.1737 180.466 13.1319 180.615C12.5757 182.619 12.1826 184.664 11.9566 186.732C11.9357 186.891 11.9183 187.051 11.9044 187.215C11.4104 192.2 11.8491 197.234 13.198 202.058C13.2015 202.069 13.2049 202.083 13.2084 202.093C13.504 203.16 13.8471 204.212 14.2378 205.247C14.5438 206.064 14.8741 206.87 15.2358 207.663C16.745 210.991 18.7688 214.537 17.83 218.066Z" fill="#2EC32E"/>
<path d="M13.351 180.327C13.278 180.424 13.2049 180.518 13.1319 180.616C11.6046 182.639 10.3076 184.827 9.26502 187.138C9.20938 187.253 9.15722 187.368 9.11201 187.486C7.68347 190.713 6.76603 194.143 6.39265 197.653C6.38861 197.677 6.38629 197.701 6.3857 197.726C6.29876 198.547 6.2466 199.374 6.22573 200.202C6.14841 201.753 6.31622 203.306 6.723 204.805C7.09391 206.029 7.74386 207.15 8.62169 208.081C8.70862 208.174 8.79556 208.268 8.88945 208.359C8.959 208.432 9.0355 208.505 9.10853 208.574C9.81097 209.245 10.5795 209.868 11.2402 210.587C11.543 210.91 11.8165 211.259 12.0574 211.631C12.4418 212.253 12.6902 212.949 12.7861 213.675C12.882 214.4 12.8232 215.137 12.6138 215.838C12.1409 217.597 11.0594 219.082 9.95355 220.497C9.40064 221.206 8.83033 221.923 8.33654 222.681C8.15573 222.952 7.9888 223.226 7.83581 223.508H7.39765C7.5437 223.226 7.70367 222.952 7.87754 222.681C9.1468 220.681 10.9516 218.964 11.887 216.763C12.5199 215.278 12.7112 213.595 11.9114 212.138C11.677 211.715 11.3933 211.32 11.0664 210.963C10.43 210.243 9.66842 209.628 8.97641 208.978C8.80254 208.814 8.63214 208.647 8.4687 208.473C7.60219 207.593 6.93354 206.538 6.50743 205.379C6.02486 203.906 5.79672 202.363 5.8328 200.814C5.8328 199.826 5.88496 198.832 5.98233 197.844C5.99277 197.719 6.00668 197.59 6.02059 197.462C6.73174 191.248 9.09352 185.337 12.8607 180.344C12.9303 180.247 13.0033 180.153 13.0763 180.059C13.2258 179.864 13.5005 180.136 13.351 180.327Z" fill="white"/>
<path d="M6.16138 197.877C4.9569 197.675 3.86355 197.051 3.07659 196.117C2.28963 195.183 1.8603 194 1.86528 192.779C1.86594 192.729 1.88591 192.681 1.92098 192.646C1.95605 192.611 2.00348 192.59 2.05327 192.589C2.10307 192.588 2.15134 192.606 2.18792 192.64C2.2245 192.674 2.24654 192.721 2.24938 192.77C2.24265 193.908 2.64267 195.01 3.37727 195.878C4.11186 196.746 5.13263 197.323 6.25534 197.505C6.49927 197.544 6.40392 197.917 6.16138 197.877V197.877Z" fill="white"/>
<path d="M8.52456 208.15C10.5709 206.72 12.0029 204.571 12.5351 202.132C12.5877 201.891 12.96 201.985 12.9076 202.226C12.349 204.763 10.8542 206.997 8.72147 208.48C8.51809 208.621 8.32229 208.291 8.52457 208.15L8.52456 208.15Z" fill="white"/>
<path d="M9.14989 187.098C9.59962 187.273 10.0859 187.334 10.565 187.275C11.0441 187.216 11.501 187.039 11.8948 186.76C12.0963 186.616 12.2919 186.947 12.0917 187.09C11.6552 187.396 11.1503 187.591 10.6211 187.657C10.0919 187.724 9.55454 187.659 9.05592 187.47C9.00742 187.456 8.96604 187.424 8.94018 187.381C8.91432 187.338 8.90592 187.286 8.91669 187.237C8.92938 187.188 8.96099 187.145 9.00466 187.119C9.04832 187.093 9.10051 187.085 9.14989 187.098V187.098Z" fill="white"/>
<path d="M39.4384 193.773C39.3167 193.866 39.1915 193.96 39.0698 194.058C37.4188 195.321 35.8732 196.716 34.4483 198.23C34.337 198.345 34.2257 198.463 34.1179 198.581L34.1144 198.585C30.7358 202.252 28.0642 206.512 26.2346 211.151L26.2241 211.182C26.2207 211.192 26.2172 211.199 26.2137 211.21C25.4885 213.066 24.9038 214.975 24.4646 216.919C24.0403 218.818 23.6926 220.852 23.0284 222.681C22.9275 222.962 22.8162 223.24 22.698 223.508H7.2373C7.28947 223.233 7.34511 222.955 7.40074 222.681C8.18722 218.652 9.41641 214.722 11.066 210.963C11.1216 210.838 11.1772 210.713 11.2398 210.587C12.0914 208.73 13.0927 206.945 14.2339 205.25C14.2339 205.25 14.234 205.249 14.2342 205.249C14.2343 205.248 14.2346 205.248 14.2349 205.248C14.2352 205.247 14.2356 205.247 14.2361 205.247C14.2365 205.247 14.2369 205.247 14.2374 205.247C14.864 204.322 15.5372 203.429 16.2543 202.573C18.1141 200.36 20.311 198.455 22.7641 196.926C22.778 196.916 22.7954 196.909 22.8093 196.898C27.6916 193.87 33.4781 192.427 39.0107 193.675H39.0142C39.1567 193.706 39.2958 193.738 39.4384 193.773Z" fill="#2EC32E"/>
<path d="M39.4211 193.957C39.3029 193.988 39.1847 194.023 39.0699 194.058C36.6328 194.754 34.2804 195.718 32.0559 196.933C31.9447 196.992 31.8334 197.055 31.7221 197.117C28.6479 198.833 25.8574 201.013 23.4493 203.581C23.4474 203.583 23.4461 203.585 23.4458 203.588C23.418 203.616 23.3867 203.647 23.3623 203.675C22.8059 204.273 22.2704 204.895 21.7627 205.535C20.7696 206.728 19.9694 208.069 19.3911 209.509C18.9492 210.71 18.7932 211.997 18.9355 213.268C18.946 213.397 18.9634 213.522 18.9807 213.651C18.9947 213.751 19.0086 213.852 19.026 213.957C19.2555 215.351 19.6519 216.749 19.5406 218.171C19.4729 218.899 19.2517 219.605 18.8915 220.242C18.5312 220.88 18.0402 221.433 17.4507 221.867C17.0499 222.177 16.6215 222.449 16.171 222.68C15.5268 223.012 14.8555 223.289 14.1645 223.508H12.7979C12.9822 223.456 13.163 223.404 13.3473 223.351C14.0013 223.167 14.6435 222.943 15.2703 222.68C15.6284 222.531 15.9768 222.359 16.3135 222.166C17.7115 221.363 18.8764 220.132 19.1198 218.487C19.332 217.048 18.9216 215.608 18.6782 214.2C18.6365 213.957 18.5982 213.717 18.5774 213.477C18.4113 212.257 18.5122 211.016 18.8729 209.84C19.3733 208.372 20.1213 207.001 21.0846 205.786C21.6805 204.994 22.3165 204.234 22.9902 203.508C23.0737 203.414 23.1606 203.32 23.251 203.226C25.7098 200.64 28.5487 198.444 31.6699 196.714H31.6734C33.9942 195.422 36.4562 194.402 39.0108 193.675H39.0143C39.129 193.64 39.2473 193.606 39.362 193.574C39.602 193.512 39.6576 193.891 39.4211 193.957Z" fill="white"/>
<path d="M23.1139 203.64C22.274 202.754 21.7767 201.597 21.7107 200.378C21.6447 199.158 22.0143 197.955 22.7536 196.983C22.9039 196.787 23.2158 197.011 23.0654 197.208C22.3752 198.112 22.031 199.232 22.0948 200.368C22.1586 201.503 22.6262 202.578 23.4132 203.399C23.584 203.578 23.2838 203.818 23.1139 203.64H23.1139Z" fill="white"/>
<path d="M18.8155 213.266C21.3106 213.356 23.7479 212.502 25.6414 210.875C25.8289 210.714 26.0695 211.013 25.8822 211.175C23.9086 212.864 21.3704 213.747 18.7741 213.648C18.5267 213.638 18.5694 213.257 18.8155 213.266V213.266Z" fill="white"/>
<path d="M31.9906 196.833C32.2441 197.244 32.5956 197.585 33.0137 197.826C33.4317 198.068 33.9031 198.201 34.3857 198.216C34.6331 198.222 34.5901 198.604 34.3443 198.597C33.8113 198.579 33.2908 198.431 32.8283 198.165C32.3659 197.9 31.9755 197.525 31.6913 197.074C31.661 197.033 31.6471 196.983 31.6525 196.933C31.658 196.883 31.6823 196.836 31.7205 196.804C31.7603 196.772 31.811 196.757 31.8616 196.763C31.9121 196.768 31.9585 196.793 31.9906 196.833V196.833Z" fill="white"/>
<path d="M158.704 60.2075C158.347 60.6769 157.892 61.0623 157.37 61.3366C156.848 61.611 156.272 61.7675 155.683 61.7953C155.094 61.8231 154.506 61.7214 153.96 61.4973C153.415 61.2733 152.925 60.9324 152.526 60.4987L139.381 66.215L140.661 58.8779L152.948 54.5745C153.721 53.9518 154.696 53.6343 155.687 53.6822C156.679 53.7301 157.619 54.1401 158.328 54.8345C159.038 55.5288 159.468 56.4593 159.537 57.4495C159.606 58.4398 159.31 59.4211 158.704 60.2075V60.2075Z" fill="#FFB8B8"/>
<path d="M149.933 62.4983L119.402 76.0963L119.336 76.0729L84.5385 63.6742C81.9465 62.3198 79.9705 60.0258 79.0149 57.2621C78.0592 54.4984 78.1964 51.4739 79.3983 48.808V48.808C80.0645 47.335 81.0351 46.0199 82.2463 44.9491C83.4574 43.8782 84.8817 43.076 86.4253 42.5953C87.9689 42.1145 89.5968 41.9661 91.2019 42.1597C92.807 42.3534 94.3529 42.8847 95.7378 43.7188L121.634 59.3164L146.745 56.0624L149.933 62.4983Z" fill="#E6E6E6"/>
<path d="M300 223.79C300 223.844 299.99 223.898 299.969 223.948C299.948 223.999 299.918 224.044 299.879 224.083C299.841 224.121 299.795 224.152 299.745 224.172C299.695 224.193 299.641 224.204 299.586 224.204H0.42553C0.315779 224.204 0.210527 224.16 0.132922 224.082C0.0553165 224.005 0.0117188 223.899 0.0117188 223.79C0.0117188 223.68 0.0553165 223.575 0.132922 223.497C0.210527 223.42 0.315779 223.376 0.42553 223.376H299.586C299.641 223.376 299.695 223.386 299.745 223.407C299.795 223.428 299.841 223.458 299.879 223.497C299.918 223.535 299.948 223.581 299.969 223.631C299.99 223.681 300 223.735 300 223.79Z" fill="#CCCCCC"/>
<path d="M108.964 103.207L78.1862 98.2843C77.379 98.0258 76.6373 97.5957 76.012 97.0236C75.3868 96.4514 74.8927 95.7507 74.5638 94.9696C74.2349 94.1886 74.079 93.3456 74.1066 92.4985C74.1343 91.6515 74.345 90.8205 74.7242 90.0625L76.1199 87.2711L75.5778 57.9435C75.5124 54.1287 76.453 50.364 78.3049 47.028C80.1568 43.6921 82.8546 40.9027 86.1271 38.9403L89.1284 37.1459L90.6452 33.2946L104.632 33.6357L104.672 38.6868L109.681 46.673L109.681 46.7061L109.367 90.1736L107.986 94.6594L110.074 99.877L108.964 103.207Z" fill="#E6E6E6"/>
<path d="M98.9189 28.5055C105.937 28.5055 111.627 22.8166 111.627 15.799C111.627 8.78141 105.937 3.09253 98.9189 3.09253C91.9005 3.09253 86.2109 8.78141 86.2109 15.799C86.2109 22.8166 91.9005 28.5055 98.9189 28.5055Z" fill="#FFB8B8"/>
<path d="M85.6859 18.569C85.3068 16.9724 85.4808 14.7257 85.695 13.1181C86.2566 8.90348 88.5974 4.89675 92.1538 2.52343C92.8281 2.01132 93.6294 1.69293 94.4714 1.60255C95.3127 1.56744 96.2247 2.01777 96.4829 2.81916C96.6949 2.29024 97.013 1.81037 97.4176 1.40915C97.8223 1.00794 98.3049 0.693902 98.8356 0.486428C99.9018 0.0780017 101.048 -0.0764554 102.185 0.0353001C104.387 0.216814 106.499 0.99112 108.297 2.27604C110.095 3.56096 111.511 5.30857 112.395 7.33339C112.735 8.13964 113.683 5.16156 114.113 5.92336C114.508 6.7152 115.198 7.32092 116.034 7.6109C116.877 7.84602 117.219 11.3175 117.551 10.508C117.808 11.1063 117.91 11.7599 117.846 12.408C117.783 13.0561 117.556 13.6777 117.188 14.2148C116.82 14.7519 116.322 15.187 115.74 15.4797C115.158 15.7724 114.512 15.9132 113.861 15.8888C113.003 15.8567 112.183 15.5413 111.335 15.4055C108.305 14.92 105.09 17.1173 104.442 20.1171C104.21 19.2496 103.84 18.4252 103.345 17.6759C103.094 17.3031 102.757 16.9958 102.363 16.7794C101.969 16.5629 101.529 16.4437 101.08 16.4316C100.218 16.4638 99.4596 17.0275 98.9002 17.6843C98.3407 18.3411 97.9205 19.1074 97.3569 19.7607C95.7032 21.6776 93.4666 26.1479 91.1099 25.8219C89.2501 25.5646 86.2034 20.749 85.6859 18.569Z" fill="#2F2E41"/>
<path d="M175.737 74.6061C175.826 74.0268 175.707 73.4347 175.401 72.9349C175.095 72.435 174.622 72.0596 174.066 71.8753L139.843 60.4787C139.515 60.3689 139.168 60.3291 138.823 60.3616L130.245 61.1726L125.324 61.6395L116.241 62.4977C115.692 62.5501 115.177 62.7831 114.775 63.16C114.374 63.5369 114.108 64.0365 114.021 64.5803L109.409 93.3832C109.322 93.945 109.429 94.5197 109.713 95.0126C109.996 95.5054 110.439 95.8868 110.969 96.0938L145.549 109.44C145.711 109.503 145.88 109.548 146.052 109.575C146.302 109.616 146.557 109.618 146.808 109.581L169.153 106.27C169.68 106.193 170.168 105.949 170.545 105.573C170.923 105.198 171.169 104.71 171.247 104.184L175.737 74.6061Z" fill="white"/>
<path d="M111.753 94.0644L146.333 107.41C146.383 107.43 146.438 107.436 146.492 107.429L168.833 104.118C168.9 104.109 168.961 104.078 169.008 104.031C169.056 103.984 169.086 103.923 169.096 103.856L173.589 74.2785C173.599 74.2063 173.584 74.1328 173.546 74.0705C173.508 74.0083 173.449 73.9611 173.38 73.9372L173.15 73.8594L139.155 62.5431C139.14 62.5376 139.124 62.5337 139.108 62.5316C139.081 62.5267 139.054 62.5253 139.028 62.5274L118.106 64.507L116.446 64.6627C116.378 64.67 116.314 64.6993 116.264 64.7463C116.214 64.7932 116.181 64.8552 116.169 64.9227L111.559 93.7244C111.547 93.7948 111.561 93.8669 111.596 93.9287C111.631 93.9906 111.687 94.0385 111.753 94.0644V94.0644Z" fill="#7C3BA8"/>
<path d="M118.105 64.507L139.027 62.5274C139.054 62.5253 139.081 62.5267 139.107 62.5316C139.124 62.5337 139.14 62.5376 139.155 62.5431L173.15 73.8594L164.183 74.8085L160.827 75.162L151.277 76.1708C151.25 76.1722 151.222 76.1718 151.194 76.1698C151.177 76.1646 151.16 76.1595 151.139 76.1541L118.105 64.507Z" fill="#2F2E41"/>
<path d="M110.968 96.0957L145.548 109.441C145.711 109.504 145.88 109.548 146.052 109.573C146.303 109.615 146.558 109.618 146.809 109.583L169.151 106.272C169.678 106.195 170.167 105.951 170.544 105.575C170.922 105.199 171.168 104.711 171.247 104.184L175.737 74.6061C175.803 74.17 175.753 73.7242 175.591 73.3138C175.568 73.2592 175.546 73.2047 175.519 73.1532C175.341 72.7786 175.07 72.4557 174.732 72.2153C174.528 72.0691 174.304 71.9546 174.066 71.8757L174.025 71.8614L139.845 60.4784C139.705 60.4339 139.563 60.3993 139.418 60.3748C139.221 60.3468 139.02 60.343 138.822 60.3633L130.245 61.1715L125.324 61.6409L116.24 62.4985C115.868 62.5332 115.509 62.6518 115.19 62.8454C115.165 62.8573 115.142 62.8714 115.12 62.8875C115.104 62.8978 115.089 62.9092 115.075 62.9216C114.796 63.1118 114.559 63.3568 114.378 63.6415C114.197 63.9263 114.076 64.2449 114.022 64.578L109.407 93.3828C109.32 93.9451 109.427 94.5203 109.711 95.0135C109.995 95.5067 110.438 95.8884 110.968 96.0957V96.0957ZM114.634 64.6784C114.69 64.3331 114.843 64.011 115.076 63.7496C115.146 63.6654 115.225 63.5887 115.311 63.5205C115.545 63.3309 115.823 63.2015 116.119 63.1436C116.177 63.1316 116.236 63.1232 116.296 63.1186L131.591 61.6739L138.882 60.9802C138.931 60.9744 138.976 60.9753 139.022 60.9727C139.132 60.9704 139.243 60.9786 139.352 60.9972C139.452 61.0101 139.55 61.0336 139.645 61.0671L173.866 72.4644C173.893 72.474 173.917 72.4832 173.944 72.4928C174.255 72.6085 174.528 72.8074 174.734 73.0678C174.897 73.2671 175.016 73.4985 175.083 73.7469C175.15 73.9952 175.164 74.255 175.124 74.5091L170.631 104.091C170.572 104.485 170.388 104.85 170.106 105.132C169.823 105.414 169.458 105.597 169.063 105.656L146.718 108.966C146.399 109.012 146.072 108.975 145.771 108.858L111.191 95.5162C110.795 95.3601 110.463 95.0738 110.251 94.7045C110.039 94.3351 109.959 93.9046 110.023 93.4836L114.634 64.6784Z" fill="#3F3D56"/>
<path d="M115 63.0787C115.018 63.0263 115.051 62.9799 115.093 62.9444C115.107 62.9331 115.122 62.9229 115.138 62.9138C115.153 62.9082 115.167 62.8991 115.182 62.8935C115.251 62.8656 115.329 62.8643 115.399 62.8898L116.119 63.1437L151.281 75.546L159.511 74.6766L164.116 74.191L173.863 73.1592L174.734 73.0678L174.904 73.0491C174.977 73.0424 175.05 73.0615 175.11 73.103C175.171 73.1445 175.215 73.2058 175.235 73.2763C175.24 73.2926 175.243 73.3092 175.244 73.3261C175.251 73.393 175.236 73.4605 175.202 73.5183C175.167 73.5761 175.115 73.6212 175.053 73.6466C175.025 73.6581 174.996 73.6659 174.967 73.6698L173.781 73.7941L164.182 74.8086L160.827 75.1621L151.277 76.1709C151.249 76.1723 151.221 76.1719 151.194 76.1699C151.177 76.1647 151.16 76.1596 151.139 76.1542L115.311 63.5206L115.189 63.4775C115.161 63.4684 115.135 63.454 115.113 63.4353C115.059 63.3955 115.018 63.3395 114.998 63.2754C114.978 63.2113 114.979 63.1424 115 63.0787Z" fill="#3F3D56"/>
<path d="M146.146 109.664C146.066 109.651 145.993 109.607 145.945 109.54C145.896 109.474 145.876 109.392 145.888 109.311L150.936 75.8151C150.949 75.7336 150.993 75.6603 151.059 75.6114C151.126 75.5625 151.209 75.5419 151.29 75.5541L151.293 75.5546C151.374 75.5675 151.446 75.6119 151.495 75.678C151.543 75.7442 151.563 75.8267 151.551 75.9077L146.503 109.403C146.491 109.485 146.446 109.558 146.38 109.607C146.314 109.656 146.231 109.677 146.149 109.664L146.146 109.664Z" fill="#3F3D56"/>
<path d="M158.942 107.539L155.585 107.893L159.512 74.6757C159.512 74.6757 163.996 73.8639 164.116 74.1894C164.19 74.3838 158.974 107.326 158.942 107.539Z" fill="#3F3D56"/>
<path d="M115.19 63.4769L115.1 78.6253L141.92 88.8436L151.551 75.9076L115.19 63.4769Z" fill="#3F3D56"/>
<path d="M174.735 73.0683C174.511 72.7865 174.209 72.5766 173.867 72.4645L139.647 61.0676C139.551 61.0353 139.452 61.0112 139.352 60.9957C139.243 60.977 139.132 60.9687 139.021 60.971L139.077 60.6242L139.42 60.3762L147.546 54.4935L174.684 62.8095L174.731 72.2154L174.735 73.0683Z" fill="#3F3D56"/>
<path d="M116.557 87.7952C116.596 87.7989 116.634 87.8069 116.671 87.819L127.17 91.2671C127.302 91.3102 127.411 91.4038 127.473 91.5272C127.535 91.6507 127.546 91.7939 127.503 91.9253C127.46 92.0568 127.366 92.1657 127.243 92.2281C127.12 92.2906 126.976 92.3014 126.845 92.2583L116.345 88.8101C116.223 88.7701 116.12 88.6865 116.056 88.5754C115.992 88.4643 115.971 88.3335 115.997 88.2079C116.024 88.0823 116.095 87.9708 116.198 87.8947C116.302 87.8185 116.429 87.7831 116.557 87.7952H116.557Z" fill="white"/>
<path d="M158.92 151.342C161.225 151.342 163.093 149.474 163.093 147.17C163.093 144.866 161.225 142.998 158.92 142.998C156.615 142.998 154.747 144.866 154.747 147.17C154.747 149.474 156.615 151.342 158.92 151.342Z" fill="#E6CCF8"/>
<path d="M52.5108 166.641C54.8155 166.641 56.6838 164.773 56.6838 162.469C56.6838 160.164 54.8155 158.296 52.5108 158.296C50.2062 158.296 48.3379 160.164 48.3379 162.469C48.3379 164.773 50.2062 166.641 52.5108 166.641Z" fill="#E6CCF8"/>
<path d="M139.446 28.6035C141.751 28.6035 143.619 26.7355 143.619 24.4311C143.619 22.1267 141.751 20.2587 139.446 20.2587C137.142 20.2587 135.273 22.1267 135.273 24.4311C135.273 26.7355 137.142 28.6035 139.446 28.6035Z" fill="#E6CCF8"/>
<path d="M146.293 93.9316C145.752 94.1666 145.167 94.2801 144.577 94.2642C143.988 94.2483 143.409 94.1033 142.881 93.8396C142.354 93.5758 141.891 93.1996 141.525 92.7375C141.158 92.2754 140.898 91.7386 140.762 91.1649L126.5 89.7242L131.205 83.9502L144.027 86.2035C145.006 86.0384 146.011 86.2381 146.853 86.7647C147.695 87.2914 148.314 88.1084 148.593 89.061C148.872 90.0136 148.793 91.0356 148.369 91.9332C147.945 92.8309 147.206 93.542 146.293 93.9316V93.9316Z" fill="#FFB8B8"/>
<path d="M137.521 91.6412L104.239 88.575L104.193 88.5226L79.9027 60.6937C78.3042 58.2449 77.7023 55.2778 78.2203 52.3998C78.7384 49.5218 80.3371 46.9506 82.6893 45.2128V45.2128C83.9907 44.2537 85.4806 43.5811 87.0607 43.2392C88.6409 42.8973 90.2756 42.8939 91.8572 43.2292C93.4387 43.5646 94.9313 44.231 96.2368 45.1847C97.5422 46.1385 98.6308 47.3578 99.4309 48.7625L114.392 75.0295L137.887 84.4685L137.521 91.6412Z" fill="#E6E6E6"/>
<path d="M221.058 38.1239C220.231 32.0621 219.195 25.5538 214.919 21.1779C213.562 19.7895 211.938 18.6901 210.145 17.9461C208.352 17.2021 206.426 16.8289 204.485 16.849C202.544 16.8691 200.626 17.2821 198.849 18.063C197.072 18.844 195.471 19.9767 194.143 21.393C191.031 24.7131 189.656 29.3751 189.53 33.9241C189.404 38.4731 190.418 42.9716 191.542 47.3814C197.49 47.5002 203.395 46.3381 208.854 43.9741C210.22 43.3816 211.563 42.7118 213.005 42.3447C214.448 41.9776 215.476 42.9013 216.818 43.5454L217.554 42.1353C218.157 43.2572 220.024 42.9247 220.701 41.8459C221.378 40.7672 221.23 39.3858 221.058 38.1239Z" fill="#2F2E41"/>
<path d="M197.478 71.9583L173.18 72.4779C172.806 71.8329 172.254 71.3103 171.589 70.9736C170.924 70.6369 170.176 70.5007 169.435 70.5815C168.694 70.6623 167.993 70.9566 167.416 71.4287C166.84 71.9008 166.413 72.5302 166.188 73.2404C165.962 73.9507 165.948 74.711 166.147 75.4291C166.346 76.1471 166.75 76.7918 167.309 77.2848C167.868 77.7777 168.558 78.0977 169.295 78.2056C170.032 78.3136 170.785 78.205 171.462 77.893C174.684 78.0761 199.897 81.6542 201.402 79.3483C202.928 77.0079 211.077 68.7482 211.077 68.7482L204.814 59.8318L197.478 71.9583Z" fill="#9E616A"/>
<path d="M203.399 44.1212C209.704 44.1212 214.815 39.0105 214.815 32.7061C214.815 26.4017 209.704 21.291 203.399 21.291C197.094 21.291 191.982 26.4017 191.982 32.7061C191.982 39.0105 197.094 44.1212 203.399 44.1212Z" fill="#9E616A"/>
<path d="M221.685 54.6699C220.339 51.9927 219.686 48.6852 216.817 47.8173C214.881 47.2312 207.047 48.1095 205.282 49.0989C202.345 50.7446 205.006 53.8285 203.274 56.7143C201.391 59.8515 196.273 66.1474 194.39 69.2846C193.096 71.4413 197.456 77.7718 196.756 80.1878C196.056 82.6038 196.023 85.3155 197.215 87.5303C198.282 89.5127 196.738 91.2664 197.812 93.2455C198.928 95.3038 200.297 103 199.259 105.098L198.563 107.184C205.465 107.59 211.268 99.3455 218.127 98.477C219.83 98.2614 221.599 97.9796 223.003 96.9909C225.071 95.5345 225.888 92.8917 226.399 90.4148C228.858 78.3076 227.198 65.7259 221.685 54.6699V54.6699Z" fill="#3F3D56"/>
<path d="M232.032 82.9388C231.071 80.3152 229.33 68.8441 229.33 68.8441L218.438 68.5248L223.763 81.6582L209.231 102C209.231 102 209.258 102.044 209.307 102.124C208.543 102.002 207.759 102.112 207.059 102.442C206.359 102.772 205.775 103.306 205.383 103.973C204.992 104.64 204.81 105.41 204.864 106.182C204.917 106.954 205.202 107.692 205.681 108.299C206.16 108.907 206.812 109.355 207.551 109.586C208.289 109.817 209.08 109.82 209.82 109.594C210.56 109.368 211.215 108.924 211.698 108.319C212.182 107.715 212.472 106.979 212.53 106.208C212.584 106.239 212.646 106.25 212.707 106.239C212.768 106.229 212.823 106.197 212.863 106.151C214.48 104.122 232.993 85.5625 232.032 82.9388Z" fill="#9E616A"/>
<path d="M233.139 75.6944C232.139 71.4751 231.132 67.2329 229.446 63.2378C227.761 59.2426 225.348 55.4691 221.954 52.77C220.869 51.9071 219.656 51.1455 218.295 50.8772C216.935 50.6089 215.402 50.9091 214.447 51.9138C212.918 53.5214 213.378 56.1019 213.939 58.2482C215.592 64.5765 217.245 70.9048 218.899 77.2332C223.673 76.7272 228.447 76.2212 233.221 75.7151L233.139 75.6944Z" fill="#3F3D56"/>
<path d="M217.389 34.2894C216.969 31.5279 216.529 28.7434 215.542 26.1432C214.554 23.543 212.962 21.1076 210.678 19.6347C207.062 17.3026 202.38 17.7524 198.326 19.0938C195.19 20.1313 192.13 21.7081 189.919 24.243C187.708 26.7781 186.466 30.3952 187.288 33.7098C191.613 32.6882 195.938 31.6665 200.262 30.6449L199.789 30.9794C201.209 31.6873 202.449 32.7095 203.415 33.9682C204.381 35.2269 205.047 36.6891 205.364 38.2438C205.673 39.8174 205.628 41.4401 205.234 42.9944C204.839 44.5487 204.103 45.9958 203.08 47.2311C206.03 46.1849 208.979 45.1388 211.929 44.0927C213.749 43.4469 215.698 42.7029 216.777 41.0466C218.029 39.1263 217.738 36.5811 217.389 34.2894Z" fill="#2F2E41"/>
</svg>
