<svg width="336" height="292" viewBox="0 0 336 292" fill="none" xmlns="http://www.w3.org/2000/svg">
<path d="M299.348 117.938C282.226 50.6099 223.064 2.00868 153.621 0.0593284C116.908 -0.971233 78.2761 11.2047 50.1492 53.8128C-0.130697 129.979 53.239 182.613 90.447 207.623C108.423 219.731 124.62 234.289 138.57 250.876C163.703 280.7 212.052 317.761 269.635 259.692C311.37 217.604 310.753 162.785 299.348 117.938Z" fill="#F2F2F2"/>
<path opacity="0.1" d="M28.1585 289.853C41.142 289.853 51.6671 288.581 51.6671 287.012C51.6671 285.442 41.142 284.17 28.1585 284.17C15.1751 284.17 4.6499 285.442 4.6499 287.012C4.6499 288.581 15.1751 289.853 28.1585 289.853Z" fill="black"/>
<path opacity="0.1" d="M299.154 291.92C314.563 291.92 327.054 290.532 327.054 288.82C327.054 287.108 314.563 285.72 299.154 285.72C283.745 285.72 271.253 287.108 271.253 288.82C271.253 290.532 283.745 291.92 299.154 291.92Z" fill="black"/>
<path d="M243.315 54.0309C222.01 46.4913 200.982 46.1864 184.194 58.3728C167.406 46.1864 146.379 46.4913 125.074 54.0309C90.9965 66.0905 69.1134 92.092 85.5583 138.561C100.875 181.842 173.6 217.151 183.505 221.791C183.673 222.133 183.762 222.31 183.762 222.31C183.762 222.31 183.912 222.242 184.194 222.112C184.476 222.242 184.626 222.31 184.626 222.31C184.626 222.31 184.715 222.133 184.883 221.791C194.788 217.151 267.513 181.842 282.83 138.561C299.275 92.092 277.392 66.0905 243.315 54.0309Z" fill="#C78BF1"/>
<path d="M208.21 135.489L188.537 172.903L187.608 148.434L196.393 125.196L187.411 143.248L186.156 110.182L197.917 79.0715L185.893 103.239L184.194 58.4868L181.379 132.663L155.604 83.6459L181.23 136.605L179.775 174.931L159.035 135.489L179.655 178.103L176.57 259.378H191.818L188.651 175.911L208.21 135.489Z" fill="#3F3D56"/>
<path opacity="0.1" d="M257.384 270.904C257.384 294.612 224.338 287.279 183.876 287.279C143.414 287.279 110.858 294.612 110.858 270.904C110.858 247.195 143.9 242.039 184.362 242.039C224.824 242.039 257.384 247.195 257.384 270.904Z" fill="black"/>
<path d="M257.384 265.066C257.384 288.774 224.338 281.441 183.876 281.441C143.414 281.441 110.858 288.774 110.858 265.066C110.858 241.358 143.9 236.202 184.362 236.202C224.824 236.202 257.384 241.358 257.384 265.066Z" fill="#3F3D56"/>
<path d="M296.552 135.032C296.552 135.032 315.924 140.13 316.264 142.509C316.604 144.888 306.408 151.375 306.408 151.375L284.997 141.149L296.552 135.032Z" fill="#3F3D56"/>
<path opacity="0.1" d="M296.552 135.032C296.552 135.032 315.924 140.13 316.264 142.509C316.604 144.888 306.408 151.375 306.408 151.375L284.997 141.149L296.552 135.032Z" fill="black"/>
<path d="M306.578 131.124C306.578 131.124 300.461 138.601 292.984 137.921C285.507 137.241 302.16 153.894 302.16 153.894L310.656 146.417C310.656 146.417 313.035 136.561 315.074 136.222C317.114 135.882 306.578 131.124 306.578 131.124Z" fill="#CF9595"/>
<path opacity="0.1" d="M306.578 131.124C306.578 131.124 300.461 138.601 292.984 137.921C285.507 137.241 302.16 153.894 302.16 153.894L310.656 146.417C310.656 146.417 313.035 136.561 315.074 136.222C317.114 135.882 306.578 131.124 306.578 131.124Z" fill="black"/>
<path d="M315.075 140.98C321.644 140.98 326.97 135.654 326.97 129.085C326.97 122.515 321.644 117.19 315.075 117.19C308.505 117.19 303.18 122.515 303.18 129.085C303.18 135.654 308.505 140.98 315.075 140.98Z" fill="#CF9595"/>
<path d="M279.39 160.012C279.39 160.012 279.05 172.586 279.39 174.625C279.73 176.665 277.351 193.997 277.351 193.997L284.827 188.56C284.827 188.56 290.605 170.207 288.226 165.449C285.847 160.691 279.39 160.012 279.39 160.012Z" fill="#CF9595"/>
<path d="M318.473 165.449C318.473 165.449 317.114 175.645 321.532 176.325C325.95 177.005 326.97 168.508 326.97 168.508L325.27 160.012L318.473 165.449Z" fill="#CF9595"/>
<path d="M318.882 173.099C318.882 173.099 323.644 185.966 323.878 187.625C324.112 189.285 326.84 197.023 326.157 199.15C325.474 201.277 324.814 212.878 328.209 211.384C331.603 209.891 331.199 195.394 331.199 195.394C331.199 195.394 329.387 187.188 329.656 184.442C329.924 181.697 327.125 164.153 324.829 164.138C322.533 164.123 317.946 166.462 318.882 173.099Z" fill="#CF9595"/>
<path d="M283.298 141.149C283.298 141.149 276.671 150.835 276.671 162.051C276.671 162.051 284.827 161.711 289.585 168.508C294.344 175.305 283.298 141.149 283.298 141.149Z" fill="#3F3D56"/>
<path d="M282.448 258.91C282.448 258.91 287.546 269.786 287.546 275.223C287.546 280.661 298.082 276.243 298.082 276.243C298.082 276.243 291.285 258.57 291.964 256.191C292.644 253.812 282.448 258.91 282.448 258.91Z" fill="#CF9595"/>
<path d="M301.14 258.231C301.14 258.231 302.569 278.479 300.835 280.25C299.101 282.021 307.598 281.001 307.598 281.001C307.598 281.001 307.598 265.707 310.316 259.59L301.14 258.231Z" fill="#CF9595"/>
<path d="M286.526 187.2C286.526 187.2 276.331 191.958 276.331 193.997C276.331 196.037 274.631 206.232 273.952 207.252C273.272 208.271 273.272 217.448 273.952 218.807C274.631 220.167 275.991 261.969 281.089 261.969C286.187 261.969 293.324 259.59 293.663 257.551C293.663 257.551 288.905 238.859 290.605 234.101C292.304 229.343 292.984 213.709 296.382 211.67C299.781 209.631 299.781 213.709 299.781 213.709L299.101 242.257C299.101 242.257 298.421 260.61 299.781 260.949C301.14 261.289 309.977 262.649 310.996 261.289C312.016 259.93 315.414 241.238 315.414 239.199C315.414 237.159 318.813 215.408 319.153 213.029C319.493 210.65 320.512 190.259 318.133 188.9C315.754 187.54 286.526 187.2 286.526 187.2Z" fill="#2F2E41"/>
<path d="M291.964 274.884C291.964 274.884 288.566 272.165 286.527 277.263C285.355 280.26 283.492 282.939 281.089 285.079C281.089 285.079 279.729 288.478 285.507 287.798C291.285 287.119 301.141 281.001 301.141 281.001C301.141 281.001 298.715 274.789 297.549 274.836C296.383 274.884 295.703 277.263 291.964 274.884Z" fill="#2F2E41"/>
<path d="M306.238 278.622C306.238 278.622 301.144 277.263 300.123 278.622C299.101 279.982 297.742 287.798 299.441 288.818C301.141 289.837 308.618 289.498 309.637 288.818C310.657 288.138 309.637 283.72 309.637 283.72L306.238 278.622Z" fill="#2F2E41"/>
<path d="M300.461 143.359C300.461 143.359 295.363 138.94 296.723 135.202C296.723 135.202 281.429 140.3 281.769 144.378C282.109 148.456 288.226 165.449 288.226 165.449C288.226 165.449 278.37 184.481 283.468 188.56C288.566 192.638 287.206 187.88 296.043 190.939C304.879 193.997 308.618 192.638 312.016 191.958C315.415 191.279 316.094 191.618 318.473 191.618C320.852 191.618 319.493 184.821 318.473 181.083C317.454 177.344 316.094 171.907 317.114 170.547C318.134 169.188 326.97 145.398 326.97 145.398C326.97 145.398 320.107 139.903 311.983 141.801C311.983 141.801 306.239 146.417 300.461 143.359Z" fill="#3F3D56"/>
<path d="M323.571 146.417C323.571 146.077 326.97 145.398 326.97 145.398C326.97 145.398 329.009 158.992 327.989 161.711C326.97 164.43 318.473 167.488 317.114 167.149C315.754 166.809 323.571 146.417 323.571 146.417Z" fill="#3F3D56"/>
<path d="M311.611 121.74C312.255 121.766 312.785 122.245 313.404 122.421C314.131 122.626 314.971 122.412 315.62 122.798C315.913 123.011 316.177 123.262 316.405 123.544C316.52 123.685 316.663 123.801 316.824 123.884C316.984 123.968 317.161 124.018 317.342 124.032C317.431 124.033 317.519 124.013 317.6 123.976C317.681 123.938 317.752 123.883 317.809 123.814C317.867 123.745 317.908 123.664 317.93 123.578C317.952 123.491 317.955 123.401 317.938 123.313C318.537 123.536 319.192 123.559 319.806 123.38C319.935 123.331 320.071 123.303 320.208 123.298C320.352 123.325 320.489 123.382 320.61 123.464C320.731 123.547 320.834 123.654 320.912 123.778L321.69 124.716C321.877 124.903 322.007 125.139 322.065 125.397C322.095 125.64 321.999 125.901 322.1 126.123C322.228 126.407 322.591 126.471 322.863 126.622C323.105 126.768 323.285 126.998 323.369 127.269C323.453 127.54 323.435 127.833 323.318 128.092C323.174 128.385 322.895 128.695 323.041 128.986C323.126 129.154 323.325 129.228 323.452 129.367C323.78 129.728 323.51 130.299 323.242 130.709C322.973 131.119 322.727 131.711 323.082 132.046C323.333 132.282 323.731 132.223 324.059 132.323C324.554 132.475 324.844 132.97 325.15 133.389C325.456 133.807 325.932 134.218 326.434 134.084C326.9 133.96 327.125 133.433 327.237 132.961C327.398 132.286 327.464 131.591 327.434 130.898C327.403 130.684 327.429 130.464 327.509 130.263C327.599 130.137 327.715 130.031 327.849 129.953C327.983 129.876 328.131 129.827 328.285 129.811C328.981 129.65 329.753 129.522 330.215 128.975C330.553 128.573 330.648 128.024 330.885 127.555C331.172 126.983 331.674 126.517 331.837 125.898C332.132 124.777 331.229 123.74 330.846 122.649C330.321 121.149 330.768 119.363 329.955 118C329.304 116.909 328.02 116.391 327.107 115.51C326.104 114.542 325.581 113.166 324.617 112.16C324.087 111.616 323.444 111.197 322.734 110.932C322.023 110.668 321.262 110.565 320.506 110.63C320.03 110.725 319.542 110.739 319.062 110.674C318.692 110.548 318.339 110.375 318.012 110.159C317.334 109.792 316.572 109.606 315.8 109.619C315.515 109.601 315.233 109.682 314.999 109.847C314.565 110.218 314.521 111.099 313.952 111.104C313.687 111.106 313.48 110.885 313.238 110.776C312.768 110.565 312.217 110.802 311.8 111.108C311.42 111.461 310.982 111.743 310.504 111.943C309.697 112.173 308.625 111.764 308.122 112.439C307.969 112.753 307.837 113.077 307.726 113.408C307.369 114.048 306.427 114.215 306.15 114.893C305.829 115.675 306.616 116.506 306.531 117.346C306.467 117.986 305.928 118.454 305.487 118.923C305.047 119.392 304.656 120.075 304.946 120.647C305.06 120.871 305.264 121.038 305.383 121.26C305.693 121.832 305.354 122.529 305.022 123.091C304.933 123.199 304.873 123.326 304.845 123.462C304.817 123.599 304.822 123.74 304.861 123.873C304.917 123.958 304.99 124.03 305.076 124.084C305.161 124.138 305.258 124.174 305.358 124.187C305.676 124.253 306.004 124.254 306.323 124.188C306.641 124.122 306.943 123.992 307.21 123.805C307.484 123.624 307.621 123.415 307.963 123.412C308.195 123.41 308.384 123.601 308.633 123.573C309.813 123.443 310.265 121.684 311.611 121.74Z" fill="#2F2E41"/>
<path d="M29.8038 123.17C29.8038 123.17 30.8234 130.647 26.0654 131.327C21.3074 132.006 31.5031 142.542 31.5031 142.542L44.7576 135.065C44.7576 135.065 39.6597 125.889 42.3786 121.471C45.0974 117.053 29.8038 123.17 29.8038 123.17Z" fill="#FFB9B9"/>
<path d="M22.1302 258.438L20.7707 257.759C20.7707 257.759 12.954 261.837 13.9736 263.876C14.9931 265.915 17.3721 269.994 17.3721 271.353C17.3721 272.712 18.7316 280.869 23.1497 281.549C27.5679 282.228 27.5679 278.15 26.8882 276.451C26.2085 274.752 25.8686 268.974 26.2085 266.935C26.5044 265.51 27.0354 264.145 27.7797 262.895L22.1302 258.438Z" fill="#2F2E41"/>
<path d="M15.3336 227.851C15.3336 227.851 14.314 253.34 21.451 263.876C21.451 263.876 24.1699 271.353 24.5097 272.033C24.8496 272.712 30.6272 269.654 30.6272 269.654C30.6272 269.654 27.5685 249.262 27.9083 245.864C28.2482 242.465 26.2091 238.047 26.2091 238.047L25.8692 227.851H15.3336Z" fill="#FFB9B9"/>
<path d="M31.3066 267.954L24.2102 271.308C24.2102 271.308 24.8493 276.451 25.1892 277.47C25.529 278.49 20.4312 285.967 25.8689 286.647C31.3066 287.326 36.7443 286.647 35.3849 284.947C34.0255 283.248 31.9863 275.771 32.3262 273.732C32.666 271.693 31.3066 267.954 31.3066 267.954Z" fill="#2F2E41"/>
<path d="M17.0327 133.031C17.0327 133.031 12.6146 132.691 11.9349 145.605C11.5172 153.077 11.5172 160.565 11.9349 168.036L22.8103 168.376L21.7907 147.984L17.0327 133.031Z" fill="#FFB9B9"/>
<path d="M31.8823 229.566C31.8823 229.566 32.9019 235.683 29.8432 237.043C26.7844 238.402 20.667 259.133 20.667 259.133L26.4446 264.911L42.7578 238.402C42.7578 238.402 47.5158 228.886 45.8165 228.886C44.1172 228.886 31.8823 229.566 31.8823 229.566Z" fill="#FFB9B9"/>
<path d="M34.7051 127.253C41.2745 127.253 46.6001 121.928 46.6001 115.358C46.6001 108.789 41.2745 103.463 34.7051 103.463C28.1356 103.463 22.8101 108.789 22.8101 115.358C22.8101 121.928 28.1356 127.253 34.7051 127.253Z" fill="#FFB9B9"/>
<path d="M26.5489 128.952C26.5489 128.952 27.2286 135.75 32.6663 135.75C38.1041 135.75 43.1468 131.21 43.1468 131.21C43.1468 131.21 52.7179 133.71 52.7179 135.07C52.7179 136.429 44.9012 146.285 44.9012 146.285C44.9012 146.285 41.5026 172.114 42.8621 173.474C44.2215 174.833 58.4955 223.433 56.1165 227.511C53.7375 231.59 54.7571 231.59 38.7838 232.609C22.8104 233.629 21.451 237.027 14.6538 231.929C7.85668 226.832 6.83709 223.773 4.11822 223.433C1.39936 223.093 -1.65936 185.709 1.0595 180.611C3.77835 175.513 8.53639 169.056 10.2357 167.696C11.935 166.337 15.9589 153.383 15.9589 153.383L16.0133 132.351L26.5489 128.952Z" fill="#FF6584"/>
<path d="M49.6593 134.39C49.6593 134.39 57.476 133.371 55.097 141.527C52.718 149.684 49.3194 164.638 43.8817 165.317C38.444 165.997 44.9013 145.605 44.9013 145.605L49.6593 134.39Z" fill="#FFB9B9"/>
<path d="M32.8921 102.702C36.6392 101.878 40.6107 101.687 44.2702 102.84C47.9298 103.992 51.2383 106.627 52.5896 110.218C53.9409 113.809 52.9891 118.313 49.9132 120.606C48.3107 121.801 46.2627 122.368 44.8491 123.781C43.3244 125.306 42.5801 127.755 40.552 128.486C40.1039 126.984 40.0571 125.391 40.4162 123.866C40.6707 123.071 40.8519 122.255 40.9577 121.427C40.9989 120.594 40.7022 119.672 39.9735 119.266C39.1991 118.834 38.239 119.11 37.3546 119.045C35.1545 118.883 33.7301 116.676 32.9036 114.631C32.0771 112.586 31.3367 110.263 29.4285 109.156C27.6313 108.114 25.6385 108.593 23.7218 108.86C23.4338 107.807 26.389 105.516 27.2571 104.928C28.9787 103.839 30.8905 103.083 32.8921 102.702Z" fill="#3F3D56"/>
<path d="M47.9601 157.161C47.9601 157.161 44.9013 143.566 44.9013 141.867C44.9013 140.168 43.202 132.011 44.2216 129.972C45.2412 127.933 47.6202 116.378 43.8817 117.397C40.1433 118.417 38.444 133.031 38.444 133.031C38.444 133.031 39.1237 141.527 38.444 144.246C37.7643 146.965 38.1041 164.977 40.4831 165.317C42.8622 165.657 47.9601 163.958 47.9601 157.161Z" fill="#FFB9B9"/>
<path d="M51.1883 115.188C55.3177 115.188 58.6652 111.841 58.6652 107.711C58.6652 103.582 55.3177 100.235 51.1883 100.235C47.059 100.235 43.7114 103.582 43.7114 107.711C43.7114 111.841 47.059 115.188 51.1883 115.188Z" fill="#3F3D56"/>
</svg>
