<svg width="346" height="222" viewBox="0 0 346 222" fill="none" xmlns="http://www.w3.org/2000/svg">
<path d="M329.664 221.234H32.1421C29.4963 221.234 26.9588 220.183 25.0879 218.312C23.2171 216.441 22.166 213.904 22.166 211.258C130.018 198.724 235.842 198.724 339.64 211.258C339.64 213.904 338.589 216.441 336.718 218.312C334.847 220.183 332.309 221.234 329.664 221.234Z" fill="#CCCCCC"/>
<path d="M339.64 211.845L22.1665 211.258L58.9606 149.348L59.1366 149.054V12.6109C59.1365 10.9548 59.4626 9.31485 60.0963 7.78477C60.73 6.25468 61.6589 4.86441 62.83 3.69335C64.001 2.52229 65.3913 1.59338 66.9214 0.95967C68.4515 0.325961 70.0914 -0.000138345 71.7476 4.40282e-08H288.299C289.955 -0.000138345 291.595 0.325961 293.125 0.95967C294.655 1.59338 296.045 2.52229 297.216 3.69335C298.387 4.86441 299.316 6.25468 299.95 7.78477C300.584 9.31485 300.91 10.9548 300.91 12.6109V149.993L339.64 211.845Z" fill="#E6E6E6"/>
<path d="M71.4598 8.80237C70.3708 8.80359 69.3266 9.23676 68.5565 10.0069C67.7864 10.777 67.3533 11.8211 67.3521 12.9102V137.318C67.3533 138.407 67.7865 139.451 68.5566 140.221C69.3267 140.991 70.3708 141.424 71.4598 141.425H290.347C291.436 141.424 292.48 140.991 293.25 140.221C294.02 139.451 294.453 138.407 294.454 137.318V12.9102C294.453 11.8211 294.02 10.777 293.25 10.0069C292.48 9.23683 291.436 8.80364 290.347 8.80237H71.4598Z" fill="white"/>
<path d="M72.8984 157.857C72.5618 157.857 72.2324 157.954 71.9491 158.136C71.6657 158.317 71.4401 158.576 71.2989 158.881L59.9615 183.528C59.8381 183.796 59.7841 184.091 59.8045 184.386C59.8249 184.68 59.9191 184.965 60.0784 185.214C60.2376 185.462 60.4569 185.667 60.7159 185.808C60.9749 185.95 61.2654 186.024 61.5607 186.024H299.98C300.28 186.024 300.575 185.948 300.838 185.802C301.1 185.655 301.32 185.445 301.478 185.189C301.635 184.934 301.725 184.643 301.739 184.343C301.752 184.043 301.689 183.745 301.554 183.477L289.231 158.83C289.086 158.537 288.861 158.29 288.583 158.118C288.305 157.946 287.984 157.856 287.657 157.857L72.8984 157.857Z" fill="#CCCCCC"/>
<path d="M156.588 190.719C156.201 190.719 155.825 190.847 155.518 191.083C155.211 191.318 154.99 191.648 154.888 192.022L152.045 202.584C151.974 202.845 151.965 203.119 152.017 203.384C152.07 203.649 152.183 203.899 152.347 204.113C152.511 204.328 152.723 204.501 152.965 204.621C153.207 204.741 153.474 204.803 153.744 204.803H207.828C208.109 204.803 208.386 204.736 208.635 204.607C208.885 204.478 209.1 204.292 209.262 204.063C209.425 203.835 209.531 203.571 209.571 203.293C209.611 203.015 209.583 202.732 209.491 202.466L205.835 191.904C205.715 191.558 205.491 191.258 205.193 191.046C204.894 190.833 204.538 190.719 204.172 190.719H156.588Z" fill="#CCCCCC"/>
<path d="M300.91 147V149.348H58.9604L59.1423 149.054V147H300.91Z" fill="#CCCCCC"/>
<path d="M271.046 152.377C270.951 152.377 270.86 152.409 270.785 152.466C270.71 152.523 270.656 152.604 270.632 152.695L269.939 155.267C269.922 155.33 269.92 155.397 269.932 155.461C269.945 155.526 269.973 155.587 270.013 155.639C270.053 155.691 270.104 155.734 270.163 155.763C270.222 155.792 270.287 155.807 270.353 155.807H283.523C283.592 155.807 283.659 155.791 283.72 155.759C283.78 155.728 283.833 155.683 283.872 155.627C283.912 155.571 283.938 155.507 283.948 155.439C283.957 155.372 283.951 155.303 283.928 155.238L283.038 152.666C283.009 152.582 282.954 152.509 282.881 152.457C282.809 152.405 282.722 152.377 282.633 152.377H271.046Z" fill="#CCCCCC"/>
<path d="M251.815 152.377C251.721 152.377 251.629 152.409 251.554 152.466C251.48 152.523 251.426 152.604 251.401 152.695L250.709 155.267C250.691 155.33 250.689 155.397 250.702 155.461C250.715 155.526 250.742 155.587 250.782 155.639C250.822 155.691 250.874 155.734 250.933 155.763C250.992 155.792 251.057 155.807 251.123 155.807H264.293C264.361 155.807 264.429 155.791 264.489 155.759C264.55 155.728 264.602 155.683 264.642 155.627C264.682 155.571 264.707 155.507 264.717 155.439C264.727 155.372 264.72 155.303 264.698 155.238L263.807 152.666C263.778 152.582 263.724 152.509 263.651 152.457C263.578 152.405 263.491 152.377 263.402 152.377H251.815Z" fill="#CCCCCC"/>
<path d="M196.101 168.721H197.133L195.069 30.749H194.037L194.078 33.5016H170.943L170.984 30.749H169.952L167.887 168.721H168.919L169.053 159.776H195.967L196.101 168.721ZM194.613 69.285H170.407L170.66 52.4255H194.361L194.613 69.285ZM194.629 70.3172L194.881 87.1766H170.14L170.392 70.3172H194.629ZM194.896 88.2088L195.149 105.068H169.872L170.124 88.2088H194.896ZM195.164 106.101L195.416 122.96H169.604L169.856 106.101H195.164ZM195.432 123.992L195.684 140.852H169.336L169.589 123.992H195.432ZM194.093 34.5338L194.345 51.3933H170.675L170.927 34.5338H194.093ZM169.069 158.743L169.321 141.884H195.699L195.952 158.743H169.069Z" fill="#3F3D56"/>
<path d="M177.397 78.2712C186.693 78.2712 194.228 70.7355 194.228 61.4398C194.228 52.1441 186.693 44.6084 177.397 44.6084C168.101 44.6084 160.565 52.1441 160.565 61.4398C160.565 70.7355 168.101 78.2712 177.397 78.2712Z" fill="#35164A"/>
<path d="M187.297 73.0716L182.266 73.9824L183.898 82.9973L188.929 82.0865L187.297 73.0716Z" fill="#35164A"/>
<path d="M177.234 74.8933L172.203 75.8042L173.835 84.8191L178.866 83.9082L177.234 74.8933Z" fill="#35164A"/>
<path d="M176.506 86.7162C178.301 85.1953 179.295 83.4164 178.725 82.743C178.154 82.0695 176.236 82.7565 174.44 84.2774C172.644 85.7983 171.651 87.5772 172.221 88.2506C172.792 88.9241 174.71 88.2371 176.506 86.7162Z" fill="#35164A"/>
<path d="M186.359 84.9325C188.155 83.4116 189.148 81.6327 188.578 80.9593C188.008 80.2858 186.09 80.9728 184.294 82.4937C182.498 84.0146 181.504 85.7935 182.075 86.4669C182.645 87.1404 184.563 86.4534 186.359 84.9325Z" fill="#35164A"/>
<path d="M190.674 43.1289C190.928 36.8977 185.557 31.6198 178.679 31.3404C171.801 31.061 166.021 35.886 165.767 42.1172C165.514 48.3484 170.295 49.7642 177.173 50.0436C184.051 50.323 190.421 49.3602 190.674 43.1289Z" fill="#E6CCF8"/>
<path d="M170.058 60.2537C170.384 58.8315 166.976 56.8367 162.446 55.7983C157.915 54.7598 153.978 55.071 153.652 56.4932C153.326 57.9154 156.735 59.9102 161.265 60.9486C165.795 61.987 169.732 61.6759 170.058 60.2537Z" fill="#35164A"/>
<path d="M203.098 65.7481C203.424 64.3259 200.015 62.3311 195.485 61.2927C190.955 60.2542 187.018 60.5654 186.692 61.9876C186.366 63.4098 189.774 65.4046 194.305 66.443C198.835 67.4814 202.772 67.1703 203.098 65.7481Z" fill="#35164A"/>
<path d="M27.2033 165.392C36.7325 165.392 44.4574 157.668 44.4574 148.138C44.4574 138.609 36.7325 130.884 27.2033 130.884C17.6741 130.884 9.94922 138.609 9.94922 148.138C9.94922 157.668 17.6741 165.392 27.2033 165.392Z" fill="#35164A"/>
<path d="M24.5826 161.68H19.3408V171.071H24.5826V161.68Z" fill="#35164A"/>
<path d="M35.066 161.68H29.8242V171.071H35.066V161.68Z" fill="#35164A"/>
<path d="M23.7085 172.818C26.1209 172.818 28.0766 172.085 28.0766 171.18C28.0766 170.275 26.1209 169.542 23.7085 169.542C21.296 169.542 19.3403 170.275 19.3403 171.18C19.3403 172.085 21.296 172.818 23.7085 172.818Z" fill="#35164A"/>
<path d="M34.1923 172.6C36.6048 172.6 38.5605 171.866 38.5605 170.962C38.5605 170.057 36.6048 169.324 34.1923 169.324C31.7799 169.324 29.8242 170.057 29.8242 170.962C29.8242 171.866 31.7799 172.6 34.1923 172.6Z" fill="#35164A"/>
<path d="M10.466 132.093C9.07283 125.853 13.5263 119.549 20.4131 118.011C27.2999 116.473 34.0122 120.285 35.4054 126.524C36.7986 132.763 32.2344 135.064 25.3476 136.602C18.4608 138.14 11.8592 138.332 10.466 132.093Z" fill="#E6E6E6"/>
<path d="M39.7837 86.4978C41.4848 82.0473 41.7312 78.0065 40.334 77.4724C38.9369 76.9384 36.4252 80.1134 34.7241 84.564C33.0231 89.0145 32.7767 93.0553 34.1738 93.5894C35.571 94.1234 38.0826 90.9484 39.7837 86.4978Z" fill="#35164A"/>
<path d="M38.3371 101.324C39.8635 91.9179 33.4758 83.0554 24.0696 81.529C14.6635 80.0026 5.80095 86.3903 4.27454 95.7965C2.74814 105.203 9.13591 114.065 18.542 115.592C27.9482 117.118 36.8107 110.73 38.3371 101.324Z" fill="#35164A"/>
<path d="M18.6856 112.101H13.4438V121.493H18.6856V112.101Z" fill="#35164A"/>
<path d="M29.1685 112.101H23.9268V121.493H29.1685V112.101Z" fill="#35164A"/>
<path d="M17.812 123.24C20.2244 123.24 22.1801 122.507 22.1801 121.602C22.1801 120.697 20.2244 119.964 17.812 119.964C15.3995 119.964 13.4438 120.697 13.4438 121.602C13.4438 122.507 15.3995 123.24 17.812 123.24Z" fill="#35164A"/>
<path d="M28.2949 123.022C30.7073 123.022 32.663 122.288 32.663 121.384C32.663 120.479 30.7073 119.746 28.2949 119.746C25.8824 119.746 23.9268 120.479 23.9268 121.384C23.9268 122.288 25.8824 123.022 28.2949 123.022Z" fill="#35164A"/>
<path d="M4.56905 82.5143C3.17586 76.2749 7.62933 69.9704 14.5161 68.4326C21.403 66.8948 28.1152 70.7062 29.5084 76.9455C30.9016 83.1849 26.3375 85.486 19.4506 87.0238C12.5638 88.5615 5.96223 88.7536 4.56905 82.5143Z" fill="#E6CCF8"/>
<path d="M6.65392 95.3212C5.17234 95.1158 3.44101 98.7752 2.78688 103.495C2.13276 108.214 2.80354 112.207 4.28513 112.412C5.76671 112.617 7.49805 108.958 8.15217 104.238C8.8063 99.5189 8.13551 95.5265 6.65392 95.3212Z" fill="#35164A"/>
<path d="M43.5914 163.284C45.06 163 45.5178 158.978 44.614 154.3C43.7101 149.622 41.7869 146.059 40.3183 146.343C38.8497 146.627 38.3919 150.649 39.2958 155.327C40.1996 160.005 42.1229 163.568 43.5914 163.284Z" fill="#35164A"/>
<path d="M38.2698 32.6788C37.9511 32.6792 37.6456 32.8059 37.4203 33.0312C37.195 33.2566 37.0682 33.5621 37.0679 33.8807V83.5589C37.0682 83.8776 37.195 84.1831 37.4203 84.4084C37.6456 84.6337 37.9511 84.7604 38.2698 84.7608H153.251C153.569 84.7604 153.875 84.6337 154.1 84.4084C154.326 84.1831 154.452 83.8776 154.453 83.5589V33.8807C154.452 33.5621 154.326 33.2566 154.1 33.0312C153.875 32.8059 153.569 32.6792 153.251 32.6788H38.2698Z" fill="#C78BF1"/>
<path d="M95.648 57.1675C95.2901 57.1734 94.9489 57.3197 94.6978 57.5749C94.4468 57.8301 94.3062 58.1737 94.3062 58.5316C94.3062 58.8896 94.4468 59.2332 94.6978 59.4884C94.9489 59.7435 95.2901 59.8898 95.648 59.8957H132.484C132.663 59.8988 132.842 59.8665 133.008 59.8008C133.175 59.735 133.327 59.637 133.456 59.5124C133.585 59.3878 133.688 59.239 133.759 59.0746C133.831 58.9102 133.869 58.7333 133.872 58.554C133.875 58.3748 133.842 58.1968 133.776 58.0301C133.711 57.8634 133.612 57.7113 133.488 57.5825C133.363 57.4538 133.214 57.3509 133.05 57.2797C132.885 57.2084 132.708 57.1703 132.529 57.1675C132.514 57.1673 132.499 57.1673 132.484 57.1675H95.648Z" fill="white"/>
<path d="M95.648 49.2644C95.2901 49.2702 94.9489 49.4165 94.6978 49.6717C94.4468 49.9269 94.3062 50.2705 94.3062 50.6284C94.3062 50.9864 94.4468 51.33 94.6978 51.5852C94.9489 51.8403 95.2901 51.9866 95.648 51.9925H114.043C114.222 51.9956 114.4 51.9633 114.567 51.8976C114.734 51.8318 114.886 51.7338 115.015 51.6092C115.144 51.4846 115.247 51.3358 115.318 51.1714C115.39 51.007 115.428 50.8301 115.431 50.6508C115.434 50.4716 115.401 50.2936 115.335 50.1269C115.269 49.9602 115.171 49.8081 115.047 49.6793C114.922 49.5506 114.773 49.4476 114.609 49.3764C114.444 49.3052 114.267 49.2671 114.088 49.2644C114.073 49.2641 114.058 49.2641 114.043 49.2644H95.648Z" fill="white"/>
<path d="M95.648 65.4473C95.2901 65.4532 94.9489 65.5995 94.6978 65.8547C94.4468 66.1099 94.3062 66.4535 94.3062 66.8114C94.3062 67.1694 94.4468 67.513 94.6978 67.7681C94.9489 68.0233 95.2901 68.1696 95.648 68.1755H132.484C132.663 68.1786 132.842 68.1463 133.008 68.0806C133.175 68.0148 133.327 67.9168 133.456 67.7922C133.585 67.6676 133.688 67.5188 133.759 67.3544C133.831 67.19 133.869 67.0131 133.872 66.8338C133.875 66.6546 133.842 66.4766 133.776 66.3099C133.711 66.1432 133.612 65.9911 133.488 65.8623C133.363 65.7336 133.214 65.6307 133.05 65.5594C132.885 65.4882 132.708 65.4501 132.529 65.4473C132.514 65.4471 132.499 65.4471 132.484 65.4473H95.648Z" fill="white"/>
<path d="M274.548 157.338C275.946 156.803 275.699 152.763 273.998 148.312C272.297 143.862 269.785 140.687 268.388 141.221C266.991 141.755 267.237 145.795 268.939 150.246C270.64 154.697 273.151 157.872 274.548 157.338Z" fill="#35164A"/>
<path d="M286.575 182.945C295.981 181.419 302.368 172.556 300.842 163.15C299.316 153.744 290.453 147.356 281.047 148.883C271.641 150.409 265.253 159.272 266.779 168.678C268.306 178.084 277.168 184.472 286.575 182.945Z" fill="#35164A"/>
<path d="M291.673 179.455H286.432L287.457 190.702L291.682 189.554L291.673 179.455Z" fill="#35164A"/>
<path d="M280.246 179.484H275.004L276.03 190.731L280.064 189.554L280.246 179.484Z" fill="#35164A"/>
<path d="M275.881 191.26C278.287 191.084 280.184 190.21 280.118 189.307C280.052 188.405 278.048 187.816 275.642 187.992C273.236 188.168 271.339 189.042 271.405 189.944C271.471 190.847 273.475 191.436 275.881 191.26Z" fill="#35164A"/>
<path d="M304.221 155.511C307.052 151.678 308.371 147.851 307.168 146.962C305.965 146.074 302.695 148.46 299.864 152.293C297.033 156.125 295.714 159.952 296.917 160.841C298.12 161.73 301.39 159.343 304.221 155.511Z" fill="#35164A"/>
<path d="M332.193 151.655L237.747 138.562C237.01 138.459 236.345 138.068 235.896 137.475C235.448 136.882 235.253 136.136 235.354 135.399L245.971 58.81C246.074 58.0737 246.465 57.4082 247.058 56.9597C247.651 56.5111 248.398 56.316 249.134 56.4173L343.581 69.5103C344.317 69.6133 344.983 70.0041 345.431 70.597C345.88 71.19 346.075 71.9367 345.974 72.6732L335.356 149.262C335.253 149.999 334.862 150.664 334.27 151.113C333.677 151.561 332.93 151.756 332.193 151.655Z" fill="#C78BF1"/>
<path d="M298.358 127.753L250.141 121.069C250.08 121.061 250.02 121.048 249.962 121.029L278.243 84.6896C278.416 84.4629 278.647 84.2862 278.911 84.1777C279.175 84.0691 279.463 84.0326 279.745 84.0718C280.028 84.111 280.295 84.2245 280.519 84.4007C280.744 84.577 280.918 84.8096 281.023 85.0749L292.653 113.705L293.21 115.075L298.358 127.753Z" fill="white"/>
<path d="M83.6362 70.094L47.7364 75.6686C47.6916 75.6761 47.6461 75.6796 47.6006 75.6788L60.0128 43.6324C60.0879 43.4331 60.2147 43.2574 60.38 43.1231C60.5453 42.9889 60.7433 42.9009 60.9538 42.8683C61.1642 42.8356 61.3796 42.8594 61.5778 42.9371C61.7761 43.0149 61.9501 43.144 62.0822 43.311L76.5418 61.2779L77.2344 62.1376L83.6362 70.094Z" fill="white"/>
<path opacity="0.2" d="M298.358 127.753L281.896 125.471L291.604 114.852L292.303 114.087L292.653 113.705L293.21 115.075L298.358 127.753Z" fill="black"/>
<path d="M325.206 131.475L283.501 125.693L293.21 115.075L293.909 114.31L306.561 100.472C306.779 100.264 307.039 100.105 307.323 100.004C307.608 99.9029 307.91 99.8629 308.211 99.8864C308.512 99.9099 308.804 99.9965 309.069 100.14C309.334 100.284 309.566 100.482 309.75 100.722C309.796 100.789 309.838 100.859 309.875 100.932L325.206 131.475Z" fill="white"/>
<path d="M298.945 97.0261C302.927 97.0261 306.156 93.7975 306.156 89.8147C306.156 85.832 302.927 82.6034 298.945 82.6034C294.962 82.6034 291.733 85.832 291.733 89.8147C291.733 93.7975 294.962 97.0261 298.945 97.0261Z" fill="white"/>
<path d="M259.476 63.5153L250.745 62.3049L249.535 71.0353L258.265 72.2457L259.476 63.5153Z" fill="#62268B"/>
<path d="M300.548 149.868C301.941 143.629 297.487 137.324 290.601 135.786C283.714 134.249 277.002 138.06 275.608 144.299C274.215 150.539 278.779 152.84 285.666 154.378C292.553 155.915 299.155 156.107 300.548 149.868Z" fill="#F2F2F2"/>
<path d="M287.376 191.232C289.782 191.056 291.679 190.182 291.613 189.28C291.547 188.378 289.543 187.789 287.137 187.965C284.731 188.141 282.834 189.015 282.9 189.917C282.966 190.819 284.97 191.408 287.376 191.232Z" fill="#35164A"/>
</svg>
