<svg width="467" height="319" viewBox="0 0 467 319" fill="none" xmlns="http://www.w3.org/2000/svg">
<path d="M190.651 92C199.744 92 206 96.9833 206 104.147C206 108.891 203.672 112.173 199.186 114.784C194.967 117.204 193.536 118.977 193.536 122.044C193.536 122.292 193.487 122.538 193.39 122.768C193.294 122.998 193.153 123.206 192.975 123.382C192.797 123.558 192.586 123.697 192.354 123.792C192.121 123.887 191.872 123.936 191.621 123.936H186.972C186.475 123.936 185.998 123.746 185.641 123.405C185.284 123.064 185.075 122.6 185.057 122.11L185.049 121.876C184.637 116.941 186.383 113.874 190.772 111.334C194.87 108.915 196.592 107.381 196.592 104.41C196.592 101.44 193.682 99.2594 190.069 99.2594C187.322 99.2594 185.149 100.58 184.152 102.736C183.802 103.466 183.247 104.082 182.554 104.51C181.861 104.938 181.058 105.162 180.24 105.153V105.153C177.091 105.153 175.01 101.844 176.483 99.093C178.813 94.7416 183.729 92 190.651 92ZM184.273 133.065C184.273 130.309 186.601 128.129 189.462 128.129C192.348 128.129 194.676 130.285 194.676 133.065C194.676 135.844 192.348 138 189.462 138C186.577 138 184.273 135.844 184.273 133.065V133.065Z" fill="#7C3BA8"/>
<path d="M381.242 68.577C397.391 68.577 410.483 55.4641 410.483 39.2885C410.483 23.1129 397.391 10 381.242 10C365.092 10 352 23.1129 352 39.2885C352 55.4641 365.092 68.577 381.242 68.577Z" fill="#FFBA11"/>
<path d="M409.984 128.531C409.984 185.1 376.409 204.851 334.992 204.851C293.575 204.851 260 185.1 260 128.531C260 71.9635 334.992 0 334.992 0C334.992 0 409.984 71.9635 409.984 128.531Z" fill="#2EC32E"/>
<path d="M332.26 196.198L333.028 148.856L364.991 90.2864L333.148 141.429L333.494 120.142L355.523 77.7674L333.585 114.509L334.206 76.2229L357.795 42.4876L334.304 70.2028L334.692 0L332.253 92.9352L332.454 89.1016L308.47 52.3322L332.069 96.4613L329.835 139.22L329.768 138.085L302.119 99.3906L329.684 142.094L329.405 147.442L329.355 147.522L329.378 147.961L323.708 256.443H331.283L332.192 200.41L359.689 157.811L332.26 196.198Z" fill="#3F3D56"/>
<path d="M233.5 264C362.458 264 467 258.627 467 252C467 245.373 362.458 240 233.5 240C104.542 240 0 245.373 0 252C0 258.627 104.542 264 233.5 264Z" fill="#3F3D56"/>
<path d="M127.358 238.297C147.292 238.297 163.453 222.111 163.453 202.144C163.453 182.177 147.292 165.991 127.358 165.991C107.423 165.991 91.2625 182.177 91.2625 202.144C91.2625 222.111 107.423 238.297 127.358 238.297Z" fill="#2F2E41"/>
<path d="M121.542 230.45L110.577 230.321L110.345 249.998L121.31 250.127L121.542 230.45Z" fill="#2F2E41"/>
<path d="M143.471 230.709L132.506 230.58L132.275 250.257L143.24 250.386L143.471 230.709Z" fill="#2F2E41"/>
<path d="M128.379 197.121C130.65 197.121 132.491 195.277 132.491 193.002C132.491 190.728 130.65 188.884 128.379 188.884C126.108 188.884 124.267 190.728 124.267 193.002C124.267 195.277 126.108 197.121 128.379 197.121Z" fill="#3F3D56"/>
<path d="M92.7419 168.112C89.9814 155.005 99.4527 141.905 113.897 138.853C128.341 135.802 142.288 143.953 145.048 157.06C147.809 170.167 138.205 174.875 123.761 177.927C109.317 180.979 95.5025 181.219 92.7419 168.112Z" fill="#6C63FF"/>
<path d="M182.418 222.313C182.418 247.517 167.459 256.318 149.005 256.318C148.577 256.318 148.151 256.313 147.725 256.303C146.869 256.285 146.023 256.244 145.186 256.187C128.531 255.006 115.592 245.753 115.592 222.313C115.592 198.054 146.542 167.444 148.867 165.179L148.871 165.175C148.96 165.087 149.005 165.044 149.005 165.044C149.005 165.044 182.418 197.108 182.418 222.313Z" fill="#6C63FF"/>
<path d="M124.297 224.576C124.043 224.397 123.87 224.124 123.816 223.818C123.763 223.512 123.833 223.197 124.012 222.943L133.223 209.842C133.402 209.588 133.675 209.415 133.981 209.362C134.287 209.308 134.602 209.379 134.856 209.558C135.11 209.736 135.283 210.009 135.336 210.315C135.39 210.621 135.319 210.936 135.141 211.19L125.929 224.291C125.751 224.545 125.478 224.718 125.172 224.771C124.866 224.825 124.551 224.754 124.297 224.576Z" fill="#3F3D56"/>
<path d="M133.508 211.475C131.991 210.408 130.825 208.916 130.156 207.187C129.487 205.457 129.347 203.569 129.751 201.759C130.156 199.95 131.088 198.301 132.43 197.022C133.772 195.742 135.463 194.889 137.29 194.571C139.116 194.252 140.996 194.483 142.692 195.233C144.388 195.983 145.823 197.219 146.816 198.784C147.809 200.35 148.316 202.175 148.272 204.029C148.228 205.882 147.635 207.681 146.569 209.198C145.137 211.229 142.958 212.61 140.509 213.037C138.061 213.464 135.543 212.902 133.508 211.475V211.475ZM142.944 198.054C141.806 197.255 140.457 196.81 139.067 196.777C137.677 196.744 136.308 197.124 135.134 197.869C133.959 198.614 133.032 199.69 132.47 200.962C131.907 202.234 131.735 203.644 131.973 205.014C132.212 206.383 132.852 207.652 133.812 208.658C134.771 209.665 136.008 210.364 137.365 210.667C138.722 210.971 140.138 210.865 141.436 210.364C142.733 209.862 143.852 208.987 144.652 207.85C145.722 206.324 146.143 204.435 145.823 202.599C145.503 200.763 144.467 199.128 142.944 198.054V198.054Z" fill="#3F3D56"/>
<path d="M133.02 220.086C134.185 217.177 127.628 211.807 118.376 208.093C109.124 204.379 100.68 203.726 99.5163 206.635C98.3522 209.544 104.909 214.914 114.161 218.628C123.412 222.342 131.856 222.995 133.02 220.086Z" fill="#2F2E41"/>
<path d="M136.684 138.619C136.684 138.619 117.896 105.669 109.243 125.529C109.243 125.529 82.3564 101.622 88.1653 158.72L85.7989 168.779C85.7989 168.779 111.352 147.588 144.82 143.518L136.684 138.619Z" fill="#2F2E41"/>
<path d="M112.701 292.094L119.209 308.336L125.717 292.094H129.121V312H126.496V304.248L126.742 295.881L120.207 312H118.197L111.676 295.922L111.936 304.248V312H109.311V292.094H112.701ZM142.492 312C142.346 311.708 142.228 311.189 142.137 310.441C140.961 311.663 139.557 312.273 137.926 312.273C136.467 312.273 135.269 311.863 134.33 311.043C133.4 310.214 132.936 309.165 132.936 307.898C132.936 306.358 133.519 305.164 134.686 304.316C135.861 303.46 137.511 303.031 139.635 303.031H142.096V301.869C142.096 300.985 141.831 300.283 141.303 299.764C140.774 299.235 139.995 298.971 138.965 298.971C138.062 298.971 137.306 299.199 136.695 299.654C136.085 300.11 135.779 300.661 135.779 301.309H133.236C133.236 300.57 133.496 299.859 134.016 299.176C134.544 298.483 135.255 297.936 136.148 297.535C137.051 297.134 138.04 296.934 139.115 296.934C140.82 296.934 142.155 297.362 143.121 298.219C144.087 299.066 144.589 300.238 144.625 301.732V308.541C144.625 309.899 144.798 310.979 145.145 311.781V312H142.492ZM138.295 310.072C139.088 310.072 139.84 309.867 140.551 309.457C141.262 309.047 141.777 308.514 142.096 307.857V304.822H140.113C137.014 304.822 135.465 305.729 135.465 307.543C135.465 308.336 135.729 308.956 136.258 309.402C136.786 309.849 137.465 310.072 138.295 310.072ZM154.523 310.209C155.426 310.209 156.214 309.936 156.889 309.389C157.563 308.842 157.937 308.158 158.01 307.338H160.402C160.357 308.186 160.065 308.992 159.527 309.758C158.99 310.523 158.27 311.134 157.367 311.59C156.474 312.046 155.526 312.273 154.523 312.273C152.509 312.273 150.905 311.604 149.711 310.264C148.526 308.915 147.934 307.074 147.934 304.74V304.316C147.934 302.876 148.198 301.596 148.727 300.475C149.255 299.354 150.012 298.483 150.996 297.863C151.99 297.243 153.161 296.934 154.51 296.934C156.169 296.934 157.545 297.43 158.639 298.424C159.742 299.417 160.329 300.707 160.402 302.293H158.01C157.937 301.336 157.572 300.552 156.916 299.941C156.269 299.322 155.467 299.012 154.51 299.012C153.225 299.012 152.227 299.477 151.516 300.406C150.814 301.327 150.463 302.662 150.463 304.412V304.891C150.463 306.595 150.814 307.908 151.516 308.828C152.217 309.749 153.22 310.209 154.523 310.209ZM174.238 299.258H169.275V312H166.746V299.258H161.879V297.207H174.238V299.258ZM181.744 312.273C179.739 312.273 178.107 311.617 176.85 310.305C175.592 308.983 174.963 307.219 174.963 305.014V304.549C174.963 303.081 175.241 301.773 175.797 300.625C176.362 299.467 177.146 298.565 178.148 297.918C179.16 297.262 180.254 296.934 181.43 296.934C183.353 296.934 184.848 297.567 185.914 298.834C186.98 300.101 187.514 301.915 187.514 304.275V305.328H177.492C177.529 306.786 177.952 307.967 178.764 308.869C179.584 309.762 180.623 310.209 181.881 310.209C182.774 310.209 183.531 310.027 184.15 309.662C184.77 309.298 185.312 308.814 185.777 308.213L187.322 309.416C186.083 311.321 184.223 312.273 181.744 312.273ZM181.43 299.012C180.409 299.012 179.552 299.385 178.859 300.133C178.167 300.871 177.738 301.91 177.574 303.25H184.984V303.059C184.911 301.773 184.565 300.78 183.945 300.078C183.326 299.367 182.487 299.012 181.43 299.012ZM202.949 304.768C202.949 307.019 202.434 308.833 201.404 310.209C200.374 311.585 198.98 312.273 197.221 312.273C195.425 312.273 194.012 311.704 192.982 310.564V317.688H190.453V297.207H192.764L192.887 298.848C193.917 297.572 195.348 296.934 197.18 296.934C198.957 296.934 200.361 297.604 201.391 298.943C202.43 300.283 202.949 302.147 202.949 304.535V304.768ZM200.42 304.48C200.42 302.812 200.064 301.495 199.354 300.529C198.643 299.563 197.667 299.08 196.428 299.08C194.896 299.08 193.748 299.759 192.982 301.117V308.186C193.739 309.535 194.896 310.209 196.455 310.209C197.667 310.209 198.629 309.73 199.34 308.773C200.06 307.807 200.42 306.376 200.42 304.48ZM215.309 312C215.163 311.708 215.044 311.189 214.953 310.441C213.777 311.663 212.374 312.273 210.742 312.273C209.284 312.273 208.085 311.863 207.146 311.043C206.217 310.214 205.752 309.165 205.752 307.898C205.752 306.358 206.335 305.164 207.502 304.316C208.678 303.46 210.327 303.031 212.451 303.031H214.912V301.869C214.912 300.985 214.648 300.283 214.119 299.764C213.59 299.235 212.811 298.971 211.781 298.971C210.879 298.971 210.122 299.199 209.512 299.654C208.901 300.11 208.596 300.661 208.596 301.309H206.053C206.053 300.57 206.312 299.859 206.832 299.176C207.361 298.483 208.072 297.936 208.965 297.535C209.867 297.134 210.856 296.934 211.932 296.934C213.636 296.934 214.971 297.362 215.938 298.219C216.904 299.066 217.405 300.238 217.441 301.732V308.541C217.441 309.899 217.615 310.979 217.961 311.781V312H215.309ZM211.111 310.072C211.904 310.072 212.656 309.867 213.367 309.457C214.078 309.047 214.593 308.514 214.912 307.857V304.822H212.93C209.831 304.822 208.281 305.729 208.281 307.543C208.281 308.336 208.546 308.956 209.074 309.402C209.603 309.849 210.282 310.072 211.111 310.072ZM227.682 304.467C227.682 303.018 227.964 301.714 228.529 300.557C229.104 299.399 229.896 298.506 230.908 297.877C231.929 297.248 233.091 296.934 234.395 296.934C236.409 296.934 238.036 297.631 239.275 299.025C240.524 300.42 241.148 302.275 241.148 304.59V304.768C241.148 306.208 240.87 307.502 240.314 308.65C239.768 309.79 238.979 310.678 237.949 311.316C236.928 311.954 235.753 312.273 234.422 312.273C232.417 312.273 230.79 311.576 229.541 310.182C228.301 308.787 227.682 306.941 227.682 304.645V304.467ZM230.225 304.768C230.225 306.408 230.603 307.725 231.359 308.719C232.125 309.712 233.146 310.209 234.422 310.209C235.707 310.209 236.728 309.708 237.484 308.705C238.241 307.693 238.619 306.281 238.619 304.467C238.619 302.844 238.232 301.532 237.457 300.529C236.691 299.518 235.671 299.012 234.395 299.012C233.146 299.012 232.139 299.508 231.373 300.502C230.607 301.495 230.225 302.917 230.225 304.768ZM255.012 299.258H250.049V312H247.52V299.258H242.652V297.207H255.012V299.258ZM262.312 310.209C263.215 310.209 264.003 309.936 264.678 309.389C265.352 308.842 265.726 308.158 265.799 307.338H268.191C268.146 308.186 267.854 308.992 267.316 309.758C266.779 310.523 266.059 311.134 265.156 311.59C264.263 312.046 263.315 312.273 262.312 312.273C260.298 312.273 258.694 311.604 257.5 310.264C256.315 308.915 255.723 307.074 255.723 304.74V304.316C255.723 302.876 255.987 301.596 256.516 300.475C257.044 299.354 257.801 298.483 258.785 297.863C259.779 297.243 260.95 296.934 262.299 296.934C263.958 296.934 265.334 297.43 266.428 298.424C267.531 299.417 268.118 300.707 268.191 302.293H265.799C265.726 301.336 265.361 300.552 264.705 299.941C264.058 299.322 263.256 299.012 262.299 299.012C261.014 299.012 260.016 299.477 259.305 300.406C258.603 301.327 258.252 302.662 258.252 304.412V304.891C258.252 306.595 258.603 307.908 259.305 308.828C260.007 309.749 261.009 310.209 262.312 310.209ZM275.875 308.295L279.32 297.207H282.027L276.08 314.283C275.16 316.744 273.697 317.975 271.691 317.975L271.213 317.934L270.27 317.756V315.705L270.953 315.76C271.81 315.76 272.475 315.587 272.949 315.24C273.432 314.894 273.829 314.26 274.139 313.34L274.699 311.836L269.422 297.207H272.184L275.875 308.295ZM295.289 299.258H290.326V312H287.797V299.258H282.93V297.207H295.289V299.258ZM302.59 310.209C303.492 310.209 304.281 309.936 304.955 309.389C305.63 308.842 306.003 308.158 306.076 307.338H308.469C308.423 308.186 308.132 308.992 307.594 309.758C307.056 310.523 306.336 311.134 305.434 311.59C304.54 312.046 303.592 312.273 302.59 312.273C300.576 312.273 298.971 311.604 297.777 310.264C296.592 308.915 296 307.074 296 304.74V304.316C296 302.876 296.264 301.596 296.793 300.475C297.322 299.354 298.078 298.483 299.062 297.863C300.056 297.243 301.227 296.934 302.576 296.934C304.235 296.934 305.611 297.43 306.705 298.424C307.808 299.417 308.396 300.707 308.469 302.293H306.076C306.003 301.336 305.639 300.552 304.982 299.941C304.335 299.322 303.533 299.012 302.576 299.012C301.291 299.012 300.293 299.477 299.582 300.406C298.88 301.327 298.529 302.662 298.529 304.412V304.891C298.529 306.595 298.88 307.908 299.582 308.828C300.284 309.749 301.286 310.209 302.59 310.209ZM322.305 299.258H317.342V312H314.812V299.258H309.945V297.207H322.305V299.258ZM324.998 312V297.207H330.768C332.736 297.207 334.245 297.553 335.293 298.246C336.35 298.93 336.879 299.937 336.879 301.268C336.879 301.951 336.674 302.571 336.264 303.127C335.854 303.674 335.247 304.093 334.445 304.385C335.339 304.594 336.054 305.005 336.592 305.615C337.139 306.226 337.412 306.955 337.412 307.803C337.412 309.161 336.911 310.2 335.908 310.92C334.915 311.64 333.507 312 331.684 312H324.998ZM327.527 305.506V309.963H331.711C332.768 309.963 333.557 309.767 334.076 309.375C334.605 308.983 334.869 308.432 334.869 307.721C334.869 306.244 333.785 305.506 331.615 305.506H327.527ZM327.527 303.482H330.795C333.165 303.482 334.35 302.79 334.35 301.404C334.35 300.019 333.229 299.303 330.986 299.258H327.527V303.482ZM345.438 308.295L348.883 297.207H351.59L345.643 314.283C344.722 316.744 343.259 317.975 341.254 317.975L340.775 317.934L339.832 317.756V315.705L340.516 315.76C341.372 315.76 342.038 315.587 342.512 315.24C342.995 314.894 343.391 314.26 343.701 313.34L344.262 311.836L338.984 297.207H341.746L345.438 308.295ZM356.621 303.482H360.176C360.367 301.514 361.064 299.932 362.268 298.738C363.48 297.535 365.007 296.934 366.848 296.934C368.78 296.934 370.361 297.585 371.592 298.889C372.822 300.192 373.488 301.887 373.588 303.975L373.602 304.768C373.602 306.208 373.319 307.507 372.754 308.664C372.189 309.822 371.396 310.715 370.375 311.344C369.354 311.964 368.188 312.273 366.875 312.273C364.97 312.273 363.411 311.654 362.199 310.414C360.987 309.165 360.308 307.548 360.162 305.561H356.621V312H354.092V297.207H356.621V303.482ZM362.664 304.768C362.664 306.408 363.042 307.725 363.799 308.719C364.564 309.712 365.59 310.209 366.875 310.209C368.16 310.209 369.176 309.703 369.924 308.691C370.68 307.68 371.059 306.271 371.059 304.467C371.059 302.854 370.676 301.541 369.91 300.529C369.145 299.518 368.124 299.012 366.848 299.012C365.59 299.012 364.578 299.508 363.812 300.502C363.047 301.495 362.664 302.917 362.664 304.768ZM387.711 299.258H382.748V312H380.219V299.258H375.352V297.207H387.711V299.258Z" fill="#646067"/>
</svg>
