<svg width="320" height="259" viewBox="0 0 320 259" fill="none" xmlns="http://www.w3.org/2000/svg">
<g clip-path="url(#clip0_1466_7663)">
<path d="M215.595 237.799C200.701 237.839 185.821 236.866 171.059 234.888C170.578 234.826 170.089 234.758 169.604 234.686C165.98 234.172 162.355 233.584 158.831 232.939C142.971 230.046 128.015 225.819 114.378 220.377C68.9978 202.268 40.4653 206.122 24.5209 212.544C7.2656 219.494 0.632587 230.865 0.567573 230.979L0 230.658C0.0658061 230.542 6.7844 219.002 24.2282 211.96C34.4558 207.831 46.3207 206.027 59.4961 206.595C75.9423 207.306 94.4887 211.739 114.62 219.773C128.217 225.198 143.131 229.413 158.948 232.299C162.464 232.942 166.081 233.528 169.698 234.041C170.181 234.113 170.665 234.181 171.145 234.242C211.16 239.734 249.762 236.422 275.1 232.678C295.985 229.591 309.425 225.982 309.558 225.947L309.729 226.575C309.596 226.611 296.122 230.229 275.195 233.322C255.464 236.253 235.544 237.75 215.595 237.799V237.799Z" fill="#3F3D56"/>
<path d="M215.639 50.9408C204.135 50.941 192.935 50.4039 182.129 49.3302C157.298 46.8631 134.504 41.5401 114.378 33.509C68.9977 15.3997 40.4653 19.2536 24.5209 25.6758C7.2656 32.6257 0.632587 43.9967 0.567573 44.1107L0 43.7893C0.0658061 43.6736 6.7844 32.1335 24.2282 25.0917C34.4559 20.9628 46.3207 19.1576 59.4961 19.727C75.9423 20.4374 94.4887 24.8709 114.62 32.9043C160.072 51.0419 210.649 51.7547 245.073 49.1609C282.386 46.3483 309.291 39.1504 309.558 39.0781L309.729 39.7063C309.462 39.779 282.508 46.9908 245.137 49.809C235.131 50.5636 225.278 50.9408 215.639 50.9408Z" fill="#3F3D56"/>
<path d="M213.949 3.14797C213.949 3.14797 201.119 -1.42333 192.871 16.8619C184.624 35.1471 171.793 55.2608 171.793 55.2608L179.125 57.0893C179.125 57.0893 180.958 44.2897 185.54 42.4612L183.707 58.9178C183.707 58.9178 238.693 78.1173 263.437 57.0893L262.521 50.6895C262.521 50.6895 266.186 51.6038 266.186 57.0893L268.936 54.3465C268.936 54.3465 266.186 48.861 257.938 41.5469C252.525 36.7463 250.664 27.6131 250.025 21.9029C249.546 17.1348 247.634 12.6224 244.539 8.95756C239.058 2.62029 229.071 -4.11532 213.949 3.14797Z" fill="#2F2E41"/>
<path d="M291.82 106.617C291.82 106.617 315.963 127.161 319.514 139.204C323.064 151.248 306.022 152.664 306.022 152.664L269.096 156.206C269.096 156.206 268.386 173.209 261.995 175.334C255.604 177.459 260.698 147.218 260.698 147.218L296.79 137.079L280.458 120.077L291.82 106.617Z" fill="#FBBEBE"/>
<path d="M178.913 127.87L176.072 165.416L160.45 229.173C160.45 229.173 146.248 258.219 158.32 258.927C170.391 259.635 169.681 231.299 169.681 231.299L192.405 171.083L194.535 129.995L178.913 127.87Z" fill="#FBBEBE"/>
<path d="M218.679 61.9866C231.62 61.9866 242.112 51.52 242.112 38.6088C242.112 25.6976 231.62 15.231 218.679 15.231C205.737 15.231 195.245 25.6976 195.245 38.6088C195.245 51.52 205.737 61.9866 218.679 61.9866Z" fill="#FBBEBE"/>
<path d="M208.027 49.9434C208.027 49.9434 216.548 80.4053 203.056 88.1979C189.564 95.9905 237.141 101.658 249.923 78.2801C249.923 78.2801 227.2 70.4875 233.591 49.9434H208.027Z" fill="#FBBEBE"/>
<path d="M191.695 91.7401L187.434 90.3232C187.434 90.3232 178.913 93.8653 178.913 100.241C178.913 106.617 177.493 132.12 177.493 132.12L196.665 134.245L191.695 91.7401Z" fill="#62268B"/>
<path d="M275.147 233C248.933 236.874 210.727 240.002 171.104 234.566C171.101 234.175 171.101 233.794 171.101 233.423C171.101 231.212 171.185 229.027 171.355 226.866C173.385 200.262 187.123 178.082 192.439 170.396C192.707 170.005 192.955 169.653 193.177 169.341C194.035 168.139 194.534 167.505 194.534 167.505C194.534 167.505 235.72 166.834 257.023 175.334C258.05 175.764 258.99 176.378 259.797 177.144C267.74 184.456 272.406 208.196 275.147 233Z" fill="#2F2E41"/>
<path d="M259.865 81.8222C259.865 81.8222 269.096 76.8633 278.327 87.4896L296.79 108.742L282.588 124.327L255.604 108.034L259.865 81.8222Z" fill="#62268B"/>
<path d="M193.357 38.7569C201.653 32.7675 208.368 25.8689 212.81 17.6627C212.81 17.6627 228.034 34.538 237.337 35.3818C246.641 36.2256 238.183 15.1314 238.183 15.1314L221.268 10.9126L205.198 12.6001L192.511 21.0378L193.357 38.7569Z" fill="#2F2E41"/>
<path d="M246.373 76.8633C246.373 76.8633 236.435 92.5381 206.609 85.0549L189.684 89.7052L187.434 90.3232C187.434 90.3232 189.564 132.828 195.245 140.621C200.926 148.414 199.506 152.664 198.086 153.372C196.665 154.081 193.115 152.664 195.245 156.206C197.376 159.748 200.216 157.623 197.376 159.748C194.535 161.873 193.115 169.666 193.115 169.666L259.865 178.167C259.865 178.167 257.734 150.539 263.415 136.37C269.096 122.202 270.516 116.535 270.516 116.535L266.256 81.1138L246.373 76.8633Z" fill="#62268B"/>
<path d="M107.646 62.9946H16.2739V176.939H107.646V62.9946Z" fill="#E6CCF8"/>
<path d="M42.2169 72.5986H22.6372V85.6208H42.2169V72.5986Z" fill="white"/>
<path d="M98.5087 97.9922H22.8003V102.55H98.5087V97.9922Z" fill="white"/>
<path d="M98.5087 110.038H22.8003V114.595H98.5087V110.038Z" fill="white"/>
<path d="M98.5087 122.083H22.8003V126.641H98.5087V122.083Z" fill="white"/>
<path d="M98.5087 134.128H22.8003V138.686H98.5087V134.128Z" fill="white"/>
<path d="M98.5087 146.174H22.8003V150.732H98.5087V146.174Z" fill="white"/>
</g>
<defs>
<clipPath id="clip0_1466_7663">
<rect width="320" height="258.94" fill="white"/>
</clipPath>
</defs>
</svg>
