<svg width="312" height="221" viewBox="0 0 312 221" fill="none" xmlns="http://www.w3.org/2000/svg">
<path d="M18.441 186.25L8.8757 178.155C9.96959 171.666 12.6311 165.542 16.629 160.314C16.9505 172.009 28.9377 179.841 33.0627 190.789C34.3231 194.213 34.7967 197.877 34.4485 201.51C34.1003 205.142 32.9392 208.649 31.0512 211.772L30.0889 220.607C24.8651 217.885 20.2935 214.062 16.6892 209.403C13.0848 204.744 10.5334 199.359 9.21063 193.619C8.50047 190.392 8.19958 187.087 8.31505 183.785C13.2126 185.275 18.441 186.25 18.441 186.25Z" fill="#F2F2F2"/>
<path d="M286.571 201.733L293.251 191.131C299.83 191.308 306.266 193.089 312 196.317C300.465 198.269 294.383 211.232 284.119 216.846C280.904 218.572 277.342 219.553 273.697 219.715C270.051 219.877 266.416 219.217 263.061 217.784L254.178 218.065C256.144 212.512 259.29 207.452 263.4 203.232C267.51 199.012 272.486 195.734 277.986 193.623C281.082 192.469 284.312 191.709 287.599 191.362C286.807 196.42 286.571 201.733 286.571 201.733Z" fill="#2EC32E"/>
<path d="M75.1377 167.172L38.1006 164.999L43.1775 129.098L75.8147 164.274L75.1377 167.172Z" fill="#F2F2F2"/>
<path d="M70.4236 203.799L32.7095 201.26L37.7381 168.626L70.5937 201.266L70.4236 203.799Z" fill="#F2F2F2"/>
<path d="M281.108 52.355V19.1931C281.108 16.6727 280.612 14.1769 279.647 11.8482C278.682 9.51962 277.269 7.40379 275.486 5.62154C273.704 3.83929 271.588 2.42554 269.26 1.46099C266.931 0.496446 264.435 0 261.915 0H191.657C189.137 -4.7622e-07 186.641 0.496446 184.312 1.46099C181.984 2.42554 179.868 3.83929 178.085 5.62154C176.303 7.40379 174.889 9.51962 173.925 11.8482C172.96 14.1769 172.464 16.6727 172.464 19.1931V201.121C172.464 206.212 174.486 211.094 178.085 214.693C181.685 218.292 186.567 220.314 191.657 220.314H261.915C267.005 220.314 271.887 218.292 275.486 214.693C279.086 211.094 281.108 206.212 281.108 201.121V75.9601C281.429 75.9601 281.737 75.8326 281.964 75.6055C282.191 75.3785 282.318 75.0706 282.318 74.7496V53.5655C282.318 53.2444 282.191 52.9365 281.964 52.7095C281.737 52.4825 281.429 52.355 281.108 52.355Z" fill="#3F3D56"/>
<path d="M277.023 19.3249V200.99C277.024 204.764 275.535 208.385 272.881 211.067C270.227 213.75 266.622 215.276 262.849 215.316C262.796 215.321 262.744 215.323 262.692 215.322H192.092C188.291 215.322 184.646 213.812 181.958 211.124C179.271 208.436 177.761 204.791 177.76 200.99V19.3249C177.761 15.524 179.271 11.8789 181.958 9.19124C184.646 6.50361 188.291 4.99355 192.092 4.9932H200.66C200.238 6.02752 200.078 7.14951 200.192 8.26043C200.306 9.37136 200.692 10.4372 201.315 11.3641C201.938 12.291 202.779 13.0507 203.764 13.5762C204.75 14.1017 205.849 14.3769 206.966 14.3777H247.216C248.332 14.3747 249.43 14.0978 250.414 13.5716C251.398 13.0453 252.238 12.2856 252.86 11.3592C253.481 10.4328 253.867 9.36794 253.981 8.25803C254.096 7.14811 253.936 6.02706 253.516 4.99319H262.692C266.493 4.99354 270.138 6.50359 272.825 9.19123C275.513 11.8789 277.023 15.524 277.023 19.3249Z" fill="white"/>
<path d="M261.48 210.887C261.48 212.77 261.421 214.636 261.302 216.487C261.25 216.493 261.198 216.495 261.146 216.494H190.548C187.354 216.494 184.251 215.427 181.733 213.462C179.214 211.498 177.423 208.749 176.645 205.651C176.508 205.11 176.405 204.562 176.336 204.008C176.256 203.396 176.216 202.78 176.217 202.162V121.204C181.649 121.473 187.046 122.235 192.34 123.481C192.858 123.601 193.373 123.728 193.884 123.858C193.917 123.866 193.95 123.877 193.982 123.884C194.501 124.014 195.016 124.152 195.527 124.294C206.441 127.291 216.686 132.335 225.717 139.158C226.235 139.546 226.75 139.945 227.261 140.347L227.359 140.424C228.215 141.098 229.058 141.79 229.887 142.498C230.072 142.654 230.257 142.813 230.438 142.977C230.884 143.361 231.33 143.753 231.765 144.148C241.395 152.816 249.04 163.461 254.176 175.356C254.347 175.744 254.51 176.136 254.673 176.528C254.738 176.687 254.804 176.847 254.869 177.006C254.931 177.151 254.989 177.296 255.047 177.441C259.31 188.076 261.494 199.43 261.48 210.887Z" fill="#3F3D56"/>
<path d="M172.852 70.907C172.419 70.9065 172.004 70.7342 171.697 70.4279C171.391 70.1216 171.219 69.7063 171.218 69.2732V58.1633C171.218 57.73 171.39 57.3144 171.697 57.008C172.003 56.7016 172.419 56.5295 172.852 56.5295C173.285 56.5295 173.701 56.7016 174.007 57.008C174.314 57.3144 174.486 57.73 174.486 58.1633V69.2731C174.485 69.7063 174.313 70.1216 174.007 70.4279C173.7 70.7342 173.285 70.9065 172.852 70.907Z" fill="#3F3D56"/>
<path d="M172.525 49.3408C172.092 49.3403 171.677 49.168 171.371 48.8617C171.064 48.5554 170.892 48.1401 170.892 47.707V36.5971C170.892 36.1638 171.064 35.7482 171.37 35.4419C171.677 35.1355 172.092 34.9633 172.525 34.9633C172.959 34.9633 173.374 35.1355 173.681 35.4419C173.987 35.7482 174.159 36.1638 174.159 36.5971V47.707C174.159 48.1401 173.986 48.5554 173.68 48.8617C173.374 49.168 172.959 49.3403 172.525 49.3408Z" fill="#3F3D56"/>
<path d="M215.984 6.86198C215.985 6.42883 216.157 6.01356 216.463 5.70727C216.77 5.40099 217.185 5.22869 217.618 5.22818H228.728C228.943 5.22786 229.155 5.26988 229.354 5.35185C229.552 5.43381 229.733 5.55411 229.885 5.70585C230.037 5.8576 230.157 6.03781 230.24 6.23619C230.322 6.43457 230.364 6.64723 230.364 6.86199C230.364 7.07674 230.322 7.28939 230.24 7.48777C230.157 7.68615 230.037 7.86637 229.885 8.01812C229.733 8.16986 229.552 8.29016 229.354 8.37212C229.155 8.45408 228.943 8.4961 228.728 8.49578H217.618C217.185 8.49528 216.77 8.32298 216.463 8.01669C216.157 7.71041 215.985 7.29514 215.984 6.86198Z" fill="white"/>
<path d="M172.852 89.859C172.419 89.8585 172.004 89.6862 171.697 89.3799C171.391 89.0736 171.219 88.6584 171.218 88.2252V77.1154C171.218 76.6821 171.39 76.2665 171.697 75.9601C172.003 75.6537 172.419 75.4816 172.852 75.4816C173.285 75.4816 173.701 75.6537 174.007 75.9601C174.314 76.2665 174.486 76.6821 174.486 77.1154V88.2252C174.485 88.6584 174.313 89.0736 174.007 89.3799C173.7 89.6862 173.285 89.8585 172.852 89.859Z" fill="#3F3D56"/>
<path d="M234.937 8.49578C235.839 8.49578 236.57 7.7643 236.57 6.86198C236.57 5.95966 235.839 5.22818 234.937 5.22818C234.034 5.22818 233.303 5.95966 233.303 6.86198C233.303 7.7643 234.034 8.49578 234.937 8.49578Z" fill="white"/>
<path opacity="0.2" d="M228.904 202.837C228.903 199.445 229.571 196.085 230.869 192.951C232.167 189.817 234.07 186.97 236.468 184.571C238.867 182.172 241.715 180.27 244.849 178.972C247.983 177.674 251.342 177.006 254.734 177.006H254.869C254.803 176.847 254.738 176.687 254.673 176.528C254.51 176.136 254.346 175.744 254.176 175.356H228.904V142.977H230.438C230.256 142.813 230.071 142.654 229.887 142.498C229.056 141.791 228.214 141.099 227.359 140.424L227.261 140.347V141.327H195.527V124.293C195.015 124.152 194.501 124.014 193.982 123.884C193.949 123.876 193.917 123.866 193.884 123.858V141.327H177.761V142.977H193.884V175.356H177.761V177.006H193.884V202.837H177.881C177.95 203.39 178.053 203.939 178.189 204.48H193.884V215.322H195.527V204.48H227.261V215.322H228.904V204.48H256.591V202.837H228.904ZM227.261 202.837H195.527V177.006H227.261V202.837ZM227.261 175.356H195.527V174.711C195.527 166.294 198.87 158.223 204.822 152.271C210.773 146.32 218.845 142.977 227.261 142.977V175.356Z" fill="black"/>
<path d="M86.5446 84.418L68.9314 219.906L68.8189 220.769H68.0864L68.1988 219.906L85.8266 84.3238L86.5446 84.418Z" fill="#E5E5E5"/>
<path d="M49.8743 84.5884L30.4515 219.921L30.3282 220.784H29.5957L29.719 219.921L49.1563 84.4869L49.8743 84.5884Z" fill="#E5E5E5"/>
<path d="M113.93 220.751L113.176 220.755L112.944 219.892L75.3711 80.3312L76.071 80.1426L113.694 219.892L113.93 220.751Z" fill="#3F3D56"/>
<path d="M112.339 80.1371L111.642 80.3349L151.236 220.005L151.934 219.807L112.339 80.1371Z" fill="#3F3D56"/>
<path d="M144.376 194.38L108.473 201.808L108.62 202.518L144.523 195.09L144.376 194.38Z" fill="#3F3D56"/>
<path d="M138.151 172.593L102.248 180.02L102.395 180.731L138.298 173.303L138.151 172.593Z" fill="#3F3D56"/>
<path d="M131.931 150.805L96.2778 157.705L96.4156 158.417L132.069 151.517L131.931 150.805Z" fill="#3F3D56"/>
<path d="M125.706 129.022L90.8291 135.914L90.9697 136.625L125.846 129.733L125.706 129.022Z" fill="#3F3D56"/>
<path d="M49.2615 84.5634C48.7161 81.0005 49.6084 77.3669 51.7421 74.462C53.8758 71.557 57.0761 69.6186 60.639 69.0732C64.2018 68.5278 67.8354 69.4201 70.7404 71.5538C73.6454 73.6875 75.5838 76.8878 76.1292 80.4506L75.4124 80.5604C75.1575 78.8897 74.576 77.2856 73.701 75.8397C72.826 74.3939 71.6747 73.1346 70.3128 72.1338C68.951 71.133 67.4053 70.4103 65.7641 70.007C64.1229 69.6038 62.4183 69.5278 60.7478 69.7836C59.0772 70.0393 57.4734 70.6216 56.0279 71.4974C54.5825 72.3731 53.3238 73.525 52.3237 74.8874C51.3236 76.2497 50.6017 77.7957 50.1992 79.4372C49.7968 81.0786 49.7217 82.7832 49.9783 84.4536L49.2615 84.5634Z" fill="#3F3D56"/>
<path d="M85.5833 84.7257C85.2895 82.9649 85.3455 81.1636 85.748 79.4245C86.1505 77.6854 86.8917 76.0426 87.9292 74.59C88.9668 73.1374 90.2803 71.9035 91.7948 70.9586C93.3094 70.0138 94.9952 69.3765 96.756 69.0833C98.5168 68.7901 100.318 68.8467 102.057 69.2498C103.796 69.6529 105.439 70.3946 106.891 71.4326C108.343 72.4706 109.577 73.7845 110.521 75.2993C111.465 76.8141 112.102 78.5002 112.395 80.2611L111.679 80.3801C111.117 77.0157 109.242 74.0123 106.467 72.03C103.691 70.0478 100.241 69.249 96.8768 69.8093C93.5121 70.3696 90.5078 72.2431 88.5241 75.018C86.5405 77.7928 85.74 81.2418 86.2986 84.6067L85.5833 84.7257Z" fill="#3F3D56"/>
<path d="M123.057 114.321L116.087 131.276L138.795 131.111L136.486 114.283L123.057 114.321Z" fill="#FFB6B6"/>
<path d="M128.602 192.155L131.97 192.646L135.467 179.889L130.496 179.164L128.602 192.155Z" fill="#FFB6B6"/>
<path d="M128.008 190.372L133.379 190.831L133.046 193.112L137.598 197.346C137.823 197.555 137.975 197.831 138.032 198.133C138.089 198.434 138.049 198.746 137.916 199.023C137.783 199.3 137.565 199.527 137.294 199.672C137.023 199.816 136.713 199.87 136.41 199.826L130.071 198.901L129.307 196.485L128.552 198.679L126.162 198.331L128.008 190.372Z" fill="#2F2E41"/>
<path d="M89.6768 182.733L92.3639 184.822L101.702 175.452L97.736 172.369L89.6768 182.733Z" fill="#FFB6B6"/>
<path d="M90.0411 180.889L94.4858 183.939L93.0706 185.758L94.9401 191.688C95.0324 191.981 95.0288 192.295 94.9296 192.586C94.8305 192.876 94.641 193.128 94.3889 193.303C94.1368 193.478 93.8353 193.569 93.5284 193.56C93.2214 193.552 92.9251 193.446 92.6827 193.258L87.6259 189.325L88.1541 186.847L86.414 188.383L84.5073 186.9L90.0411 180.889Z" fill="#2F2E41"/>
<path d="M117.369 127.253L115.133 130.215L109.18 156.115L95.6499 174.388L100.198 178.756L117.456 162.013L125.925 144.125L130.21 160.648L129.122 182.769L136.375 182.406C138.341 156.735 141.415 130.321 137.794 122.903C135.406 124.985 132.619 126.559 129.603 127.527C126.587 128.496 123.405 128.839 120.251 128.535L117.369 127.253Z" fill="#2F2E41"/>
<path d="M129.34 86.9022L135.062 93.1589C136.317 94.5321 137.113 96.2628 137.339 98.1099C137.441 98.9486 137.424 99.7976 137.288 100.632L136.055 109.668L138.23 123.449C138.23 123.449 135.129 125.34 129.164 129.251C126.73 130.847 115.37 130.821 115.384 130.339C115.449 128.104 117.447 122.082 117.923 114.745C118.509 105.69 117.74 94.882 119.736 89.7234C122.172 83.426 129.34 86.9022 129.34 86.9022Z" fill="#6C63FF"/>
<path d="M109.705 126.996C109.955 126.633 110.122 126.219 110.195 125.784C110.267 125.35 110.244 124.904 110.126 124.48C110.007 124.055 109.798 123.662 109.511 123.327C109.224 122.992 108.868 122.724 108.466 122.542L108.69 115.657L104.539 114.501L104.36 124.228C104.099 124.923 104.102 125.689 104.368 126.382C104.634 127.074 105.145 127.645 105.804 127.986C106.462 128.328 107.224 128.415 107.943 128.232C108.662 128.05 109.289 127.61 109.705 126.996V126.996Z" fill="#FFB6B6"/>
<path d="M104.168 99.2024C104.291 98.8816 104.479 98.5897 104.72 98.3452C104.961 98.1008 105.25 97.909 105.569 97.7822C107.778 96.8541 117.33 89.0492 117.682 89.1957L120.714 87.6991C120.826 87.7004 123.813 87.771 125.278 89.4326C125.583 89.7833 125.808 90.1959 125.938 90.642C126.068 91.088 126.1 91.5569 126.032 92.0164C125.603 95.9735 112.062 104.862 110.627 104.802L109.107 116.037L109.699 120.329L104.162 120.487L102.455 114.167C102.21 113.706 101.901 104.976 104.168 99.2024Z" fill="#6C63FF"/>
<path d="M126.368 93.201C126.816 90.1292 125.091 87.3343 122.515 86.9585C119.938 86.5827 117.487 88.7682 117.038 91.84C116.59 94.9118 118.316 97.7067 120.892 98.0825C123.468 98.4583 125.92 96.2728 126.368 93.201Z" fill="#6C63FF"/>
<path d="M84.7448 113.285L84.6045 112.573L118.285 104.954V105.679L84.7448 113.285Z" fill="#3F3D56"/>
<path d="M257.816 82.2176H196.968C194.181 82.2176 191.922 84.4764 191.922 87.2629V87.2629C191.922 90.0494 194.181 92.3083 196.968 92.3083H257.816C260.603 92.3083 262.862 90.0494 262.862 87.2629C262.862 84.4764 260.603 82.2176 257.816 82.2176Z" fill="#E6E6E6"/>
<path d="M257.728 97.1865H196.88C194.093 97.1865 191.834 99.4454 191.834 102.232V102.232C191.834 105.018 194.093 107.277 196.88 107.277H257.728C260.515 107.277 262.774 105.018 262.774 102.232C262.774 99.4454 260.515 97.1865 257.728 97.1865Z" fill="#E6E6E6"/>
<path d="M257.728 67.0877H196.88C194.093 67.0877 191.834 69.3466 191.834 72.1331V72.1331C191.834 74.9196 194.093 77.1784 196.88 77.1784H257.728C260.515 77.1784 262.774 74.9196 262.774 72.1331C262.774 69.3466 260.515 67.0877 257.728 67.0877Z" fill="#E6E6E6"/>
<path d="M231.706 97.3221H170.858C168.071 97.3221 165.812 99.581 165.812 102.367V102.367C165.812 105.154 168.071 107.413 170.858 107.413H231.706C234.493 107.413 236.752 105.154 236.752 102.367C236.752 99.581 234.493 97.3221 231.706 97.3221Z" fill="#7C3BA8"/>
<path d="M311.914 220.243C311.914 220.3 311.903 220.356 311.882 220.409C311.86 220.461 311.828 220.509 311.788 220.549C311.748 220.589 311.7 220.621 311.648 220.642C311.596 220.664 311.539 220.675 311.483 220.675L96.5518 220.751L95.7975 220.755L51.4399 220.769H50.7074L12.9497 220.784H12.2172L0.431538 220.787C0.317087 220.787 0.207323 220.742 0.126394 220.661C0.0454648 220.58 0 220.47 0 220.356C0 220.241 0.0454648 220.132 0.126394 220.051C0.207323 219.97 0.317087 219.924 0.431538 219.924L12.3405 219.921H13.073L50.8198 219.906H51.5523L95.5655 219.892H96.3161L133.82 219.877H134.313L311.483 219.812C311.539 219.812 311.596 219.823 311.648 219.844C311.7 219.866 311.748 219.898 311.788 219.938C311.828 219.978 311.86 220.026 311.882 220.078C311.903 220.131 311.914 220.187 311.914 220.243Z" fill="#CACACA"/>
<path d="M135.395 80.6543C134.312 82.0923 132.772 83.1188 131.028 83.5647C129.285 84.0106 127.441 83.8493 125.801 83.1073C124.161 82.3654 122.823 81.0871 122.006 79.4829C121.19 77.8787 120.944 76.0443 121.309 74.2818C121.675 72.5193 122.63 70.9338 124.017 69.7864C125.403 68.639 127.14 67.9981 128.939 67.9693C130.739 67.9405 132.495 68.5255 133.918 69.628C135.341 70.7304 136.346 72.2845 136.767 74.0344C136.79 74.1294 136.809 74.2238 136.828 74.3218C137.051 75.4186 137.038 76.5502 136.791 77.6418C136.544 78.7334 136.068 79.7602 135.395 80.6543Z" fill="#FFB6B6"/>
<path d="M137.456 74.4134C137.256 73.4204 137.332 73.9335 137.128 72.9436C137.17 73.4228 137.065 73.9035 136.828 74.3218L127.495 72.9602L128.286 67.5346C131.179 66.8498 133.986 66.3176 135.309 68.559C136.747 68.769 138.044 69.542 138.913 70.7079C139.782 71.8738 140.153 73.3372 139.943 74.7761L137.456 74.4134Z" fill="#2F2E41"/>
<path d="M131.947 89.0127C131.955 88.9112 131.959 88.8055 131.96 88.703C131.942 87.9475 131.844 87.1962 131.667 86.4615C131.509 85.665 131.347 84.8645 131.185 84.0676C131.335 85.4932 131.016 86.9291 130.277 88.1569C128.88 86.6999 129.803 84.5908 127.744 84.2903C122.792 83.568 118.762 78.2572 119.485 73.3017C120.207 68.3497 122.872 64.9564 127.824 65.6787C132.78 66.4017 136.468 69.2558 135.842 74.2219C129.533 74.7674 133.173 88.6783 131.947 89.0127Z" fill="#2F2E41"/>
<path d="M121.052 70.1991C122.879 70.1991 124.36 68.7182 124.36 66.8915C124.36 65.0648 122.879 63.584 121.052 63.584C119.225 63.584 117.745 65.0648 117.745 66.8915C117.745 68.7182 119.225 70.1991 121.052 70.1991Z" fill="#2F2E41"/>
<path d="M124.976 64.1606C124.667 63.4931 124.199 62.912 123.612 62.4688C123.026 62.0255 122.339 61.7338 121.612 61.6194C122.124 61.8508 122.571 62.2045 122.914 62.6493C123.256 63.0941 123.485 63.6163 123.578 64.1701C123.671 64.7238 123.627 65.292 123.449 65.8246C123.271 66.3572 122.965 66.8379 122.557 67.2242L123.226 66.6494C123.408 66.8047 123.636 66.8977 123.874 66.9147C124.113 66.9318 124.351 66.8721 124.554 66.7443C124.752 66.6106 124.918 66.4336 125.038 66.2267C125.159 66.0197 125.231 65.7882 125.249 65.5496C125.28 65.0707 125.186 64.5918 124.976 64.1606Z" fill="#2F2E41"/>
<path d="M167.079 99.1437C166.686 98.9446 166.254 98.8341 165.813 98.82C165.373 98.8059 164.935 98.8886 164.53 99.0622C164.124 99.2357 163.762 99.496 163.469 99.8247C163.175 100.153 162.957 100.542 162.83 100.964L155.977 101.659L155.383 105.926L165.048 104.81C165.771 104.976 166.53 104.872 167.181 104.516C167.832 104.16 168.33 103.578 168.58 102.879C168.83 102.181 168.816 101.415 168.539 100.726C168.263 100.038 167.743 99.4747 167.079 99.1437Z" fill="#FFB6B6"/>
<path d="M140.27 108.329C139.935 108.25 139.621 108.103 139.347 107.896C139.072 107.69 138.844 107.429 138.676 107.129C137.462 105.063 128.456 96.6354 128.554 96.2671L126.667 93.4609C126.654 93.3499 126.326 90.3801 127.778 88.7068C128.085 88.3582 128.464 88.0802 128.889 87.8919C129.314 87.7036 129.774 87.6095 130.239 87.6161C134.218 87.5149 144.221 100.108 144.353 101.538L156.298 101.194L160.473 100.037L161.366 105.504L155.329 108.036C154.905 108.34 146.294 109.808 140.27 108.329Z" fill="#6C63FF"/>
</svg>
