<svg width="326" height="259" viewBox="0 0 326 259" fill="none" xmlns="http://www.w3.org/2000/svg">
<path d="M313.681 58.2325C359.669 48.1583 263.208 207.595 247.765 225.482C232.321 243.369 210.95 255.112 187.556 258.564H160.847C160.805 258.601 159.325 258.671 159.325 258.671C159.077 258.637 158.825 258.601 158.577 258.564C156.675 258.285 154.791 257.951 152.925 257.564C145.615 256.052 138.504 253.708 131.73 250.576C131.659 250.544 131.591 250.51 131.521 250.479C127.746 248.729 124.088 246.739 120.569 244.52C120.48 244.465 120.394 244.411 120.308 244.356C120.158 244.262 120.012 244.17 119.865 244.074C119.818 244.045 119.771 244.016 119.724 243.985C116.578 241.961 113.551 239.76 110.656 237.391C110.515 237.279 110.373 237.161 110.232 237.047C109.665 236.576 109.102 236.101 108.545 235.62C108.54 235.618 108.537 235.612 108.532 235.61C105.685 233.146 102.981 230.522 100.431 227.752C100.423 227.741 100.413 227.734 100.405 227.723C89.207 215.558 81 197.5 77.3012 184.725C77.33 184.84 77.2698 184.61 77.3012 184.725C64.2074 139.5 86.392 68.403 12.9875 58.2325C-37.8643 51.1867 71.7995 -10.7509 148.742 1.6315C245.572 17.2146 156.23 92.7238 313.681 58.2325Z" fill="#3F3D56"/>
<path opacity="0.8" d="M184.792 245.743L193.47 235.696L202.148 225.649L207.047 219.978C207.318 219.664 206.9 219.175 206.629 219.488L197.951 229.535L189.273 239.582L184.374 245.253C184.103 245.567 184.521 246.057 184.792 245.743V245.743Z" fill="url(#paint0_linear_1459_8564)"/>
<path opacity="0.8" d="M119.569 90.5647L128.246 80.5181L136.924 70.4714L141.823 64.7999C142.094 64.4861 141.676 63.9966 141.405 64.3104L132.727 74.357L124.049 84.4036L119.15 90.0751C118.879 90.3889 119.298 90.8785 119.569 90.5647V90.5647Z" fill="url(#paint1_linear_1459_8564)"/>
<path d="M113.536 126.791C114.089 126.791 114.538 126.342 114.538 125.789C114.538 125.235 114.089 124.787 113.536 124.787C112.982 124.787 112.534 125.235 112.534 125.789C112.534 126.342 112.982 126.791 113.536 126.791Z" fill="#6C63FF"/>
<path d="M182.282 212.573C182.725 212.573 183.084 212.124 183.084 211.571C183.084 211.018 182.725 210.569 182.282 210.569C181.839 210.569 181.48 211.018 181.48 211.571C181.48 212.124 181.839 212.573 182.282 212.573Z" fill="#6C63FF"/>
<path d="M125.762 177.298C126.205 177.298 126.564 176.85 126.564 176.296C126.564 175.743 126.205 175.294 125.762 175.294C125.319 175.294 124.96 175.743 124.96 176.296C124.96 176.85 125.319 177.298 125.762 177.298Z" fill="#6C63FF"/>
<path d="M169.254 233.818C169.808 233.818 170.256 233.37 170.256 232.816C170.256 232.263 169.808 231.814 169.254 231.814C168.701 231.814 168.252 232.263 168.252 232.816C168.252 233.37 168.701 233.818 169.254 233.818Z" fill="#6C63FF"/>
<path d="M104.03 78.6401C104.584 78.6401 105.033 78.1914 105.033 77.6379C105.033 77.0845 104.584 76.6358 104.03 76.6358C103.477 76.6358 103.028 77.0845 103.028 77.6379C103.028 78.1914 103.477 78.6401 104.03 78.6401Z" fill="#6C63FF"/>
<path d="M148.371 167.28L148.01 167.759L147.651 167.277L147.41 167.596L147.769 168.078L147.408 168.556L147.647 168.877L148.008 168.399L148.367 168.88L148.608 168.561L148.249 168.08L148.611 167.601L148.371 167.28Z" fill="#E6E6E6"/>
<path d="M133.861 189.728L133.379 190.207L132.901 189.725L132.58 190.044L133.058 190.525L132.576 191.004L132.895 191.325L133.377 190.847L133.855 191.328L134.177 191.009L133.698 190.528L134.18 190.049L133.861 189.728Z" fill="#E6E6E6"/>
<path d="M152.3 140.422L151.818 140.781L151.34 140.42L151.019 140.659L151.497 141.02L151.016 141.379L151.335 141.62L151.816 141.261L152.295 141.622L152.616 141.383L152.137 141.022L152.619 140.663L152.3 140.422Z" fill="#E6E6E6"/>
<path d="M252.112 176.5L251.63 176.978L251.152 176.497L250.831 176.816L251.309 177.297L250.828 177.776L251.147 178.097L251.628 177.618L252.107 178.1L252.428 177.781L251.949 177.299L252.431 176.821L252.112 176.5Z" fill="#E6E6E6"/>
<path d="M179.558 220.192L179.076 220.671L178.598 220.189L178.277 220.508L178.755 220.99L178.273 221.468L178.592 221.789L179.074 221.311L179.552 221.792L179.874 221.474L179.395 220.992L179.877 220.513L179.558 220.192Z" fill="#E6E6E6"/>
<path d="M163.878 88.9396C163.01 89.6511 162.122 87.9576 163.006 87.2777C163.874 86.5662 164.762 88.2597 163.878 88.9396Z" fill="#E6E6E6"/>
<path d="M126.985 23.545C126.117 24.2565 125.229 22.563 126.113 21.8831C126.981 21.1716 127.869 22.8651 126.985 23.545Z" fill="#E6E6E6"/>
<path d="M74.3642 29.1108C73.4964 29.8224 72.6083 28.1289 73.4927 27.4489C74.3604 26.7374 75.2485 28.431 74.3642 29.1108Z" fill="#E6E6E6"/>
<path d="M149.355 111.021C148.271 111.59 147.161 110.235 148.266 109.691C149.351 109.122 150.461 110.477 149.355 111.021Z" fill="#E6E6E6"/>
<path d="M191.445 168.743C190.36 169.313 189.25 167.958 190.356 167.414C191.44 166.845 192.55 168.2 191.445 168.743Z" fill="#E6E6E6"/>
<path d="M105.318 158.435L104.748 158.31L104.873 157.74L104.493 157.656L104.368 158.227L103.798 158.102L103.715 158.482L104.285 158.607L104.16 159.177L104.54 159.26L104.665 158.69L105.235 158.815L105.318 158.435Z" fill="#E6E6E6"/>
<path d="M149.011 215.149L148.299 214.993L148.455 214.28L147.98 214.176L147.823 214.889L147.111 214.733L147.007 215.208L147.719 215.364L147.563 216.076L148.038 216.181L148.195 215.468L148.907 215.624L149.011 215.149Z" fill="#E6E6E6"/>
<path d="M83.7872 59.9713L83.0748 59.815L83.2308 59.1024L82.7558 58.9983L82.5995 59.7109L81.8871 59.5549L81.783 60.0298L82.4954 60.1861L82.3394 60.8985L82.8144 61.0026L82.9707 60.2899L83.6831 60.4462L83.7872 59.9713Z" fill="#E6E6E6"/>
<path d="M38.871 55.5482L38.1585 55.392L38.3145 54.6793L37.8395 54.5753L37.6832 55.2879L36.9708 55.1319L36.8667 55.6068L37.5792 55.7631L37.4231 56.4754L37.8981 56.5795L38.0544 55.8669L38.7669 56.0231L38.871 55.5482Z" fill="#E6E6E6"/>
<path d="M25.6051 37.9791L24.8926 37.8228L25.0486 37.1102L24.5737 37.0061L24.4174 37.7187L23.7049 37.5628L23.6008 38.0377L24.3133 38.1939L24.1573 38.9063L24.6322 39.0104L24.7885 38.2977L25.501 38.454L25.6051 37.9791Z" fill="#E6E6E6"/>
<path d="M90.8878 180.676L90.3179 180.52L90.4427 179.808L90.0627 179.703L89.9377 180.416L89.3677 180.26L89.2844 180.735L89.8544 180.891L89.7296 181.604L90.1096 181.708L90.2346 180.995L90.8046 181.151L90.8878 180.676Z" fill="#E6E6E6"/>
<path d="M132.576 238.399L132.006 238.243L132.131 237.53L131.751 237.426L131.626 238.139L131.056 237.983L130.973 238.458L131.543 238.614L131.418 239.326L131.798 239.43L131.923 238.718L132.493 238.874L132.576 238.399Z" fill="#E6E6E6"/>
<path d="M67.3527 83.2207L66.7827 83.0644L66.9075 82.3518L66.5275 82.2477L66.4025 82.9603L65.8325 82.8043L65.7493 83.2792L66.3192 83.4355L66.1944 84.1479L66.5744 84.2519L66.6994 83.5393L67.2694 83.6956L67.3527 83.2207Z" fill="#E6E6E6"/>
<path d="M203.928 81.265L203.216 81.1087L203.372 80.3961L202.897 80.292L202.74 81.0046L202.028 80.8486L201.924 81.3235L202.636 81.4798L202.48 82.1922L202.955 82.2963L203.112 81.5836L203.824 81.7399L203.928 81.265Z" fill="#E6E6E6"/>
<path d="M225.035 71.587L224.322 71.4307L224.478 70.7181L224.003 70.614L223.847 71.3267L223.135 71.1707L223.031 71.6456L223.743 71.8018L223.587 72.5142L224.062 72.6183L224.218 71.9056L224.931 72.0619L225.035 71.587Z" fill="#E6E6E6"/>
<path d="M167.035 15.8704L166.323 15.7141L166.479 15.0015L166.004 14.8974L165.848 15.61L165.135 15.4541L165.031 15.929L165.743 16.0852L165.587 16.7976L166.062 16.9017L166.219 16.189L166.931 16.3453L167.035 15.8704Z" fill="#E6E6E6"/>
<path d="M171.531 71.2825L171.719 70.5778L172.424 70.7656L172.55 70.2958L171.845 70.1077L172.032 69.4029L171.563 69.2776L171.375 69.9823L170.67 69.7945L170.545 70.2644L171.25 70.4525L171.062 71.1572L171.531 71.2825Z" fill="#E6E6E6"/>
<path d="M95.9137 26.4831L95.2012 26.3268L95.3572 25.6142L94.8823 25.5101L94.726 26.2227L94.0135 26.0667L93.9094 26.5416L94.6219 26.6979L94.4659 27.4102L94.9408 27.5143L95.0971 26.8017L95.8096 26.958L95.9137 26.4831Z" fill="#E6E6E6"/>
<path d="M84.8592 13.2161L84.1468 13.0598L84.3028 12.3472L83.8278 12.2431L83.6715 12.9557L82.9591 12.7998L82.855 13.2747L83.5674 13.4309L83.4114 14.1433L83.8864 14.2474L84.0427 13.5347L84.7551 13.691L84.8592 13.2161Z" fill="#E6E6E6"/>
<path d="M110.507 14.1005L109.794 13.9442L109.95 13.2316L109.475 13.1275L109.319 13.8401L108.607 13.6842L108.502 14.1591L109.215 14.3153L109.059 15.0277L109.534 15.1318L109.69 14.4191L110.403 14.5754L110.507 14.1005Z" fill="#E6E6E6"/>
<path d="M50.9972 22.06L50.2847 21.9038L50.4407 21.1911L49.9658 21.087L49.8095 21.7997L49.097 21.6437L48.9929 22.1186L49.7054 22.2749L49.5494 22.9872L50.0243 23.0913L50.1806 22.3787L50.8931 22.5349L50.9972 22.06Z" fill="#E6E6E6"/>
<path d="M37.1022 43.2854L36.3897 43.1292L36.5457 42.4165L36.0707 42.3124L35.9145 43.0251L35.202 42.8691L35.0979 43.344L35.8104 43.5003L35.6543 44.2126L36.1293 44.3167L36.2856 43.6041L36.9981 43.7603L37.1022 43.2854Z" fill="#E6E6E6"/>
<path d="M118.146 191.099L117.433 190.942L117.589 190.23L117.114 190.126L116.958 190.838L116.245 190.682L116.141 191.157L116.854 191.314L116.698 192.026L117.173 192.13L117.329 191.417L118.042 191.574L118.146 191.099Z" fill="#E6E6E6"/>
<path d="M161.438 247.825L160.868 247.7L160.992 247.13L160.613 247.047L160.487 247.617L159.918 247.492L159.834 247.872L160.404 247.997L160.279 248.567L160.659 248.65L160.784 248.08L161.354 248.205L161.438 247.825Z" fill="#E6E6E6"/>
<path d="M189.097 103.713L188.527 103.556L188.651 102.844L188.271 102.74L188.146 103.452L187.576 103.296L187.493 103.771L188.063 103.928L187.938 104.64L188.318 104.744L188.443 104.031L189.013 104.188L189.097 103.713Z" fill="#E6E6E6"/>
<path d="M152.204 38.3181L151.634 38.1618L151.758 37.4492L151.378 37.3451L151.253 38.0577L150.683 37.9018L150.6 38.3766L151.17 38.5329L151.045 39.2453L151.425 39.3494L151.55 38.6367L152.12 38.793L152.204 38.3181Z" fill="#E6E6E6"/>
<path d="M149.772 55.4586L149.953 54.8963L150.66 55.0529L150.781 54.678L150.074 54.5211L150.256 53.9587L149.785 53.8542L149.603 54.4166L148.897 54.26L148.776 54.6349L149.483 54.7918L149.301 55.3541L149.772 55.4586Z" fill="#E6E6E6"/>
<path d="M85.0526 84.8529L84.4827 84.6966L84.6075 83.984L84.2275 83.8799L84.1025 84.5925L83.5325 84.4365L83.4492 84.9114L84.0192 85.0677L83.8944 85.7801L84.2744 85.8841L84.3994 85.1715L84.9693 85.3278L85.0526 84.8529Z" fill="#E6E6E6"/>
<path d="M86.8214 132.61L86.2515 132.454L86.3763 131.741L85.9963 131.637L85.8713 132.35L85.3013 132.194L85.218 132.669L85.788 132.825L85.6632 133.537L86.0432 133.641L86.1682 132.929L86.7381 133.085L86.8214 132.61Z" fill="#E6E6E6"/>
<path d="M234.515 107.847L233.945 107.691L234.069 106.978L233.689 106.874L233.564 107.587L232.994 107.431L232.911 107.906L233.481 108.062L233.356 108.774L233.736 108.879L233.861 108.166L234.431 108.322L234.515 107.847Z" fill="#E6E6E6"/>
<path d="M197.622 42.4524L197.052 42.2962L197.177 41.5835L196.797 41.4794L196.672 42.1921L196.102 42.0361L196.019 42.511L196.589 42.6673L196.464 43.3796L196.844 43.4837L196.969 42.7711L197.539 42.9273L197.622 42.4524Z" fill="#E6E6E6"/>
<path d="M126.5 53.0651L125.93 52.9088L126.055 52.1962L125.675 52.0921L125.55 52.8047L124.98 52.6488L124.897 53.1237L125.467 53.2799L125.342 53.9923L125.722 54.0964L125.847 53.3837L126.417 53.54L126.5 53.0651Z" fill="#E6E6E6"/>
<path d="M81.5841 48.6421L81.0142 48.4858L81.139 47.7732L80.759 47.6691L80.634 48.3817L80.064 48.2257L79.9807 48.7006L80.5507 48.8569L80.4259 49.5692L80.8058 49.6733L80.9309 48.9607L81.5008 49.117L81.5841 48.6421Z" fill="#E6E6E6"/>
<path d="M276.965 77.7777L276.395 77.6215L276.52 76.9088L276.14 76.8047L276.015 77.5174L275.445 77.3614L275.362 77.8363L275.932 77.9926L275.807 78.7049L276.187 78.809L276.312 78.0964L276.882 78.2526L276.965 77.7777Z" fill="#E6E6E6"/>
<path d="M298.481 69.8172L297.911 69.6609L298.036 68.9483L297.656 68.8442L297.531 69.5568L296.961 69.4008L296.878 69.8757L297.448 70.032L297.323 70.7444L297.703 70.8484L297.828 70.1358L298.398 70.2921L298.481 69.8172Z" fill="#E6E6E6"/>
<path d="M254.034 122.759L253.322 122.634L253.478 122.064L253.003 121.981L252.847 122.551L252.134 122.426L252.03 122.806L252.742 122.931L252.586 123.501L253.061 123.584L253.218 123.014L253.93 123.139L254.034 122.759Z" fill="#E6E6E6"/>
<path d="M292.691 104.998L291.979 104.873L292.135 104.303L291.66 104.22L291.504 104.79L290.791 104.665L290.687 105.045L291.399 105.17L291.243 105.74L291.718 105.823L291.875 105.253L292.587 105.378L292.691 104.998Z" fill="#E6E6E6"/>
<path d="M284.988 130.661L284.275 130.536L284.431 129.966L283.956 129.883L283.8 130.453L283.088 130.328L282.984 130.708L283.696 130.833L283.54 131.403L284.015 131.486L284.171 130.916L284.884 131.041L284.988 130.661Z" fill="#E6E6E6"/>
<path d="M244.934 156.293L244.222 156.168L244.378 155.598L243.903 155.515L243.746 156.085L243.034 155.96L242.93 156.34L243.642 156.465L243.486 157.035L243.961 157.118L244.118 156.548L244.83 156.673L244.934 156.293Z" fill="#E6E6E6"/>
<path d="M258.456 74.0598L257.744 73.9348L257.9 73.3647L257.425 73.2814L257.269 73.8515L256.556 73.7268L256.452 74.1067L257.165 74.2317L257.009 74.8016L257.484 74.8848L257.64 74.3147L258.352 74.4397L258.456 74.0598Z" fill="#E6E6E6"/>
<path d="M255.547 97.923L254.834 97.798L254.99 97.2279L254.515 97.1447L254.359 97.7148L253.647 97.59L253.542 97.9699L254.255 98.0949L254.099 98.6648L254.574 98.7481L254.73 98.1779L255.443 98.303L255.547 97.923Z" fill="#E6E6E6"/>
<path d="M132.576 91.2863L132.006 91.13L132.131 90.4175L131.751 90.3134L131.626 91.0259L131.056 90.8699L130.973 91.3448L131.543 91.5011L131.418 92.2139L131.798 92.3177L131.923 91.6052L132.493 91.7612L132.576 91.2863Z" fill="#E6E6E6"/>
<path d="M151.229 76.8932L150.66 76.7369L150.784 76.0244L150.404 75.9203L150.279 76.6328L149.709 76.4768L149.626 76.9518L150.196 77.1081L150.071 77.8208L150.451 77.9246L150.576 77.2122L151.146 77.3682L151.229 76.8932Z" fill="#E6E6E6"/>
<path d="M118.146 113.734L117.433 113.578L117.589 112.865L117.114 112.761L116.958 113.474L116.245 113.318L116.141 113.793L116.854 113.949L116.698 114.662L117.173 114.765L117.329 114.053L118.042 114.209L118.146 113.734Z" fill="#E6E6E6"/>
<path d="M193.506 112.761C193.949 112.761 194.308 112.313 194.308 111.759C194.308 111.206 193.949 110.757 193.506 110.757C193.063 110.757 192.704 111.206 192.704 111.759C192.704 112.313 193.063 112.761 193.506 112.761Z" fill="#6C63FF"/>
<path d="M89.4621 93.9013C89.9049 93.9013 90.2638 93.4526 90.2638 92.8992C90.2638 92.3457 89.9049 91.897 89.4621 91.897C89.0193 91.897 88.6604 92.3457 88.6604 92.8992C88.6604 93.4526 89.0193 93.9013 89.4621 93.9013Z" fill="#6C63FF"/>
<path d="M13.79 49.623C14.2328 49.623 14.5917 49.1744 14.5917 48.6209C14.5917 48.0674 14.2328 47.6188 13.79 47.6188C13.3472 47.6188 12.9883 48.0674 12.9883 48.6209C12.9883 49.1744 13.3472 49.623 13.79 49.623Z" fill="#6C63FF"/>
<path d="M51.8188 39.8947C52.2616 39.8947 52.6205 39.446 52.6205 38.8926C52.6205 38.3391 52.2616 37.8904 51.8188 37.8904C51.376 37.8904 51.0171 38.3391 51.0171 38.8926C51.0171 39.446 51.376 39.8947 51.8188 39.8947Z" fill="#6C63FF"/>
<path d="M91.2309 141.659C91.6737 141.659 92.0326 141.21 92.0326 140.656C92.0326 140.103 91.6737 139.654 91.2309 139.654C90.7881 139.654 90.4292 140.103 90.4292 140.656C90.4292 141.21 90.7881 141.659 91.2309 141.659Z" fill="#6C63FF"/>
<path d="M238.924 116.896C239.367 116.896 239.726 116.447 239.726 115.894C239.726 115.34 239.367 114.891 238.924 114.891C238.481 114.891 238.122 115.34 238.122 115.894C238.122 116.447 238.481 116.896 238.924 116.896Z" fill="#6C63FF"/>
<path d="M130.91 62.1135C131.352 62.1135 131.711 61.6648 131.711 61.1114C131.711 60.5579 131.352 60.1093 130.91 60.1093C130.467 60.1093 130.108 60.5579 130.108 61.1114C130.108 61.6648 130.467 62.1135 130.91 62.1135Z" fill="#6C63FF"/>
<path d="M281.375 86.8262C281.817 86.8262 282.176 86.3775 282.176 85.824C282.176 85.2706 281.817 84.8219 281.375 84.8219C280.932 84.8219 280.573 85.2706 280.573 85.824C280.573 86.3775 280.932 86.8262 281.375 86.8262Z" fill="#6C63FF"/>
<path d="M313.599 84.9986C314.041 84.9986 314.4 84.55 314.4 83.9965C314.4 83.4431 314.041 82.9944 313.599 82.9944C313.156 82.9944 312.797 83.4431 312.797 83.9965C312.797 84.55 313.156 84.9986 313.599 84.9986Z" fill="#6C63FF"/>
<path d="M269.878 124.797C270.32 124.797 270.679 124.349 270.679 123.795C270.679 123.242 270.32 122.793 269.878 122.793C269.435 122.793 269.076 123.242 269.076 123.795C269.076 124.349 269.435 124.797 269.878 124.797Z" fill="#6C63FF"/>
<path d="M268.495 163.709C268.937 163.709 269.296 163.261 269.296 162.707C269.296 162.154 268.937 161.705 268.495 161.705C268.052 161.705 267.693 162.154 267.693 162.707C267.693 163.261 268.052 163.709 268.495 163.709Z" fill="#6C63FF"/>
<path d="M242.847 72.6172C243.29 72.6172 243.649 72.1685 243.649 71.615C243.649 71.0616 243.29 70.6129 242.847 70.6129C242.404 70.6129 242.045 71.0616 242.045 71.615C242.045 72.1685 242.404 72.6172 242.847 72.6172Z" fill="#6C63FF"/>
<path d="M208.798 62.89C209.24 62.89 209.599 62.4413 209.599 61.8879C209.599 61.3344 209.24 60.8857 208.798 60.8857C208.355 60.8857 207.996 61.3344 207.996 61.8879C207.996 62.4413 208.355 62.89 208.798 62.89Z" fill="#6C63FF"/>
<path d="M107.924 222.594C108.477 222.594 108.926 222.145 108.926 221.592C108.926 221.039 108.477 220.59 107.924 220.59C107.371 220.59 106.922 221.039 106.922 221.592C106.922 222.145 107.371 222.594 107.924 222.594Z" fill="#6C63FF"/>
<path d="M217.156 226.202C217.599 226.202 217.958 225.753 217.958 225.2C217.958 224.646 217.599 224.198 217.156 224.198C216.713 224.198 216.354 224.646 216.354 225.2C216.354 225.753 216.713 226.202 217.156 226.202Z" fill="#6C63FF"/>
<path d="M186.692 125.966L185.979 125.841L186.135 125.271L185.66 125.188L185.504 125.758L184.791 125.633L184.687 126.013L185.4 126.138L185.244 126.708L185.719 126.791L185.875 126.221L186.587 126.346L186.692 125.966Z" fill="#E6E6E6"/>
<path d="M82.6478 107.106L81.9354 106.981L82.0914 106.411L81.6164 106.328L81.4601 106.898L80.7477 106.773L80.6436 107.153L81.356 107.278L81.2 107.848L81.675 107.931L81.8313 107.361L82.5437 107.486L82.6478 107.106Z" fill="#E6E6E6"/>
<path d="M84.4166 154.863L83.7042 154.738L83.8602 154.168L83.3852 154.085L83.2289 154.655L82.5165 154.53L82.4124 154.91L83.1248 155.035L82.9688 155.605L83.4438 155.688L83.6001 155.118L84.3125 155.243L84.4166 154.863Z" fill="#E6E6E6"/>
<path d="M232.109 130.1L231.397 129.975L231.553 129.405L231.078 129.322L230.922 129.892L230.209 129.767L230.105 130.147L230.818 130.272L230.662 130.842L231.137 130.925L231.293 130.355L232.005 130.48L232.109 130.1Z" fill="#E6E6E6"/>
<path d="M275.003 99.6918L274.291 99.5668L274.447 98.9967L273.972 98.9135L273.816 99.4836L273.103 99.3588L272.999 99.7387L273.711 99.8637L273.555 100.434L274.03 100.517L274.187 99.9467L274.899 100.072L275.003 99.6918Z" fill="#E6E6E6"/>
<path d="M263.063 138.002L262.351 137.877L262.507 137.307L262.032 137.224L261.876 137.794L261.163 137.669L261.059 138.049L261.772 138.174L261.616 138.744L262.09 138.827L262.247 138.257L262.959 138.382L263.063 138.002Z" fill="#E6E6E6"/>
<path d="M236.532 81.401L235.819 81.2759L235.975 80.7058L235.5 80.6226L235.344 81.1927L234.631 81.0679L234.527 81.4478L235.24 81.5728L235.084 82.1427L235.559 82.226L235.715 81.6559L236.428 81.7809L236.532 81.401Z" fill="#E6E6E6"/>
<path d="M211.544 114.341L210.832 114.216L210.988 113.646L210.513 113.563L210.357 114.133L209.644 114.008L209.54 114.388L210.253 114.513L210.097 115.083L210.572 115.166L210.728 114.596L211.44 114.721L211.544 114.341Z" fill="#E6E6E6"/>
<path d="M174.651 48.9464L173.939 48.8214L174.095 48.2514L173.62 48.1682L173.464 48.7381L172.751 48.6133L172.647 48.9933L173.36 49.1183L173.204 49.6885L173.679 49.7716L173.835 49.2016L174.547 49.3264L174.651 48.9464Z" fill="#E6E6E6"/>
<path d="M103.53 59.5592L102.818 59.4341L102.974 58.8642L102.499 58.7809L102.342 59.3508L101.63 59.226L101.526 59.606L102.238 59.731L102.082 60.3012L102.557 60.3843L102.713 59.8143L103.426 59.9391L103.53 59.5592Z" fill="#E6E6E6"/>
<path d="M58.6134 55.1361L57.901 55.0111L58.057 54.4411L57.5821 54.3578L57.4259 54.9278L56.7132 54.803L56.6091 55.183L57.3218 55.308L57.1658 55.8782L57.6407 55.9613L57.7969 55.3913L58.5093 55.5161L58.6134 55.1361Z" fill="#E6E6E6"/>
<path d="M107.501 95.4814L106.788 95.3564L106.944 94.7864L106.469 94.7031L106.313 95.2731L105.6 95.1483L105.496 95.5283L106.209 95.6533L106.053 96.2235L106.528 96.3065L106.684 95.7366L107.397 95.8614L107.501 95.4814Z" fill="#E6E6E6"/>
<path d="M109.269 143.238L108.557 143.113L108.713 142.543L108.238 142.46L108.082 143.03L107.369 142.905L107.265 143.285L107.978 143.41L107.822 143.98L108.297 144.063L108.453 143.494L109.165 143.618L109.269 143.238Z" fill="#E6E6E6"/>
<path d="M256.962 118.475L256.25 118.35L256.406 117.78L255.931 117.697L255.775 118.267L255.062 118.142L254.958 118.522L255.671 118.647L255.515 119.218L255.99 119.301L256.146 118.731L256.858 118.855L256.962 118.475Z" fill="#E6E6E6"/>
<path d="M299.413 88.406L298.701 88.281L298.857 87.711L298.382 87.6277L298.226 88.1977L297.513 88.0729L297.409 88.4529L298.122 88.5779L297.966 89.1481L298.44 89.2312L298.597 88.6612L299.309 88.786L299.413 88.406Z" fill="#E6E6E6"/>
<path d="M319.223 66.9693L318.511 66.8442L318.667 66.2743L318.192 66.191L318.035 66.7609L317.323 66.6361L317.219 67.0161L317.931 67.1411L317.775 67.7113L318.25 67.7944L318.407 67.2244L319.119 67.3492L319.223 66.9693Z" fill="#E6E6E6"/>
<path d="M125.762 224.174L125.049 224.049L125.205 223.479L124.731 223.396L124.574 223.966L123.862 223.841L123.758 224.221L124.47 224.346L124.314 224.916L124.789 224.999L124.945 224.429L125.658 224.554L125.762 224.174Z" fill="#E6E6E6"/>
<path d="M60.538 68.9962L59.8256 68.8711L59.9816 68.3012L59.5067 68.2179L59.3504 68.7879L58.6378 68.6631L58.5337 69.043L59.2463 69.1681L59.0903 69.7383L59.5652 69.8213L59.7215 69.2513L60.4339 69.3761L60.538 68.9962Z" fill="#E6E6E6"/>
<path d="M196.713 136.789L196.143 136.664L196.268 136.094L195.888 136.011L195.763 136.581L195.193 136.456L195.109 136.836L195.679 136.961L195.555 137.531L195.935 137.614L196.06 137.044L196.63 137.169L196.713 136.789Z" fill="#E6E6E6"/>
<path d="M238.802 194.512L238.09 194.387L238.245 193.817L237.771 193.733L237.614 194.303L236.902 194.178L236.798 194.558L237.51 194.683L237.354 195.254L237.829 195.337L237.985 194.767L238.698 194.892L238.802 194.512Z" fill="#E6E6E6"/>
<path d="M233.19 95.1235C234.74 95.1235 235.996 93.8673 235.996 92.3176C235.996 90.7679 234.74 89.5116 233.19 89.5116C231.64 89.5116 230.384 90.7679 230.384 92.3176C230.384 93.8673 231.64 95.1235 233.19 95.1235Z" fill="#6C63FF"/>
<path d="M125.176 40.3416C126.726 40.3416 127.982 39.0853 127.982 37.5356C127.982 35.9859 126.726 34.7297 125.176 34.7297C123.626 34.7297 122.37 35.9859 122.37 37.5356C122.37 39.0853 123.626 40.3416 125.176 40.3416Z" fill="#6C63FF"/>
<path d="M135.483 189.441L183.526 208.099C183.596 208.127 183.672 208.136 183.747 208.125L214.787 203.497C214.879 203.484 214.965 203.441 215.03 203.375C215.096 203.309 215.139 203.224 215.152 203.131L221.394 161.779C221.408 161.678 221.387 161.575 221.334 161.488C221.281 161.401 221.2 161.335 221.104 161.302L220.785 161.193L173.554 145.372C173.533 145.364 173.51 145.359 173.488 145.356C173.451 145.349 173.414 145.347 173.377 145.35L144.309 148.118L142.002 148.335C141.908 148.345 141.819 148.386 141.75 148.452C141.68 148.518 141.634 148.604 141.618 148.699L135.212 188.966C135.197 189.064 135.215 189.165 135.264 189.251C135.313 189.338 135.391 189.405 135.483 189.441Z" fill="#B952FF"/>
<path d="M143.72 148.129L173.245 145.35C173.282 145.347 173.32 145.349 173.357 145.356C173.38 145.359 173.403 145.364 173.425 145.372L221.398 161.257L208.744 162.589L204.008 163.085L190.532 164.501C190.493 164.503 190.453 164.503 190.414 164.5C190.39 164.492 190.366 164.485 190.337 164.478L143.72 148.129Z" fill="#F3E1FF"/>
<path d="M133.194 191.286L181.969 210.026C182.198 210.114 182.437 210.176 182.68 210.211C183.034 210.269 183.394 210.274 183.748 210.224L215.261 205.575C216.005 205.467 216.694 205.124 217.227 204.596C217.759 204.068 218.107 203.384 218.218 202.644L224.55 161.11C224.644 160.498 224.573 159.872 224.345 159.295C224.313 159.219 224.281 159.142 224.244 159.07C223.993 158.544 223.61 158.09 223.133 157.753C222.846 157.548 222.529 157.387 222.194 157.276L222.136 157.256L173.925 141.272C173.728 141.21 173.527 141.161 173.323 141.127C173.044 141.087 172.762 141.082 172.482 141.11L160.385 142.245L153.443 142.905L140.629 144.109C140.105 144.157 139.599 144.324 139.149 144.596C139.114 144.612 139.081 144.632 139.05 144.655C139.027 144.669 139.006 144.685 138.986 144.703C138.593 144.97 138.258 145.314 138.003 145.714C137.748 146.114 137.577 146.561 137.501 147.029L130.992 187.476C130.869 188.266 131.02 189.074 131.421 189.766C131.821 190.459 132.446 190.995 133.194 191.286V191.286ZM138.365 147.17C138.444 146.685 138.66 146.233 138.988 145.865C139.087 145.747 139.198 145.64 139.319 145.544C139.65 145.277 140.041 145.096 140.459 145.015C140.541 144.998 140.625 144.986 140.709 144.979L162.283 142.951L172.566 141.977C172.636 141.969 172.7 141.97 172.764 141.966C172.92 141.963 173.075 141.974 173.229 142C173.37 142.019 173.509 142.052 173.643 142.099L221.912 158.103C221.95 158.116 221.984 158.129 222.022 158.143C222.461 158.305 222.846 158.584 223.137 158.95C223.366 159.23 223.534 159.555 223.629 159.904C223.723 160.252 223.743 160.617 223.686 160.974L217.349 202.512C217.266 203.066 217.006 203.579 216.608 203.974C216.209 204.37 215.694 204.628 215.137 204.71L183.62 209.359C183.169 209.423 182.709 209.371 182.284 209.207L133.508 190.472C132.949 190.253 132.482 189.851 132.182 189.332C131.883 188.814 131.77 188.209 131.861 187.618L138.365 147.17Z" fill="#F3E1FF"/>
<path d="M139.487 145.647C139.513 145.571 139.558 145.505 139.619 145.454C139.639 145.437 139.66 145.422 139.682 145.409C139.702 145.401 139.723 145.388 139.744 145.38C139.842 145.34 139.951 145.338 140.05 145.375L141.067 145.74L190.738 163.601L202.363 162.349L208.868 161.65L222.637 160.164L223.868 160.032L224.107 160.005C224.21 159.996 224.314 160.023 224.399 160.083C224.484 160.143 224.547 160.231 224.575 160.333C224.582 160.356 224.586 160.38 224.588 160.404C224.598 160.501 224.577 160.598 224.529 160.681C224.48 160.764 224.406 160.829 224.318 160.866C224.279 160.882 224.238 160.894 224.196 160.899L222.521 161.078L208.962 162.539L204.222 163.048L190.732 164.501C190.693 164.503 190.653 164.503 190.614 164.5C190.59 164.492 190.566 164.485 190.537 164.477L139.926 146.283L139.754 146.221C139.714 146.208 139.678 146.187 139.646 146.16C139.569 146.103 139.513 146.023 139.484 145.93C139.456 145.838 139.457 145.739 139.487 145.647Z" fill="#F3E1FF"/>
<path d="M183.602 210.538C183.497 210.52 183.404 210.459 183.341 210.368C183.279 210.276 183.252 210.163 183.268 210.051L189.789 163.827C189.805 163.715 189.862 163.613 189.948 163.546C190.033 163.478 190.141 163.45 190.246 163.467L190.249 163.467C190.354 163.485 190.448 163.547 190.51 163.638C190.573 163.729 190.599 163.843 190.583 163.955L184.062 210.179C184.046 210.291 183.989 210.392 183.904 210.46C183.818 210.527 183.711 210.556 183.605 210.539L183.602 210.538Z" fill="#F3E1FF"/>
<path d="M201.53 207.639L196.924 208.13L202.312 162.091C202.312 162.091 208.464 160.966 208.628 161.417C208.729 161.686 201.574 207.344 201.53 207.639Z" fill="#F3E1FF"/>
<path d="M139.59 145.349L139.463 166.954L177.044 181.528L190.54 163.078L139.59 145.349Z" fill="#F3E1FF"/>
<path d="M223.86 158.659C223.546 158.271 223.123 157.983 222.644 157.829L174.723 142.159C174.589 142.115 174.451 142.082 174.31 142.06C174.157 142.035 174.002 142.023 173.847 142.026L173.925 141.55L174.405 141.209L185.784 133.121L223.788 144.554L223.854 157.486L223.86 158.659Z" fill="#F3E1FF"/>
<path d="M136.757 114.743L137.277 116.888L132.305 118.095L131.784 115.95L136.757 114.743ZM132.572 115.759L135.065 126.027L132.332 126.691L129.838 116.423L132.572 115.759ZM138.749 114.259L141.243 124.527L138.5 125.193L136.007 114.925L138.749 114.259ZM146.115 122.118L146.626 112.346L149.558 111.634L148.299 124.452C148.274 124.732 148.221 125.04 148.141 125.374C148.068 125.707 147.937 126.037 147.749 126.364C147.568 126.696 147.309 126.993 146.97 127.256C146.639 127.518 146.201 127.715 145.657 127.847C145.397 127.91 145.181 127.945 145.009 127.954C144.837 127.962 144.63 127.965 144.389 127.964L143.902 125.961C143.972 125.944 144.045 125.927 144.121 125.908C144.198 125.896 144.272 125.882 144.341 125.865C144.702 125.777 144.986 125.665 145.194 125.527C145.402 125.39 145.554 125.219 145.652 125.014C145.751 124.816 145.81 124.574 145.828 124.288L146.115 122.118ZM142.764 113.284L146.8 120.183L147.892 122.983L146.081 123.634L139.831 113.996L142.764 113.284ZM156.78 118.694C157.115 118.613 157.397 118.477 157.626 118.288C157.853 118.092 158.011 117.859 158.099 117.59C158.193 117.313 158.204 117.012 158.132 116.688L160.703 116.063C160.872 116.786 160.835 117.475 160.592 118.13C160.348 118.779 159.945 119.342 159.385 119.82C158.822 120.292 158.146 120.623 157.355 120.815C156.558 121.009 155.83 121.045 155.171 120.924C154.518 120.801 153.938 120.553 153.432 120.18C152.925 119.801 152.497 119.322 152.149 118.743C151.799 118.158 151.537 117.505 151.362 116.784L151.295 116.509C151.118 115.781 151.052 115.08 151.096 114.406C151.138 113.726 151.299 113.104 151.577 112.541C151.854 111.971 152.255 111.482 152.779 111.073C153.303 110.665 153.96 110.364 154.751 110.172C155.592 109.968 156.368 109.951 157.079 110.12C157.797 110.287 158.409 110.628 158.915 111.141C159.427 111.647 159.784 112.307 159.989 113.121L157.417 113.746C157.328 113.406 157.18 113.113 156.973 112.869C156.773 112.623 156.523 112.449 156.223 112.347C155.929 112.238 155.595 112.229 155.222 112.319C154.823 112.416 154.518 112.581 154.306 112.813C154.093 113.039 153.953 113.314 153.884 113.639C153.814 113.957 153.795 114.307 153.827 114.688C153.864 115.061 153.931 115.446 154.028 115.845L154.095 116.12C154.191 116.519 154.31 116.895 154.449 117.25C154.589 117.605 154.763 117.908 154.971 118.158C155.186 118.408 155.44 118.584 155.733 118.687C156.026 118.79 156.375 118.792 156.78 118.694ZM165.881 107.671L168.374 117.939L165.632 118.605L163.138 108.337L165.881 107.671ZM169.183 106.869L169.697 108.985L160.397 111.243L159.883 109.127L169.183 106.869ZM171.091 111.953L171.043 111.754C170.86 111.001 170.799 110.282 170.861 109.597C170.921 108.906 171.1 108.276 171.397 107.708C171.695 107.14 172.112 106.653 172.65 106.248C173.187 105.836 173.844 105.536 174.622 105.347C175.401 105.158 176.126 105.123 176.798 105.241C177.468 105.353 178.065 105.593 178.59 105.961C179.122 106.328 179.572 106.805 179.943 107.392C180.311 107.972 180.587 108.639 180.77 109.392L180.818 109.591C181 110.337 181.06 111.056 181 111.748C180.939 112.432 180.757 113.063 180.455 113.639C180.157 114.207 179.739 114.693 179.201 115.099C178.663 115.504 178.005 115.801 177.227 115.99C176.449 116.179 175.724 116.218 175.054 116.106C174.39 115.992 173.793 115.752 173.261 115.385C172.735 115.011 172.287 114.533 171.919 113.953C171.548 113.366 171.273 112.699 171.091 111.953ZM173.776 111.09L173.824 111.289C173.929 111.719 174.064 112.112 174.231 112.467C174.397 112.822 174.597 113.121 174.831 113.366C175.07 113.603 175.344 113.768 175.654 113.86C175.965 113.952 176.316 113.95 176.708 113.855C177.088 113.763 177.395 113.605 177.628 113.38C177.862 113.156 178.027 112.885 178.124 112.567C178.219 112.242 178.26 111.884 178.245 111.492C178.237 111.099 178.18 110.687 178.076 110.257L178.027 110.058C177.926 109.64 177.79 109.258 177.618 108.911C177.452 108.556 177.248 108.257 177.009 108.014C176.773 107.763 176.5 107.588 176.188 107.489C175.876 107.391 175.527 107.389 175.141 107.482C174.755 107.576 174.446 107.738 174.214 107.969C173.988 108.198 173.825 108.479 173.725 108.811C173.63 109.136 173.589 109.494 173.604 109.886C173.617 110.271 173.675 110.672 173.776 111.09Z" fill="white"/>
<defs>
<linearGradient id="paint0_linear_1459_8564" x1="184.286" y1="232.616" x2="207.135" y2="232.616" gradientUnits="userSpaceOnUse">
<stop stop-color="white"/>
<stop offset="1" stop-color="white" stop-opacity="0.3"/>
</linearGradient>
<linearGradient id="paint1_linear_1459_8564" x1="119.063" y1="77.4375" x2="141.911" y2="77.4375" gradientUnits="userSpaceOnUse">
<stop stop-color="white"/>
<stop offset="1" stop-color="white" stop-opacity="0.3"/>
</linearGradient>
</defs>
</svg>
