<svg width="372" height="296" viewBox="0 0 372 296" fill="none" xmlns="http://www.w3.org/2000/svg">
<path d="M357.943 66.4494C410.42 54.9536 300.348 236.888 282.725 257.299C265.103 277.71 240.716 291.109 214.021 295.048C214.021 295.048 205 296 198.5 296C192 296 185.5 295.5 185.5 295.5L181.806 295.171C181.523 295.132 181.236 295.09 180.953 295.048C178.783 294.73 176.633 294.349 174.503 293.907C166.162 292.182 158.047 289.507 150.318 285.933C150.237 285.897 150.16 285.858 150.079 285.823C145.772 283.826 141.597 281.555 137.582 279.023C137.48 278.961 137.382 278.898 137.283 278.835C137.113 278.728 136.946 278.624 136.779 278.513C136.725 278.481 136.672 278.448 136.618 278.412C133.028 276.103 129.573 273.591 126.27 270.888C126.109 270.76 125.948 270.626 125.786 270.495C125.139 269.958 124.497 269.416 123.861 268.867C123.855 268.864 123.852 268.858 123.846 268.855C120.598 266.043 117.512 263.05 114.603 259.889C114.594 259.877 114.582 259.868 114.573 259.856C101.794 245.974 92.4295 225.368 88.2088 210.79C88.2416 210.921 88.173 210.659 88.2088 210.79C73.2673 159.184 98.5823 78.0549 14.8201 66.4494C-43.2071 58.4093 81.9307 -12.2679 169.73 1.86171C280.224 19.6437 178.275 105.808 357.943 66.4494Z" fill="#3F3D56"/>
<path opacity="0.8" d="M210.868 280.418L220.77 268.954L230.672 257.49L236.262 251.018C236.572 250.66 236.094 250.101 235.785 250.459L225.883 261.923L215.98 273.388L210.39 279.859C210.081 280.218 210.558 280.776 210.868 280.418V280.418Z" fill="url(#paint0_linear_1911_7906)"/>
<path opacity="0.8" d="M136.44 103.344L146.343 91.8795L156.245 80.4153L161.835 73.9435C162.144 73.5854 161.667 73.0268 161.358 73.3849L151.455 84.8491L141.553 96.3134L135.963 102.785C135.654 103.143 136.131 103.702 136.44 103.344V103.344Z" fill="url(#paint1_linear_1911_7906)"/>
<path d="M129.556 144.682C130.188 144.682 130.7 144.17 130.7 143.538C130.7 142.907 130.188 142.395 129.556 142.395C128.925 142.395 128.413 142.907 128.413 143.538C128.413 144.17 128.925 144.682 129.556 144.682Z" fill="#6C63FF"/>
<path d="M208.003 242.568C208.508 242.568 208.918 242.056 208.918 241.425C208.918 240.793 208.508 240.281 208.003 240.281C207.498 240.281 207.088 240.793 207.088 241.425C207.088 242.056 207.498 242.568 208.003 242.568Z" fill="#6C63FF"/>
<path d="M143.507 202.316C144.013 202.316 144.422 201.804 144.422 201.172C144.422 200.541 144.013 200.029 143.507 200.029C143.002 200.029 142.593 200.541 142.593 201.172C142.593 201.804 143.002 202.316 143.507 202.316Z" fill="#6C63FF"/>
<path d="M193.137 266.811C193.768 266.811 194.28 266.299 194.28 265.668C194.28 265.036 193.768 264.524 193.137 264.524C192.505 264.524 191.993 265.036 191.993 265.668C191.993 266.299 192.505 266.811 193.137 266.811Z" fill="#6C63FF"/>
<path d="M118.71 89.7365C119.341 89.7365 119.853 89.2246 119.853 88.593C119.853 87.9614 119.341 87.4495 118.71 87.4495C118.078 87.4495 117.566 87.9614 117.566 88.593C117.566 89.2246 118.078 89.7365 118.71 89.7365Z" fill="#6C63FF"/>
<path d="M169.307 190.884L168.895 191.43L168.485 190.88L168.211 191.244L168.62 191.794L168.208 192.34L168.481 192.706L168.893 192.161L169.302 192.71L169.577 192.346L169.168 191.797L169.58 191.251L169.307 190.884Z" fill="#E6E6E6"/>
<path d="M152.749 216.5L152.2 217.045L151.654 216.496L151.287 216.86L151.833 217.409L151.283 217.955L151.647 218.322L152.197 217.776L152.743 218.326L153.109 217.962L152.563 217.412L153.113 216.866L152.749 216.5Z" fill="#E6E6E6"/>
<path d="M173.79 160.237L173.241 160.646L172.695 160.234L172.328 160.507L172.874 160.919L172.325 161.328L172.689 161.603L173.238 161.194L173.784 161.606L174.151 161.333L173.605 160.921L174.154 160.511L173.79 160.237Z" fill="#E6E6E6"/>
<path d="M287.686 201.405L287.137 201.951L286.591 201.401L286.224 201.765L286.77 202.315L286.22 202.861L286.584 203.227L287.134 202.681L287.68 203.231L288.046 202.867L287.5 202.317L288.05 201.771L287.686 201.405Z" fill="#E6E6E6"/>
<path d="M204.894 251.262L204.345 251.808L203.799 251.259L203.432 251.623L203.978 252.172L203.429 252.718L203.793 253.085L204.342 252.539L204.888 253.088L205.255 252.724L204.709 252.175L205.258 251.629L204.894 251.262Z" fill="#E6E6E6"/>
<path d="M187.002 101.489C186.011 102.301 184.998 100.369 186.007 99.593C186.997 98.7811 188.011 100.714 187.002 101.489Z" fill="#E6E6E6"/>
<path d="M144.903 26.8673C143.913 27.6792 142.899 25.7468 143.908 24.9709C144.898 24.159 145.912 26.0915 144.903 26.8673Z" fill="#E6E6E6"/>
<path d="M84.8574 33.2185C83.8672 34.0305 82.8537 32.098 83.863 31.3221C84.8531 30.5102 85.8665 32.4427 84.8574 33.2185Z" fill="#E6E6E6"/>
<path d="M170.43 126.686C169.192 127.336 167.926 125.79 169.187 125.169C170.425 124.52 171.692 126.066 170.43 126.686Z" fill="#E6E6E6"/>
<path d="M218.459 192.554C217.221 193.203 215.954 191.657 217.216 191.037C218.453 190.387 219.72 191.933 218.459 192.554Z" fill="#E6E6E6"/>
<path d="M120.179 180.791L119.529 180.648L119.671 179.998L119.237 179.903L119.095 180.553L118.444 180.411L118.349 180.844L119 180.987L118.857 181.637L119.291 181.732L119.434 181.082L120.084 181.224L120.179 180.791Z" fill="#E6E6E6"/>
<path d="M170.037 245.508L169.224 245.329L169.402 244.516L168.86 244.397L168.682 245.211L167.869 245.033L167.75 245.575L168.563 245.753L168.385 246.566L168.927 246.685L169.106 245.871L169.919 246.05L170.037 245.508Z" fill="#E6E6E6"/>
<path d="M95.6101 68.4335L94.7971 68.2552L94.9751 67.442L94.4331 67.3232L94.2548 68.1364L93.4418 67.9584L93.323 68.5004L94.136 68.6787L93.958 69.4915L94.5 69.6103L94.6783 68.7971L95.4913 68.9754L95.6101 68.4335Z" fill="#E6E6E6"/>
<path d="M44.3559 63.3863L43.5429 63.208L43.721 62.3948L43.179 62.2761L43.0006 63.0893L42.1876 62.9113L42.0688 63.4532L42.8818 63.6315L42.7038 64.4444L43.2458 64.5631L43.4241 63.7499L44.2371 63.9283L44.3559 63.3863Z" fill="#E6E6E6"/>
<path d="M29.218 43.3381L28.405 43.1598L28.583 42.3466L28.041 42.2278L27.8627 43.041L27.0497 42.863L26.9309 43.405L27.7439 43.5833L27.5659 44.3961L28.1079 44.5149L28.2862 43.7017L29.0992 43.88L29.218 43.3381Z" fill="#E6E6E6"/>
<path d="M103.712 206.171L103.062 205.992L103.204 205.179L102.771 205.06L102.628 205.874L101.978 205.696L101.883 206.238L102.533 206.416L102.391 207.229L102.824 207.347L102.967 206.534L103.617 206.713L103.712 206.171Z" fill="#E6E6E6"/>
<path d="M151.283 272.038L150.633 271.86L150.775 271.047L150.342 270.928L150.199 271.741L149.549 271.563L149.454 272.105L150.104 272.283L149.962 273.096L150.395 273.215L150.538 272.402L151.188 272.58L151.283 272.038Z" fill="#E6E6E6"/>
<path d="M76.8565 94.9635L76.2061 94.7852L76.3485 93.972L75.9149 93.8532L75.7723 94.6664L75.1219 94.4884L75.0269 95.0303L75.6772 95.2086L75.5348 96.0215L75.9684 96.1403L76.1111 95.3271L76.7615 95.5054L76.8565 94.9635Z" fill="#E6E6E6"/>
<path d="M232.703 92.7319L231.89 92.5535L232.068 91.7404L231.526 91.6216L231.348 92.4348L230.535 92.2568L230.416 92.7987L231.229 92.977L231.051 93.7899L231.593 93.9087L231.772 93.0955L232.585 93.2738L232.703 92.7319Z" fill="#E6E6E6"/>
<path d="M256.788 81.6883L255.975 81.51L256.153 80.6968L255.611 80.578L255.433 81.3912L254.62 81.2132L254.501 81.7551L255.314 81.9334L255.136 82.7463L255.678 82.8651L255.856 82.0519L256.669 82.2302L256.788 81.6883Z" fill="#E6E6E6"/>
<path d="M190.605 18.1098L189.792 17.9315L189.97 17.1183L189.428 16.9995L189.249 17.8127L188.436 17.6347L188.318 18.1766L189.131 18.3549L188.953 19.1678L189.495 19.2866L189.673 18.4734L190.486 18.6517L190.605 18.1098Z" fill="#E6E6E6"/>
<path d="M195.735 81.3408L195.95 80.5366L196.754 80.7509L196.897 80.2148L196.093 80.0002L196.307 79.196L195.771 79.053L195.556 79.8572L194.752 79.6429L194.609 80.179L195.414 80.3936L195.199 81.1978L195.735 81.3408Z" fill="#E6E6E6"/>
<path d="M109.447 30.22L108.634 30.0416L108.813 29.2285L108.271 29.1097L108.092 29.9229L107.279 29.7449L107.16 30.2868L107.973 30.4651L107.795 31.278L108.337 31.3967L108.516 30.5836L109.329 30.7619L109.447 30.22Z" fill="#E6E6E6"/>
<path d="M96.8332 15.081L96.0202 14.9026L96.1982 14.0894L95.6563 13.9707L95.4779 14.7839L94.6649 14.6059L94.5461 15.1478L95.3591 15.3261L95.1811 16.139L95.7231 16.2577L95.9014 15.4445L96.7144 15.6229L96.8332 15.081Z" fill="#E6E6E6"/>
<path d="M126.1 16.0901L125.287 15.9118L125.465 15.0986L124.923 14.9799L124.744 15.7931L123.931 15.6151L123.812 16.157L124.625 16.3353L124.447 17.1482L124.989 17.2669L125.168 16.4537L125.981 16.6321L126.1 16.0901Z" fill="#E6E6E6"/>
<path d="M58.1931 25.1728L57.3801 24.9945L57.5581 24.1813L57.0161 24.0625L56.8378 24.8757L56.0248 24.6977L55.906 25.2396L56.719 25.418L56.541 26.2308L57.083 26.3496L57.2613 25.5364L58.0743 25.7147L58.1931 25.1728Z" fill="#E6E6E6"/>
<path d="M42.3374 49.3932L41.5244 49.2149L41.7024 48.4017L41.1604 48.283L40.9821 49.0962L40.1691 48.9182L40.0503 49.4601L40.8633 49.6384L40.6853 50.4513L41.2272 50.57L41.4056 49.7568L42.2186 49.9352L42.3374 49.3932Z" fill="#E6E6E6"/>
<path d="M134.816 218.064L134.003 217.885L134.181 217.072L133.639 216.953L133.461 217.767L132.648 217.589L132.529 218.13L133.342 218.309L133.164 219.122L133.706 219.24L133.885 218.427L134.698 218.606L134.816 218.064Z" fill="#E6E6E6"/>
<path d="M184.217 282.794L183.567 282.651L183.709 282.001L183.276 281.906L183.133 282.556L182.482 282.414L182.387 282.848L183.038 282.99L182.895 283.641L183.329 283.736L183.472 283.085L184.122 283.228L184.217 282.794Z" fill="#E6E6E6"/>
<path d="M215.779 118.347L215.128 118.169L215.271 117.355L214.837 117.237L214.695 118.05L214.044 117.872L213.949 118.414L214.6 118.592L214.457 119.405L214.891 119.524L215.033 118.711L215.684 118.889L215.779 118.347Z" fill="#E6E6E6"/>
<path d="M173.68 43.725L173.03 43.5467L173.172 42.7335L172.738 42.6147L172.596 43.4279L171.945 43.2499L171.85 43.7918L172.501 43.9701L172.358 44.783L172.792 44.9018L172.935 44.0886L173.585 44.2669L173.68 43.725Z" fill="#E6E6E6"/>
<path d="M170.905 63.2841L171.112 62.6424L171.918 62.8211L172.057 62.3933L171.251 62.2143L171.458 61.5725L170.921 61.4533L170.713 62.095L169.908 61.9163L169.769 62.3441L170.575 62.5231L170.368 63.1648L170.905 63.2841Z" fill="#E6E6E6"/>
<path d="M97.054 96.826L96.4036 96.6477L96.546 95.8345L96.1125 95.7157L95.9698 96.5289L95.3194 96.3509L95.2244 96.8928L95.8747 97.0711L95.7323 97.884L96.1659 98.0028L96.3086 97.1896L96.959 97.3679L97.054 96.826Z" fill="#E6E6E6"/>
<path d="M99.0723 151.322L98.4219 151.144L98.5644 150.33L98.1308 150.212L97.9881 151.025L97.3377 150.847L97.2427 151.389L97.8931 151.567L97.7506 152.38L98.1842 152.499L98.3269 151.686L98.9773 151.864L99.0723 151.322Z" fill="#E6E6E6"/>
<path d="M267.606 123.065L266.955 122.887L267.098 122.073L266.664 121.955L266.521 122.768L265.871 122.59L265.776 123.132L266.426 123.31L266.284 124.123L266.717 124.242L266.86 123.429L267.511 123.607L267.606 123.065Z" fill="#E6E6E6"/>
<path d="M225.507 48.4427L224.857 48.2644L224.999 47.4512L224.566 47.3324L224.423 48.1456L223.773 47.9676L223.678 48.5095L224.328 48.6878L224.186 49.5007L224.619 49.6195L224.762 48.8063L225.412 48.9846L225.507 48.4427Z" fill="#E6E6E6"/>
<path d="M144.35 60.5528L143.7 60.3745L143.842 59.5613L143.409 59.4426L143.266 60.2558L142.616 60.0778L142.521 60.6197L143.171 60.798L143.028 61.6109L143.462 61.7296L143.605 60.9164L144.255 61.0948L144.35 60.5528Z" fill="#E6E6E6"/>
<path d="M93.096 55.5057L92.4456 55.3274L92.588 54.5142L92.1545 54.3954L92.0118 55.2086L91.3614 55.0306L91.2664 55.5725L91.9167 55.7508L91.7743 56.5637L92.2079 56.6825L92.3506 55.8693L93.001 56.0476L93.096 55.5057Z" fill="#E6E6E6"/>
<path d="M316.046 88.7526L315.396 88.5742L315.538 87.761L315.105 87.6423L314.962 88.4555L314.312 88.2775L314.217 88.8194L314.867 88.9977L314.725 89.8106L315.158 89.9293L315.301 89.1161L315.951 89.2945L316.046 88.7526Z" fill="#E6E6E6"/>
<path d="M340.598 79.6687L339.948 79.4904L340.09 78.6772L339.656 78.5584L339.514 79.3716L338.863 79.1936L338.768 79.7355L339.419 79.9138L339.276 80.7267L339.71 80.8455L339.853 80.0323L340.503 80.2106L340.598 79.6687Z" fill="#E6E6E6"/>
<path d="M289.88 140.081L289.067 139.938L289.245 139.288L288.703 139.193L288.524 139.843L287.711 139.701L287.593 140.135L288.406 140.277L288.227 140.928L288.769 141.023L288.948 140.372L289.761 140.515L289.88 140.081Z" fill="#E6E6E6"/>
<path d="M333.991 119.814L333.178 119.671L333.356 119.021L332.814 118.926L332.636 119.576L331.823 119.434L331.704 119.867L332.517 120.01L332.339 120.66L332.881 120.755L333.059 120.105L333.872 120.247L333.991 119.814Z" fill="#E6E6E6"/>
<path d="M325.201 149.098L324.388 148.955L324.566 148.305L324.024 148.21L323.846 148.86L323.033 148.718L322.914 149.151L323.727 149.294L323.549 149.944L324.091 150.039L324.269 149.389L325.082 149.531L325.201 149.098Z" fill="#E6E6E6"/>
<path d="M279.496 178.347L278.683 178.204L278.861 177.553L278.319 177.458L278.14 178.109L277.327 177.966L277.208 178.4L278.021 178.543L277.843 179.193L278.385 179.288L278.564 178.637L279.377 178.78L279.496 178.347Z" fill="#E6E6E6"/>
<path d="M294.926 84.51L294.113 84.3673L294.291 83.7168L293.749 83.6218L293.57 84.2723L292.757 84.1299L292.639 84.5635L293.452 84.7061L293.274 85.3564L293.816 85.4514L293.994 84.8009L294.807 84.9435L294.926 84.51Z" fill="#E6E6E6"/>
<path d="M291.605 111.74L290.792 111.598L290.97 110.947L290.428 110.852L290.25 111.503L289.437 111.36L289.318 111.794L290.131 111.937L289.953 112.587L290.495 112.682L290.674 112.031L291.487 112.174L291.605 111.74Z" fill="#E6E6E6"/>
<path d="M151.283 104.167L150.633 103.989L150.775 103.176L150.342 103.057L150.199 103.87L149.549 103.692L149.454 104.234L150.104 104.412L149.962 105.226L150.395 105.344L150.538 104.531L151.188 104.709L151.283 104.167Z" fill="#E6E6E6"/>
<path d="M172.568 87.7432L171.918 87.5648L172.061 86.7518L171.627 86.6331L171.484 87.446L170.834 87.268L170.739 87.81L171.389 87.9884L171.247 88.8017L171.68 88.9201L171.823 88.1071L172.473 88.2852L172.568 87.7432Z" fill="#E6E6E6"/>
<path d="M134.816 129.782L134.004 129.604L134.181 128.791L133.64 128.672L133.461 129.485L132.648 129.307L132.529 129.849L133.342 130.028L133.165 130.841L133.706 130.959L133.885 130.146L134.698 130.324L134.816 129.782Z" fill="#E6E6E6"/>
<path d="M220.81 128.672C221.316 128.672 221.725 128.16 221.725 127.529C221.725 126.897 221.316 126.385 220.81 126.385C220.305 126.385 219.896 126.897 219.896 127.529C219.896 128.16 220.305 128.672 220.81 128.672Z" fill="#6C63FF"/>
<path d="M102.085 107.151C102.591 107.151 103 106.639 103 106.008C103 105.376 102.591 104.864 102.085 104.864C101.58 104.864 101.171 105.376 101.171 106.008C101.171 106.639 101.58 107.151 102.085 107.151Z" fill="#6C63FF"/>
<path d="M15.7359 56.6251C16.2411 56.6251 16.6507 56.1131 16.6507 55.4815C16.6507 54.85 16.2411 54.338 15.7359 54.338C15.2306 54.338 14.821 54.85 14.821 55.4815C14.821 56.1131 15.2306 56.6251 15.7359 56.6251Z" fill="#6C63FF"/>
<path d="M59.1306 45.524C59.6359 45.524 60.0455 45.012 60.0455 44.3805C60.0455 43.7489 59.6359 43.2369 59.1306 43.2369C58.6254 43.2369 58.2158 43.7489 58.2158 44.3805C58.2158 45.012 58.6254 45.524 59.1306 45.524Z" fill="#6C63FF"/>
<path d="M104.104 161.647C104.609 161.647 105.019 161.135 105.019 160.504C105.019 159.872 104.609 159.36 104.104 159.36C103.599 159.36 103.189 159.872 103.189 160.504C103.189 161.135 103.599 161.647 104.104 161.647Z" fill="#6C63FF"/>
<path d="M272.637 133.39C273.142 133.39 273.552 132.878 273.552 132.247C273.552 131.615 273.142 131.103 272.637 131.103C272.132 131.103 271.722 131.615 271.722 132.247C271.722 132.878 272.132 133.39 272.637 133.39Z" fill="#6C63FF"/>
<path d="M149.382 70.878C149.887 70.878 150.296 70.366 150.296 69.7345C150.296 69.1029 149.887 68.5909 149.382 68.5909C148.876 68.5909 148.467 69.1029 148.467 69.7345C148.467 70.366 148.876 70.878 149.382 70.878Z" fill="#6C63FF"/>
<path d="M321.078 99.0777C321.583 99.0777 321.993 98.5657 321.993 97.9342C321.993 97.3026 321.583 96.7906 321.078 96.7906C320.573 96.7906 320.163 97.3026 320.163 97.9342C320.163 98.5657 320.573 99.0777 321.078 99.0777Z" fill="#6C63FF"/>
<path d="M357.849 96.9923C358.354 96.9923 358.763 96.4804 358.763 95.8488C358.763 95.2172 358.354 94.7053 357.849 94.7053C357.343 94.7053 356.934 95.2172 356.934 95.8488C356.934 96.4804 357.343 96.9923 357.849 96.9923Z" fill="#6C63FF"/>
<path d="M307.959 142.407C308.464 142.407 308.873 141.895 308.873 141.263C308.873 140.632 308.464 140.12 307.959 140.12C307.453 140.12 307.044 140.632 307.044 141.263C307.044 141.895 307.453 142.407 307.959 142.407Z" fill="#6C63FF"/>
<path d="M306.38 186.81C306.886 186.81 307.295 186.298 307.295 185.666C307.295 185.035 306.886 184.523 306.38 184.523C305.875 184.523 305.466 185.035 305.466 185.666C305.466 186.298 305.875 186.81 306.38 186.81Z" fill="#6C63FF"/>
<path d="M277.114 82.8638C277.619 82.8638 278.029 82.3518 278.029 81.7203C278.029 81.0887 277.619 80.5767 277.114 80.5767C276.609 80.5767 276.199 81.0887 276.199 81.7203C276.199 82.3518 276.609 82.8638 277.114 82.8638Z" fill="#6C63FF"/>
<path d="M238.26 71.7641C238.765 71.7641 239.175 71.2521 239.175 70.6205C239.175 69.989 238.765 69.477 238.26 69.477C237.755 69.477 237.345 69.989 237.345 70.6205C237.345 71.2521 237.755 71.7641 238.26 71.7641Z" fill="#6C63FF"/>
<path d="M123.153 254.003C123.784 254.003 124.296 253.491 124.296 252.86C124.296 252.228 123.784 251.716 123.153 251.716C122.521 251.716 122.009 252.228 122.009 252.86C122.009 253.491 122.521 254.003 123.153 254.003Z" fill="#6C63FF"/>
<path d="M247.798 258.12C248.303 258.12 248.713 257.608 248.713 256.977C248.713 256.345 248.303 255.833 247.798 255.833C247.293 255.833 246.883 256.345 246.883 256.977C246.883 257.608 247.293 258.12 247.798 258.12Z" fill="#6C63FF"/>
<path d="M213.034 143.74L212.221 143.598L212.399 142.947L211.857 142.852L211.679 143.503L210.866 143.36L210.747 143.794L211.56 143.936L211.382 144.587L211.924 144.682L212.103 144.031L212.916 144.174L213.034 143.74Z" fill="#E6E6E6"/>
<path d="M94.3098 122.219L93.4968 122.077L93.6748 121.426L93.1328 121.331L92.9545 121.982L92.1415 121.839L92.0227 122.273L92.8357 122.415L92.6577 123.066L93.1997 123.161L93.378 122.51L94.191 122.653L94.3098 122.219Z" fill="#E6E6E6"/>
<path d="M96.3281 176.715L95.5151 176.572L95.6931 175.922L95.1511 175.827L94.9728 176.477L94.1598 176.335L94.041 176.769L94.854 176.911L94.676 177.562L95.218 177.657L95.3963 177.006L96.2093 177.149L96.3281 176.715Z" fill="#E6E6E6"/>
<path d="M264.861 148.458L264.048 148.315L264.226 147.665L263.684 147.57L263.506 148.22L262.693 148.078L262.574 148.511L263.387 148.654L263.209 149.304L263.751 149.399L263.929 148.749L264.742 148.891L264.861 148.458Z" fill="#E6E6E6"/>
<path d="M313.807 113.759L312.994 113.616L313.172 112.966L312.63 112.871L312.452 113.521L311.639 113.379L311.52 113.812L312.333 113.955L312.155 114.605L312.697 114.7L312.876 114.05L313.689 114.192L313.807 113.759Z" fill="#E6E6E6"/>
<path d="M300.183 157.475L299.37 157.332L299.548 156.682L299.006 156.587L298.827 157.237L298.014 157.095L297.896 157.528L298.708 157.671L298.53 158.321L299.072 158.416L299.251 157.766L300.064 157.908L300.183 157.475Z" fill="#E6E6E6"/>
<path d="M269.907 92.887L269.094 92.7444L269.272 92.0938L268.73 91.9988L268.552 92.6493L267.739 92.5069L267.62 92.9405L268.433 93.0831L268.255 93.7334L268.797 93.8284L268.975 93.1779L269.788 93.3205L269.907 92.887Z" fill="#E6E6E6"/>
<path d="M241.394 130.475L240.581 130.333L240.759 129.682L240.217 129.587L240.039 130.237L239.226 130.095L239.107 130.529L239.92 130.671L239.742 131.322L240.284 131.417L240.462 130.766L241.275 130.909L241.394 130.475Z" fill="#E6E6E6"/>
<path d="M199.296 55.853L198.483 55.7103L198.661 55.0599L198.119 54.9649L197.941 55.6153L197.127 55.4729L197.009 55.9065L197.822 56.0491L197.644 56.6998L198.186 56.7946L198.364 56.1442L199.177 56.2866L199.296 55.853Z" fill="#E6E6E6"/>
<path d="M118.138 67.9632L117.326 67.8205L117.504 67.1702L116.962 67.0751L116.783 67.7255L115.97 67.5831L115.851 68.0167L116.665 68.1594L116.487 68.81L117.028 68.9048L117.207 68.2544L118.02 68.3968L118.138 67.9632Z" fill="#E6E6E6"/>
<path d="M66.884 62.9161L66.0711 62.7734L66.2491 62.123L65.7072 62.028L65.5289 62.6784L64.7157 62.536L64.5969 62.9696L65.4101 63.1123L65.2321 63.7629L65.774 63.8577L65.9523 63.2073L66.7652 63.3497L66.884 62.9161Z" fill="#E6E6E6"/>
<path d="M122.669 108.954L121.857 108.812L122.035 108.161L121.493 108.066L121.314 108.717L120.501 108.574L120.382 109.008L121.196 109.15L121.018 109.801L121.559 109.896L121.738 109.245L122.551 109.388L122.669 108.954Z" fill="#E6E6E6"/>
<path d="M124.688 163.45L123.875 163.307L124.053 162.657L123.511 162.562L123.333 163.212L122.519 163.07L122.401 163.503L123.214 163.646L123.036 164.297L123.578 164.391L123.756 163.741L124.569 163.884L124.688 163.45Z" fill="#E6E6E6"/>
<path d="M293.221 135.193L292.408 135.05L292.586 134.4L292.044 134.305L291.866 134.955L291.052 134.813L290.934 135.246L291.747 135.389L291.569 136.04L292.111 136.134L292.289 135.484L293.102 135.626L293.221 135.193Z" fill="#E6E6E6"/>
<path d="M341.662 100.881L340.849 100.738L341.027 100.087L340.485 99.9924L340.306 100.643L339.493 100.5L339.375 100.934L340.188 101.077L340.01 101.727L340.552 101.822L340.73 101.172L341.543 101.314L341.662 100.881Z" fill="#E6E6E6"/>
<path d="M364.267 76.4189L363.454 76.2762L363.632 75.6259L363.09 75.5308L362.912 76.1812L362.099 76.0388L361.98 76.4724L362.793 76.6151L362.615 77.2657L363.157 77.3605L363.335 76.7101L364.148 76.8525L364.267 76.4189Z" fill="#E6E6E6"/>
<path d="M143.507 255.806L142.694 255.663L142.872 255.013L142.331 254.918L142.152 255.568L141.339 255.426L141.22 255.86L142.033 256.002L141.855 256.653L142.397 256.748L142.576 256.097L143.389 256.24L143.507 255.806Z" fill="#E6E6E6"/>
<path d="M69.08 78.7318L68.2672 78.5892L68.4452 77.9388L67.9033 77.8438L67.7249 78.4941L66.9117 78.3517L66.793 78.7853L67.6062 78.928L67.4282 79.5786L67.9701 79.6734L68.1484 79.023L68.9613 79.1654L69.08 78.7318Z" fill="#E6E6E6"/>
<path d="M224.47 156.09L223.819 155.948L223.962 155.297L223.528 155.202L223.386 155.853L222.735 155.71L222.64 156.144L223.291 156.287L223.148 156.937L223.582 157.032L223.724 156.382L224.375 156.524L224.47 156.09Z" fill="#E6E6E6"/>
<path d="M272.498 221.958L271.685 221.815L271.863 221.165L271.321 221.07L271.143 221.72L270.329 221.578L270.211 222.011L271.024 222.154L270.846 222.805L271.388 222.9L271.566 222.249L272.379 222.392L272.498 221.958Z" fill="#E6E6E6"/>
<path d="M266.094 108.546C267.862 108.546 269.296 107.112 269.296 105.344C269.296 103.576 267.862 102.142 266.094 102.142C264.326 102.142 262.892 103.576 262.892 105.344C262.892 107.112 264.326 108.546 266.094 108.546Z" fill="#6C63FF"/>
<path d="M142.839 46.034C144.607 46.034 146.041 44.6004 146.041 42.8321C146.041 41.0637 144.607 39.6302 142.839 39.6302C141.07 39.6302 139.637 41.0637 139.637 42.8321C139.637 44.6004 141.07 46.034 142.839 46.034Z" fill="#6C63FF"/>
<path d="M154.6 207.043L209.422 228.334C209.502 228.366 209.589 228.376 209.674 228.364L245.094 223.082C245.199 223.068 245.297 223.019 245.372 222.944C245.447 222.868 245.496 222.771 245.511 222.665L252.633 175.478C252.65 175.363 252.626 175.245 252.565 175.146C252.505 175.047 252.412 174.971 252.303 174.933L251.938 174.809L198.043 156.756C198.019 156.747 197.993 156.741 197.968 156.737C197.926 156.73 197.883 156.727 197.841 156.731L164.671 159.889L162.039 160.137C161.931 160.149 161.83 160.196 161.751 160.27C161.672 160.345 161.619 160.444 161.601 160.552L154.291 206.501C154.274 206.613 154.294 206.728 154.351 206.827C154.407 206.926 154.495 207.002 154.6 207.043Z" fill="#B952FF"/>
<path d="M163.999 159.901L197.69 156.731C197.733 156.727 197.776 156.73 197.819 156.737C197.845 156.741 197.871 156.747 197.896 156.756L252.638 174.882L238.198 176.402L232.794 176.968L217.417 178.584C217.372 178.586 217.327 178.586 217.282 178.582C217.255 178.574 217.227 178.566 217.194 178.557L163.999 159.901Z" fill="#F3E1FF"/>
<path d="M151.988 209.148L207.645 230.532C207.907 230.633 208.179 230.704 208.457 230.744C208.86 230.81 209.271 230.815 209.676 230.759L245.635 225.454C246.484 225.331 247.27 224.939 247.878 224.337C248.486 223.734 248.882 222.953 249.01 222.109L256.235 174.715C256.342 174.016 256.261 173.301 256.001 172.644C255.965 172.556 255.928 172.469 255.885 172.387C255.599 171.786 255.162 171.269 254.618 170.884C254.29 170.65 253.929 170.466 253.546 170.34L253.481 170.317L198.466 152.077C198.241 152.006 198.012 151.951 197.779 151.911C197.461 151.866 197.139 151.86 196.819 151.893L183.015 153.188L175.094 153.94L160.473 155.314C159.875 155.37 159.297 155.56 158.783 155.87C158.744 155.889 158.706 155.912 158.67 155.938C158.644 155.954 158.62 155.972 158.597 155.992C158.149 156.297 157.767 156.689 157.476 157.146C157.185 157.602 156.99 158.113 156.903 158.646L149.476 204.801C149.335 205.702 149.508 206.624 149.965 207.414C150.421 208.204 151.135 208.816 151.988 209.148V209.148ZM157.888 158.807C157.979 158.254 158.225 157.738 158.599 157.319C158.712 157.184 158.839 157.061 158.977 156.952C159.355 156.648 159.801 156.441 160.278 156.348C160.372 156.329 160.467 156.315 160.563 156.308L185.181 153.993L196.916 152.881C196.995 152.872 197.068 152.873 197.142 152.869C197.319 152.866 197.497 152.879 197.672 152.909C197.833 152.929 197.992 152.967 198.145 153.021L253.225 171.283C253.268 171.298 253.306 171.313 253.35 171.328C253.851 171.514 254.291 171.833 254.622 172.25C254.884 172.569 255.075 172.94 255.183 173.338C255.291 173.736 255.314 174.152 255.249 174.559L248.018 221.959C247.923 222.591 247.626 223.176 247.172 223.627C246.717 224.079 246.129 224.373 245.494 224.466L209.529 229.771C209.014 229.845 208.49 229.785 208.005 229.598L152.347 208.22C151.709 207.969 151.175 207.511 150.834 206.919C150.492 206.327 150.363 205.637 150.467 204.963L157.888 158.807Z" fill="#F3E1FF"/>
<path d="M159.169 157.07C159.198 156.983 159.25 156.907 159.319 156.849C159.342 156.83 159.366 156.813 159.391 156.798C159.415 156.789 159.439 156.774 159.462 156.765C159.574 156.719 159.699 156.717 159.812 156.759L160.972 157.176L217.652 177.557L230.917 176.129L238.34 175.33L254.052 173.635L255.456 173.485L255.73 173.454C255.847 173.443 255.965 173.474 256.063 173.542C256.16 173.611 256.231 173.711 256.263 173.827C256.271 173.854 256.276 173.881 256.278 173.909C256.29 174.019 256.266 174.13 256.21 174.225C256.155 174.32 256.07 174.394 255.97 174.436C255.925 174.455 255.879 174.468 255.831 174.474L253.92 174.678L238.448 176.345L233.038 176.926L217.645 178.584C217.6 178.586 217.555 178.586 217.51 178.582C217.483 178.574 217.456 178.566 217.423 178.557L159.67 157.796L159.474 157.725C159.429 157.71 159.387 157.686 159.351 157.655C159.263 157.59 159.198 157.498 159.166 157.393C159.133 157.287 159.134 157.174 159.169 157.07Z" fill="#F3E1FF"/>
<path d="M209.509 231.117C209.389 231.097 209.282 231.027 209.211 230.923C209.14 230.819 209.11 230.689 209.128 230.561L216.569 177.815C216.587 177.686 216.652 177.571 216.75 177.494C216.848 177.417 216.97 177.385 217.09 177.404L217.094 177.405C217.214 177.425 217.32 177.495 217.392 177.599C217.463 177.703 217.493 177.833 217.475 177.961L210.034 230.707C210.016 230.835 209.951 230.951 209.853 231.028C209.755 231.105 209.633 231.137 209.513 231.118L209.509 231.117Z" fill="#F3E1FF"/>
<path d="M229.967 227.809L224.711 228.369L230.859 175.833C230.859 175.833 237.879 174.55 238.066 175.064C238.182 175.372 230.017 227.472 229.967 227.809Z" fill="#F3E1FF"/>
<path d="M159.287 156.729L159.142 181.383L202.025 198.013L217.425 176.96L159.287 156.729Z" fill="#F3E1FF"/>
<path d="M255.447 171.917C255.089 171.475 254.606 171.146 254.06 170.97L199.377 153.089C199.224 153.039 199.066 153.001 198.906 152.977C198.732 152.947 198.555 152.934 198.378 152.938L198.467 152.394L199.014 152.005L211.999 142.776L255.365 155.822L255.44 170.579L255.447 171.917Z" fill="#F3E1FF"/>
<path d="M158.339 120.316L158.86 122.46L153.887 123.668L153.367 121.523L158.339 120.316ZM154.154 121.332L156.647 131.6L153.914 132.263L151.421 121.995L154.154 121.332ZM160.332 119.832L162.825 130.1L160.083 130.766L157.59 120.498L160.332 119.832ZM167.697 127.691L168.209 117.919L171.141 117.207L169.882 130.024C169.856 130.305 169.804 130.613 169.724 130.947C169.651 131.28 169.52 131.609 169.331 131.937C169.151 132.269 168.891 132.566 168.553 132.829C168.221 133.091 167.783 133.287 167.239 133.419C166.98 133.482 166.764 133.518 166.592 133.526C166.42 133.535 166.213 133.538 165.971 133.536L165.485 131.534C165.555 131.517 165.627 131.499 165.703 131.481C165.781 131.469 165.854 131.454 165.924 131.438C166.285 131.35 166.569 131.237 166.776 131.1C166.984 130.962 167.137 130.791 167.235 130.587C167.334 130.388 167.392 130.146 167.41 129.861L167.697 127.691ZM164.346 118.857L168.383 125.755L169.475 128.555L167.663 129.206L161.414 119.569L164.346 118.857ZM178.362 124.267C178.698 124.185 178.98 124.05 179.208 123.86C179.435 123.665 179.593 123.432 179.682 123.162C179.776 122.885 179.786 122.584 179.714 122.26L182.286 121.636C182.455 122.359 182.418 123.048 182.175 123.703C181.93 124.352 181.528 124.915 180.967 125.393C180.405 125.864 179.729 126.196 178.938 126.388C178.141 126.582 177.412 126.618 176.753 126.497C176.1 126.374 175.521 126.126 175.015 125.753C174.508 125.374 174.08 124.895 173.732 124.316C173.382 123.731 173.119 123.078 172.944 122.357L172.877 122.081C172.701 121.354 172.634 120.653 172.678 119.979C172.721 119.299 172.881 118.677 173.16 118.114C173.437 117.544 173.837 117.055 174.361 116.646C174.885 116.237 175.543 115.937 176.333 115.745C177.175 115.541 177.951 115.523 178.662 115.692C179.379 115.86 179.991 116.2 180.498 116.714C181.009 117.219 181.367 117.879 181.572 118.694L179 119.318C178.911 118.978 178.763 118.686 178.556 118.441C178.355 118.195 178.105 118.021 177.806 117.92C177.512 117.811 177.178 117.801 176.804 117.892C176.406 117.989 176.101 118.153 175.889 118.385C175.676 118.611 175.535 118.887 175.467 119.212C175.397 119.53 175.378 119.88 175.41 120.26C175.447 120.633 175.514 121.019 175.61 121.418L175.677 121.693C175.774 122.091 175.892 122.468 176.032 122.823C176.172 123.177 176.346 123.48 176.554 123.731C176.769 123.98 177.023 124.157 177.316 124.26C177.609 124.363 177.957 124.365 178.362 124.267ZM187.464 113.243L189.957 123.511L187.214 124.177L184.721 113.909L187.464 113.243ZM190.766 112.442L191.28 114.558L181.98 116.816L181.466 114.7L190.766 112.442ZM192.674 117.526L192.625 117.326C192.443 116.573 192.382 115.855 192.443 115.17C192.503 114.478 192.682 113.849 192.98 113.281C193.277 112.713 193.695 112.226 194.233 111.821C194.77 111.409 195.427 111.109 196.205 110.92C196.983 110.731 197.708 110.696 198.38 110.814C199.051 110.926 199.648 111.166 200.173 111.534C200.704 111.901 201.155 112.378 201.525 112.964C201.894 113.545 202.17 114.211 202.353 114.964L202.401 115.164C202.582 115.91 202.643 116.629 202.583 117.32C202.522 118.005 202.34 118.636 202.037 119.211C201.74 119.779 201.322 120.266 200.784 120.671C200.246 121.077 199.588 121.374 198.81 121.563C198.031 121.752 197.307 121.79 196.637 121.678C195.973 121.565 195.375 121.325 194.844 120.958C194.317 120.583 193.87 120.106 193.501 119.526C193.131 118.939 192.855 118.272 192.674 117.526ZM195.359 116.663L195.407 116.862C195.511 117.292 195.647 117.685 195.813 118.039C195.98 118.394 196.18 118.694 196.414 118.939C196.652 119.176 196.927 119.34 197.237 119.432C197.547 119.524 197.899 119.523 198.291 119.428C198.671 119.335 198.977 119.177 199.211 118.953C199.445 118.729 199.61 118.458 199.707 118.139C199.802 117.815 199.842 117.456 199.828 117.065C199.819 116.671 199.763 116.26 199.658 115.83L199.61 115.63C199.509 115.213 199.372 114.83 199.201 114.483C199.034 114.129 198.831 113.83 198.591 113.586C198.356 113.335 198.082 113.161 197.77 113.062C197.458 112.964 197.11 112.961 196.724 113.055C196.338 113.149 196.029 113.311 195.797 113.541C195.571 113.77 195.408 114.051 195.308 114.384C195.212 114.708 195.172 115.067 195.187 115.458C195.2 115.844 195.257 116.245 195.359 116.663Z" fill="white"/>
<defs>
<linearGradient id="paint0_linear_1911_7906" x1="210.29" y1="265.439" x2="236.363" y2="265.439" gradientUnits="userSpaceOnUse">
<stop stop-color="white"/>
<stop offset="1" stop-color="white" stop-opacity="0.3"/>
</linearGradient>
<linearGradient id="paint1_linear_1911_7906" x1="135.863" y1="88.3643" x2="161.935" y2="88.3643" gradientUnits="userSpaceOnUse">
<stop stop-color="white"/>
<stop offset="1" stop-color="white" stop-opacity="0.3"/>
</linearGradient>
</defs>
</svg>
