<svg width="247" height="220" viewBox="0 0 247 220" fill="none" xmlns="http://www.w3.org/2000/svg">
<path d="M28.2995 220L28.0848 219.92C24.4913 218.563 21.2361 216.439 18.5453 213.696C15.8546 210.952 13.793 207.655 12.5037 204.033C11.7966 201.996 11.3486 199.878 11.1703 197.728L11.1527 197.523L11.3551 197.559C13.7705 197.993 16.3062 198.233 17.4359 198.327L11.0977 194.128L11.1091 193.91C11.1573 192.908 11.5042 191.944 12.1049 191.141C12.7056 190.338 13.5327 189.734 14.4796 189.406C15.4355 189.052 16.4752 188.994 17.4648 189.237C18.4544 189.48 19.3485 190.015 20.0319 190.772C20.662 191.456 21.3282 192.146 21.9724 192.812C24.1861 195.103 26.4753 197.471 27.9228 200.267C28.9976 202.394 29.5843 204.735 29.6399 207.118C29.6956 209.501 29.2188 211.867 28.2443 214.042L28.2995 220Z" fill="#2EC32E"/>
<path d="M156.546 215.931L156.543 215.909C156.263 209.681 155.122 203.522 153.152 197.608L153.15 197.599C153.035 196.991 153.068 196.365 153.247 195.773C153.513 194.953 154.065 194.255 154.801 193.807C155.538 193.359 156.41 193.19 157.261 193.332C159.076 193.673 160.953 193.352 162.552 192.427C163.053 192.136 163.614 191.965 164.192 191.927C164.77 191.888 165.349 191.984 165.884 192.206C166.388 192.412 166.837 192.733 167.195 193.144C167.553 193.554 167.81 194.043 167.946 194.571C167.967 194.655 167.986 194.74 168.002 194.827C168.06 201.084 169.208 207.283 171.395 213.145L171.396 213.152C171.509 213.749 171.479 214.364 171.308 214.947C171.137 215.529 170.831 216.063 170.414 216.505C170.046 216.88 169.598 217.168 169.105 217.35C168.612 217.531 168.084 217.601 167.56 217.555C165.657 217.425 163.7 217.811 161.576 218.737C160.835 219.067 160.001 219.126 159.22 218.902C158.543 218.704 157.935 218.321 157.463 217.796C156.99 217.272 156.673 216.626 156.546 215.931Z" fill="#62268B"/>
<path d="M95.7061 130.383V212.164H152.935V130.383C152.936 129.794 152.749 129.222 152.401 128.748C152.052 128.274 151.561 127.925 151 127.751C150.735 127.664 150.458 127.621 150.18 127.624H98.4699C98.1074 127.623 97.7484 127.694 97.4133 127.832C97.0781 127.97 96.7735 128.174 96.5168 128.43C96.2602 128.686 96.0564 128.99 95.9173 129.325C95.7782 129.661 95.7064 130.02 95.7061 130.383V130.383ZM118.04 158.483C118.055 156.871 118.705 155.329 119.849 154.195C120.993 153.06 122.539 152.423 124.15 152.423C125.76 152.423 127.306 153.06 128.45 154.195C129.594 155.329 130.244 156.871 130.259 158.483V167.972C130.251 169.589 129.604 171.137 128.459 172.278C127.314 173.419 125.765 174.059 124.15 174.059C122.534 174.059 120.985 173.419 119.84 172.278C118.695 171.137 118.048 169.589 118.04 167.972V158.483Z" fill="#F2F2F2"/>
<path d="M95.5303 209.548V217.435C95.5316 217.843 95.6937 218.235 95.9815 218.524C96.2693 218.814 96.6595 218.978 97.0675 218.982H151.573C151.981 218.98 152.372 218.816 152.66 218.526C152.949 218.236 153.11 217.844 153.11 217.435V209.548H95.5303Z" fill="#E6E6E6"/>
<path d="M5.67578 7.16866V156.489C5.67729 158.392 6.43303 160.217 7.77708 161.562C9.12113 162.908 10.9436 163.665 12.8444 163.666H233.877C235.777 163.665 237.6 162.908 238.944 161.562C240.288 160.217 241.044 158.392 241.045 156.489V7.16866C241.041 5.26743 240.284 3.44547 238.94 2.10184C237.596 0.758205 235.776 0.00241336 233.877 0H12.8444C10.9453 0.00242203 9.12451 0.758214 7.78089 2.10185C6.43727 3.44548 5.6803 5.26743 5.67578 7.16866Z" fill="#E6E6E6"/>
<path d="M232.033 5.18311H14.6886C13.6718 5.18532 12.6974 5.59123 11.9792 6.31177C11.2609 7.03231 10.8575 8.00864 10.8574 9.02658V154.648C10.8592 155.664 11.2634 156.639 11.9815 157.358C12.6996 158.077 13.6731 158.481 14.6886 158.483H232.033C233.049 158.481 234.022 158.077 234.74 157.358C235.458 156.639 235.862 155.664 235.864 154.648V9.02657C235.864 8.00864 235.461 7.0323 234.742 6.31176C234.024 5.59122 233.05 5.18532 232.033 5.18311V5.18311ZM177.207 108.64C176.889 109.27 176.401 109.799 175.8 110.168C175.199 110.538 174.507 110.732 173.801 110.73L173.779 110.729C171.695 110.438 169.604 110.247 167.505 110.154C167.831 110.388 168.117 110.671 168.354 110.995C168.655 111.427 168.857 111.92 168.945 112.438C169.034 112.957 169.006 113.489 168.865 113.996C168.39 115.846 168.412 117.843 168.934 120.102C169.123 120.892 169.029 121.724 168.667 122.451C168.348 123.081 167.861 123.61 167.26 123.979C166.659 124.349 165.967 124.543 165.261 124.541L165.238 124.54C160.263 123.846 155.225 123.712 150.219 124.139C150.199 124.266 150.175 124.392 150.142 124.519C149.667 126.368 149.69 128.366 150.211 130.625C150.401 131.415 150.306 132.247 149.944 132.974C149.626 133.604 149.139 134.133 148.537 134.502C147.936 134.871 147.244 135.066 146.539 135.064L146.516 135.062C141.406 134.35 136.23 134.228 131.092 134.699C131.053 135.983 131.187 137.267 131.489 138.517C131.678 139.307 131.583 140.139 131.221 140.866C130.903 141.496 130.416 142.025 129.814 142.394C129.213 142.763 128.521 142.958 127.816 142.956L127.793 142.955C121.626 142.094 115.369 142.094 109.201 142.955H109.191C108.574 142.957 107.965 142.81 107.416 142.526C106.659 142.114 106.074 141.444 105.769 140.637C105.463 139.831 105.456 138.941 105.75 138.13C105.937 137.602 106.075 137.059 106.164 136.506C100.512 135.854 94.7999 135.921 89.1646 136.707H89.1546C88.5372 136.709 87.9283 136.562 87.3798 136.278C86.6225 135.866 86.0378 135.196 85.7321 134.389C85.4264 133.583 85.4199 132.693 85.7137 131.882C86.3801 130.158 86.4074 128.252 85.7907 126.509C85.5001 125.692 85.5 124.8 85.7905 123.982C81.5422 123.766 77.2828 123.952 73.0696 124.54H73.0597C72.4422 124.542 71.8333 124.395 71.2848 124.111C70.5275 123.699 69.9429 123.029 69.6371 122.223C69.3314 121.416 69.3249 120.526 69.6188 119.715C70.2852 117.991 70.3125 116.085 69.6958 114.342C69.5014 113.796 69.4356 113.212 69.5034 112.636C69.5712 112.061 69.7709 111.508 70.0868 111.022C70.3808 110.564 70.778 110.18 71.2466 109.902C71.7152 109.625 72.2422 109.461 72.7854 109.424C72.872 109.418 72.959 109.415 73.0468 109.415C75.2054 109.793 77.3849 110.039 79.5733 110.153C78.8951 109.707 78.3867 109.045 78.1302 108.274C77.8736 107.503 77.8837 106.668 78.159 105.904C78.8254 104.18 78.8527 102.274 78.2359 100.531C78.0416 99.985 77.9758 99.4013 78.0436 98.8254C78.1114 98.2496 78.311 97.6972 78.627 97.2112C78.6547 97.1688 78.6869 97.1311 78.7161 97.0902C77.1588 97.1977 75.6051 97.3595 74.055 97.5754H74.0451C73.4276 97.5777 72.8187 97.4307 72.2703 97.1467C71.5129 96.7349 70.9283 96.0648 70.6225 95.2582C70.3168 94.4515 70.3103 93.5618 70.6042 92.7508C71.2706 91.0266 71.2979 89.1204 70.6812 87.3778C70.4868 86.8316 70.421 86.2479 70.4888 85.6721C70.5566 85.0962 70.7563 84.5438 71.0722 84.0579C71.3662 83.5991 71.7634 83.2156 72.232 82.9381C72.7006 82.6605 73.2276 82.4966 73.7708 82.4595C73.8574 82.4537 73.9444 82.4506 74.0322 82.4506C76.6278 82.9055 79.2531 83.1701 81.8872 83.2423C81.5559 82.7643 81.343 82.2144 81.2658 81.6378C81.1887 81.0612 81.2497 80.4746 81.4436 79.9262C82.11 78.2021 82.1374 76.2959 81.5206 74.5533C81.3263 74.0071 81.2605 73.4234 81.3283 72.8475C81.3961 72.2717 81.5957 71.7193 81.9116 71.2333C82.2057 70.7746 82.6029 70.3911 83.0715 70.1135C83.5401 69.836 84.0671 69.6721 84.6103 69.6349C84.6969 69.6291 84.7838 69.6261 84.8717 69.6261C87.0682 70.0106 89.2863 70.2592 91.5134 70.3705C91.2767 69.9218 91.1354 69.4291 91.0982 68.9231C91.0611 68.4171 91.129 67.9089 91.2977 67.4305C91.9641 65.7064 91.9914 63.8002 91.3747 62.0576C91.1804 61.5114 91.1145 60.9277 91.1824 60.3518C91.2502 59.776 91.4498 59.2236 91.7657 58.7376C92.0598 58.2789 92.457 57.8954 92.9256 57.6178C93.3942 57.3403 93.9212 57.1764 94.4644 57.1392C94.551 57.1334 94.6379 57.1304 94.7258 57.1304C97.3103 57.5833 99.9244 57.8475 102.547 57.9209C102.19 57.0763 102.161 56.1286 102.466 55.2637C103.132 53.5395 103.159 51.6333 102.543 49.8907C102.348 49.3445 102.282 48.7608 102.35 48.185C102.418 47.6091 102.618 47.0567 102.934 46.5708C103.228 46.112 103.625 45.7285 104.094 45.451C104.562 45.1734 105.089 45.0095 105.632 44.9723C105.719 44.9666 105.806 44.9635 105.894 44.9635C112.049 46.0482 118.347 46.049 124.503 44.9659H124.511C124.986 45.0639 125.476 45.0639 125.951 44.9659H125.959C132.114 46.049 138.412 46.0482 144.568 44.9635C144.656 44.9635 144.743 44.9666 144.829 44.9723C145.372 45.0095 145.899 45.1734 146.368 45.451C146.837 45.7285 147.234 46.112 147.528 46.5708C147.844 47.0567 148.043 47.6091 148.111 48.185C148.179 48.7608 148.113 49.3445 147.919 49.8907C147.302 51.6333 147.329 53.5395 147.996 55.2637C148.3 56.1286 148.271 57.0763 147.914 57.9209C150.537 57.8475 153.151 57.5833 155.736 57.1304C155.824 57.1304 155.91 57.1334 155.997 57.1392C156.54 57.1764 157.067 57.3403 157.536 57.6178C158.004 57.8954 158.402 58.2789 158.696 58.7376C159.012 59.2236 159.211 59.776 159.279 60.3518C159.347 60.9277 159.281 61.5114 159.087 62.0576C158.47 63.8002 158.497 65.7063 159.164 67.4305C159.332 67.9089 159.4 68.4171 159.363 68.9231C159.326 69.4291 159.185 69.9218 158.948 70.3705C161.175 70.2592 163.393 70.0106 165.59 69.6261C165.678 69.6261 165.765 69.6291 165.851 69.6349C166.394 69.6721 166.921 69.836 167.39 70.1135C167.859 70.3911 168.256 70.7746 168.55 71.2333C168.866 71.7193 169.065 72.2717 169.133 72.8475C169.201 73.4234 169.135 74.0071 168.941 74.5533C168.324 76.2959 168.351 78.2021 169.018 79.9262C169.212 80.4759 169.273 81.0641 169.195 81.642C169.117 82.22 168.903 82.7709 168.57 83.2493C168.863 83.471 169.122 83.7342 169.34 84.0307C169.641 84.4623 169.843 84.9551 169.931 85.4739C170.019 85.9927 169.991 86.5246 169.85 87.0315C169.375 88.8812 169.398 90.8784 169.919 93.1374C170.109 93.9277 170.014 94.7595 169.652 95.4869C169.52 95.7459 169.359 95.9891 169.172 96.2118C170.709 96.0766 172.243 95.8748 173.773 95.6064H173.781C174.388 95.6043 174.986 95.7461 175.527 96.0204C176.069 96.2946 176.537 96.6934 176.895 97.1841C177.196 97.6156 177.397 98.1085 177.486 98.6273C177.574 99.1461 177.546 99.678 177.405 100.185C176.93 102.035 176.953 104.032 177.474 106.291C177.663 107.081 177.569 107.913 177.207 108.64V108.64Z" fill="white"/>
<path d="M224.983 25.2431H21.6153C21.4039 25.2384 21.2027 25.1511 21.0549 24.9997C20.907 24.8484 20.8242 24.6451 20.8242 24.4334C20.8242 24.2218 20.907 24.0185 21.0549 23.8672C21.2027 23.7158 21.4039 23.6285 21.6153 23.6238H224.983C225.195 23.6285 225.396 23.7158 225.544 23.8672C225.692 24.0185 225.775 24.2218 225.775 24.4334C225.775 24.6451 225.692 24.8484 225.544 24.9997C225.396 25.1511 225.195 25.2384 224.983 25.2431V25.2431Z" fill="#E6E6E6"/>
<path d="M35.4583 19.4899C38.0759 19.4899 40.1979 17.3182 40.1979 14.6393C40.1979 11.9604 38.0759 9.78873 35.4583 9.78873C32.8407 9.78873 30.7188 11.9604 30.7188 14.6393C30.7188 17.3182 32.8407 19.4899 35.4583 19.4899Z" fill="#35164A"/>
<path d="M51.8314 19.4899C54.449 19.4899 56.571 17.3182 56.571 14.6393C56.571 11.9604 54.449 9.78873 51.8314 9.78873C49.2138 9.78873 47.0918 11.9604 47.0918 14.6393C47.0918 17.3182 49.2138 19.4899 51.8314 19.4899Z" fill="#35164A"/>
<path d="M68.2054 19.4899C70.823 19.4899 72.945 17.3182 72.945 14.6393C72.945 11.9604 70.823 9.78873 68.2054 9.78873C65.5878 9.78873 63.4658 11.9604 63.4658 14.6393C63.4658 17.3182 65.5878 19.4899 68.2054 19.4899Z" fill="#35164A"/>
<path d="M215.124 10.9881H203.495C203.265 10.9934 203.046 11.0885 202.886 11.2532C202.725 11.4179 202.635 11.639 202.635 11.8693C202.635 12.0995 202.725 12.3207 202.886 12.4853C203.046 12.65 203.265 12.7451 203.495 12.7504H215.124C215.355 12.7472 215.576 12.653 215.739 12.4881C215.901 12.3232 215.992 12.1009 215.992 11.8693C215.992 11.6376 215.901 11.4153 215.739 11.2504C215.576 11.0855 215.355 10.9913 215.124 10.9881H215.124Z" fill="#B5B1B8"/>
<path d="M215.123 14.2975H203.494C203.264 14.3027 203.045 14.3978 202.885 14.5625C202.724 14.7271 202.634 14.9483 202.634 15.1786C202.634 15.4088 202.724 15.63 202.885 15.7947C203.045 15.9593 203.264 16.0544 203.494 16.0597H215.123C215.355 16.0566 215.575 15.9624 215.738 15.7975C215.901 15.6326 215.992 15.4102 215.992 15.1786C215.992 14.9469 215.901 14.7246 215.738 14.5597C215.575 14.3948 215.355 14.3006 215.123 14.2975H215.123Z" fill="#B5B1B8"/>
<path d="M215.124 17.6066H203.495C203.265 17.6118 203.046 17.707 202.886 17.8716C202.725 18.0363 202.635 18.2574 202.635 18.4877C202.635 18.718 202.725 18.9391 202.886 19.1038C203.046 19.2684 203.265 19.3636 203.495 19.3688H215.124C215.355 19.3657 215.576 19.2714 215.739 19.1065C215.901 18.9416 215.992 18.7193 215.992 18.4877C215.992 18.2561 215.901 18.0338 215.739 17.8689C215.576 17.704 215.355 17.6097 215.124 17.6066H215.124Z" fill="#B5B1B8"/>
<path d="M125.756 139.077L125.733 139.076C119.566 138.215 113.309 138.215 107.141 139.076H107.131C106.514 139.078 105.905 138.931 105.356 138.647C104.599 138.235 104.014 137.565 103.709 136.758C103.403 135.952 103.396 135.062 103.69 134.251C104.357 132.527 104.384 130.621 103.767 128.878C103.573 128.332 103.507 127.748 103.575 127.172C103.643 126.596 103.842 126.044 104.158 125.558C104.452 125.099 104.85 124.716 105.318 124.438C105.787 124.161 106.314 123.997 106.857 123.96C106.944 123.954 107.031 123.951 107.118 123.951C113.274 125.035 119.572 125.036 125.728 123.953H125.735C126.342 123.951 126.94 124.093 127.482 124.367C128.023 124.641 128.492 125.04 128.849 125.531C129.15 125.962 129.352 126.455 129.44 126.974C129.528 127.493 129.501 128.025 129.359 128.532C128.885 130.381 128.907 132.379 129.429 134.638C129.618 135.428 129.523 136.26 129.161 136.987C128.843 137.617 128.356 138.146 127.754 138.515C127.153 138.884 126.461 139.079 125.756 139.077Z" fill="#62268B"/>
<path d="M144.723 106.836L139.761 102.725C136.04 104.678 130.379 112.473 130.379 112.473L117.317 121.877C116.819 121.901 116.335 122.056 115.915 122.326C115.494 122.597 115.153 122.973 114.924 123.418C114.696 123.862 114.588 124.36 114.613 124.859C114.637 125.358 114.792 125.843 115.063 126.263C115.334 126.683 115.71 127.025 116.155 127.253C116.599 127.481 117.096 127.588 117.595 127.563C118.094 127.538 118.577 127.382 118.997 127.111C119.416 126.839 119.757 126.462 119.984 126.016L137.731 116.628L144.723 106.836Z" fill="#FFB8B8"/>
<path d="M153.093 91.1913C153.855 91.8373 154.466 92.6436 154.881 93.5526C155.297 94.4616 155.507 95.4512 155.497 96.4507C155.487 97.4503 155.257 98.4354 154.823 99.3359C154.39 100.236 153.763 101.03 152.988 101.661L149.833 104.229C149.833 104.229 141.963 115.571 137.866 116.887L127.349 122.388L122.606 117.628L132.138 109.851C132.138 109.851 136.522 105.7 136.961 102.661C137.23 100.8 140.376 95.7302 143.53 91.9701C144.106 91.2895 144.811 90.7294 145.604 90.3218C146.397 89.9143 147.262 89.6672 148.15 89.5949C149.039 89.5225 149.932 89.6263 150.781 89.9002C151.629 90.1742 152.415 90.6129 153.093 91.1913V91.1913Z" fill="#3F3D56"/>
<path d="M142.897 214.292L138.415 214.292L136.282 196.982L142.898 196.982L142.897 214.292Z" fill="#FFB6B6"/>
<path d="M143.054 218.974L129.27 218.973V218.798C129.27 217.374 129.835 216.008 130.841 215C131.847 213.993 133.212 213.427 134.635 213.427H134.635L137.153 211.515L141.851 213.427L143.055 213.428L143.054 218.974Z" fill="#2F2E41"/>
<path d="M177.052 190.672L174.929 194.624L158.69 188.308L161.824 182.474L177.052 190.672Z" fill="#FFB6B6"/>
<path d="M181.245 192.749L174.717 204.904L174.564 204.821C173.311 204.147 172.376 203.001 171.967 201.637C171.557 200.273 171.705 198.802 172.379 197.547L172.379 197.547L171.889 194.421L175.796 191.184L176.366 190.123L181.245 192.749Z" fill="#2F2E41"/>
<path d="M134.421 135.023L130.465 166.709L132.443 177.332L168.051 192.949L170.029 186.513C160.927 180.937 151.197 172.499 145.067 171.879C145.067 171.879 144.558 166.256 148.95 162.785C149.836 162.085 149.642 161.138 150.001 160.279C150.247 159.689 151.228 159.074 151.479 158.468C151.804 157.683 151.401 156.903 151.729 156.105C151.912 155.657 152.61 155.629 152.793 155.18C153.104 154.414 152.9 153.228 153.204 152.472C153.853 150.855 154.477 149.275 155.047 147.793C156.821 143.18 158.07 139.525 157.912 138.736C157.418 136.26 134.421 135.023 134.421 135.023Z" fill="#2F2E41"/>
<path d="M133.741 166.617L131.671 179.999L136.895 207.307H143.819C146.306 198.131 146.434 186.072 144.066 175.868L133.741 166.617Z" fill="#2F2E41"/>
<path d="M138.189 96.3084L141.381 90.7406L144.807 87.9884L151.237 86.9982L153.023 88.3731C159.451 98.2086 161.848 110.145 159.716 121.703L159.215 124.424L158.896 126.151L159.034 128.215L157.961 131.221L158.109 133.421L158.188 134.597L158.267 135.776L158.377 137.423C158.575 138.362 157.579 138.238 157.72 139.067C157.967 140.521 159.076 142.677 157.392 142.684L139.983 139.067C135.56 139.085 131.443 133.805 135.713 129.531L138.189 96.3084Z" fill="#3F3D56"/>
<path d="M146.337 85.4471C151.006 85.4471 154.791 81.658 154.791 76.984C154.791 72.31 151.006 68.521 146.337 68.521C141.669 68.521 137.884 72.31 137.884 76.984C137.884 81.658 141.669 85.4471 146.337 85.4471Z" fill="#FFB8B8"/>
<path d="M146.481 85.2066C147.717 85.2259 148.954 85.1394 150.176 84.9481C151.387 84.7015 154.098 82.7132 154.853 81.5168C155.414 80.6278 155.773 79.2397 155.976 78.2318C156.248 76.898 156.238 75.5218 155.945 74.1923C155.653 72.8628 155.084 71.6096 154.277 70.5139C153.967 70.0556 153.539 69.6898 153.038 69.4551C152.994 69.4377 152.948 69.4223 152.902 69.4092C152.172 69.2169 151.516 68.8107 151.019 68.2427C150.922 68.1278 150.818 68.02 150.706 67.9201C150.144 67.4451 149.477 67.11 148.76 66.9422C147.604 66.6324 145.93 66.94 143.786 67.8573C142.709 68.3181 141.531 68.1514 140.625 67.9545C140.574 67.9447 140.521 67.9484 140.472 67.9652C140.423 67.982 140.38 68.0113 140.345 68.0503C139.96 68.4127 139.451 68.6156 138.923 68.6181C138.599 68.6323 138.259 69.0814 137.848 69.6669C137.755 69.7999 137.646 69.955 137.568 70.0493L137.557 69.8681L137.374 70.0703C137.086 70.3881 136.883 70.7738 136.784 71.1913C136.685 71.6088 136.693 72.0447 136.807 72.4582C136.922 72.8718 137.139 73.2497 137.438 73.5566C137.738 73.8635 138.11 74.0895 138.521 74.2136C138.847 74.3004 139.18 74.3537 139.517 74.3726C139.721 74.391 139.932 74.4099 140.134 74.4451C140.783 74.5781 141.386 74.8772 141.885 75.3133C142.384 75.7494 142.761 76.3075 142.98 76.9332C143.032 77.0778 143.116 77.2086 143.227 77.3154C143.337 77.4223 143.47 77.5023 143.616 77.5494C143.762 77.5964 143.917 77.6092 144.069 77.5868C144.221 77.5644 144.366 77.5073 144.492 77.42C144.703 77.2559 144.95 77.1451 145.212 77.0973C145.475 77.0494 145.745 77.0658 146 77.1451C146.22 77.2677 146.392 77.4624 146.485 77.6965C146.6 77.9574 146.789 78.1783 147.029 78.3311C147.85 78.7548 147.906 80.632 147.611 82.1969C147.327 83.7052 146.765 84.7964 146.245 84.8504C145.845 84.8919 145.799 84.9203 145.77 84.9912L145.744 85.0547L145.789 85.1141C146.01 85.1943 146.246 85.2259 146.481 85.2066Z" fill="#2F2E41"/>
<path d="M129.368 80.2158L129.345 80.2142C123.178 79.3539 116.921 79.3539 110.754 80.2142H110.744C110.126 80.2166 109.517 80.0695 108.969 79.7855C108.211 79.3738 107.627 78.7037 107.321 77.897C107.015 77.0904 107.009 76.2007 107.303 75.3896C107.969 73.6654 107.996 71.7593 107.38 70.0167C107.185 69.4705 107.119 68.8867 107.187 68.3109C107.255 67.7351 107.455 67.1827 107.771 66.6967C108.065 66.2379 108.462 65.8544 108.931 65.5769C109.399 65.2993 109.926 65.1354 110.469 65.0983C110.556 65.0925 110.643 65.0894 110.731 65.0894C116.886 66.1741 123.184 66.1749 129.34 65.0919H129.348C129.954 65.0897 130.553 65.2316 131.094 65.5058C131.635 65.7801 132.104 66.1789 132.461 66.6696C132.762 67.1011 132.964 67.5939 133.052 68.1127C133.14 68.6315 133.113 69.1634 132.972 69.6703C132.497 71.52 132.519 73.5173 133.041 75.7762C133.23 76.5665 133.136 77.3983 132.774 78.1258C132.455 78.7558 131.968 79.2849 131.367 79.6539C130.765 80.023 130.073 80.2175 129.368 80.2158V80.2158Z" fill="#62268B"/>
<path d="M137.275 100.148L140.773 94.7349C138.401 91.2636 130.007 86.5454 130.007 86.5454L119.151 74.6582C119.069 74.1649 118.859 73.7019 118.542 73.3158C118.224 72.9298 117.811 72.6342 117.343 72.459C116.875 72.2837 116.369 72.2349 115.877 72.3175C115.384 72.4001 114.922 72.6111 114.537 72.9294C114.151 73.2477 113.857 73.6619 113.682 74.1305C113.508 74.599 113.459 75.1053 113.543 75.5984C113.626 76.0915 113.837 76.554 114.155 76.9393C114.474 77.3246 114.888 77.6192 115.356 77.7933L126.743 94.3406L137.275 100.148Z" fill="#FFB8B8"/>
<path d="M153.773 106.643C153.221 107.476 152.492 108.177 151.639 108.696C150.786 109.216 149.829 109.54 148.836 109.647C147.843 109.754 146.839 109.64 145.895 109.315C144.951 108.989 144.09 108.459 143.374 107.762L140.458 104.925C140.458 104.925 128.234 98.535 126.45 94.6157L118.44 83.2424L123.811 78.3922L133.145 86.8874C133.145 86.8874 137.443 91.8626 140.509 91.944C142.387 91.9938 147.784 94.5295 151.882 97.2256C152.625 97.719 153.263 98.3543 153.76 99.0949C154.257 99.8355 154.603 100.667 154.779 101.542C154.954 102.417 154.956 103.317 154.783 104.193C154.611 105.068 154.267 105.901 153.773 106.643Z" fill="#3F3D56"/>
<path d="M72.3418 218.924L72.319 218.923C66.1515 218.062 59.8946 218.062 53.7271 218.923H53.7172C53.0997 218.925 52.4908 218.778 51.9424 218.494C51.1851 218.082 50.6004 217.412 50.2947 216.606C49.989 215.799 49.9824 214.909 50.2763 214.098C50.9427 212.374 50.97 210.468 50.3533 208.725C50.1589 208.179 50.0931 207.595 50.1609 207.019C50.2288 206.444 50.4284 205.891 50.7443 205.405C51.0383 204.946 51.4356 204.563 51.9042 204.285C52.3728 204.008 52.8997 203.844 53.4429 203.807C53.5296 203.801 53.6165 203.798 53.7044 203.798C59.86 204.883 66.1576 204.883 72.3135 203.8H72.3212C72.9279 203.798 73.5264 203.94 74.0676 204.214C74.6089 204.489 75.0775 204.887 75.4349 205.378C75.7358 205.81 75.9376 206.302 76.0258 206.821C76.1141 207.34 76.0866 207.872 75.9453 208.379C75.4706 210.229 75.493 212.226 76.0146 214.485C76.2038 215.275 76.1092 216.107 75.7474 216.834C75.4289 217.464 74.9418 217.993 74.3404 218.362C73.7391 218.731 73.0471 218.926 72.3418 218.924V218.924Z" fill="#62268B"/>
<path d="M77.5976 205.113L77.5749 205.112C71.4074 204.251 65.1505 204.251 58.983 205.112H58.9731C58.3556 205.114 57.7467 204.967 57.1982 204.683C56.4409 204.271 55.8563 203.601 55.5505 202.794C55.2448 201.988 55.2383 201.098 55.5322 200.287C56.1986 198.563 56.2259 196.657 55.6091 194.914C55.4148 194.368 55.349 193.784 55.4168 193.208C55.4846 192.633 55.6842 192.08 56.0002 191.594C56.2942 191.135 56.6914 190.752 57.16 190.474C57.6286 190.197 58.1556 190.033 58.6988 189.996C58.7854 189.99 58.8723 189.987 58.9602 189.987C65.1159 191.072 71.4134 191.072 77.5694 189.989H77.5771C78.1837 189.987 78.7822 190.129 79.3235 190.403C79.8647 190.678 80.3333 191.076 80.6908 191.567C80.9917 191.999 81.1935 192.491 81.2817 193.01C81.3699 193.529 81.3424 194.061 81.2012 194.568C80.7264 196.417 80.7489 198.415 81.2704 200.674C81.4597 201.464 81.3651 202.296 81.0032 203.023C80.6847 203.653 80.1976 204.182 79.5963 204.551C78.9949 204.92 78.303 205.115 77.5976 205.113Z" fill="#62268B"/>
<path d="M31.607 208.878L31.6211 208.86C35.7887 204.228 39.2945 199.04 42.0385 193.444L42.0441 193.436C42.3882 192.922 42.851 192.5 43.3933 192.204C44.1583 191.807 45.0403 191.698 45.879 191.896C46.7177 192.095 47.4574 192.588 47.9638 193.286C49.0169 194.805 50.5787 195.895 52.366 196.36C52.9268 196.505 53.4466 196.778 53.885 197.157C54.3235 197.535 54.6686 198.01 54.8937 198.545C55.1085 199.046 55.2032 199.59 55.1703 200.134C55.1373 200.678 54.9777 201.207 54.704 201.678C54.6603 201.753 54.6141 201.827 54.5649 201.9C50.2183 206.396 46.689 211.618 44.1357 217.329L44.1314 217.335C43.7933 217.84 43.3406 218.256 42.8104 218.552C42.2802 218.847 41.6877 219.012 41.0814 219.033C40.5558 219.041 40.035 218.932 39.5563 218.715C39.0777 218.497 38.653 218.176 38.3128 217.775C37.0484 216.345 35.3834 215.245 33.2222 214.411C32.4623 214.125 31.8272 213.581 31.428 212.873C31.0852 212.256 30.9205 211.556 30.9521 210.85C30.9837 210.145 31.2104 209.462 31.607 208.878V208.878Z" fill="#62268B"/>
<path d="M246.331 219.426L0.389971 219.527C0.286441 219.527 0.187255 219.485 0.114154 219.412C0.0410528 219.338 0 219.239 0 219.135C0 219.032 0.0410528 218.932 0.114154 218.859C0.187255 218.786 0.286441 218.744 0.389971 218.744L246.331 218.643C246.434 218.643 246.534 218.684 246.607 218.758C246.68 218.831 246.721 218.931 246.721 219.034C246.721 219.138 246.68 219.237 246.607 219.311C246.534 219.384 246.434 219.426 246.331 219.426V219.426Z" fill="#CACACA"/>
</svg>
