<svg width="176" height="126" viewBox="0 0 176 126" fill="none" xmlns="http://www.w3.org/2000/svg">
<path d="M166.934 10.5485V101.154C166.934 101.453 166.876 101.75 166.761 102.027C166.647 102.303 166.479 102.555 166.268 102.766C166.057 102.978 165.806 103.146 165.53 103.261C165.254 103.376 164.958 103.435 164.659 103.435H11.1322C11.0229 103.436 10.9137 103.427 10.8058 103.409C10.2643 103.331 9.76897 103.06 9.41071 102.646C9.05244 102.232 8.85524 101.702 8.85522 101.154V10.5485C8.85502 9.94376 9.09463 9.36368 9.52135 8.93589C9.94807 8.5081 10.5269 8.26766 11.1306 8.26746H164.657C164.956 8.26735 165.252 8.32624 165.528 8.44074C165.805 8.55525 166.056 8.72313 166.267 8.93481C166.478 9.14649 166.646 9.39782 166.761 9.67445C166.875 9.95108 166.934 10.2476 166.934 10.5471V10.5485Z" fill="#E6E6E6"/>
<path d="M47.555 62.1396C58.5872 62.1396 67.5306 53.1798 67.5306 42.1272C67.5306 31.0746 58.5872 22.1147 47.555 22.1147C36.5227 22.1147 27.5793 31.0746 27.5793 42.1272C27.5793 53.1798 36.5227 62.1396 47.555 62.1396Z" fill="#6C63FF"/>
<path d="M110.196 103.798H12.2017C12.079 103.8 11.9564 103.79 11.8354 103.769L58.1823 23.3417C58.4652 22.8408 58.8757 22.4241 59.3719 22.1342C59.8681 21.8443 60.4323 21.6915 61.0067 21.6915C61.5812 21.6915 62.1453 21.8443 62.6415 22.1342C63.1377 22.4241 63.5483 22.8408 63.8311 23.3417L94.9357 77.3148L96.4258 79.8974L110.196 103.798Z" fill="#3F3D56"/>
<path opacity="0.2" d="M94.0836 103.798H60.626L77.05 79.8973L78.2327 78.1758L78.8232 77.3145L80.3138 79.8973L94.0836 103.798Z" fill="black"/>
<path d="M148.646 103.798H63.8887L80.313 79.8974L81.4949 78.1756L102.897 47.0283C104.3 44.9869 107.676 44.8598 109.326 46.6433C109.436 46.7649 109.539 46.8935 109.634 47.0283L148.646 103.798Z" fill="#3F3D56"/>
<path d="M175.572 3.77991C175.063 2.67406 174.132 1.71802 172.906 1.04174C171.68 0.365462 170.219 0.00173916 168.72 4.22456e-07H7.2798C6.3237 -0.000288139 5.37689 0.147253 4.4935 0.434199C3.61011 0.721144 2.80745 1.14186 2.13138 1.67231C1.45532 2.20277 0.919107 2.83256 0.553393 3.52568C0.18768 4.2188 -0.000367235 4.96168 5.38411e-07 5.71186V105.837C0.00273537 107.352 0.77059 108.803 2.13522 109.874C3.49986 110.945 5.34991 111.547 7.2798 111.549H168.72C170.65 111.547 172.5 110.945 173.865 109.874C175.229 108.803 175.997 107.352 176 105.837V5.71186C176.001 5.05325 175.856 4.39948 175.572 3.77991ZM175.144 105.837C175.141 107.174 174.464 108.455 173.26 109.399C172.056 110.344 170.423 110.876 168.72 110.877H7.2798C5.57685 110.876 3.94424 110.344 2.74007 109.399C1.53591 108.455 0.858491 107.174 0.856419 105.837V5.71186C0.858491 4.3757 1.5359 3.09472 2.74007 2.14991C3.94423 1.2051 5.57684 0.673596 7.27978 0.671971H168.72C170.423 0.673597 172.056 1.20511 173.26 2.14992C174.464 3.09473 175.141 4.3757 175.144 5.71186V105.837Z" fill="#3F3D56"/>
<path d="M146.239 125.183C140.724 125.183 135.332 123.548 130.746 120.483C126.16 117.419 122.586 113.064 120.475 107.968C118.364 102.872 117.812 97.2648 118.888 91.8552C119.964 86.4456 122.62 81.4766 126.52 77.5765C130.42 73.6764 135.389 71.0203 140.799 69.9443C146.208 68.8683 151.816 69.4205 156.911 71.5313C162.007 73.642 166.363 77.2164 169.427 81.8024C172.491 86.3885 174.127 91.7802 174.127 97.2958C174.118 104.689 171.178 111.778 165.949 117.006C160.721 122.234 153.633 125.175 146.239 125.183Z" fill="#6C63FF"/>
<path d="M156.755 94.0037H148.502V85.751C148.502 85.0214 148.212 84.3216 147.697 83.8057C147.181 83.2898 146.481 83 145.751 83C145.022 83 144.322 83.2898 143.806 83.8057C143.29 84.3216 143 85.0214 143 85.751V94.0037H134.748C134.019 94.0046 133.32 94.2948 132.805 94.8106C132.289 95.3264 132 96.0256 132 96.7546C132 97.4836 132.289 98.1828 132.805 98.6986C133.32 99.2144 134.019 99.5046 134.748 99.5055H143V107.758C143 108.488 143.29 109.188 143.806 109.703C144.322 110.219 145.022 110.509 145.751 110.509C146.481 110.509 147.181 110.219 147.697 109.703C148.212 109.188 148.502 108.488 148.502 107.758V99.5055H156.755C157.116 99.5059 157.475 99.4351 157.809 99.2971C158.143 99.159 158.446 98.9564 158.702 98.701C158.958 98.4455 159.161 98.1421 159.299 97.8081C159.438 97.4741 159.509 97.1161 159.509 96.7546C159.509 96.3931 159.438 96.0351 159.299 95.7011C159.161 95.3672 158.958 95.0638 158.702 94.8083C158.446 94.5528 158.143 94.3502 157.809 94.2122C157.475 94.0741 157.116 94.0033 156.755 94.0037Z" fill="white"/>
</svg>
