<svg width="300" height="246" viewBox="0 0 300 246" fill="none" xmlns="http://www.w3.org/2000/svg">
<path d="M124.791 211.629L128.067 200.958C124.125 196.619 119.183 193.308 113.671 191.312C119.056 200.235 113.838 211.874 116.012 222.067C116.715 225.241 118.123 228.215 120.131 230.771C122.14 233.327 124.698 235.398 127.616 236.83L132.588 242.991C135.195 238.437 136.783 233.372 137.244 228.145C137.705 222.917 137.026 217.653 135.256 212.713C134.236 209.951 132.872 207.329 131.196 204.909C128.242 208.382 124.791 211.629 124.791 211.629Z" fill="#2EC32E"/>
<path d="M106.774 212.993L104.948 201.98C99.484 199.855 93.5841 199.096 87.7603 199.768C96.5599 205.352 97.0799 218.097 103.572 226.25C105.616 228.777 108.203 230.812 111.141 232.204C114.078 233.595 117.291 234.308 120.542 234.289L127.74 237.586C128.042 232.347 127.205 227.105 125.286 222.221C123.367 217.337 120.412 212.927 116.624 209.295C114.48 207.279 112.089 205.54 109.51 204.121C108.415 208.548 106.774 212.993 106.774 212.993Z" fill="#2EC32E"/>
<path d="M214.014 240.253L208.967 240.252L206.566 220.785L214.015 220.786L214.014 240.253Z" fill="#FFB6B6"/>
<path d="M215.302 245.145L199.028 245.144V244.938C199.028 243.259 199.695 241.647 200.883 240.46C202.071 239.272 203.682 238.604 205.362 238.604H205.362L208.335 236.349L213.881 238.605L215.302 238.605L215.302 245.145Z" fill="#2F2E41"/>
<path d="M295.544 221.844L292.102 225.536L276.224 214.019L281.303 208.57L295.544 221.844Z" fill="#FFB6B6"/>
<path d="M300 224.238L288.904 236.142L288.753 236.002C287.525 234.856 286.801 233.27 286.742 231.591C286.683 229.912 287.293 228.278 288.438 227.049L288.439 227.049L288.816 223.337L294.247 220.818L295.216 219.778L300 224.238Z" fill="#2F2E41"/>
<path d="M288.076 210.903L282.741 222.06L249.983 200.371L245.217 193.878L229.591 172.587L223.24 182.666L218.82 193.202C217.38 194.141 216.166 195.389 215.266 196.855C214.367 198.32 213.804 199.968 213.619 201.677L213.417 203.543L216.209 228.649L205.594 231.908L199.498 198.181L201.491 190.873L203.543 180.614L213.873 148.196H241.516L257.371 181.945L258.53 188.821L263.026 193.981L288.076 210.903Z" fill="#2F2E41"/>
<path d="M230.628 95.1575L235.281 98.7009L240.893 100.425C240.893 100.425 243.213 133.06 245.304 135.151C247.394 137.241 245.509 137.297 245.929 140.013C246.349 142.729 247.37 148.295 247.37 148.295C233.259 155.765 221.094 155.965 211.322 147.225C211.197 146.684 211.261 146.117 211.502 145.617C211.744 145.118 212.149 144.716 212.65 144.478C214.469 143.513 210.974 139.009 212.46 138.256C213.946 137.502 211.856 130.97 211.856 130.97L213.227 117.34L212.144 115.161L214.788 101.829L219.376 100.153L221.208 95.738L230.628 95.1575Z" fill="#3F3D56"/>
<path d="M233.543 153.16C233.522 152.571 233.631 151.984 233.861 151.441C234.091 150.899 234.438 150.413 234.877 150.018C235.315 149.624 235.835 149.331 236.399 149.159C236.963 148.987 237.558 148.941 238.142 149.024L244.7 136.277L248.354 142.769L241.566 153.878C241.361 154.85 240.808 155.713 240.01 156.303C239.211 156.894 238.224 157.171 237.236 157.083C236.247 156.994 235.324 156.546 234.644 155.823C233.963 155.1 233.572 154.153 233.543 153.16H233.543Z" fill="#FFB6B6"/>
<path d="M244.587 150.042L258.653 128.241L258.607 128.141C258.554 128.026 255.369 121.147 252.282 114.846C251.807 113.875 251.334 112.919 250.875 112.002C250.677 111.607 250.482 111.22 250.29 110.841C248.994 108.286 247.861 106.173 247.185 105.17C245.69 102.901 243.463 101.212 240.876 100.384L240.811 100.367L240.749 100.393C239.483 100.927 238.437 101.876 237.783 103.085C237.13 104.293 236.907 105.688 237.153 107.04C238.373 113.559 241.092 119.706 245.094 124.995L247.375 128L239.45 145.229L244.587 150.042Z" fill="#3F3D56"/>
<path d="M196.217 66.4754C196.605 66.9201 196.89 67.4443 197.053 68.0111C197.215 68.5779 197.252 69.1736 197.16 69.756C197.067 70.3385 196.848 70.8937 196.518 71.3824C196.188 71.8711 195.755 72.2815 195.249 72.5847L198.182 86.6168L191.255 83.8745L189.533 70.9699C189.08 70.0864 188.966 69.0674 189.215 68.106C189.463 67.1446 190.055 66.3075 190.879 65.7535C191.703 65.1995 192.701 64.967 193.685 65.1001C194.669 65.2331 195.57 65.7225 196.217 66.4754H196.217Z" fill="#FFB6B6"/>
<path d="M189.601 75.8525L192.402 101.646L192.501 101.695C192.583 101.735 196.132 103.475 200.487 105.548C201.222 105.898 201.117 107.412 201.885 107.774C202.414 108.024 203.811 107.119 204.345 107.369C209.106 109.595 213.921 111.76 215.839 112.347C218.429 113.168 221.222 113.078 223.754 112.092L223.816 112.064L223.848 112.005C224.494 110.793 224.709 109.397 224.456 108.047C224.203 106.696 223.497 105.473 222.456 104.577C217.402 100.281 211.42 97.2179 204.98 95.6299L201.316 94.7308L196.623 76.3568L189.601 75.8525Z" fill="#3F3D56"/>
<path d="M225.666 93.6962C230.75 93.6962 234.871 89.5752 234.871 84.4917C234.871 79.4081 230.75 75.2871 225.666 75.2871C220.583 75.2871 216.462 79.4081 216.462 84.4917C216.462 89.5752 220.583 93.6962 225.666 93.6962Z" fill="#FFB6B6"/>
<path d="M216.528 78.3236C217.285 76.1214 221.053 74.5939 227.162 74.3816C233.27 74.1692 234.82 81.3681 234.82 81.3681C238.898 84.6763 230.465 93.5331 230.057 93.2141L230.241 91.5501C230.544 88.7938 231.835 86.6433 230.194 83.7708L228.617 83.7889C226.582 84.1803 224.546 84.5718 222.51 84.9632L224.92 82.8413L224.852 82.7361C223.827 83.2701 222.712 83.6088 221.563 83.735C220.268 83.8111 218.851 83.2956 218.231 82.156C218.065 81.8428 217.964 81.4995 217.933 81.1465C216.187 81.8444 215.388 83.9977 215.388 83.9977C215.388 83.9977 215.771 80.5258 216.528 78.3236Z" fill="#2F2E41"/>
<path d="M37.0851 78.876C36.9602 78.7176 36.8257 78.5671 36.6824 78.4252C36.7174 78.377 36.7524 78.3245 36.7875 78.2764L37.0851 78.876Z" fill="#2F2E41"/>
<path d="M38.8753 115.896C37.3696 118.571 34.3626 120.063 31.3819 120.794C28.0339 121.671 24.5083 121.603 21.1967 120.597C20.7765 120.461 20.3563 120.304 19.9493 120.129C20.145 119.609 20.3001 119.075 20.4132 118.531C20.5656 117.795 20.6419 117.046 20.6409 116.295C20.3092 116.942 19.8796 117.534 19.3671 118.05C18.9719 118.465 18.5229 118.826 18.0322 119.122C16.51 118.198 15.192 116.974 14.1586 115.524C14.2242 115.362 14.2899 115.2 14.3512 115.038C14.669 114.192 14.9207 113.323 15.104 112.438C15.3527 111.242 15.4774 110.023 15.476 108.801C14.9364 109.854 14.2364 110.817 13.4013 111.655C13.151 111.923 12.885 112.176 12.6048 112.412C12.1708 111.094 12.003 109.703 12.1112 108.32C12.2194 106.937 12.6014 105.589 13.235 104.354C14.9683 101.15 18.3298 99.2462 21.3237 97.1759C24.3219 95.1056 27.3201 92.3044 27.5739 88.6671C27.7447 86.2117 26.6066 83.7518 27.0618 81.3357C27.2533 80.3168 27.7207 79.3701 28.4131 78.5985C29.1055 77.827 29.9963 77.2602 30.9886 76.96C31.9808 76.6598 33.0365 76.6376 34.0404 76.896C35.0444 77.1543 35.9583 77.6832 36.6824 78.425C34.9841 80.8323 33.2946 83.3228 32.6075 86.1854C31.9072 89.1004 32.4805 92.5188 34.7784 94.4491C35.5663 95.1144 36.5336 95.5871 37.142 96.4187C37.9517 97.5217 37.9561 98.9924 38.0874 100.349C38.35 102.989 39.2123 105.527 39.6763 108.14C40.1446 110.749 40.1709 113.581 38.8753 115.896Z" fill="#2F2E41"/>
<path d="M8.00977 224.438L12.0046 227.524L25.8105 213.585L19.9145 209.03L8.00977 224.438Z" fill="#A0616A"/>
<path d="M8.17963 221.422L14.7855 225.925L12.695 228.63L15.4947 237.415C15.6331 237.849 15.6291 238.316 15.4834 238.747C15.3376 239.179 15.0578 239.552 14.6848 239.814C14.3117 240.075 13.8649 240.21 13.4096 240.199C12.9543 240.188 12.5144 240.032 12.1541 239.754L4.63627 233.945L5.40829 230.268L2.83451 232.553L0 230.363L8.17963 221.422Z" fill="#2F2E41"/>
<path d="M28.2764 86.6521C28.2758 88.2129 28.6584 89.7499 29.3905 91.1283C30.1226 92.5067 31.1819 93.6843 32.4754 94.5578C33.7689 95.4312 35.257 95.9738 36.8091 96.1378C38.3612 96.3019 39.9299 96.0824 41.3774 95.4987C42.8249 94.915 44.107 93.9849 45.1111 92.79C46.1152 91.5951 46.8107 90.172 47.1364 88.6456C47.4622 87.1192 47.4082 85.5362 46.9793 84.0355C46.5504 82.5348 45.7597 81.1624 44.6766 80.0386L44.6308 79.9929C44.5545 79.9128 44.4782 79.8327 44.3981 79.7564C44.3976 79.7564 44.3971 79.7563 44.3967 79.7561C44.3962 79.7559 44.3958 79.7556 44.3954 79.7553C44.3951 79.7549 44.3948 79.7545 44.3946 79.754C44.3944 79.7536 44.3943 79.7531 44.3943 79.7526C44.2952 79.661 44.196 79.5695 44.093 79.4818C42.4149 78.0096 40.0562 76.4116 37.6496 76.4116C32.3825 76.4116 28.2764 81.385 28.2764 86.6521Z" fill="#2F2E41"/>
<path d="M82.6245 81.7555C82.6701 82.264 82.6037 82.7764 82.4299 83.2565C82.2561 83.7366 81.9792 84.1728 81.6186 84.5343C81.258 84.8958 80.8225 85.1738 80.3428 85.3488C79.8631 85.5238 79.3509 85.5915 78.8423 85.5471L55.2312 106.866L51.168 100.448L75.6546 81.5108C75.7858 80.6612 76.224 79.8893 76.8864 79.3412C77.5487 78.7932 78.389 78.5072 79.2482 78.5373C80.1073 78.5675 80.9255 78.9117 81.5478 79.5048C82.1701 80.098 82.5532 80.8988 82.6245 81.7555V81.7555Z" fill="#A0616A"/>
<path d="M45.1403 113.3C45.1403 113.3 46.0188 114.923 49.0196 112.417C51.4221 110.412 62.9318 101.704 65.4114 98.136C65.9776 98.3604 66.6023 98.3899 67.1872 98.2201C67.7721 98.0503 68.2838 97.6907 68.6418 97.198L61.8479 91.248C59.8151 91.4821 59.8587 92.8476 60.0704 93.6229L54.9456 95.9448L41.7119 104.402L44.4845 112.139L45.1403 113.3Z" fill="#6C63FF"/>
<path d="M32.3199 128.249L31.825 130.605L31.4048 139.298L49.9052 140.315L49.3307 126.945L47.5374 123.999L32.3199 128.249Z" fill="#A0616A"/>
<path d="M40.1606 96.8538C44.5764 96.8538 48.1561 93.2741 48.1561 88.8583C48.1561 84.4425 44.5764 80.8628 40.1606 80.8628C35.7448 80.8628 32.165 84.4425 32.165 88.8583C32.165 93.2741 35.7448 96.8538 40.1606 96.8538Z" fill="#A0616A"/>
<path d="M25.9654 118.349L25.9163 111.703C25.9151 109.312 26.7244 106.991 28.212 105.118C29.6997 103.246 31.7779 101.933 34.1076 101.393L34.1378 101.386L35.7188 99.2561L42.1422 99.8987L43.3195 102.305L47.974 105.076L49.766 110.837C50.5433 111.355 51.2058 112.028 51.7122 112.812C52.2186 113.597 52.5583 114.478 52.71 115.4C53.3184 119.286 50.5974 123.175 50.2737 123.62L49.4397 128.317L31.298 131.518L31.1506 131.537L25.9654 118.349Z" fill="#6C63FF"/>
<path d="M49.9446 87.4329C49.012 88.0237 48.0443 88.5572 47.047 89.0305C46.0348 89.5168 44.976 89.8995 43.8868 90.173C43.5752 89.4892 43.1939 88.8394 42.7488 88.234C42.8633 88.9514 42.8663 89.6822 42.7576 90.4005C40.9523 90.6918 39.1032 90.5401 37.3695 89.9585L35.8639 87.433L35.7501 90.2517C34.5026 90.4793 33.2596 90.6938 32.0121 90.917C31.9377 90.9258 31.8633 90.9433 31.7933 90.9564C31.0185 87.4636 32.1172 83.6163 34.5595 81.2877C35.7722 80.1437 37.2848 79.3677 38.9214 79.05C40.5579 78.7322 42.2511 78.8859 43.8037 79.4932C44.0007 79.572 44.202 79.6595 44.3946 79.7514C44.3945 79.752 44.3947 79.7526 44.3949 79.7531C44.3951 79.7536 44.3954 79.7541 44.3958 79.7545C44.3962 79.755 44.3967 79.7553 44.3973 79.7555C44.3978 79.7557 44.3984 79.7558 44.3989 79.7558C44.5127 79.8127 44.609 79.9484 44.736 79.9352C50.1984 79.3268 50.3735 83.5637 49.9446 87.4329Z" fill="#2F2E41"/>
<path d="M36.6433 214.128L40.6443 217.207L54.4223 203.239L48.5173 198.696L36.6433 214.128Z" fill="#A0616A"/>
<path d="M37.1699 211.391L43.7848 215.88L41.6998 218.59L44.5172 227.369C44.6564 227.803 44.6534 228.27 44.5086 228.701C44.3637 229.133 44.0846 229.507 43.7121 229.769C43.3396 230.031 42.893 230.167 42.4378 230.157C41.9825 230.147 41.5422 229.992 41.1813 229.715L33.6518 223.921L34.4164 220.242L31.8472 222.532L29.0083 220.348L37.1699 211.391Z" fill="#2F2E41"/>
<path d="M23.6606 197.082L23.6604 197.03L25.5566 193.762L23.6203 189.508L23.5622 178.58L23.8761 176.94C24.2983 174.734 24.1754 172.457 23.5183 170.309L23.4829 163.657C23.4149 161.991 25.9963 160.525 25.3943 159.136C19.7043 146.005 31.2048 135.988 31.2825 135.908L31.5175 135.664L32.7926 136.629L34.0063 136.631L50.3842 139.615L50.5025 139.836C51.1466 141.044 52.3898 145.209 52.4636 147.093C53.2798 148.038 62.5776 158.797 63.4041 159.545C68.9893 164.598 72.1871 172.963 73.5961 177.499C73.946 178.62 74.0166 179.809 73.8016 180.964C73.5866 182.119 73.0925 183.203 72.3625 184.123L51.2184 207.283L45.5283 202.031L56.9692 181.182L56.1442 179.067C54.6639 178.794 53.3243 178.016 52.3539 176.865L50.0372 174.115C49.3957 173.356 48.9881 172.427 48.8637 171.441L47.4588 171.272L42.4263 165.988L38.9348 197.607L37.9856 200.105L21.455 219.538L14.4519 215.161L23.6606 197.082Z" fill="#2F2E41"/>
<path d="M21.1359 61.315C20.8183 61.7148 20.5923 62.1794 20.4736 62.676C20.355 63.1727 20.3467 63.6893 20.4494 64.1895C20.552 64.6896 20.7631 65.1612 21.0677 65.571C21.3723 65.9808 21.7631 66.3188 22.2124 66.5613L16.9561 82.1227L21.2482 98.6137L28.1692 95.4848L23.8984 83.0461L27.0937 64.9406C27.4509 64.1587 27.5089 63.2728 27.2567 62.451C27.0045 61.6292 26.4595 60.9284 25.7252 60.4815C24.9908 60.0346 24.118 59.8726 23.2722 60.0263C22.4263 60.1799 21.6662 60.6384 21.1359 61.315V61.315Z" fill="#A0616A"/>
<path d="M27.4713 112.202C27.4713 112.202 25.8457 113.074 24.7152 109.332C23.8101 106.336 17.6507 90.0701 17.5397 85.7264C16.9434 85.6027 16.4052 85.2842 16.0099 84.8209C15.6145 84.3576 15.3846 83.776 15.3562 83.1677L24.302 81.9297C25.8718 83.2422 25.085 84.3592 24.4821 84.8906L27.529 90.0516L33.8974 103.984L28.6575 111.591L27.4713 112.202Z" fill="#6C63FF"/>
<path d="M32.0103 90.9161C32.9289 88.1457 34.5762 85.6735 36.7793 83.759C38.9824 81.8444 41.6602 80.558 44.5316 80.0348C44.5431 80.031 44.5812 80.0157 44.6308 79.9928C44.6613 79.9738 44.6995 79.9547 44.7376 79.9356C44.6232 79.8708 44.5126 79.8136 44.3981 79.7563C44.3976 79.7563 44.3971 79.7563 44.3967 79.7561C44.3962 79.7559 44.3958 79.7556 44.3954 79.7552C44.3951 79.7549 44.3948 79.7545 44.3946 79.754C44.3944 79.7535 44.3943 79.753 44.3943 79.7525C44.2952 79.661 44.196 79.5695 44.093 79.4817L43.8032 79.4932C43.8032 79.4932 33.616 77.8799 32.0103 90.9161Z" fill="#FD6584"/>
<path d="M163.462 180.014C164.574 178.343 163.916 175.951 161.992 174.671C160.069 173.391 157.608 173.708 156.496 175.379C155.384 177.051 156.042 179.443 157.966 180.723C159.89 182.002 162.35 181.685 163.462 180.014Z" fill="#F3E1FF"/>
<path d="M140.893 117.64C142.005 115.969 141.346 113.577 139.423 112.297C137.499 111.017 135.039 111.335 133.927 113.006C132.815 114.677 133.473 117.069 135.397 118.349C137.32 119.629 139.781 119.311 140.893 117.64Z" fill="#F3E1FF"/>
<path d="M235.274 213.663C236.386 211.992 235.728 209.599 233.804 208.32C231.881 207.04 229.42 207.357 228.308 209.028C227.196 210.699 227.854 213.092 229.778 214.371C231.702 215.651 234.162 215.334 235.274 213.663Z" fill="#F3E1FF"/>
<path d="M91.3629 158.558C92.4748 156.887 91.8167 154.495 89.8931 153.215C87.9695 151.935 85.5088 152.253 84.3969 153.924C83.2851 155.595 83.9432 157.987 85.8668 159.267C87.7904 160.547 90.2511 160.229 91.3629 158.558Z" fill="#E6E6E6"/>
<path d="M275.047 245.538H8.19617C8.06683 245.538 7.94291 245.486 7.85159 245.395C7.76027 245.303 7.70898 245.179 7.70898 245.05C7.70898 244.92 7.76027 244.796 7.85159 244.705C7.94291 244.613 8.06683 244.561 8.19617 244.561H275.047C275.176 244.561 275.3 244.612 275.392 244.704C275.484 244.796 275.535 244.92 275.535 245.05C275.535 245.179 275.484 245.303 275.392 245.395C275.3 245.487 275.176 245.538 275.047 245.538V245.538Z" fill="#CCCCCC"/>
<path d="M57.8633 83.263C55.6186 83.2565 53.455 82.423 51.7862 80.9218C50.1174 79.4206 49.0603 77.357 48.8171 75.1255L43.6075 26.742C43.3516 24.3398 44.059 21.9341 45.5745 20.0527C47.0901 18.1714 49.2901 16.9681 51.6918 16.7068L206.376 0.0514178C208.779 -0.204653 211.184 0.502674 213.066 2.01822C214.947 3.53376 216.15 5.73374 216.412 8.13546L221.621 56.5187C221.877 58.921 221.17 61.3268 219.654 63.2082C218.139 65.0896 215.939 66.293 213.537 66.5543L213.515 66.3504L213.537 66.5543L58.8525 83.2097C58.524 83.2452 58.1938 83.263 57.8633 83.263V83.263Z" fill="#E6E6E6"/>
<path d="M204.673 2.29763C204.382 2.29772 204.092 2.31338 203.803 2.34451L54.6952 18.3994C53.6526 18.5116 52.6424 18.8282 51.7221 19.3309C50.8018 19.8336 49.9896 20.5126 49.3317 21.3292C48.6739 22.1458 48.1833 23.084 47.888 24.0902C47.5928 25.0964 47.4986 26.1509 47.6108 27.1935L50.2449 51.6567C50.6706 55.6114 51.8712 59.4436 53.778 62.9344C55.6848 66.4252 58.2605 69.5062 61.358 72.0016C64.4556 74.4969 68.0143 76.3577 71.8309 77.4778C75.6476 78.5978 79.6475 78.955 83.6023 78.5292L188.45 67.2399C192.392 66.8154 196.213 65.6184 199.693 63.7174C203.173 61.8164 206.245 59.2485 208.733 56.1604C211.22 53.0723 213.076 49.5244 214.192 45.7193C215.309 41.9143 215.665 37.9265 215.24 33.9838L212.597 9.4289C212.386 7.47303 211.461 5.66373 209.998 4.34777C208.536 3.03182 206.64 2.30179 204.673 2.29761V2.29763Z" fill="white"/>
<path d="M173.273 27.7566L89.9347 36.73C89.6964 36.7559 89.4554 36.7347 89.2253 36.6674C88.9952 36.6002 88.7807 36.4882 88.5939 36.3379C88.4071 36.1877 88.2518 36.0021 88.1368 35.7918C88.0219 35.5815 87.9495 35.3505 87.9238 35.1122C87.8982 34.8739 87.9197 34.6328 87.9873 34.4029C88.0549 34.1729 88.1671 33.9585 88.3176 33.7719C88.4681 33.5853 88.6539 33.4303 88.8644 33.3156C89.0749 33.2009 89.3059 33.1288 89.5442 33.1034L172.882 24.1301C173.121 24.1041 173.362 24.1254 173.592 24.1927C173.822 24.2599 174.036 24.3719 174.223 24.5221C174.41 24.6724 174.565 24.858 174.68 25.0683C174.795 25.2786 174.868 25.5096 174.893 25.7479C174.919 25.9862 174.897 26.2272 174.83 26.4572C174.762 26.6872 174.65 26.9016 174.499 27.0882C174.349 27.2747 174.163 27.4298 173.953 27.5445C173.742 27.6592 173.511 27.7313 173.273 27.7566V27.7566Z" fill="#6C63FF"/>
<path d="M174.471 38.8865L91.133 47.8598C90.6521 47.9116 90.1703 47.7702 89.7936 47.4668C89.417 47.1634 89.1763 46.7227 89.1245 46.2418C89.0727 45.7609 89.2141 45.2791 89.5175 44.9025C89.821 44.5258 90.2616 44.2851 90.7425 44.2333L174.081 35.26C174.561 35.2082 175.043 35.3496 175.42 35.653C175.797 35.9565 176.037 36.3971 176.089 36.878C176.141 37.3589 175.999 37.8407 175.696 38.2174C175.393 38.594 174.952 38.8347 174.471 38.8865V38.8865Z" fill="#6C63FF"/>
<path d="M102.043 57.9439L92.3315 58.9896C91.8506 59.0414 91.3688 58.9 90.9921 58.5966C90.6155 58.2931 90.3748 57.8525 90.323 57.3716C90.2712 56.8907 90.4126 56.4089 90.716 56.0322C91.0195 55.6556 91.4601 55.4149 91.941 55.3631L101.653 54.3174C101.891 54.2914 102.132 54.3126 102.362 54.3799C102.592 54.4472 102.807 54.5591 102.994 54.7094C103.18 54.8596 103.336 55.0452 103.451 55.2556C103.566 55.4659 103.638 55.6968 103.664 55.9351C103.689 56.1735 103.668 56.4145 103.6 56.6445C103.533 56.8745 103.42 57.0889 103.27 57.2754C103.119 57.462 102.934 57.6171 102.723 57.7318C102.513 57.8465 102.282 57.9185 102.043 57.9439Z" fill="#6C63FF"/>
<path d="M201.283 15.5657C203.096 15.5657 204.566 14.0959 204.566 12.2828C204.566 10.4698 203.096 9 201.283 9C199.47 9 198 10.4698 198 12.2828C198 14.0959 199.47 15.5657 201.283 15.5657Z" fill="#3F3D56"/>
<path d="M163.406 81.1087C163.104 80.8438 162.865 80.5149 162.706 80.1461C162.548 79.7774 162.473 79.3778 162.488 78.9766C162.653 74.2084 161.868 69.455 160.178 64.9931C160.035 64.6181 159.977 64.2158 160.008 63.8155C160.04 63.4153 160.161 63.0271 160.361 62.6792C160.553 62.3449 160.816 62.0567 161.131 61.8348C161.447 61.6129 161.807 61.4628 162.187 61.3949C166.002 59.0923 169.914 58.4459 173.815 59.4739C174.444 59.3813 175.086 59.516 175.625 59.8538C176.163 60.1915 176.564 60.7103 176.755 61.3168C178.334 66.4446 179.213 71.7625 179.366 77.1258C179.381 77.7692 179.163 78.3963 178.753 78.892C178.342 79.3876 177.767 79.7186 177.132 79.8239L165.587 81.7312C165.2 81.796 164.804 81.7737 164.426 81.666C164.049 81.5583 163.7 81.3679 163.406 81.1087V81.1087Z" fill="#6C63FF"/>
<path d="M164.431 67.2161L174.148 65.6108C174.228 65.5977 174.304 65.5691 174.373 65.5265C174.442 65.4838 174.502 65.428 174.549 65.3623C174.596 65.2965 174.63 65.2221 174.648 65.1433C174.667 65.0645 174.67 64.9828 174.656 64.9029C174.643 64.823 174.614 64.7465 174.572 64.6778C174.529 64.6091 174.473 64.5495 174.407 64.5024C174.341 64.4554 174.267 64.4218 174.188 64.4035C174.109 64.3853 174.027 64.3828 173.947 64.3962L164.231 66.0015C164.07 66.0284 163.926 66.118 163.832 66.2506C163.737 66.3832 163.698 66.548 163.725 66.7089C163.752 66.8697 163.841 67.0134 163.973 67.1085C164.106 67.2036 164.27 67.2423 164.431 67.2161Z" fill="white"/>
<path d="M165.234 72.0742L174.951 70.4689C175.112 70.4423 175.256 70.3528 175.351 70.2201C175.446 70.0874 175.484 69.9224 175.458 69.7613C175.431 69.6002 175.341 69.4563 175.209 69.3613C175.076 69.2662 174.911 69.2277 174.75 69.2543L165.033 70.8596C164.953 70.8726 164.877 70.9013 164.808 70.9439C164.739 70.9866 164.679 71.0424 164.632 71.1081C164.585 71.1739 164.551 71.2483 164.533 71.3271C164.514 71.4059 164.512 71.4876 164.525 71.5675C164.538 71.6474 164.567 71.7238 164.61 71.7926C164.652 71.8613 164.708 71.9209 164.774 71.9679C164.84 72.015 164.915 72.0486 164.993 72.0669C165.072 72.0851 165.154 72.0876 165.234 72.0742V72.0742Z" fill="white"/>
<path d="M166.036 76.9329L175.753 75.3276C175.914 75.301 176.058 75.2114 176.153 75.0787C176.248 74.946 176.287 74.781 176.26 74.6199C176.234 74.4589 176.144 74.315 176.011 74.2199C175.879 74.1248 175.714 74.0864 175.553 74.113L165.836 75.7183C165.756 75.7314 165.68 75.7602 165.611 75.8029C165.542 75.8456 165.483 75.9014 165.436 75.9671C165.389 76.0328 165.355 76.1071 165.337 76.1858C165.318 76.2646 165.316 76.3461 165.329 76.4259C165.342 76.5056 165.371 76.582 165.413 76.6507C165.456 76.7193 165.512 76.7789 165.578 76.8259C165.643 76.873 165.718 76.9067 165.796 76.925C165.875 76.9434 165.957 76.946 166.036 76.9329Z" fill="white"/>
</svg>
