<svg width="15" height="17" viewBox="0 0 15 17" fill="none" xmlns="http://www.w3.org/2000/svg">
<path d="M14.4647 13.9401L11.609 10.8007C11.4801 10.659 11.3054 10.5802 11.1221 10.5802H10.6552C11.4458 9.46868 11.9155 8.07058 11.9155 6.54967C11.9155 2.93161 9.24883 0 5.95775 0C2.66667 0 0 2.93161 0 6.54967C0 10.1677 2.66667 13.0993 5.95775 13.0993C7.34121 13.0993 8.61296 12.5829 9.62405 11.7138V12.2271C9.62405 12.4286 9.69566 12.6207 9.82456 12.7624L12.6803 15.9018C12.9495 16.1978 13.3849 16.1978 13.6513 15.9018L14.4619 15.0107C14.7311 14.7147 14.7311 14.2361 14.4647 13.9401ZM5.95775 10.5802C3.93269 10.5802 2.29144 8.77908 2.29144 6.54967C2.29144 4.32341 3.92982 2.5191 5.95775 2.5191C7.98281 2.5191 9.62405 4.32026 9.62405 6.54967C9.62405 8.77593 7.98567 10.5802 5.95775 10.5802Z" fill="black"/>
</svg>
