<svg width="250" height="167" viewBox="0 0 250 167" fill="none" xmlns="http://www.w3.org/2000/svg">
<g id="services-card">
<g id="Book Card">
<rect id="gradient" width="250" height="167" rx="9" fill="#F7F0FB"/>
<g id="Go Button" filter="url(#filter0_d)">
<path id="Ellipse 2" d="M237.452 148.504C237.452 153.769 233.181 158.038 227.912 158.038C222.642 158.038 218.371 153.769 218.371 148.504C218.371 143.239 222.642 138.97 227.912 138.97C233.181 138.97 237.452 143.239 237.452 148.504Z" fill="white" stroke="#62268B"/>
<g id="Arrow Right">
<path id="Arrow Right_2" d="M231.51 148.894L226.908 153.359C226.687 153.575 226.327 153.575 226.105 153.359L225.568 152.838C225.346 152.623 225.346 152.275 225.567 152.06L229.214 148.504L225.567 144.948C225.346 144.733 225.346 144.384 225.568 144.169L226.105 143.648C226.327 143.433 226.687 143.433 226.908 143.648L231.51 148.114C231.732 148.329 231.732 148.678 231.51 148.894Z" fill="#35164A"/>
</g>
</g>
<path id="&#208;&#163;&#208;&#161;&#208;&#155;&#208;&#163;&#208;&#147;&#208;&#152;" d="M102.354 147.983L103.907 143.952H105.806L102.823 150.989L102.583 151.452C102.142 152.222 101.466 152.606 100.556 152.606L99.9404 152.583L99.9229 151.171C100.017 151.187 100.169 151.194 100.38 151.194C100.626 151.194 100.823 151.151 100.972 151.065C101.124 150.979 101.251 150.821 101.353 150.591L101.569 150.034L98.5752 143.952H100.468L102.354 147.983ZM114.094 149.642C114.028 150.56 113.688 151.282 113.074 151.81C112.465 152.337 111.66 152.601 110.66 152.601C109.567 152.601 108.705 152.233 108.076 151.499C107.451 150.761 107.139 149.749 107.139 148.464V147.942C107.139 147.122 107.283 146.399 107.572 145.774C107.862 145.149 108.274 144.671 108.809 144.339C109.348 144.003 109.973 143.835 110.684 143.835C111.668 143.835 112.461 144.099 113.063 144.626C113.664 145.153 114.012 145.894 114.106 146.847H112.348C112.305 146.296 112.151 145.897 111.885 145.651C111.623 145.401 111.223 145.276 110.684 145.276C110.098 145.276 109.658 145.487 109.365 145.909C109.076 146.327 108.928 146.978 108.92 147.86V148.505C108.92 149.427 109.059 150.101 109.336 150.526C109.617 150.952 110.059 151.165 110.66 151.165C111.203 151.165 111.608 151.042 111.873 150.796C112.143 150.546 112.297 150.161 112.336 149.642H114.094ZM122.986 143.952V152.483H121.222V145.376H118.949L118.808 148.388C118.749 149.403 118.621 150.204 118.421 150.79C118.222 151.372 117.931 151.8 117.548 152.073C117.165 152.343 116.642 152.479 115.978 152.483H115.521V151.071L115.814 151.042C116.255 150.983 116.57 150.729 116.757 150.28C116.949 149.827 117.07 149.022 117.121 147.866L117.267 143.952H122.986ZM128.52 147.983L130.073 143.952H131.971L128.989 150.989L128.749 151.452C128.307 152.222 127.631 152.606 126.721 152.606L126.106 152.583L126.088 151.171C126.182 151.187 126.335 151.194 126.546 151.194C126.792 151.194 126.989 151.151 127.137 151.065C127.29 150.979 127.417 150.821 127.518 150.591L127.735 150.034L124.741 143.952H126.633L128.52 147.983ZM139.299 145.376H135.472V152.483H133.715V143.952H139.299V145.376ZM146.31 143.952H148.073V152.483H146.31V146.817L142.894 152.483H141.136V143.952H142.894V149.63L146.31 143.952Z" fill="#3E3644"/>
<path id="coud" d="M59.2228 35.8327C50.8423 35.4849 43.207 32.1048 39.7529 26.8683C39.5915 26.6232 39.4393 26.3746 39.2964 26.1227C38.0353 23.8915 37.6413 21.3266 39.0203 19.1278C40.3992 16.9289 43.8462 15.2591 47.3019 15.6062C50.7576 15.9533 53.461 18.7103 52.0298 20.8925C51.7133 16.4822 51.4483 11.8482 55.006 8.00952C56.9645 6.0033 59.5196 4.68369 62.2901 4.24758C69.4594 2.98727 74.2188 7.03861 75.1722 11.1263C75.8755 14.1458 74.9039 17.2144 73.9364 20.2023C76.9182 16.6783 84.0092 15.1104 89.4427 16.7747C94.8762 18.4391 97.8866 23.1 96.0313 26.9742C93.8455 31.5316 86.5582 33.887 79.7892 35.1322C74.1982 36.1609 65.8169 36.1063 59.2228 35.8327Z" fill="#C78BF1"/>
</g>
<path id="Vector" d="M228.414 32.1089C234.79 32.1089 239.96 26.9427 239.96 20.5698C239.96 14.1969 234.79 9.03064 228.414 9.03064C222.037 9.03064 216.867 14.1969 216.867 20.5698C216.867 26.9427 222.037 32.1089 228.414 32.1089Z" fill="#FFBA11"/>
<path id="Vector_2" d="M121.686 131.376C183.347 131.376 233.333 129.595 233.333 127.398C233.333 125.2 183.347 123.419 121.686 123.419C60.0259 123.419 10.0402 125.2 10.0402 127.398C10.0402 129.595 60.0259 131.376 121.686 131.376Z" fill="#E6CCF8"/>
<g id="TREE">
<path id="Vector_3" d="M234.144 86.769C234.144 104.201 223.759 110.288 210.948 110.288C198.136 110.288 187.751 104.201 187.751 86.769C187.751 69.3367 210.948 47.16 210.948 47.16C210.948 47.16 234.144 69.3367 234.144 86.769Z" fill="#2EC32E"/>
<path id="Vector_4" d="M210.103 107.622L210.34 93.0323L220.227 74.9832L210.377 90.7436L210.484 84.1837L217.298 71.1254L210.512 82.4477L210.704 70.6494L218.001 60.2533L210.735 68.794L210.855 47.1601L210.1 75.7996L210.162 74.6181L202.744 63.2871L210.044 76.8861L209.352 90.0628L209.332 89.7131L200.779 77.7889L209.306 90.9486L209.219 92.5965L209.204 92.6213L209.211 92.7566L207.457 126.187H209.8L210.082 108.92L218.587 95.792L210.103 107.622Z" fill="#3E3644"/>
</g>
<g id="Group 6">
<path id="Vector_5" d="M77.5966 105.927C78.0566 106.54 78.5529 107.241 79.0427 108.005L79.1126 104.48L79.1512 104.505C78.6287 104.123 78.055 103.817 77.447 103.595L77.4856 103.616L77.5966 105.927Z" fill="#E6E6E6"/>
<path id="Vector_6" d="M77.4082 103.581C76.7774 103.367 76.1654 103.295 75.6059 103.395C75.5768 103.4 75.5482 103.406 75.5197 103.412C75.6618 103.564 76.4902 104.464 77.5157 105.819L77.4082 103.581Z" fill="#E6E6E6"/>
<path id="Vector_7" d="M81.0994 111.857C81.1748 112.037 81.2465 112.216 81.3145 112.393L82.6091 108.576L82.6464 108.611C82.4935 108.324 82.3314 108.045 82.1602 107.774L81.117 111.873L81.0994 111.857Z" fill="#E6E6E6"/>
<path id="Vector_8" d="M80.3434 110.248L81.0199 106.245L81.0583 106.276C80.5068 105.623 79.8798 105.038 79.1904 104.533L79.1191 108.125C79.5749 108.843 79.983 109.551 80.3434 110.248Z" fill="#E6E6E6"/>
<path id="Vector_9" d="M73.4682 107.416L73.4524 107.367C73.511 107.972 73.6307 108.57 73.8097 109.152L80.0306 109.792C79.7058 109.194 79.3706 108.633 79.0451 108.122L73.4682 107.416Z" fill="#E6E6E6"/>
<path id="Vector_10" d="M73.8409 109.249L73.8245 109.2C73.8874 109.405 73.9579 109.613 74.0361 109.822L74.0193 109.773L80.3154 110.332C80.2394 110.184 80.1625 110.037 80.0847 109.892L73.8409 109.249Z" fill="#E6E6E6"/>
<path id="Vector_11" d="M81.0547 111.753L82.0892 107.688L82.1271 107.722C81.8149 107.231 81.47 106.763 81.0946 106.319L80.4089 110.375C80.6466 110.841 80.8618 111.301 81.0547 111.753Z" fill="#E6E6E6"/>
<path id="Vector_12" d="M81.318 112.597L75.191 112.008C75.5242 112.456 75.887 112.882 76.2771 113.281L76.2619 113.227L81.8625 114.378C81.7168 113.774 81.535 113.18 81.318 112.597V112.597Z" fill="#E6E6E6"/>
<path id="Vector_13" d="M75.4691 103.451L75.4835 103.42C74.6412 103.611 74.0466 104.183 73.7194 105.011L77.4673 105.857C76.3574 104.391 75.4817 103.464 75.4691 103.451Z" fill="#E6E6E6"/>
<path id="Vector_14" d="M81.4279 112.696C81.6202 113.222 81.7838 113.759 81.9177 114.303L83.3767 110.648L83.4124 110.684C83.32 110.176 83.1635 109.681 82.9466 109.212C82.8605 109.028 82.7704 108.846 82.6763 108.668L81.3662 112.531C81.3869 112.586 81.4079 112.641 81.4279 112.696Z" fill="#E6E6E6"/>
<path id="Vector_15" d="M78.9799 108.02C78.4952 107.265 78.0045 106.572 77.5498 105.967L73.7158 105.101L73.7028 105.053C73.4635 105.683 73.3759 106.456 73.4484 107.32L78.9799 108.02Z" fill="#E6E6E6"/>
<path id="Vector_16" d="M75.1166 111.906L81.2786 112.499L81.2798 112.495C81.0125 111.792 80.7074 111.103 80.3659 110.432L74.0543 109.871C74.1615 110.155 74.2826 110.441 74.4176 110.731C74.6144 111.143 74.8483 111.537 75.1166 111.906V111.906Z" fill="#E6E6E6"/>
<path id="Vector_17" d="M90.0087 113.1L90.0227 113.144C89.8641 112.517 89.6178 111.916 89.2912 111.357L89.3072 111.399L87.9171 113.249C87.88 114.014 87.8144 114.87 87.7036 115.77L90.0087 113.1Z" fill="#E6E6E6"/>
<path id="Vector_18" d="M89.27 111.322C88.9213 110.755 88.4955 110.31 88.0009 110.031C87.9752 110.016 87.9494 110.003 87.9235 109.989C87.9357 110.197 87.9993 111.417 87.9233 113.115L89.27 111.322Z" fill="#E6E6E6"/>
<path id="Vector_19" d="M86.827 120.048C86.7702 120.234 86.7114 120.417 86.6505 120.597L90.0857 118.482L90.0917 118.533C90.1574 118.214 90.2109 117.896 90.2522 117.578L86.8307 120.071L86.827 120.048Z" fill="#E6E6E6"/>
<path id="Vector_20" d="M87.2729 118.326L90.3502 115.675L90.3601 115.723C90.3522 114.869 90.2429 114.019 90.0347 113.191L87.6857 115.912C87.578 116.755 87.4404 117.56 87.2729 118.326Z" fill="#E6E6E6"/>
<path id="Vector_21" d="M90.3608 115.779L87.242 118.466C87.1275 118.976 86.9998 119.467 86.8591 119.939L90.2522 117.467L90.26 117.517C90.3327 116.94 90.3664 116.36 90.3608 115.779V115.779Z" fill="#E6E6E6"/>
<path id="Vector_22" d="M84.3417 124.854C84.3444 124.812 84.347 124.769 84.3495 124.725C84.9054 124.064 85.3794 123.338 85.7613 122.563L83.8777 120.219C83.853 120.139 83.8272 120.059 83.8002 119.98L85.8052 122.475C86.0786 121.917 86.3183 121.343 86.5229 120.757L82.5575 116.779C82.5699 116.748 82.5825 116.716 82.5951 116.683L86.5554 120.656L86.5587 120.654C86.8023 119.942 87.0074 119.217 87.1729 118.482L83.2402 114.595C83.2485 114.559 83.2566 114.522 83.2647 114.486L87.1975 118.374C87.2338 118.211 87.2682 118.049 87.3007 117.888L83.3795 113.9C83.3861 113.862 83.3924 113.824 83.3986 113.786L87.3229 117.776C87.4547 117.109 87.5549 116.463 87.6308 115.862L83.7866 111.766L83.8056 111.718C83.7145 111.851 83.626 111.99 83.5398 112.134C83.5421 111.678 83.505 111.224 83.4291 110.775L81.9561 114.464C82.0751 114.973 82.1604 115.489 82.2114 116.009C82.2025 116.097 82.1944 116.185 82.188 116.275L82.2364 116.323C82.2395 116.371 82.2423 116.418 82.2447 116.465L82.1803 116.4C82.1773 116.452 82.175 116.504 82.1728 116.556C82.1426 115.855 82.0463 115.158 81.8852 114.474L76.3257 113.332C76.6057 113.619 76.8992 113.898 77.1992 114.167C76.6169 113.985 76.0128 113.881 75.403 113.86L75.4463 113.869L76.2669 116.032C76.8941 116.472 77.583 116.986 78.2854 117.562L77.2751 114.235C77.3125 114.268 77.35 114.301 77.3876 114.334L78.3953 117.652C79.0511 118.195 79.6582 118.742 80.2165 119.293L79.7535 116.17C79.7859 116.193 79.8182 116.215 79.8504 116.237L80.3185 119.394C80.6887 119.764 81.0356 120.134 81.3592 120.506L81.1347 117.081C81.1666 117.101 81.1978 117.121 81.2285 117.14L81.4553 120.6L81.4337 120.591C81.5611 120.739 81.6846 120.886 81.8042 121.034L81.8476 117.513C81.881 117.533 81.9119 117.551 81.9403 117.567L81.8961 121.149C81.9328 121.195 81.97 121.241 82.0059 121.287C82.3517 121.728 82.6732 122.188 82.969 122.664L82.9899 122.343C83.0157 122.438 83.0415 122.532 83.0674 122.623L83.0555 122.806C83.0986 122.877 83.1405 122.949 83.1817 123.02C83.2139 123.129 83.2457 123.235 83.2772 123.339C83.1859 123.169 83.0905 123.002 82.991 122.836L77.3501 123.466C80.3161 125.024 83.9966 125.763 84.2312 125.809C84.1755 125.563 84.1079 125.32 84.03 125.078C84.0503 125.057 84.0703 125.036 84.0903 125.014C84.0999 125.043 84.1098 125.072 84.1191 125.101C84.1086 125.112 84.0983 125.124 84.0878 125.135C84.0994 125.129 84.1115 125.123 84.1242 125.117C84.1784 125.287 84.227 125.456 84.27 125.625C84.2871 125.488 84.3101 125.28 84.3302 125.017C85.346 124.509 87.977 123.025 89.3128 120.698L85.822 122.601C85.4242 123.411 84.9269 124.167 84.3417 124.854V124.854ZM83.185 119.357L83.1937 119.225L83.2822 119.335L83.2736 119.467L83.185 119.357Z" fill="#E6E6E6"/>
<path id="Vector_23" d="M87.8599 109.987L87.8907 109.972C87.1201 109.583 86.2965 109.645 85.5155 110.074L87.862 113.113C87.9437 111.276 87.8611 110.005 87.8599 109.987Z" fill="#E6E6E6"/>
<path id="Vector_24" d="M86.5445 120.903C86.3566 121.431 86.14 121.948 85.8958 122.452L89.3534 120.567L89.3581 120.617C89.6117 120.167 89.8072 119.686 89.9398 119.186C89.991 118.99 90.0373 118.793 90.0788 118.596L86.6026 120.736C86.5833 120.792 86.5642 120.848 86.5445 120.903Z" fill="#E6E6E6"/>
<path id="Vector_25" d="M87.8557 113.25L85.4553 110.141L85.4762 110.096C84.8898 110.428 84.3286 110.968 83.8328 111.679L87.6457 115.742C87.7547 114.852 87.8192 114.006 87.8557 113.25Z" fill="#E6E6E6"/>
<path id="Vector_26" d="M75.3618 113.859C74.6954 113.85 74.0913 113.971 73.59 114.238C73.5639 114.252 73.5386 114.267 73.5133 114.281C73.6956 114.382 74.7619 114.982 76.1567 115.955L75.3618 113.859Z" fill="#E6E6E6"/>
<path id="Vector_27" d="M78.324 117.672L72.8016 118.722L72.7715 118.68C73.0146 119.238 73.3135 119.77 73.6637 120.268L79.7783 118.957C79.2843 118.488 78.7918 118.058 78.324 117.672Z" fill="#E6E6E6"/>
<path id="Vector_28" d="M80.2162 119.382C80.0979 119.264 79.9793 119.149 79.8606 119.035L73.7235 120.351L73.6927 120.309C73.816 120.485 73.9473 120.66 74.0864 120.835L74.0554 120.794L80.2162 119.382Z" fill="#E6E6E6"/>
<path id="Vector_29" d="M82.9398 122.752C82.6143 122.223 82.2574 121.714 81.8708 121.227L75.8616 122.558C76.3171 122.881 76.7938 123.174 77.2885 123.434L77.2573 123.387L82.9398 122.752Z" fill="#E6E6E6"/>
<path id="Vector_30" d="M73.4773 114.334L73.4814 114.3C72.7395 114.742 72.3511 115.469 72.2963 116.358L76.1225 116.005C74.6131 114.954 73.4933 114.342 73.4773 114.334Z" fill="#E6E6E6"/>
<path id="Vector_31" d="M76.2348 116.084L72.3208 116.445L72.2935 116.403C72.2607 117.075 72.4168 117.838 72.753 118.637L78.2305 117.595C77.5357 117.027 76.8547 116.52 76.2348 116.084Z" fill="#E6E6E6"/>
<path id="Vector_32" d="M81.8029 121.142C81.3308 120.555 80.8274 119.994 80.295 119.461L74.119 120.877C74.3086 121.113 74.5125 121.348 74.7305 121.582C75.0452 121.913 75.3895 122.215 75.7592 122.484L81.8028 121.146L81.8029 121.142Z" fill="#E6E6E6"/>
<path id="Vector_33" d="M77.5966 105.927C78.0566 106.54 78.5529 107.241 79.0427 108.005L79.1126 104.48L79.1512 104.505C78.6287 104.123 78.055 103.817 77.447 103.595L77.4856 103.616L77.5966 105.927Z" fill="#2EC32E"/>
<path id="Vector_34" d="M77.4082 103.581C76.7774 103.367 76.1654 103.295 75.6059 103.395C75.5768 103.4 75.5482 103.406 75.5197 103.412C75.6618 103.564 76.4902 104.464 77.5157 105.819L77.4082 103.581Z" fill="#2EC32E"/>
<path id="Vector_35" d="M81.0994 111.857C81.1748 112.037 81.2465 112.216 81.3145 112.393L82.6091 108.576L82.6464 108.611C82.4935 108.324 82.3314 108.045 82.1602 107.774L81.117 111.873L81.0994 111.857Z" fill="#2EC32E"/>
<path id="Vector_36" d="M80.3434 110.248L81.0199 106.245L81.0583 106.276C80.5068 105.623 79.8798 105.038 79.1904 104.533L79.1191 108.125C79.5749 108.843 79.983 109.551 80.3434 110.248Z" fill="#2EC32E"/>
<path id="Vector_37" d="M73.4682 107.416L73.4524 107.367C73.511 107.972 73.6307 108.57 73.8097 109.152L80.0306 109.792C79.7058 109.194 79.3706 108.633 79.0451 108.122L73.4682 107.416Z" fill="#2EC32E"/>
<path id="Vector_38" d="M73.8409 109.249L73.8245 109.2C73.8874 109.405 73.9579 109.613 74.0361 109.822L74.0193 109.773L80.3154 110.332C80.2394 110.184 80.1625 110.037 80.0847 109.892L73.8409 109.249Z" fill="#2EC32E"/>
<path id="Vector_39" d="M81.0547 111.753L82.0892 107.688L82.1271 107.722C81.8149 107.231 81.47 106.763 81.0946 106.319L80.4089 110.375C80.6466 110.841 80.8618 111.301 81.0547 111.753Z" fill="#2EC32E"/>
<path id="Vector_40" d="M81.318 112.597L75.191 112.008C75.5242 112.456 75.887 112.882 76.2771 113.281L76.2619 113.227L81.8625 114.378C81.7168 113.774 81.535 113.18 81.318 112.597V112.597Z" fill="#2EC32E"/>
<path id="Vector_41" d="M75.4691 103.451L75.4835 103.42C74.6412 103.611 74.0466 104.183 73.7194 105.011L77.4673 105.857C76.3574 104.391 75.4817 103.464 75.4691 103.451Z" fill="#2EC32E"/>
<path id="Vector_42" d="M81.4279 112.696C81.6202 113.222 81.7838 113.759 81.9177 114.303L83.3767 110.648L83.4124 110.684C83.32 110.176 83.1635 109.681 82.9466 109.212C82.8605 109.028 82.7704 108.846 82.6763 108.668L81.3662 112.531C81.3869 112.586 81.4079 112.641 81.4279 112.696Z" fill="#2EC32E"/>
<path id="Vector_43" d="M78.9799 108.02C78.4952 107.265 78.0045 106.572 77.5498 105.967L73.7158 105.101L73.7028 105.053C73.4635 105.683 73.3759 106.456 73.4484 107.32L78.9799 108.02Z" fill="#2EC32E"/>
<path id="Vector_44" d="M75.1166 111.906L81.2786 112.499L81.2798 112.495C81.0125 111.792 80.7074 111.103 80.3659 110.432L74.0543 109.871C74.1615 110.155 74.2826 110.441 74.4176 110.731C74.6144 111.143 74.8483 111.537 75.1166 111.906V111.906Z" fill="#2EC32E"/>
<path id="Vector_45" d="M90.0087 113.1L90.0227 113.144C89.8641 112.517 89.6178 111.916 89.2912 111.357L89.3072 111.399L87.9171 113.249C87.88 114.014 87.8144 114.87 87.7036 115.77L90.0087 113.1Z" fill="#2EC32E"/>
<path id="Vector_46" d="M89.27 111.322C88.9213 110.755 88.4955 110.31 88.0009 110.031C87.9752 110.016 87.9494 110.003 87.9235 109.989C87.9357 110.197 87.9993 111.417 87.9233 113.115L89.27 111.322Z" fill="#2EC32E"/>
<path id="Vector_47" d="M86.827 120.048C86.7702 120.234 86.7114 120.417 86.6505 120.597L90.0857 118.482L90.0917 118.533C90.1574 118.214 90.2109 117.896 90.2522 117.578L86.8307 120.071L86.827 120.048Z" fill="#2EC32E"/>
<path id="Vector_48" d="M87.2729 118.326L90.3502 115.675L90.3601 115.723C90.3522 114.869 90.2429 114.019 90.0347 113.191L87.6857 115.912C87.578 116.755 87.4404 117.56 87.2729 118.326Z" fill="#2EC32E"/>
<path id="Vector_49" d="M90.3608 115.779L87.242 118.466C87.1275 118.976 86.9998 119.467 86.8591 119.939L90.2522 117.467L90.26 117.517C90.3327 116.94 90.3664 116.36 90.3608 115.779V115.779Z" fill="#2EC32E"/>
<path id="Vector_50" d="M84.3417 124.854C84.3444 124.812 84.347 124.769 84.3495 124.725C84.9054 124.064 85.3794 123.338 85.7613 122.563L83.8777 120.219C83.853 120.139 83.8272 120.059 83.8002 119.98L85.8052 122.475C86.0786 121.917 86.3183 121.343 86.5229 120.757L82.5575 116.779C82.5699 116.748 82.5825 116.716 82.5951 116.683L86.5554 120.656L86.5587 120.654C86.8023 119.942 87.0074 119.217 87.1729 118.482L83.2402 114.595C83.2485 114.559 83.2566 114.522 83.2647 114.486L87.1975 118.374C87.2338 118.211 87.2682 118.049 87.3007 117.888L83.3795 113.9C83.3861 113.862 83.3924 113.824 83.3986 113.786L87.3229 117.776C87.4547 117.109 87.5549 116.463 87.6308 115.862L83.7866 111.766L83.8056 111.718C83.7145 111.851 83.626 111.99 83.5398 112.134C83.5421 111.678 83.505 111.224 83.4291 110.775L81.9561 114.464C82.0751 114.973 82.1604 115.489 82.2114 116.009C82.2025 116.097 82.1944 116.185 82.188 116.275L82.2364 116.323C82.2395 116.371 82.2423 116.418 82.2447 116.465L82.1803 116.4C82.1773 116.452 82.175 116.504 82.1728 116.556C82.1426 115.855 82.0463 115.158 81.8852 114.474L76.3257 113.332C76.6057 113.619 76.8992 113.898 77.1992 114.167C76.6169 113.985 76.0128 113.881 75.403 113.86L75.4463 113.869L76.2669 116.032C76.8941 116.472 77.583 116.986 78.2854 117.562L77.2751 114.235C77.3125 114.268 77.35 114.301 77.3876 114.334L78.3953 117.652C79.0511 118.195 79.6582 118.742 80.2165 119.293L79.7535 116.17C79.7859 116.193 79.8182 116.215 79.8504 116.237L80.3185 119.394C80.6887 119.764 81.0356 120.134 81.3592 120.506L81.1347 117.081C81.1666 117.101 81.1978 117.121 81.2285 117.14L81.4553 120.6L81.4337 120.591C81.5611 120.739 81.6846 120.886 81.8042 121.034L81.8476 117.513C81.881 117.533 81.9119 117.551 81.9403 117.567L81.8961 121.149C81.9328 121.195 81.97 121.241 82.0059 121.287C82.3517 121.728 82.6732 122.188 82.969 122.664L82.9899 122.343C83.0157 122.438 83.0415 122.532 83.0674 122.623L83.0555 122.806C83.0986 122.877 83.1405 122.949 83.1817 123.02C83.2139 123.129 83.2457 123.235 83.2772 123.339C83.1859 123.169 83.0905 123.002 82.991 122.836L77.3501 123.466C80.3161 125.024 83.9966 125.763 84.2312 125.809C84.1755 125.563 84.1079 125.32 84.03 125.078C84.0503 125.057 84.0703 125.036 84.0903 125.014C84.0999 125.043 84.1098 125.072 84.1191 125.101C84.1086 125.112 84.0983 125.124 84.0878 125.135C84.0994 125.129 84.1115 125.123 84.1242 125.117C84.1784 125.287 84.227 125.456 84.27 125.625C84.2871 125.488 84.3101 125.28 84.3302 125.017C85.346 124.509 87.977 123.025 89.3128 120.698L85.822 122.601C85.4242 123.411 84.9269 124.167 84.3417 124.854V124.854ZM83.185 119.357L83.1937 119.225L83.2822 119.335L83.2736 119.467L83.185 119.357Z" fill="#2EC32E"/>
<path id="Vector_51" d="M87.8599 109.987L87.8907 109.972C87.1201 109.583 86.2965 109.645 85.5155 110.074L87.862 113.113C87.9437 111.276 87.8611 110.005 87.8599 109.987Z" fill="#2EC32E"/>
<path id="Vector_52" d="M86.5445 120.903C86.3566 121.431 86.14 121.948 85.8958 122.452L89.3534 120.567L89.3581 120.617C89.6117 120.167 89.8072 119.686 89.9398 119.186C89.991 118.99 90.0373 118.793 90.0788 118.596L86.6026 120.736C86.5833 120.792 86.5642 120.848 86.5445 120.903Z" fill="#2EC32E"/>
<path id="Vector_53" d="M87.8557 113.25L85.4553 110.141L85.4762 110.096C84.8898 110.428 84.3286 110.968 83.8328 111.679L87.6457 115.742C87.7547 114.852 87.8192 114.006 87.8557 113.25Z" fill="#2EC32E"/>
<path id="Vector_54" d="M75.3618 113.859C74.6954 113.85 74.0913 113.971 73.59 114.238C73.5639 114.252 73.5386 114.267 73.5133 114.281C73.6956 114.382 74.7619 114.982 76.1567 115.955L75.3618 113.859Z" fill="#2EC32E"/>
<path id="Vector_55" d="M78.324 117.672L72.8016 118.722L72.7715 118.68C73.0146 119.238 73.3135 119.77 73.6637 120.268L79.7783 118.957C79.2843 118.488 78.7918 118.058 78.324 117.672Z" fill="#2EC32E"/>
<path id="Vector_56" d="M80.2162 119.382C80.0979 119.264 79.9793 119.149 79.8606 119.035L73.7235 120.351L73.6927 120.309C73.816 120.485 73.9473 120.66 74.0864 120.835L74.0554 120.794L80.2162 119.382Z" fill="#2EC32E"/>
<path id="Vector_57" d="M82.9398 122.752C82.6143 122.223 82.2574 121.714 81.8708 121.227L75.8616 122.558C76.3171 122.881 76.7938 123.174 77.2885 123.434L77.2573 123.387L82.9398 122.752Z" fill="#2EC32E"/>
<path id="Vector_58" d="M73.4773 114.334L73.4814 114.3C72.7395 114.742 72.3511 115.469 72.2963 116.358L76.1225 116.005C74.6131 114.954 73.4933 114.342 73.4773 114.334Z" fill="#2EC32E"/>
<path id="Vector_59" d="M76.2348 116.084L72.3208 116.445L72.2935 116.403C72.2607 117.075 72.4168 117.838 72.753 118.637L78.2305 117.595C77.5357 117.027 76.8547 116.52 76.2348 116.084Z" fill="#2EC32E"/>
<path id="Vector_60" d="M81.8029 121.142C81.3308 120.555 80.8274 119.994 80.295 119.461L74.119 120.877C74.3086 121.113 74.5125 121.348 74.7305 121.582C75.0452 121.913 75.3895 122.215 75.7592 122.484L81.8028 121.146L81.8029 121.142Z" fill="#2EC32E"/>
</g>
<g id="man">
<path id="Vector_61" d="M59.07 99.876C60.266 96.7528 60.4393 93.9171 59.4569 93.5424C58.4746 93.1676 56.7087 95.3957 55.5126 98.5189C54.3166 101.642 54.1434 104.478 55.1257 104.853C56.1081 105.227 57.874 102.999 59.07 99.876Z" fill="#2F2E41"/>
<path id="Vector_62" d="M58.0531 110.28C59.1263 103.68 54.6351 97.4602 48.0217 96.3891C41.4083 95.3179 35.1771 99.8006 34.1039 106.401C33.0307 113.002 37.5219 119.221 44.1353 120.293C50.7487 121.364 56.9799 116.881 58.0531 110.28Z" fill="#2F2E41"/>
<path id="Vector_63" d="M44.1767 117.398H40.1606V124.422H44.1767V117.398Z" fill="#2F2E41"/>
<path id="Vector_64" d="M51.2048 117.398H48.1927V124.422H51.2048V117.398Z" fill="#2F2E41"/>
<path id="Vector_65" d="M43.1727 125.425C44.8362 125.425 46.1847 124.976 46.1847 124.422C46.1847 123.868 44.8362 123.419 43.1727 123.419C41.5092 123.419 40.1606 123.868 40.1606 124.422C40.1606 124.976 41.5092 125.425 43.1727 125.425Z" fill="#2F2E41"/>
<path id="Vector_66" d="M51.2048 125.425C52.8683 125.425 54.2168 124.976 54.2168 124.422C54.2168 123.868 52.8683 123.419 51.2048 123.419C49.5413 123.419 48.1927 123.868 48.1927 124.422C48.1927 124.976 49.5413 125.425 51.2048 125.425Z" fill="#2F2E41"/>
<path id="Vector_67" d="M34.3178 97.5109C33.3283 93.0919 36.4913 88.6266 41.3827 87.5375C46.2741 86.4484 51.0415 89.1478 52.031 93.5668C53.0205 97.9858 49.7788 99.6157 44.8874 100.705C39.9961 101.794 35.3073 101.93 34.3178 97.5109Z" fill="#A29CFF"/>
<path id="Vector_68" d="M37.8951 105.317C38.3458 104.369 36.2574 102.438 33.2306 101.005C30.2039 99.5726 27.3848 99.1799 26.9342 100.128C26.4835 101.077 28.5719 103.007 31.5986 104.44C34.6254 105.873 37.4444 106.265 37.8951 105.317Z" fill="#2F2E41"/>
</g>
<g id="fie">
<path id="Vector_69" d="M162.176 126.345H87.8235C85.3021 126.343 82.8848 125.34 81.1019 123.558C79.319 121.777 78.3161 119.361 78.3132 116.841V29.5726C78.3161 27.0527 79.319 24.6369 81.1019 22.8551C82.8848 21.0732 85.3021 20.071 87.8235 20.0681H156.997L171.687 31.7698V116.841C171.684 119.361 170.681 121.777 168.898 123.558C167.115 125.34 164.698 126.343 162.176 126.345V126.345Z" fill="#E2DFE4"/>
<path id="Vector_70" d="M87.8235 22.8043C86.0279 22.8063 84.3065 23.5201 83.0369 24.789C81.7672 26.0578 81.053 27.7782 81.051 29.5727V116.841C81.053 118.635 81.7672 120.356 83.0369 121.625C84.3065 122.894 86.0279 123.607 87.8235 123.609H162.176C163.972 123.607 165.693 122.894 166.963 121.625C168.233 120.356 168.947 118.635 168.949 116.841V33.088L156.039 22.8043H87.8235Z" fill="white"/>
<path id="Vector_71" d="M146.663 48.1796H96.8042C96.5961 48.1798 96.39 48.1391 96.1976 48.0596C96.0053 47.9802 95.8305 47.8636 95.6832 47.7166C95.536 47.5696 95.4192 47.3951 95.3395 47.203C95.2598 47.0108 95.2188 46.8048 95.2188 46.5969C95.2188 46.3889 95.2598 46.1829 95.3395 45.9908C95.4192 45.7986 95.536 45.624 95.6832 45.4771C95.8305 45.3301 96.0053 45.2135 96.1976 45.1341C96.39 45.0546 96.5961 45.0139 96.8042 45.0141H146.663C147.083 45.0141 147.486 45.1809 147.783 45.4777C148.08 45.7745 148.247 46.1771 148.247 46.5969C148.247 47.0166 148.08 47.4192 147.783 47.716C147.486 48.0128 147.083 48.1796 146.663 48.1796Z" fill="#E2DFE4"/>
<path id="Vector_72" d="M153.196 53.5213H96.8042C96.5962 53.5213 96.3903 53.4804 96.1981 53.4009C96.006 53.3213 95.8314 53.2047 95.6843 53.0578C95.5373 52.9108 95.4206 52.7363 95.341 52.5443C95.2614 52.3523 95.2205 52.1464 95.2205 51.9386C95.2205 51.7307 95.2614 51.5249 95.341 51.3329C95.4206 51.1409 95.5373 50.9664 95.6843 50.8194C95.8314 50.6724 96.006 50.5559 96.1981 50.4763C96.3903 50.3968 96.5962 50.3558 96.8042 50.3558H153.196C153.404 50.3558 153.61 50.3968 153.802 50.4763C153.994 50.5559 154.169 50.6724 154.316 50.8194C154.463 50.9664 154.579 51.1409 154.659 51.3329C154.738 51.5249 154.779 51.7307 154.779 51.9386C154.779 52.1464 154.738 52.3523 154.659 52.5443C154.579 52.7363 154.463 52.9108 154.316 53.0578C154.169 53.2047 153.994 53.3213 153.802 53.4009C153.61 53.4804 153.404 53.5213 153.196 53.5213Z" fill="#E2DFE4"/>
<path id="Vector_73" d="M146.663 72.1186H96.8042C96.5961 72.1188 96.39 72.078 96.1976 71.9986C96.0053 71.9192 95.8305 71.8026 95.6832 71.6556C95.536 71.5086 95.4192 71.3341 95.3395 71.1419C95.2598 70.9498 95.2188 70.7438 95.2188 70.5358C95.2188 70.3278 95.2598 70.1219 95.3395 69.9297C95.4192 69.7376 95.536 69.563 95.6832 69.416C95.8305 69.269 96.0053 69.1525 96.1976 69.073C96.39 68.9936 96.5961 68.9528 96.8042 68.9531H146.663C147.083 68.9531 147.486 69.1198 147.783 69.4166C148.08 69.7135 148.247 70.1161 148.247 70.5358C148.247 70.9556 148.08 71.3582 147.783 71.655C147.486 71.9518 147.083 72.1186 146.663 72.1186Z" fill="#7C3BA8"/>
<path id="Vector_74" d="M62.5115 108.678L49.6071 60.5473C49.553 60.3465 49.539 60.1369 49.566 59.9307C49.593 59.7245 49.6604 59.5256 49.7644 59.3454C49.8684 59.1652 50.0068 59.0072 50.1719 58.8806C50.337 58.7539 50.5254 58.661 50.7265 58.6072C50.9275 58.5533 51.1372 58.5396 51.3435 58.5668C51.5499 58.594 51.7488 58.6616 51.929 58.7657C52.1092 58.8698 52.2671 59.0084 52.3936 59.1735C52.5202 59.3386 52.6129 59.5271 52.6666 59.728L65.571 107.859C65.6797 108.264 65.6228 108.696 65.4127 109.06C65.2027 109.423 64.8568 109.688 64.4511 109.797C64.0454 109.906 63.6131 109.849 63.2494 109.639C62.8856 109.429 62.6202 109.083 62.5115 108.678Z" fill="#7C3BA8"/>
<path id="Vector_75" d="M153.196 77.4604H96.8042C96.5962 77.4604 96.3903 77.4195 96.1981 77.3399C96.006 77.2604 95.8314 77.1438 95.6843 76.9968C95.5373 76.8499 95.4206 76.6754 95.341 76.4834C95.2614 76.2913 95.2205 76.0855 95.2205 75.8777C95.2205 75.6698 95.2614 75.464 95.341 75.272C95.4206 75.0799 95.5373 74.9055 95.6843 74.7585C95.8314 74.6115 96.006 74.4949 96.1981 74.4154C96.3903 74.3359 96.5962 74.2949 96.8042 74.2949H153.196C153.404 74.2949 153.61 74.3359 153.802 74.4154C153.994 74.4949 154.169 74.6115 154.316 74.7585C154.463 74.9055 154.579 75.0799 154.659 75.272C154.738 75.464 154.779 75.6698 154.779 75.8777C154.779 76.0855 154.738 76.2913 154.659 76.4834C154.579 76.6754 154.463 76.8499 154.316 76.9968C154.169 77.1438 153.994 77.2604 153.802 77.3399C153.61 77.4195 153.404 77.4604 153.196 77.4604Z" fill="#E2DFE4"/>
<path id="Vector_76" d="M146.663 96.0577H96.8042C96.3841 96.0577 95.9813 95.8909 95.6843 95.5941C95.3873 95.2973 95.2205 94.8947 95.2205 94.4749C95.2205 94.0551 95.3873 93.6526 95.6843 93.3557C95.9813 93.0589 96.3841 92.8922 96.8042 92.8922H146.663C147.083 92.8922 147.486 93.0589 147.783 93.3557C148.08 93.6526 148.247 94.0551 148.247 94.4749C148.247 94.8947 148.08 95.2973 147.783 95.5941C147.486 95.8909 147.083 96.0577 146.663 96.0577Z" fill="#E2DFE4"/>
<path id="Vector_77" d="M153.196 101.399H96.8042C96.5961 101.4 96.39 101.359 96.1976 101.279C96.0053 101.2 95.8305 101.084 95.6832 100.937C95.536 100.79 95.4192 100.615 95.3395 100.423C95.2598 100.231 95.2188 100.025 95.2188 99.8167C95.2188 99.6087 95.2598 99.4027 95.3395 99.2106C95.4192 99.0185 95.536 98.8439 95.6832 98.6969C95.8305 98.5499 96.0053 98.4334 96.1976 98.3539C96.39 98.2745 96.5961 98.2337 96.8042 98.2339H153.196C153.616 98.2339 154.019 98.4007 154.316 98.6975C154.613 98.9944 154.78 99.3969 154.78 99.8167C154.78 100.236 154.613 100.639 154.316 100.936C154.019 101.233 153.616 101.399 153.196 101.399Z" fill="#E2DFE4"/>
<path id="Vector_78" d="M171.401 32.1464H159.894C159.478 32.1464 159.066 32.0645 158.681 31.9054C158.297 31.7464 157.948 31.5132 157.654 31.2193C157.36 30.9253 157.126 30.5764 156.967 30.1923C156.808 29.8082 156.726 29.3966 156.726 28.9809V20.4871C156.726 20.4499 156.737 20.4135 156.756 20.382C156.776 20.3505 156.804 20.3252 156.838 20.309C156.871 20.2928 156.909 20.2864 156.946 20.2904C156.983 20.2945 157.018 20.3089 157.047 20.332L171.524 31.7935C171.556 31.819 171.579 31.8539 171.591 31.8933C171.602 31.9328 171.601 31.9748 171.588 32.0136C171.574 32.0524 171.549 32.086 171.515 32.1098C171.482 32.1336 171.442 32.1464 171.401 32.1464V32.1464Z" fill="#E2DFE4"/>
</g>
</g>
<defs>
<filter id="filter0_d" x="212.871" y="133.47" width="30.0803" height="30.0681" filterUnits="userSpaceOnUse" color-interpolation-filters="sRGB">
<feFlood flood-opacity="0" result="BackgroundImageFix"/>
<feColorMatrix in="SourceAlpha" type="matrix" values="0 0 0 0 0 0 0 0 0 0 0 0 0 0 0 0 0 0 127 0"/>
<feOffset/>
<feGaussianBlur stdDeviation="2.5"/>
<feColorMatrix type="matrix" values="0 0 0 0 0 0 0 0 0 0 0 0 0 0 0 0 0 0 0.25 0"/>
<feBlend mode="normal" in2="BackgroundImageFix" result="effect1_dropShadow"/>
<feBlend mode="normal" in="SourceGraphic" in2="effect1_dropShadow" result="shape"/>
</filter>
</defs>
</svg>
