<svg width="269" height="187" viewBox="0 0 269 187" fill="none" xmlns="http://www.w3.org/2000/svg">
<g id="Services Card v2" filter="url(#filter0_d)">
<g id="Book Card">
<rect id="gradient" x="10" y="9" width="249" height="167" rx="9" fill="#FBF7FD"/>
<path id="coud" d="M68.9859 44.8328C60.6389 44.4849 53.0342 41.1048 49.5939 35.8683C49.4331 35.6232 49.2815 35.3746 49.1392 35.1227C47.8832 32.8915 47.4908 30.3266 48.8642 28.1278C50.2376 25.9289 53.6709 24.2591 57.1127 24.6062C60.5546 24.9533 63.2471 27.7103 61.8217 29.8925C61.5065 25.4822 61.2425 20.8482 64.786 17.0095C66.7367 15.0033 69.2816 13.6837 72.0409 13.2476C79.1816 11.9873 83.9219 16.0386 84.8715 20.1263C85.572 23.1458 84.6044 26.2144 83.6407 29.2023C86.6105 25.6783 93.6732 24.1104 99.085 25.7748C104.497 27.4391 107.495 32.1 105.647 35.9743C103.47 40.5316 96.212 42.887 89.4701 44.1322C83.9015 45.1609 75.5537 45.1063 68.9859 44.8328Z" fill="#C78BF1"/>
</g>
<path id="Vector" d="M237.5 41.1089C243.851 41.1089 249 35.9427 249 29.5698C249 23.1969 243.851 18.0306 237.5 18.0306C231.149 18.0306 226 23.1969 226 29.5698C226 35.9427 231.149 41.1089 237.5 41.1089Z" fill="#FFBA11"/>
<path id="Vector_2" d="M131.2 140.376C192.614 140.376 242.399 138.595 242.399 136.398C242.399 134.2 192.614 132.419 131.2 132.419C69.7858 132.419 20 134.2 20 136.398C20 138.595 69.7858 140.376 131.2 140.376Z" fill="#E6CCF8"/>
<g id="TREE">
<path id="Vector_3" d="M243.208 95.769C243.208 113.201 232.864 119.288 220.104 119.288C207.344 119.288 197 113.201 197 95.769C197 78.3367 220.104 56.16 220.104 56.16C220.104 56.16 243.208 78.3367 243.208 95.769Z" fill="#2EC32E"/>
<path id="Vector_4" d="M219.262 116.621L219.499 102.032L229.346 83.9832L219.536 99.7435L219.642 93.1836L226.429 80.1254L219.67 91.4477L219.862 79.6493L227.129 69.2533L219.892 77.794L220.011 56.16L219.26 84.7995L219.322 83.618L211.933 72.2871L219.203 85.886L218.515 99.0627L218.494 98.713L209.976 86.7889L218.469 99.9486L218.382 101.596L218.367 101.621L218.374 101.757L216.627 135.187H218.961L219.241 117.919L227.713 104.792L219.262 116.621Z" fill="#3E3644"/>
</g>
<g id="Group 6">
<path id="Vector_5" d="M87.2862 114.927C87.7443 115.54 88.2386 116.241 88.7265 117.005L88.7961 113.48L88.8345 113.505C88.3142 113.123 87.7428 112.817 87.1372 112.595L87.1756 112.616L87.2862 114.927Z" fill="#E6E6E6"/>
<path id="Vector_6" d="M87.0986 112.581C86.4703 112.367 85.8607 112.295 85.3034 112.395C85.2745 112.4 85.246 112.406 85.2175 112.412C85.3591 112.564 86.1842 113.464 87.2056 114.819L87.0986 112.581Z" fill="#E6E6E6"/>
<path id="Vector_7" d="M90.7749 120.857C90.85 121.037 90.9215 121.216 90.9892 121.393L92.2786 117.576L92.3157 117.611C92.1635 117.324 92.0021 117.045 91.8315 116.774L90.7925 120.873L90.7749 120.857Z" fill="#E6E6E6"/>
<path id="Vector_8" d="M90.0219 119.248L90.6958 115.245L90.734 115.276C90.1847 114.623 89.5602 114.038 88.8736 113.533L88.8026 117.125C89.2566 117.843 89.663 118.551 90.0219 119.248Z" fill="#E6E6E6"/>
<path id="Vector_9" d="M83.1744 116.416L83.1586 116.367C83.217 116.972 83.3362 117.57 83.5145 118.152L89.7105 118.792C89.387 118.194 89.0531 117.633 88.729 117.122L83.1744 116.416Z" fill="#E6E6E6"/>
<path id="Vector_10" d="M83.5455 118.249L83.5291 118.2C83.5918 118.405 83.6621 118.613 83.7399 118.822L83.7232 118.773L89.9941 119.332C89.9184 119.184 89.8418 119.037 89.7643 118.892L83.5455 118.249Z" fill="#E6E6E6"/>
<path id="Vector_11" d="M90.7305 120.753L91.7609 116.688L91.7986 116.722C91.4877 116.231 91.1441 115.763 90.7703 115.319L90.0873 119.375C90.324 119.841 90.5384 120.301 90.7305 120.753Z" fill="#E6E6E6"/>
<path id="Vector_12" d="M90.9927 121.597L84.8903 121.008C85.2221 121.456 85.5835 121.882 85.972 122.281L85.9569 122.227L91.535 123.378C91.3899 122.774 91.2088 122.18 90.9927 121.597Z" fill="#E6E6E6"/>
<path id="Vector_13" d="M85.1672 112.451L85.1816 112.42C84.3427 112.611 83.7504 113.183 83.4245 114.011L87.1575 114.857C86.052 113.391 85.1798 112.464 85.1672 112.451Z" fill="#E6E6E6"/>
<path id="Vector_14" d="M91.1022 121.696C91.2938 122.222 91.4566 122.759 91.5901 123.303L93.0432 119.648L93.0787 119.684C92.9867 119.176 92.8309 118.681 92.6148 118.212C92.5291 118.028 92.4393 117.846 92.3456 117.668L91.0408 121.531C91.0614 121.586 91.0823 121.641 91.1022 121.696Z" fill="#E6E6E6"/>
<path id="Vector_15" d="M88.664 117.02C88.1812 116.265 87.6925 115.572 87.2396 114.967L83.4209 114.101L83.408 114.053C83.1696 114.683 83.0824 115.456 83.1546 116.32L88.664 117.02Z" fill="#E6E6E6"/>
<path id="Vector_16" d="M84.8162 120.906L90.9535 121.499L90.9547 121.495C90.6885 120.792 90.3846 120.103 90.0445 119.432L83.7581 118.871C83.8648 119.155 83.9855 119.441 84.12 119.731C84.3159 120.143 84.5489 120.537 84.8162 120.906Z" fill="#E6E6E6"/>
<path id="Vector_17" d="M99.6486 122.1L99.6626 122.144C99.5046 121.517 99.2593 120.916 98.934 120.357L98.95 120.399L97.5654 122.249C97.5285 123.014 97.4632 123.87 97.3528 124.77L99.6486 122.1Z" fill="#E6E6E6"/>
<path id="Vector_18" d="M98.9129 120.322C98.5657 119.755 98.1415 119.31 97.6489 119.031C97.6233 119.016 97.5976 119.003 97.5718 118.989C97.584 119.197 97.6473 120.417 97.5717 122.115L98.9129 120.322Z" fill="#E6E6E6"/>
<path id="Vector_19" d="M96.4797 129.048C96.4232 129.234 96.3646 129.417 96.304 129.597L99.7254 127.482L99.7314 127.533C99.7968 127.214 99.8501 126.896 99.8912 126.578L96.4834 129.071L96.4797 129.048Z" fill="#E6E6E6"/>
<path id="Vector_20" d="M96.9238 127.326L99.9887 124.675L99.9987 124.723C99.9907 123.869 99.8819 123.019 99.6746 122.191L97.3349 124.912C97.2276 125.755 97.0906 126.56 96.9238 127.326Z" fill="#E6E6E6"/>
<path id="Vector_21" d="M99.9994 124.779L96.8931 127.466C96.779 127.976 96.6518 128.467 96.5117 128.939L99.8912 126.467L99.899 126.517C99.9714 125.94 100.005 125.36 99.9994 124.779Z" fill="#E6E6E6"/>
<path id="Vector_22" d="M94.0043 133.854C94.007 133.812 94.0096 133.769 94.0121 133.725C94.5657 133.064 95.0378 132.338 95.4183 131.563L93.5422 129.219C93.5176 129.139 93.4919 129.059 93.465 128.98L95.4619 131.475C95.7343 130.917 95.973 130.343 96.1768 129.757L92.2273 125.779C92.2396 125.748 92.2521 125.716 92.2647 125.683L96.2092 129.656L96.2125 129.654C96.4551 128.941 96.6593 128.217 96.8242 127.482L92.9072 123.595C92.9155 123.559 92.9236 123.522 92.9316 123.486L96.8487 127.374C96.8848 127.211 96.9191 127.049 96.9515 126.888L93.046 122.9C93.0525 122.862 93.0588 122.824 93.065 122.786L96.9736 126.776C97.1049 126.109 97.2047 125.463 97.2803 124.862L93.4514 120.766L93.4704 120.718C93.3797 120.851 93.2915 120.99 93.2056 121.134C93.2079 120.678 93.171 120.224 93.0954 119.775L91.6283 123.464C91.7468 123.973 91.8318 124.489 91.8825 125.009C91.8737 125.097 91.8656 125.185 91.8593 125.275L91.9075 125.323C91.9105 125.371 91.9134 125.418 91.9157 125.465L91.8516 125.4C91.8486 125.452 91.8463 125.504 91.844 125.556C91.814 124.855 91.7181 124.157 91.5577 123.474L86.0203 122.332C86.2993 122.619 86.5916 122.898 86.8903 123.167C86.3104 122.985 85.7087 122.881 85.1013 122.86L85.1445 122.869L85.9618 125.032C86.5865 125.472 87.2727 125.986 87.9722 126.562L86.9659 123.235C87.0032 123.268 87.0406 123.301 87.0781 123.334L88.0817 126.652C88.7349 127.195 89.3395 127.742 89.8957 128.293L89.4344 125.17C89.4668 125.193 89.4989 125.215 89.5309 125.237L89.9972 128.394C90.3659 128.764 90.7114 129.134 91.0337 129.506L90.8101 126.081C90.8419 126.101 90.873 126.121 90.9036 126.14L91.1295 129.6L91.108 129.591C91.2349 129.739 91.3579 129.886 91.477 130.034L91.5202 126.513C91.5535 126.533 91.5842 126.551 91.6125 126.567L91.5685 130.149C91.6051 130.195 91.6421 130.241 91.6779 130.287C92.0223 130.728 92.3425 131.188 92.6371 131.664L92.658 131.343C92.6836 131.438 92.7093 131.532 92.7351 131.623L92.7232 131.806C92.7662 131.877 92.8079 131.949 92.8489 132.02C92.881 132.129 92.9127 132.235 92.9441 132.338C92.8531 132.169 92.7581 132.002 92.659 131.836L87.0407 132.466C89.9948 134.024 93.6606 134.763 93.8942 134.809C93.8388 134.563 93.7714 134.32 93.6939 134.078C93.7141 134.057 93.734 134.036 93.7539 134.014C93.7635 134.043 93.7733 134.072 93.7826 134.101C93.7721 134.112 93.7619 134.124 93.7514 134.135C93.763 134.129 93.7751 134.123 93.7877 134.117C93.8417 134.287 93.8901 134.456 93.9329 134.625C93.9499 134.488 93.9728 134.28 93.9928 134.017C95.0046 133.509 97.6251 132.025 98.9555 129.698L95.4787 131.601C95.0825 132.411 94.5872 133.167 94.0043 133.854ZM92.8523 128.357L92.8609 128.225L92.9491 128.335L92.9405 128.467L92.8523 128.357Z" fill="#E6E6E6"/>
<path id="Vector_23" d="M97.5084 118.987L97.5391 118.972C96.7715 118.583 95.9513 118.645 95.1734 119.074L97.5105 122.113C97.5919 120.276 97.5096 119.005 97.5084 118.987Z" fill="#E6E6E6"/>
<path id="Vector_24" d="M96.1982 129.903C96.0111 130.431 95.7953 130.948 95.5521 131.452L98.9959 129.567L99.0005 129.617C99.2531 129.167 99.4478 128.686 99.5799 128.186C99.6309 127.99 99.6771 127.793 99.7184 127.596L96.2561 129.736C96.2369 129.792 96.2179 129.848 96.1982 129.903Z" fill="#E6E6E6"/>
<path id="Vector_25" d="M97.5043 122.25L95.1135 119.141L95.1343 119.096C94.5503 119.428 93.9912 119.968 93.4974 120.679L97.2951 124.742C97.4036 123.852 97.4679 123.006 97.5043 122.25Z" fill="#E6E6E6"/>
<path id="Vector_26" d="M85.0603 122.859C84.3966 122.85 83.7949 122.971 83.2957 123.238C83.2697 123.252 83.2444 123.267 83.2192 123.281C83.4008 123.382 84.4628 123.982 85.8521 124.955L85.0603 122.859Z" fill="#E6E6E6"/>
<path id="Vector_27" d="M88.0107 126.672L82.5104 127.722L82.4803 127.68C82.7225 128.238 83.0202 128.77 83.369 129.268L89.4591 127.957C88.9671 127.488 88.4766 127.058 88.0107 126.672Z" fill="#E6E6E6"/>
<path id="Vector_28" d="M89.8953 128.382C89.7774 128.264 89.6594 128.149 89.5411 128.035L83.4285 129.351L83.3979 129.309C83.5207 129.485 83.6514 129.66 83.7901 129.835L83.7592 129.794L89.8953 128.382Z" fill="#E6E6E6"/>
<path id="Vector_29" d="M92.6079 131.752C92.2838 131.223 91.9282 130.714 91.5433 130.227L85.558 131.558C86.0118 131.881 86.4866 132.174 86.9793 132.434L86.9482 132.387L92.6079 131.752Z" fill="#E6E6E6"/>
<path id="Vector_30" d="M83.1833 123.334L83.1875 123.3C82.4486 123.742 82.0617 124.469 82.0071 125.358L85.818 125.005C84.3146 123.954 83.1994 123.342 83.1833 123.334Z" fill="#E6E6E6"/>
<path id="Vector_31" d="M85.9298 125.084L82.0315 125.445L82.0043 125.403C81.9716 126.075 82.1271 126.838 82.462 127.637L87.9175 126.595C87.2255 126.027 86.5472 125.52 85.9298 125.084Z" fill="#E6E6E6"/>
<path id="Vector_32" d="M91.4756 130.142C91.0054 129.555 90.5041 128.994 89.9737 128.461L83.8225 129.877C84.0114 130.113 84.2144 130.348 84.4315 130.582C84.745 130.913 85.0879 131.215 85.4561 131.484L91.4756 130.146L91.4756 130.142Z" fill="#E6E6E6"/>
<path id="Vector_33" d="M87.2862 114.927C87.7443 115.54 88.2386 116.241 88.7265 117.005L88.7961 113.48L88.8345 113.505C88.3142 113.123 87.7428 112.817 87.1372 112.595L87.1756 112.616L87.2862 114.927Z" fill="#2EC32E"/>
<path id="Vector_34" d="M87.0986 112.581C86.4703 112.367 85.8607 112.295 85.3034 112.395C85.2745 112.4 85.246 112.406 85.2175 112.412C85.3591 112.564 86.1842 113.464 87.2056 114.819L87.0986 112.581Z" fill="#2EC32E"/>
<path id="Vector_35" d="M90.7749 120.857C90.85 121.037 90.9215 121.216 90.9892 121.393L92.2786 117.576L92.3157 117.611C92.1635 117.324 92.0021 117.045 91.8315 116.774L90.7925 120.873L90.7749 120.857Z" fill="#2EC32E"/>
<path id="Vector_36" d="M90.0219 119.248L90.6958 115.245L90.734 115.276C90.1847 114.623 89.5602 114.038 88.8736 113.533L88.8026 117.125C89.2566 117.843 89.663 118.551 90.0219 119.248Z" fill="#2EC32E"/>
<path id="Vector_37" d="M83.1744 116.416L83.1586 116.367C83.217 116.972 83.3362 117.57 83.5145 118.152L89.7105 118.792C89.387 118.194 89.0531 117.633 88.729 117.122L83.1744 116.416Z" fill="#2EC32E"/>
<path id="Vector_38" d="M83.5455 118.249L83.5291 118.2C83.5918 118.405 83.6621 118.613 83.7399 118.822L83.7232 118.773L89.9941 119.332C89.9184 119.184 89.8418 119.037 89.7643 118.892L83.5455 118.249Z" fill="#2EC32E"/>
<path id="Vector_39" d="M90.7305 120.753L91.7609 116.688L91.7986 116.722C91.4877 116.231 91.1441 115.763 90.7703 115.319L90.0873 119.375C90.324 119.841 90.5384 120.301 90.7305 120.753Z" fill="#2EC32E"/>
<path id="Vector_40" d="M90.9927 121.597L84.8903 121.008C85.2221 121.456 85.5835 121.882 85.972 122.281L85.9569 122.227L91.535 123.378C91.3899 122.774 91.2088 122.18 90.9927 121.597Z" fill="#2EC32E"/>
<path id="Vector_41" d="M85.1672 112.451L85.1816 112.42C84.3427 112.611 83.7504 113.183 83.4245 114.011L87.1575 114.857C86.052 113.391 85.1798 112.464 85.1672 112.451Z" fill="#2EC32E"/>
<path id="Vector_42" d="M91.1022 121.696C91.2938 122.222 91.4566 122.759 91.5901 123.303L93.0432 119.648L93.0787 119.684C92.9867 119.176 92.8309 118.681 92.6148 118.212C92.5291 118.028 92.4393 117.846 92.3456 117.668L91.0408 121.531C91.0614 121.586 91.0823 121.641 91.1022 121.696Z" fill="#2EC32E"/>
<path id="Vector_43" d="M88.664 117.02C88.1812 116.265 87.6925 115.572 87.2396 114.967L83.4209 114.101L83.408 114.053C83.1696 114.683 83.0824 115.456 83.1546 116.32L88.664 117.02Z" fill="#2EC32E"/>
<path id="Vector_44" d="M84.8162 120.906L90.9535 121.499L90.9547 121.495C90.6885 120.792 90.3846 120.103 90.0445 119.432L83.7581 118.871C83.8648 119.155 83.9855 119.441 84.12 119.731C84.3159 120.143 84.5489 120.537 84.8162 120.906Z" fill="#2EC32E"/>
<path id="Vector_45" d="M99.6486 122.1L99.6626 122.144C99.5046 121.517 99.2593 120.916 98.934 120.357L98.95 120.399L97.5654 122.249C97.5285 123.014 97.4632 123.87 97.3528 124.77L99.6486 122.1Z" fill="#2EC32E"/>
<path id="Vector_46" d="M98.9129 120.322C98.5657 119.755 98.1415 119.31 97.6489 119.031C97.6233 119.016 97.5976 119.003 97.5718 118.989C97.584 119.197 97.6473 120.417 97.5717 122.115L98.9129 120.322Z" fill="#2EC32E"/>
<path id="Vector_47" d="M96.4797 129.048C96.4232 129.234 96.3646 129.417 96.304 129.597L99.7254 127.482L99.7314 127.533C99.7968 127.214 99.8501 126.896 99.8912 126.578L96.4834 129.071L96.4797 129.048Z" fill="#2EC32E"/>
<path id="Vector_48" d="M96.9238 127.326L99.9887 124.675L99.9987 124.723C99.9907 123.869 99.8819 123.019 99.6746 122.191L97.3349 124.912C97.2276 125.755 97.0906 126.56 96.9238 127.326Z" fill="#2EC32E"/>
<path id="Vector_49" d="M99.9994 124.779L96.8931 127.466C96.779 127.976 96.6518 128.467 96.5117 128.939L99.8912 126.467L99.899 126.517C99.9714 125.94 100.005 125.36 99.9994 124.779Z" fill="#2EC32E"/>
<path id="Vector_50" d="M94.0043 133.854C94.007 133.812 94.0096 133.769 94.0121 133.725C94.5657 133.064 95.0378 132.338 95.4183 131.563L93.5422 129.219C93.5176 129.139 93.4919 129.059 93.465 128.98L95.4619 131.475C95.7343 130.917 95.973 130.343 96.1768 129.757L92.2273 125.779C92.2396 125.748 92.2521 125.716 92.2647 125.683L96.2092 129.656L96.2125 129.654C96.4551 128.941 96.6593 128.217 96.8242 127.482L92.9072 123.595C92.9155 123.559 92.9236 123.522 92.9316 123.486L96.8487 127.374C96.8848 127.211 96.9191 127.049 96.9515 126.888L93.046 122.9C93.0525 122.862 93.0588 122.824 93.065 122.786L96.9736 126.776C97.1049 126.109 97.2047 125.463 97.2803 124.862L93.4514 120.766L93.4704 120.718C93.3797 120.851 93.2915 120.99 93.2056 121.134C93.2079 120.678 93.171 120.224 93.0954 119.775L91.6283 123.464C91.7468 123.973 91.8318 124.489 91.8825 125.009C91.8737 125.097 91.8656 125.185 91.8593 125.275L91.9075 125.323C91.9105 125.371 91.9134 125.418 91.9157 125.465L91.8516 125.4C91.8486 125.452 91.8463 125.504 91.844 125.556C91.814 124.855 91.7181 124.157 91.5577 123.474L86.0203 122.332C86.2993 122.619 86.5916 122.898 86.8903 123.167C86.3104 122.985 85.7087 122.881 85.1013 122.86L85.1445 122.869L85.9618 125.032C86.5865 125.472 87.2727 125.986 87.9722 126.562L86.9659 123.235C87.0032 123.268 87.0406 123.301 87.0781 123.334L88.0817 126.652C88.7349 127.195 89.3395 127.742 89.8957 128.293L89.4344 125.17C89.4668 125.193 89.4989 125.215 89.5309 125.237L89.9972 128.394C90.3659 128.764 90.7114 129.134 91.0337 129.506L90.8101 126.081C90.8419 126.101 90.873 126.121 90.9036 126.14L91.1295 129.6L91.108 129.591C91.2349 129.739 91.3579 129.886 91.477 130.034L91.5202 126.513C91.5535 126.533 91.5842 126.551 91.6125 126.567L91.5685 130.149C91.6051 130.195 91.6421 130.241 91.6779 130.287C92.0223 130.728 92.3425 131.188 92.6371 131.664L92.658 131.343C92.6836 131.438 92.7093 131.532 92.7351 131.623L92.7232 131.806C92.7662 131.877 92.8079 131.949 92.8489 132.02C92.881 132.129 92.9127 132.235 92.9441 132.338C92.8531 132.169 92.7581 132.002 92.659 131.836L87.0407 132.466C89.9948 134.024 93.6606 134.763 93.8942 134.809C93.8388 134.563 93.7714 134.32 93.6939 134.078C93.7141 134.057 93.734 134.036 93.7539 134.014C93.7635 134.043 93.7733 134.072 93.7826 134.101C93.7721 134.112 93.7619 134.124 93.7514 134.135C93.763 134.129 93.7751 134.123 93.7877 134.117C93.8417 134.287 93.8901 134.456 93.9329 134.625C93.9499 134.488 93.9728 134.28 93.9928 134.017C95.0046 133.509 97.6251 132.025 98.9555 129.698L95.4787 131.601C95.0825 132.411 94.5872 133.167 94.0043 133.854ZM92.8523 128.357L92.8609 128.225L92.9491 128.335L92.9405 128.467L92.8523 128.357Z" fill="#2EC32E"/>
<path id="Vector_51" d="M97.5084 118.987L97.5391 118.972C96.7715 118.583 95.9513 118.645 95.1734 119.074L97.5105 122.113C97.5919 120.276 97.5096 119.005 97.5084 118.987Z" fill="#2EC32E"/>
<path id="Vector_52" d="M96.1982 129.903C96.0111 130.431 95.7953 130.948 95.5521 131.452L98.9959 129.567L99.0005 129.617C99.2531 129.167 99.4478 128.686 99.5799 128.186C99.6309 127.99 99.6771 127.793 99.7184 127.596L96.2561 129.736C96.2369 129.792 96.2179 129.848 96.1982 129.903Z" fill="#2EC32E"/>
<path id="Vector_53" d="M97.5043 122.25L95.1135 119.141L95.1343 119.096C94.5503 119.428 93.9912 119.968 93.4974 120.679L97.2951 124.742C97.4036 123.852 97.4679 123.006 97.5043 122.25Z" fill="#2EC32E"/>
<path id="Vector_54" d="M85.0603 122.859C84.3966 122.85 83.7949 122.971 83.2957 123.238C83.2697 123.252 83.2444 123.267 83.2192 123.281C83.4008 123.382 84.4628 123.982 85.8521 124.955L85.0603 122.859Z" fill="#2EC32E"/>
<path id="Vector_55" d="M88.0107 126.672L82.5104 127.722L82.4803 127.68C82.7225 128.238 83.0202 128.77 83.369 129.268L89.4591 127.957C88.9671 127.488 88.4766 127.058 88.0107 126.672Z" fill="#2EC32E"/>
<path id="Vector_56" d="M89.8953 128.382C89.7774 128.264 89.6594 128.149 89.5411 128.035L83.4285 129.351L83.3979 129.309C83.5207 129.485 83.6514 129.66 83.7901 129.835L83.7592 129.794L89.8953 128.382Z" fill="#2EC32E"/>
<path id="Vector_57" d="M92.6079 131.752C92.2838 131.223 91.9282 130.714 91.5433 130.227L85.558 131.558C86.0118 131.881 86.4866 132.174 86.9793 132.434L86.9482 132.387L92.6079 131.752Z" fill="#2EC32E"/>
<path id="Vector_58" d="M83.1833 123.334L83.1875 123.3C82.4486 123.742 82.0617 124.469 82.0071 125.358L85.818 125.005C84.3146 123.954 83.1994 123.342 83.1833 123.334Z" fill="#2EC32E"/>
<path id="Vector_59" d="M85.9298 125.084L82.0315 125.445L82.0043 125.403C81.9716 126.075 82.1271 126.838 82.462 127.637L87.9175 126.595C87.2255 126.027 86.5472 125.52 85.9298 125.084Z" fill="#2EC32E"/>
<path id="Vector_60" d="M91.4756 130.142C91.0054 129.555 90.5041 128.994 89.9737 128.461L83.8225 129.877C84.0114 130.113 84.2144 130.348 84.4315 130.582C84.745 130.913 85.0879 131.215 85.4561 131.484L91.4756 130.146L91.4756 130.142Z" fill="#2EC32E"/>
</g>
<g id="man">
<path id="Vector_61" d="M68.8337 108.876C70.025 105.753 70.1975 102.917 69.2191 102.542C68.2407 102.168 66.4819 104.396 65.2906 107.519C64.0994 110.642 63.9268 113.478 64.9052 113.853C65.8836 114.227 67.6425 111.999 68.8337 108.876Z" fill="#2F2E41"/>
<path id="Vector_62" d="M67.8208 119.28C68.8897 112.68 64.4165 106.46 57.8295 105.389C51.2426 104.318 45.0363 108.801 43.9674 115.401C42.8984 122.002 47.3717 128.222 53.9586 129.293C60.5456 130.364 66.7519 125.881 67.8208 119.28Z" fill="#2F2E41"/>
<path id="Vector_63" d="M54 126.398H50V133.422H54V126.398Z" fill="#2F2E41"/>
<path id="Vector_64" d="M61 126.398H58V133.422H61V126.398Z" fill="#2F2E41"/>
<path id="Vector_65" d="M53 134.426C54.6569 134.426 56 133.976 56 133.422C56 132.868 54.6569 132.419 53 132.419C51.3431 132.419 50 132.868 50 133.422C50 133.976 51.3431 134.426 53 134.426Z" fill="#2F2E41"/>
<path id="Vector_66" d="M61 134.426C62.6569 134.426 64 133.976 64 133.422C64 132.868 62.6569 132.419 61 132.419C59.3431 132.419 58 132.868 58 133.422C58 133.976 59.3431 134.426 61 134.426Z" fill="#2F2E41"/>
<path id="Vector_67" d="M44.1804 106.511C43.1949 102.092 46.3453 97.6267 51.2171 96.5375C56.0889 95.4484 60.8372 98.1478 61.8228 102.567C62.8083 106.986 59.5796 108.616 54.7078 109.705C49.836 110.794 45.166 110.93 44.1804 106.511Z" fill="#A29CFF"/>
<path id="Vector_68" d="M47.7435 114.317C48.1924 113.369 46.1124 111.438 43.0977 110.005C40.083 108.573 37.2753 108.18 36.8264 109.128C36.3775 110.077 38.4575 112.007 41.4722 113.44C44.4869 114.873 47.2946 115.265 47.7435 114.317Z" fill="#2F2E41"/>
</g>
<g id="fie">
<path id="Vector_69" d="M171.528 135.345H97.4722C94.9609 135.342 92.5532 134.34 90.7775 132.558C89.0017 130.777 88.0028 128.361 88 125.841V38.5726C88.0028 36.0527 89.0017 33.6368 90.7775 31.855C92.5532 30.0732 94.9609 29.0709 97.4722 29.0681H166.369L181 40.7698V125.841C180.997 128.361 179.998 130.777 178.223 132.558C176.447 134.34 174.039 135.342 171.528 135.345Z" fill="#E2DFE4"/>
<path id="Vector_70" d="M97.4722 31.8043C95.6838 31.8063 93.9693 32.52 92.7047 33.7889C91.4401 35.0578 90.7288 36.7782 90.7268 38.5726V125.841C90.7288 127.635 91.4401 129.356 92.7047 130.625C93.9693 131.893 95.6838 132.607 97.4722 132.609H171.528C173.316 132.607 175.031 131.893 176.295 130.625C177.56 129.356 178.271 127.635 178.273 125.841V42.088L165.415 31.8043H97.4722Z" fill="white"/>
<path id="Vector_71" d="M156.076 57.1795H106.417C106.21 57.1798 106.004 57.139 105.813 57.0596C105.621 56.9801 105.447 56.8636 105.3 56.7166C105.154 56.5696 105.037 56.395 104.958 56.2029C104.879 56.0108 104.838 55.8048 104.838 55.5968C104.838 55.3888 104.879 55.1828 104.958 54.9907C105.037 54.7986 105.154 54.624 105.3 54.477C105.447 54.33 105.621 54.2135 105.813 54.134C106.004 54.0546 106.21 54.0138 106.417 54.014H156.076C156.495 54.014 156.896 54.1808 157.192 54.4776C157.487 54.7744 157.654 55.177 157.654 55.5968C157.654 56.0166 157.487 56.4191 157.192 56.716C156.896 57.0128 156.495 57.1795 156.076 57.1795Z" fill="#E2DFE4"/>
<path id="Vector_72" d="M162.583 62.5213H106.417C106.21 62.5213 106.005 62.4804 105.813 62.4008C105.622 62.3213 105.448 62.2047 105.302 62.0577C105.155 61.9107 105.039 61.7363 104.96 61.5442C104.88 61.3522 104.84 61.1464 104.84 60.9386C104.84 60.7307 104.88 60.5249 104.96 60.3329C105.039 60.1408 105.155 59.9663 105.302 59.8194C105.448 59.6724 105.622 59.5558 105.813 59.4763C106.005 59.3967 106.21 59.3558 106.417 59.3558H162.583C162.79 59.3558 162.995 59.3967 163.187 59.4763C163.378 59.5558 163.552 59.6724 163.698 59.8194C163.845 59.9663 163.961 60.1408 164.04 60.3329C164.12 60.5249 164.16 60.7307 164.16 60.9386C164.16 61.1464 164.12 61.3522 164.04 61.5442C163.961 61.7363 163.845 61.9107 163.698 62.0577C163.552 62.2047 163.378 62.3213 163.187 62.4008C162.995 62.4804 162.79 62.5213 162.583 62.5213Z" fill="#E2DFE4"/>
<path id="Vector_73" d="M156.076 81.1186H106.417C106.21 81.1188 106.004 81.078 105.813 80.9986C105.621 80.9192 105.447 80.8026 105.3 80.6556C105.154 80.5086 105.037 80.3341 104.958 80.1419C104.879 79.9498 104.838 79.7438 104.838 79.5358C104.838 79.3278 104.879 79.1219 104.958 78.9297C105.037 78.7376 105.154 78.563 105.3 78.416C105.447 78.269 105.621 78.1525 105.813 78.073C106.004 77.9936 106.21 77.9528 106.417 77.9531H156.076C156.495 77.9531 156.896 78.1198 157.192 78.4166C157.487 78.7135 157.654 79.116 157.654 79.5358C157.654 79.9556 157.487 80.3582 157.192 80.655C156.896 80.9518 156.495 81.1186 156.076 81.1186Z" fill="#7C3BA8"/>
<path id="Vector_74" d="M72.2615 117.678L59.4087 69.5473C59.3548 69.3464 59.3409 69.1369 59.3678 68.9306C59.3947 68.7244 59.4618 68.5255 59.5654 68.3453C59.6689 68.1651 59.8068 68.0072 59.9713 67.8805C60.1357 67.7538 60.3234 67.6609 60.5236 67.6071C60.7238 67.5533 60.9327 67.5396 61.1382 67.5668C61.3437 67.594 61.5419 67.6616 61.7213 67.7657C61.9008 67.8698 62.058 68.0083 62.1841 68.1735C62.3101 68.3386 62.4025 68.527 62.456 68.728L75.3087 116.858C75.417 117.264 75.3603 117.696 75.1511 118.059C74.942 118.423 74.5974 118.688 74.1933 118.797C73.7893 118.906 73.3587 118.849 72.9964 118.639C72.6341 118.429 72.3697 118.083 72.2615 117.678Z" fill="#7C3BA8"/>
<path id="Vector_75" d="M162.583 86.4604H106.417C106.21 86.4604 106.005 86.4195 105.813 86.3399C105.622 86.2604 105.448 86.1438 105.302 85.9968C105.155 85.8499 105.039 85.6754 104.96 85.4833C104.88 85.2913 104.84 85.0855 104.84 84.8777C104.84 84.6698 104.88 84.464 104.96 84.272C105.039 84.0799 105.155 83.9055 105.302 83.7585C105.448 83.6115 105.622 83.4949 105.813 83.4154C106.005 83.3359 106.21 83.2949 106.417 83.2949H162.583C162.79 83.2949 162.995 83.3359 163.187 83.4154C163.378 83.4949 163.552 83.6115 163.698 83.7585C163.845 83.9055 163.961 84.0799 164.04 84.272C164.12 84.464 164.16 84.6698 164.16 84.8777C164.16 85.0855 164.12 85.2913 164.04 85.4833C163.961 85.6754 163.845 85.8499 163.698 85.9968C163.552 86.1438 163.378 86.2604 163.187 86.3399C162.995 86.4195 162.79 86.4604 162.583 86.4604Z" fill="#E2DFE4"/>
<path id="Vector_76" d="M156.076 105.058H106.417C105.999 105.058 105.597 104.891 105.302 104.594C105.006 104.297 104.84 103.895 104.84 103.475C104.84 103.055 105.006 102.653 105.302 102.356C105.597 102.059 105.999 101.892 106.417 101.892H156.076C156.495 101.892 156.896 102.059 157.192 102.356C157.487 102.653 157.654 103.055 157.654 103.475C157.654 103.895 157.487 104.297 157.192 104.594C156.896 104.891 156.495 105.058 156.076 105.058Z" fill="#E2DFE4"/>
<path id="Vector_77" d="M162.583 110.399H106.417C106.21 110.4 106.004 110.359 105.813 110.279C105.621 110.2 105.447 110.083 105.3 109.936C105.154 109.789 105.037 109.615 104.958 109.423C104.879 109.231 104.838 109.025 104.838 108.817C104.838 108.609 104.879 108.403 104.958 108.211C105.037 108.018 105.154 107.844 105.3 107.697C105.447 107.55 105.621 107.433 105.813 107.354C106.004 107.274 106.21 107.234 106.417 107.234H162.583C163.001 107.234 163.403 107.401 163.698 107.697C163.994 107.994 164.16 108.397 164.16 108.817C164.16 109.236 163.994 109.639 163.698 109.936C163.403 110.233 163.001 110.399 162.583 110.399Z" fill="#E2DFE4"/>
<path id="Vector_78" d="M180.715 41.1464H169.254C168.84 41.1464 168.43 41.0645 168.047 40.9054C167.664 40.7464 167.316 40.5132 167.023 40.2192C166.73 39.9253 166.498 39.5763 166.339 39.1923C166.181 38.8082 166.099 38.3966 166.099 37.9809V29.4871C166.099 29.4499 166.11 29.4135 166.129 29.3819C166.149 29.3504 166.177 29.3251 166.211 29.309C166.244 29.2928 166.281 29.2863 166.318 29.2904C166.355 29.2945 166.39 29.3089 166.419 29.332L180.838 40.7935C180.87 40.819 180.893 40.8539 180.905 40.8933C180.916 40.9328 180.915 40.9748 180.901 41.0136C180.888 41.0524 180.863 41.086 180.829 41.1098C180.796 41.1336 180.756 41.1464 180.715 41.1464Z" fill="#E2DFE4"/>
</g>
</g>
<defs>
<filter id="filter0_d" x="0" y="0" width="269" height="187" filterUnits="userSpaceOnUse" color-interpolation-filters="sRGB">
<feFlood flood-opacity="0" result="BackgroundImageFix"/>
<feColorMatrix in="SourceAlpha" type="matrix" values="0 0 0 0 0 0 0 0 0 0 0 0 0 0 0 0 0 0 127 0"/>
<feOffset dy="1"/>
<feGaussianBlur stdDeviation="5"/>
<feColorMatrix type="matrix" values="0 0 0 0 0 0 0 0 0 0 0 0 0 0 0 0 0 0 0.25 0"/>
<feBlend mode="normal" in2="BackgroundImageFix" result="effect1_dropShadow"/>
<feBlend mode="normal" in="SourceGraphic" in2="effect1_dropShadow" result="shape"/>
</filter>
</defs>
</svg>
