<svg width="99" height="100" viewBox="0 0 99 100" fill="none" xmlns="http://www.w3.org/2000/svg">
<path d="M99 50.0016C98.9997 59.8907 96.0962 69.5576 90.6568 77.7798C85.2174 86.0021 77.4864 92.4105 68.4414 96.1946C59.3963 99.9787 49.4435 100.968 39.8415 99.0389C30.2395 97.1094 21.4196 92.347 14.4971 85.3542C7.57461 78.3613 2.8605 69.452 0.950841 59.7529C-0.958817 50.0538 0.021761 40.0005 3.76859 30.8643C7.51542 21.7282 13.8602 13.9194 22.0006 8.42563C30.141 2.93183 39.7114 -0.000319015 49.5016 2.60329e-08C56.002 0.000211862 62.4388 1.29372 68.4443 3.80665C74.4498 6.31958 79.9066 10.0027 84.5029 14.6458C89.0993 19.2889 92.7452 24.801 95.2326 30.8673C97.7201 36.9337 99.0002 43.4355 99 50.0016ZM43.7796 76.4677L80.4982 39.3781C80.7954 39.0787 81.0312 38.7231 81.1921 38.3316C81.353 37.94 81.4358 37.5202 81.4358 37.0963C81.4358 36.6724 81.353 36.2526 81.1921 35.8611C81.0312 35.4695 80.7954 35.1139 80.4982 34.8145L75.9803 30.2843C75.6845 29.9844 75.333 29.7463 74.9459 29.5839C74.5588 29.4215 74.1437 29.3379 73.7246 29.3379C73.3054 29.3379 72.8904 29.4215 72.5033 29.5839C72.1162 29.7463 71.7646 29.9844 71.4688 30.2843L41.5209 60.5353L27.5376 46.3774C26.9373 45.7745 26.1251 45.436 25.2786 45.436C24.432 45.436 23.6199 45.7745 23.0197 46.3774L18.5018 50.9679C17.9048 51.5742 17.5698 52.3945 17.5698 53.2496C17.5698 54.1047 17.9048 54.9251 18.5018 55.5314L39.2627 76.4945C39.5591 76.7947 39.9112 77.0329 40.2988 77.1954C40.6864 77.3579 41.102 77.4415 41.5217 77.4415C41.9413 77.4415 42.3569 77.3579 42.7446 77.1954C43.1322 77.0329 43.4843 76.7947 43.7806 76.4945L43.7796 76.4677Z" fill="#2EC32E"/>
</svg>
