<svg width="330" height="208" viewBox="0 0 330 208" fill="none" xmlns="http://www.w3.org/2000/svg">
<path d="M330 85.1884H329.443V69.9208C329.443 68.7603 329.215 67.6113 328.77 66.5392C328.326 65.4671 327.675 64.4929 326.855 63.6724C326.034 62.8518 325.06 62.2009 323.988 61.7569C322.916 61.3128 321.767 61.0842 320.607 61.0842H288.26C287.099 61.0842 285.95 61.3128 284.878 61.7569C283.806 62.2009 282.832 62.8518 282.012 63.6724C281.191 64.4929 280.54 65.4671 280.096 66.5392C279.652 67.6113 279.423 68.7603 279.423 69.9208V153.68C279.423 154.841 279.652 155.99 280.096 157.062C280.54 158.134 281.191 159.108 282.012 159.929C282.832 160.749 283.806 161.4 284.878 161.844C285.95 162.288 287.099 162.517 288.26 162.517H320.607C321.767 162.517 322.916 162.288 323.988 161.844C325.06 161.4 326.034 160.749 326.855 159.929C327.675 159.108 328.326 158.134 328.77 157.062C329.215 155.99 329.443 154.841 329.443 153.68V96.0563H330V85.1884Z" fill="#3E3644"/>
<path d="M327.562 70.4398V154.078C327.562 155.828 326.867 157.507 325.629 158.744C324.392 159.982 322.713 160.678 320.962 160.678H288.46C287.594 160.678 286.736 160.507 285.935 160.175C285.135 159.843 284.407 159.357 283.795 158.744C283.182 158.131 282.696 157.404 282.365 156.603C282.033 155.802 281.863 154.944 281.863 154.078V70.4398C281.863 68.6901 282.558 67.0122 283.796 65.775C285.033 64.5378 286.711 63.8428 288.46 63.8428H292.403C292.21 64.3188 292.136 64.835 292.189 65.3461C292.242 65.8572 292.419 66.3476 292.706 66.774C292.993 67.2004 293.38 67.5499 293.833 67.7917C294.286 68.0335 294.792 68.1603 295.306 68.1608H313.838C314.352 68.1618 314.859 68.036 315.313 67.7946C315.767 67.5532 316.155 67.2036 316.442 66.7767C316.729 66.3498 316.906 65.8588 316.958 65.3471C317.01 64.8354 316.935 64.3187 316.74 63.8428H320.962C322.712 63.8427 324.391 64.5376 325.628 65.7747C326.866 67.0118 327.562 68.6898 327.562 70.4398Z" fill="#F3E1FF"/>
<path d="M321.409 106.663H283.626V116.859H321.409V106.663Z" fill="#C78BF1"/>
<path d="M322.909 115.06H286.325C286.087 115.059 285.858 114.965 285.69 114.796C285.521 114.627 285.426 114.399 285.426 114.16V105.164C285.426 104.926 285.521 104.697 285.69 104.528C285.858 104.36 286.087 104.265 286.325 104.265H322.909C323.147 104.265 323.376 104.36 323.545 104.528C323.713 104.697 323.808 104.926 323.808 105.164V114.16C323.808 114.399 323.713 114.627 323.545 114.796C323.376 114.965 323.147 115.059 322.909 115.06ZM286.325 104.864C286.246 104.864 286.17 104.896 286.113 104.952C286.057 105.009 286.026 105.085 286.026 105.164V114.16C286.026 114.24 286.057 114.316 286.113 114.372C286.17 114.428 286.246 114.46 286.325 114.46H322.909C322.988 114.46 323.064 114.428 323.121 114.372C323.177 114.316 323.208 114.24 323.209 114.16V105.164C323.208 105.085 323.177 105.009 323.121 104.952C323.064 104.896 322.988 104.864 322.909 104.864H286.325Z" fill="#3E3644"/>
<path d="M292.622 112.361H287.824V112.961H292.622V112.361Z" fill="#3E3644"/>
<path d="M299.219 112.361H294.421V112.961H299.219V112.361Z" fill="#3E3644"/>
<path d="M305.816 112.361H301.018V112.961H305.816V112.361Z" fill="#3E3644"/>
<path d="M312.413 112.361H307.615V112.961H312.413V112.361Z" fill="#3E3644"/>
<path d="M319.01 112.361H314.212V112.961H319.01V112.361Z" fill="#3E3644"/>
<path d="M327.562 145.574V154.078C327.562 155.828 326.867 157.507 325.629 158.745C324.392 159.982 322.713 160.678 320.962 160.678H288.46C287.594 160.678 286.736 160.507 285.935 160.175C285.135 159.844 284.407 159.357 283.795 158.744C283.182 158.132 282.696 157.404 282.365 156.603C282.033 155.803 281.863 154.945 281.863 154.078V114.958L327.562 145.574Z" fill="#E6CCF8"/>
<path d="M171.777 137.849H29.9414V207.418H171.777V137.849Z" fill="#F3E1FF"/>
<path d="M135.718 207.418H30.5411C30.3822 207.417 30.2299 207.354 30.1176 207.242C30.0052 207.129 29.9419 206.977 29.9414 206.818V138.449C29.9419 138.29 30.0052 138.138 30.1176 138.026C30.2299 137.913 30.3822 137.85 30.5411 137.849H31.8725L135.718 207.418Z" fill="#E6CCF8"/>
<path d="M315.412 147.145H95.6123V147.745H315.412V147.145Z" fill="#3E3644"/>
<path d="M165.103 1.29474H102.284V0H73.8001V1.29474H10.7228C10.1648 1.29474 9.61226 1.40465 9.09672 1.61819C8.58119 1.83173 8.11276 2.14472 7.71819 2.53929C7.32362 2.93387 7.01062 3.40229 6.79708 3.91783C6.58354 4.43336 6.47363 4.98591 6.47363 5.54392V91.5615C6.47363 92.6885 6.92131 93.7693 7.71819 94.5661C8.51506 95.363 9.59586 95.8107 10.7228 95.8107H165.103C166.23 95.8107 167.31 95.363 168.107 94.5661C168.904 93.7693 169.352 92.6885 169.352 91.5615V5.54392C169.352 4.98591 169.242 4.43336 169.028 3.91783C168.815 3.40229 168.502 2.93387 168.107 2.53929C167.713 2.14472 167.244 1.83173 166.729 1.61819C166.213 1.40465 165.661 1.29474 165.103 1.29474V1.29474Z" fill="#3E3644"/>
<path d="M163.654 8.80322H12.1719V94.2583H163.654V8.80322Z" fill="#F3E1FF"/>
<path d="M87.7832 6.47359C88.6413 6.47359 89.3369 5.77798 89.3369 4.9199C89.3369 4.06182 88.6413 3.36621 87.7832 3.36621C86.9251 3.36621 86.2295 4.06182 86.2295 4.9199C86.2295 5.77798 86.9251 6.47359 87.7832 6.47359Z" fill="#C78BF1"/>
<path d="M57.2294 40.6934H53.631C53.3925 40.6932 53.1639 40.5983 52.9952 40.4297C52.8266 40.261 52.7317 40.0324 52.7314 39.7938V36.1955C52.7317 35.957 52.8266 35.7283 52.9952 35.5597C53.1639 35.391 53.3925 35.2962 53.631 35.2959H57.2294C57.4679 35.2962 57.6966 35.391 57.8652 35.5597C58.0339 35.7283 58.1287 35.957 58.129 36.1955V39.7938C58.1287 40.0324 58.0339 40.261 57.8652 40.4297C57.6966 40.5983 57.4679 40.6932 57.2294 40.6934V40.6934ZM53.631 35.8956C53.5515 35.8957 53.4753 35.9274 53.4191 35.9836C53.3629 36.0398 53.3313 36.116 53.3312 36.1955V39.7938C53.3313 39.8733 53.3629 39.9496 53.4191 40.0058C53.4753 40.062 53.5515 40.0936 53.631 40.0937H57.2294C57.3089 40.0936 57.3851 40.062 57.4413 40.0058C57.4975 39.9496 57.5292 39.8733 57.5293 39.7938V36.1955C57.5292 36.116 57.4975 36.0398 57.4413 35.9836C57.3851 35.9274 57.3089 35.8957 57.2294 35.8956H53.631Z" fill="#3E3644"/>
<path d="M121.4 40.0938H53.0312V40.6935H121.4V40.0938Z" fill="#3E3644"/>
<path d="M119.601 56.5862H103.708V61.384H119.601V56.5862Z" fill="#C78BF1"/>
<path d="M120.801 60.1847H106.108C105.869 60.1844 105.64 60.0895 105.472 59.9209C105.303 59.7522 105.208 59.5236 105.208 59.2851V55.6867C105.208 55.4482 105.303 55.2195 105.472 55.0509C105.64 54.8822 105.869 54.7874 106.108 54.7871H120.801C121.039 54.7874 121.268 54.8822 121.437 55.0509C121.605 55.2195 121.7 55.4482 121.7 55.6867V59.2851C121.7 59.5236 121.605 59.7522 121.437 59.9209C121.268 60.0895 121.039 60.1844 120.801 60.1847V60.1847ZM106.108 55.3868C106.028 55.3869 105.952 55.4186 105.896 55.4748C105.839 55.531 105.808 55.6072 105.808 55.6867V59.2851C105.808 59.3646 105.839 59.4408 105.896 59.497C105.952 59.5532 106.028 59.5848 106.108 59.5849H120.801C120.88 59.5848 120.957 59.5532 121.013 59.497C121.069 59.4408 121.101 59.3646 121.101 59.2851V55.6867C121.101 55.6072 121.069 55.531 121.013 55.4748C120.957 55.4186 120.88 55.3869 120.801 55.3868H106.108Z" fill="#3E3644"/>
<path d="M241.045 61.9839H211.059V82.9743H241.045V61.9839Z" fill="#C78BF1"/>
<path d="M244.044 81.3249H215.258C214.94 81.3246 214.635 81.1981 214.41 80.9732C214.185 80.7483 214.058 80.4435 214.058 80.1254V60.3345C214.058 60.0165 214.185 59.7116 214.41 59.4867C214.635 59.2618 214.94 59.1353 215.258 59.135H244.044C244.362 59.1353 244.667 59.2618 244.892 59.4867C245.117 59.7116 245.244 60.0165 245.244 60.3345V80.1254C245.244 80.4435 245.117 80.7483 244.892 80.9732C244.667 81.1981 244.362 81.3246 244.044 81.3249V81.3249ZM215.258 60.3345V80.1254H244.045L244.044 60.3345H215.258Z" fill="#3E3644"/>
<path d="M240.746 59.5849H239.546C239.546 56.9605 238.504 54.4435 236.648 52.5878C234.792 50.732 232.275 49.6894 229.651 49.6894C227.026 49.6894 224.509 50.732 222.653 52.5878C220.798 54.4435 219.755 56.9605 219.755 59.5849H218.556C218.556 56.6424 219.725 53.8203 221.805 51.7396C223.886 49.6589 226.708 48.49 229.651 48.49C232.593 48.49 235.415 49.6589 237.496 51.7396C239.577 53.8203 240.746 56.6424 240.746 59.5849V59.5849Z" fill="#3E3644"/>
<path d="M232.65 67.8313C232.65 67.3091 232.515 66.7958 232.256 66.3422C231.997 65.8886 231.625 65.5104 231.175 65.2451C230.725 64.9798 230.214 64.8365 229.692 64.8294C229.17 64.8223 228.655 64.9517 228.198 65.2047C227.741 65.4577 227.358 65.8257 227.087 66.2721C226.817 66.7185 226.667 67.2279 226.653 67.7499C226.64 68.2719 226.763 68.7884 227.01 69.2482C227.257 69.7081 227.621 70.0954 228.064 70.3719V73.5904C228.064 73.7989 228.105 74.0053 228.184 74.1979C228.264 74.3905 228.381 74.5655 228.529 74.7129C228.676 74.8603 228.851 74.9773 229.044 75.0571C229.236 75.1368 229.443 75.1779 229.651 75.1779V75.1779C230.072 75.1779 230.476 75.0106 230.774 74.7129C231.071 74.4152 231.239 74.0114 231.239 73.5904V70.3719C231.67 70.1031 232.026 69.7288 232.273 69.2843C232.52 68.8398 232.65 68.3397 232.65 67.8313V67.8313Z" fill="#3E3644"/>
<path d="M90.0644 168.735H85.2666V169.335H90.0644V168.735Z" fill="#3E3644"/>
<path d="M96.6611 168.735H91.8633V169.335H96.6611V168.735Z" fill="#3E3644"/>
<path d="M103.259 168.735H98.4609V169.335H103.259V168.735Z" fill="#3E3644"/>
<path d="M109.855 168.735H105.058V169.335H109.855V168.735Z" fill="#3E3644"/>
<path d="M116.452 168.735H111.654V169.335H116.452V168.735Z" fill="#3E3644"/>
<path d="M178.074 202.32H37.4387C37.1207 202.32 36.8158 202.193 36.5909 201.968C36.3661 201.743 36.2396 201.439 36.2393 201.121V132.752C36.2396 132.434 36.3661 132.129 36.5909 131.904C36.8158 131.679 37.1207 131.553 37.4387 131.552H178.074C178.393 131.553 178.697 131.679 178.922 131.904C179.147 132.129 179.274 132.434 179.274 132.752V201.121C179.274 201.439 179.147 201.743 178.922 201.968C178.697 202.193 178.393 202.32 178.074 202.32V202.32ZM37.4387 132.752V201.121H178.075L178.074 132.752H37.4387Z" fill="#3E3644"/>
<path d="M43.7357 142.947C44.7294 142.947 45.5349 142.141 45.5349 141.148C45.5349 140.154 44.7294 139.349 43.7357 139.349C42.742 139.349 41.9365 140.154 41.9365 141.148C41.9365 142.141 42.742 142.947 43.7357 142.947Z" fill="#3E3644"/>
<path d="M50.0326 142.947C51.0262 142.947 51.8318 142.141 51.8318 141.148C51.8318 140.154 51.0262 139.349 50.0326 139.349C49.0389 139.349 48.2334 140.154 48.2334 141.148C48.2334 142.141 49.0389 142.947 50.0326 142.947Z" fill="#3E3644"/>
<path d="M56.3295 142.947C57.3231 142.947 58.1286 142.141 58.1286 141.148C58.1286 140.154 57.3231 139.349 56.3295 139.349C55.3358 139.349 54.5303 140.154 54.5303 141.148C54.5303 142.141 55.3358 142.947 56.3295 142.947Z" fill="#3E3644"/>
<path d="M121.1 172.933H80.6183C80.3798 172.933 80.1512 172.838 79.9825 172.669C79.8139 172.501 79.719 172.272 79.7188 172.034V161.838C79.719 161.6 79.8139 161.371 79.9825 161.202C80.1512 161.034 80.3798 160.939 80.6183 160.939H121.1C121.338 160.939 121.567 161.034 121.736 161.202C121.904 161.371 121.999 161.6 121.999 161.838V172.034C121.999 172.272 121.904 172.501 121.736 172.669C121.567 172.838 121.338 172.933 121.1 172.933V172.933ZM80.6183 161.538C80.5388 161.539 80.4626 161.57 80.4064 161.626C80.3502 161.683 80.3186 161.759 80.3185 161.838V172.034C80.3186 172.113 80.3502 172.189 80.4064 172.246C80.4626 172.302 80.5388 172.333 80.6183 172.334H121.1C121.179 172.333 121.256 172.302 121.312 172.246C121.368 172.189 121.4 172.113 121.4 172.034V161.838C121.4 161.759 121.368 161.683 121.312 161.626C121.256 161.57 121.179 161.539 121.1 161.538H80.6183Z" fill="#3E3644"/>
<path d="M131.296 173.233C134.277 173.233 136.694 170.817 136.694 167.836C136.694 164.855 134.277 162.438 131.296 162.438C128.315 162.438 125.898 164.855 125.898 167.836C125.898 170.817 128.315 173.233 131.296 173.233Z" fill="#C78BF1"/>
<path d="M133.095 172.633C131.968 172.633 130.866 172.299 129.93 171.673C128.993 171.047 128.262 170.157 127.831 169.116C127.4 168.075 127.287 166.93 127.507 165.824C127.727 164.719 128.269 163.704 129.066 162.907C129.863 162.11 130.878 161.568 131.983 161.348C133.089 161.128 134.234 161.241 135.275 161.672C136.316 162.103 137.206 162.834 137.832 163.771C138.458 164.708 138.792 165.809 138.792 166.936C138.791 168.446 138.19 169.895 137.122 170.963C136.054 172.031 134.605 172.632 133.095 172.633V172.633ZM133.095 161.838C132.087 161.838 131.101 162.137 130.263 162.697C129.424 163.258 128.771 164.054 128.385 164.985C127.999 165.917 127.898 166.942 128.095 167.93C128.292 168.919 128.777 169.828 129.49 170.541C130.203 171.253 131.112 171.739 132.1 171.936C133.089 172.132 134.114 172.031 135.046 171.646C135.977 171.26 136.773 170.606 137.333 169.768C137.894 168.93 138.193 167.944 138.193 166.936C138.191 165.584 137.653 164.289 136.698 163.333C135.742 162.377 134.446 161.84 133.095 161.838V161.838Z" fill="#3E3644"/>
<path d="M133.175 169.064L130.272 166.161L131.12 165.313L133.015 167.207L138.303 159.694L139.283 160.384L133.175 169.064Z" fill="#3E3644"/>
<path d="M130.069 94.2581H12.1719V15.2771L130.069 94.2581Z" fill="#E6CCF8"/>
<path d="M173.605 92.7034H158.821V91.6382C158.821 91.6105 158.816 91.583 158.805 91.5574C158.795 91.5318 158.779 91.5085 158.759 91.4889C158.74 91.4693 158.717 91.4537 158.691 91.4431C158.665 91.4325 158.638 91.427 158.61 91.427H153.541C153.514 91.427 153.486 91.4325 153.461 91.4431C153.435 91.4537 153.412 91.4693 153.392 91.4889C153.372 91.5085 153.357 91.5318 153.346 91.5574C153.336 91.583 153.33 91.6105 153.33 91.6382V92.7034H150.162V91.6382C150.162 91.6105 150.157 91.583 150.146 91.5574C150.136 91.5318 150.12 91.5085 150.1 91.4889C150.081 91.4693 150.057 91.4537 150.032 91.4431C150.006 91.4325 149.979 91.427 149.951 91.427H144.882C144.854 91.427 144.827 91.4325 144.801 91.4431C144.776 91.4537 144.753 91.4693 144.733 91.4889C144.713 91.5085 144.698 91.5318 144.687 91.5574C144.676 91.583 144.671 91.6105 144.671 91.6382V92.7034H141.503V91.6382C141.503 91.6105 141.498 91.583 141.487 91.5574C141.476 91.5318 141.461 91.5085 141.441 91.4889C141.422 91.4693 141.398 91.4537 141.373 91.4431C141.347 91.4325 141.32 91.427 141.292 91.427H136.223C136.195 91.427 136.168 91.4325 136.142 91.4431C136.117 91.4537 136.093 91.4693 136.074 91.4889C136.054 91.5085 136.039 91.5318 136.028 91.5574C136.017 91.583 136.012 91.6105 136.012 91.6382V92.7034H132.844V91.6382C132.844 91.6105 132.838 91.583 132.828 91.5574C132.817 91.5318 132.802 91.5085 132.782 91.4889C132.762 91.4693 132.739 91.4537 132.714 91.4431C132.688 91.4325 132.66 91.427 132.633 91.427H127.564C127.536 91.427 127.509 91.4325 127.483 91.4431C127.457 91.4537 127.434 91.4693 127.415 91.4889C127.395 91.5085 127.379 91.5318 127.369 91.5574C127.358 91.583 127.353 91.6105 127.353 91.6382V92.7034H124.185V91.6382C124.185 91.6105 124.179 91.583 124.169 91.5574C124.158 91.5318 124.143 91.5085 124.123 91.4889C124.103 91.4693 124.08 91.4537 124.054 91.4431C124.029 91.4325 124.001 91.427 123.974 91.427H118.905C118.877 91.427 118.85 91.4325 118.824 91.4431C118.798 91.4537 118.775 91.4693 118.755 91.4889C118.736 91.5085 118.72 91.5318 118.71 91.5574C118.699 91.583 118.694 91.6105 118.694 91.6382V92.7034H115.526V91.6382C115.526 91.6105 115.52 91.583 115.51 91.5574C115.499 91.5318 115.483 91.5085 115.464 91.4889C115.444 91.4693 115.421 91.4537 115.395 91.4431C115.37 91.4325 115.342 91.427 115.314 91.427H110.246C110.218 91.427 110.19 91.4325 110.165 91.4431C110.139 91.4537 110.116 91.4693 110.096 91.4889C110.077 91.5085 110.061 91.5318 110.051 91.5574C110.04 91.583 110.034 91.6105 110.034 91.6382V92.7034H106.866V91.6382C106.866 91.6105 106.861 91.583 106.85 91.5574C106.84 91.5318 106.824 91.5085 106.805 91.4889C106.785 91.4693 106.762 91.4537 106.736 91.4431C106.71 91.4325 106.683 91.427 106.655 91.427H66.95C66.9222 91.427 66.8947 91.4325 66.8691 91.4431C66.8435 91.4537 66.8202 91.4693 66.8006 91.4889C66.781 91.5085 66.7654 91.5318 66.7548 91.5574C66.7442 91.583 66.7387 91.6105 66.7387 91.6382V92.7034H63.5708V91.6382C63.5708 91.6105 63.5653 91.583 63.5547 91.5574C63.5441 91.5318 63.5285 91.5085 63.5089 91.4889C63.4893 91.4693 63.466 91.4537 63.4404 91.4431C63.4148 91.4325 63.3873 91.427 63.3596 91.427H58.2908C58.2631 91.427 58.2356 91.4325 58.21 91.4431C58.1844 91.4537 58.1611 91.4693 58.1415 91.4889C58.1219 91.5085 58.1063 91.5318 58.0957 91.5574C58.0851 91.583 58.0796 91.6105 58.0796 91.6382V92.7034H54.9116V91.6382C54.9116 91.6105 54.9062 91.583 54.8956 91.5574C54.8849 91.5318 54.8694 91.5085 54.8498 91.4889C54.8302 91.4693 54.8069 91.4537 54.7813 91.4431C54.7556 91.4325 54.7282 91.427 54.7004 91.427H49.6317C49.6039 91.427 49.5765 91.4325 49.5508 91.4431C49.5252 91.4537 49.5019 91.4693 49.4823 91.4889C49.4627 91.5085 49.4472 91.5318 49.4365 91.5574C49.4259 91.583 49.4205 91.6105 49.4205 91.6382V92.7034H46.2525V91.6382C46.2525 91.6105 46.247 91.583 46.2364 91.5574C46.2258 91.5318 46.2102 91.5085 46.1906 91.4889C46.171 91.4693 46.1477 91.4537 46.1221 91.4431C46.0965 91.4325 46.069 91.427 46.0413 91.427H40.9725C40.9448 91.427 40.9173 91.4325 40.8917 91.4431C40.8661 91.4537 40.8428 91.4693 40.8232 91.4889C40.8036 91.5085 40.788 91.5318 40.7774 91.5574C40.7668 91.583 40.7613 91.6105 40.7613 91.6382V92.7034H37.5933V91.6382C37.5933 91.6105 37.5879 91.583 37.5773 91.5574C37.5667 91.5318 37.5511 91.5085 37.5315 91.4889C37.5119 91.4693 37.4886 91.4537 37.463 91.4431C37.4373 91.4325 37.4099 91.427 37.3821 91.427H32.3134C32.2856 91.427 32.2582 91.4325 32.2326 91.4431C32.2069 91.4537 32.1836 91.4693 32.164 91.4889C32.1444 91.5085 32.1289 91.5318 32.1182 91.5574C32.1076 91.583 32.1022 91.6105 32.1022 91.6382V92.7034H28.9342V91.6382C28.9342 91.6105 28.9288 91.583 28.9181 91.5574C28.9075 91.5318 28.892 91.5085 28.8724 91.4889C28.8527 91.4693 28.8295 91.4537 28.8038 91.4431C28.7782 91.4325 28.7508 91.427 28.723 91.427H23.6542C23.6265 91.427 23.599 91.4325 23.5734 91.4431C23.5478 91.4537 23.5245 91.4693 23.5049 91.4889C23.4853 91.5085 23.4697 91.5318 23.4591 91.5574C23.4485 91.583 23.443 91.6105 23.443 91.6382V92.7034H20.2751V91.6382C20.2751 91.6105 20.2696 91.583 20.259 91.5574C20.2484 91.5318 20.2328 91.5085 20.2132 91.4889C20.1936 91.4693 20.1703 91.4537 20.1447 91.4431C20.1191 91.4325 20.0916 91.427 20.0639 91.427H14.9951C14.9674 91.427 14.9399 91.4325 14.9143 91.4431C14.8887 91.4537 14.8654 91.4693 14.8458 91.4889C14.8261 91.5085 14.8106 91.5318 14.8 91.5574C14.7894 91.583 14.7839 91.6105 14.7839 91.6382V92.7034H5.06876C4.40312 92.7034 3.744 92.8345 3.12903 93.0892C2.51406 93.3439 1.95528 93.7173 1.48461 94.188C1.01393 94.6587 0.640565 95.2174 0.385836 95.8324C0.131107 96.4474 -3.93785e-07 97.1065 0 97.7721V100.064C3.18114e-06 101.408 0.534034 102.698 1.48461 103.648C2.43519 104.599 3.72445 105.133 5.06876 105.133H173.605C174.271 105.133 174.93 105.002 175.545 104.747C176.16 104.492 176.719 104.119 177.189 103.648C177.66 103.178 178.033 102.619 178.288 102.004C178.543 101.389 178.674 100.73 178.674 100.064V97.7721C178.674 97.1065 178.543 96.4474 178.288 95.8324C178.033 95.2174 177.66 94.6587 177.189 94.188C176.719 93.7173 176.16 93.3439 175.545 93.0892C174.93 92.8345 174.271 92.7034 173.605 92.7034V92.7034Z" fill="#3E3644"/>
<path d="M127.398 65.2822H48.2336C47.9951 65.2819 47.7664 65.1871 47.5978 65.0184C47.4291 64.8498 47.3342 64.6211 47.334 64.3826V31.3976C47.3342 31.1591 47.4291 30.9305 47.5978 30.7618C47.7664 30.5932 47.9951 30.4983 48.2336 30.498H127.398C127.636 30.4983 127.865 30.5932 128.033 30.7618C128.202 30.9305 128.297 31.1591 128.297 31.3976V64.3826C128.297 64.6211 128.202 64.8498 128.033 65.0184C127.865 65.1871 127.636 65.2819 127.398 65.2822V65.2822ZM48.2336 31.0978C48.1541 31.0979 48.0779 31.1295 48.0217 31.1857C47.9654 31.2419 47.9338 31.3181 47.9337 31.3976V64.3826C47.9338 64.4621 47.9654 64.5383 48.0217 64.5945C48.0779 64.6508 48.1541 64.6824 48.2336 64.6825H127.398C127.477 64.6824 127.553 64.6508 127.609 64.5945C127.666 64.5383 127.697 64.4621 127.697 64.3826V31.3976C127.697 31.3181 127.666 31.2419 127.609 31.1857C127.553 31.1295 127.477 31.0979 127.398 31.0978H48.2336Z" fill="#3E3644"/>
<path d="M57.2294 49.6895H53.631C53.3925 49.6893 53.1639 49.5944 52.9952 49.4258C52.8266 49.2571 52.7317 49.0285 52.7314 48.7899V45.1916C52.7317 44.9531 52.8266 44.7244 52.9952 44.5558C53.1639 44.3871 53.3925 44.2923 53.631 44.292H57.2294C57.4679 44.2923 57.6966 44.3871 57.8652 44.5558C58.0339 44.7244 58.1287 44.9531 58.129 45.1916V48.7899C58.1287 49.0285 58.0339 49.2571 57.8652 49.4258C57.6966 49.5944 57.4679 49.6893 57.2294 49.6895V49.6895ZM53.631 44.8917C53.5515 44.8918 53.4753 44.9234 53.4191 44.9797C53.3629 45.0359 53.3313 45.1121 53.3312 45.1916V48.7899C53.3313 48.8694 53.3629 48.9457 53.4191 49.0019C53.4753 49.0581 53.5515 49.0897 53.631 49.0898H57.2294C57.3089 49.0897 57.3851 49.0581 57.4413 49.0019C57.4975 48.9457 57.5292 48.8694 57.5293 48.7899V45.1916C57.5292 45.1121 57.4975 45.0359 57.4413 44.9797C57.3851 44.9234 57.3089 44.8918 57.2294 44.8917H53.631Z" fill="#3E3644"/>
<path d="M121.4 49.0896H53.0312V49.6893H121.4V49.0896Z" fill="#3E3644"/>
<path d="M299.219 80.8752H79.4189V81.475H299.219V80.8752Z" fill="#3E3644"/>
<path d="M79.4188 85.0734C81.7373 85.0734 83.6169 83.1939 83.6169 80.8753C83.6169 78.5568 81.7373 76.6772 79.4188 76.6772C77.1003 76.6772 75.2207 78.5568 75.2207 80.8753C75.2207 83.1939 77.1003 85.0734 79.4188 85.0734Z" fill="#3E3644"/>
<path d="M299.219 84.7735C301.041 84.7735 302.518 83.2967 302.518 81.475C302.518 79.6533 301.041 78.1765 299.219 78.1765C297.398 78.1765 295.921 79.6533 295.921 81.475C295.921 83.2967 297.398 84.7735 299.219 84.7735Z" fill="#3E3644"/>
<path d="M315.412 151.043C317.233 151.043 318.71 149.566 318.71 147.745C318.71 145.923 317.233 144.446 315.412 144.446C313.59 144.446 312.113 145.923 312.113 147.745C312.113 149.566 313.59 151.043 315.412 151.043Z" fill="#3E3644"/>
<path d="M96.5114 151.043C98.3331 151.043 99.8099 149.566 99.8099 147.745C99.8099 145.923 98.3331 144.446 96.5114 144.446C94.6897 144.446 93.2129 145.923 93.2129 147.745C93.2129 149.566 94.6897 151.043 96.5114 151.043Z" fill="#3E3644"/>
</svg>
