<svg width="461" height="397" viewBox="0 0 461 397" fill="none" xmlns="http://www.w3.org/2000/svg">
<g clip-path="url(#clip0_1717_8846)">
<path opacity="0.1" d="M244.625 397C328.783 397 397.005 386.031 397.005 372.5C397.005 358.969 328.783 348 244.625 348C160.468 348 92.2456 358.969 92.2456 372.5C92.2456 386.031 160.468 397 244.625 397Z" fill="black"/>
<path opacity="0.1" d="M228.173 315.359C260.002 297.764 296.36 292.146 331.891 299.694C382.243 310.385 445.519 306.193 457.759 223.715C478.691 82.8488 390.97 45.6685 390.97 45.6685C390.97 45.6685 332.634 40.7884 298.139 22.2082C249.14 -4.18228 193.134 -7.55286 143.886 14.784C112.394 29.0532 86.4626 48.9352 82.0275 76.2116C69.6389 152.522 89.986 194.563 51.9232 219.473C13.8604 244.384 46.388 312.775 75.5805 310.409C104.773 308.044 170.7 282.069 196.394 312.152C205.527 322.808 217.073 321.496 228.173 315.359Z" fill="black"/>
<path opacity="0.1" d="M423.131 363.73C435.446 363.73 445.43 360.184 445.43 355.811C445.43 351.437 435.446 347.892 423.131 347.892C410.815 347.892 400.831 351.437 400.831 355.811C400.831 360.184 410.815 363.73 423.131 363.73Z" fill="black"/>
<path d="M422.229 356.934C422.229 356.934 428.175 336.721 421.109 321.843C418.099 315.621 417.192 308.593 418.522 301.812C419.179 298.598 420.129 295.45 421.361 292.408" stroke="#535461" stroke-width="2" stroke-miterlimit="10"/>
<path d="M416.961 283.009C416.961 285.484 421.451 292.671 421.451 292.671C421.451 292.671 425.94 285.489 425.94 283.009C425.94 281.819 425.467 280.678 424.625 279.837C423.782 278.995 422.64 278.523 421.448 278.523C420.257 278.523 419.114 278.995 418.272 279.837C417.429 280.678 416.956 281.819 416.956 283.009H416.961Z" fill="#6C63FF"/>
<path d="M409.538 296.734C410.885 298.813 418.566 302.406 418.566 302.406C418.566 302.406 418.428 293.938 417.08 291.859C416.433 290.861 415.415 290.16 414.25 289.911C413.086 289.663 411.87 289.886 410.871 290.532C409.871 291.179 409.17 292.196 408.921 293.359C408.672 294.522 408.895 295.736 409.543 296.734H409.538Z" fill="#6C63FF"/>
<path d="M409.86 320.18C412.075 321.293 420.519 320.526 420.519 320.526C420.519 320.526 416.119 313.285 413.903 312.171C413.377 311.906 412.803 311.747 412.215 311.703C411.627 311.66 411.037 311.732 410.477 311.916C409.917 312.101 409.398 312.393 408.952 312.778C408.505 313.162 408.138 313.63 407.873 314.156C407.607 314.682 407.448 315.255 407.404 315.842C407.36 316.429 407.433 317.02 407.617 317.579C407.802 318.138 408.095 318.656 408.48 319.102C408.864 319.548 409.333 319.914 409.86 320.18Z" fill="#6C63FF"/>
<path d="M414.107 337.869C416.089 339.354 424.553 340.007 424.553 340.007C424.553 340.007 421.441 332.133 419.449 330.648C418.975 330.297 418.436 330.044 417.864 329.901C417.292 329.759 416.697 329.73 416.114 329.817C415.53 329.905 414.97 330.106 414.465 330.409C413.959 330.712 413.518 331.112 413.168 331.586C412.817 332.059 412.563 332.597 412.42 333.169C412.278 333.74 412.249 334.334 412.336 334.917C412.423 335.499 412.625 336.059 412.928 336.564C413.232 337.069 413.633 337.509 414.107 337.859V337.869Z" fill="#6C63FF"/>
<path d="M427.992 302.886C426.213 304.614 417.922 306.4 417.922 306.4C417.922 306.4 419.954 298.179 421.733 296.452C422.587 295.623 423.736 295.167 424.927 295.184C426.118 295.201 427.254 295.69 428.084 296.544C428.913 297.397 429.37 298.544 429.353 299.734C429.336 300.923 428.846 302.057 427.992 302.886Z" fill="#6C63FF"/>
<path d="M432.685 323.629C430.47 324.743 422.025 323.976 422.025 323.976C422.025 323.976 426.426 316.735 428.641 315.621C429.704 315.086 430.937 314.994 432.068 315.366C433.199 315.738 434.136 316.544 434.672 317.606C435.208 318.668 435.3 319.899 434.927 321.029C434.555 322.158 433.748 323.094 432.685 323.629Z" fill="#6C63FF"/>
<path d="M434.498 344.422C432.516 345.907 424.052 346.56 424.052 346.56C424.052 346.56 427.164 338.681 429.156 337.211C430.114 336.503 431.313 336.204 432.491 336.38C433.669 336.556 434.729 337.192 435.437 338.149C436.146 339.105 436.445 340.303 436.269 341.48C436.093 342.656 435.456 343.715 434.498 344.422Z" fill="#6C63FF"/>
<path opacity="0.1" d="M31.6505 353.831C43.9661 353.831 53.95 350.285 53.95 345.912C53.95 341.538 43.9661 337.993 31.6505 337.993C19.3348 337.993 9.35095 341.538 9.35095 345.912C9.35095 350.285 19.3348 353.831 31.6505 353.831Z" fill="black"/>
<path d="M31.6703 345.991C31.6703 345.991 44.3909 302.847 29.2867 271.096C22.9437 257.767 20.8625 242.81 23.7713 228.348C25.1644 221.483 27.1848 214.759 29.807 208.263" stroke="#535461" stroke-width="2" stroke-miterlimit="10"/>
<path d="M20.4264 188.193C20.4264 193.479 30.0102 208.812 30.0102 208.812C30.0102 208.812 39.594 193.469 39.594 188.193C39.594 185.654 38.5843 183.219 36.787 181.424C34.9897 179.629 32.552 178.621 30.0102 178.621C27.4684 178.621 25.0307 179.629 23.2334 181.424C21.4361 183.219 20.4264 185.654 20.4264 188.193Z" fill="#6C63FF"/>
<path d="M4.58373 217.479C7.46285 221.933 23.8505 229.585 23.8505 229.585C23.8505 229.585 23.5532 211.51 20.6741 207.075C20.0058 205.987 19.1266 205.044 18.088 204.301C17.0495 203.557 15.8726 203.029 14.6266 202.746C13.3806 202.464 12.0906 202.433 10.8325 202.656C9.57443 202.879 8.37365 203.351 7.30078 204.044C6.22792 204.737 5.30462 205.637 4.58521 206.692C3.86579 207.746 3.36478 208.934 3.11163 210.185C2.85848 211.436 2.8583 212.724 3.11111 213.975C3.36391 215.226 3.86461 216.414 4.58373 217.469V217.479Z" fill="#6C63FF"/>
<path d="M5.2726 267.527C9.98523 269.908 28.023 268.285 28.023 268.285C28.023 268.285 18.6077 252.833 13.905 250.467C12.7811 249.901 11.5566 249.561 10.3014 249.468C9.04619 249.374 7.78483 249.529 6.58934 249.922C4.17496 250.716 2.17546 252.436 1.03073 254.703C-0.113991 256.97 -0.31018 259.599 0.485323 262.01C1.28083 264.422 3.00286 266.419 5.2726 267.562V267.527Z" fill="#6C63FF"/>
<path d="M14.3361 305.277C18.5929 308.42 36.6356 309.84 36.6356 309.84C36.6356 309.84 29.9953 293.012 25.7337 289.884C23.69 288.375 21.1296 287.738 18.6158 288.114C16.1019 288.489 13.8406 289.847 12.3292 291.889C10.8178 293.93 10.1801 296.487 10.5565 298.998C10.9329 301.509 12.2924 303.767 14.3361 305.277Z" fill="#6C63FF"/>
<path d="M43.9746 230.61C40.1787 234.292 22.4878 238.108 22.4878 238.108C22.4878 238.108 26.8189 220.557 30.6147 216.875C31.5177 215.997 32.5848 215.306 33.7552 214.841C34.9256 214.375 36.1763 214.144 37.436 214.161C38.6957 214.179 39.9396 214.444 41.0968 214.941C42.254 215.438 43.3017 216.159 44.1803 217.06C45.0588 217.962 45.7508 219.028 46.217 220.197C46.6831 221.366 46.9141 222.615 46.8968 223.873C46.8796 225.132 46.6144 226.374 46.1164 227.53C45.6184 228.686 44.8974 229.732 43.9944 230.61H43.9746Z" fill="#6C63FF"/>
<path d="M54.0094 274.892C49.2819 277.273 31.2589 275.63 31.2589 275.63C31.2589 275.63 40.6743 260.178 45.377 257.812C47.6467 256.668 50.2782 256.472 52.6926 257.267C55.107 258.061 57.1065 259.781 58.2512 262.048C59.3959 264.315 59.5921 266.944 58.7966 269.355C58.0011 271.767 56.2791 273.764 54.0094 274.907V274.892Z" fill="#6C63FF"/>
<path d="M57.8498 319.264C53.5931 322.407 35.5503 323.827 35.5503 323.827C35.5503 323.827 42.1906 306.999 46.4523 303.871C48.496 302.362 51.0563 301.725 53.5702 302.101C56.084 302.477 58.3453 303.835 59.8567 305.876C61.3681 307.917 62.0058 310.474 61.6294 312.985C61.253 315.496 59.8935 317.754 57.8498 319.264Z" fill="#6C63FF"/>
<path d="M400.548 183.431C401.761 182.846 402.777 181.921 403.472 180.769C401.782 180.244 400.138 179.582 398.556 178.789L399.979 172.602C400.106 172.025 400.117 171.427 400.011 170.846C399.906 170.264 399.685 169.709 399.362 169.213C399.039 168.717 398.62 168.291 398.131 167.958C397.641 167.626 397.09 167.394 396.51 167.276L394.825 166.905C393.656 166.641 392.43 166.846 391.411 167.475C390.391 168.105 389.66 169.108 389.374 170.271L389.062 171.627C386.74 169.128 384.839 166.27 383.432 163.163C382.937 162.229 382.68 161.187 382.684 160.129C382.778 158.867 383.526 157.759 384.136 156.665C386.218 152.869 386.899 148.463 386.059 144.217C385.291 140.416 383.343 136.956 382.094 133.284C379.626 126.012 379.908 118.089 382.887 111.011C384.607 106.962 387.248 102.77 386.138 98.5237C384.904 93.7871 379.696 91.3816 375.236 89.1197C370.776 86.8578 366.054 82.8933 366.98 78.0874C367.273 76.5729 368.13 75.088 367.783 73.5884C367.317 71.6086 365.013 70.6187 363.006 70.005C357.639 68.3024 352.193 66.5849 346.554 66.3226C341.926 66.1097 337.089 67.0006 333.234 69.4061C332.091 70.0319 331.026 70.7912 330.062 71.668C329.184 72.5794 328.245 73.4309 327.252 74.2169C325.221 75.2415 322.793 75.1078 320.498 75.3256C317.854 75.569 315.3 76.4156 313.035 77.8003C311.644 78.5344 310.389 79.5002 309.324 80.6562C306.722 83.5269 305.577 87.7339 306.846 91.3519C307.105 92.068 307.46 92.7457 307.901 93.3663C305.935 96.5879 304.896 100.289 304.898 104.062C304.898 114.793 313.159 123.637 323.818 124.899C324.443 127.29 325.047 129.794 325.518 132.116C325.391 132.23 325.257 132.335 325.117 132.432C324.24 132.853 323.239 133.12 322.322 133.482C321.645 133.748 320.996 134.079 320.384 134.472C315.85 136.912 313.526 142.198 311.653 147.028C312.941 146.796 314.22 146.533 315.488 146.221C315.424 146.38 315.374 146.533 315.33 146.677C314.026 151.131 306.841 175.948 306.841 175.948L308.367 172.671C308.429 173.139 308.351 173.614 308.144 174.037C307.51 175.27 308.724 174.374 310.652 172.597C310.652 172.701 310.676 172.76 310.751 172.765C306.222 180.15 291.96 203.209 284.864 212.564C276.048 213.747 269.626 214.761 269.626 214.761C268.23 214.774 266.857 215.113 265.617 215.751C263.876 216.644 262.409 217.989 261.368 219.643C260.326 221.298 259.75 223.202 259.7 225.155L259.204 240.83C259.204 240.83 255.428 259.683 255.503 270.418C255.445 272.232 255.591 274.046 255.939 275.828C256.532 278.517 256.823 281.265 256.806 284.019C256.78 287.246 256.49 290.466 255.939 293.646C255.963 293.67 256.008 293.695 256.038 293.72C255.978 294.081 255.939 294.279 255.939 294.279C256.657 294.977 258.857 295.487 261.667 295.853C260.874 300.258 257.96 304.762 249.412 305.094C236.925 305.564 234.333 307.752 233.837 308.875C233.729 309.082 233.698 309.32 233.748 309.548C234.402 317.819 253.005 316.864 258.555 317.185C259.374 317.206 260.192 317.131 260.993 316.963C261.489 316.873 261.984 316.76 262.515 316.626C263.848 316.289 265.344 315.814 266.905 315.25C268.778 314.572 270.75 313.765 272.663 312.889C273.62 312.454 274.556 312.003 275.463 311.548C276.068 311.241 276.652 310.934 277.217 310.627C280.047 309.093 282.341 307.559 283.357 306.366C283.451 306.256 283.537 306.141 283.615 306.019C283.64 305.975 283.664 305.93 283.689 305.886C283.714 305.841 283.778 305.727 283.818 305.643C283.858 305.559 283.868 305.529 283.887 305.47C283.907 305.411 283.942 305.321 283.967 305.247C283.991 305.173 284.006 305.114 284.026 305.044C284.046 304.975 284.056 304.906 284.071 304.836C284.086 304.767 284.1 304.683 284.11 304.604C284.12 304.525 284.11 304.49 284.11 304.431C284.368 301.763 282.361 298.135 280.731 295.69V285.355C280.731 285.355 283.04 261.019 282.995 250.279C283.063 248.603 282.96 246.925 282.688 245.27C282.554 244.756 282.471 244.231 282.44 243.701C282.443 242.876 282.728 242.077 283.248 241.437C283.768 240.797 284.492 240.354 285.3 240.182C291.107 237.163 306.113 238.395 317.332 239.9C307.584 241.384 285.78 243.948 285.78 246.868V253.798C285.8 255.479 286.447 257.093 287.596 258.323C288.744 259.552 290.311 260.309 291.99 260.445V378.578H299.75V260.479H368.715V378.578H376.475V259.123C378.336 258.169 379.899 256.723 380.994 254.943C382.089 253.162 382.674 251.116 382.684 249.026V247.309L397.129 184.946C398.336 184.609 399.488 184.099 400.548 183.431ZM371.757 246.383C371.301 244.404 368.08 242.647 362.947 241.281C371.658 237.014 373.497 228.551 373.432 221.978C373.448 219.748 373.264 217.522 372.882 215.326C373.434 214.861 373.855 214.262 374.104 213.586C374.354 212.91 374.423 212.181 374.304 211.47C374.416 210.163 374.131 208.852 373.487 207.708C368.333 197.315 367.54 191.375 367.431 183.298C368.456 184.253 369.638 185.025 370.925 185.579C373.967 186.891 377.367 187.124 380.702 187.094C382.312 187.094 383.923 187 385.533 186.876L371.757 246.383ZM318.635 184.184C319.051 184.966 319.304 185.461 319.304 185.461L320.726 184.204C327.53 184.436 328.987 187.723 329.195 189.905C329.176 190.122 329.143 190.337 329.096 190.549L323.219 207.728C313.015 206.159 308.556 208.891 307.297 209.911C304.15 210.208 300.949 210.554 297.797 210.901C304.125 202.675 312.847 191.568 318.635 184.184Z" fill="url(#paint0_linear_1717_8846)"/>
<path d="M302.178 162.594C302.178 162.594 279.066 201.512 273.65 206.679C273.65 206.679 250.537 230.634 262.287 228.951C263.149 228.828 280.062 214.549 281.048 212.212C282.034 209.876 314.017 168.38 314.017 168.38L309.458 164.188L302.178 162.594Z" fill="#F8BDC5"/>
<path d="M365.95 372.54H373.279V256.01H365.95V372.54Z" fill="#40414D"/>
<path d="M292.669 372.54H299.998V256.01H292.669V372.54Z" fill="#40414D"/>
<path d="M286.801 245.022C286.801 249.477 317.262 253.075 335.89 253.075C354.517 253.075 368.878 249.477 368.878 245.022C368.878 240.568 354.507 236.97 335.885 236.97C317.262 236.97 286.801 240.568 286.801 245.022Z" fill="#F6C6CD"/>
<path d="M370.221 258.203H292.005C291.319 258.206 290.64 258.074 290.006 257.814C289.372 257.555 288.795 257.172 288.309 256.689C287.823 256.206 287.438 255.632 287.175 255C286.912 254.368 286.777 253.69 286.777 253.006V245.022H379.141V249.294C379.141 251.656 378.201 253.923 376.528 255.593C374.856 257.264 372.587 258.203 370.221 258.203Z" fill="#40414D"/>
<path d="M370.15 256.824L366.254 255.946L385.669 170.037C385.872 169.14 386.423 168.361 387.2 167.87C387.978 167.38 388.919 167.218 389.817 167.42L393.08 168.156C393.977 168.358 394.757 168.908 395.249 169.685C395.74 170.462 395.902 171.402 395.7 172.298L377.665 252.095C377.299 253.716 376.303 255.125 374.896 256.013C373.49 256.9 371.787 257.193 370.164 256.827L370.15 256.824Z" fill="#40414D"/>
<path d="M281.048 289.681C281.048 289.681 288.446 298.922 285.364 302.619C282.282 306.316 266.89 313.384 261.93 313.092C256.687 312.785 239.135 313.706 238.496 305.703C238.496 305.703 237.262 302.005 253.297 301.392C269.333 300.778 264.378 284.123 264.378 284.123L281.048 289.681Z" fill="#594C76"/>
<path opacity="0.1" d="M369.225 212.064C369.225 212.064 376.624 237.306 354.423 241.632L330.37 240.4C330.37 240.4 296.45 233.624 287.198 238.553C287.198 238.553 283.496 239.167 284.72 244.097C285.944 249.026 282.872 282.287 282.872 282.287V293.373C282.872 293.373 261.9 293.373 259.437 290.899C259.437 290.899 261.286 281.044 259.437 273.036C257.589 265.028 262.52 239.771 262.52 239.771L263.015 224.596C263.052 222.717 263.589 220.882 264.571 219.28C265.554 217.677 266.946 216.365 268.605 215.479C269.772 214.862 271.07 214.532 272.391 214.519C272.391 214.519 314.329 207.743 329.131 208.976C343.933 210.208 369.225 212.064 369.225 212.064Z" fill="black"/>
<path d="M369.225 211.445C369.225 211.445 376.624 236.687 354.423 241.013L330.37 239.781C330.37 239.781 296.45 233.005 287.198 237.935C287.198 237.935 283.496 238.548 284.72 243.478C285.944 248.408 282.877 281.648 282.877 281.648V292.735C282.877 292.735 261.905 292.735 259.442 290.26C259.442 290.26 261.291 280.406 259.442 272.398C257.594 264.389 262.525 239.132 262.525 239.132L263.02 223.957C263.057 222.079 263.594 220.244 264.576 218.641C265.559 217.039 266.951 215.727 268.61 214.841C269.777 214.223 271.075 213.894 272.396 213.88C272.396 213.88 314.334 207.105 329.136 208.337C343.938 209.569 369.225 211.445 369.225 211.445Z" fill="#8B9CD1"/>
<path d="M327.902 130.754C327.902 130.754 316.802 143.692 315.568 148.003C314.334 152.314 300.766 163.401 300.766 163.401C300.766 163.401 310.632 170.781 308.799 174.488C306.965 178.195 321.732 162.169 321.732 162.169L339.002 136.926L327.902 130.754Z" fill="#6C63FF"/>
<path opacity="0.1" d="M327.902 130.754C327.902 130.754 316.802 143.692 315.568 148.003C314.334 152.314 300.766 163.401 300.766 163.401C300.766 163.401 310.632 170.781 308.799 174.488C306.965 178.195 321.732 162.169 321.732 162.169L339.002 136.926L327.902 130.754Z" fill="black"/>
<path d="M320.498 115.97C320.498 115.97 326.048 133.833 326.048 140.609C326.048 147.385 349.483 138.763 348.843 135.065C348.204 131.368 335.275 117.817 334.656 112.298C334.037 106.779 320.498 115.97 320.498 115.97Z" fill="#F8BDC5"/>
<path opacity="0.1" d="M339.027 128.29C339.027 128.29 360.613 122.746 363.695 154.16C366.777 185.575 361.217 189.272 370.479 208.367C379.741 227.462 307.57 210.841 307.57 210.841C307.57 210.841 311.271 206.53 322.986 208.367L328.536 191.737C328.536 191.737 330.384 184.347 319.904 184.347C309.423 184.347 314.354 162.787 314.354 162.787C314.354 162.787 319.904 144.306 322.986 142.46C326.068 140.614 331.594 129.522 339.027 128.29Z" fill="black"/>
<path d="M339.027 127.057C339.027 127.057 360.613 121.514 363.695 152.928C366.777 184.342 361.217 188.039 370.479 207.134C379.741 226.229 307.57 209.609 307.57 209.609C307.57 209.609 311.271 205.298 322.986 207.134L328.536 190.504C328.536 190.504 330.384 183.115 319.904 183.115C309.423 183.115 314.354 161.555 314.354 161.555C314.354 161.555 319.904 143.074 322.986 141.227C326.068 139.381 331.594 128.29 339.027 127.057Z" fill="#6C63FF"/>
<path d="M312.584 171.008C312.584 171.008 289.472 209.926 284.056 215.093C284.056 215.093 260.944 239.048 272.693 237.366C273.555 237.242 290.468 222.963 291.454 220.626C292.441 218.29 324.423 176.794 324.423 176.794L319.864 172.602L312.584 171.008Z" fill="#F8BDC5"/>
<path opacity="0.1" d="M351.955 156.007L319.25 185.575C319.25 185.575 313.1 173.255 311.251 173.255C309.403 173.255 333.452 136.912 333.452 136.912C333.452 136.912 339.621 129.522 343.318 133.214C347.015 136.907 358.12 134.447 351.955 156.007Z" fill="black"/>
<path d="M352.57 154.774L319.864 184.342C319.864 184.342 313.694 172.023 311.846 172.023C309.998 172.023 334.071 135.679 334.071 135.679C334.071 135.679 340.241 128.29 343.938 131.982C347.634 135.674 358.739 133.214 352.57 154.774Z" fill="#6C63FF"/>
<path d="M326.048 127.057C337.288 127.057 346.4 117.956 346.4 106.73C346.4 95.5034 337.288 86.4025 326.048 86.4025C314.808 86.4025 305.696 95.5034 305.696 106.73C305.696 117.956 314.808 127.057 326.048 127.057Z" fill="#F8BDC5"/>
<path opacity="0.1" d="M316.152 100.048C312.47 100.543 308.759 97.9297 307.54 94.4255C306.321 90.9213 307.401 86.8479 309.859 84.0713C312.317 81.2946 315.974 79.7405 319.671 79.3792C321.916 79.1614 324.309 79.3198 326.266 78.2012C327.5 77.4984 328.417 76.3601 329.453 75.39C333.333 71.7373 338.957 70.4108 344.284 70.6583C349.612 70.9058 354.755 72.5737 359.83 74.2219C361.723 74.8356 363.903 75.7513 364.339 77.6865C364.671 79.1416 363.844 80.5819 363.581 82.042C362.709 86.6896 367.193 90.5105 371.381 92.7229C375.568 94.9353 380.504 97.2616 381.668 101.85C382.714 105.963 380.221 110.016 378.596 113.936C375.784 120.801 375.519 128.443 377.848 135.486C379.037 139.04 380.88 142.415 381.604 146.073C382.399 150.179 381.758 154.434 379.79 158.125C379.21 159.204 378.502 160.278 378.418 161.495C378.411 162.518 378.653 163.526 379.121 164.435C380.907 168.44 383.514 172.026 386.774 174.961C390.034 177.896 393.874 180.116 398.046 181.476C396.723 183.872 393.834 184.872 391.168 185.5C386.619 186.567 381.965 187.129 377.293 187.173C374.151 187.203 370.925 186.98 368.056 185.688C365.186 184.397 362.694 181.927 362.154 178.833C361.842 177.042 362.188 175.191 361.965 173.389C361.47 169.33 358.204 166.148 357.01 162.238C355.865 158.501 355.201 157.932 355.642 154.047C356.083 150.161 355.999 145.845 353.462 142.871C350.806 139.753 346.138 139.06 342.134 139.946C338.13 140.832 336.058 139.579 332.401 141.43C326.002 144.682 319.171 147.002 312.114 148.32C314.026 143.262 316.43 137.684 321.445 135.64C322.882 135.056 324.547 134.744 325.523 133.541C327.079 131.621 326.019 128.542 327.362 126.473C328.705 124.404 331.901 124.31 333.739 122.588C335.3 121.103 335.588 118.673 334.983 116.624C334.378 114.575 333.045 112.828 331.698 111.179C330.505 109.698 329.284 108.239 328.036 106.804C326.872 105.599 325.9 104.224 325.151 102.726C324.73 101.736 324.81 99.865 324.121 99.078C322.376 97.0834 318.278 99.766 316.152 100.048Z" fill="black"/>
<path d="M316.901 99.5977C313.219 100.093 309.507 97.4793 308.288 93.9751C307.069 90.4709 308.149 86.3975 310.607 83.6209C313.065 80.8443 316.722 79.2901 320.419 78.9288C322.664 78.711 325.057 78.8694 327.015 77.7508C328.249 77.048 329.165 75.9097 330.201 74.9396C334.081 71.2869 339.706 69.9604 345.033 70.2079C350.36 70.4554 355.504 72.1233 360.578 73.7715C362.471 74.3852 364.651 75.3009 365.087 77.2361C365.419 78.6912 364.592 80.1315 364.329 81.5916C363.457 86.2392 367.942 90.0601 372.129 92.2725C376.316 94.4849 381.252 96.8112 382.417 101.399C383.462 105.512 380.97 109.566 379.344 113.486C376.533 120.351 376.267 127.993 378.596 135.036C379.785 138.589 381.629 141.965 382.352 145.623C383.147 149.729 382.507 153.983 380.538 157.675C379.959 158.753 379.25 159.828 379.166 161.045C379.16 162.067 379.401 163.076 379.869 163.985C381.655 167.989 384.262 171.575 387.522 174.511C390.782 177.446 394.622 179.665 398.794 181.026C397.471 183.422 394.582 184.421 391.916 185.05C387.367 186.117 382.714 186.678 378.041 186.723C374.899 186.753 371.673 186.53 368.804 185.238C365.935 183.946 363.442 181.476 362.902 178.383C362.59 176.591 362.937 174.74 362.714 172.939C362.218 168.88 358.953 165.698 357.758 161.787C356.614 158.051 355.95 157.481 356.391 153.596C356.832 149.711 356.747 145.395 354.21 142.42C351.554 139.302 346.886 138.609 342.882 139.495C338.878 140.381 336.807 139.129 333.15 140.98C326.751 144.232 319.919 146.552 312.862 147.87C314.775 142.811 317.178 137.233 322.193 135.189C323.63 134.605 325.295 134.293 326.271 133.091C327.827 131.17 326.767 128.092 328.11 126.023C329.453 123.954 332.649 123.86 334.488 122.137C336.049 120.653 336.336 118.222 335.731 116.173C335.127 114.124 333.794 112.377 332.446 110.729C331.253 109.247 330.033 107.789 328.784 106.354C327.635 105.147 326.676 103.774 325.939 102.28C325.518 101.29 325.597 99.4195 324.909 98.6326C323.125 96.633 319.027 99.3205 316.901 99.5977Z" fill="#EB6475"/>
<g opacity="0.1">
<path opacity="0.1" d="M265.082 288.988C265.035 287.35 264.799 285.722 264.378 284.138L264.69 284.242C264.997 285.804 265.128 287.396 265.082 288.988Z" fill="white"/>
<path opacity="0.1" d="M261.91 311.84C266.866 312.132 282.262 305.064 285.344 301.367C285.748 300.867 285.996 300.259 286.058 299.62C286.147 300.137 286.13 300.667 286.007 301.178C285.885 301.688 285.659 302.169 285.344 302.589C282.262 306.287 266.871 313.354 261.91 313.062C256.667 312.755 239.115 313.676 238.476 305.673C238.43 305.453 238.459 305.225 238.56 305.024C239.972 312.419 256.801 311.553 261.91 311.84Z" fill="white"/>
</g>
<path d="M130.229 315.77C133.202 314.78 137.662 313.651 141.176 314.052C144.516 312.835 152.375 309.657 157.742 304.95C157.585 300.288 157.703 295.621 158.093 290.973C160.839 259.791 154.664 239.256 154.664 239.256C154.664 239.256 149.818 223.581 150.348 210.574C150.036 211.163 149.853 211.515 149.853 211.515C149.426 200.294 145.601 188.683 142.737 181.452C142.627 181.42 142.519 181.38 142.414 181.333L139.159 173.75C138.904 173.308 138.701 172.838 138.554 172.35L138.059 171.147L138.212 171.083C138.163 170.885 138.108 170.677 138.059 170.464C136.012 161.817 134.451 141.312 134.451 141.312C128.965 119.732 141.993 106.378 141.993 106.378L164.099 87.3577C163.99 87.6049 163.916 87.8666 163.881 88.1348L164.065 87.9764C164.377 87.0855 164.719 85.9966 165.056 84.789C164.267 84.2316 163.527 83.6073 162.846 82.923C160.332 80.5508 158.603 77.4685 157.89 74.0883C157.355 71.4601 157.459 68.7528 157.568 66.0751L157.935 56.9087C157.951 55.114 158.134 53.3245 158.48 51.5633C160.15 44.2679 167.613 39.1897 175.101 38.868C177.484 38.769 179.863 39.0709 182.236 39.2491C184.165 39.407 186.101 39.4484 188.034 39.3728C188.254 39.3852 188.473 39.3281 188.659 39.2095C188.829 39.0419 188.926 38.8146 188.931 38.576C188.969 38.1507 188.92 37.7221 188.787 37.3163C188.654 36.9105 188.44 36.5358 188.158 36.2151C187.869 35.9607 187.532 35.7657 187.167 35.641L187.702 35.7697C187.439 35.5638 187.142 35.4048 186.825 35.2995C188.738 35.7499 190.695 36.2201 192.341 37.2792C192.811 37.5884 193.244 37.9522 193.629 38.3632C194.648 39.2561 195.309 40.4864 195.492 41.8278C196.35 40.9913 197.172 40.0707 197.474 38.9224C197.588 38.4608 197.588 37.9784 197.474 37.5168C197.603 37.6785 197.729 37.8435 197.851 38.0118C197.851 37.9623 197.851 37.9128 197.816 37.8633C199.214 39.5995 200.199 41.6305 200.695 43.8026C200.883 43.563 201.021 43.2888 201.101 42.9958C201.182 42.7027 201.204 42.3966 201.166 42.095C201.275 42.4316 201.379 42.7731 201.473 43.1196C201.518 42.8948 201.53 42.6647 201.508 42.4366C202.366 45.0587 202.754 47.8117 202.653 50.5685C202.653 53.3204 201.434 57.6017 198.48 58.5668C198.332 58.6163 198.173 58.6559 198.015 58.6905C199.673 61.2627 200.666 64.2056 200.905 67.2555C201.144 70.3054 200.622 73.3669 199.384 76.1655C198.147 78.964 196.234 81.4122 193.816 83.2904C191.399 85.1686 188.552 86.4182 185.532 86.9271C185.486 87.2571 185.439 87.6085 185.393 87.9814H185.274C185.195 88.7238 185.13 89.5058 185.081 90.3225C185.824 91.0509 186.637 91.7041 187.509 92.2725C189.985 93.7348 192.746 94.648 195.606 94.9502C199.021 95.2117 202.34 96.1971 205.344 97.8407C208.872 99.8204 212.777 102.686 213.991 106.176C216.033 112.001 227.252 121.024 234.804 122.147L237.48 121.994L237.673 121.935V121.984L238.327 121.944H238.367H238.54V121.984L239.219 121.944C239.219 121.944 239.288 122.256 239.378 122.811C243.169 121.514 251.211 117.901 261.677 108.418C273.342 97.8506 289.086 99.9293 295.156 101.261C295.363 101.306 295.55 101.414 295.694 101.569C295.838 101.723 295.931 101.918 295.962 102.128C295.992 102.337 295.957 102.55 295.863 102.739C295.769 102.928 295.619 103.084 295.434 103.186C292.986 104.532 289.18 106.487 287.396 106.705C287.396 106.705 291.073 110.506 287.168 112.536C286.7 112.765 286.178 112.861 285.659 112.811C285.14 112.761 284.645 112.568 284.229 112.253C282.351 110.882 277.128 113.991 269.566 115.609C269.566 115.609 248.218 137.674 237.628 141.089C237.384 141.571 237.115 142.041 236.821 142.495L236.167 142.44L236.132 142.495H236.043L235.963 143.187C235.963 143.187 219.486 142.321 214.159 136.347C213.778 136.008 213.428 135.635 213.114 135.234L218.842 207.238H218.788L218.842 207.921H214.63C214.263 216.785 214.641 225.664 215.76 234.465V281.386C215.76 281.386 215.978 285.519 207.39 291.532C198.383 297.794 189.703 304.512 181.384 311.662L180.343 312.562C181.924 326.916 185.23 353.682 187.985 354.682L186.285 354.979C189.214 358.667 197.464 368.783 199.987 369.065C203.074 369.407 205.131 374.203 199.987 375.232C195.239 376.183 182.9 377.42 169.436 372.223C168.463 371.845 167.645 371.152 167.113 370.255C166.581 369.357 166.366 368.308 166.503 367.274L167.494 359.711C167.305 359.816 167.153 359.977 167.058 360.171C166.374 362.225 167.058 357.429 167.058 357.429C164.238 348.373 162.023 339.14 160.427 329.792L150.224 338.567C150.224 338.567 150.016 338.314 149.664 337.859C147.187 343.521 142.727 355.088 143.718 363.571C145.09 375.218 132.058 364.942 133.43 358.092C134.54 352.549 129.59 329.069 127.657 320.308C127.45 319.368 127.599 318.385 128.073 317.547C128.548 316.71 129.316 316.077 130.229 315.77Z" fill="url(#paint1_linear_1717_8846)"/>
<path d="M236.707 125.741C236.707 125.741 246.419 124.068 260.815 111.026C272.212 100.706 287.574 102.741 293.521 104.037C293.731 104.069 293.926 104.167 294.076 104.318C294.227 104.469 294.324 104.664 294.355 104.874C294.385 105.085 294.347 105.299 294.246 105.486C294.145 105.674 293.986 105.823 293.793 105.913C291.4 107.225 287.683 109.135 285.944 109.353C285.944 109.353 289.532 113.065 285.721 115.05C285.264 115.274 284.754 115.367 284.247 115.318C283.74 115.269 283.257 115.08 282.852 114.773C281.018 113.436 275.914 116.47 268.536 118.049C268.536 118.049 239.739 147.815 233.045 142.796L236.707 125.741Z" fill="#FEC3BE"/>
<path d="M187.147 85.2938C187.147 85.2938 184.466 96.6775 187.147 104.691L175.091 106.364L164.382 100.993V93.99C164.382 93.99 169.407 83.2893 168.064 70.9157L187.147 85.2938Z" fill="#FEC3BE"/>
<path d="M152.994 331.776C152.994 331.776 144.278 348.832 145.631 360.201C146.983 371.57 134.233 361.537 135.586 354.851C136.671 349.441 131.835 326.51 129.952 317.957C129.744 317.033 129.89 316.064 130.359 315.241C130.828 314.417 131.587 313.797 132.489 313.503C136.518 312.181 143.252 310.533 146.642 313.038C151.656 316.725 152.994 331.776 152.994 331.776Z" fill="#5A5773"/>
<path d="M186.146 350.5C186.146 350.5 197.544 365.215 200.547 365.551C203.55 365.888 205.572 370.57 200.547 371.57C195.914 372.495 183.862 373.708 170.715 368.63C169.764 368.26 168.964 367.582 168.444 366.704C167.925 365.827 167.716 364.8 167.851 363.789L169.739 349.495L186.146 350.5Z" fill="#5A5773"/>
<path d="M204.898 194.32L215.8 195.775C215.8 195.775 213.253 214.049 215.929 234.119V279.936C215.929 279.936 216.142 283.969 207.757 289.835C198.962 295.948 190.487 302.508 182.365 309.489L151.979 335.78C151.979 335.78 139.922 321.066 141.597 312.369C141.597 312.369 161.686 306.014 164.367 295.645C165.903 289.706 173.693 284.756 180.071 281.614C188.287 277.56 192.767 268.349 190.517 259.48C190.145 257.975 189.57 256.528 188.807 255.179C183.451 245.814 175.75 224.744 175.75 224.744L190.482 196.651L204.898 194.32Z" fill="#605D82"/>
<path opacity="0.05" d="M204.947 194.32L215.849 195.775C215.849 195.775 213.302 214.049 215.978 234.119V279.936C215.978 279.936 216.191 283.97 207.807 289.835C199.018 295.952 190.55 302.515 182.435 309.499L152.048 335.79C152.048 335.79 139.991 321.076 141.666 312.379C141.666 312.379 161.756 306.024 164.436 295.655C165.973 289.716 173.763 284.766 180.14 281.623C188.356 277.57 192.836 268.359 190.586 259.49C190.215 257.985 189.64 256.538 188.877 255.188C183.52 245.824 175.819 224.754 175.819 224.754L190.552 196.661L204.947 194.32Z" fill="black"/>
<path d="M188.822 351.505C188.822 351.505 169.055 354.851 168.396 356.88C167.737 358.909 168.396 354.202 168.396 354.202C168.396 354.202 156.998 319.754 159.689 289.32C162.38 258.886 156.339 238.836 156.339 238.836C156.339 238.836 149.307 216.093 153.326 203.051C157.345 190.009 199.536 195.691 199.536 195.691C199.536 195.691 184.803 230.105 185.14 246.507C185.14 246.507 183.465 296.002 180.452 301.689C180.452 301.674 185.14 350.168 188.822 351.505Z" fill="#605D82"/>
<path d="M186.478 93.99C186.478 93.99 184.471 106.364 164.377 101.013L177.757 202.68C177.757 202.68 216.598 204.016 216.266 199.334L208.243 137.802L186.478 93.99Z" fill="white"/>
<path opacity="0.1" d="M185.978 93.3218C185.978 93.3218 189.784 97.4002 195.651 97.9099C198.984 98.167 202.224 99.1304 205.155 100.736C208.624 102.661 212.405 105.463 213.58 108.878C215.924 115.565 230.656 126.602 237.366 124.261L235.022 144.326C235.022 144.326 215.938 143.336 212.589 135.966L218.282 207.535H213.267C213.267 207.535 210.587 188.138 208.58 184.124C206.573 180.11 202.554 158.041 202.217 152.685C201.88 147.33 196.86 116.555 192.504 111.214L185.973 95.3263L185.978 93.3218Z" fill="black"/>
<path opacity="0.1" d="M185.978 94.3265C185.978 94.3265 190.438 98.0733 196.32 98.5781C199.653 98.8352 202.893 99.7986 205.824 101.404C209.293 103.33 213.074 106.131 214.249 109.546C216.593 116.233 231.325 127.27 238.035 124.929L235.691 144.994C235.691 144.994 216.607 144.004 213.258 136.634L218.956 208.198H213.936C213.936 208.198 211.256 188.802 209.249 184.788C207.242 180.774 203.223 158.704 202.886 153.349C202.549 147.993 197.529 117.218 193.173 111.877L185.973 96.3261L185.978 94.3265Z" fill="black"/>
<path d="M185.978 93.6584C185.978 93.6584 190.438 97.4051 196.32 97.9099C199.653 98.167 202.893 99.1304 205.824 100.736C209.293 102.661 213.074 105.463 214.249 108.878C216.593 115.565 231.325 126.602 238.035 124.261L235.691 144.326C235.691 144.326 216.607 143.336 213.258 135.966L218.951 207.535H213.936C213.936 207.535 211.256 188.138 209.249 184.124C207.242 180.11 203.223 158.041 202.886 152.685C202.549 147.33 197.529 116.555 193.173 111.214L185.973 95.6629L185.978 93.6584Z" fill="#67647E"/>
<path opacity="0.1" d="M168.901 80.7799C169.337 77.6123 168.465 75.6325 168.064 71.9155L187.147 86.2985C187.147 86.2985 186.691 88.2437 186.344 91.0847C185.392 91.2382 184.43 91.316 183.465 91.3173C176.805 91.3173 172.028 86.1451 168.901 80.7799Z" fill="black"/>
<path d="M183.465 90.3175C193.452 90.3175 201.548 82.2315 201.548 72.257C201.548 62.2824 193.452 54.1964 183.465 54.1964C173.479 54.1964 165.383 62.2824 165.383 72.257C165.383 82.2315 173.479 90.3175 183.465 90.3175Z" fill="#FEC3BE"/>
<path opacity="0.1" d="M203.198 54.5528C203.304 51.504 202.799 48.4648 201.711 45.6141C202.005 46.0608 202.128 46.598 202.058 47.1277C201.988 47.6574 201.729 48.1443 201.33 48.4996C200.751 45.3951 199.16 42.569 196.805 40.4617C198.094 40.6696 198.753 42.2683 198.441 43.5353C198.129 44.8024 197.147 45.7774 196.206 46.6782C196.315 44.7628 195.051 42.981 193.446 41.9268C191.84 40.8725 189.927 40.4419 188.059 39.9767C188.709 40.2071 189.263 40.6456 189.637 41.224C190.011 41.8023 190.183 42.488 190.125 43.174C190.121 43.4073 190.025 43.6294 189.858 43.7927C189.677 43.9098 189.464 43.9669 189.248 43.956C187.361 44.0304 185.471 43.9907 183.589 43.8373C181.276 43.5771 178.95 43.4531 176.622 43.466C169.308 43.7729 162.023 48.7372 160.393 55.8397C160.055 57.5585 159.878 59.3049 159.863 61.0564L159.506 70.005C159.402 72.6183 159.298 75.2662 159.823 77.83C160.323 80.2227 161.348 82.4752 162.822 84.4262C164.296 86.3771 166.185 87.9782 168.351 89.1148C170.978 85.3136 171.211 80.4285 172.122 75.8998C172.264 74.8504 172.653 73.8495 173.257 72.9796C173.916 72.158 175.076 71.6383 176.057 72.0293C177.038 72.4203 177.464 73.92 176.647 74.5882C177.35 75.4444 178.738 74.8059 179.546 74.0437C181.844 71.8676 183.427 69.0457 184.085 65.9514C184.412 64.3923 184.739 62.4868 186.245 61.9473C186.773 61.8024 187.324 61.7654 187.866 61.8384C191.052 62.0562 196.037 63.3727 199.13 62.363C202.009 61.3979 203.198 57.2354 203.198 54.5528Z" fill="black"/>
<path d="M202.866 54.2162C202.973 51.1674 202.467 48.1282 201.379 45.2775C201.673 45.7242 201.796 46.2615 201.726 46.7912C201.656 47.3209 201.397 47.8078 200.998 48.1631C200.421 45.055 198.83 42.2251 196.473 40.1153C197.762 40.3231 198.421 41.9218 198.109 43.1889C197.797 44.4559 196.815 45.431 195.874 46.3318C195.983 44.4163 194.719 42.6345 193.114 41.5803C191.508 40.5261 189.595 40.0955 187.727 39.6302C188.377 39.8606 188.932 40.2991 189.305 40.8775C189.679 41.4559 189.851 42.1415 189.794 42.8276C189.789 43.0608 189.693 43.283 189.526 43.4462C189.345 43.5633 189.132 43.6205 188.916 43.6096C187.029 43.6839 185.14 43.6442 183.257 43.4908C180.944 43.2306 178.618 43.1067 176.29 43.1196C168.976 43.4264 161.691 48.3907 160.061 55.4932C159.724 57.2121 159.546 58.9584 159.531 60.7099L159.174 69.6585C159.07 72.2718 158.966 74.9198 159.491 77.4836C159.996 79.8709 161.022 82.1175 162.496 84.0631C163.97 86.0086 165.856 87.6051 168.019 88.7386C170.646 84.9375 170.879 80.0523 171.79 75.5236C171.932 74.4742 172.321 73.4733 172.925 72.6034C173.584 71.7818 174.744 71.2621 175.725 71.6531C176.706 72.0441 177.132 73.5438 176.315 74.212C177.018 75.0683 178.406 74.4298 179.214 73.6676C181.512 71.4914 183.095 68.6695 183.753 65.5752C184.08 64.0161 184.407 62.1106 185.913 61.5711C186.441 61.4263 186.992 61.3892 187.534 61.4622C190.72 61.68 195.705 62.9966 198.798 61.9869C201.672 61.0861 202.866 56.9038 202.866 54.2162Z" fill="#916168"/>
<path opacity="0.1" d="M238.882 124.256C238.882 124.256 241.563 136.629 236.538 144.321L233.694 144.088L235.245 124.464L238.882 124.256Z" fill="black"/>
<path d="M238.213 124.256C238.213 124.256 240.894 136.629 235.869 144.321L233.025 144.088L234.576 124.464L238.213 124.256Z" fill="#FD6F8D"/>
<path opacity="0.1" d="M166.221 90.4808L144.625 109.041C144.625 109.041 131.889 122.083 137.256 143.153C137.256 143.153 139.6 173.919 142.281 175.26C142.281 175.26 151.656 193.989 152.325 211.713C152.325 211.713 164.883 186.47 170.576 201.848C176.27 217.226 189.496 219.404 189.496 219.404L182.128 128.438C182.128 128.438 163.545 96.1628 166.221 90.4808Z" fill="black"/>
<path d="M165.551 90.4808L143.956 109.041C143.956 109.041 131.23 122.083 136.587 143.153C136.587 143.153 138.931 173.919 141.612 175.26C141.612 175.26 150.987 193.989 151.656 211.713C151.656 211.713 164.883 185.124 170.576 200.507C176.27 215.89 188.827 219.404 188.827 219.404L181.444 128.438C181.444 128.438 162.871 96.1628 165.551 90.4808Z" fill="#67647E"/>
<path d="M155.675 168.905C155.675 168.905 150.318 165.227 141.612 175.26L163.039 214.054L170.239 203.165C170.239 203.165 155.006 173.255 155.675 168.905Z" fill="#FEC3BE"/>
<path opacity="0.1" d="M160.864 171.078C160.864 171.078 149.015 184.372 144.392 182.239L140.11 172.265L156.171 165.391L160.864 171.078Z" fill="black"/>
<path d="M160.864 170.409C160.864 170.409 149.015 183.704 144.392 181.57L140.11 171.617L156.171 164.723L160.864 170.409Z" fill="#FD6F8D"/>
<path opacity="0.1" d="M169.516 200.665C169.516 200.665 163.876 212.212 160.864 212.886L165.214 217.904L171.577 205.862L169.516 200.665Z" fill="black"/>
<path d="M169.853 200.997C169.853 200.997 164.213 212.544 161.201 213.217L165.551 218.236L171.914 206.194L169.853 200.997Z" fill="#4D4981"/>
<path opacity="0.1" d="M159.189 129.606C159.189 129.606 158.52 153.685 161.196 162.713L159.189 129.606Z" fill="black"/>
<path opacity="0.1" d="M213.436 134.288C213.436 134.288 209.417 132.952 209.417 129.606L213.436 134.288Z" fill="black"/>
<path d="M294.385 109.614L266.301 105.081L265.977 107.084L294.061 111.617L294.385 109.614Z" fill="#40414D"/>
<path d="M303.6 112.1C303.6 112.1 300.691 114.08 297.897 114.436C297.385 114.509 296.867 114.509 296.355 114.436C293.793 114.025 292.465 112.773 292.223 111.303C292.127 110.626 292.24 109.936 292.545 109.323C293.238 108.002 294.894 107.235 297.456 107.65C298.238 107.799 298.984 108.095 299.656 108.522C301.161 109.487 302.494 110.697 303.6 112.1Z" fill="#40414D"/>
<path d="M303.6 112.1C303.6 112.1 300.691 114.08 297.896 114.436C297.81 114.128 297.831 113.8 297.956 113.506C298.227 113.087 298.542 112.698 298.898 112.347C299.19 111.942 299.269 111.269 298.838 111.021C298.736 110.978 298.638 110.925 298.546 110.863C298.288 110.63 298.546 110.214 298.764 109.967C299.18 109.546 299.656 109.046 299.651 108.482C301.16 109.459 302.495 110.682 303.6 112.1Z" fill="#F8BDC5"/>
</g>
<defs>
<linearGradient id="paint0_linear_1717_8846" x1="318.62" y1="378.578" x2="318.62" y2="66.2681" gradientUnits="userSpaceOnUse">
<stop stop-color="#808080" stop-opacity="0.25"/>
<stop offset="0.54" stop-color="#808080" stop-opacity="0.12"/>
<stop offset="1" stop-color="#808080" stop-opacity="0.1"/>
</linearGradient>
<linearGradient id="paint1_linear_1717_8846" x1="211.746" y1="376.079" x2="211.746" y2="35.2995" gradientUnits="userSpaceOnUse">
<stop stop-color="#808080" stop-opacity="0.25"/>
<stop offset="0.54" stop-color="#808080" stop-opacity="0.12"/>
<stop offset="1" stop-color="#808080" stop-opacity="0.1"/>
</linearGradient>
<clipPath id="clip0_1717_8846">
<rect width="461" height="397" fill="white"/>
</clipPath>
</defs>
</svg>
