<svg width="250" height="167" viewBox="0 0 250 167" fill="none" xmlns="http://www.w3.org/2000/svg">
<g id="works-card">
<g id="Book Card">
<rect id="gradient" width="250" height="167" rx="9" fill="#3F3D56"/>
<g id="Go Button" filter="url(#filter0_d)">
<path id="Ellipse 2" d="M237.452 148.504C237.452 153.769 233.181 158.038 227.912 158.038C222.642 158.038 218.371 153.769 218.371 148.504C218.371 143.239 222.642 138.97 227.912 138.97C233.181 138.97 237.452 143.239 237.452 148.504Z" fill="white" stroke="#62268B"/>
<g id="Arrow Right">
<path id="Arrow Right_2" d="M231.51 148.894L226.908 153.359C226.687 153.575 226.327 153.575 226.105 153.359L225.568 152.838C225.346 152.623 225.346 152.275 225.567 152.06L229.214 148.504L225.567 144.948C225.346 144.733 225.346 144.384 225.568 144.169L226.105 143.648C226.327 143.433 226.687 143.433 226.908 143.648L231.51 148.114C231.732 148.329 231.732 148.678 231.51 148.894Z" fill="#35164A"/>
</g>
</g>
<path id="&#208;&#160;&#208;&#144;&#208;&#145;&#208;&#158;&#208;&#162;&#208;&#171;" d="M101.917 149.478V152.483H100.159V143.952H103.487C104.128 143.952 104.691 144.069 105.175 144.304C105.663 144.538 106.038 144.872 106.3 145.306C106.562 145.735 106.693 146.226 106.693 146.776C106.693 147.612 106.405 148.272 105.831 148.757C105.261 149.237 104.47 149.478 103.458 149.478H101.917ZM101.917 148.054H103.487C103.952 148.054 104.306 147.944 104.548 147.726C104.794 147.507 104.917 147.194 104.917 146.788C104.917 146.37 104.794 146.032 104.548 145.774C104.302 145.517 103.962 145.384 103.528 145.376H101.917V148.054ZM112.479 150.726H109.397L108.811 152.483H106.942L110.118 143.952H111.746L114.94 152.483H113.071L112.479 150.726ZM109.871 149.302H112.004L110.932 146.108L109.871 149.302ZM122.103 145.376H118.294V147.028H119.666C120.669 147.028 121.464 147.272 122.05 147.761C122.64 148.245 122.935 148.899 122.935 149.724C122.935 150.552 122.642 151.218 122.056 151.722C121.474 152.222 120.699 152.476 119.73 152.483H116.519V143.952H122.103V145.376ZM118.294 148.446V151.071H119.695C120.144 151.071 120.501 150.948 120.767 150.702C121.037 150.456 121.171 150.126 121.171 149.712C121.171 149.325 121.043 149.021 120.785 148.798C120.531 148.571 120.181 148.454 119.736 148.446H118.294ZM131.868 148.411C131.868 149.251 131.719 149.987 131.423 150.62C131.126 151.253 130.7 151.741 130.145 152.085C129.594 152.429 128.962 152.601 128.247 152.601C127.54 152.601 126.909 152.431 126.354 152.091C125.8 151.751 125.37 151.267 125.065 150.638C124.76 150.005 124.606 149.278 124.602 148.458V148.036C124.602 147.196 124.753 146.458 125.053 145.821C125.358 145.181 125.786 144.69 126.337 144.351C126.891 144.007 127.524 143.835 128.235 143.835C128.946 143.835 129.577 144.007 130.128 144.351C130.682 144.69 131.11 145.181 131.411 145.821C131.716 146.458 131.868 147.194 131.868 148.03V148.411ZM130.087 148.024C130.087 147.13 129.926 146.45 129.606 145.985C129.286 145.521 128.829 145.288 128.235 145.288C127.645 145.288 127.19 145.519 126.87 145.979C126.55 146.437 126.387 147.108 126.384 147.995V148.411C126.384 149.282 126.544 149.958 126.864 150.438C127.184 150.919 127.645 151.159 128.247 151.159C128.837 151.159 129.29 150.929 129.606 150.468C129.923 150.003 130.083 149.327 130.087 148.44V148.024ZM139.863 145.376H137.25V152.483H135.492V145.376H132.914V143.952H139.863V145.376ZM143.458 147.028H144.829C145.833 147.028 146.628 147.272 147.214 147.761C147.804 148.245 148.099 148.899 148.099 149.724C148.099 150.552 147.806 151.218 147.22 151.722C146.638 152.222 145.862 152.476 144.894 152.483H141.689V143.952H143.458V147.028ZM150.589 152.483H148.831V143.952H150.589V152.483ZM143.458 148.446V151.071H144.859C145.308 151.071 145.665 150.948 145.931 150.702C146.2 150.456 146.335 150.126 146.335 149.712C146.335 149.325 146.206 149.021 145.948 148.798C145.694 148.571 145.345 148.454 144.9 148.446H143.458Z" fill="#F7F0FB"/>
<g id="Group 25">
<path id="Vector" d="M224.969 29.5788C231.496 29.5788 236.786 24.3051 236.786 17.7996C236.786 11.2942 231.496 6.02045 224.969 6.02045C218.443 6.02045 213.152 11.2942 213.152 17.7996C213.152 24.3051 218.443 29.5788 224.969 29.5788Z" fill="#E6E6E6"/>
<path id="Vector_2" d="M223.807 11.0411C224.556 11.0411 225.163 10.4359 225.163 9.68942C225.163 8.94289 224.556 8.33771 223.807 8.33771C223.058 8.33771 222.451 8.94289 222.451 9.68942C222.451 10.4359 223.058 11.0411 223.807 11.0411Z" fill="#CBCBCB"/>
<path id="Vector_3" d="M226.132 24.5582C226.881 24.5582 227.488 23.953 227.488 23.2065C227.488 22.46 226.881 21.8548 226.132 21.8548C225.383 21.8548 224.776 22.46 224.776 23.2065C224.776 23.953 225.383 24.5582 226.132 24.5582Z" fill="#CBCBCB"/>
<path id="Vector_4" d="M231.362 16.641C231.897 16.641 232.331 16.2088 232.331 15.6755C232.331 15.1423 231.897 14.71 231.362 14.71C230.827 14.71 230.394 15.1423 230.394 15.6755C230.394 16.2088 230.827 16.641 231.362 16.641Z" fill="#CBCBCB"/>
<path id="Vector_5" d="M220.32 21.8548C222.032 21.8548 223.419 20.4716 223.419 18.7652C223.419 17.0589 222.032 15.6756 220.32 15.6756C218.608 15.6756 217.22 17.0589 217.22 18.7652C217.22 20.4716 218.608 21.8548 220.32 21.8548Z" fill="#CBCBCB"/>
<path id="Vector_6" d="M184.287 37.8822C185.357 37.8822 186.225 37.0176 186.225 35.9512C186.225 34.8847 185.357 34.0201 184.287 34.0201C183.218 34.0201 182.35 34.8847 182.35 35.9512C182.35 37.0176 183.218 37.8822 184.287 37.8822Z" fill="#6C63FF"/>
<path id="Vector_7" d="M213.785 95.1718C214.855 95.1718 215.722 94.3073 215.722 93.2408C215.722 92.1744 214.855 91.3098 213.785 91.3098C212.715 91.3098 211.847 92.1744 211.847 93.2408C211.847 94.3073 212.715 95.1718 213.785 95.1718Z" fill="#6C63FF"/>
<path id="Vector_8" d="M39.0858 38.9812C40.1557 38.9812 41.023 38.1167 41.023 37.0502C41.023 35.9837 40.1557 35.1192 39.0858 35.1192C38.0159 35.1192 37.1486 35.9837 37.1486 37.0502C37.1486 38.1167 38.0159 38.9812 39.0858 38.9812Z" fill="#6C63FF"/>
<path id="Vector_9" d="M19.0055 10.8859C20.0754 10.8859 20.9427 10.0213 20.9427 8.95487C20.9427 7.88841 20.0754 7.02386 19.0055 7.02386C17.9356 7.02386 17.0682 7.88841 17.0682 8.95487C17.0682 10.0213 17.9356 10.8859 19.0055 10.8859Z" fill="#FBF7FD"/>
<path id="Vector_10" d="M11.9774 68.0799C13.0473 68.0799 13.9146 67.2154 13.9146 66.1489C13.9146 65.0824 13.0473 64.2179 11.9774 64.2179C10.9075 64.2179 10.0402 65.0824 10.0402 66.1489C10.0402 67.2154 10.9075 68.0799 11.9774 68.0799Z" fill="#FBF7FD"/>
<path id="Vector_11" d="M52.1381 33.9642C53.208 33.9642 54.0753 33.0996 54.0753 32.0332C54.0753 30.9667 53.208 30.1022 52.1381 30.1022C51.0681 30.1022 50.2008 30.9667 50.2008 32.0332C50.2008 33.0996 51.0681 33.9642 52.1381 33.9642Z" fill="#FBF7FD"/>
<path id="Vector_12" d="M232.861 76.1071C233.931 76.1071 234.798 75.2426 234.798 74.1761C234.798 73.1097 233.931 72.2451 232.861 72.2451C231.791 72.2451 230.924 73.1097 230.924 74.1761C230.924 75.2426 231.791 76.1071 232.861 76.1071Z" fill="#FBF7FD"/>
<path id="Vector_13" d="M48.1219 76.1071C49.1918 76.1071 50.0592 75.2426 50.0592 74.1761C50.0592 73.1097 49.1918 72.2451 48.1219 72.2451C47.052 72.2451 46.1847 73.1097 46.1847 74.1761C46.1847 75.2426 47.052 76.1071 48.1219 76.1071Z" fill="#6C63FF"/>
<path id="Vector_14" d="M12.9814 105.206C14.0513 105.206 14.9187 104.341 14.9187 103.275C14.9187 102.208 14.0513 101.344 12.9814 101.344C11.9115 101.344 11.0442 102.208 11.0442 103.275C11.0442 104.341 11.9115 105.206 12.9814 105.206Z" fill="#6C63FF"/>
<path id="Vector_15" d="M236.205 42.9028C237.275 42.9028 238.142 42.0382 238.142 40.9718C238.142 39.9053 237.275 39.0408 236.205 39.0408C235.135 39.0408 234.268 39.9053 234.268 40.9718C234.268 42.0382 235.135 42.9028 236.205 42.9028Z" fill="#6C63FF"/>
<path id="Vector_16" d="M222.046 113.695C222.688 113.695 223.208 113.176 223.208 112.536C223.208 111.897 222.688 111.378 222.046 111.378C221.404 111.378 220.884 111.897 220.884 112.536C220.884 113.176 221.404 113.695 222.046 113.695Z" fill="#6C63FF"/>
<path id="Vector_17" d="M195.941 16.3649C196.583 16.3649 197.104 15.8462 197.104 15.2063C197.104 14.5664 196.583 14.0477 195.941 14.0477C195.299 14.0477 194.779 14.5664 194.779 15.2063C194.779 15.8462 195.299 16.3649 195.941 16.3649Z" fill="#E6E6E6"/>
<path id="Vector_18" d="M123.652 82.2954C124.294 82.2954 124.815 81.7766 124.815 81.1368C124.815 80.4969 124.294 79.9781 123.652 79.9781C123.01 79.9781 122.49 80.4969 122.49 81.1368C122.49 81.7766 123.01 82.2954 123.652 82.2954Z" fill="#E6E6E6"/>
<path id="Vector_19" d="M192.424 113.385C193.066 113.385 193.586 112.866 193.586 112.226C193.586 111.586 193.066 111.068 192.424 111.068C191.782 111.068 191.261 111.586 191.261 112.226C191.261 112.866 191.782 113.385 192.424 113.385Z" fill="#E6E6E6"/>
<path id="Vector_20" d="M36.3028 85.5998C36.9448 85.5998 37.4652 85.0811 37.4652 84.4412C37.4652 83.8013 36.9448 83.2826 36.3028 83.2826C35.6609 83.2826 35.1405 83.8013 35.1405 84.4412C35.1405 85.0811 35.6609 85.5998 36.3028 85.5998Z" fill="#E6E6E6"/>
<path id="Vector_21" d="M16.2225 43.4568C16.8644 43.4568 17.3848 42.9381 17.3848 42.2982C17.3848 41.6583 16.8644 41.1396 16.2225 41.1396C15.5806 41.1396 15.0602 41.6583 15.0602 42.2982C15.0602 42.9381 15.5806 43.4568 16.2225 43.4568Z" fill="#E6E6E6"/>
<path id="Vector_22" d="M152.769 12.3513C153.411 12.3513 153.931 11.8325 153.931 11.1927C153.931 10.5528 153.411 10.0341 152.769 10.0341C152.127 10.0341 151.606 10.5528 151.606 11.1927C151.606 11.8325 152.127 12.3513 152.769 12.3513Z" fill="#E6E6E6"/>
<path id="Vector_23" d="M111.604 13.3547C112.246 13.3547 112.766 12.836 112.766 12.1961C112.766 11.5562 112.246 11.0375 111.604 11.0375C110.962 11.0375 110.442 11.5562 110.442 12.1961C110.442 12.836 110.962 13.3547 111.604 13.3547Z" fill="#E6E6E6"/>
<path id="Vector_24" d="M210.634 79.0195L210.054 79.594L209.478 79.0156L209.091 79.3986L209.667 79.9769L209.087 80.5512L209.471 80.9368L210.051 80.3624L210.628 80.9407L211.014 80.5578L210.438 79.9794L211.018 79.4052L210.634 79.0195Z" fill="#6C63FF"/>
<path id="Vector_25" d="M187.29 71.2456L186.71 71.82L186.134 71.2417L185.747 71.6247L186.323 72.203L185.743 72.7772L186.127 73.1629L186.707 72.5884L187.284 73.1668L187.67 72.7838L187.094 72.2055L187.674 71.6312L187.29 71.2456Z" fill="#6C63FF"/>
<path id="Vector_26" d="M210.382 12.0448L209.802 12.6192L209.226 12.0409L208.839 12.4238L209.416 13.0022L208.835 13.5764L209.22 13.9621L209.8 13.3876L210.376 13.966L210.763 13.583L210.186 13.0047L210.767 12.4304L210.382 12.0448Z" fill="#6C63FF"/>
<path id="Vector_27" d="M39.6997 17.0618L39.1197 17.6363L38.5434 17.0579L38.1567 17.4409L38.7328 18.0192L38.1526 18.5935L38.5368 18.9791L39.117 18.4047L39.6933 18.983L40.08 18.6001L39.5037 18.0217L40.0839 17.4475L39.6997 17.0618Z" fill="#6C63FF"/>
<path id="Vector_28" d="M28.6555 71.2456L28.0755 71.82L27.4992 71.2417L27.1125 71.6247L27.6886 72.203L27.1084 72.7772L27.4926 73.1629L28.0728 72.5884L28.6491 73.1668L29.0358 72.7838L28.4595 72.2055L29.0397 71.6312L28.6555 71.2456Z" fill="#6C63FF"/>
<path id="Vector_29" d="M50.7439 58.2014L50.1638 58.7758L49.5876 58.1974L49.2009 58.5804L49.777 59.1587L49.1968 59.733L49.581 60.1186L50.1612 59.5442L50.7375 60.1225L51.1241 59.7396L50.5479 59.1612L51.1281 58.587L50.7439 58.2014Z" fill="#6C63FF"/>
<path id="Vector_30" d="M24.6395 85.2933L24.0595 85.8677L23.4832 85.2894L23.0965 85.6723L23.6726 86.2507L23.0924 86.8249L23.4766 87.2105L24.0568 86.6361L24.6331 87.2144L25.0198 86.8315L24.4435 86.2532L25.0237 85.6789L24.6395 85.2933Z" fill="#6C63FF"/>
<path id="Vector_31" d="M42.7118 103.355L42.1317 103.929L41.5555 103.351L41.1688 103.734L41.7449 104.312L41.1647 104.886L41.5489 105.272L42.1291 104.697L42.7053 105.276L43.092 104.893L42.5158 104.314L43.096 103.74L42.7118 103.355Z" fill="#6C63FF"/>
<path id="Vector_32" d="M87.8924 9.03456L87.3124 9.60898L86.7361 9.03064L86.3494 9.41359L86.9255 9.99193L86.3453 10.5662L86.7295 10.9518L87.3097 10.3774L87.886 10.9557L88.2727 10.5728L87.6964 9.99443L88.2766 9.42017L87.8924 9.03456Z" fill="#6C63FF"/>
<path id="Vector_33" d="M137.089 11.0414L136.509 11.6158L135.933 11.0375L135.546 11.4204L136.122 11.9988L135.542 12.573L135.926 12.9586L136.507 12.3842L137.083 12.9626L137.469 12.5796L136.893 12.0013L137.473 11.427L137.089 11.0414Z" fill="#6C63FF"/>
<path id="Vector_34" d="M133.726 97.9435L133.146 98.5178L132.57 97.9395L132.183 98.3224L132.759 98.9007L132.179 99.475L132.563 99.8606L133.143 99.2862L133.72 99.8645L134.106 99.4816L133.53 98.9034L134.11 98.329L133.726 97.9435Z" fill="#E6E6E6"/>
<path id="Vector_35" d="M138.375 64.3439L137.795 64.9181L137.219 64.34L136.832 64.7227L137.409 65.3011L136.828 65.8755L137.213 66.261L137.793 65.6867L138.369 66.2649L138.756 65.8821L138.179 65.3038L138.76 64.7293L138.375 64.3439Z" fill="#E6E6E6"/>
<path id="Vector_36" d="M239.692 28.6203L239.112 29.1946L238.536 28.6164L238.149 28.9992L238.726 29.5775L238.145 30.152L238.53 30.5374L239.11 29.9631L239.686 30.5413L240.073 30.1585L239.496 29.5802L240.077 29.0058L239.692 28.6203Z" fill="#E6E6E6"/>
<path id="Vector_37" d="M225.443 62.215L224.862 62.7894L224.286 62.2111L223.899 62.594L224.476 63.1722L223.896 63.7466L224.28 64.1322L224.86 63.5578L225.436 64.1361L225.823 63.7532L225.247 63.1748L225.827 62.6006L225.443 62.215Z" fill="#E6E6E6"/>
<path id="Vector_38" d="M197.33 48.1674L196.75 48.7418L196.174 48.1635L195.787 48.5464L196.363 49.1246L195.783 49.699L196.167 50.0846L196.747 49.5102L197.324 50.0885L197.71 49.7056L197.134 49.1272L197.714 48.553L197.33 48.1674Z" fill="#E6E6E6"/>
<path id="Vector_39" d="M60.784 14.0516L60.2038 14.626L59.6276 14.0477L59.2409 14.4306L59.817 15.0088L59.2369 15.5832L59.6209 15.9688L60.2012 15.3944L60.7774 15.9728L61.1641 15.5898L60.588 15.0115L61.168 14.4372L60.784 14.0516Z" fill="#E6E6E6"/>
<path id="Vector_40" d="M62.7921 67.232L62.2119 67.8064L61.6356 67.2281L61.2489 67.611L61.825 68.1892L61.245 68.7636L61.629 69.1493L62.2092 68.5748L62.7855 69.1532L63.1722 68.7702L62.5961 68.1919L63.1761 67.6176L62.7921 67.232Z" fill="#E6E6E6"/>
<path id="Vector_41" d="M26.6474 58.2014L26.0672 58.7758L25.491 58.1974L25.1043 58.5804L25.6804 59.1586L25.1003 59.733L25.4843 60.1186L26.0646 59.5442L26.6408 60.1225L27.0275 59.7396L26.4514 59.1612L27.0314 58.587L26.6474 58.2014Z" fill="#E6E6E6"/>
<path id="Vector_42" d="M9.5792 85.2933L8.99899 85.8677L8.42272 85.2894L8.03603 85.6723L8.61213 86.2505L8.0321 86.8249L8.41611 87.2105L8.99632 86.6361L9.5726 87.2145L9.95928 86.8315L9.38318 86.2532L9.96321 85.6789L9.5792 85.2933Z" fill="#E6E6E6"/>
<path id="Vector_43" d="M58.776 101.348L58.1958 101.922L57.6195 101.344L57.2328 101.727L57.8089 102.305L57.2289 102.879L57.6129 103.265L58.1931 102.691L58.7694 103.269L59.1561 102.886L58.58 102.308L59.16 101.733L58.776 101.348Z" fill="#E6E6E6"/>
<path id="Vector_44" d="M34.6795 106.365L34.0993 106.939L33.5231 106.361L33.1364 106.744L33.7125 107.322L33.1324 107.896L33.5165 108.282L34.0967 107.708L34.6729 108.286L35.0596 107.903L34.4835 107.325L35.0635 106.75L34.6795 106.365Z" fill="#E6E6E6"/>
<path id="Vector_45" d="M29.6595 95.3273L29.0793 95.9018L28.503 95.3234L28.1164 95.7064L28.6925 96.2845L28.1124 96.859L28.4964 97.2446L29.0766 96.6702L29.6529 97.2485L30.0396 96.8656L29.4635 96.2872L30.0435 95.713L29.6595 95.3273Z" fill="#E6E6E6"/>
<path id="Vector_46" d="M232.471 97.3342L231.891 97.9086L231.314 97.3303L230.928 97.7132L231.504 98.2914L230.924 98.8658L231.308 99.2514L231.888 98.677L232.464 99.2553L232.851 98.8724L232.275 98.294L232.855 97.7198L232.471 97.3342Z" fill="#E6E6E6"/>
<path id="Vector_47" d="M88.8965 21.0754L88.3163 21.6499L87.74 21.0715L87.3533 21.4545L87.9294 22.0327L87.3494 22.6071L87.7334 22.9927L88.3136 22.4183L88.8899 22.9966L89.2766 22.6137L88.7004 22.0353L89.2805 21.4611L88.8965 21.0754Z" fill="#E6E6E6"/>
<path id="Vector_48" d="M111.989 19.0686L111.409 19.643L110.832 19.0647L110.446 19.4477L111.022 20.0258L110.442 20.6002L110.826 20.9859L111.406 20.4114L111.982 20.9898L112.369 20.6068L111.793 20.0285L112.373 19.4542L111.989 19.0686Z" fill="#E6E6E6"/>
<path id="Vector_49" opacity="0.8" d="M197.998 73.2799L203.884 66.4112L209.77 59.5425L213.093 55.665C213.276 55.4504 212.993 55.1157 212.809 55.3303L206.923 62.199L201.037 69.0677L197.714 72.9452C197.53 73.1598 197.814 73.4945 197.998 73.2799Z" fill="url(#paint0_linear)"/>
<path id="Vector_50" opacity="0.8" d="M72.6323 45.1106L78.5184 38.2419L84.4045 31.3732L87.7273 27.4956C87.9112 27.2811 87.6275 26.9464 87.4436 27.1609L81.5575 34.0297L75.6714 40.8984L72.3486 44.7759C72.1648 44.9904 72.4485 45.3251 72.6323 45.1106Z" fill="url(#paint1_linear)"/>
<path id="Vector_51" opacity="0.8" d="M187.536 97.9969L193.423 91.1281L199.309 84.2594L202.631 80.3819C202.815 80.1673 202.532 79.8326 202.348 80.0472L196.462 86.9159L190.576 93.7846L187.253 97.6621C187.069 97.8767 187.353 98.2114 187.536 97.9969Z" fill="url(#paint2_linear)"/>
<path id="Vector_52" d="M175.861 68.4886L175.911 68.589L175.861 68.6817V68.4886Z" fill="black"/>
</g>
<g id="Group 18">
<g id="Group 16">
<path id="Vector_53" d="M134.283 21.0716L74.2972 37.1302L85.6367 79.4118L145.622 63.3531L134.283 21.0716Z" fill="#8985C2"/>
<g id="Group 17">
<path id="Vector_54" d="M98.6534 52.5011C101.799 57.9293 108.171 60.1071 108.171 60.1071C108.171 60.1071 109.442 53.4839 106.297 48.0557C103.151 42.6275 96.7793 40.4497 96.7793 40.4497C96.7793 40.4497 95.5078 47.0728 98.6534 52.5011Z" fill="white"/>
<path id="Vector_55" d="M100.627 50.7197C106.059 53.7619 108.314 60.0696 108.314 60.0696C108.314 60.0696 101.764 61.4449 96.3319 58.4027C90.9002 55.3605 88.6445 49.0529 88.6445 49.0529C88.6445 49.0529 95.1953 47.6775 100.627 50.7197Z" fill="#6C63FF"/>
<path id="Vector_56" d="M113.296 48.5809C113.289 54.8531 108.861 59.9217 108.861 59.9217C108.861 59.9217 104.445 54.821 104.452 48.5488C104.459 42.2766 108.887 37.208 108.887 37.208C108.887 37.208 113.303 42.3086 113.296 48.5809Z" fill="white"/>
<path id="Vector_57" d="M110.418 48.097C107.127 53.4741 108.317 60.067 108.317 60.067C108.317 60.067 114.844 57.9419 118.136 52.5648C121.427 47.1877 120.237 40.5948 120.237 40.5948C120.237 40.5948 113.71 42.7199 110.418 48.097Z" fill="#6C63FF"/>
</g>
</g>
<g id="Group 13">
<path id="Vector_58" d="M110.653 39.374C110.513 39.3745 110.38 39.4303 110.281 39.529C110.183 39.6278 110.128 39.7615 110.128 39.9009V82.584C110.128 82.7233 110.183 82.857 110.281 82.9558C110.38 83.0546 110.513 83.1104 110.653 83.1109H171.626C171.766 83.1104 171.899 83.0546 171.998 82.9558C172.096 82.857 172.151 82.7233 172.151 82.584V39.9009C172.151 39.7615 172.096 39.6278 171.998 39.529C171.899 39.4303 171.766 39.3745 171.626 39.374H110.653Z" fill="#373549"/>
<path id="Vector_59" d="M110.433 64.4591C112.293 64.4537 114.049 65.1143 115.58 66.1416C117.188 67.2198 118.546 68.6484 119.74 70.1613C121.059 71.8332 122.189 73.6423 123.402 75.3897C124.522 77.0036 125.723 78.5724 127.166 79.9134C128.532 81.182 130.115 82.2486 131.899 82.8271C132.116 82.8976 132.336 82.9598 132.558 83.0154C132.807 83.0781 132.914 82.6925 132.664 82.6298C130.832 82.1703 129.193 81.1749 127.785 79.9343C126.315 78.6398 125.094 77.1037 123.97 75.5071C122.747 73.7688 121.622 71.9615 120.329 70.2728C119.133 68.7104 117.787 67.2413 116.189 66.0804C114.706 65.0031 112.988 64.2357 111.147 64.086C110.909 64.0667 110.671 64.0585 110.433 64.0592C110.381 64.061 110.332 64.0828 110.296 64.1201C110.26 64.1574 110.24 64.2073 110.24 64.2591C110.24 64.311 110.26 64.3608 110.296 64.3981C110.332 64.4354 110.381 64.4573 110.433 64.4591L110.433 64.4591Z" fill="#6C63FF"/>
<path id="Vector_60" d="M110.64 82.9199C113.912 79.6124 118.385 78.049 122.827 77.0348C127.473 75.974 132.265 75.4045 136.679 73.5121C138.787 72.6327 140.722 71.3863 142.393 69.8309C143.954 68.3409 145.249 66.5954 146.222 64.6697C148.207 60.766 148.825 56.3094 147.976 52.0134C147.077 47.6458 144.849 43.6627 141.598 40.6097C141.201 40.2374 140.791 39.881 140.367 39.5405C140.168 39.3806 139.883 39.6618 140.084 39.8233C143.54 42.6083 146.043 46.3997 147.244 50.671C148.418 54.8845 148.115 59.3727 146.383 63.3897C145.543 65.341 144.381 67.1372 142.944 68.7031C141.42 70.3363 139.608 71.6747 137.598 72.6511C133.317 74.7638 128.524 75.4177 123.902 76.3906C119.543 77.3078 115.097 78.6163 111.602 81.4984C111.168 81.8568 110.753 82.2368 110.357 82.6371C110.176 82.8203 110.459 83.1032 110.64 82.9199Z" fill="#6C63FF"/>
<path id="Vector_61" d="M110.396 57.8814C115.417 56.5241 120.731 56.706 125.647 58.4035C127.076 58.893 128.541 59.462 129.736 60.4085C130.764 61.2228 131.666 62.4555 131.409 63.8395C131.173 65.1153 129.998 66.1231 128.735 66.3075C127.431 66.4977 126.244 65.7049 125.646 64.5816C125.34 64.0245 125.201 63.3918 125.244 62.7581C125.287 62.1243 125.51 61.5161 125.887 61.005C126.643 59.9879 127.899 59.4071 129.134 59.2461C130.545 59.062 131.933 59.4777 133.154 60.1728C135.912 61.7439 137.674 64.4828 139.991 66.5707C141.101 67.6029 142.405 68.4053 143.827 68.9317C145.203 69.4068 146.653 69.6261 148.108 69.5787C151.157 69.5011 154.08 68.4005 156.571 66.6739C159.069 64.942 161.133 62.6681 162.94 60.2413C163.906 58.9436 164.746 57.5493 165.757 56.2859C166.752 55.0423 167.983 53.9367 169.558 53.5204C170.275 53.3223 171.031 53.3182 171.75 53.5083C171.8 53.5204 171.854 53.5124 171.898 53.486C171.943 53.4596 171.976 53.4169 171.989 53.3669C172.003 53.3169 171.997 53.2635 171.972 53.2179C171.947 53.1724 171.906 53.1383 171.856 53.1227C170.325 52.7055 168.716 53.1939 167.447 54.0843C166.089 55.0368 165.116 56.4174 164.193 57.7695C162.349 60.4708 160.363 63.0886 157.843 65.2019C155.326 67.3117 152.298 68.8235 148.996 69.1265C147.417 69.2856 145.821 69.1302 144.303 68.6694C142.715 68.1709 141.338 67.2706 140.121 66.1483C137.73 63.9433 135.87 61.049 132.877 59.573C131.616 58.9509 130.235 58.6525 128.837 58.8893C127.606 59.0979 126.396 59.7044 125.62 60.7009C125.227 61.2018 124.97 61.796 124.875 62.4255C124.781 63.0551 124.851 63.6984 125.079 64.2928C125.521 65.4528 126.507 66.4547 127.76 66.6831C129.024 66.9137 130.346 66.331 131.135 65.3391C131.53 64.8414 131.77 64.2385 131.825 63.6054C131.88 62.9724 131.748 62.3372 131.444 61.7789C130.795 60.5242 129.528 59.6567 128.293 59.0446C126.743 58.3007 125.115 57.729 123.44 57.3399C120.002 56.502 116.431 56.3615 112.938 56.9266C112.046 57.0721 111.162 57.2621 110.289 57.4958C110.24 57.5114 110.198 57.5455 110.173 57.591C110.149 57.6366 110.142 57.69 110.156 57.74C110.17 57.79 110.203 57.8327 110.247 57.8591C110.292 57.8854 110.345 57.8935 110.396 57.8814H110.396Z" fill="#6C63FF"/>
<path id="Vector_62" d="M152.14 83.0955C153.556 81.1956 155.003 79.1805 155.614 76.8562C155.919 75.7467 155.963 74.5822 155.745 73.4527C155.533 72.4679 155.122 71.5371 154.535 70.7181C153.332 69.0102 151.558 67.741 149.671 66.8842C147.333 65.823 144.812 65.2789 142.373 64.5138C140.124 63.8085 137.818 62.8882 136.138 61.174C134.551 59.5544 133.652 57.1165 134.537 54.9238C135.34 52.9343 137.298 51.6149 139.252 50.9183C141.648 50.0643 144.214 49.9106 146.655 49.2337C148.696 48.6679 150.785 47.703 152.049 45.9314C153.12 44.4301 153.464 42.2651 152.607 40.587C152.399 40.1803 152.118 39.8148 151.778 39.5084C151.588 39.3359 151.304 39.6179 151.495 39.7911C152.939 41.0986 152.956 43.3356 152.143 44.9916C151.188 46.9359 149.126 48.0434 147.141 48.6725C144.779 49.4213 142.279 49.5811 139.905 50.2856C137.876 50.8877 135.892 51.9673 134.698 53.7716C134.118 54.6358 133.8 55.6487 133.782 56.6889C133.788 57.8021 134.086 58.8942 134.644 59.8572C135.773 61.8599 137.785 63.1554 139.855 64.0296C144.208 65.8675 149.371 66.1482 152.958 69.5179C154.498 70.9649 155.543 72.8869 155.483 75.0399C155.416 77.4146 154.146 79.5752 152.825 81.4726C152.491 81.9528 152.144 82.4245 151.795 82.8936C151.641 83.1001 151.988 83.2997 152.14 83.0955V83.0955Z" fill="#6C63FF"/>
<path id="Vector_63" d="M119.462 39.9083C120.013 40.3094 120.459 40.8374 120.762 41.4475C121.064 42.0575 121.215 42.7316 121.202 43.4125C121.18 44.1019 120.988 44.7752 120.643 45.3724C120.298 45.9697 119.81 46.4723 119.224 46.8356C118.112 47.4911 116.551 47.5736 115.666 46.5025C115.3 46.068 115.118 45.5082 115.157 44.9417C115.189 44.6682 115.286 44.4064 115.44 44.1783C115.594 43.9503 115.801 43.7627 116.043 43.6314C117.165 42.9914 118.511 43.3682 119.548 43.9814C120.19 44.361 120.777 44.8228 121.391 45.2445C121.978 45.6509 122.604 45.9966 123.26 46.2764C125.874 47.3796 128.94 47.3928 131.516 46.1733C132.684 45.6147 133.729 44.8314 134.593 43.868C135.456 42.9047 136.121 41.7805 136.549 40.5598C136.652 40.258 136.739 39.9509 136.809 39.6398C136.866 39.3893 136.481 39.2823 136.423 39.5335C135.822 42.1774 133.986 44.4637 131.579 45.6977C128.956 47.0429 125.717 47.0052 123.065 45.7544C122.386 45.4198 121.738 45.0242 121.13 44.5724C120.504 44.1244 119.88 43.6618 119.181 43.333C118.082 42.8161 116.644 42.6707 115.613 43.4352C115.371 43.6109 115.17 43.8362 115.022 44.096C114.875 44.3558 114.784 44.6441 114.757 44.9417C114.718 45.5508 114.9 46.1537 115.269 46.6399C116.127 47.7956 117.67 47.9592 118.936 47.4257C120.267 46.8645 121.226 45.5938 121.511 44.1896C121.681 43.3227 121.598 42.4249 121.27 41.6042C120.943 40.7835 120.385 40.0747 119.664 39.563C119.455 39.4125 119.255 39.7592 119.462 39.9083H119.462Z" fill="#6C63FF"/>
<path id="Vector_64" d="M161.894 83.0185C162.319 81.0913 163.165 79.282 164.373 77.7209C165.576 76.1551 167.096 74.8612 168.835 73.924C169.811 73.3992 170.851 73.002 171.928 72.7422C172.178 72.682 172.072 72.2963 171.822 72.3566C169.855 72.842 168.019 73.7562 166.447 75.0337C164.868 76.3032 163.575 77.8925 162.655 79.6969C162.137 80.7152 161.751 81.7958 161.508 82.9122C161.454 83.1631 161.84 83.2704 161.894 83.0185H161.894Z" fill="#6C63FF"/>
<path id="Vector_65" d="M159.77 39.5676C158.917 39.5762 158.197 40.1663 157.848 40.9187C157.452 41.7726 157.56 42.7122 157.985 43.5349C158.977 45.454 161.141 46.1342 162.7 47.4611C163.424 48.0767 164.054 48.8601 164.22 49.8187C164.382 50.7531 164.048 51.716 163.501 52.4679C162.903 53.289 162.003 53.8534 161.064 54.2094C160.099 54.5761 159.08 54.7804 158.048 54.8138C157.051 54.842 155.997 54.6679 155.171 54.0736C154.829 53.8288 154.541 53.5156 154.326 53.1538C154.11 52.7919 153.973 52.3894 153.921 51.9716C153.879 51.5938 153.943 51.2117 154.106 50.8684C154.27 50.5251 154.526 50.2341 154.845 50.0282C155.49 49.6472 156.255 49.5231 156.987 49.6808C158.812 50.0412 159.757 51.8504 160.16 53.509C160.674 55.621 160.47 57.8662 161.26 59.9184C161.934 61.655 163.16 63.122 164.75 64.0935C166.573 65.2014 168.535 65.56 170.603 65.0188C171.13 64.8782 171.642 64.6878 172.133 64.4502C172.365 64.3392 172.162 63.9943 171.931 64.1049C169.875 65.0884 167.771 65.1198 165.702 64.1507C163.988 63.3378 162.614 61.9484 161.82 60.2256C160.884 58.1895 161.07 55.9032 160.625 53.7525C160.266 52.0213 159.395 50.0917 157.615 49.4407C156.183 48.9169 154.264 49.3235 153.667 50.8649C153.356 51.6706 153.536 52.5918 153.964 53.3192C154.447 54.116 155.21 54.7044 156.104 54.9693C157.107 55.2881 158.19 55.2614 159.22 55.0992C160.256 54.9545 161.258 54.6256 162.178 54.128C163.059 53.6497 163.776 52.9173 164.235 52.026C164.662 51.1549 164.8 50.1411 164.475 49.2127C163.757 47.1617 161.584 46.3148 159.963 45.1288C159.164 44.5445 158.413 43.777 158.116 42.8098C157.976 42.3956 157.957 41.9503 158.061 41.5256C158.165 41.101 158.387 40.7145 158.701 40.4109C158.989 40.1342 159.371 39.976 159.77 39.9675C159.822 39.9657 159.871 39.9438 159.907 39.9065C159.943 39.8692 159.963 39.8194 159.963 39.7676C159.963 39.7157 159.943 39.6659 159.907 39.6286C159.871 39.5913 159.822 39.5694 159.77 39.5676L159.77 39.5676Z" fill="#6C63FF"/>
<path id="Vector_66" d="M151.757 76.093C156.029 76.093 159.492 72.6318 159.492 68.3622C159.492 64.0927 156.029 60.6315 151.757 60.6315C147.484 60.6315 144.021 64.0927 144.021 68.3622C144.021 72.6318 147.484 76.093 151.757 76.093Z" fill="#6C63FF"/>
<path id="Vector_67" d="M153.757 51.0346C155.451 51.0346 156.825 49.6621 156.825 47.969C156.825 46.2759 155.451 44.9033 153.757 44.9033C152.063 44.9033 150.69 46.2759 150.69 47.969C150.69 49.6621 152.063 51.0346 153.757 51.0346Z" fill="#6C63FF"/>
<path id="Vector_68" d="M116.28 53.3006C117.974 53.3006 119.348 51.9281 119.348 50.235C119.348 48.5419 117.974 47.1693 116.28 47.1693C114.586 47.1693 113.213 48.5419 113.213 50.235C113.213 51.9281 114.586 53.3006 116.28 53.3006Z" fill="#6C63FF"/>
</g>
<g id="F">
<g id="Group 10">
<g id="Group 9">
<path id="Rectangle 6" d="M75.0935 62.2679C75.0935 60.611 76.4367 59.2679 78.0935 59.2679H92.8896C93.9941 59.2679 94.8896 60.1633 94.8896 61.2679V73.2679H75.0935V62.2679Z" fill="#E6E6E6"/>
<path id="Vector 1" d="M94.5 72.6355V60.6047L108.411 72.6355H94.5Z" fill="#E6E6E6" stroke="#C4C4C4"/>
<path id="Rectangle 5" d="M75.0935 72.6355H170.609C172.818 72.6355 174.609 74.4264 174.609 76.6355V116.759C174.609 118.968 172.818 120.759 170.609 120.759H80.0935C77.3321 120.759 75.0935 118.52 75.0935 115.759V72.6355Z" fill="#E6E6E6"/>
</g>
</g>
<path id="Vector_69" d="M166.575 117.774H81.6206C80.8831 117.774 80.176 117.481 79.6545 116.961C79.1329 116.44 78.8396 115.735 78.8387 114.999V64.7167C78.8396 63.9809 79.1329 63.2755 79.6545 62.7552C80.176 62.2349 80.8831 61.9422 81.6206 61.9414C82.273 61.9421 82.8984 62.201 83.3597 62.6612C83.8209 63.1214 84.0804 63.7453 84.0811 64.3961V111.687C84.0819 112.376 84.3568 113.038 84.8456 113.525C85.3344 114.013 85.997 114.287 86.6882 114.288H166.289C166.684 114.283 167.069 114.411 167.384 114.651C167.698 114.891 167.922 115.229 168.021 115.611C168.132 115.973 168.118 116.362 167.982 116.715C167.846 117.068 167.594 117.366 167.269 117.56C167.062 117.695 166.822 117.769 166.575 117.774Z" fill="#CBCBCB"/>
</g>
</g>
<g id="Group 26">
<path id="Vector_70" d="M20.5 31C23.5376 31 26 28.5376 26 25.5C26 22.4624 23.5376 20 20.5 20C17.4624 20 15 22.4624 15 25.5C15 28.5376 17.4624 31 20.5 31Z" fill="#6C63FF"/>
<path id="Vector_71" d="M25.2891 28.9531C24.2331 28.9532 21.9012 27.8686 19.8273 26.5983C17.2537 25.022 14.7543 22.9617 15.1912 22.2482C15.3148 22.0466 15.6209 21.9939 16.1273 22.0869L16.091 22.2846C15.6988 22.2124 15.4335 22.2376 15.3626 22.3532C15.2593 22.5218 15.4871 23.0114 16.436 23.8797C17.3008 24.671 18.5424 25.5756 19.9323 26.4269C21.3221 27.2782 22.6921 27.9732 23.7899 28.3841C24.9946 28.8349 25.5342 28.8152 25.6374 28.6467C25.7083 28.5309 25.6098 28.2828 25.3671 27.9658L25.5266 27.8436C25.8401 28.253 25.9324 28.55 25.8088 28.7516C25.724 28.8902 25.5436 28.9531 25.2891 28.9531Z" fill="#FBF7FD"/>
<path id="Vector_72" d="M19.821 23.798C20.4424 23.798 20.946 23.2943 20.946 22.673C20.946 22.0517 20.4424 21.548 19.821 21.548C19.1997 21.548 18.696 22.0517 18.696 22.673C18.696 23.2943 19.1997 23.798 19.821 23.798Z" fill="white"/>
<path id="Vector_73" d="M20.147 29.5901C20.5612 29.5901 20.897 29.2544 20.897 28.8401C20.897 28.4259 20.5612 28.0901 20.147 28.0901C19.7328 28.0901 19.397 28.4259 19.397 28.8401C19.397 29.2544 19.7328 29.5901 20.147 29.5901Z" fill="white"/>
<path id="Vector_74" d="M22.7296 27.0189C23.1438 27.0189 23.4796 26.6831 23.4796 26.2689C23.4796 25.8547 23.1438 25.5189 22.7296 25.5189C22.3154 25.5189 21.9796 25.8547 21.9796 26.2689C21.9796 26.6831 22.3154 27.0189 22.7296 27.0189Z" fill="white"/>
</g>
</g>
</g>
<defs>
<filter id="filter0_d" x="212.871" y="133.47" width="30.0803" height="30.0681" filterUnits="userSpaceOnUse" color-interpolation-filters="sRGB">
<feFlood flood-opacity="0" result="BackgroundImageFix"/>
<feColorMatrix in="SourceAlpha" type="matrix" values="0 0 0 0 0 0 0 0 0 0 0 0 0 0 0 0 0 0 127 0" result="hardAlpha"/>
<feOffset/>
<feGaussianBlur stdDeviation="2.5"/>
<feColorMatrix type="matrix" values="0 0 0 0 0 0 0 0 0 0 0 0 0 0 0 0 0 0 0.25 0"/>
<feBlend mode="normal" in2="BackgroundImageFix" result="effect1_dropShadow"/>
<feBlend mode="normal" in="SourceGraphic" in2="effect1_dropShadow" result="shape"/>
</filter>
<linearGradient id="paint0_linear" x1="197.654" y1="64.3051" x2="213.152" y2="64.3051" gradientUnits="userSpaceOnUse">
<stop stop-color="white"/>
<stop offset="1" stop-color="white" stop-opacity="0.3"/>
</linearGradient>
<linearGradient id="paint1_linear" x1="72.2891" y1="36.1358" x2="87.7869" y2="36.1358" gradientUnits="userSpaceOnUse">
<stop stop-color="white"/>
<stop offset="1" stop-color="white" stop-opacity="0.3"/>
</linearGradient>
<linearGradient id="paint2_linear" x1="9970.56" y1="9765.12" x2="11315.9" y2="9765.12" gradientUnits="userSpaceOnUse">
<stop stop-color="white"/>
<stop offset="1" stop-color="white" stop-opacity="0.3"/>
</linearGradient>
</defs>
</svg>
