<svg width="270" height="187" viewBox="0 0 270 187" fill="none" xmlns="http://www.w3.org/2000/svg">
<g id="Works Card" filter="url(#filter0_d)">
<g id="Book Card">
<rect id="gradient" x="10" y="9" width="250" height="167" rx="9" fill="#3F3D56"/>
<g id="Group 25">
<path id="Vector" d="M234.969 38.5788C241.496 38.5788 246.786 33.305 246.786 26.7996C246.786 20.2941 241.496 15.0204 234.969 15.0204C228.443 15.0204 223.152 20.2941 223.152 26.7996C223.152 33.305 228.443 38.5788 234.969 38.5788Z" fill="#E6E6E6"/>
<path id="Vector_2" d="M233.807 20.0411C234.556 20.0411 235.163 19.4359 235.163 18.6894C235.163 17.9429 234.556 17.3377 233.807 17.3377C233.058 17.3377 232.451 17.9429 232.451 18.6894C232.451 19.4359 233.058 20.0411 233.807 20.0411Z" fill="#CBCBCB"/>
<path id="Vector_3" d="M236.132 33.5582C236.881 33.5582 237.488 32.953 237.488 32.2065C237.488 31.4599 236.881 30.8548 236.132 30.8548C235.383 30.8548 234.776 31.4599 234.776 32.2065C234.776 32.953 235.383 33.5582 236.132 33.5582Z" fill="#CBCBCB"/>
<path id="Vector_4" d="M241.362 25.641C241.897 25.641 242.331 25.2087 242.331 24.6755C242.331 24.1422 241.897 23.71 241.362 23.71C240.827 23.71 240.394 24.1422 240.394 24.6755C240.394 25.2087 240.827 25.641 241.362 25.641Z" fill="#CBCBCB"/>
<path id="Vector_5" d="M230.32 30.8548C232.032 30.8548 233.419 29.4715 233.419 27.7652C233.419 26.0588 232.032 24.6756 230.32 24.6756C228.608 24.6756 227.22 26.0588 227.22 27.7652C227.22 29.4715 228.608 30.8548 230.32 30.8548Z" fill="#CBCBCB"/>
<path id="Vector_6" d="M194.287 46.8822C195.357 46.8822 196.225 46.0176 196.225 44.9512C196.225 43.8847 195.357 43.0201 194.287 43.0201C193.218 43.0201 192.35 43.8847 192.35 44.9512C192.35 46.0176 193.218 46.8822 194.287 46.8822Z" fill="#6C63FF"/>
<path id="Vector_7" d="M223.785 104.172C224.855 104.172 225.722 103.307 225.722 102.241C225.722 101.174 224.855 100.31 223.785 100.31C222.715 100.31 221.847 101.174 221.847 102.241C221.847 103.307 222.715 104.172 223.785 104.172Z" fill="#6C63FF"/>
<path id="Vector_8" d="M49.0858 47.9812C50.1557 47.9812 51.023 47.1166 51.023 46.0502C51.023 44.9837 50.1557 44.1192 49.0858 44.1192C48.0159 44.1192 47.1486 44.9837 47.1486 46.0502C47.1486 47.1166 48.0159 47.9812 49.0858 47.9812Z" fill="#6C63FF"/>
<path id="Vector_9" d="M29.0055 19.8858C30.0754 19.8858 30.9427 19.0213 30.9427 17.9548C30.9427 16.8884 30.0754 16.0238 29.0055 16.0238C27.9356 16.0238 27.0682 16.8884 27.0682 17.9548C27.0682 19.0213 27.9356 19.8858 29.0055 19.8858Z" fill="#FBF7FD"/>
<path id="Vector_10" d="M21.9774 77.0799C23.0473 77.0799 23.9146 76.2154 23.9146 75.1489C23.9146 74.0824 23.0473 73.2179 21.9774 73.2179C20.9075 73.2179 20.0402 74.0824 20.0402 75.1489C20.0402 76.2154 20.9075 77.0799 21.9774 77.0799Z" fill="#FBF7FD"/>
<path id="Vector_11" d="M62.1381 42.9641C63.208 42.9641 64.0753 42.0996 64.0753 41.0331C64.0753 39.9667 63.208 39.1021 62.1381 39.1021C61.0681 39.1021 60.2008 39.9667 60.2008 41.0331C60.2008 42.0996 61.0681 42.9641 62.1381 42.9641Z" fill="#FBF7FD"/>
<path id="Vector_12" d="M242.861 85.1071C243.931 85.1071 244.798 84.2426 244.798 83.1761C244.798 82.1097 243.931 81.2451 242.861 81.2451C241.791 81.2451 240.924 82.1097 240.924 83.1761C240.924 84.2426 241.791 85.1071 242.861 85.1071Z" fill="#FBF7FD"/>
<path id="Vector_13" d="M58.1219 85.1071C59.1918 85.1071 60.0592 84.2426 60.0592 83.1761C60.0592 82.1097 59.1918 81.2451 58.1219 81.2451C57.052 81.2451 56.1847 82.1097 56.1847 83.1761C56.1847 84.2426 57.052 85.1071 58.1219 85.1071Z" fill="#6C63FF"/>
<path id="Vector_14" d="M22.9814 114.206C24.0513 114.206 24.9187 113.341 24.9187 112.275C24.9187 111.208 24.0513 110.344 22.9814 110.344C21.9115 110.344 21.0442 111.208 21.0442 112.275C21.0442 113.341 21.9115 114.206 22.9814 114.206Z" fill="#6C63FF"/>
<path id="Vector_15" d="M246.205 51.9028C247.275 51.9028 248.142 51.0382 248.142 49.9718C248.142 48.9053 247.275 48.0408 246.205 48.0408C245.135 48.0408 244.268 48.9053 244.268 49.9718C244.268 51.0382 245.135 51.9028 246.205 51.9028Z" fill="#6C63FF"/>
<path id="Vector_16" d="M232.046 122.695C232.688 122.695 233.208 122.176 233.208 121.536C233.208 120.897 232.688 120.378 232.046 120.378C231.404 120.378 230.884 120.897 230.884 121.536C230.884 122.176 231.404 122.695 232.046 122.695Z" fill="#6C63FF"/>
<path id="Vector_17" d="M205.941 25.3649C206.583 25.3649 207.104 24.8462 207.104 24.2063C207.104 23.5664 206.583 23.0477 205.941 23.0477C205.299 23.0477 204.779 23.5664 204.779 24.2063C204.779 24.8462 205.299 25.3649 205.941 25.3649Z" fill="#E6E6E6"/>
<path id="Vector_18" d="M133.652 91.2953C134.294 91.2953 134.815 90.7766 134.815 90.1367C134.815 89.4968 134.294 88.9781 133.652 88.9781C133.01 88.9781 132.49 89.4968 132.49 90.1367C132.49 90.7766 133.01 91.2953 133.652 91.2953Z" fill="#E6E6E6"/>
<path id="Vector_19" d="M202.424 122.385C203.066 122.385 203.586 121.866 203.586 121.226C203.586 120.586 203.066 120.067 202.424 120.067C201.782 120.067 201.261 120.586 201.261 121.226C201.261 121.866 201.782 122.385 202.424 122.385Z" fill="#E6E6E6"/>
<path id="Vector_20" d="M46.3028 94.5998C46.9448 94.5998 47.4652 94.081 47.4652 93.4412C47.4652 92.8013 46.9448 92.2825 46.3028 92.2825C45.6609 92.2825 45.1405 92.8013 45.1405 93.4412C45.1405 94.081 45.6609 94.5998 46.3028 94.5998Z" fill="#E6E6E6"/>
<path id="Vector_21" d="M26.2225 52.4568C26.8644 52.4568 27.3848 51.9381 27.3848 51.2982C27.3848 50.6583 26.8644 50.1396 26.2225 50.1396C25.5806 50.1396 25.0602 50.6583 25.0602 51.2982C25.0602 51.9381 25.5806 52.4568 26.2225 52.4568Z" fill="#E6E6E6"/>
<path id="Vector_22" d="M162.769 21.3513C163.411 21.3513 163.931 20.8325 163.931 20.1926C163.931 19.5528 163.411 19.034 162.769 19.034C162.127 19.034 161.606 19.5528 161.606 20.1926C161.606 20.8325 162.127 21.3513 162.769 21.3513Z" fill="#E6E6E6"/>
<path id="Vector_23" d="M121.604 22.3547C122.246 22.3547 122.766 21.8359 122.766 21.1961C122.766 20.5562 122.246 20.0374 121.604 20.0374C120.962 20.0374 120.442 20.5562 120.442 21.1961C120.442 21.8359 120.962 22.3547 121.604 22.3547Z" fill="#E6E6E6"/>
<path id="Vector_24" d="M220.634 88.0195L220.054 88.594L219.478 88.0156L219.091 88.3986L219.667 88.9769L219.087 89.5512L219.471 89.9368L220.051 89.3624L220.628 89.9407L221.014 89.5578L220.438 88.9794L221.018 88.4052L220.634 88.0195Z" fill="#6C63FF"/>
<path id="Vector_25" d="M197.29 80.2456L196.71 80.82L196.134 80.2417L195.747 80.6247L196.323 81.203L195.743 81.7772L196.127 82.1629L196.707 81.5884L197.284 82.1668L197.67 81.7838L197.094 81.2055L197.674 80.6312L197.29 80.2456Z" fill="#6C63FF"/>
<path id="Vector_26" d="M220.382 21.0448L219.802 21.6192L219.226 21.0408L218.839 21.4238L219.416 22.0021L218.835 22.5764L219.22 22.962L219.8 22.3876L220.376 22.9659L220.763 22.583L220.186 22.0046L220.767 21.4304L220.382 21.0448Z" fill="#6C63FF"/>
<path id="Vector_27" d="M49.6997 26.0618L49.1197 26.6362L48.5434 26.0579L48.1567 26.4408L48.7328 27.0192L48.1526 27.5934L48.5368 27.979L49.117 27.4046L49.6933 27.983L50.08 27.6L49.5037 27.0217L50.0839 26.4474L49.6997 26.0618Z" fill="#6C63FF"/>
<path id="Vector_28" d="M38.6555 80.2456L38.0755 80.82L37.4992 80.2417L37.1125 80.6247L37.6886 81.203L37.1084 81.7772L37.4926 82.1629L38.0728 81.5884L38.6491 82.1668L39.0358 81.7838L38.4595 81.2055L39.0397 80.6312L38.6555 80.2456Z" fill="#6C63FF"/>
<path id="Vector_29" d="M60.7439 67.2014L60.1638 67.7758L59.5876 67.1974L59.2009 67.5804L59.777 68.1587L59.1968 68.733L59.581 69.1186L60.1612 68.5442L60.7375 69.1225L61.1241 68.7396L60.5479 68.1612L61.1281 67.587L60.7439 67.2014Z" fill="#6C63FF"/>
<path id="Vector_30" d="M34.6395 94.2933L34.0595 94.8677L33.4832 94.2894L33.0965 94.6723L33.6726 95.2507L33.0924 95.8249L33.4766 96.2105L34.0568 95.6361L34.6331 96.2144L35.0198 95.8315L34.4435 95.2532L35.0237 94.6789L34.6395 94.2933Z" fill="#6C63FF"/>
<path id="Vector_31" d="M52.7118 112.355L52.1317 112.929L51.5555 112.351L51.1688 112.734L51.7449 113.312L51.1647 113.886L51.5489 114.272L52.1291 113.697L52.7053 114.276L53.092 113.893L52.5158 113.314L53.096 112.74L52.7118 112.355Z" fill="#6C63FF"/>
<path id="Vector_32" d="M97.8924 18.0346L97.3124 18.609L96.7361 18.0306L96.3494 18.4136L96.9255 18.9919L96.3453 19.5662L96.7295 19.9518L97.3097 19.3774L97.886 19.9557L98.2727 19.5728L97.6964 18.9944L98.2766 18.4202L97.8924 18.0346Z" fill="#6C63FF"/>
<path id="Vector_33" d="M147.089 20.0414L146.509 20.6158L145.933 20.0374L145.546 20.4204L146.122 20.9987L145.542 21.573L145.926 21.9586L146.507 21.3842L147.083 21.9625L147.469 21.5796L146.893 21.0012L147.473 20.427L147.089 20.0414Z" fill="#6C63FF"/>
<path id="Vector_34" d="M143.726 106.944L143.146 107.518L142.57 106.939L142.183 107.322L142.759 107.901L142.179 108.475L142.563 108.861L143.143 108.286L143.72 108.865L144.106 108.482L143.53 107.903L144.11 107.329L143.726 106.944Z" fill="#E6E6E6"/>
<path id="Vector_35" d="M148.375 73.3439L147.795 73.9181L147.219 73.34L146.832 73.7227L147.409 74.3011L146.828 74.8755L147.213 75.261L147.793 74.6867L148.369 75.2649L148.756 74.8821L148.179 74.3038L148.76 73.7293L148.375 73.3439Z" fill="#E6E6E6"/>
<path id="Vector_36" d="M249.692 37.6203L249.112 38.1945L248.536 37.6164L248.149 37.9991L248.726 38.5775L248.145 39.1519L248.53 39.5374L249.11 38.9631L249.686 39.5413L250.073 39.1585L249.496 38.5802L250.077 38.0057L249.692 37.6203Z" fill="#E6E6E6"/>
<path id="Vector_37" d="M235.443 71.215L234.862 71.7894L234.286 71.2111L233.899 71.594L234.476 72.1722L233.896 72.7466L234.28 73.1322L234.86 72.5578L235.436 73.1361L235.823 72.7532L235.247 72.1748L235.827 71.6006L235.443 71.215Z" fill="#E6E6E6"/>
<path id="Vector_38" d="M207.33 57.1673L206.75 57.7418L206.174 57.1634L205.787 57.5464L206.363 58.1245L205.783 58.699L206.167 59.0846L206.747 58.5102L207.324 59.0885L207.71 58.7055L207.134 58.1272L207.714 57.5529L207.33 57.1673Z" fill="#E6E6E6"/>
<path id="Vector_39" d="M70.784 23.0516L70.2038 23.626L69.6276 23.0477L69.2409 23.4306L69.817 24.0088L69.2369 24.5832L69.6209 24.9688L70.2012 24.3944L70.7774 24.9728L71.1641 24.5898L70.588 24.0115L71.168 23.4372L70.784 23.0516Z" fill="#E6E6E6"/>
<path id="Vector_40" d="M72.7921 76.232L72.2119 76.8064L71.6356 76.2281L71.2489 76.611L71.825 77.1892L71.245 77.7636L71.629 78.1493L72.2092 77.5748L72.7855 78.1532L73.1722 77.7702L72.5961 77.1919L73.1761 76.6176L72.7921 76.232Z" fill="#E6E6E6"/>
<path id="Vector_41" d="M36.6474 67.2014L36.0672 67.7758L35.491 67.1974L35.1043 67.5804L35.6804 68.1586L35.1003 68.733L35.4843 69.1186L36.0646 68.5442L36.6408 69.1225L37.0275 68.7396L36.4514 68.1612L37.0314 67.587L36.6474 67.2014Z" fill="#E6E6E6"/>
<path id="Vector_42" d="M19.5792 94.2933L18.999 94.8677L18.4227 94.2894L18.036 94.6723L18.6121 95.2505L18.0321 95.8249L18.4161 96.2105L18.9963 95.6361L19.5726 96.2145L19.9593 95.8315L19.3832 95.2532L19.9632 94.6789L19.5792 94.2933Z" fill="#E6E6E6"/>
<path id="Vector_43" d="M68.776 110.348L68.1958 110.922L67.6195 110.344L67.2328 110.727L67.8089 111.305L67.2289 111.879L67.6129 112.265L68.1931 111.691L68.7694 112.269L69.1561 111.886L68.58 111.308L69.16 110.733L68.776 110.348Z" fill="#E6E6E6"/>
<path id="Vector_44" d="M44.6795 115.365L44.0993 115.939L43.5231 115.361L43.1364 115.744L43.7125 116.322L43.1324 116.896L43.5165 117.282L44.0967 116.708L44.6729 117.286L45.0596 116.903L44.4835 116.325L45.0635 115.75L44.6795 115.365Z" fill="#E6E6E6"/>
<path id="Vector_45" d="M39.6595 104.327L39.0793 104.902L38.503 104.323L38.1164 104.706L38.6925 105.285L38.1124 105.859L38.4964 106.245L39.0766 105.67L39.6529 106.248L40.0396 105.866L39.4635 105.287L40.0435 104.713L39.6595 104.327Z" fill="#E6E6E6"/>
<path id="Vector_46" d="M242.471 106.334L241.891 106.909L241.314 106.33L240.928 106.713L241.504 107.291L240.924 107.866L241.308 108.251L241.888 107.677L242.464 108.255L242.851 107.872L242.275 107.294L242.855 106.72L242.471 106.334Z" fill="#E6E6E6"/>
<path id="Vector_47" d="M98.8965 30.0754L98.3163 30.6498L97.74 30.0715L97.3533 30.4544L97.9294 31.0326L97.3494 31.607L97.7334 31.9927L98.3136 31.4182L98.8899 31.9966L99.2766 31.6136L98.7004 31.0353L99.2805 30.461L98.8965 30.0754Z" fill="#E6E6E6"/>
<path id="Vector_48" d="M121.989 28.0686L121.409 28.643L120.832 28.0647L120.446 28.4476L121.022 29.0258L120.442 29.6002L120.826 29.9859L121.406 29.4114L121.982 29.9898L122.369 29.6068L121.793 29.0285L122.373 28.4542L121.989 28.0686Z" fill="#E6E6E6"/>
<path id="Vector_49" opacity="0.8" d="M207.998 82.2799L213.884 75.4112L219.77 68.5425L223.093 64.665C223.276 64.4504 222.993 64.1157 222.809 64.3302L216.923 71.199L211.037 78.0677L207.714 81.9452C207.53 82.1598 207.814 82.4945 207.998 82.2799Z" fill="url(#paint0_linear)"/>
<path id="Vector_50" opacity="0.8" d="M82.6323 54.1106L88.5184 47.2419L94.4045 40.3731L97.7273 36.4956C97.9112 36.2811 97.6275 35.9464 97.4436 36.1609L91.5575 43.0297L85.6714 49.8984L82.3486 53.7759C82.1648 53.9904 82.4485 54.3251 82.6323 54.1106Z" fill="url(#paint1_linear)"/>
<path id="Vector_51" opacity="0.8" d="M197.536 106.997L203.423 100.128L209.309 93.2594L212.631 89.3819C212.815 89.1673 212.532 88.8326 212.348 89.0471L206.462 95.9159L200.576 102.785L197.253 106.662C197.069 106.877 197.353 107.211 197.536 106.997Z" fill="url(#paint2_linear)"/>
<path id="Vector_52" d="M185.861 77.4886L185.911 77.589L185.861 77.6817V77.4886Z" fill="black"/>
</g>
<g id="Group 18">
<g id="Group 16">
<path id="Vector_53" d="M144.283 30.0716L84.2972 46.1302L95.6367 88.4118L155.622 72.3531L144.283 30.0716Z" fill="#8985C2"/>
<g id="Group 17">
<path id="Vector_54" d="M108.653 61.5011C111.799 66.9293 118.171 69.1071 118.171 69.1071C118.171 69.1071 119.442 62.484 116.297 57.0557C113.151 51.6275 106.779 49.4497 106.779 49.4497C106.779 49.4497 105.508 56.0729 108.653 61.5011Z" fill="white"/>
<path id="Vector_55" d="M110.627 59.7197C116.059 62.7619 118.314 69.0696 118.314 69.0696C118.314 69.0696 111.764 70.4449 106.332 67.4028C100.9 64.3606 98.6445 58.0529 98.6445 58.0529C98.6445 58.0529 105.195 56.6775 110.627 59.7197Z" fill="#6C63FF"/>
<path id="Vector_56" d="M123.296 57.5809C123.289 63.8531 118.861 68.9217 118.861 68.9217C118.861 68.9217 114.445 63.821 114.452 57.5488C114.459 51.2766 118.887 46.208 118.887 46.208C118.887 46.208 123.303 51.3087 123.296 57.5809Z" fill="white"/>
<path id="Vector_57" d="M120.418 57.097C117.127 62.4741 118.317 69.067 118.317 69.067C118.317 69.067 124.844 66.9419 128.136 61.5648C131.427 56.1877 130.237 49.5948 130.237 49.5948C130.237 49.5948 123.71 51.7199 120.418 57.097Z" fill="#6C63FF"/>
</g>
</g>
<g id="Group 13">
<path id="Vector_58" d="M120.653 48.3739C120.513 48.3744 120.38 48.4302 120.281 48.529C120.183 48.6278 120.128 48.7615 120.128 48.9008V91.5839C120.128 91.7233 120.183 91.857 120.281 91.9558C120.38 92.0546 120.513 92.1103 120.653 92.1108H181.626C181.766 92.1103 181.899 92.0546 181.998 91.9558C182.096 91.857 182.151 91.7233 182.151 91.5839V48.9008C182.151 48.7615 182.096 48.6278 181.998 48.529C181.899 48.4302 181.766 48.3744 181.626 48.3739H120.653Z" fill="#373549"/>
<path id="Vector_59" d="M120.433 73.459C122.293 73.4536 124.049 74.1143 125.58 75.1415C127.188 76.2198 128.546 77.6483 129.74 79.1613C131.059 80.8332 132.189 82.6422 133.402 84.3897C134.522 86.0035 135.723 87.5724 137.166 88.9133C138.532 90.1819 140.115 91.2486 141.899 91.827C142.116 91.8975 142.336 91.9598 142.558 92.0154C142.807 92.078 142.914 91.6925 142.664 91.6298C140.832 91.1702 139.193 90.1749 137.785 88.9343C136.315 87.6398 135.094 86.1037 133.97 84.5071C132.747 82.7687 131.622 80.9614 130.329 79.2728C129.133 77.7103 127.787 76.2413 126.189 75.0803C124.706 74.003 122.988 73.2357 121.147 73.0859C120.909 73.0666 120.671 73.0584 120.433 73.0591C120.381 73.0609 120.332 73.0828 120.296 73.1201C120.26 73.1574 120.24 73.2072 120.24 73.2591C120.24 73.3109 120.26 73.3608 120.296 73.3981C120.332 73.4354 120.381 73.4572 120.433 73.459L120.433 73.459Z" fill="#6C63FF"/>
<path id="Vector_60" d="M120.64 91.9198C123.912 88.6124 128.385 87.0489 132.827 86.0347C137.473 84.974 142.265 84.4045 146.679 82.5121C148.787 81.6327 150.722 80.3863 152.393 78.8309C153.954 77.3408 155.249 75.5954 156.222 73.6697C158.207 69.766 158.825 65.3094 157.976 61.0134C157.077 56.6458 154.849 52.6627 151.598 49.6097C151.201 49.2374 150.791 48.881 150.367 48.5405C150.168 48.3806 149.883 48.6618 150.084 48.8232C153.54 51.6083 156.043 55.3997 157.244 59.671C158.418 63.8845 158.115 68.3726 156.383 72.3897C155.543 74.341 154.381 76.1372 152.944 77.7031C151.42 79.3363 149.608 80.6747 147.598 81.6511C143.317 83.7637 138.524 84.4177 133.902 85.3906C129.543 86.3078 125.097 87.6163 121.602 90.4984C121.168 90.8568 120.753 91.2368 120.357 91.6371C120.176 91.8203 120.459 92.1032 120.64 91.9198Z" fill="#6C63FF"/>
<path id="Vector_61" d="M120.396 66.8814C125.417 65.5241 130.731 65.706 135.647 67.4034C137.076 67.893 138.541 68.462 139.736 69.4085C140.764 70.2228 141.666 71.4555 141.409 72.8395C141.173 74.1153 139.998 75.1231 138.735 75.3074C137.431 75.4976 136.244 74.7049 135.646 73.5816C135.34 73.0245 135.201 72.3917 135.244 71.758C135.287 71.1243 135.51 70.5161 135.887 70.005C136.643 68.9879 137.899 68.4071 139.134 68.246C140.545 68.062 141.933 68.4777 143.154 69.1728C145.912 70.7438 147.674 73.4827 149.991 75.5707C151.101 76.6029 152.405 77.4053 153.827 77.9317C155.203 78.4068 156.653 78.6261 158.108 78.5787C161.157 78.5011 164.08 77.4005 166.571 75.6739C169.069 73.942 171.133 71.6681 172.94 69.2413C173.906 67.9436 174.746 66.5493 175.757 65.2859C176.752 64.0423 177.983 62.9367 179.558 62.5204C180.275 62.3223 181.031 62.3181 181.75 62.5083C181.8 62.5203 181.854 62.5123 181.898 62.4859C181.943 62.4596 181.976 62.4169 181.989 62.3668C182.003 62.3168 181.997 62.2634 181.972 62.2179C181.947 62.1724 181.906 62.1382 181.856 62.1227C180.325 61.7055 178.716 62.1939 177.447 63.0843C176.089 64.0368 175.116 65.4174 174.193 66.7695C172.349 69.4708 170.363 72.0886 167.843 74.2018C165.326 76.3116 162.298 77.8235 158.996 78.1264C157.417 78.2856 155.821 78.1302 154.303 77.6694C152.715 77.1709 151.338 76.2706 150.121 75.1483C147.73 72.9433 145.87 70.049 142.877 68.573C141.616 67.9509 140.235 67.6524 138.837 67.8893C137.606 68.0979 136.396 68.7044 135.62 69.7009C135.227 70.2018 134.97 70.796 134.875 71.4255C134.781 72.055 134.851 72.6984 135.079 73.2928C135.521 74.4528 136.507 75.4547 137.76 75.6831C139.024 75.9137 140.346 75.331 141.135 74.3391C141.53 73.8414 141.77 73.2385 141.825 72.6054C141.88 71.9724 141.748 71.3372 141.444 70.7789C140.795 69.5242 139.528 68.6567 138.293 68.0446C136.743 67.3007 135.115 66.729 133.44 66.3399C130.002 65.502 126.431 65.3615 122.938 65.9266C122.046 66.0721 121.162 66.262 120.289 66.4958C120.24 66.5113 120.198 66.5455 120.173 66.591C120.149 66.6365 120.142 66.6899 120.156 66.7399C120.17 66.7899 120.203 66.8326 120.247 66.859C120.292 66.8854 120.345 66.8934 120.396 66.8814H120.396Z" fill="#6C63FF"/>
<path id="Vector_62" d="M162.14 92.0954C163.556 90.1956 165.003 88.1805 165.614 85.8562C165.919 84.7467 165.963 83.5821 165.745 82.4527C165.533 81.4679 165.122 80.537 164.535 79.7181C163.332 78.0102 161.558 76.7409 159.671 75.8841C157.333 74.823 154.812 74.2789 152.373 73.5137C150.124 72.8084 147.818 71.8881 146.138 70.1739C144.551 68.5543 143.652 66.1165 144.537 63.9238C145.34 61.9342 147.298 60.6148 149.252 59.9183C151.648 59.0643 154.214 58.9105 156.655 58.2337C158.696 57.6678 160.785 56.703 162.049 54.9314C163.12 53.43 163.464 51.265 162.607 49.587C162.399 49.1802 162.118 48.8147 161.778 48.5083C161.588 48.3359 161.304 48.6178 161.495 48.7911C162.939 50.0986 162.956 52.3356 162.143 53.9915C161.188 55.9358 159.126 57.0434 157.141 57.6725C154.779 58.4212 152.279 58.5811 149.905 59.2856C147.876 59.8877 145.892 60.9673 144.698 62.7716C144.118 63.6357 143.8 64.6486 143.782 65.6889C143.788 66.802 144.086 67.8942 144.644 68.8572C145.773 70.8599 147.785 72.1554 149.855 73.0295C154.208 74.8674 159.371 75.1481 162.958 78.5178C164.498 79.9649 165.543 81.8869 165.483 84.0399C165.416 86.4146 164.146 88.5751 162.825 90.4726C162.491 90.9528 162.144 91.4244 161.795 91.8936C161.641 92.1001 161.988 92.2997 162.14 92.0954V92.0954Z" fill="#6C63FF"/>
<path id="Vector_63" d="M129.462 48.9083C130.013 49.3094 130.459 49.8374 130.762 50.4474C131.064 51.0575 131.215 51.7316 131.202 52.4125C131.18 53.1018 130.988 53.7751 130.643 54.3724C130.298 54.9697 129.81 55.4723 129.224 55.8356C128.112 56.4911 126.551 56.5736 125.666 55.5024C125.3 55.068 125.118 54.5082 125.157 53.9416C125.189 53.6682 125.286 53.4064 125.44 53.1783C125.594 52.9502 125.801 52.7626 126.043 52.6314C127.165 51.9913 128.511 52.3681 129.548 52.9814C130.19 53.361 130.777 53.8228 131.391 54.2445C131.978 54.6509 132.604 54.9966 133.26 55.2764C135.874 56.3796 138.94 56.3927 141.516 55.1733C142.684 54.6147 143.729 53.8313 144.593 52.868C145.456 51.9047 146.121 50.7805 146.549 49.5598C146.652 49.258 146.739 48.9509 146.809 48.6398C146.866 48.3892 146.481 48.2823 146.423 48.5335C145.822 51.1774 143.986 53.4636 141.579 54.6977C138.956 56.0428 135.717 56.0052 133.065 54.7544C132.386 54.4198 131.738 54.0241 131.13 53.5724C130.504 53.1244 129.88 52.6618 129.181 52.333C128.082 51.8161 126.644 51.6706 125.613 52.4351C125.371 52.6109 125.17 52.8362 125.022 53.096C124.875 53.3558 124.784 53.6441 124.757 53.9416C124.718 54.5508 124.9 55.1536 125.269 55.6399C126.127 56.7955 127.67 56.9592 128.936 56.4256C130.267 55.8644 131.226 54.5938 131.511 53.1896C131.681 52.3226 131.598 51.4249 131.27 50.6042C130.943 49.7835 130.385 49.0747 129.664 48.563C129.455 48.4125 129.255 48.7592 129.462 48.9083H129.462Z" fill="#6C63FF"/>
<path id="Vector_64" d="M171.894 92.0185C172.319 90.0912 173.165 88.282 174.373 86.7208C175.576 85.1551 177.096 83.8612 178.835 82.9239C179.811 82.3991 180.851 82.002 181.928 81.7421C182.178 81.6819 182.072 81.2962 181.822 81.3566C179.855 81.8419 178.019 82.7561 176.447 84.0337C174.868 85.3032 173.575 86.8924 172.655 88.6969C172.137 89.7152 171.751 90.7958 171.508 91.9122C171.454 92.1631 171.84 92.2703 171.894 92.0185H171.894Z" fill="#6C63FF"/>
<path id="Vector_65" d="M169.77 48.5676C168.917 48.5761 168.197 49.1663 167.848 49.9187C167.452 50.7725 167.56 51.7121 167.985 52.5348C168.977 54.454 171.141 55.1341 172.7 56.461C173.424 57.0766 174.054 57.86 174.22 58.8186C174.382 59.753 174.048 60.716 173.501 61.4679C172.903 62.2889 172.003 62.8533 171.064 63.2093C170.099 63.5761 169.08 63.7803 168.048 63.8137C167.051 63.8419 165.997 63.6678 165.171 63.0735C164.829 62.8287 164.541 62.5155 164.326 62.1537C164.11 61.7919 163.973 61.3893 163.921 60.9715C163.879 60.5937 163.943 60.2117 164.106 59.8683C164.27 59.525 164.526 59.234 164.845 59.0282C165.49 58.6471 166.255 58.5231 166.987 58.6808C168.812 59.0411 169.757 60.8504 170.16 62.5089C170.674 64.6209 170.47 66.8661 171.26 68.9183C171.934 70.6549 173.16 72.122 174.75 73.0934C176.573 74.2014 178.535 74.56 180.603 74.0187C181.13 73.8782 181.642 73.6878 182.133 73.4501C182.365 73.3391 182.162 72.9942 181.931 73.1049C179.875 74.0883 177.771 74.1197 175.702 73.1506C173.988 72.3377 172.614 70.9484 171.82 69.2256C170.884 67.1894 171.07 64.9031 170.625 62.7524C170.266 61.0213 169.395 59.0916 167.615 58.4407C166.183 57.9169 164.264 58.3235 163.667 59.8648C163.356 60.6705 163.536 61.5918 163.964 62.3191C164.447 63.116 165.21 63.7043 166.104 63.9693C167.107 64.2881 168.19 64.2614 169.22 64.0991C170.256 63.9544 171.258 63.6255 172.178 63.128C173.059 62.6497 173.776 61.9172 174.235 61.026C174.662 60.1548 174.8 59.141 174.475 58.2127C173.757 56.1616 171.584 55.3147 169.963 54.1288C169.164 53.5444 168.413 52.7769 168.116 51.8098C167.976 51.3955 167.957 50.9502 168.061 50.5256C168.165 50.1009 168.387 49.7144 168.701 49.4108C168.989 49.1342 169.371 48.9759 169.77 48.9674C169.822 48.9656 169.871 48.9438 169.907 48.9065C169.943 48.8692 169.963 48.8193 169.963 48.7675C169.963 48.7156 169.943 48.6658 169.907 48.6285C169.871 48.5912 169.822 48.5694 169.77 48.5676L169.77 48.5676Z" fill="#6C63FF"/>
<path id="Vector_66" d="M161.757 85.093C166.029 85.093 169.492 81.6318 169.492 77.3622C169.492 73.0926 166.029 69.6314 161.757 69.6314C157.484 69.6314 154.021 73.0926 154.021 77.3622C154.021 81.6318 157.484 85.093 161.757 85.093Z" fill="#6C63FF"/>
<path id="Vector_67" d="M163.757 60.0346C165.451 60.0346 166.825 58.662 166.825 56.9689C166.825 55.2758 165.451 53.9033 163.757 53.9033C162.063 53.9033 160.69 55.2758 160.69 56.9689C160.69 58.662 162.063 60.0346 163.757 60.0346Z" fill="#6C63FF"/>
<path id="Vector_68" d="M126.28 62.3006C127.974 62.3006 129.348 60.928 129.348 59.2349C129.348 57.5418 127.974 56.1693 126.28 56.1693C124.586 56.1693 123.213 57.5418 123.213 59.2349C123.213 60.928 124.586 62.3006 126.28 62.3006Z" fill="#6C63FF"/>
</g>
<g id="F">
<g id="Group 10">
<g id="Group 9">
<path id="Rectangle 6" d="M85.0935 71.2679C85.0935 69.611 86.4367 68.2679 88.0935 68.2679H102.89C103.994 68.2679 104.89 69.1633 104.89 70.2679V81.6354H85.0935V71.2679Z" fill="#E6E6E6"/>
<path id="Vector 1" d="M104.5 81.6355V69.6046L118.411 81.6355H104.5Z" fill="#E6E6E6" stroke="#C4C4C4"/>
<path id="Rectangle 5" d="M85.0935 81.6355H180.609C182.818 81.6355 184.609 83.4264 184.609 85.6355V125.759C184.609 127.968 182.818 129.759 180.609 129.759H90.0935C87.3321 129.759 85.0935 127.52 85.0935 124.759V81.6355Z" fill="#E6E6E6"/>
</g>
</g>
<path id="Vector_69" d="M176.575 126.774H91.6206C90.8831 126.774 90.176 126.481 89.6545 125.961C89.1329 125.44 88.8396 124.735 88.8387 123.999V73.7167C88.8396 72.9809 89.1329 72.2755 89.6545 71.7552C90.176 71.2349 90.8831 70.9422 91.6206 70.9414C92.273 70.9421 92.8984 71.201 93.3597 71.6612C93.8209 72.1214 94.0804 72.7453 94.0811 73.3961V120.687C94.0819 121.376 94.3568 122.038 94.8456 122.525C95.3344 123.013 95.997 123.287 96.6882 123.288H176.289C176.684 123.283 177.069 123.411 177.384 123.651C177.698 123.891 177.922 124.229 178.021 124.611C178.132 124.973 178.118 125.362 177.982 125.715C177.846 126.068 177.594 126.366 177.269 126.56C177.062 126.695 176.822 126.769 176.575 126.774Z" fill="#CBCBCB"/>
</g>
</g>
<g id="Group 26">
<path id="Vector_70" d="M30.5 40C33.5376 40 36 37.5376 36 34.5C36 31.4624 33.5376 29 30.5 29C27.4624 29 25 31.4624 25 34.5C25 37.5376 27.4624 40 30.5 40Z" fill="#6C63FF"/>
<path id="Vector_71" d="M35.2891 37.9531C34.2331 37.9532 31.9012 36.8686 29.8273 35.5983C27.2537 34.022 24.7543 31.9617 25.1912 31.2483C25.3148 31.0467 25.6209 30.9939 26.1273 31.0869L26.091 31.2846C25.6988 31.2124 25.4335 31.2376 25.3626 31.3532C25.2593 31.5218 25.4871 32.0114 26.436 32.8797C27.3008 33.6711 28.5424 34.5757 29.9323 35.4269C31.3221 36.2782 32.6921 36.9733 33.7899 37.3841C34.9946 37.8349 35.5342 37.8152 35.6374 37.6467C35.7083 37.5309 35.6098 37.2828 35.3671 36.9659L35.5266 36.8437C35.8401 37.253 35.9324 37.55 35.8088 37.7517C35.724 37.8902 35.5436 37.9531 35.2891 37.9531Z" fill="#FBF7FD"/>
<path id="Vector_72" d="M29.821 32.798C30.4424 32.798 30.946 32.2943 30.946 31.673C30.946 31.0517 30.4424 30.548 29.821 30.548C29.1997 30.548 28.696 31.0517 28.696 31.673C28.696 32.2943 29.1997 32.798 29.821 32.798Z" fill="white"/>
<path id="Vector_73" d="M30.147 38.5901C30.5612 38.5901 30.897 38.2544 30.897 37.8401C30.897 37.4259 30.5612 37.0901 30.147 37.0901C29.7328 37.0901 29.397 37.4259 29.397 37.8401C29.397 38.2544 29.7328 38.5901 30.147 38.5901Z" fill="white"/>
<path id="Vector_74" d="M32.7296 36.0189C33.1438 36.0189 33.4796 35.6832 33.4796 35.2689C33.4796 34.8547 33.1438 34.5189 32.7296 34.5189C32.3154 34.5189 31.9796 34.8547 31.9796 35.2689C31.9796 35.6832 32.3154 36.0189 32.7296 36.0189Z" fill="white"/>
</g>
</g>
</g>
<defs>
<filter id="filter0_d" x="0" y="0" width="270" height="187" filterUnits="userSpaceOnUse" color-interpolation-filters="sRGB">
<feFlood flood-opacity="0" result="BackgroundImageFix"/>
<feColorMatrix in="SourceAlpha" type="matrix" values="0 0 0 0 0 0 0 0 0 0 0 0 0 0 0 0 0 0 127 0"/>
<feOffset dy="1"/>
<feGaussianBlur stdDeviation="5"/>
<feColorMatrix type="matrix" values="0 0 0 0 0 0 0 0 0 0 0 0 0 0 0 0 0 0 0.25 0"/>
<feBlend mode="normal" in2="BackgroundImageFix" result="effect1_dropShadow"/>
<feBlend mode="normal" in="SourceGraphic" in2="effect1_dropShadow" result="shape"/>
</filter>
<linearGradient id="paint0_linear" x1="207.654" y1="73.3051" x2="223.152" y2="73.3051" gradientUnits="userSpaceOnUse">
<stop stop-color="white"/>
<stop offset="1" stop-color="white" stop-opacity="0.3"/>
</linearGradient>
<linearGradient id="paint1_linear" x1="82.2891" y1="45.1358" x2="97.7869" y2="45.1358" gradientUnits="userSpaceOnUse">
<stop stop-color="white"/>
<stop offset="1" stop-color="white" stop-opacity="0.3"/>
</linearGradient>
<linearGradient id="paint2_linear" x1="9980.56" y1="9774.12" x2="11325.9" y2="9774.12" gradientUnits="userSpaceOnUse">
<stop stop-color="white"/>
<stop offset="1" stop-color="white" stop-opacity="0.3"/>
</linearGradient>
</defs>
</svg>
